<?xml version="1.0" encoding="UTF-8"?><svg id="Capa_2" xmlns="http://www.w3.org/2000/svg" viewBox="0 0 274.4 78.1"><defs><style>.cls-1{fill:#080909;stroke-width:0px;}</style></defs><g id="Capa_1-2"><g id="L7ZCr3.tif"><path class="cls-1" d="M108.81,36.19c-.38.22-.74.15-1.08.15-15.59,0-31.18,0-46.77,0-13.45,0-26.91-.02-40.36-.02-.82,0-1.65-.03-2.44.13-1.93.39-3.16,1.57-3.87,3.43-.91,2.41.2,4.19,1.73,5.77.42.44,1.18.81,1.95.82.55,0,1.11.09,1.66.09,29.54,0,59.09,0,88.63.01.35,0,.94-.2,1.01.15.09.49-.54.45-.89.6-1.62.68-3.24,1.36-4.86,2.05-1.35.58-2.69,1.17-4.03,1.76-1.28.56-2.56,1.14-3.85,1.7-1.18.52-2.37,1.03-3.55,1.55-1.41.62-2.79,1.35-4.24,1.84-1.32.45-2.54,1.12-3.84,1.6-1.26.47-2.45,1.09-3.71,1.59-1.31.52-2.61,1.1-3.88,1.71-1.54.74-3.16,1.26-4.67,2.07-.98.52-2.11.75-3.11,1.25-1.5.74-3.11,1.25-4.59,2.05-.88.48-1.87.78-2.81,1.17-2.01.84-4.1,1.29-6.33,1.13-1.42-.1-2.59-.79-3.84-1.26-1.22-.46-2.37-1.12-3.58-1.64-1.75-.76-3.48-1.59-5.25-2.28-1.31-.51-2.55-1.18-3.87-1.67-1.44-.53-2.82-1.25-4.24-1.87-1.07-.47-2.16-.87-3.21-1.38-1.54-.74-3.16-1.27-4.66-2.08-.88-.47-1.87-.76-2.78-1.18-1.64-.76-3.32-1.44-4.97-2.19-1.29-.59-2.64-1.1-3.95-1.67-1.21-.54-2.45-1.05-3.65-1.61-1.31-.61-2.69-1.13-4.03-1.72-1.94-.86-4.12-1.3-5.57-3.1-.7-.87-1.05-1.83-1.22-2.87-.39-2.34.51-4.19,2.35-5.58.97-.74,2.15-1.14,3.26-1.62,2-.87,4-1.76,6-2.64,1.7-.75,3.4-1.53,5.13-2.23,1.92-.79,3.84-1.58,5.7-2.53.91-.46,1.94-.76,2.88-1.21,1.54-.73,3.14-1.33,4.67-2.08,1.19-.59,2.47-1.04,3.68-1.6,1.29-.6,2.6-1.16,3.9-1.73,1.26-.56,2.53-1.12,3.81-1.66,1.62-.69,3.22-1.43,4.84-2.09,1.36-.56,2.62-1.33,4.03-1.78.78-.25,1.47-.72,2.27-.98,1.08-.35,2.14-.45,3.23-.41,1.65.06,3.15.65,4.69,1.26,1.42.56,2.8,1.23,4.25,1.75,1.53.54,2.96,1.35,4.49,1.92,1.7.63,3.33,1.48,5,2.21,1.94.84,3.91,1.6,5.82,2.48,1.88.87,3.78,1.69,5.68,2.52,1.72.75,3.47,1.49,5.22,2.2,1.73.7,3.38,1.6,5.13,2.24,2.47.91,4.85,2.03,7.24,3.09,1.59.71,3.32,1.16,4.79,2.16.18.12.47-.02.68.27Z"/><path class="cls-1" d="M155.04,43c2.28,0,4.56,0,6.84,0,.35,0,.7.07,1.05.07.37,0,.67.18.65.51-.02.36,0,.8-.56.94-.98.24-1.37,1.12-1.75,1.9-.41.85.4,1.34.83,1.88,1.05,1.33,2.17,2.61,3.24,3.93.18.22.23.32.47,0,1.23-1.6,2.46-3.2,3.78-4.72.8-.93.92-2.32-.61-2.98-.26-.11-.45-.26-.61-.45-.35-.43-.19-.89.35-.98.37-.06.75-.09,1.13-.09,2.51,0,5.03,0,7.55,0,.23,0,.47,0,.7.02.33.04.78,0,.76.5-.01.39-.25.75-.66.82-1.63.31-2.45,1.57-3.41,2.73-.99,1.19-1.91,2.44-2.91,3.63-1.34,1.58-2.55,3.27-3.86,4.86-1.24,1.5-2.43,3.05-3.67,4.56-1.32,1.6-2.55,3.28-3.88,4.87-.69.83-1.52,1.56-2.46,2.08-1.59.89-3.26,1.6-5.16,1.51-1.45-.07-2.73-.64-3.45-1.85-.61-1.01-.8-2.17-.33-3.47.54-1.47,1.5-2.22,2.91-2.53.65-.14,1.28,0,1.94.27.8.33.52,1.08.84,1.58.2.3.06.84.63.88.61.04,1.26.12,1.72-.41.84-.98,1.66-1.97,2.44-2.99.19-.24.25-.65,0-.9-1.2-1.27-2.27-2.67-3.35-4.02-1.41-1.75-2.91-3.44-4.26-5.25-.72-.97-1.61-1.86-2.37-2.82-.85-1.08-1.5-2.31-2.68-3.12-.11-.08-.47-.29-.33-.6.11-.24.38-.23.6-.26.29-.05.58-.07.87-.07,2.34,0,4.68,0,7.02,0Z"/><path class="cls-1" d="M204.22,45.68c0,.79,0,1.58,0,2.37,0,.89-.27,1.11-1,.67-1.96-1.19-4.07-1.93-6.29-2.49-2.1-.53-4.2-.99-6.39-.85-.71.05-1.46.2-1.52,1.02-.07.87.74,1.18,1.4,1.3,1.59.3,3.22.4,4.8.72,2.38.49,4.83.64,7.16,1.39,2.21.71,3.63,3.67,2.66,5.76-.39.85-1.09,1.57-1.9,2.13-1.71,1.18-3.64,1.7-5.65,2.16-2.2.51-4.37.69-6.6.62-.91-.03-1.73-.35-2.58-.57-1.85-.47-3.69-.55-5.53.14-.56.21-1.17.29-1.76.4-.53.1-.76-.18-.76-.68,0-1.28,0-2.57,0-3.85,0-.82.6-.73,1.01-.49,1.16.68,2.45.94,3.69,1.37,2.37.82,4.85,1.12,7.32.84,1.17-.13,2.48-.2,3.45-1.15.71-.69.58-1.2-.43-1.6-1.62-.64-3.32-.82-5.03-.91-1.43-.07-2.87-.03-4.29-.17-1.54-.16-3.08-.58-4.15-1.76-2.11-2.33-1.69-6.19,1.4-7.7,1.78-.87,3.6-1.35,5.55-1.37.9,0,1.74-.32,2.65-.3,1.83.04,3.65.25,5.43.53,1.17.19,2.33.43,3.52.39.95-.03,1.82-.28,2.58-.93.29-.25.8-.34,1.16-.19.25.11.1.53.1.81.02.79,0,1.58,0,2.37Z"/><path class="cls-1" d="M249.01,51.62c0,1.17-.02,2.34,0,3.51.03,1.42,1.12,2.45,2.58,2.11.29-.07.54-.11.67-.43.21-.53.74-.7,1.11-.43.37.28.27.83-.03,1.24-1.17,1.58-2.71,2.41-4.7,2.6-1.88.18-3.6-.33-5.35-.87-.67-.21-1.34-.42-1.99-.69-.47-.2-.95-.07-1.34.16-2.86,1.65-5.97,1.96-9.15,1.57-1.2-.15-2.42-.48-3.54-1.1-1.64-.9-1.95-3.83-.96-4.94,1.39-1.56,2.95-2.68,4.95-3.35,1.63-.54,3.26-.95,4.96-1.09.34-.03.67,0,1.02.15.76.32,1.47-.05,2.11-.4.4-.22.45-1.82.26-2.35-.65-1.91-3.29-2.04-4.59-.33-1.05,1.37-2.41,2.47-4.29,2.94-1.31.32-2.2.04-3.09-.71-.86-.73-.79-2.18.05-2.95,1.57-1.44,3.47-2.15,5.47-2.76,1.7-.51,3.46-.83,5.18-.72,2.25.14,4.49.48,6.6,1.49,1.21.57,2.33,1.15,3.34,2.04.58.51.71,1.08.72,1.73.02,1.2,0,2.4,0,3.59ZM239.5,53.77c0-.38,0-.76,0-1.14,0-1.08-.64-1.66-1.67-1.36-1.35.39-2.65.9-3.45,2.21-.54.87-.75,2.22-.32,2.86.82,1.19,1.36,1.39,2.83,1.03,1.92-.46,2.61-1.32,2.61-3.25v-.35Z"/><path class="cls-1" d="M125.21,59.83c-2.43,0-4.85,0-7.28,0-.32,0-.79.18-.91-.22-.14-.48.44-.65.7-.8,1.6-.93,2.51-2.2,2.47-4.12-.05-2.36,0-4.73-.01-7.09,0-1.18-1.13-2.73-2.25-3.11-.06-.02-.11-.05-.17-.06-.44-.02-.72-.42-.68-.68.04-.25.4-.57.82-.56.7.01,1.4,0,2.1,0,2.84,0,5.67,0,8.51,0,.62,0,1.21-.05,1.83.28.72.38,1.34-.31,1.97-.61,1.97-.93,3.92-1.45,6.1-.49.81.36,1.63.63,2.4,1.1,2.1,1.29,1.46,4.3-.2,5.3-1.81,1.09-3.7,1.12-5.64.44-.54-.19-.67-.54-.18-.91.62-.47.89-1.09.59-1.77-.27-.62-.91-.75-1.57-.75-2.02,0-4.07,1.99-4.09,4.01-.01,1.66.11,3.34-.03,4.99-.16,1.89,1.61,3.45,3.26,3.83.39.09.74.16.72.68-.02.54-.42.51-.75.51-2.57.01-5.14,0-7.72,0,0,.01,0,.02,0,.03Z"/><path class="cls-1" d="M270.77,47.32c0,2.8,0,5.61,0,8.41,0,1.68.87,2.73,2.5,3.02.11.02.29-.02.34.05.21.3.86.2.78.66-.08.44-.59.36-.95.36-4.97,0-9.95.01-14.92,0-.19,0-.57.2-.61-.21-.03-.4.34-.31.57-.34,1.2-.15,1.85-.99,2.22-1.99.26-.71.56-1.43.56-2.23,0-4,.05-8.01-.03-12.01-.04-2.1-.9-3.82-2.96-4.72-.14-.06-.39-.03-.35-.29.05-.3.31-.22.49-.22,1.35-.01,2.69,0,4.04,0,2.52,0,5.03.02,7.55-.01.6,0,.79.14.79.77-.03,2.92-.02,5.84-.02,8.76Z"/><path class="cls-1" d="M218.65,9.24c-.09,4.05-.05,8.11-.32,12.15-.19,2.78-.07,5.58-.33,8.35-.46,4.9-.19,9.82-.52,14.71-.37,5.48-.21,10.98-.55,16.46-.29,4.65-.33,9.29-.44,13.94-.36.01-.3-.26-.31-.48,0-.26,0-.52-.35-.58-.08-3.41,0-6.84-.28-10.23-.36-4.18-.19-8.36-.54-12.53-.17-2.08-.08-4.17-.32-6.23-.48-4.15-.19-8.32-.54-12.46-.37-4.29-.15-8.61-.54-12.88-.31-3.39-.18-6.79-.45-10.17.63-.5,1.35-.25,2.04-.25-.04,2.47.26,4.92.6,7.38.32-2.46.84-4.9.7-7.4.13-.86.23-1.72.15-2.59.02-.98.02-1.97.06-2.95.02-.56-.2-1.07-.71-1.12-.59-.06-.78.53-.87,1.04-.04.25-.02.52-.02.78,0,.72-.02,1.45-.03,2.17-.64.23-1.3.15-1.95.11-.37-1.71-.11-3.37.58-4.93.77-1.75,2.54-2.11,4.01-.51.96,1.05.96,2.39,1.17,3.66.1.6.05,1.22.07,1.83-.25.19-.33.43-.32.74.02.66,0,1.32,0,1.98Z"/><path class="cls-1" d="M215.2,9.03c-.69,0-1.41-.25-2.04.25-1.89.05-3.76.06-5.63.46-1.63.35-3.28.62-4.92.97-2.1.45-4.12,1.14-6.15,1.84-1.74.6-3.44,1.3-5.11,2.07-1.2.55-2.34,1.22-3.53,1.8-1.76.86-3.34,2.01-5.03,2.99-.46.26-.74.77-1.29.88-.04-.04-.07-.08-.12-.12.15-1,1.13-1.24,1.73-1.82,1.55-1.53,3.32-2.81,5.15-3.96,1.24-.78,2.53-1.49,3.8-2.23,1.8-1.04,3.76-1.65,5.61-2.55,1.09-.53,2.31-.79,3.48-1.16,1.56-.49,3.18-.72,4.76-1.11,2.38-.59,4.79-.76,7.21-.88.66.04,1.31.12,1.95-.11.52.17,1.05.05,1.57.07.08.87-.02,1.73-.15,2.59-.43,0-.87.01-1.3.02Z"/><path class="cls-1" d="M218.65,9.24c0-.66.01-1.32,0-1.98,0-.31.07-.55.32-.74,2.91-.12,5.72.59,8.52,1.16,2.04.41,4.04,1.1,5.98,1.86,2.22.87,4.42,1.81,6.5,3.04,1.23.74,2.49,1.45,3.68,2.25,1.1.74,2.11,1.64,3.15,2.48,1.38,1.11,2.66,2.32,3.92,3.48-.64.07-1.11-.38-1.53-.76-.73-.67-1.63-1.04-2.41-1.6-1.9-1.35-4-2.34-6-3.52-.94-.56-2.06-.82-3.05-1.31-1.69-.83-3.53-1.28-5.26-2.01-.78-.33-1.64-.51-2.47-.68-1.28-.25-2.58-.46-3.83-.78-2.47-.64-4.97-.77-7.49-.87Z"/><path class="cls-1" d="M215.83,73.79c.34.06.34.31.35.58,0,.21-.06.49.31.48.06,1.02.05,2.03-.06,3.25-.83-1.49-.61-2.91-.6-4.31Z"/><path class="cls-1" d="M181.51,20.29c-.16.14-.22.42-.5.39-.05,0-.13-.12-.12-.16.07-.25.24-.37.5-.35.04.04.08.08.12.12Z"/></g></g></svg>