<?xml version="1.0" encoding="UTF-8"?><svg id="Capa_1" xmlns="http://www.w3.org/2000/svg" viewBox="0 0 571.82 249.73"><path d="m551.2,172.36c0-3.05,2.41-5.46,5.54-5.46s5.45,2.41,5.45,5.46c0,3.22-2.42,5.5-5.45,5.5s-5.54-2.28-5.54-5.5m5.54,6.65c3.56,0,6.56-2.79,6.56-6.65s-3-6.55-6.56-6.55-6.63,2.81-6.63,6.55,3,6.65,6.63,6.65m-1.42-6.09h1.32l2.05,3.26h1.29l-2.2-3.3c1.14-.15,1.99-.73,1.99-2.07,0-1.48-.91-2.14-2.72-2.14h-2.88v7.51h1.15v-3.26Zm0-.98v-2.33h1.6c.78,0,1.62.16,1.62,1.12,0,1.13-.86,1.21-1.85,1.21h-1.38Z"/><path d="m30.93,223.88c0,4.14-1.19,7.21-3.6,9.22-2.41,2.02-6.14,3.02-11.2,3.02h-6.27v-24.54h5.32c5.6,0,9.63.99,12.08,2.99,2.45,1.99,3.67,5.09,3.67,9.31m-6.62,0c0-2.36-.61-4.1-1.82-5.22-1.22-1.13-3.1-1.68-5.67-1.68h-.56v13.74h.56c2.58,0,4.47-.55,5.68-1.66,1.2-1.11,1.81-2.83,1.81-5.17"/><polygon points="48.81 236.12 34.77 236.12 34.77 211.58 48.81 211.58 48.81 216.98 41.17 216.98 41.17 221.08 48.5 221.08 48.5 226.3 41.17 226.3 41.17 230.71 48.81 230.71 48.81 236.12"/><polygon points="92.56 236.12 86.2 236.12 84.18 221.12 79.83 236.12 75.42 236.12 71.07 221.12 69.01 236.12 62.69 236.12 66.43 211.58 73.15 211.58 77.64 227.02 82.08 211.58 88.81 211.58 92.56 236.12"/><polygon points="109.94 236.12 95.91 236.12 95.91 211.58 109.94 211.58 109.94 216.98 102.3 216.98 102.3 221.08 109.62 221.08 109.62 226.3 102.3 226.3 102.3 230.71 109.94 230.71 109.94 236.12"/><path d="m134.87,223.88c0,4.14-1.2,7.21-3.6,9.22-2.41,2.02-6.15,3.02-11.2,3.02h-6.28v-24.54h5.33c5.6,0,9.63.99,12.08,2.99,2.46,1.99,3.67,5.09,3.67,9.31m-6.62,0c0-2.36-.61-4.1-1.82-5.22-1.22-1.13-3.1-1.68-5.67-1.68h-.56v13.74h.56c2.58,0,4.47-.55,5.68-1.66,1.2-1.11,1.81-2.83,1.81-5.17"/><polygon points="152.76 236.12 138.72 236.12 138.72 211.58 152.76 211.58 152.76 216.98 145.1 216.98 145.1 221.08 152.44 221.08 152.44 226.3 145.1 226.3 145.1 230.71 152.76 230.71 152.76 236.12"/><polygon points="169.9 236.12 156.62 236.12 156.62 211.58 163.26 211.58 163.26 230.49 169.9 230.49 169.9 236.12"/><polygon points="186.03 236.12 172.74 236.12 172.74 211.58 179.4 211.58 179.4 230.49 186.03 230.49 186.03 236.12"/><rect x="188.67" y="211.58" width="6.37" height="24.54"/><polygon points="224.07 236.12 217.69 236.12 206.32 220.88 206.32 236.12 199.93 236.12 199.93 211.58 206.36 211.58 217.69 226.83 217.69 211.58 224.07 211.58 224.07 236.12"/><path d="m257.93,219.94c0,2.69-.89,4.73-2.69,6.09-1.8,1.36-4.46,2.05-7.99,2.05h-1.03v8.04h-6.4v-24.54h7.15c3.79,0,6.55.68,8.33,2.06,1.76,1.36,2.63,3.48,2.63,6.3m-6.63-.09c0-1.07-.33-1.86-.98-2.34-.66-.48-1.73-.73-3.22-.73h-.88v6.08h.82c1.54,0,2.63-.22,3.28-.69.66-.46.98-1.23.98-2.32"/><path d="m283.19,236.12h-6.83l-1.34-4.35h-9.37l-1.38,4.35h-6.83l8.73-24.54h8.3l8.73,24.54Zm-9.56-9.08l-3.26-10.43-3.3,10.43h6.56Z"/><path d="m304.84,236.12h-7.53l-5.62-9.54v9.54h-6.4v-24.54h7.49c3.97,0,6.79.62,8.39,1.87,1.62,1.25,2.42,3.21,2.42,5.9,0,1.88-.47,3.42-1.4,4.62-.93,1.19-2.29,1.98-4.07,2.36l6.71,9.79Zm-7.88-15.96c0-1.21-.29-2.08-.91-2.6-.61-.53-1.65-.79-3.09-.79h-1.27v6.53h1.15c1.42,0,2.45-.26,3.12-.78.67-.51,1-1.29,1-2.36"/><path d="m331.31,236.12h-6.83l-1.34-4.35h-9.39l-1.35,4.35h-6.84l8.73-24.54h8.3l8.73,24.54Zm-9.56-9.08l-3.26-10.43-3.3,10.43h6.56Z"/><path d="m367.95,236.12h-6.83l-1.34-4.35h-9.37l-1.36,4.35h-6.84l8.73-24.54h8.3l8.73,24.54Zm-9.56-9.08l-3.26-10.43-3.3,10.43h6.56Z"/><polygon points="394.2 236.12 387.82 236.12 376.45 220.88 376.45 236.12 370.05 236.12 370.05 211.58 376.47 211.58 387.82 226.83 387.82 211.58 394.2 211.58 394.2 236.12"/><polygon points="413.34 217.2 408.36 217.2 408.36 236.13 401.97 236.13 401.97 217.2 396.96 217.2 396.96 211.57 413.34 211.57 413.34 217.2"/><rect x="415.7" y="211.58" width="6.37" height="24.54"/><path d="m452.2,223.88c0,3.61-1.27,6.64-3.82,9.09s-5.7,3.67-9.47,3.67-6.94-1.22-9.49-3.67-3.81-5.48-3.81-9.09,1.27-6.65,3.83-9.11c2.56-2.48,5.72-3.72,9.47-3.72s6.92,1.23,9.47,3.7c2.55,2.47,3.82,5.52,3.82,9.13m-6.65,0c0-1.88-.63-3.47-1.88-4.74-1.26-1.27-2.85-1.91-4.76-1.91s-3.56.62-4.82,1.88c-1.23,1.26-1.86,2.83-1.86,4.76s.62,3.45,1.88,4.7c1.26,1.26,2.86,1.88,4.8,1.88s3.52-.62,4.77-1.89c1.25-1.26,1.87-2.82,1.87-4.69"/><path d="m481.1,223.88c0,1.81-.35,3.53-1.05,5.14-.72,1.62-1.72,3.02-3.02,4.2l3.88,5.12-5.34.66-2.52-3.34c-.84.34-1.69.59-2.58.74-.86.18-1.75.25-2.67.25-3.78,0-6.94-1.22-9.49-3.67-2.55-2.45-3.82-5.48-3.82-9.09s1.28-6.65,3.85-9.11c2.56-2.48,5.7-3.72,9.47-3.72s6.92,1.23,9.47,3.7c2.55,2.47,3.82,5.52,3.82,9.13m-6.64,0c0-1.88-.64-3.47-1.88-4.74-1.27-1.27-2.85-1.91-4.76-1.91s-3.56.62-4.82,1.88c-1.23,1.26-1.86,2.83-1.86,4.76s.62,3.45,1.88,4.7c1.26,1.26,2.86,1.88,4.8,1.88.2,0,.42-.01.62-.02.21-.01.41-.05.61-.09l-2.99-3.93,5.34-.65,1.69,2.25c.45-.59.78-1.23,1.02-1.93.22-.71.34-1.45.34-2.21"/><path d="m505.68,224.78c0,4.56-.78,7.68-2.35,9.35-1.58,1.67-4.3,2.52-8.19,2.52s-6.62-.85-8.2-2.52c-1.58-1.67-2.36-4.79-2.36-9.35v-13.21h6.4v13.28c0,2.41.29,4.05.91,4.88.6.85,1.69,1.27,3.26,1.27s2.63-.42,3.25-1.27c.62-.83.92-2.47.92-4.88v-13.28h6.37v13.21Z"/><rect x="510.36" y="211.58" width="6.39" height="24.54"/><path d="m544.44,236.12h-6.84l-1.33-4.35h-9.39l-1.36,4.35h-6.83l8.73-24.54h8.3l8.73,24.54Zm-9.57-9.08l-3.26-10.43-3.29,10.43h6.55Z"/><path d="m34.12,197.03c-1.06.67-2.33,1.18-3.81,1.53-1.49.35-3.14.52-4.95.52-4.83,0-8.86-1.62-12.04-4.87-3.19-3.25-4.79-7.34-4.79-12.28s1.6-9.04,4.79-12.32c3.21-3.28,7.22-4.92,12.04-4.92,1.85,0,3.52.18,4.99.52,1.46.34,2.72.86,3.78,1.54v9.76c-1-1.12-2.19-1.98-3.56-2.59-1.38-.61-2.8-.92-4.28-.92-2.63,0-4.76.84-6.4,2.51-1.63,1.68-2.43,3.88-2.43,6.59,0,2.54.81,4.62,2.47,6.24,1.66,1.61,3.78,2.43,6.36,2.43,1.44,0,2.86-.32,4.26-.93,1.4-.62,2.6-1.47,3.59-2.58v9.76Z"/><path d="m70.25,198.38h-9.19l-1.8-5.86h-12.6l-1.83,5.86h-9.19l11.73-32.98h11.15l11.73,32.98Zm-12.85-12.2l-4.39-14.01-4.41,14.01h8.8Z"/><polygon points="111.57 198.37 103.02 198.37 100.33 178.21 94.47 198.37 88.56 198.37 82.7 178.21 79.95 198.37 71.47 198.37 76.49 165.41 85.5 165.41 91.54 186.14 97.53 165.41 106.53 165.41 111.57 198.37"/><path d="m147.4,198.38h-9.2l-1.79-5.86h-12.6l-1.84,5.86h-9.2l11.73-32.98h11.16l11.73,32.98Zm-12.87-12.2l-4.37-14.01-4.42,14.01h8.8Z"/><path d="m176.46,198.37h-10.1l-7.56-12.81v12.81h-8.59v-32.96h10.06c5.36,0,9.13.84,11.28,2.51,2.16,1.68,3.26,4.33,3.26,7.94,0,2.54-.63,4.6-1.88,6.21-1.26,1.6-3.08,2.66-5.47,3.16l9.01,13.15Zm-10.57-21.43c0-1.62-.4-2.79-1.22-3.49-.82-.71-2.21-1.06-4.15-1.06h-1.72v8.75h1.55c1.89,0,3.3-.34,4.2-1.02.89-.68,1.34-1.74,1.34-3.18"/><path d="m212.02,198.38h-9.2l-1.79-5.86h-12.6l-1.83,5.86h-9.2l11.73-32.98h11.16l11.73,32.98Zm-12.87-12.2l-4.38-14.01-4.42,14.01h8.8Z"/><path d="m258.19,181.93c0,5.55-1.61,9.69-4.85,12.4-3.25,2.7-8.24,4.05-15.04,4.05h-8.41v-32.96h7.13c7.54,0,12.95,1.33,16.24,4.01,3.28,2.68,4.93,6.86,4.93,12.51m-8.9,0c0-3.18-.81-5.52-2.45-7.01-1.63-1.51-4.16-2.26-7.61-2.26h-.75v18.45h.75c3.45,0,5.99-.74,7.62-2.23,1.62-1.48,2.43-3.8,2.43-6.95"/><polygon points="282.19 198.37 263.33 198.37 263.33 165.41 282.19 165.41 282.19 172.66 271.93 172.66 271.93 178.18 281.77 178.18 281.77 185.18 271.93 185.18 271.93 191.12 282.19 191.12 282.19 198.37"/><path d="m326.52,197.03c-1.06.67-2.33,1.18-3.81,1.53-1.48.35-3.14.52-4.95.52-4.83,0-8.86-1.62-12.04-4.87-3.19-3.25-4.79-7.34-4.79-12.28s1.6-9.04,4.8-12.32c3.2-3.28,7.21-4.92,12.03-4.92,1.85,0,3.52.18,4.99.52,1.46.34,2.72.86,3.78,1.54v9.76c-1-1.12-2.19-1.98-3.56-2.59-1.36-.61-2.8-.92-4.28-.92-2.63,0-4.76.84-6.4,2.51-1.62,1.68-2.45,3.88-2.45,6.59,0,2.54.82,4.62,2.48,6.24,1.66,1.61,3.78,2.43,6.36,2.43,1.44,0,2.86-.32,4.26-.93,1.41-.62,2.6-1.47,3.59-2.58v9.76Z"/><path d="m365.8,181.93c0,4.86-1.73,8.94-5.15,12.22-3.42,3.29-7.66,4.93-12.71,4.93s-9.32-1.63-12.74-4.93c-3.42-3.28-5.13-7.36-5.13-12.22s1.71-8.91,5.15-12.25c3.43-3.32,7.68-4.97,12.71-4.97s9.29,1.66,12.71,4.97c3.42,3.32,5.15,7.4,5.15,12.25m-8.94,0c0-2.53-.84-4.66-2.53-6.36-1.68-1.72-3.82-2.56-6.4-2.56s-4.79.85-6.47,2.53c-1.66,1.69-2.49,3.82-2.49,6.4s.84,4.65,2.52,6.33c1.69,1.68,3.85,2.52,6.44,2.52s4.74-.85,6.41-2.53c1.68-1.68,2.52-3.8,2.52-6.32"/><polygon points="408.71 198.37 400.16 198.37 397.46 178.21 391.61 198.37 385.7 198.37 379.84 178.21 377.09 198.37 368.61 198.37 373.63 165.41 382.64 165.41 388.69 186.14 394.67 165.41 403.67 165.41 408.71 198.37"/><polygon points="432.06 198.37 413.2 198.37 413.2 165.41 432.06 165.41 432.06 172.66 421.79 172.66 421.79 178.18 431.63 178.18 431.63 185.18 421.79 185.18 421.79 191.12 432.06 191.12 432.06 198.37"/><path d="m463.49,198.37h-10.1l-7.56-12.81v12.81h-8.59v-32.96h10.07c5.35,0,9.11.84,11.27,2.51,2.18,1.68,3.26,4.33,3.26,7.94,0,2.54-.64,4.6-1.88,6.21-1.26,1.6-3.07,2.66-5.47,3.16l9.01,13.15Zm-10.57-21.43c0-1.62-.4-2.79-1.22-3.49-.82-.71-2.2-1.06-4.15-1.06h-1.72v8.75h1.56c1.89,0,3.29-.34,4.19-1.02.89-.68,1.34-1.74,1.34-3.18"/><path d="m490.86,197.03c-1.06.67-2.32,1.18-3.81,1.53-1.48.35-3.14.52-4.94.52-4.85,0-8.86-1.62-12.05-4.87-3.19-3.25-4.79-7.34-4.79-12.28s1.6-9.04,4.8-12.32c3.2-3.28,7.21-4.92,12.04-4.92,1.85,0,3.51.18,4.97.52,1.47.34,2.72.86,3.78,1.54v9.76c-1-1.12-2.19-1.98-3.55-2.59-1.38-.61-2.8-.92-4.28-.92-2.65,0-4.76.84-6.4,2.51-1.63,1.68-2.45,3.88-2.45,6.59,0,2.54.81,4.62,2.48,6.24,1.65,1.61,3.76,2.43,6.36,2.43,1.43,0,2.85-.32,4.26-.93,1.4-.62,2.59-1.47,3.57-2.58v9.76Z"/><rect x="495.4" y="165.41" width="8.57" height="32.96"/><path d="m544.45,181.93c0,4.86-1.72,8.94-5.14,12.22-3.43,3.29-7.67,4.93-12.73,4.93s-9.31-1.63-12.74-4.93c-3.42-3.28-5.13-7.36-5.13-12.22s1.71-8.91,5.15-12.25c3.43-3.32,7.68-4.97,12.71-4.97s9.29,1.66,12.73,4.97c3.42,3.32,5.14,7.4,5.14,12.25m-8.94,0c0-2.53-.84-4.66-2.53-6.36-1.68-1.72-3.82-2.56-6.4-2.56s-4.79.85-6.46,2.53c-1.67,1.69-2.51,3.82-2.51,6.4s.85,4.65,2.52,6.33c1.69,1.68,3.85,2.52,6.44,2.52s4.74-.85,6.41-2.53c1.68-1.68,2.52-3.8,2.52-6.32"/><path d="m327.56,61.75c0-27.45-21.66-49.84-48.82-51.02v17.21c17.66,1.16,31.63,15.84,31.63,33.81s-13.96,32.64-31.63,33.8v17.21c27.16-1.18,48.82-23.57,48.82-51.01"/><path d="m242.62,61.75c0-17.97,13.96-32.65,31.63-33.81V10.73c-27.14,1.18-48.81,23.57-48.81,51.02s21.66,49.83,48.81,51.01v-17.21c-17.66-1.16-31.63-15.85-31.63-33.8"/><path d="m340.77,61.83h-5.76c-.05,32.27-26.23,58.42-58.51,58.42s-58.46-26.14-58.5-58.42h-19.33v87.49h19.32v-37.31c14.24,15.92,35.19,25.98,58.51,25.98s44.22-10.04,58.49-25.94v37.27h19.32V61.83h-13.54Z"/></svg>