<?xml version="1.0" encoding="UTF-8"?><svg id="Capa_1" xmlns="http://www.w3.org/2000/svg" viewBox="0 0 1213.58 421.48"><defs><style>.cls-1{fill:none;}.cls-2,.cls-3{fill:#f4de7e;}.cls-4,.cls-5{fill:#4f804c;}.cls-5,.cls-3{fill-rule:evenodd;}</style></defs><rect class="cls-1" x="284.48" y="-8.55" width="244" height="126"/><rect class="cls-1" x="284.48" y="-8.55" width="243" height="125"/><path class="cls-5" d="m119.99,303.92c0,8.84-3.53,15.63-10.58,20.41-6.12,4.24-13.8,6.38-23.04,6.38-.11,0-9.13-.21-27.1-.62-10.69-.22-19.72,0-27.09.62v-2.19c3.74-1.14,7.48-2.27,11.21-3.41,2.49-.84,4.05-2.14,4.67-3.89.73-1.87,1.09-5.52,1.09-10.9v-56.99c0-7.16-.11-11.38-.3-12.62-.53-2.17-1.93-3.79-4.22-4.82-4.14-1.24-8.3-2.54-12.45-3.89v-2.19c6.85.54,15.15.68,24.91.46,16.4-.3,24.65-.46,24.75-.46,9.25,0,16.87,2.03,22.89,6.09,7.06,4.57,10.59,11.27,10.59,20.09,0,6.63-3.22,12.03-9.66,16.2-5.4,3.32-11.73,5.32-19,6.05v.32c9.24.62,16.71,2.71,22.43,6.22,7.27,4.46,10.9,10.84,10.9,19.14m-19.61-48.1c0-13.9-8.04-20.87-24.13-20.87-5.5,0-10.02.11-13.54.32-.32,7.16-.47,13.44-.47,18.84v21.49h11.99c17.43,0,26.16-6.6,26.16-19.79m4.66,47.63c0-15.14-10.58-22.73-31.75-22.73h-11.06v29.9c0,4.67.16,9.49.47,14.49,7.98.3,11.94.46,11.83.46,20.34,0,30.5-7.38,30.5-22.12"/><path class="cls-5" d="m247.67,276.83c0,15.68-4.26,28.71-12.77,39.09-9.14,11.11-21.39,16.65-36.75,16.65-14.42,0-26.16-4.97-35.19-14.95-8.83-9.65-13.23-21.79-13.23-36.44,0-15.65,4.57-28.41,13.71-38.28,9.23-9.97,21.64-14.95,37.21-14.95,14.21,0,25.69,4.62,34.41,13.87,8.41,9.03,12.61,20.71,12.61,35.01m-15.88,7.49c0-34.14-10.95-51.23-32.86-51.23-10.69,0-19.09,4.22-25.22,12.62-5.4,7.36-8.1,16.66-8.1,27.88,0,14.19,2.18,25.93,6.54,35.17,5.82,12.46,15,18.68,27.56,18.68,11.11,0,19.47-4.62,25.08-13.84,4.67-7.67,7-17.44,7-29.28"/><path class="cls-4" d="m352.3,305.33l-1.24,25.38c-30.2-1.24-56-1.24-77.38,0v-2.19c3.74-1.14,7.48-2.27,11.21-3.41,2.49-.95,4.05-2.24,4.67-3.89.72-1.76,1.09-5.4,1.09-10.9v-56.99c0-7.16-.1-11.38-.31-12.6-.42-2.19-1.81-3.75-4.2-4.68-4.15-1.35-8.31-2.7-12.46-4.06v-2.19c14.12,1.14,30.15,1.14,48.11,0v2.19c-4.46,1.35-8.98,2.71-13.55,4.06-2.38.92-3.78,2.6-4.19,4.98-.22,1.02-.32,5.54-.32,13.54v69.13h30.21c5.09,0,8.78-1.87,11.06-5.62,1.87-4.25,3.68-8.49,5.45-12.76h1.87Z"/><path class="cls-5" d="m420.03,201.64c0,2.28-1.31,4.31-3.9,6.06l-23.66,16.37h-7.33l23.51-23.83c2.08-2.07,4.22-3.11,6.39-3.11,3.31,0,4.99,1.5,4.99,4.51m.46,129.07c-9.76-.83-17.49-1.24-23.2-1.24-6.54,0-14.47.41-23.82,1.24v-2.19l11.98-4.06c3.53-1.11,5.3-10.35,5.3-27.68,0-2.41-.04-5.3-.16-8.74-.1-3.51-.15-5.59-.15-6.21v-24.93c-.43-12.98-1.72-19.81-3.9-20.54l-13.08-4.35v-2.19c9.97.84,17.9,1.25,23.82,1.25,5.2,0,12.92-.4,23.2-1.25v2.19l-13.08,4.35c-2.07.73-3.32,7.57-3.74,20.54-.1,1.36-.15,9.66-.15,24.93v6.21c-.11,3.44-.16,6.33-.16,8.74,0,17.33,1.71,26.58,5.14,27.68l11.99,4.06v2.19h0Z"/><path class="cls-4" d="m537.58,232.01c-5.4,1.25-9.19,4.13-11.38,8.71-6.12,12.68-12.55,27.82-19.3,45.47-1.77,4.46-7.48,19.93-17.13,46.39h-3.58c-12.98-36.85-24.92-67.21-35.82-91.09-1.45-3.32-3.17-5.48-5.14-6.54-.3-.3-2.91-1.3-7.78-2.95v-2.19c14.43,1.25,28.23,1.25,41.42,0v2.19c-9.35,2.38-14.01,4.41-14.01,6.06,0,1.97,4.09,12.98,12.29,33.01,6.45,15.9,11.43,27.88,14.95,35.99,4.77-11.44,9.56-22.85,14.33-34.26,5.5-13.81,9.13-25.55,10.9-35.2-3.11-2.16-7.01-4.06-11.68-5.59v-2.19c11.94,1.25,22.58,1.25,31.93,0v2.19h0Z"/><path class="cls-5" d="m641.27,330.71c-16.39-1.24-31.55-1.24-45.47,0v-2.19c5.39-1.24,10.49-2.84,15.26-4.81-3.12-11.11-6.12-19.82-9.03-26.14l-19.78-.32-19.47.32c-3,5.79-5.96,14.52-8.87,26.14l13.38,4.81v2.19c-12.14-1.24-24.02-1.24-35.65,0v-2.19c4.99-1.87,8.93-3.57,11.83-5.11,9.55-21.38,23.41-53.66,41.57-96.87h3.43c5.19,13.49,18.42,45.99,39.7,97.49l13.08,4.49v2.19h0Zm-41.26-39.55l-17.13-41.72-17.9,41.72h35.03Z"/><path class="cls-5" d="m748.85,330.71c-7.14-.62-14.63-.62-22.41,0-9.76-16.49-20.91-33.12-33.47-49.82h-11.98v18.06c0,2.4-.05,5.19-.16,8.4-.11,3.22-.16,5.25-.16,6.09,0,4.35.95,7.3,2.81,8.87,1.87,1.54,6.68,3.65,14.46,6.21v2.19c-14.84-1.35-30.51-1.35-47.01,0v-2.19c3.73-1.14,7.49-2.27,11.22-3.41,2.49-.84,4.04-2.14,4.68-3.89.7-1.87,1.08-5.52,1.08-10.9v-56.99c0-7.16-.11-11.38-.31-12.6-.53-2.19-1.93-3.81-4.2-4.84-4.16-1.24-8.3-2.54-12.46-3.89v-2.19c4.97.52,10.54.79,16.67.79,3.64,0,9.07-.1,16.34-.3,7.27-.32,12.77-.49,16.49-.49,9.25,0,16.82,1.73,22.75,5.14,7.48,4.16,11.21,10.49,11.21,19.01,0,14.41-8.52,23.03-25.55,25.85,5.52,9.13,11.02,18.22,16.52,27.25,8.92,13.16,16.76,20.33,23.49,21.46v2.19h0Zm-29.41-74.72c0-13.41-8.03-19.98-24.14-19.79l-14.3.16v39.39h10.57c8.62,0,15.06-1.14,19.3-3.44,5.7-3,8.57-8.44,8.57-16.33"/><polygon class="cls-4" points="874.37 52.56 1152.65 52.56 1152.65 330.85 874.37 330.85 874.37 52.56 874.37 52.56"/><path class="cls-2" d="m1018.8,63.25c37.88-13.71,62.8,5.71,62.8,5.71,0,0-25.25-6.88-45.26-1.5l-17.55-4.22h0Z"/><path class="cls-2" d="m1018.8,63.25c37.88-13.71,62.8,5.71,62.8,5.71,0,0-25.25-6.88-45.26-1.5l-17.55-4.22h0Z"/><path class="cls-2" d="m1037.18,80.98c43.07-6.84,44.15,6.65,44.15,6.65,0,0-9-3.69-29.09-1.67l-15.06-4.98h0Z"/><path class="cls-2" d="m1037.18,80.98c43.07-6.84,44.15,6.65,44.15,6.65,0,0-9-3.69-29.09-1.67l-15.06-4.98h0Z"/><path class="cls-2" d="m1008.82,218.78c17.65-15.76,39.66-12.67,45.77-3.05,8.52,13.36,4.16,28.61-7.79,39.34,0,0,16.3-18.36,4.68-33.96-6.38-8.57-24.25-8.84-37.8,2.51-13.54,11.36-26.12,39.56,5.79,46.48-27.74,2.09-33.71-30.68-10.65-51.32"/><path class="cls-2" d="m1008.82,218.78c17.65-15.76,39.66-12.67,45.77-3.05,8.52,13.36,4.16,28.61-7.79,39.34,0,0,16.3-18.36,4.68-33.96-6.38-8.57-24.25-8.84-37.8,2.51-13.54,11.36-26.12,39.56,5.79,46.48-27.74,2.09-33.71-30.68-10.65-51.32"/><path class="cls-5" d="m1008.66,383.54c172.16-141.1,203.93-248.5,90.84-231.13,123.04-50.42,118.77,97.66-90.84,231.13"/><path class="cls-5" d="m919.9,232.66c-122.23,47.72-48.11,97.84-48.11,97.84,0,0-44.97-48.2,48.11-97.84"/><path class="cls-2" d="m1028.34,330.5c77.57-39.53,26.55-80.65,26.55-80.65,0,0,26.77,44.23-35.96,80.65h9.41Z"/><path class="cls-2" d="m1028.34,330.5c77.57-39.53,26.55-80.65,26.55-80.65,0,0,26.77,44.23-35.96,80.65h9.41Z"/><path class="cls-3" d="m918.36,246.47s11.54-24.87,20.01-61.32c0,0,4.49,34.88-20.01,61.32"/><path class="cls-2" d="m918.36,246.47s11.54-24.87,20.01-61.32c0,0,4.49,34.88-20.01,61.32"/><path class="cls-2" d="m895.76,247.61s-68.82-66.85,39.22-114.66c31.43-13.89,71.44-17.41,90.15,8.56,5.65,7.81,6.25,61.36-51.45,102.27-25.12-7.95-27.33-22.16-27.33-22.16,11.49,13.27,27.5,16.24,27.5,16.24,48.02-38.97,49.88-87.93,43.93-93.31-18.65-16.87-48.99-17.03-78.62-4.89-94.62,38.74-43.39,107.96-43.39,107.96"/><path class="cls-2" d="m895.76,247.61s-68.82-66.85,39.22-114.66c31.43-13.89,71.44-17.41,90.15,8.56,5.65,7.81,6.25,61.36-51.45,102.27-25.12-7.95-27.33-22.16-27.33-22.16,11.49,13.27,27.5,16.24,27.5,16.24,48.02-38.97,49.88-87.93,43.93-93.31-18.65-16.87-48.99-17.03-78.62-4.89-94.62,38.74-43.39,107.96-43.39,107.96"/><path class="cls-2" d="m941.26,330.31h-11.91s27.29-46.91,68.93-55.94c.05.08-37.77,14.87-57.02,55.94"/><path class="cls-2" d="m941.26,330.31h-11.91s27.29-46.91,68.93-55.94c.05.08-37.77,14.87-57.02,55.94"/><path class="cls-2" d="m1077.19,100.66s-6.38,8.15.19,25.04c6.35,16.38,23.09,33.71,23.09,33.71,0,0-19.41-28.75-23.28-58.75"/><path class="cls-2" d="m1077.19,100.66s-6.38,8.15.19,25.04c6.35,16.38,23.09,33.71,23.09,33.71,0,0-19.41-28.75-23.28-58.75"/><path class="cls-4" d="m954.32,80.41s1.65-28.48,40.58-38.19c54.18-13.52,76.89,9.23,76.89,9.23,0,0-30.9-9.9-71.64-1.76-11.92,2.38-29.2,10.96-35.5,28.1-.65,1.83,16.06,7.85,16.06,7.85-.03,0,13.9,62.84,52.48,85.35,16.63-6.43,27.98-26.04,27.95-26.06.03-.04-2.24,21.52-27.33,31.12-46.66-24.44-61.88-85.56-61.88-85.56,0,0-16.52-5.71-17.6-10.09"/><path class="cls-3" d="m970.7,160.22c-88.16,23.23-53.5,60.26-53.5,60.26,0,0-19.28-29.36,53.5-60.26"/><path class="cls-2" d="m970.7,160.22c-88.16,23.23-53.5,60.26-53.5,60.26,0,0-19.28-29.36,53.5-60.26"/><path class="cls-4" d="m79.82,143.59c0-2.14-.15-4.19-.15-6.25s.15-4.27.15-6.33c-3.89-.92-8-1.22-11.88-1.22-15.09,0-27.2,12.26-27.2,27.04s12.8,24.14,26.89,24.14c4.27,0,8.46-.76,12.65-1.75,0-2.06-.16-4.19-.16-6.24s.16-4.04.16-6.18h-1.07l-3.35,9.22c-3.2,1.45-5.64,1.97-9.14,1.97-8.23,0-18.2-5.39-18.2-22.76,0-15.55,7.92-22.48,18.2-22.48,3.2,0,5.72.61,8.85,2.14l3.2,8.69h1.06Z"/><path class="cls-5" d="m115.99,178.47c-11.13,0-16.68-10.43-16.68-26.36,0-10.88,5.7-19.79,16.3-19.79,12.56,0,16.06,12.18,16.06,25.06,0,10.44-4.1,21.09-15.68,21.09m-.77,2.51c15.16,0,24.22-12.03,24.22-27.27,0-14.02-8.98-23.91-23.01-23.91-15.38,0-24.9,10.73-24.9,26.05,0,12.49,7.85,25.13,23.68,25.13"/><path class="cls-4" d="m198.18,130.71c-3.5.31-6.93.6-10.37.6-3.11,0-6.31-.3-9.44-.6v1.06l5.03,2.05c2.21.92,2.82,1.53,2.97,3.74.22,3.72.3,7.53.3,11.18v18.6l-.16.15-21.55-29.17c-1.83-2.5-3.43-4.96-4.87-7.62-2.29.31-4.57.6-6.85.6-2.45,0-4.89-.3-7.32-.6v1.06c2.43.76,4.8,1.6,7.16,2.67l.99,1.52v15.23c0,9.91-.53,21.33-.83,23.76-.08.77-.77,1.45-1.83,1.83l-5.79,2.21v1.07c3.28-.31,6.48-.61,9.75-.61s6.79.3,10.14.61v-1.07l-5.03-1.6c-2.21-.7-2.74-1.3-2.97-2.6-.22-1.44-.38-16.6-.38-26.73v-8.6h.16l15.46,21c5.18,7.02,10.44,14.03,15.31,21.33h1.83c-.16-8.76-.16-17.6-.16-20.71,0-4.5.61-18.14.84-24.38.07-1.37.84-2.14,2.52-2.73l5.1-1.84v-1.44h0Z"/><path class="cls-4" d="m204.95,178.85c4.34,1.68,7.61,2.14,11.27,2.14,14.99,0,19.95-7.69,19.95-14.4,0-15.91-23.85-12.8-23.85-24.9,0-5.19,4.42-8.91,9.22-8.91,2.59,0,5.1.45,7.7,1.43l2.97,8.54h.84l.46-10.52c-3.2-1.46-8.08-2.45-11.27-2.45-8.23,0-16.76,4.5-16.76,13.79,0,14.48,23.84,13.56,23.84,24.53,0,7.08-5.56,9.9-11.65,9.9-1.91,0-5.49-.46-7.77-1.74l-2.59-9.99h-1.07l-1.28,12.57h0Z"/><path class="cls-4" d="m243.1,143.74h1.07l2.29-6.1c1.06-2.68,1.83-2.97,13.25-2.97v33.59c0,3.82-.16,5.8-.61,6.85-.39,1.07-2.06,1.99-7.85,3.89v1.05c3.58-.3,6.93-.61,11.66-.61s8.07.31,11.65.61v-1.05c-5.79-1.9-7.39-2.83-7.85-3.89-.45-1.05-.6-3.04-.6-6.85v-33.59c11.42,0,12.18.3,13.25,2.97l2.28,6.1h1.07v-13.03c-6.64.31-13.19.6-19.8.6s-13.19-.3-19.82-.6v13.03h0Z"/><path class="cls-5" d="m285.6,180.06c3.66-.3,8.07-.59,11.96-.59,2.67,0,7.77.3,11.04.59v-1.05l-6.09-2.05c-1.98-.63-2.21-2.43-2.21-12.43v-8.82h5.87c4.72,6.24,11.5,16.06,16.38,24.36,1.9-.14,3.8-.3,5.63-.3s3.58.16,5.33.3v-1.05c-4.27-.75-4.65-1.3-9.06-8l-10.52-15.84c7.02-1.14,12.5-4.88,12.5-12.64s-6.55-11.81-16.61-11.81c-5.41,0-9.75.6-13.71.6s-7.69-.3-10.51-.6v1.06l6.4,2.14c1.67.53,1.91,1.05,1.91,8.3v27.87c0,5.95-.31,6.25-2.45,6.93l-5.86,1.99v1.05h0Zm14.7-46.15c2.28,0,4.57-.08,7.01-.08,7.16,0,11.81,2.9,11.81,9.68,0,8.45-6.56,9.68-13.64,9.68h-5.18v-19.28h0Z"/><path class="cls-4" d="m388.35,130.71c-3.04.31-6.02.6-8.91.6-3.35,0-6.64-.3-9.91-.6v1.06l4.19,1.3c2.05.68,3.2,1.3,3.35,2.67.61,5.34.7,17.6.7,27.05s-4.81,14.25-12.8,14.25c-12.11,0-14.32-6.49-14.32-16.3,0-11.9,0-18.52.22-23.01.16-2.76.76-3.06,4.95-4.65l3.51-1.3v-1.06c-4.04.31-8,.6-12.03.6-3.59,0-7.16-.3-10.9-.6v1.06l5.47,2.14c2.14.84,2.37,2.35,2.37,8.84v21.63c0,11.81,7.69,16.6,18.74,16.6s18.58-5.56,18.73-20.41c.15-13.71,0-20.04.15-24.38.09-1.61,1.14-2.28,3.13-3.12l3.35-1.3v-1.06h0Z"/><path class="cls-4" d="m433.88,143.59c0-2.14-.16-4.19-.16-6.25s.16-4.27.16-6.33c-3.89-.92-8-1.22-11.88-1.22-15.08,0-27.19,12.26-27.19,27.04s12.8,24.14,26.89,24.14c4.26,0,8.46-.76,12.65-1.75,0-2.06-.16-4.19-.16-6.24s.16-4.04.16-6.18h-1.07l-3.34,9.22c-3.2,1.45-5.64,1.97-9.15,1.97-8.23,0-18.19-5.39-18.19-22.76,0-15.55,7.91-22.48,18.19-22.48,3.2,0,5.72.61,8.84,2.14l3.2,8.69h1.06Z"/><path class="cls-4" d="m442.02,143.74h1.07l2.28-6.1c1.06-2.68,1.83-2.97,13.25-2.97v33.59c0,3.82-.16,5.8-.61,6.85-.38,1.07-2.05,1.99-7.84,3.89v1.05c3.57-.3,6.92-.61,11.65-.61s8.07.31,11.65.61v-1.05c-5.79-1.9-7.39-2.83-7.85-3.89-.45-1.05-.6-3.04-.6-6.85v-33.59c11.42,0,12.18.3,13.25,2.97l2.29,6.1h1.06v-13.03c-6.63.31-13.18.6-19.8.6s-13.18-.3-19.81-.6v13.03h0Z"/><path class="cls-5" d="m512.39,178.47c-11.12,0-16.68-10.43-16.68-26.36,0-10.88,5.72-19.79,16.3-19.79,12.57,0,16.07,12.18,16.07,25.06,0,10.44-4.1,21.09-15.69,21.09m-.75,2.51c15.15,0,24.22-12.03,24.22-27.27,0-14.02-9-23.91-23.01-23.91-15.39,0-24.91,10.73-24.91,26.05,0,12.49,7.85,25.13,23.7,25.13"/><path class="cls-5" d="m542.34,180.06c3.66-.3,8.07-.59,11.96-.59,2.67,0,7.77.3,11.04.59v-1.05l-6.1-2.05c-1.97-.63-2.2-2.43-2.2-12.43v-8.82h5.86c4.72,6.24,11.5,16.06,16.38,24.36,1.91-.14,3.81-.3,5.64-.3s3.57.16,5.33.3v-1.05c-4.26-.75-4.65-1.3-9.06-8l-10.52-15.84c7.01-1.14,12.49-4.88,12.49-12.64s-6.54-11.81-16.6-11.81c-5.41,0-9.75.6-13.72.6s-7.69-.3-10.5-.6v1.06l6.4,2.14c1.67.53,1.9,1.05,1.9,8.3v27.87c0,5.95-.3,6.25-2.43,6.93l-5.87,1.99v1.05h0Zm14.7-46.15c2.28,0,4.57-.08,7.01-.08,7.15,0,11.8,2.9,11.8,9.68,0,8.45-6.55,9.68-13.63,9.68h-5.18v-19.28h0Z"/><path class="cls-5" d="m592.3,180.06c2.82-.3,5.64-.61,8.46-.61,3.05,0,6.02.31,8.99.61v-1.05l-6.55-2.38c1.06-4.33,2.28-8.9,4.33-12.79,3.2-.08,6.33-.15,9.52-.15s6.48.07,9.69.15c1.05,2.28,3.49,9.53,4.41,12.79-2.28.92-5.56,1.92-7.46,2.38v1.05c3.43-.3,6.78-.61,10.21-.61,4.04,0,8.01.31,12.04.61v-1.05l-6.4-2.21c-6.48-15.6-13.33-31.61-19.43-47.68h-1.68c-5.48,13.86-13.7,31.62-20.34,47.38-1.82.99-3.96,1.82-5.79,2.51v1.05h0Zm33.44-19.33h-17.14l8.77-20.43,8.37,20.43h0Z"/><path class="cls-4" d="m871.79,330.5s-25.86-27.79,2.37-62.89v-11.27c-53.85,39.26-2.37,74.16-2.37,74.16"/><path class="cls-2" d="m919.9,232.66c-20.25,7.92-35.04,15.9-45.74,23.68v11.27c8.96-11.14,23.3-22.98,45.74-34.95"/><path class="cls-4" d="m1008.66,383.54c27.44-17.47,51.26-35.2,71.83-52.69h-12.3c-17.52,16.89-37.34,34.5-59.53,52.69"/><path class="cls-2" d="m1068.19,330.85h12.3c31.9-27.12,55.69-53.67,72.16-77.92v-25.84c-15.17,28.74-43.37,64.18-84.46,103.76"/><path class="cls-4" d="m1152.65,143.26v14.53c17.76,11.41,17.68,35.84,0,69.3v25.84c39.63-58.27,36.63-103.04,0-109.68"/><path class="cls-2" d="m1099.5,152.41c24.52-3.76,42.23-1.65,53.18,5.38v-14.53c-13.41-2.43-31.23.15-53.18,9.15"/><path class="cls-2" d="m1033.18,171.01c-38.58-22.52-52.5-85.35-52.48-85.35,0,0-16.74-6.03-16.06-7.85,4.76-12.99,15.84-21.04,26.12-25.24h-18.98c-16.52,12.07-17.47,27.83-17.47,27.83,1.08,4.39,17.6,10.1,17.6,10.1,0,0,15.22,61.11,61.88,85.56,25.09-9.6,27.36-31.16,27.33-31.12.03.03-11.3,19.64-27.95,26.06"/><path class="cls-4" d="m1000.14,49.7c40.74-8.14,71.64,1.76,71.64,1.76,0,0-22.71-22.75-76.89-9.23-9.95,2.47-17.47,6.2-23.12,10.34h18.98c3.3-1.33,6.49-2.29,9.38-2.87"/></svg>