<?xml version="1.0" encoding="UTF-8"?><svg id="Capa_2" xmlns="http://www.w3.org/2000/svg" viewBox="0 0 588.05 247.42"><defs><style>.cls-1{stroke-width:0px;}</style></defs><g id="Capa_1-2"><g id="znUlaH.tif"><path class="cls-1" d="M236.84,247.42c0-.71.02-1.41.02-2.12,0-67.02,0-134.04,0-201.06v-2.23h18.61v37.35c14.16-22.77,34.13-35.8,60.68-37.47,22.16-1.39,41.42,6.01,57.19,21.75,30.96,30.93,28.61,81.77-5,109.84-34.6,28.9-88.55,21.31-112.88-20.49v94.42h-18.62ZM320.2,171.27c29.26.06,54.99-22.49,55.37-54.42.37-30.32-22.74-53.47-50.76-55.44-32.46-2.29-57.19,22.12-59.19,50.85-2.24,32.21,22.89,58.75,54.58,59.02Z"/><path class="cls-1" d="M97.34,247.42c-17.48-10.6-34.98-21.16-52.43-31.81-3.73-2.28-5.97-5.71-6.73-10.11-1.32-7.62,3.63-15.14,11.2-16.81,4.24-.94,8.16-.14,11.83,2.13,7.76,4.79,15.54,9.54,23.32,14.31.44.27.91.5,1.61.89,0-.82,0-1.4,0-1.98,0-22.9-.01-45.81.03-68.71,0-1.29-.36-2.01-1.53-2.66-17.58-9.69-35.12-19.44-52.68-29.18-.47-.26-.95-.49-1.76-.92,0,.85,0,1.46,0,2.07,0,21.98,0,43.96,0,65.94,0,3.16-.23,6.25-1.78,9.15-3.09,5.78-9.5,8.97-16.15,7.9-6.04-.97-11.3-6.41-12.21-12.65-.09-.59-.06-1.19-.06-1.79,0-32.48,0-64.96,0-97.43,0-6.83,5.58-13.06,12.32-14.12,3.91-.61,7.42.15,10.78,2.03,28.4,15.9,56.81,31.8,85.2,47.72,5.72,3.21,8.1,8.22,8.08,14.71-.08,21.87-.02,43.74-.03,65.61,0,14.2-.18,28.4-.02,42.59.07,6.26-4.4,10.85-8.55,12.49-.45.18-.87.42-1.3.64h-9.15Z"/><path class="cls-1" d="M588.05,13.36c-.87,2.84-2.1,5.41-4.53,7.33-4.63,3.68-11.95,3.03-15.74-1.51-4.19-5-3.83-12.03.83-16.11,6.56-5.76,16.23-3.09,18.92,5.22.13.4.35.76.52,1.15v3.92Z"/><path class="cls-1" d="M547.88,144.97c-14.09,32.83-52.01,53.37-90.58,41.44-37.87-11.71-59.84-50.84-50.05-89.51,9.78-38.63,47.95-62.47,86.95-54.64,39.44,7.93,61.05,43.31,59.75,74.48h-129.09c-.68,15.27,8.86,37.97,31.5,48.42,13.79,6.36,27.92,6.92,42.18,1.72,14.22-5.19,24.38-14.94,31.1-28.49,6.09,2.19,12.1,4.36,18.24,6.57ZM426.58,100.81h105.95c-4.9-20.2-24.96-40.38-52.74-40.49-27.82-.11-48.17,19.95-53.21,40.49Z"/><path class="cls-1" d="M161.36,151.33c0,17.41-.05,34.82.02,52.22.03,7.72-6.66,15.09-15.44,14.94-6.97-.12-14.91-5.91-14.86-16.11.1-20.18.03-40.37.03-60.55,0-10.66-.04-21.33.04-31.99.01-1.52-.52-2.28-1.79-3.01-23.76-13.54-47.49-27.14-71.25-40.68-3.94-2.25-6.91-5.18-8.18-9.65-2.56-9.01,3.51-17.95,12.83-19.03,3.88-.45,7.26.64,10.54,2.52,18.41,10.54,36.84,21.06,55.26,31.59,8.1,4.63,16.18,9.31,24.31,13.89,5.72,3.23,8.56,7.97,8.52,14.61-.09,17.08-.03,34.16-.03,51.25Z"/><path class="cls-1" d="M206.53,124.23c0,16.49-.05,32.97.02,49.46.03,6.11-2.23,10.92-7.54,14.01-9.86,5.75-22.5-1.11-22.56-12.43-.15-27.69-.07-55.38-.08-83.08,0-2.77-.06-5.55.03-8.32.04-1.15-.4-1.72-1.35-2.26-24.04-13.72-48.06-27.47-72.09-41.2-4.06-2.32-6.86-5.56-8.02-10.16-2.27-9.02,4.95-18.38,14.22-18.53,3.09-.05,5.86.75,8.52,2.26,26.99,15.45,53.99,30.87,80.97,46.33,5.49,3.15,7.94,7.97,7.91,14.3-.08,16.54-.03,33.08-.03,49.62Z"/><path class="cls-1" d="M567.39,42.11h18.03v147.02h-18.03V42.11Z"/></g></g></svg>