<?xml version="1.0" encoding="UTF-8"?><svg id="Capa_2" xmlns="http://www.w3.org/2000/svg" viewBox="0 0 586.01 548.96"><g id="Capa_1-2"><path d="m575.6,253.87c-16.77-50.65-45.85-94.02-80.8-133.7-32.33-36.7-68.9-68.67-108.94-96.75-37.78-26.49-78.39-30.17-120.2-12.76-55.82,23.25-76.59,77.15-72.87,130.95.31,4.49-.36,6.66-4.28,8.93-34.57,19.98-68.37,41.16-99.55,66.22,0,0-87.39,62.52-88.28,130.24-.02,1.71-.07,3.43-.2,5.14-3.43,46.74,11.71,87.2,43.93,121.18,38.84,40.97,87.88,62.32,142.78,71.09,36.68,5.86,73.7,5.26,110.64,2.65,57.84-4.08,113.08-17.63,164.08-46.15,46.85-26.2,83.47-61.97,106.82-111.04,21.24-44.62,22.16-89.87,6.88-136.01Zm-67.82,178.56c-38.59,41.83-87.13,67.32-140.89,83.4-67.42,20.16-136.09,23.32-205.25,11.16-42.67-7.5-81.01-24.9-112.34-55.65-28.59-28.05-45.17-61.69-46.66-102.28-.77-20.89,2.31-41.02,9.85-60.5,15.86-38.7,63.83-78.55,63.83-78.55,26-22.8,54.83-41.61,84.02-59.92,47.31-29.67,96.86-55.71,143.09-87.13,21.02-14.29,41.92-28.98,55.01-51.77,1.82-3.16,3.12-2.21,5.25-.55,8.61,6.7,17.45,13.12,25.99,19.9,44.05,34.97,85.23,72.81,118.15,118.85,21.19,29.63,38,61.38,45.94,97.23,14.02,63.35-2.33,118.46-45.99,165.79Z"/><path d="m174.81,323.57c-2.16-4.33-2.48-6.65,2.99-8.76,24-9.25,36.85-29.29,35.78-55.06-.48-11.63-5.84-20.36-16.09-26.03-10.37-5.74-21.66-8.09-33.33-8.11-15.76-.03-31.52.77-47.28.76-5.2,0-6.72,2.16-7.48,6.83-2.6,15.97-5.53,31.88-8.44,47.79-6.32,34.51-12.64,69.01-19.16,103.48-.81,4.29.63,5.06,4.38,4.95,6.09-.18,12.2-.26,18.28.11,4.47.28,6.09-1.4,6.94-5.74,3.64-18.76,7.68-37.45,11.56-56.17.38-1.83.4-3.83,2.22-4.99,5.39-3.46,18.12.23,20.92,6.08,9.61,20.07,19.19,40.16,28.82,60.22,9.27,19.3,23.05,26.97,43.79,23.87-1.24-2.68-2.15-4.77-3.15-6.81-13.55-27.49-27.06-55-40.74-82.42Zm-42.41-25.02c-3.05.07-4.13-1.21-3.52-4.27,2.55-12.97,5.04-25.96,7.47-38.95.54-2.87,2.27-3.72,4.91-3.69,4.41.05,8.81.01,13.22.01,5.83.11,11.72-1.43,17.51.56,9.79,3.36,14.08,10.11,12.65,20.31-1.95,13.93-11.57,23.66-26.46,25.39-8.5.99-17.18.44-25.78.63Z"/><path d="m485.22,269.6c-10.07-2.54-20.27-3.35-30.57-3.47-1.89,0-3.78-.06-5.67,0-21.73.77-41.44,6.83-56.71,23.12-18.52,19.76-24.71,43.99-23.2,70.29.96,16.73,15.06,30.7,31.85,33.59,15.1,2.6,28.86-.78,41.25-9.41,4.3-2.99,7.05-4.05,9.85,1.49,1.77,3.52,5.06,5.52,9.22,5.68,4.2.16,8.4.25,12.58.64,3.84.36,5.1-.5,4.35-4.83-2.56-14.75-3.6-29.54-.6-44.45,4.35-21.61,8.1-43.34,12.54-64.93,1.02-4.97-.31-6.59-4.87-7.74Zm-27.32,31.09c-2.65,17.24-5.1,34.55-13.1,50.36-5.63,11.13-13.65,19.22-27.27,18.9-10.24-.25-17.34-6.61-19.02-16.76-3.04-18.3,12.03-49.13,28.14-57.86,7.07-3.83,14.71-4.68,21.46-5.06,11.03.08,11.32.54,9.8,10.43Z"/><path d="m378.89,278.82c.38-.74.85-1.47,1.4-2.08,2.91-3.22,1.64-4.57-1.99-6.01-46.29-18.38-99.01,17.59-99,71.13.15,9.35,2.44,21.62,10.37,32.16,13.35,17.77,31.98,21.89,52.74,19.74,13.72-1.42,13.7-1.66,11.09-14.76q-1.97-9.91-12.27-9.41c-2.31.11-4.63.14-6.94,0-14.35-.82-23.35-9.43-24.62-23.79-.61-6.94-.24-13.88,1.36-20.69,5.03-21.38,22.45-36.2,43.84-33.24,13.19,1.82,18.97-3.24,24-13.06Z"/><path d="m265.4,269.82c-3.96.37-7.98.07-11.98.07v-.09c-4.63,0-9.25.07-13.88-.03-2.8-.06-4.38.19-3.1,3.8,2.24,6.31,1.66,12.87.5,19.33-2.08,11.58-4.28,23.14-6.45,34.7-3.61,19.2-7.11,38.43-10.94,57.59-.92,4.6.19,6.05,4.83,5.71,5.02-.37,10.12-.54,15.13-.15,5.27.42,7.35-1.61,8.32-6.75,3.24-17.14,6.91-34.19,10.49-51.26,3.96-18.92,7.92-37.84,12.06-56.72.99-4.53.24-6.71-4.96-6.22Z"/><path d="m259.03,224.3c-9.72.03-17.6,7.93-17.58,17.63.02,9.88,7.57,17.37,17.6,17.44,9.77.07,17.59-7.72,17.56-17.49-.03-9.77-7.87-17.61-17.58-17.59Z"/></g></svg>