<?xml version="1.0" encoding="UTF-8"?><svg id="Capa_2" xmlns="http://www.w3.org/2000/svg" viewBox="0 0 770.02 228.85"><g id="Capa_1-2"><g id="jtRmW4"><path d="m248.98,128.16c-3.31.57-6.2,1.29-9.13,1.53-4.85.39-9.72.5-14.59.64-1.42.04-2.89-.05-4.27-.37-.85-.2-1.87-.78-2.29-1.49-6.41-10.76-12.73-21.58-19.09-32.37-1.04-1.77-2.16-3.49-3.21-5.25-.64-1.09-1.55-1.53-2.81-1.52-3.55.03-7.09.07-10.64-.03-1.44-.04-1.86.44-1.85,1.84.04,11.98.03,23.95.03,35.93,0,2.32-.03,2.34-2.35,2.66-5.97.82-11.96.86-17.96.36-1.78-.15-3.57-.34-5.35-.52-1.12-.11-1.58-.7-1.53-1.86.07-1.8.02-3.6.02-5.4,0-35.36,0-70.72,0-106.08,0-.57-.13-1.19.07-1.68.19-.46.71-1.03,1.15-1.1,4.15-.61,8.31-1.18,12.48-1.66,3.81-.45,7.63-.91,11.46-1.13,5.53-.32,11.09-.77,16.61-.57,9.55.34,19.01,1.55,27.86,5.57,10.73,4.88,16.56,13.39,18.33,24.87,1.09,7.1.8,14.15-1.35,21.01-1.53,4.88-3.82,9.39-7.47,13.14-3.07,3.15-6.34,5.99-10.27,8.01-1.09.56-.64,1.22-.23,1.89,2.09,3.42,4.2,6.82,6.29,10.24,6.13,10.03,12.27,20.06,18.39,30.1.55.91,1,1.88,1.72,3.24Zm-67.85-78.18c0,4.78,0,9.56,0,14.34,0,2.5.05,2.63,2.54,2.72,3.59.13,7.19.28,10.78.21,3.53-.07,7.12-.14,10.43-1.59,6.29-2.75,9.54-7.77,10.12-14.48.51-5.88-1.17-10.99-6.13-14.61-3.62-2.64-7.84-3.55-12.19-3.64-4.46-.09-8.92.17-13.39.26-1.87.04-2.15.28-2.15,2.14-.01,4.88,0,9.76,0,14.65Z"/><path d="m743.11,125.95c-5.73,1.7-11.39,2.05-17.07,1.91-11.2-.26-21.49-3.42-30.22-10.58-6.7-5.49-10.86-12.74-12.38-21.27-2.16-12.11-1.23-23.86,5.38-34.62,5.24-8.52,12.94-14.04,22.21-17.5,7.57-2.82,15.45-3.73,23.45-3.3,10.9.58,21.25,3.29,30.73,8.88,4.79,2.83,4.77,2.86,4.77,8.42,0,22.67.08,45.34-.04,68.01-.04,8.46-2.13,16.46-7.01,23.54-4.43,6.44-10.85,10.14-17.91,13.03-8.3,3.39-17,3.7-25.74,3.29-7.83-.37-15.47-1.93-22.58-5.4-4.92-2.4-9.49-5.36-13.12-9.53-.47-.55-.71-1.67-.51-2.37,2.03-7.13,6.4-12.29,13.28-15.22.98-.42,1.66,0,2.32.67,3.1,3.11,6.39,5.96,10.5,7.68,7.3,3.07,14.88,4.07,22.57,2.17,6.96-1.72,10.98-6.54,11.36-13.91.07-1.26,0-2.53,0-3.91Zm0-40.96c0-5.86-.02-11.71.02-17.57,0-1.29-.48-1.93-1.71-2.32-4-1.28-8.08-1.89-12.27-1.67-7.62.4-13.3,4.05-17.18,10.53-2.19,3.65-2.41,7.71-2.5,11.88-.17,8.23,5.46,16.42,13.98,19.19,6.24,2.03,12.42,1.45,18.58-.43,1.05-.32,1.1-1,1.09-1.88-.02-5.91-.01-11.81-.01-17.72Z"/><path d="m309.87,93.03c-8.89,0-17.78,0-26.67,0-1.87,0-2.11.26-1.59,2.07.48,1.67,1,3.34,1.68,4.94,2.55,5.98,7.44,8.95,13.54,10.21,9.03,1.87,17.25-.61,25.13-4.81,1.54-.82,3.07-1.68,4.5-2.66,1.06-.72,1.78-.57,2.71.23,4.47,3.88,6.84,8.88,8.04,14.56.57,2.67.58,2.6-1.65,4.1-7.3,4.9-15.27,8.22-23.9,9.78-5.08.92-10.23,1.2-15.45.89-5.43-.32-10.7-1.17-15.76-3.09-7.79-2.95-14.2-7.7-18.89-14.69-3.67-5.47-5.91-11.5-6.94-17.94-.8-5.02-.87-10.11-.4-15.19.83-8.85,3.79-16.88,9.31-23.89,7.07-8.98,16.34-14.15,27.6-15.79,9.06-1.32,17.93-.62,26.4,3.03,11.85,5.12,18.82,14.09,21,26.87,1.11,6.5.91,12.97.25,19.47-.14,1.41-.68,1.98-2.23,1.96-8.89-.08-17.78-.04-26.67-.04Zm3.7-15.22c.89-4.38-2.33-10.81-4.71-12.75-5.01-4.08-12.88-4.68-18.6-1.62-5.25,2.81-7.63,7.52-8.84,13.04-.26,1.17.4,1.59,1.47,1.55.92-.04,1.84-.14,2.76-.14,8.84,0,17.68,0,26.52,0,.45,0,.91-.05,1.4-.08Z"/><path d="m354.31,92.09c0-9.82,0-19.64,0-29.46,0-2-.12-4.01-.14-6.01-.01-1.28.46-2.2,1.61-3.06,6.6-4.92,13.94-8.31,21.82-10.42,4.13-1.11,8.42-1.75,12.69-2.23,8.43-.94,16.78-.31,24.98,2.03,12.65,3.61,21.7,14.05,23.13,27.13.53,4.89.84,9.82.88,14.73.12,14.14.01,28.27.08,42.41,0,1.59-.39,2.33-2.04,2.47-6.85.54-13.7,1.17-20.57.16-.91-.13-1.83-.22-2.75-.29-1.28-.1-1.7-.73-1.69-2.02.05-6.68,0-13.37,0-20.05,0-7.09.14-14.19-.02-21.28-.1-4.23-.07-8.52-1.67-12.58-1.99-5.06-5.93-7.52-11.09-8.36-5.74-.93-11.21.13-16.56,2.18-1.24.47-1.67,1.14-1.67,2.49.05,19.12.03,38.25.03,57.37,0,2.11-.27,2.35-2.39,2.43-4.51.18-9.01.55-13.52.55-3.21,0-6.43-.5-9.64-.78-1.22-.11-1.52-.71-1.5-1.96.09-6.17.04-12.34.04-18.5,0-5.65,0-11.31,0-16.96Z"/><path d="m583.82,93.97c0-10.74,0-21.48,0-32.23,0-1.69-.08-3.39-.17-5.08-.07-1.34.39-2.29,1.51-3.12,8.37-6.2,17.76-9.95,27.96-11.78,5.57-1,11.2-1.47,16.85-1.18,8.06.41,15.96,1.68,22.96,6.01,6.85,4.24,11.56,10.23,13.73,18.09,1.3,4.68,1.84,9.45,1.85,14.29,0,16.09-.02,32.17.03,48.26,0,1.5-.33,2.09-1.98,2.33-7.63,1.08-15.24,1-22.86.16-2.25-.25-2.36-.42-2.37-2.67,0-15.68.13-31.35-.06-47.03-.09-7.2-3.26-12.28-9.87-14.17-6.92-1.97-13.61-.86-20,2.29-.41.2-.68.83-.84,1.31-.14.42-.04.92-.04,1.38,0,18.76-.01,37.52.02,56.28,0,1.5-.22,2.25-2,2.46-6.8.81-13.58,1.19-20.4.27-4.25-.58-4.29-.55-4.3-4.88-.02-10.33,0-20.66,0-30.99h-.01Z"/><path d="m491.75,22.34c0,1.5,0,2.76,0,4.02-.02,5.34-.01,10.69-.08,16.03-.02,1.28.66,1.43,1.65,1.42,6.58-.06,13.15-.12,19.73-.17,2.46-.02,4.92.01,7.38.02.96,0,1.41.41,1.61,1.43,1.22,6.39.98,12.75-.01,19.13-.2,1.31-.97,1.37-1.96,1.37-8.89-.01-17.79.02-26.68-.05-1.4-.01-1.67.38-1.66,1.71.06,9.97.02,19.94.03,29.92,0,3.27.7,6.34,3.05,8.78,1.95,2.02,4.54,2.76,7.22,3.06,4.38.48,8.3-.8,11.84-3.38,2.46-1.8,2.49-1.77,4.79.32,4.4,4.01,7,9.04,8.27,14.81.25,1.16-.03,2.01-1.1,2.76-7.19,4.99-15,8.09-23.86,8.45-6.88.28-13.57-.3-20.06-2.76-9.02-3.42-14.49-9.82-16.27-19.26-.5-2.66-.69-5.4-.71-8.11-.07-11.46-.06-22.93,0-34.39,0-1.42-.39-1.89-1.81-1.86-3.75.08-7.5-.01-11.26.04-1.25.02-1.51-.39-1.16-1.55,3.69-12.16,9.81-22.7,19.86-30.83,5.85-4.73,12.31-8.09,19.39-10.42.51-.17,1.04-.27,1.81-.46Z"/><path d="m51.29,38.96c.59-1.15,1.26-2.27,1.76-3.46,2.86-6.87,5.68-13.75,8.51-20.63.51-1.23,1.08-2.45,1.43-3.73.33-1.18.98-1.45,2.12-1.45,8.12.04,16.24.02,24.36.02,9.66,0,19.32.01,28.98-.02,1.22,0,1.93.22,1.93,1.68-.03,16.34-.02,32.68-.02,49.02,0,1.74-.03,3.49.02,5.23.03,1.1-.31,1.75-1.43,2.21-8.3,3.41-16.58,6.88-24.85,10.37-3.07,1.29-3.36,1.14-3.37-2.19,0-11.46,0-22.92,0-34.38,0-2.27,0-2.27-2.34-2.27-11.41,0-22.82.01-34.23-.02-.96,0-1.92-.27-2.87-.41v.02Z"/><path d="m537.68,86.38c0-13.51,0-27.03,0-40.54,0-2.25,0-2.3,2.22-2.55,6.13-.7,12.27-.96,18.42-.34,1.63.16,3.27.25,4.9.38.9.07,1.39.5,1.42,1.46.04,1.69.21,3.38.21,5.07.01,25.69,0,51.38,0,77.07,0,2.23,0,2.29-2.12,2.59-6.68.95-13.37,1.25-20.08.33-1.12-.15-2.23-.31-3.36-.39-1.24-.09-1.65-.73-1.64-1.92.03-5.55.01-11.1.01-16.65,0-8.17,0-16.34,0-24.51Z"/><path d="m51.29,38.94c-1.14,2.91-2.24,5.83-3.42,8.71-2.72,6.64-5.47,13.26-8.22,19.89-1.49,3.6-2.96,7.21-4.55,10.76-.24.54-1.13,1.11-1.73,1.12-10.53.06-21.06.03-31.59.06-1.29,0-1.54-.6-1.54-1.7,0-7.76,0-15.51-.04-23.27-.02-4.42-.04-8.83-.19-13.25-.05-1.61.51-1.97,2.03-1.97,15.92.05,31.85.03,47.77.02.5,0,.99-.22,1.49-.34,0,0,0-.03,0-.03Z"/><path d="m90.4,79.97c.13,2.18.33,4.11.34,6.04.03,12.48.01,24.97.01,37.45,0,1.84-.04,3.69.02,5.53.04,1-.3,1.37-1.31,1.37-12.33-.02-24.66-.02-36.99,0-.96,0-1.23-.4-1.23-1.29.01-10.58.02-21.17-.01-31.75,0-1.08.58-1.55,1.45-1.91,4.51-1.84,9.01-3.69,13.52-5.54,7.63-3.14,15.26-6.28,22.89-9.42.32-.13.66-.24,1.31-.48Z"/><path d="m332.36,205.89c0,6.58.01,13.15,0,19.73,0,1.86-.3,2.16-2.14,2.19-1.53.02-3.07-.1-4.6-.2-1.01-.06-1.39-.66-1.39-1.65.07-11.77.13-23.53.19-35.3,0-1.85.08-3.7.03-5.55-.03-1.22.4-1.96,1.51-2.56,4.05-2.21,8.42-3.12,12.94-3.61,4.34-.47,8.61-.09,12.41,1.98,2.28,1.24,3.92,1.22,6.25.16,5.2-2.37,10.69-2.88,16.36-1.49,6.85,1.68,10.72,6.14,10.79,13.24.1,9.66.04,19.33.01,28.99,0,1.59-.11,3.18-.3,4.76-.05.43-.55,1.14-.86,1.16-1.94.08-3.89.02-5.84-.05-1.28-.05-1.69-.8-1.68-2.06.05-4.88.02-9.77.02-14.65,0-5.4,0-10.79,0-16.19,0-6.01-3.85-9.56-9.9-8.89-2.26.25-4.47.97-6.69,1.52-1.1.27-1.36,1-1.23,2.1.27,2.24.54,4.49.56,6.74.07,7.81.04,15.63.01,23.44,0,2.26-.19,4.51-.24,6.77-.02.97-.42,1.39-1.4,1.37-1.54-.04-3.09.06-4.62-.02-2.07-.1-2.39-.48-2.39-2.51,0-8.63,0-17.27,0-25.9,0-1.75.04-3.5-.02-5.24-.12-3.84-2.43-7.13-5.72-7.89-2.98-.69-6-.71-8.96.24-2.85.92-2.85.94-2.85,3.98,0,5.14,0,10.28,0,15.42h-.23Z"/><path d="m404.57,170.32c-.12,2.67-.25,5.33-.36,8-.07,1.67.23,1.93,1.88,1.5,4.29-1.13,8.55-1.21,12.91-.23,6.98,1.57,11.03,6.07,12.89,12.66,2.13,7.57,1.88,15.2.07,22.83-1.86,7.84-8.52,12.34-15.27,13.34-6.19.92-12.27.26-18.19-1.77-2.5-.85-2.69-1.11-2.7-3.72,0-19.48,0-38.97,0-58.45,0-2.52.04-2.6,2.5-2.66,1.43-.04,2.87.12,4.31.09,1.29-.03,1.74.61,1.73,1.78,0,2.21,0,4.42,0,6.62.08,0,.15,0,.23,0Zm20.24,32.32c.12-2.93-.49-6.71-2.23-10.22-.69-1.4-1.53-2.91-2.71-3.85-4.31-3.41-9.14-3.38-14.11-1.55-.94.34-1.31.98-1.31,2-.03,10.01-.09,20.03-.16,30.04,0,1.26.51,2.09,1.81,2.23,2.33.24,4.71.79,7,.55,4.16-.44,7.64-2.27,9.47-6.38,1.69-3.77,2.24-7.75,2.24-12.82Z"/><path d="m246.83,204.65c-.46,3.17-.65,6.63-1.49,9.93-2.02,7.87-7.37,12.44-15.25,13.82-7.13,1.25-13.61-.3-18.67-5.86-2.64-2.9-3.95-6.48-4.56-10.28-1.25-7.8-1.48-15.6,1.95-22.94,2.63-5.64,7.15-9.01,13.46-10.05,5.45-.9,10.45-.07,15.28,2.54,4.79,2.58,6.87,7,7.98,11.89.79,3.47.87,7.1,1.3,10.96Zm-9.03-.4c.33-4.2-.27-8.21-1.83-12.1-1.78-4.41-5.26-6.39-9.73-6.51-4.23-.12-7.36,2.06-9.21,5.84-2.63,5.37-2.63,11.16-2.02,16.9.28,2.64,1.21,5.28,2.24,7.76,1.6,3.88,4.98,5.46,8.95,5.77,4.61.36,7.47-2.23,9.5-6.04,1.95-3.66,2.45-7.58,2.11-11.61Z"/><path d="m274.16,204.71c.37-6.35.73-11.9,3.58-16.86,2.79-4.85,7.1-7.46,12.55-8.53,5.09-.99,9.93-.38,14.48,1.94,4.75,2.42,7.59,6.4,8.79,11.63,1.68,7.27,1.83,14.51-.05,21.75-2.19,8.44-9.55,14.12-18.3,14.12-4.37,0-8.58-.59-12.3-3.17-4.35-3.03-6.63-7.36-7.66-12.38-.62-3.05-.81-6.18-1.1-8.5Zm32.28-2.15c-.31-1.84-.65-5.11-1.45-8.26-1.47-5.73-5.7-8.94-10.96-8.7-4.81.22-8.69,3.57-9.99,9.01-1.42,5.9-1.71,11.88-.1,17.8.89,3.26,2.25,6.26,5.43,8.06,4.53,2.56,11.56,2.08,14.51-4.22,1.83-3.91,2.33-8.03,2.55-13.68Z"/><path d="m486.62,199.65c-.15-2.78-.16-5.39-.48-7.97-.37-2.97-2.26-4.83-5.11-5.47-4.46-.99-8.69-.62-12.05,2.98-.67.72-1.37.84-2.19.35-1.32-.79-2.64-1.58-3.95-2.38-.79-.48-.86-1.06-.25-1.77,2.59-3.02,5.83-4.95,9.68-5.88,5.46-1.31,10.79-.79,15.94,1.36,4.48,1.87,6.44,5.72,6.54,10.16.26,10.99.08,21.99.1,32.98,0,1.12-.4,1.9-1.46,2.26-7.42,2.54-14.98,3.44-22.68,1.57-6.3-1.53-10.09-6.35-10.16-12.8-.02-1.93.1-3.92.56-5.78,1.53-6.21,6.39-8.63,12.01-9.81,3.94-.83,7.96-.67,11.92.19.38.08.8.01,1.58.01Zm-.14,14.43c0-1.9-.09-3.81.03-5.7.09-1.43-.51-2.15-1.82-2.33-2.08-.28-4.16-.67-6.25-.69-6.27-.07-9.34,3.12-9.2,9.38.06,2.89,2.02,5.58,4.73,6.59,3.75,1.41,7.55,1.02,11.38.4.89-.14,1.16-.62,1.15-1.48-.04-2.05-.01-4.11-.01-6.17Z"/><path d="m185.56,228.84c-7.52.02-13.27-1.91-17.8-6.56-3.79-3.88-6.28-8.62-7.61-13.89-2.66-10.5-2.34-20.95,1.94-30.91,3.29-7.64,8.94-13.19,17.47-14.85,6.81-1.33,13.27-.3,19.05,3.81,2.47,1.75,2.45,2.42,0,4.24-.16.12-.35.22-.5.35-1.89,1.58-3.51,1.73-5.85.24-7.51-4.82-15.46-2.36-20.17,5.57-4.38,7.39-5.21,15.55-4.3,23.95.61,5.6,2.36,10.75,5.77,15.34,5.1,6.86,14.19,7.22,19.83,3.58,3-1.94,4.48-1.75,7.04.82,1.1,1.11,1.12,1.78-.06,2.81-4.55,3.98-9.91,5.65-14.82,5.49Z"/><path d="m535.41,16.12c-.59-7.65,5.66-15.99,16.01-16.12,7.94-.1,16.05,5.67,16.17,15.75.12,9.44-7.08,15.6-14.93,16.52-9.27,1.08-17.97-7.77-17.25-16.15Z"/><path d="m256.06,194.21c0-10.02,0-20.03,0-30.05,0-2.15.24-2.38,2.39-2.38,1.54,0,3.08.04,4.62-.02.9-.03,1.36.32,1.46,1.18.07.66.19,1.32.19,1.98,0,18.8,0,37.6-.01,56.39,0,1.69-.1,3.39-.28,5.07-.05.43-.55,1.12-.89,1.15-2.09.16-4.19.22-6.29.18-.32,0-.82-.63-.89-1.03-.2-1.05-.28-2.14-.28-3.21-.02-9.76-.01-19.52-.01-29.28Z"/><path d="m451.66,203.61c0,7.19,0,14.39,0,21.58,0,2.15-.45,2.6-2.63,2.63-1.13.02-2.26.03-3.39,0-2-.06-2.43-.48-2.43-2.48-.02-12.28-.03-24.56-.05-36.84,0-2.31-.08-4.62-.17-6.93-.05-1.2.45-1.66,1.65-1.62,1.8.06,3.6.07,5.39,0,1.31-.05,1.66.53,1.66,1.76-.04,7.3-.02,14.59-.02,21.89Z"/><path d="m447.7,172.39c-3.17-.2-5.17-1.18-6.34-3.55-.74-1.51-.58-2.98.21-4.4,1-1.79,4.41-3.29,6.57-2.92,2.82.48,4.7,2.17,5.22,4.71.37,1.79-.45,3.81-2.26,4.83-1.21.69-2.62,1.03-3.41,1.33Z"/></g></g></svg>