<?xml version="1.0" encoding="UTF-8"?><svg id="Capa_2" xmlns="http://www.w3.org/2000/svg" viewBox="0 0 779.08 234.3"><defs><style>.cls-1{fill-rule:evenodd;}</style></defs><g id="Capa_1-2"><path class="cls-1" d="m59.53,180.32c0,5.99-2.39,10.59-7.18,13.84-4.15,2.88-9.36,4.33-15.62,4.33-.07,0-6.19-.15-18.37-.42-7.24-.15-13.37,0-18.36.42v-1.48c2.53-.77,5.07-1.54,7.6-2.31,1.69-.57,2.74-1.45,3.17-2.64.5-1.26.74-3.74.74-7.39v-38.64c0-4.86-.07-7.72-.21-8.56-.36-1.47-1.31-2.57-2.86-3.26-2.81-.84-5.63-1.72-8.44-2.64v-1.48c4.64.37,10.27.46,16.89.31,11.12-.2,16.71-.31,16.78-.31,6.27,0,11.44,1.37,15.52,4.12,4.78,3.1,7.18,7.64,7.18,13.62,0,4.49-2.19,8.16-6.55,10.98-3.66,2.25-7.95,3.61-12.88,4.11v.22c6.26.42,11.33,1.83,15.2,4.22,4.93,3.02,7.39,7.35,7.39,12.98m-13.3-32.61c0-9.42-5.45-14.15-16.36-14.15-3.73,0-6.79.07-9.18.22-.22,4.86-.32,9.11-.32,12.77v14.57h8.13c11.82,0,17.73-4.47,17.73-13.42m3.16,32.29c0-10.26-7.17-15.41-21.53-15.41h-7.5v20.27c0,3.17.11,6.43.32,9.82,5.41.2,8.09.31,8.02.31,13.79,0,20.68-5,20.68-14.99"/><path class="cls-1" d="m146.09,161.96c0,10.63-2.89,19.46-8.66,26.5-6.2,7.53-14.5,11.29-24.91,11.29-9.78,0-17.73-3.37-23.85-10.14-5.98-6.54-8.97-14.77-8.97-24.71,0-10.61,3.1-19.26,9.29-25.95,6.26-6.76,14.67-10.14,25.22-10.14,9.64,0,17.42,3.13,23.33,9.4,5.7,6.12,8.55,14.04,8.55,23.74m-10.77,5.08c0-23.15-7.42-34.73-22.27-34.73-7.24,0-12.94,2.86-17.1,8.56-3.66,4.98-5.49,11.29-5.49,18.9,0,9.62,1.48,17.58,4.43,23.85,3.95,8.45,10.17,12.66,18.68,12.66,7.53,0,13.2-3.13,17-9.38,3.17-5.21,4.75-11.82,4.75-19.85"/><path d="m217.02,181.28l-.84,17.21c-20.47-.84-37.96-.84-52.46,0v-1.48c2.54-.77,5.07-1.54,7.6-2.31,1.69-.64,2.74-1.52,3.17-2.64.49-1.19.74-3.67.74-7.39v-38.64c0-4.86-.07-7.72-.21-8.54-.28-1.48-1.23-2.55-2.85-3.17-2.81-.92-5.63-1.83-8.44-2.75v-1.48c9.57.77,20.44.77,32.62,0v1.48c-3.02.92-6.09,1.83-9.19,2.75-1.61.62-2.57,1.76-2.84,3.37-.15.7-.22,3.76-.22,9.18v46.87h20.48c3.45,0,5.95-1.26,7.5-3.81,1.27-2.88,2.5-5.76,3.7-8.65h1.26Z"/><path class="cls-1" d="m262.94,110.98c0,1.55-.89,2.92-2.64,4.11l-16.04,11.1h-4.97l15.94-16.16c1.41-1.4,2.86-2.11,4.34-2.11,2.24,0,3.38,1.02,3.38,3.06m.31,87.5c-6.62-.57-11.86-.84-15.73-.84-4.43,0-9.81.27-16.15.84v-1.48l8.12-2.75c2.4-.75,3.59-7.02,3.59-18.77,0-1.63-.03-3.59-.11-5.92-.07-2.38-.1-3.79-.1-4.22v-16.9c-.29-8.8-1.16-13.44-2.64-13.93l-8.87-2.95v-1.48c6.76.57,12.14.84,16.15.84,3.52,0,8.76-.27,15.73-.84v1.48l-8.87,2.95c-1.41.49-2.25,5.13-2.53,13.93-.07.92-.1,6.54-.1,16.9v4.22c-.07,2.33-.11,4.29-.11,5.92,0,11.75,1.16,18.02,3.48,18.77l8.13,2.75v1.48Z"/><path d="m342.63,131.57c-3.66.84-6.23,2.8-7.71,5.9-4.15,8.6-8.51,18.86-13.09,30.83-1.2,3.02-5.07,13.51-11.61,31.45h-2.42c-8.8-24.98-16.89-45.56-24.28-61.75-.99-2.25-2.15-3.72-3.49-4.44-.21-.2-1.97-.88-5.27-2v-1.48c9.78.84,19.14.84,28.08,0v1.48c-6.34,1.61-9.5,2.99-9.5,4.11,0,1.34,2.77,8.8,8.33,22.38,4.37,10.78,7.75,18.9,10.13,24.4,3.24-7.75,6.48-15.49,9.71-23.22,3.73-9.37,6.19-17.32,7.39-23.86-2.11-1.47-4.75-2.75-7.92-3.79v-1.48c8.09.84,15.31.84,21.65,0v1.48Z"/><path class="cls-1" d="m412.93,198.49c-11.11-.84-21.39-.84-30.82,0v-1.48c3.66-.84,7.11-1.92,10.35-3.26-2.12-7.53-4.15-13.43-6.12-17.72l-13.41-.22-13.2.22c-2.03,3.92-4.04,9.84-6.01,17.72l9.07,3.26v1.48c-8.23-.84-16.29-.84-24.17,0v-1.48c3.39-1.26,6.05-2.42,8.02-3.46,6.47-14.5,15.87-36.38,28.18-65.67h2.32c3.52,9.15,12.49,31.18,26.92,66.09l8.87,3.04v1.48Zm-27.97-26.81l-11.62-28.28-12.13,28.28h23.75Z"/><path class="cls-1" d="m485.85,198.49c-4.84-.42-9.92-.42-15.19,0-6.62-11.18-14.18-22.45-22.69-33.78h-8.12v12.24c0,1.63-.04,3.52-.11,5.7-.07,2.18-.11,3.56-.11,4.12,0,2.95.64,4.95,1.91,6.01,1.26,1.04,4.53,2.47,9.81,4.22v1.48c-10.06-.92-20.68-.92-31.87,0v-1.48c2.53-.77,5.08-1.54,7.61-2.31,1.69-.57,2.74-1.45,3.17-2.64.48-1.26.73-3.74.73-7.39v-38.64c0-4.86-.07-7.72-.21-8.54-.36-1.48-1.31-2.58-2.85-3.28-2.82-.84-5.63-1.72-8.45-2.64v-1.48c3.37.35,7.15.53,11.3.53,2.47,0,6.15-.07,11.08-.2,4.93-.22,8.66-.33,11.18-.33,6.27,0,11.4,1.17,15.42,3.48,5.07,2.82,7.6,7.11,7.6,12.89,0,9.77-5.77,15.62-17.32,17.52,3.74,6.19,7.47,12.35,11.2,18.47,6.05,8.93,11.36,13.78,15.93,14.55v1.48Zm-19.94-50.66c0-9.09-5.44-13.55-16.37-13.42l-9.7.11v26.7h7.17c5.85,0,10.21-.77,13.09-2.33,3.87-2.03,5.81-5.72,5.81-11.07"/><path d="m32.29,71.63c0-1.45-.1-2.84-.1-4.23s.1-2.9.1-4.29c-2.64-.62-5.42-.82-8.06-.82-10.23,0-18.44,8.31-18.44,18.33s8.68,16.37,18.23,16.37c2.9,0,5.74-.51,8.58-1.19,0-1.39-.11-2.84-.11-4.22s.11-2.74.11-4.19h-.72l-2.27,6.25c-2.17.98-3.82,1.34-6.2,1.34-5.58,0-12.34-3.66-12.34-15.43,0-10.54,5.37-15.24,12.34-15.24,2.17,0,3.88.41,6,1.45l2.17,5.89h.72Z"/><path class="cls-1" d="m56.82,95.27c-7.54,0-11.31-7.07-11.31-17.87,0-7.38,3.87-13.42,11.05-13.42,8.51,0,10.89,8.26,10.89,16.99,0,7.07-2.78,14.3-10.63,14.3m-.52,1.7c10.28,0,16.42-8.16,16.42-18.48,0-9.5-6.09-16.21-15.6-16.21-10.42,0-16.88,7.28-16.88,17.66,0,8.47,5.32,17.04,16.06,17.04"/><path d="m112.54,62.9c-2.37.21-4.7.41-7.03.41-2.11,0-4.28-.2-6.4-.41v.72l3.41,1.39c1.5.62,1.91,1.04,2.02,2.54.15,2.52.21,5.1.21,7.58v12.61l-.11.1-14.61-19.78c-1.24-1.7-2.33-3.36-3.3-5.17-1.55.21-3.1.41-4.65.41-1.66,0-3.31-.2-4.96-.41v.72c1.65.51,3.25,1.08,4.86,1.81l.67,1.04v10.33c0,6.72-.36,14.46-.56,16.11-.06.52-.52.98-1.24,1.24l-3.93,1.5v.72c2.22-.21,4.39-.41,6.61-.41s4.6.2,6.87.41v-.72l-3.41-1.08c-1.5-.48-1.86-.88-2.02-1.76-.15-.98-.26-11.25-.26-18.13v-5.83h.11l10.48,14.24c3.51,4.76,7.07,9.51,10.38,14.46h1.24c-.11-5.94-.11-11.93-.11-14.04,0-3.05.41-12.3.57-16.53.05-.93.57-1.45,1.71-1.85l3.46-1.25v-.98Z"/><path d="m117.13,95.53c2.94,1.14,5.16,1.45,7.64,1.45,10.16,0,13.53-5.21,13.53-9.76,0-10.79-16.17-8.68-16.17-16.88,0-3.52,3-6.04,6.25-6.04,1.76,0,3.46.3,5.22.97l2.01,5.79h.57l.31-7.13c-2.17-.99-5.48-1.66-7.64-1.66-5.58,0-11.36,3.05-11.36,9.35,0,9.81,16.16,9.19,16.16,16.63,0,4.8-3.77,6.71-7.89,6.71-1.3,0-3.72-.31-5.27-1.18l-1.75-6.77h-.73l-.87,8.52Z"/><path d="m142.99,71.73h.72l1.55-4.13c.72-1.81,1.24-2.02,8.99-2.02v22.77c0,2.58-.11,3.93-.41,4.65-.26.72-1.4,1.35-5.32,2.64v.72c2.42-.2,4.7-.41,7.9-.41s5.47.21,7.89.41v-.72c-3.92-1.29-5.01-1.92-5.32-2.64-.3-.72-.41-2.06-.41-4.65v-22.77c7.74,0,8.26.2,8.99,2.02l1.54,4.13h.73v-8.83c-4.5.21-8.94.41-13.43.41s-8.94-.2-13.43-.41v8.83Z"/><path class="cls-1" d="m171.81,96.36c2.48-.2,5.47-.4,8.11-.4,1.81,0,5.27.2,7.49.4v-.72l-4.13-1.39c-1.34-.42-1.5-1.65-1.5-8.42v-5.98h3.98c3.2,4.23,7.79,10.89,11.11,16.51,1.29-.09,2.58-.2,3.82-.2s2.42.11,3.61.2v-.72c-2.9-.51-3.15-.88-6.14-5.42l-7.13-10.74c4.76-.77,8.48-3.31,8.48-8.57s-4.44-8.01-11.26-8.01c-3.67,0-6.61.41-9.3.41s-5.21-.2-7.13-.41v.72l4.34,1.45c1.13.36,1.29.72,1.29,5.63v18.9c0,4.03-.21,4.23-1.66,4.7l-3.97,1.35v.72Zm9.97-31.29c1.55,0,3.1-.05,4.75-.05,4.85,0,8.01,1.96,8.01,6.56,0,5.73-4.45,6.56-9.25,6.56h-3.51v-13.07Z"/><path d="m241.46,62.9c-2.06.21-4.08.41-6.04.41-2.27,0-4.5-.2-6.72-.41v.72l2.84.88c1.39.46,2.17.88,2.27,1.81.41,3.62.47,11.93.47,18.34s-3.26,9.66-8.68,9.66c-8.21,0-9.71-4.4-9.71-11.05,0-8.06,0-12.56.15-15.6.11-1.87.52-2.07,3.35-3.15l2.38-.88v-.72c-2.74.21-5.42.41-8.16.41-2.43,0-4.86-.2-7.39-.41v.72l3.71,1.45c1.45.57,1.61,1.59,1.61,5.99v14.66c0,8.01,5.21,11.25,12.71,11.25s12.6-3.77,12.7-13.84c.1-9.29,0-13.58.1-16.52.06-1.09.77-1.55,2.12-2.12l2.27-.88v-.72Z"/><path d="m272.33,71.63c0-1.45-.11-2.84-.11-4.23s.11-2.9.11-4.29c-2.64-.62-5.42-.82-8.06-.82-10.22,0-18.43,8.31-18.43,18.33s8.68,16.37,18.23,16.37c2.89,0,5.74-.51,8.57-1.19,0-1.39-.11-2.84-.11-4.22s.11-2.74.11-4.19h-.73l-2.26,6.25c-2.17.98-3.83,1.34-6.2,1.34-5.58,0-12.33-3.66-12.33-15.43,0-10.54,5.36-15.24,12.33-15.24,2.17,0,3.88.41,5.99,1.45l2.17,5.89h.72Z"/><path d="m277.84,71.73h.72l1.55-4.13c.72-1.81,1.24-2.02,8.99-2.02v22.77c0,2.58-.11,3.93-.41,4.65-.26.72-1.39,1.35-5.32,2.64v.72c2.42-.2,4.69-.41,7.9-.41s5.47.21,7.9.41v-.72c-3.93-1.29-5.01-1.92-5.32-2.64-.3-.72-.41-2.06-.41-4.65v-22.77c7.74,0,8.26.2,8.99,2.02l1.55,4.13h.72v-8.83c-4.5.21-8.93.41-13.43.41s-8.93-.2-13.43-.41v8.83Z"/><path class="cls-1" d="m325.55,95.27c-7.54,0-11.31-7.07-11.31-17.87,0-7.38,3.88-13.42,11.05-13.42,8.52,0,10.89,8.26,10.89,16.99,0,7.07-2.78,14.3-10.64,14.3m-.51,1.7c10.27,0,16.42-8.16,16.42-18.48,0-9.5-6.1-16.21-15.6-16.21-10.43,0-16.88,7.28-16.88,17.66,0,8.47,5.32,17.04,16.06,17.04"/><path class="cls-1" d="m345.86,96.36c2.48-.2,5.47-.4,8.11-.4,1.81,0,5.27.2,7.49.4v-.72l-4.13-1.39c-1.34-.42-1.49-1.65-1.49-8.42v-5.98h3.97c3.2,4.23,7.8,10.89,11.11,16.51,1.29-.09,2.58-.2,3.82-.2s2.42.11,3.61.2v-.72c-2.89-.51-3.15-.88-6.14-5.42l-7.13-10.74c4.75-.77,8.47-3.31,8.47-8.57s-4.44-8.01-11.25-8.01c-3.67,0-6.61.41-9.3.41s-5.21-.2-7.12-.41v.72l4.34,1.45c1.13.36,1.29.72,1.29,5.63v18.9c0,4.03-.21,4.23-1.65,4.7l-3.98,1.35v.72Zm9.97-31.29c1.55,0,3.1-.05,4.75-.05,4.85,0,8,1.96,8,6.56,0,5.73-4.44,6.56-9.24,6.56h-3.51v-13.07Z"/><path class="cls-1" d="m379.72,96.36c1.91-.2,3.82-.41,5.73-.41,2.07,0,4.08.21,6.09.41v-.72l-4.44-1.61c.72-2.93,1.54-6.03,2.94-8.67,2.17-.05,4.29-.1,6.46-.1s4.39.05,6.57.1c.72,1.55,2.36,6.46,2.99,8.67-1.55.62-3.77,1.3-5.06,1.61v.72c2.33-.2,4.6-.41,6.92-.41,2.74,0,5.43.21,8.16.41v-.72l-4.34-1.5c-4.39-10.58-9.04-21.43-13.17-32.32h-1.14c-3.72,9.39-9.29,21.44-13.79,32.12-1.24.67-2.68,1.24-3.92,1.7v.72Zm22.67-13.1h-11.62l5.94-13.85,5.68,13.85Z"/><path d="m612.04,64.41c10.56-4.67,22.55-7.61,33.51-7.24-5.66-11.1-8.14-20.28-8.43-21.42-.02-.08-.03-.12-.03-.12,0,0-.04-.02-.13-.04-.12-.04-.33-.12-.61-.22-2.51-.92-10.57-4.07-11.19-6.57,0,0,0,0,0,0,0,0,0,0,0,0,0,0,.02-.28.09-.78,0-.05.02-.11.03-.17,0-.06.02-.12.03-.18.01-.09.03-.17.05-.27,0,0,0-.02,0-.03.59-3.18,2.9-11.07,11.63-17.45h-66.02v96.7c1.26-13.58,11.17-28.97,41.08-42.21Z"/><path d="m669.59,83.36c.59-5.86-.15-9.94-1.42-11.09-3.53-3.19-7.68-5.5-12.26-6.99,3.65,6.46,8.18,12.85,13.68,18.08Z"/><path d="m759.61,128.23v-46.98h0c-.23-.15-.47-.29-.7-.43-.56-.33-1.14-.64-1.74-.94-.2-.09-.38-.2-.58-.29-.36-.16-.74-.31-1.11-.47-.22-.09-.44-.18-.66-.27-.38-.14-.78-.28-1.18-.41-.23-.08-.47-.15-.7-.23-.42-.13-.84-.25-1.27-.36-.24-.06-.48-.12-.72-.18-.45-.11-.91-.22-1.38-.31-.23-.05-.47-.09-.7-.13-.5-.09-1-.19-1.52-.27-.17-.03-.34-.04-.51-.07-1.82-.26-3.77-.42-5.82-.5-.27,0-.53-.02-.8-.03-.54-.01-1.1-.01-1.66-.01-.36,0-.72,0-1.09,0-.53,0-1.07.02-1.62.04-.42.01-.84.03-1.27.05-.53.03-1.06.06-1.59.09-.48.03-.97.07-1.46.11-.51.04-1.02.08-1.54.13-.59.06-1.19.13-1.79.19-.45.05-.89.1-1.35.15-1.07.14-2.15.28-3.26.45,1.17-.48,2.31-.92,3.44-1.35.32-.12.63-.23.95-.35.85-.31,1.7-.61,2.53-.89.31-.1.62-.21.92-.31.99-.33,1.97-.63,2.94-.92.49-.14.97-.27,1.45-.41.47-.13.94-.26,1.4-.38.61-.16,1.22-.31,1.83-.46.14-.03.27-.06.41-.09,7.83-1.81,14.58-2.12,20.18-1.11V9.92h-109.75c-.31.13-.62.26-.92.4-.19.08-.38.16-.56.25-.3.14-.61.28-.91.43-.21.1-.42.21-.64.32-.29.15-.58.3-.86.45-.45.25-.91.51-1.36.78-.21.13-.43.27-.64.41-.3.19-.61.39-.91.59-.21.14-.41.29-.62.43-.33.24-.66.48-.98.73-.16.12-.32.25-.48.37-.48.39-.96.79-1.43,1.2-.05.05-.11.1-.16.15-.42.38-.83.78-1.23,1.19-.11.12-.22.23-.34.35-.36.38-.72.78-1.06,1.19-.09.1-.17.2-.26.3-.84,1.03-1.62,2.13-2.32,3.31-.08.13-.15.27-.23.4-.27.47-.52.95-.76,1.44-.07.15-.15.3-.22.46-.29.63-.57,1.27-.81,1.94-.43,1.2,10.19,5.07,10.85,5.31.02,0,.03.01.03.01,0,0,0,.04.03.12.29,1.29,2.98,12.62,8.98,25.33,8.5,1.44,15.98,5.29,21.1,12.4,1.44,1.99,2.39,8.35.95,16.99,1.44,1.09,2.95,2.1,4.51,3.02,10.92-4.23,18.49-16.83,18.93-17.63.01-.03.02-.04.02-.04.02-.03-1.52,14.59-18.53,21.1-1.93-1.01-3.78-2.12-5.55-3.3-3.14,14.13-12.51,33.1-35.21,49.2-17.03-5.39-18.53-15.02-18.53-15.02,7.79,8.99,18.64,11.01,18.64,11.01,20.24-16.43,28.38-35.47,30.68-48.41-8.53-6.77-15.05-15.27-19.9-23.41-10.45-1.55-22.45.4-34.29,5.25-55.95,22.91-36.68,61.53-30.84,71.03,3.57-1.86,7.53-3.72,11.91-5.57.44-.19.87-.37,1.31-.56.48-.2.97-.4,1.46-.6,1.02-.41,2.05-.83,3.11-1.24-15.09,8.06-24.78,16.02-30.86,23.52v43.05h131.4c27.86-26.83,46.98-50.86,57.26-70.34Zm-90.74-111.07c25.68-9.29,42.58,3.88,42.58,3.88,0,0-17.12-4.66-30.68-1.02l-11.89-2.86Zm22.67,15.4l-10.21-3.37c29.2-4.64,29.93,4.51,29.93,4.51,0,0-6.1-2.5-19.72-1.14Zm-90.52,75.66c-.57,1.03-1.03,2.02-1.4,2.97-.27.71-.49,1.4-.66,2.07-.51,1.99-.61,3.76-.5,5.25.02.33.06.65.1.95s.09.59.15.87c.06.27.12.53.19.78.46,1.71,1.09,2.66,1.09,2.66h0s0,0,0,0c0,0-2.07-2.21-3.42-5.74-.14-.37-.28-.76-.4-1.16-.18-.6-.34-1.23-.47-1.88-.08-.44-.15-.89-.19-1.35-.12-1.15-.11-2.37.07-3.64.07-.51.17-1.02.3-1.55.13-.52.29-1.05.49-1.59.19-.54.42-1.08.69-1.63.4-.82.88-1.65,1.46-2.49.19-.28.4-.56.61-.84,4.93-6.48,15.65-13.34,37.13-19,0,0,0,0,0,0h0c-21.59,9.17-31.23,18.13-35.24,25.32Zm-.24,33.16h0s0,0,0,0c0,0,.76-1.65,1.99-4.66.12-.3.25-.62.38-.95.26-.66.54-1.37.84-2.13.44-1.14.92-2.41,1.42-3.78,2.67-7.3,6.06-17.7,8.93-30.06,0,0,.36,2.79.16,7.19-.06,1.2-.15,2.52-.31,3.93-.05.47-.11.95-.18,1.44-.47,3.44-1.3,7.35-2.73,11.42-1.23,3.49-2.89,7.11-5.15,10.65-1.51,2.36-3.27,4.69-5.35,6.93Zm15.52,56.84h-8.07s18.5-31.8,46.73-37.92c.04.06-25.6,10.08-38.65,37.92Zm45.8-75.61c11.97-10.69,26.89-8.59,31.03-2.07,5.77,9.06,2.82,19.4-5.28,26.67,0,0,11.05-12.45,3.17-23.02-4.33-5.81-16.44-5.99-25.62,1.7-9.18,7.7-17.71,26.82,3.92,31.51-18.8,1.41-22.86-20.8-7.22-34.79Zm13.23,75.74h-6.38c42.52-24.69,24.38-54.67,24.38-54.67,0,0,34.59,27.88-18,54.67Zm33.12-155.81c2.62,20.34,15.78,39.83,15.78,39.83,0,0-11.34-11.75-15.65-22.86-4.45-11.45-.13-16.97-.13-16.97Z"/><path d="m710.74,198.58h48.87v-52.68c-11.17,16.4-27.31,34.35-48.87,52.68Z"/><path d="m570.95,112.83v35.11c3.53-2.56,7.73-5.15,12.68-7.74-3.63-4.16-11.53-14.57-12.68-27.36Z"/><path d="m668.71,229.95c-2.2,1.45-4.44,2.91-6.72,4.35,2.28-1.45,4.51-2.9,6.72-4.35Z"/><path d="m766.34,88.6s.04.08.06.12c-.02-.04-.04-.08-.06-.12Z"/><path d="m763.42,84.42c.06.06.12.13.18.19-.06-.06-.12-.13-.18-.19Z"/><path d="m764.3,85.44c.06.07.12.15.17.22-.06-.07-.11-.15-.17-.22Z"/><path d="m667.52,229.72c.19-.16.38-.32.57-.48-.19.16-.38.32-.57.48Z"/><path d="m759.63,71.4h0c24.82,4.52,26.85,34.86-.02,74.35v.14c26.98-39.61,24.92-70.07,0-74.55v.05s.01,0,.02,0Z"/><path d="m672.94,225.15c.11-.09.22-.19.33-.28-.11.09-.22.19-.33.28Z"/><path d="m761.68,82.77c.07.06.14.12.2.18-.07-.06-.13-.12-.2-.18Z"/><path d="m760.49,81.86c.12.08.23.17.35.25-.11-.08-.23-.17-.35-.25Z"/><path d="m675.42,225.44c-1.7,1.16-3.44,2.33-5.19,3.49,1.75-1.16,3.48-2.32,5.19-3.49Z"/><path d="m675.84,225.15c12.92-8.85,24.53-17.75,34.9-26.57h-.05c-10.37,8.81-21.95,17.72-34.85,26.57Z"/><path d="m739.43,72.46c7.83-1.79,14.57-2.08,20.18-1.06v-.05c-5.6-1.01-12.35-.7-20.18,1.11Z"/><path d="m710.69,198.58h.05c21.56-18.33,37.7-36.28,48.87-52.68v-.14c-11.16,16.44-27.29,34.44-48.92,52.82Z"/><path d="m758.9,80.83c.24.14.48.28.7.42h0c-.23-.15-.47-.28-.7-.42Z"/><path d="m749.54,77.38c-.23-.05-.47-.09-.7-.13.23.04.47.09.7.13Z"/><path d="m751.64,77.87c-.24-.06-.48-.12-.72-.18.24.06.48.12.72.18Z"/><path d="m747.32,76.98c-.17-.03-.34-.04-.51-.07.17.02.34.04.51.07Z"/><path d="m757.16,79.89c-.2-.09-.38-.2-.58-.29.2.09.39.19.58.29Z"/><path d="m735.83,76.41c-.42.01-.84.03-1.27.05.43-.02.85-.04,1.27-.05Z"/><path d="m755.47,79.14c-.22-.09-.44-.18-.66-.27.23.08.44.18.66.27Z"/><path d="m753.62,78.46c-.23-.08-.47-.15-.7-.23.24.07.47.15.7.23Z"/><path d="m730.49,75.02c.31-.1.62-.21.92-.31-.3.1-.62.21-.92.31Z"/><path d="m737.45,76.37c.37,0,.73,0,1.09,0-.36,0-.72,0-1.09,0Z"/><path d="m732.97,76.56c-.48.03-.97.07-1.46.11.49-.04.98-.08,1.46-.11Z"/><path d="m737.19,73.01c.61-.16,1.23-.31,1.83-.46-.6.14-1.21.3-1.83.46Z"/><path d="m734.35,73.79c.49-.14.97-.27,1.45-.41-.48.13-.96.26-1.45.41Z"/><path d="m729.97,76.8c-.59.06-1.19.13-1.79.19.6-.07,1.2-.14,1.79-.19Z"/><path d="m727.02,76.26c.32-.12.63-.23.95-.35-.31.12-.63.23-.95.35Z"/><path d="m726.83,77.15c-1.07.13-2.15.28-3.26.45,1.11-.17,2.19-.32,3.26-.45Z"/><path d="m740.99,76.41c-.27,0-.53-.02-.8-.03.27,0,.53.02.8.03Z"/><path d="m569.09,198.26s-.06-.04-.09-.07c.04.02.07.05.09.07Z"/><path d="m569.2,198.34s0,0-.01-.01c0,0,.01.01.01.01h0Z"/><path d="m569.14,198.28s.02.02.03.03c0,0-.02-.02-.03-.03Z"/><path d="m570.81,148.07s.1-.07.15-.1v-.03c-35.09,25.42-4.9,48.17-1.98,50.25-2.95-2.11-32.93-24.77,1.83-50.11Z"/><path d="m569.17,198.32s0,0,0,0c0,0,0,0,0,0Z"/><path d="m595.94,134.41c-4.38,1.86-8.34,3.72-11.91,5.57,0,0,0,0,0,.01,3.56-1.86,7.53-3.72,11.91-5.59Z"/><path d="m597.26,133.85c.48-.2.97-.4,1.46-.6-.49.2-.97.4-1.46.6Z"/><path d="m583.65,140.2s0,0,0-.01c-4.95,2.6-9.15,5.18-12.68,7.74v.03c3.54-2.56,7.74-5.16,12.69-7.76Z"/><path d="m606.12,134.44c2.26-3.54,3.93-7.16,5.15-10.65-1.23,3.49-2.89,7.11-5.15,10.65Z"/><path d="m614.49,106.99c-.06,1.2-.15,2.52-.31,3.93.16-1.41.25-2.73.31-3.93Z"/><path d="m614,112.36c-.47,3.44-1.3,7.35-2.73,11.42,1.43-4.08,2.26-7.99,2.73-11.42Z"/><path d="m603.98,133.63c.44-1.14.92-2.41,1.42-3.78-.5,1.37-.98,2.63-1.42,3.78Z"/><path d="m600.77,141.38h0s.76-1.65,1.99-4.66c-1.23,3.02-1.99,4.66-1.99,4.66Z"/><path d="m603.14,135.76c.26-.66.54-1.37.84-2.13-.3.76-.58,1.47-.84,2.13Z"/><path d="m570.95,112.83v-6.2c-.2,2.12-.18,4.19,0,6.2Z"/><path d="m654.32,8.42c-.39.1-.79.21-1.19.33.4-.12.8-.23,1.19-.33Z"/><path d="m647.96,4.3c.37-.13.76-.25,1.14-.37-.38.12-.77.24-1.14.37Z"/><path d="m645.79,5.11c.46-.18.94-.35,1.41-.53-.48.17-.96.35-1.41.53Z"/><path d="m643.74,5.99c.53-.24,1.09-.48,1.65-.71-.56.23-1.12.47-1.65.71Z"/><path d="m650.25,3.56c.78-.23,1.58-.45,2.41-.66-.83.21-1.63.43-2.41.66Z"/><path d="m643.68,6.02c-2.57,1.18-4.79,2.51-6.7,3.9h.01c1.9-1.39,4.11-2.71,6.68-3.9Z"/><path d="m656.22,7.98c-.5.1-1.02.22-1.55.35.53-.13,1.05-.25,1.55-.35Z"/><path d="m637.82,17.99c-.36.38-.72.78-1.06,1.19.34-.41.7-.8,1.06-1.19Z"/><path d="m648.93,10.32c-.19.08-.38.16-.56.25.19-.09.38-.17.56-.25Z"/><path d="m647.46,11c-.21.1-.42.21-.64.32.21-.11.42-.22.64-.32Z"/><path d="m632.96,25.09c-.29.63-.57,1.27-.81,1.94.25-.67.52-1.31.81-1.94Z"/><path d="m625.35,27.37c.6-3.17,2.91-11.07,11.64-17.45h-.01c-8.73,6.38-11.03,14.27-11.63,17.45Z"/><path d="m625.3,27.67c.01-.09.03-.17.05-.27-.02.1-.03.18-.05.27Z"/><path d="m649.16,63.71s0,0,0,0c4.85,8.14,11.37,16.64,19.9,23.41,0,0,0,0,0,0-8.53-6.77-15.05-15.27-19.9-23.41Z"/><path d="m636.5,19.48c-.84,1.03-1.62,2.13-2.32,3.31.7-1.18,1.48-2.28,2.32-3.31Z"/><path d="m697.55,72.59c-.45.8-8.01,13.4-18.93,17.63,10.94-4.22,18.49-16.83,18.93-17.63Z"/><path d="m638.15,17.64c.4-.41.81-.81,1.23-1.19-.42.38-.83.78-1.23,1.19Z"/><path d="m633.95,23.19c-.27.47-.52.95-.76,1.44.24-.49.49-.97.76-1.44Z"/><path d="m636.96,35.59c-.12-.04-.33-.12-.61-.22.28.1.49.18.61.22Z"/><path d="m637.11,35.75c.3,1.14,2.77,10.32,8.43,21.42,0,0,0,0,0,0-5.66-11.1-8.14-20.28-8.44-21.42Z"/><path d="m625.15,28.79s0,0,0,0c.62,2.51,8.69,5.65,11.19,6.57-2.51-.92-10.57-4.07-11.19-6.58Z"/><path d="m642.43,13.99c-.33.23-.66.48-.98.73.32-.25.65-.49.98-.73Z"/><path d="m625.24,28.01c0-.05.02-.11.03-.17,0,.06-.02.11-.03.17Z"/><path d="m673.48,90.35c1.77,1.18,3.62,2.29,5.55,3.3-1.93-1.01-3.78-2.12-5.55-3.3,0,0,0,0,0,0Z"/><path d="m643.96,12.96c-.3.19-.61.39-.91.59.3-.2.6-.4.91-.59Z"/><path d="m643.01,32.34c-.66-.24-11.28-4.11-10.85-5.31-.44,1.2,10.19,5.07,10.85,5.31Z"/><path d="m640.97,15.09c-.48.39-.96.79-1.43,1.2.47-.42.94-.82,1.43-1.2Z"/><path d="m645.96,11.78c-.45.25-.91.51-1.36.78.45-.27.9-.53,1.36-.78Z"/><path d="m601.01,108.22c-.57,1.03-1.03,2.02-1.4,2.97.36-.95.82-1.94,1.4-2.97Z"/><path d="m599.62,111.19c-.27.71-.49,1.4-.66,2.07.17-.66.39-1.35.66-2.07Z"/><path d="m595.7,114.98c-.08-.44-.15-.89-.19-1.35.05.46.11.91.19,1.35Z"/><path d="m599.98,123.76h0s-2.07-2.22-3.42-5.74c1.35,3.52,3.42,5.74,3.42,5.74Z"/><path d="m596.17,116.86c-.18-.6-.34-1.23-.47-1.88.12.66.28,1.28.47,1.88Z"/><path d="m595.88,108.45c.13-.52.29-1.05.49-1.59-.19.54-.36,1.07-.49,1.59Z"/><path d="m595.58,110c.07-.51.17-1.02.3-1.55-.13.52-.23,1.04-.3,1.55Z"/><path d="m598.71,120.32c.06.27.12.53.19.78-.07-.24-.13-.5-.19-.78Z"/><path d="m598.46,118.5c.02.33.06.65.1.95-.04-.3-.08-.62-.1-.95Z"/><path d="m599.98,123.76s-.63-.95-1.09-2.66c.46,1.71,1.08,2.66,1.09,2.66h0Z"/><path d="m569.17,198.3s.02.02.02.02c0,0-.01-.01-.02-.02Z"/><path d="m569,198.2s-.02-.01-.03-.02c0,0,.02.01.03.02Z"/><path d="m569.14,198.28c-1.07-1.19-16.84-19.56,1.66-42.57v-.02c-18.55,23.04-2.71,41.42-1.66,42.59Z"/><path d="m569.2,198.34h0s-.01,0-.04-.02c.02.01.04.02.04.02Z"/><path d="m569.16,198.31s-.05-.03-.07-.05c.03.02.05.04.07.05Z"/><path d="m570.81,155.69v-7.62c-34.76,25.34-4.78,48.01-1.83,50.11,0,0,.02.01.03.02.03.02.07.05.09.07.03.02.06.04.07.05,0,0,0,0,0,0,.02.02.03.02.04.02,0,0,0-.01-.01-.01,0,0,0-.01-.02-.02,0,0-.01-.01-.03-.03-1.05-1.17-16.89-19.55,1.66-42.59Z"/><path d="m570.81,155.69v.02c.05-.06.1-.12.15-.18v-.03c-.05.06-.1.12-.15.18Z"/><path d="m598.71,133.25c1.02-.41,2.04-.83,3.11-1.24-1.06.41-2.09.83-3.11,1.24Z"/><path d="m595.94,134.41c.44-.19.87-.37,1.31-.56-.44.19-.88.37-1.31.56Z"/><path d="m570.81,155.69c.05-.06.1-.12.15-.18v-7.54s-.1.07-.15.1"/><polygon points="585.45 142.14 585.45 142.14 585.45 142.14 585.45 142.14"/><path d="m668.71,229.95c.52-.34,1.01-.68,1.53-1.02-.51.34-1.01.68-1.53,1.02Z"/><path d="m668.1,229.24c1.63-1.37,3.25-2.73,4.85-4.09-1.59,1.36-3.21,2.72-4.85,4.09Z"/><path d="m661.99,234.3c1.87-1.53,3.71-3.06,5.53-4.58-1.82,1.52-3.66,3.05-5.53,4.58Z"/><path d="m702.35,198.58c-8.82,8.51-18.51,17.29-29.08,26.29,10.58-9.01,20.27-17.79,29.1-26.29h-.02Z"/><path d="m675.84,225.15c-.14.1-.28.19-.42.29.14-.1.28-.19.42-.29Z"/><path d="m675.42,225.44c.14-.1.28-.19.42-.29,12.9-8.85,24.49-17.76,34.85-26.57h-8.32c-8.82,8.5-18.52,17.28-29.1,26.29-.11.09-.22.19-.33.28-1.59,1.36-3.21,2.72-4.85,4.09-.19.16-.38.32-.57.48-1.82,1.52-3.66,3.05-5.53,4.58,2.28-1.45,4.51-2.9,6.72-4.35.52-.34,1.01-.68,1.53-1.02,1.75-1.16,3.49-2.32,5.19-3.49Z"/><path d="m759.61,128.29v-.05c-10.28,19.48-29.4,43.51-57.26,70.34h.02c27.83-26.81,46.94-50.81,57.24-70.29Z"/><path d="m763.59,84.61c.25.27.48.55.71.83-.23-.28-.46-.56-.71-.83Z"/><path d="m760.83,82.11c.29.22.58.44.85.67-.27-.23-.56-.45-.85-.67Z"/><path d="m764.48,85.66c.71.92,1.34,1.9,1.86,2.94-.53-1.04-1.15-2.03-1.86-2.94Z"/><path d="m763.42,84.42c-.48-.51-.99-1-1.53-1.46.54.47,1.05.95,1.53,1.46Z"/><path d="m766.4,88.73c4.46,8.98,2.18,22.53-6.79,39.51v.05c8.99-17,11.27-30.57,6.79-39.56Z"/><path d="m759.61,81.25h0c.3.2.59.4.88.61-.29-.21-.57-.41-.88-.61Z"/><path d="m759.63,71.41v9.85s-.01,0-.02-.01h0c.3.2.59.41.88.61.12.08.23.17.35.25.29.22.58.44.85.67.07.06.14.12.2.18.54.46,1.05.95,1.53,1.46.06.06.12.13.18.19.25.27.48.55.71.83.06.07.12.15.17.22.71.92,1.34,1.9,1.86,2.94.02.04.04.08.06.12,4.48,9,2.2,22.56-6.79,39.56v17.47c26.86-39.49,24.84-69.84.02-74.35Z"/><path d="m746.81,76.91c-1.82-.26-3.77-.42-5.82-.5,2.05.07,4,.24,5.82.5Z"/><path d="m756.58,79.6c-.36-.16-.74-.31-1.11-.47.38.15.75.3,1.11.47Z"/><path d="m739.02,72.55c.14-.03.27-.06.41-.09-.14.03-.27.06-.41.09Z"/><path d="m752.91,78.23c-.42-.13-.84-.25-1.27-.36.43.11.86.23,1.27.36Z"/><path d="m758.9,80.83c-.56-.33-1.14-.64-1.74-.94.61.29,1.19.61,1.74.94Z"/><path d="m737.45,76.37c-.53,0-1.07.02-1.62.04.54-.02,1.09-.03,1.62-.04Z"/><path d="m748.84,77.25c-.5-.09-1-.19-1.52-.27.52.08,1.02.17,1.52.27Z"/><path d="m750.92,77.69c-.45-.11-.91-.22-1.38-.31.47.1.93.2,1.38.31Z"/><path d="m754.8,78.87c-.38-.14-.78-.28-1.18-.41.4.13.8.27,1.18.41Z"/><path d="m738.54,76.37c.56,0,1.11,0,1.66.01-.54-.01-1.1-.01-1.66-.01Z"/><path d="m731.41,74.71c.99-.33,1.97-.63,2.94-.92-.96.28-1.94.59-2.94.92Z"/><path d="m727.96,75.91c.85-.31,1.69-.61,2.53-.89-.83.28-1.68.58-2.53.89Z"/><path d="m735.8,73.38c.47-.13.94-.26,1.4-.38-.46.12-.93.25-1.4.38Z"/><path d="m728.18,77c-.45.05-.89.1-1.35.15.46-.06.9-.1,1.35-.15Z"/><path d="m734.56,76.47c-.53.03-1.06.06-1.59.09.54-.04,1.07-.07,1.59-.09Z"/><path d="m731.51,76.67c-.51.04-1.02.08-1.54.13.52-.05,1.03-.09,1.54-.13Z"/><path d="m723.57,77.61c1.17-.48,2.31-.92,3.44-1.35-1.13.43-2.28.87-3.44,1.35Z"/><path d="m759.63,71.41h0s-.01,0-.02,0h0s.01,0,.02,0Z"/><path d="m759.61,81.24s.01,0,.02.01v-9.85s-.01,0-.02,0v9.84Z"/><path d="m633.19,24.63c-.08.15-.15.3-.22.46.07-.16.15-.31.22-.46Z"/><path d="m648.93,10.32c.31-.14.62-.27.92-.4h0c-.31.12-.61.26-.92.4Z"/><path d="m625.15,28.79s0,0,0,0c0-.02.02-.29.09-.78-.07.5-.09.78-.09.78Z"/><path d="m625.27,27.85c0-.06.02-.12.03-.18-.01.06-.02.12-.03.18Z"/><path d="m625.35,27.4s0-.02,0-.03c0,0,0,.02,0,.03Z"/><path d="m678.61,90.22c-1.56-.91-3.06-1.92-4.51-3.02,0,0,0,0,0,0,1.44,1.09,2.95,2.1,4.51,3.02Z"/><path d="m637.82,17.99c.11-.12.22-.24.34-.35-.11.12-.22.23-.34.35Z"/><path d="m641.45,14.71c-.16.12-.32.25-.48.37.16-.13.32-.25.48-.37Z"/><path d="m644.6,12.56c-.21.13-.43.27-.64.41.21-.14.43-.28.64-.41Z"/><path d="m646.82,11.32c-.29.15-.58.3-.86.45.29-.16.58-.3.86-.45Z"/><path d="m643.06,13.55c-.21.14-.41.29-.62.43.21-.15.41-.29.62-.43Z"/><path d="m648.37,10.57c-.3.14-.61.28-.91.43.3-.15.61-.29.91-.43Z"/><path d="m652.05,57.81c-6-12.71-8.69-24.04-8.98-25.33.29,1.29,2.98,12.62,8.98,25.33,0,0,0,0,0,0Z"/><path d="m639.54,16.29c-.05.05-.11.1-.16.15.05-.05.11-.1.16-.15Z"/><path d="m636.76,19.18c-.09.1-.17.2-.26.3.08-.1.17-.2.26-.3Z"/><path d="m634.18,22.78c-.08.13-.15.27-.23.4.08-.13.15-.27.23-.4Z"/><path d="m649.86,9.92c1.11-.45,2.21-.84,3.27-1.16-1.06.32-2.16.71-3.27,1.16h0Z"/><path d="m649.1,3.93c.38-.12.75-.25,1.15-.37-.4.12-.77.24-1.15.37Z"/><path d="m643.68,6.02s.04-.02.07-.03c-.02.01-.04.02-.07.03Z"/><path d="m654.66,8.33c-.11.03-.23.07-.35.1.11-.03.23-.07.35-.1Z"/><path d="m647.2,4.58c.25-.09.5-.19.76-.28-.26.09-.5.19-.76.28Z"/><path d="m645.39,5.28c.13-.05.26-.11.39-.17-.14.05-.26.11-.39.17Z"/><path d="m649.85,9.92c1.11-.45,2.21-.84,3.27-1.16.4-.12.8-.23,1.19-.33.11-.03.23-.07.35-.1.53-.13,1.05-.25,1.55-.35,27.62-5.52,48.57,1.19,48.57,1.19,0,0-15.4-15.42-52.13-6.26-.83.21-1.63.42-2.41.66-.4.12-.77.24-1.15.37-.38.12-.77.24-1.14.37-.26.09-.5.19-.76.28-.48.17-.96.35-1.41.53-.14.05-.26.11-.39.17-.56.23-1.12.47-1.65.71-.02.01-.04.02-.07.03-2.57,1.19-4.78,2.51-6.68,3.9h12.86Z"/></g></svg>