<?xml version="1.0" encoding="UTF-8"?><svg id="Capa_2" xmlns="http://www.w3.org/2000/svg" viewBox="0 0 483.75 155.44"><defs><style>.cls-1{stroke-width:0px;}</style></defs><g id="Capa_1-2"><g id="KrMejS.tif"><path class="cls-1" d="M2.45,70.02l7.25-2.97c.13-2.07.33-5.48.57-8.89.93-13.42,8.92-21.81,21.34-22.47,3.62-.19,6.99.33,7.15,4.81.14,3.98-2.55,5.2-6.24,5.37-5.41.25-9.07,3.07-10.22,8.48-.94,4.43-.95,9.06-1.45,14.41,3.48,0,6.3-.63,8.6.19.17.06.34.13.5.22,3.55,1.79,3.53,7.06.04,8.96-.19.11-.39.2-.6.28-2.17.82-4.89.18-8.17.18,0,2.05,0,3.8,0,5.54,0,12.08-.05,24.16.03,36.24.03,3.96-.96,7.12-5.54,7.19-4.58.07-5.8-3.16-5.81-7.03-.04-11.75-.02-23.5-.03-35.25,0-1.96,0-3.93,0-5.15-2.62-.99-5.02-1.9-7.32-2.77-3.35-1.27-3.42-5.98-.11-7.34Z"/><path class="cls-1" d="M439.92,122.52c.88-1.63,1.67-3.31,2.66-4.87,7.53-11.76,11.01-24.34,7.88-38.27-2.16-9.61-8.73-16.18-15.76-22.35-3.98-3.5-8.8-6.17-12.34-10.02-3.24-3.53-5.95-7.9-7.61-12.37-1.43-3.85.38-7.86,3.91-10.51,4.01-3,8.64-3.11,12.73-.9,8.35,4.5,14.51,11.01,15.79,20.93.49,3.77.56,7.59,1.06,11.36.15,1.14.94,2.85,1.78,3.08.93.26,2.62-.57,3.34-1.45,5.19-6.34,9.16-12.82,5.27-21.69-1.72-3.92-1.49-8.66-2.28-13.01-.41-2.25-1.24-4.42-1.63-6.67-.2-1.16.14-2.41.23-3.62,1.16.3,2.57.28,3.45.95,10.45,7.95,17.91,18.07,22.04,30.55,10.29,31.04-4.22,64.56-33.92,78.21-1.81.83-3.84,1.19-5.77,1.76-.28-.38-.56-.75-.85-1.13Z"/><path class="cls-1" d="M420.85,1.93c-1.66,1.17-2.94,2.27-4.39,3.06-16.93,9.12-22.27,26.06-12.28,42.4,4.04,6.6,10.37,11.84,15.79,17.58,3.28,3.47,7.36,6.31,10.1,10.13,4.65,6.48,2.95,14.45-3.02,17.73-6.05,3.32-12.72.89-16.22-6.68-5.33-11.53-12.37-21.52-23.24-28.47-7.71-4.93-16.1-7.78-25.36-7.76-1.16,0-2.32-.13-3.46-.28-.28-.04-.51-.39-.76-.6.49-24.3,43.73-57.39,62.84-47.11Z"/><path class="cls-1" d="M129.38,71.98c11.76-7.09,20.45-6.29,30.08,2.7,5.62-5.76,12.74-7.66,20.66-7.22,10.12.56,17.45,7.91,17.57,17.96.13,11.75.06,23.5.02,35.25-.02,4.64-2.14,7.15-5.85,6.9-4.27-.29-5.39-3.09-5.36-6.88.07-10.26.07-20.52,0-30.79-.07-9.75-7.19-14.57-16.45-11.22-4.44,1.6-6.52,4.7-6.47,9.47.1,10.76.07,21.52,0,32.27-.03,4.88-2.4,7.62-6.18,7.15-4.1-.5-5.4-3.32-5.39-7.06.01-10.59.02-21.19,0-31.78-.01-7.3-3.6-10.86-11.01-10.97-7.31-.11-11.89,3.95-11.96,10.95-.12,10.92.04,21.85-.07,32.77-.05,5.11-4.61,8.07-8.29,5.21-1.6-1.24-2.59-4.17-2.63-6.34-.22-15.06-.1-30.12-.13-45.18,0-3.25-.07-6.48,3.95-7.56,3.71-.99,6.02.81,7.5,4.36Z"/><path class="cls-1" d="M325.14,78.67c.35,1.83.66,3.27.91,4.72,2.08,12.17-6.28,22.41-18.69,23.08-2.6.14-5.17.87-7.75,1.33-.06.57-.11,1.14-.17,1.71,1.15.72,2.22,1.63,3.46,2.12,4.62,1.83,9.34,3.42,13.95,5.27,10.28,4.14,14.67,11.18,13.66,21.61-.78,7.99-7.28,14.45-17.14,16.22-6.93,1.25-13.89,1.05-20.41-2.35-13.35-6.98-15.02-23.98-3.24-33.35.62-.5,1.26-.99,2.2-1.73-4.3-5.31-5.34-10.49,1.1-14.98-5.45-5.18-8.03-11.05-7.21-18.15,1.28-11.07,10.6-17.66,23.1-16.72,5.71.43,11.49-.02,17.18.47,1.9.16,4.9,1.79,5.16,3.16.36,1.88-1.22,4.28-2.4,6.2-.46.76-2.08.81-3.72,1.38ZM307.33,145.55c.78-.11,2.45-.18,4.05-.59,5.22-1.33,8.82-4.93,8.68-8.95-.18-4.97-3.42-7.65-7.79-9.19-2.34-.83-4.71-1.57-7.1-2.25-6.51-1.84-12.5,2.47-12.86,9.2-.37,6.93,5.52,11.84,15.03,11.78ZM305.92,96.34c5.17.03,9.72-4.25,9.85-9.26.13-5.11-4.1-9.4-9.4-9.56-5.57-.16-10.02,4.02-10.02,9.41,0,5.22,4.22,9.38,9.57,9.41Z"/><path class="cls-1" d="M333.49,97.66c-.07-17.66,11.82-30.2,28.65-30.2,16.92,0,28.62,12.35,28.59,30.19-.03,17.45-11.82,29.96-28.34,30.06-16.75.1-28.83-12.46-28.91-30.05ZM379.39,97.44c-.08-10.85-7.67-19.4-17.22-19.39-9.63.01-17.21,8.47-17.31,19.31-.1,10.87,7.89,19.88,17.47,19.69,9.5-.18,17.13-8.97,17.05-19.62Z"/><path class="cls-1" d="M242.23,71.74c5.11-3.54,10.69-5.26,16.93-4.31,11.44,1.74,17.87,8.61,18.14,20.07.27,11.09.06,22.19.06,33.28,0,3.77-1.36,6.72-5.55,6.79-4.46.07-5.88-2.88-5.87-6.93.03-10.15.16-20.3-.08-30.44s-8.43-15.65-17.89-11.21c-4.5,2.12-6.55,5.86-6.53,10.8.02,10.27,0,20.53,0,30.8,0,3.95-1.39,7.02-5.88,7-3.83-.01-5.66-2.53-5.67-6.18-.05-15.89-.17-31.79.16-47.68.04-2.05,2.36-5.46,4.02-5.73,2.11-.33,4.46.93,6.77,1.86.78.32,1.32,1.04,1.4,1.88h0Z"/><path class="cls-1" d="M98.89,121.94c-3.65,1.82-6.98,4.3-10.69,5.16-10.86,2.52-19.74-3.52-21.76-14.16-1.88-9.9,5.16-19.51,15.61-21.14,3.6-.56,7.25-.92,10.89-1.12,2.57-.14,3.38-1.24,3.4-3.72.03-5.72-2.69-9.18-8.52-9.43-3.4-.15-6.86,1.12-10.28,1.05-2.08-.05-5.04-.87-5.99-2.36-1.54-2.41-.32-4.97,2.52-6.51,15.8-8.56,33.16,1.38,33.24,19.11.03,6.78-.26,13.58.13,20.34.18,3.15,1.09,6.52,2.63,9.25,1.7,3.04,2.4,5.6-.41,7.9-2.78,2.28-5.65,1.3-8.04-.96-1.18-1.12-2.06-2.55-2.73-3.41ZM95.54,99.62c-4.31.66-8.81.83-12.96,2.12-5,1.55-7.01,7.36-4.73,11.7,2.34,4.45,6.98,5.38,11.86,2.38,5.47-3.36,7.48-8.67,5.83-16.2Z"/><path class="cls-1" d="M56.42,82.2c0,12.74.06,25.47-.02,38.21-.04,5.25-2.51,7.81-6.59,7.12-3.63-.61-4.74-3.1-4.73-6.48.03-26.13.02-52.27,0-78.4,0-3.94,1.75-6.52,5.82-6.46,3.84.06,5.49,2.69,5.5,6.32.03,13.23.01,26.46.02,39.7Z"/><path class="cls-1" d="M219.49,97.81c0,7.6-.05,15.21.02,22.81.03,4.06-1.45,7-5.86,6.93-4.12-.06-5.58-2.89-5.57-6.73.03-15.54.01-31.08.01-46.62,0-3.8,1.38-6.61,5.62-6.65,4.55-.04,5.83,2.95,5.8,6.94-.05,7.77-.01,15.54-.01,23.31Z"/><path class="cls-1" d="M214.27,59.04c-4.09.01-6.64-2.58-6.49-6.24.16-3.76,2.34-5.65,5.97-5.83,3.59-.17,6.18,2.57,6.03,6.23-.15,3.77-2.34,5.54-5.51,5.84Z"/></g></g></svg>