<?xml version="1.0" encoding="UTF-8"?><svg id="Capa_2" xmlns="http://www.w3.org/2000/svg" viewBox="0 0 478.55 196.55"><defs><style>.cls-1{fill:#080909;}.cls-1,.cls-2{stroke-width:0px;}.cls-2{fill:#171818;}</style></defs><g id="Capa_1-2"><g id="vzX4Ts"><path class="cls-1" d="M74.92,100.45c-11.66,0-23.32.13-34.97-.08-3.6-.06-4.08,1.1-3.45,4.32,1.93,9.89,7.3,15.46,16.96,17.1,12.06,2.05,22.44-1.83,26.89-10.49,1.13-2.19,2.26-2.86,4.51-2.84,8.33.09,16.66.2,24.98-.04,3.83-.11,3.51,1.45,2.69,4.17-7.12,23.48-24.96,36.93-50.6,37.69-19.78.58-37.22-4.71-49.89-21.06C-6.56,105.23-6.07,55.23,31.07,36.61c30.02-15.05,74.55-5.81,82.7,42.19.98,5.79.86,11.59,1,17.41.08,3.26-1.13,4.34-4.38,4.3-11.82-.15-23.65-.06-35.47-.06ZM57.21,75.85c5.82,0,11.65-.16,17.46.06,3.35.13,3.47-1.13,2.59-3.8-2.99-9.11-8.44-13.37-17.94-13.8-10.28-.46-18.07,3.85-21.6,11.98-.33.76-.59,1.55-.87,2.33-.8,2.25-.31,3.34,2.39,3.27,5.98-.15,11.97-.05,17.96-.05Z"/><path class="cls-1" d="M478.55,88.49c-.09,28.73-12.68,48.89-34.7,57.69-23.87,9.54-53.27,4.15-69.48-13.11-13.39-14.25-16.49-31.78-14.92-50.53,2.06-24.54,17.01-43.39,39.44-49.93,26.05-7.6,53.28,0,67.81,19.12,8.71,11.46,11.68,24.78,11.85,36.76ZM395.34,90.21c-.08,6.89.67,13.63,3.71,19.92,3.96,8.22,10.65,11.98,19.68,11.93,8.96-.06,16.11-3.49,19.67-11.91,5.48-12.99,5.55-26.37.09-39.35-3.67-8.72-11.05-12.41-20.49-12.24-9.15.17-15.46,4.56-19.25,12.65-2.81,5.99-3.45,12.45-3.41,19Z"/><path class="cls-1" d="M162.99,58.63c5.23-7.8,10.23-15.06,15-22.46,1.62-2.52,3.47-3.54,6.51-3.49,10.49.18,20.98.04,31.48.11,1.37,0,3.28-.87,4.02.81.58,1.3-.98,2.34-1.71,3.38-10.81,15.39-21.57,30.82-32.61,46.05-2.17,3-1.99,4.88.06,7.76,12.43,17.51,24.65,35.16,36.91,52.79.73,1.04,2.26,2.05,1.66,3.4-.75,1.71-2.63.83-3.98.84-10.83.07-21.65-.07-32.48.11-3.05.05-4.88-1.02-6.5-3.52-5.5-8.53-11.25-16.9-16.77-25.42-1.54-2.38-2.38-2.59-4.03-.05-5.61,8.66-11.52,17.12-17.09,25.8-1.57,2.45-3.37,3.2-6.13,3.17-10.82-.12-21.65-.04-32.48-.07-1.11,0-2.61.56-3.26-.51-.83-1.37.56-2.45,1.28-3.49,11.96-17.43,23.85-34.9,35.99-52.2,2.16-3.08,2.24-5.07,0-8.21-10.95-15.29-21.6-30.79-32.31-46.25-.79-1.15-2.56-2.22-1.64-3.83.73-1.26,2.44-.56,3.69-.56,10.83-.05,21.65.09,32.48-.1,3.27-.06,5.13,1.15,6.85,3.8,4.79,7.37,9.86,14.55,15.05,22.15Z"/><path class="cls-1" d="M299.21,93.2c0-10.16-.11-20.32.06-30.47.05-3.07-.89-4.13-3.97-3.92-3.65.24-7.33-.05-10.99.09-2.51.1-3.62-.68-3.56-3.37.14-6.33.13-12.66,0-18.98-.05-2.72.79-4.01,3.7-3.83,2.99.18,6.04-.31,8.98.11,5.08.73,6.11-1.43,5.87-6.07-.39-7.47.01-14.98-.16-22.47-.07-2.96.7-4.13,3.89-4.07,9.49.19,18.99.18,28.48,0,3.14-.06,3.98,1.1,3.92,4.07-.16,7.99.18,16-.15,23.98-.17,3.92,1.17,4.81,4.78,4.56,4.48-.31,8.99.03,13.49-.11,2.66-.08,3.99.6,3.9,3.6-.17,6.32-.18,12.66,0,18.98.09,3-1.22,3.68-3.88,3.61-4.83-.14-9.67.1-14.49-.09-2.72-.11-3.79.58-3.76,3.55.14,16.32,0,32.64.12,48.96.04,6.27,1.37,7.46,7.62,8.07,3.7.36,7.34-.24,10.92-.93,2.85-.54,3.49.43,3.46,3.02-.1,7.49-.14,14.99.02,22.48.06,2.86-1.18,3.71-3.78,3.99-10.81,1.16-21.62,1.46-32.36-.37-14.26-2.43-21.99-11.79-22.09-26.4-.06-9.33-.01-18.65-.01-27.98Z"/><path class="cls-1" d="M230,86.11c-.75-13.96-1.61-31.41-2.67-48.85-.21-3.44.64-4.65,4.27-4.59,12.49.2,24.98.22,37.47,0,3.76-.07,4.84.93,4.61,4.75-2.03,33.38-3.83,66.76-5.8,100.14-.61,10.31-.75,10.3-10.95,10.3-6.33,0-12.66-.18-18.98.07-3.51.14-4.44-1.07-4.61-4.53-.88-17.94-2.06-35.87-3.34-57.29Z"/><path class="cls-1" d="M271.95,175.09c-.04,12.05-9.48,21.47-21.5,21.46-11.9,0-21.64-9.61-21.74-21.44-.1-11.97,9.85-21.8,21.96-21.69,12.07.11,21.32,9.53,21.28,21.67Z"/><path class="cls-2" d="M97.97,0c-3.79,4.32-7.86,6.55-11.36,9.45-1.79,1.48-3.97,2.58-5.52,4.26-8.87,9.62-20.08,11.33-32.29,9.92-.91-.11-2.16.49-2.62-.73-.41-1.07.56-1.83,1.15-2.58,4.88-6.11,9.79-12.19,14.69-18.28.86-1.08,1.88-2.01,3.3-2.01,10.56-.04,21.12-.02,32.66-.02Z"/></g></g></svg>