<?xml version="1.0" encoding="utf-8"?>
<!-- Generator: Adobe Illustrator 16.0.0, SVG Export Plug-In . SVG Version: 6.00 Build 0)  -->
<!DOCTYPE svg PUBLIC "-//W3C//DTD SVG 1.1//EN" "http://www.w3.org/Graphics/SVG/1.1/DTD/svg11.dtd">
<svg version="1.1" id="Layer_1" xmlns="http://www.w3.org/2000/svg" xmlns:xlink="http://www.w3.org/1999/xlink" x="0px" y="0px"
	 width="300px" height="300px" viewBox="-48.515 -116.897 300 300" enable-background="new -48.515 -116.897 300 300"
	 xml:space="preserve">
<path d="M58.721,26.207C54.328,49.535,31.855,68.439,8.527,68.439s-38.668-18.907-34.277-42.232
	c4.392-23.326,26.868-42.233,50.196-42.233C47.773-16.026,63.12,2.881,58.721,26.207 M36.159-9.751
	c12.299,5.184,19.266,18.098,16.42,33.204c-0.612,3.21-1.612,6.333-2.979,9.301c-0.05,0.069-0.092,0.145-0.128,0.219
	c-1.452,3.123-3.261,6.065-5.39,8.772c-0.079,0.095-0.152,0.189-0.229,0.284c-0.106,0.139-0.22,0.273-0.334,0.413
	C38.346,48.774,31.6,53.633,23.957,56.535l0,0c-0.189,0.069-0.383,0.137-0.575,0.206c-0.172,0.061-0.346,0.128-0.511,0.18
	c-0.079,0.025-0.156,0.053-0.233,0.08h-0.026c-0.104-0.008-0.187-0.095-0.187-0.199v-0.032c0.003-0.058,0.003-0.112,0-0.167
	c0-0.008,0-0.013,0-0.018l0.178-3.711c3.688-0.723,7.111-2.438,9.898-4.962c3.414-3.214,5.116-7.85,4.594-12.512
	c-0.134-3.783-1.866-7.332-4.767-9.767c-3.056-2.539-6.439-4.661-10.056-6.307l-0.54-0.266c-2.686-1.224-5.261-2.675-7.698-4.337
	c-1.416-0.874-2.41-2.29-2.751-3.918c-0.063-0.845,0.229-1.677,0.808-2.296c1.372-1.152,3.139-1.725,4.925-1.596h0.039
	c3.396,0.229,6.722,1.088,9.805,2.534c0.248,0.108,0.52,0.151,0.789,0.127c1.771-0.255,3.299-1.377,4.07-2.992
	c0.668-1.188,1.078-2.502,1.203-3.859c0.041-0.529-0.186-1.043-0.603-1.37c-2.985-2.103-6.452-3.419-10.08-3.828
	c-0.125-0.029-0.237-0.095-0.323-0.19c-0.044-0.047-0.081-0.101-0.11-0.158c0-0.045,0.278-4.615,0.417-6.165
	c0.065-0.643,0.024-1.293-0.121-1.923c-0.214-0.685-0.861-1.142-1.579-1.115c-0.031,0-0.061,0.002-0.091,0.006
	c-5.263,0.47-10.399,1.886-15.159,4.181l0,0c-13.453,6.398-24.233,19.22-27.016,33.999c-3.131,16.624,4.779,30.771,18.574,36.084
	c-12.295-5.183-19.266-18.094-16.419-33.198c0.628-3.28,1.661-6.472,3.074-9.497c0.039-0.057,0.071-0.117,0.1-0.178
	c0.654-1.402,1.382-2.77,2.182-4.094C-9.3,7.221-2.052,0.839,6.566-3.032v-0.017c1.501-0.663,3.038-1.239,4.605-1.726
	c0.068-0.019,0.135-0.042,0.201-0.071h0.01l0.022-0.006c0.102,0.011,0.18,0.097,0.178,0.2v0.039c-0.006,0.051-0.006,0.102,0,0.152
	l-0.255,2.491C8.033-1.369,4.968,0.127,2.465,2.35c-6.019,5.703-6.48,15.132-1.048,21.397c2.697,3.005,6.003,5.402,9.697,7.029
	l0.255,0.12c3.07,1.301,6.044,2.815,8.899,4.538c2.121,1.492,2.618,2.613,2.751,4.017c0,0,0,0.022,0,0.035
	c0.088,1.059-0.315,2.101-1.093,2.825c-1.404,1.137-3.177,1.72-4.984,1.638H16.9c-4.398-0.018-8.705-1.259-12.435-3.586
	l-0.072-0.045c-0.011-0.005-0.022-0.013-0.031-0.022c-0.63-0.416-1.363-0.65-2.117-0.681H2.171c-0.701,0.028-1.369,0.31-1.879,0.793
	c-0.511,0.491-0.91,1.087-1.166,1.747c-0.761,1.487-1.088,3.159-0.939,4.824c0.026,0.334,0.072,0.668,0.138,0.997
	c0.081,0.406,0.319,0.765,0.663,0.999c3.662,2.629,7.943,4.264,12.424,4.747c0.108,0.021,0.207,0.072,0.285,0.149
	c0.068,0.058,0.12,0.135,0.148,0.22c0.102,2.305,0.028,4.617-0.221,6.913c-0.076,0.765-0.013,1.534,0.19,2.277
	c0.069,0.227,0.187,0.436,0.345,0.613c0.28,0.312,0.67,0.498,1.086,0.523c0.039,0,0.08,0.007,0.127,0.007
	c0.102,0,0.204-0.01,0.304-0.029c0.756-0.085,1.512-0.197,2.263-0.324l0.006,0.015c2.816-0.48,5.581-1.233,8.252-2.248
	c0.046-0.02,0.091-0.034,0.136-0.052c0.443-0.167,0.882-0.347,1.322-0.528c0.066-0.03,0.128-0.055,0.197-0.085
	c0.44-0.187,0.882-0.381,1.318-0.578c0.039-0.02,0.079-0.037,0.12-0.055c13.67-6.325,24.664-19.266,27.478-34.215
	C57.904,9.706,49.987-4.445,36.195-9.758"/>
<path d="M72.997,30.306c0.135,5.455,3.7,9.298,9.501,9.298c2.816,0.002,5.582-0.743,8.016-2.158l2.089,4.789
	c-3.263,1.991-7.024,3.019-10.845,2.961c-11.115,0-15.899-7.882-15.899-16.706c0-9.635,5.323-16.64,13.947-16.64
	c8.689,0,13.676,6.466,13.676,16.774v1.685L72.997,30.306z M86.337,25.32c-0.136-4.042-2.092-8.014-6.605-8.014
	c-4.243,0-6.735,3.7-6.802,8.014H86.337z"/>
<path d="M100.128,18.182h-3.46l-2.243-5.531h5.703V7.865c0-7.613,4.444-11.046,10.238-11.046c2.106,0.002,4.192,0.436,6.123,1.276
	l-1.413,5.591c-1.221-0.492-2.521-0.764-3.84-0.806c-2.828,0-4.107,1.749-4.107,4.849v4.921h8.777l-2.31,5.526h-6.468v26.346h-7.007
	L100.128,18.182z"/>
<path d="M123.193,30.306c0.127,5.455,3.7,9.298,9.499,9.298c2.816,0.002,5.582-0.74,8.015-2.158l2.091,4.789
	c-3.265,1.991-7.025,3.019-10.846,2.961c-11.116,0-15.898-7.882-15.898-16.706c0-9.635,5.32-16.64,13.942-16.64
	c8.692,0,13.679,6.466,13.679,16.774v1.685L123.193,30.306z M136.532,25.32c-0.127-4.042-2.088-8.014-6.605-8.014
	c-4.239,0-6.733,3.7-6.804,8.014H136.532z"/>
<path d="M147.402,28.826c0-9.696,6.938-16.977,16.507-16.977c2.943-0.067,5.85,0.653,8.421,2.087v5.997
	c-2.277-1.567-4.984-2.393-7.748-2.358c-6.2,0-9.973,4.721-9.973,11.05c0,6.938,3.772,10.846,9.569,10.846
	c2.661-0.03,5.268-0.772,7.546-2.155l2.021,4.847c-3.135,2.006-6.785,3.06-10.509,3.03c-10.172,0-15.831-7.204-15.831-16.367"/>
<path d="M225.195,12.657l-7.885,23.58h-0.135c0,0-5.956-14.187-7.941-18.914c-0.494-1.166-2.086-4.666-7.506-4.666H187.87V3.165
	l-7.01,2.152v7.345h-5.592v5.525h5.592v18.79c0,5.186,3.17,8.216,8.492,8.216c3.141,0.027,6.223-0.834,8.895-2.491l-2.226-4.848
	c-1.463,1.024-3.2,1.585-4.986,1.617c-2.086,0-3.165-1.148-3.165-4.044V18.182h14.339l11.802,26.271
	c-2.494,7.681-5.521,10.245-9.295,10.245c-1.617-0.02-3.21-0.414-4.65-1.148l-1.754,5.594c2.101,0.923,4.376,1.381,6.671,1.346
	c5.592,0,10.718-1.682,15.36-14.485l12.129-33.348L225.195,12.657z"/>
</svg>
