<?xml version="1.0" encoding="utf-8"?>
<!-- Generator: Adobe Illustrator 19.2.1, SVG Export Plug-In . SVG Version: 6.00 Build 0)  -->
<svg version="1.1" id="layer" xmlns="http://www.w3.org/2000/svg" xmlns:xlink="http://www.w3.org/1999/xlink" x="0px" y="0px"
	 viewBox="0 0 652 652" style="enable-background:new 0 0 652 652;" xml:space="preserve">
<style type="text/css">
	.st0{fill:none;}
	.st1{fill:#00030F;}
	.st2{fill:#5DC5ED;}
	.st3{fill:#007FC8;}
	.st4{fill:url(#SVGID_1_);}
	.st5{fill:url(#SVGID_2_);}
	.st6{fill:url(#SVGID_3_);}
</style>
<pattern  y="652" width="100.5" height="100.5" patternUnits="userSpaceOnUse" id="Unnamed_Pattern_12" viewBox="0 -100.5 100.5 100.5" style="overflow:visible;">
	<g>
		<rect y="-100.5" class="st0" width="100.5" height="100.5"/>
		<rect y="-100.5" class="st1" width="100.5" height="100.5"/>
	</g>
</pattern>
<pattern  y="652" width="100.5" height="100.5" patternUnits="userSpaceOnUse" id="Unnamed_Pattern_14" viewBox="0 -100.5 100.5 100.5" style="overflow:visible;">
	<g>
		<rect y="-100.5" class="st0" width="100.5" height="100.5"/>
		<rect y="-100.5" class="st2" width="100.5" height="100.5"/>
	</g>
</pattern>
<pattern  y="652" width="100.5" height="100.5" patternUnits="userSpaceOnUse" id="Unnamed_Pattern_17" viewBox="0 -100.5 100.5 100.5" style="overflow:visible;">
	<g>
		<rect y="-100.5" class="st0" width="100.5" height="100.5"/>
		<rect y="-100.5" class="st3" width="100.5" height="100.5"/>
	</g>
</pattern>
<pattern  id="SVGID_1_" xlink:href="#Unnamed_Pattern_12" patternTransform="matrix(4.120170e-002 0 0 -4.120170e-002 534.8436 -588.7806)">
</pattern>
<path class="st4" d="M44.4,426.9c-3.5,0-6.7-0.6-9.7-1.8c-2.9-1.2-5.4-2.9-7.4-4.9c-2.1-2.1-3.7-4.5-4.8-7.4
	c-1.1-2.8-1.7-5.9-1.7-9.2v-0.1c0-3.2,0.6-6.2,1.8-9c1.1-2.8,2.8-5.4,4.9-7.5c2.1-2.2,4.5-3.8,7.4-5.1c2.9-1.3,6-1.9,9.4-1.9
	c2,0,3.8,0.1,5.4,0.4c1.6,0.3,3.1,0.7,4.5,1.2c1.4,0.5,2.7,1.1,3.9,1.9c1.2,0.8,2.4,1.6,3.6,2.6l-5,6c-0.9-0.7-1.8-1.4-2.6-2
	c-0.9-0.6-1.9-1.1-2.9-1.5c-1-0.4-2.1-0.7-3.3-1c-1.2-0.2-2.5-0.4-3.9-0.4c-2.1,0-4,0.4-5.8,1.3c-1.8,0.8-3.3,2-4.7,3.5
	c-1.3,1.5-2.4,3.2-3.1,5.1c-0.8,2-1.1,4-1.1,6.2v0.1c0,2.4,0.4,4.5,1.1,6.5c0.7,2,1.8,3.7,3.1,5.1c1.3,1.4,3,2.6,4.8,3.4
	c1.9,0.8,4,1.2,6.3,1.2c2.2,0,4.2-0.3,6.1-0.9c1.9-0.6,3.5-1.5,4.9-2.5v-8.5H44v-6.9h19.3v19.1c-1.1,0.9-2.4,1.9-3.7,2.7
	c-1.4,0.9-2.9,1.6-4.4,2.3c-1.6,0.7-3.3,1.1-5.1,1.5C48.3,426.7,46.4,426.9,44.4,426.9 M76.4,380.7v45.4h7.9v-15.8h9.9h0.1
	l11.2,15.8h9.4l-12.3-17.2c1.6-0.4,3.1-1,4.4-1.8c1.3-0.8,2.5-1.8,3.4-2.9c0.9-1.1,1.7-2.4,2.2-3.9c0.5-1.5,0.8-3.2,0.8-5v-0.1
	c0-2-0.3-3.8-1-5.4c-0.7-1.6-1.6-3.1-2.8-4.4c-1.5-1.4-3.3-2.5-5.5-3.3c-2.2-0.8-4.8-1.2-7.6-1.2H76.4L76.4,380.7z M96,403.3H84.2
	v-15.3h11.6c3,0,5.3,0.7,6.9,1.9c1.7,1.3,2.5,3.2,2.5,5.7v0.1c0,2.4-0.8,4.2-2.5,5.6C101.1,402.5,98.8,403.2,96,403.3L96,403.3z
	 M144.5,426.8c3,0,5.7-0.4,8.1-1.3c2.4-0.8,4.5-2.1,6.1-3.8c1.7-1.7,3-3.8,3.9-6.4c0.9-2.6,1.4-5.5,1.4-8.9v-25.7H156v26.1
	c0,4.2-1,7.4-3,9.5c-2,2.1-4.8,3.2-8.4,3.2c-3.6,0-6.5-1.1-8.5-3.3c-2-2.2-3-5.4-3-9.7v-25.8h-7.9v26.1c0,3.3,0.5,6.2,1.4,8.7
	c0.9,2.5,2.2,4.6,3.9,6.3c1.7,1.7,3.7,2.9,6.1,3.8C138.8,426.4,141.5,426.8,144.5,426.8 M177.6,426.1h7.9v-14.6h9
	c2.5,0,4.9-0.4,7.1-1c2.2-0.7,4.1-1.7,5.8-3c1.7-1.3,3-2.9,3.9-4.8c0.9-1.9,1.4-4.1,1.4-6.7v-0.1c0-2.3-0.4-4.4-1.2-6.2
	c-0.8-1.9-2-3.5-3.5-4.8c-1.5-1.3-3.3-2.4-5.4-3.1c-2.1-0.7-4.5-1.1-7.2-1.1h-17.9V426.1z M194.8,404.4h-9.3v-16.4h9.3
	c3,0,5.4,0.6,7.2,2c1.8,1.4,2.7,3.4,2.7,6.1v0.1c0,2.4-0.9,4.4-2.6,5.9C200.2,403.5,197.8,404.3,194.8,404.4L194.8,404.4z
	 M245.1,426.9c3.5,0,6.7-0.6,9.6-1.8c2.9-1.3,5.4-2.9,7.5-5.1c2.1-2.2,3.7-4.6,4.9-7.5c1.2-2.8,1.7-5.9,1.7-9.1v-0.1
	c0-3.2-0.6-6.2-1.7-9.1c-1.2-2.8-2.8-5.3-4.9-7.4c-2.1-2.1-4.6-3.8-7.5-5c-2.9-1.2-6.1-1.8-9.6-1.8c-3.5,0-6.7,0.6-9.6,1.9
	c-2.9,1.3-5.4,2.9-7.5,5.1c-2.1,2.1-3.7,4.6-4.9,7.4c-1.2,2.9-1.8,5.9-1.8,9.1v0.1c0,3.2,0.6,6.2,1.8,9.1c1.2,2.9,2.8,5.3,4.9,7.4
	c2.1,2.1,4.6,3.8,7.5,5C238.4,426.3,241.6,426.9,245.1,426.9 M245.3,419.6c-2.3,0-4.3-0.4-6.2-1.3c-1.9-0.8-3.5-2-4.9-3.5
	c-1.4-1.5-2.4-3.2-3.2-5.1c-0.8-2-1.1-4.1-1.1-6.3v-0.1c0-2.2,0.4-4.3,1.1-6.2c0.7-2,1.8-3.6,3.1-5.1c1.3-1.5,2.9-2.6,4.8-3.5
	c1.9-0.8,3.9-1.3,6.2-1.3c2.3,0,4.3,0.4,6.2,1.3c1.9,0.9,3.5,2,4.9,3.5c1.4,1.5,2.4,3.2,3.2,5.1c0.8,2,1.1,4.1,1.1,6.3v0.1
	c0,2.2-0.4,4.3-1.1,6.2c-0.7,2-1.8,3.6-3.1,5.1c-1.3,1.5-2.9,2.6-4.8,3.5C249.6,419.2,247.5,419.6,245.3,419.6 M303.3,426.1h7.9
	v-14.6h9c2.5,0,4.9-0.4,7.1-1c2.2-0.7,4.1-1.7,5.8-3c1.7-1.3,3-2.9,3.9-4.8c0.9-1.9,1.4-4.1,1.4-6.7v-0.1c0-2.3-0.4-4.4-1.2-6.2
	c-0.8-1.9-1.9-3.5-3.5-4.8c-1.5-1.3-3.3-2.4-5.4-3.1c-2.1-0.7-4.5-1.1-7.2-1.1h-17.9V426.1z M320.5,404.4h-9.3v-16.4h9.3
	c3,0,5.4,0.6,7.2,2c1.8,1.4,2.7,3.4,2.7,6.1v0.1c0,2.4-0.9,4.4-2.6,5.9C325.9,403.5,323.5,404.3,320.5,404.4L320.5,404.4z
	 M349.2,380.7v45.4h7.9V407h21.8v19.1h7.9v-45.4h-7.9v18.9h-21.8v-18.9H349.2L349.2,380.7z M422.7,426.9c3.5,0,6.7-0.6,9.6-1.8
	c2.9-1.3,5.4-2.9,7.5-5.1c2.1-2.2,3.7-4.6,4.9-7.5c1.2-2.8,1.7-5.9,1.7-9.1v-0.1c0-3.2-0.6-6.2-1.7-9.1c-1.2-2.8-2.8-5.3-4.9-7.4
	c-2.1-2.1-4.6-3.8-7.5-5c-2.9-1.2-6.1-1.8-9.6-1.8s-6.7,0.6-9.6,1.9c-2.9,1.3-5.4,2.9-7.5,5.1c-2.1,2.1-3.7,4.6-4.9,7.4
	c-1.2,2.9-1.7,5.9-1.7,9.1v0.1c0,3.2,0.6,6.2,1.7,9.1c1.2,2.9,2.8,5.3,4.9,7.4c2.1,2.1,4.6,3.8,7.5,5
	C416,426.3,419.2,426.9,422.7,426.9 M422.9,419.6c-2.2,0-4.3-0.4-6.2-1.3c-1.9-0.8-3.5-2-4.9-3.5c-1.4-1.5-2.4-3.2-3.2-5.1
	c-0.8-2-1.1-4.1-1.1-6.3v-0.1c0-2.2,0.4-4.3,1.1-6.2c0.7-2,1.8-3.6,3.1-5.1c1.3-1.5,2.9-2.6,4.8-3.5c1.9-0.8,3.9-1.3,6.2-1.3
	c2.3,0,4.3,0.4,6.2,1.3c1.9,0.9,3.5,2,4.9,3.5c1.4,1.5,2.4,3.2,3.2,5.1c0.8,2,1.1,4.1,1.1,6.3v0.1c0,2.2-0.4,4.3-1.1,6.2
	c-0.7,2-1.8,3.6-3.1,5.1c-1.3,1.5-2.9,2.6-4.8,3.5C427.2,419.2,425.1,419.6,422.9,419.6 M458.8,380.7v45.4h33.9v-7.2h-26v-12.1h22.8
	v-7.2h-22.8v-11.7h25.7v-7.2H458.8L458.8,380.7z M504.9,426.1h7.9v-32.3l25,32.3h6.7v-45.4h-7.9v31.4l-24.3-31.4h-7.4V426.1z
	 M559.2,426.1h7.9v-45.4h-7.9V426.1z M578.4,426.1h9.1l12-17.2l11.9,17.2h9.4l-16.5-23.2l15.8-22.2h-9.1L599.8,397l-11.3-16.3h-9.4
	L595,403L578.4,426.1z"/>
<pattern  id="SVGID_2_" xlink:href="#Unnamed_Pattern_14" patternTransform="matrix(4.120170e-002 0 0 -4.120170e-002 534.8436 -588.7806)">
</pattern>
<path class="st5" d="M316.4,330.2l-2.5,3.8c-1.9,2.9-5.2,4.6-8.6,4.6h-56.5l-10.6-46.2l-15.7-69.6l2.4-3.7c1.9-2.9,5.2-4.6,8.6-4.6
	h50h6.6c0,0.1,10.3,46.6,10.3,46.6L316.4,330.2z M393.4,214.5h-56.6c-3.5,0-6.7,1.7-8.6,4.6l-2.4,3.7l26.3,115.8h56.6
	c3.5,0,6.7-1.7,8.6-4.6l2.5-3.8L393.4,214.5z"/>
<pattern  id="SVGID_3_" xlink:href="#Unnamed_Pattern_17" patternTransform="matrix(4.120170e-002 0 0 -4.120170e-002 534.8436 -588.7806)">
</pattern>
<path class="st6" d="M408.5,338.6h-56.4l79.4-119.4c1.9-2.9,5.2-4.6,8.6-4.6h50c2.8,0,4.5,3.1,2.9,5.5l-76,113.9
	C415.2,336.8,411.9,338.6,408.5,338.6 M201.8,338.6c3.5,0,6.7-1.7,8.6-4.6L290,214.5h-56.6c-3.5,0-6.7,1.7-8.6,4.6l-75.9,114
	c-1.6,2.4,0.1,5.5,2.9,5.5H201.8 M305.3,338.6c3.5,0,6.7-1.7,8.6-4.6l79.6-119.4h-56.5c-3.5,0-6.7,1.7-8.6,4.6l-79.6,119.4H305.3"/>
</svg>
