<?xml version="1.0" encoding="UTF-8"?><svg id="Capa_2" xmlns="http://www.w3.org/2000/svg" viewBox="0 0 669.01 226.65"><defs><style>.cls-1{fill-rule:evenodd;}</style></defs><g id="Capa_1-2"><path d="m127.7,217.91c-3.6,0-6.68-.73-9.25-2.18-2.57-1.46-4.54-3.52-5.91-6.18-1.37-2.67-2.06-5.81-2.06-9.45s.69-6.77,2.06-9.42c1.37-2.65,3.34-4.7,5.91-6.16,2.57-1.46,5.65-2.18,9.25-2.18,1.8,0,3.57.23,5.3.69,1.73.46,3.25,1.11,4.56,1.96.85.56,1.36,1.22,1.52,1.99.16.77.07,1.47-.29,2.11-.36.64-.9,1.06-1.62,1.28-.72.21-1.52.02-2.4-.56-1.01-.65-2.11-1.13-3.29-1.42-1.18-.29-2.37-.44-3.58-.44-3.5,0-6.17,1.06-8,3.17-1.83,2.11-2.75,5.11-2.75,9s.92,6.9,2.75,9.03c1.83,2.13,4.5,3.19,8,3.19,1.24,0,2.47-.15,3.68-.47,1.21-.31,2.36-.79,3.43-1.45.88-.56,1.67-.74,2.36-.54s1.2.6,1.55,1.2c.34.61.45,1.27.32,1.99-.13.72-.57,1.36-1.32,1.91-1.31.95-2.87,1.68-4.69,2.18-1.82.51-3.66.76-5.52.76Z"/><path d="m154.54,217.91c-2.49,0-4.65-.51-6.48-1.52-1.83-1.01-3.26-2.46-4.27-4.34-1.01-1.88-1.52-4.1-1.52-6.65s.51-4.76,1.52-6.62c1.01-1.86,2.44-3.3,4.27-4.32,1.83-1.01,3.99-1.52,6.48-1.52s4.64.51,6.48,1.52c1.83,1.01,3.25,2.45,4.27,4.32,1.01,1.86,1.52,4.07,1.52,6.62s-.51,4.77-1.52,6.65c-1.01,1.88-2.44,3.33-4.27,4.34-1.83,1.01-3.99,1.52-6.48,1.52Zm0-4.66c1.83,0,3.3-.66,4.42-1.99,1.11-1.32,1.67-3.28,1.67-5.86s-.56-4.57-1.67-5.86c-1.11-1.29-2.58-1.94-4.42-1.94s-3.3.65-4.42,1.94c-1.11,1.29-1.67,3.25-1.67,5.86s.56,4.54,1.67,5.86c1.11,1.33,2.58,1.99,4.42,1.99Z"/><path d="m174.22,217.81c-2.09,0-3.14-1.05-3.14-3.14v-18.55c0-2.06,1-3.09,2.99-3.09s2.99,1.03,2.99,3.09v1.52c1.18-2.81,3.7-4.38,7.56-4.71,1.41-.16,2.19.64,2.36,2.4.16,1.73-.69,2.7-2.55,2.9l-1.08.1c-4.02.39-6.04,2.45-6.04,6.18v10.16c0,2.09-1.03,3.14-3.09,3.14Z"/><path d="m192.67,217.81c-2.09,0-3.14-1.05-3.14-3.14v-18.55c0-2.06,1-3.09,2.99-3.09s2.99,1.03,2.99,3.09v1.52c1.18-2.81,3.7-4.38,7.56-4.71,1.41-.16,2.19.64,2.36,2.4.16,1.73-.69,2.7-2.55,2.9l-1.08.1c-4.02.39-6.04,2.45-6.04,6.18v10.16c0,2.09-1.03,3.14-3.09,3.14Z"/><path d="m219.8,217.91c-2.72,0-5.05-.51-7.02-1.52-1.96-1.01-3.48-2.45-4.54-4.32-1.06-1.86-1.59-4.07-1.59-6.62s.52-4.66,1.55-6.53c1.03-1.86,2.45-3.33,4.27-4.39,1.82-1.06,3.88-1.59,6.21-1.59,3.4,0,6.09,1.08,8.07,3.24,1.98,2.16,2.97,5.1,2.97,8.83,0,1.21-.79,1.82-2.36,1.82h-14.82c.46,4.29,2.91,6.43,7.36,6.43.85,0,1.81-.11,2.87-.32,1.06-.21,2.07-.58,3.02-1.1.85-.49,1.57-.65,2.16-.47.59.18,1.01.53,1.25,1.06.25.52.28,1.1.1,1.74-.18.64-.65,1.19-1.4,1.64-1.15.72-2.46,1.25-3.95,1.59-1.49.34-2.87.52-4.15.52Zm-.88-20.81c-1.8,0-3.26.56-4.37,1.67-1.11,1.11-1.78,2.62-2.01,4.51h12.07c-.13-1.99-.68-3.52-1.64-4.59-.97-1.06-2.31-1.59-4.05-1.59Z"/><path d="m244.73,217.91c-2.49,0-4.65-.51-6.48-1.52-1.83-1.01-3.26-2.46-4.27-4.34-1.01-1.88-1.52-4.1-1.52-6.65s.51-4.76,1.52-6.62c1.01-1.86,2.44-3.3,4.27-4.32,1.83-1.01,3.99-1.52,6.48-1.52s4.64.51,6.48,1.52c1.83,1.01,3.25,2.45,4.27,4.32,1.01,1.86,1.52,4.07,1.52,6.62s-.51,4.77-1.52,6.65c-1.01,1.88-2.44,3.33-4.27,4.34-1.83,1.01-3.99,1.52-6.48,1.52Zm0-4.66c1.83,0,3.3-.66,4.42-1.99,1.11-1.32,1.67-3.28,1.67-5.86s-.56-4.57-1.67-5.86c-1.11-1.29-2.58-1.94-4.42-1.94s-3.3.65-4.42,1.94c-1.11,1.29-1.67,3.25-1.67,5.86s.56,4.54,1.67,5.86c1.11,1.33,2.58,1.99,4.42,1.99Z"/><path d="m279.86,226.65c-1.11,0-1.88-.41-2.31-1.23-.43-.82-.41-1.75.05-2.8l2.8-6.18-8.39-19.33c-.46-1.08-.46-2.03,0-2.85.46-.82,1.36-1.23,2.7-1.23.75,0,1.36.17,1.82.52.46.34.87.99,1.23,1.94l5.89,14.72,6.04-14.77c.36-.92.79-1.55,1.28-1.89.49-.34,1.14-.52,1.96-.52,1.05,0,1.78.41,2.21,1.23.42.82.41,1.75-.05,2.8l-11.92,27.23c-.43.92-.88,1.54-1.37,1.86-.49.33-1.13.49-1.91.49Z"/><path d="m314.45,217.81c-2.03,0-3.04-1.05-3.04-3.14v-18.55c0-2.06,1-3.09,2.99-3.09s2.99,1.03,2.99,3.09v.98c.72-1.31,1.72-2.33,2.99-3.07,1.28-.74,2.75-1.1,4.42-1.1,3.6,0,5.95,1.57,7.07,4.71.75-1.47,1.83-2.63,3.24-3.46,1.41-.83,3.01-1.25,4.81-1.25,5.4,0,8.1,3.29,8.1,9.86v11.87c0,2.09-1.03,3.14-3.09,3.14s-3.04-1.05-3.04-3.14v-11.63c0-1.83-.3-3.17-.91-4.02-.61-.85-1.63-1.28-3.07-1.28-1.6,0-2.86.56-3.78,1.69-.92,1.13-1.37,2.69-1.37,4.69v10.55c0,2.09-1.01,3.14-3.04,3.14s-3.09-1.05-3.09-3.14v-11.63c0-1.83-.3-3.17-.91-4.02-.61-.85-1.61-1.28-3.02-1.28-1.6,0-2.86.56-3.78,1.69-.92,1.13-1.37,2.69-1.37,4.69v10.55c0,2.09-1.03,3.14-3.09,3.14Z"/><path d="m362.25,217.91c-5.89,0-8.83-3.3-8.83-9.91v-11.87c0-2.06,1.01-3.09,3.04-3.09s3.09,1.03,3.09,3.09v11.97c0,1.7.34,2.96,1.03,3.78.69.82,1.78,1.23,3.29,1.23,1.64,0,2.98-.56,4.02-1.69,1.05-1.13,1.57-2.63,1.57-4.49v-10.8c0-2.06,1.01-3.09,3.04-3.09s3.09,1.03,3.09,3.09v18.55c0,2.09-1,3.14-2.99,3.14s-2.99-1.05-2.99-3.14v-.83c-1.6,2.72-4.06,4.07-7.36,4.07Z"/><path d="m392.28,217.91c-2.52,0-4.71-.52-6.58-1.55-1.86-1.03-3.3-2.49-4.32-4.39-1.01-1.9-1.52-4.12-1.52-6.67s.51-4.75,1.52-6.6c1.01-1.85,2.45-3.27,4.32-4.27,1.86-1,4.06-1.5,6.58-1.5,1.08,0,2.25.15,3.51.44,1.26.29,2.45.79,3.56,1.47.65.39,1.04.9,1.15,1.52.11.62.03,1.19-.25,1.72-.28.52-.69.9-1.23,1.13-.54.23-1.15.15-1.84-.25-1.51-.85-2.96-1.28-4.37-1.28-2.13,0-3.77.66-4.93,1.99-1.16,1.33-1.74,3.21-1.74,5.67s.58,4.33,1.74,5.72c1.16,1.39,2.8,2.09,4.93,2.09,1.41,0,2.86-.41,4.37-1.23.69-.39,1.29-.47,1.82-.25.52.23.9.61,1.13,1.15.23.54.28,1.11.15,1.72-.13.61-.51,1.1-1.13,1.5-1.08.65-2.23,1.13-3.43,1.42-1.21.29-2.36.44-3.43.44Z"/><path d="m406.61,217.81c-2.03,0-3.04-1.05-3.04-3.14v-29.15c0-2.06,1.01-3.09,3.04-3.09s3.09,1.03,3.09,3.09v11.38c.82-1.31,1.91-2.3,3.29-2.97,1.37-.67,2.9-1.01,4.56-1.01,5.66,0,8.49,3.29,8.49,9.86v11.87c0,2.09-1.01,3.14-3.04,3.14s-3.09-1.05-3.09-3.14v-11.58c0-1.86-.35-3.22-1.05-4.07-.7-.85-1.79-1.28-3.26-1.28-1.8,0-3.23.56-4.29,1.69-1.06,1.13-1.59,2.63-1.59,4.49v10.75c0,2.09-1.03,3.14-3.09,3.14Z"/><path d="m442.43,217.91c-2.49,0-4.65-.51-6.48-1.52-1.83-1.01-3.26-2.46-4.27-4.34-1.01-1.88-1.52-4.1-1.52-6.65s.51-4.76,1.52-6.62c1.01-1.86,2.44-3.3,4.27-4.32,1.83-1.01,3.99-1.52,6.48-1.52s4.64.51,6.48,1.52c1.83,1.01,3.25,2.45,4.27,4.32,1.01,1.86,1.52,4.07,1.52,6.62s-.51,4.77-1.52,6.65c-1.01,1.88-2.44,3.33-4.27,4.34-1.83,1.01-3.99,1.52-6.48,1.52Zm0-4.66c1.83,0,3.3-.66,4.42-1.99,1.11-1.32,1.67-3.28,1.67-5.86s-.56-4.57-1.67-5.86c-1.11-1.29-2.58-1.94-4.42-1.94s-3.3.65-4.42,1.94c-1.11,1.29-1.67,3.25-1.67,5.86s.56,4.54,1.67,5.86c1.11,1.33,2.58,1.99,4.42,1.99Z"/><path d="m474.62,217.81c-2.03,0-3.04-1.05-3.04-3.14v-18.55c0-2.06,1-3.09,2.99-3.09s2.99,1.03,2.99,3.09v.98c.72-1.31,1.72-2.33,2.99-3.07,1.28-.74,2.75-1.1,4.42-1.1,3.6,0,5.95,1.57,7.07,4.71.75-1.47,1.83-2.63,3.24-3.46,1.41-.83,3.01-1.25,4.81-1.25,5.4,0,8.1,3.29,8.1,9.86v11.87c0,2.09-1.03,3.14-3.09,3.14s-3.04-1.05-3.04-3.14v-11.63c0-1.83-.3-3.17-.91-4.02-.61-.85-1.63-1.28-3.07-1.28-1.6,0-2.86.56-3.78,1.69-.92,1.13-1.37,2.69-1.37,4.69v10.55c0,2.09-1.01,3.14-3.04,3.14s-3.09-1.05-3.09-3.14v-11.63c0-1.83-.3-3.17-.91-4.02-.61-.85-1.61-1.28-3.02-1.28-1.6,0-2.86.56-3.78,1.69-.92,1.13-1.37,2.69-1.37,4.69v10.55c0,2.09-1.03,3.14-3.09,3.14Z"/><path d="m521.62,217.91c-1.73,0-3.28-.34-4.64-1.01-1.36-.67-2.42-1.58-3.19-2.72-.77-1.14-1.15-2.44-1.15-3.88,0-1.77.46-3.17,1.37-4.2.92-1.03,2.4-1.77,4.47-2.23,2.06-.46,4.82-.69,8.29-.69h1.72v-1.03c0-1.64-.36-2.81-1.08-3.53-.72-.72-1.93-1.08-3.63-1.08-.95,0-1.97.12-3.07.34-1.1.23-2.25.62-3.46,1.18-.78.36-1.44.4-1.96.12-.52-.28-.88-.72-1.06-1.32-.18-.61-.15-1.22.1-1.84.25-.62.74-1.08,1.5-1.37,1.5-.62,2.95-1.06,4.34-1.32,1.39-.26,2.66-.39,3.8-.39,3.5,0,6.1.81,7.8,2.43,1.7,1.62,2.55,4.13,2.55,7.53v11.78c0,2.09-.95,3.14-2.85,3.14s-2.9-1.05-2.9-3.14v-1.08c-.56,1.34-1.44,2.4-2.65,3.16-1.21.77-2.65,1.15-4.32,1.15Zm1.28-4.22c1.6,0,2.94-.56,4-1.67,1.06-1.11,1.59-2.52,1.59-4.22v-1.08h-1.67c-3.08,0-5.21.24-6.4.71-1.19.47-1.79,1.33-1.79,2.58,0,1.08.38,1.96,1.13,2.65.75.69,1.8,1.03,3.14,1.03Zm3.63-23.75c-.33.46-.72.72-1.18.79-.46.07-.9-.02-1.33-.25-.43-.23-.73-.56-.91-.98-.18-.42-.14-.9.12-1.42l3.73-7.31c.36-.75.87-1.19,1.52-1.3.65-.11,1.28,0,1.89.32.6.33,1.02.79,1.25,1.4.23.61.11,1.24-.34,1.89l-4.76,6.87Z"/><path d="m548.56,217.91c-1.41,0-2.9-.15-4.47-.44-1.57-.29-2.98-.8-4.22-1.52-.69-.39-1.11-.87-1.28-1.45-.16-.57-.14-1.11.07-1.62.21-.51.57-.87,1.08-1.1.51-.23,1.1-.18,1.79.15,1.31.62,2.53,1.06,3.68,1.3,1.14.25,2.27.37,3.39.37,1.57,0,2.74-.27,3.51-.81.77-.54,1.15-1.25,1.15-2.13,0-1.37-1.01-2.26-3.04-2.65l-4.91-.93c-4.15-.78-6.23-2.94-6.23-6.48,0-1.57.43-2.93,1.3-4.07.87-1.14,2.07-2.03,3.61-2.65,1.54-.62,3.3-.93,5.3-.93,2.88,0,5.45.64,7.7,1.91.62.33.99.78,1.1,1.35.11.57.05,1.11-.2,1.62-.25.51-.63.87-1.15,1.08-.52.21-1.13.16-1.82-.17-1.01-.52-1.99-.9-2.92-1.13-.93-.23-1.82-.34-2.67-.34-1.6,0-2.79.28-3.56.83-.77.56-1.15,1.29-1.15,2.21,0,1.44.93,2.32,2.8,2.65l4.91.93c2.13.39,3.74,1.11,4.83,2.16,1.1,1.05,1.64,2.45,1.64,4.22,0,2.39-.93,4.26-2.8,5.62-1.86,1.36-4.35,2.04-7.46,2.04Z"/><path d="m346.38,75.2l-30.88-1.38c-.93-4.99-4.82-8.95-9.79-9.97l-1.38-30.61h-1.29l-1.37,30.44c-5.5.64-9.91,4.82-10.89,10.2l-29.79,1.34v1.29l29.7,1.33c.77,5.65,5.3,10.11,11,10.76l1.34,29.88h1.29l1.35-30.05c5.16-1.06,9.17-5.27,9.9-10.54l30.79-1.38v-1.29ZM228.69,0h-4.94c-1.62,0-3.15.77-4.12,2.07l-12.56,16.96-42.55,57.72c-6.19,8.51-9.34,13.14-10.51,15.48-1.15,2.39-1.73,5.43-1.73,9.03,0,6.38,2.28,10.96,6.99,14,1.97,1.29,3.82,2.07,5.66,2.37,2.03.34,5.77.52,11.12.52h44.65v10.83c0,12.52,10.58,22.71,23.58,22.71h2.7c1.84,0,3.33-1.48,3.33-3.32V20.81C250.29,9.34,240.6,0,228.69,0Zm-8,88.33c0,1.22-.99,2.21-2.21,2.21h-24.98c-1.79,0-2.84-2-1.82-3.47l24.98-36.04c1.24-1.78,4.04-.91,4.04,1.26v36.04Zm197.16-60.12c.53-1.69.8-3.82.8-6.41,0-7.3-2.68-12.99-8.11-16.9-2.77-1.96-5.8-3.3-9-3.91-3.3-.63-8.83-.98-16.5-.98l-62.24.23c-1.75,0-3.13,1.47-3.05,3.21.12,2.67.57,6.67,2.04,10.62,2.9,7.75,11.46,16.18,25.27,16.18h32.27c2.63,0,4.34,2.75,3.17,5.1l-42.53,85.66c-6.7,13.49,2.35,29.2,16.9,30.66,1.3.13,2.55-.55,3.11-1.73l53.05-110.97c2.67-5.52,4.19-8.99,4.81-10.77Zm73.02,94.3h-31.57c-2.6,0-3.94-3.1-2.17-4.99l33.4-35.56c6.13-6.56,10.42-12.41,12.69-17.48,2.36-5.07,3.59-11.01,3.59-17.92,0-11.83-3.8-21.89-11.31-30.41C487.17,6.71,475.6.89,463.01.09c-1.29-.08-2.56-.1-3.83-.08v.02l-33.42.13c-1.84,0-3.34,1.51-3.32,3.35.17,16.06,12.88,26.86,26.49,26.86l11.11.02c4.03,0,7.62,1.32,10.77,4.03,3.68,3.22,5.52,7.07,5.52,11.44,0,3.06-.79,6.03-2.37,8.74-1.58,2.71-4.64,6.55-9.37,11.53l-40.72,43.87c-5.33,5.69-8.66,9.7-9.97,11.98-1.32,2.26-1.93,5.24-1.93,8.82,0,6.56,2.54,11.97,7.62,16.34,2.19,1.93,4.56,3.15,7.09,3.67,2.54.62,6.91.88,13.04.88h73.7c1.9,0,3.41-1.58,3.32-3.47-.35-7.74-3.57-25.72-25.89-25.72Z"/><path class="cls-1" d="m59.26,88.86l48.86,48.86c1.43,1.43,3.74,1.43,5.17,0l1.97-1.97c8.71-8.71,8.71-22.82,0-31.53l-28.37-28.37,28.37-28.37c8.71-8.71,8.71-22.82,0-31.53l-1.97-1.97c-1.43-1.43-3.74-1.43-5.17,0l-48.86,48.86c-7.19,7.19-7.19,18.84,0,26.03Z"/><path class="cls-1" d="m4.99,87.9l33.79,33.79c1.32,1.32,3.47,1.32,4.79,0l1.83-1.83c8.07-8.07,8.07-21.14,0-29.21l-14.81-14.81,14.81-14.81c8.07-8.07,8.07-21.14,0-29.21l-1.83-1.83c-1.32-1.32-3.47-1.32-4.79,0L4.99,63.79c-6.66,6.66-6.66,17.45,0,24.11Z"/><path class="cls-1" d="m609.75,62.83l-48.86-48.86c-1.43-1.43-3.74-1.43-5.17,0l-1.97,1.97c-8.71,8.71-8.71,22.82,0,31.53l28.37,28.37-28.37,28.37c-8.71,8.71-8.71,22.82,0,31.53l1.97,1.97c1.43,1.43,3.74,1.43,5.17,0l48.86-48.86c7.19-7.19,7.19-18.84,0-26.03Z"/><path class="cls-1" d="m664.02,63.79l-33.79-33.79c-1.32-1.32-3.47-1.32-4.79,0l-1.83,1.83c-8.07,8.07-8.07,21.14,0,29.21l14.81,14.81-14.81,14.81c-8.07,8.07-8.07,21.14,0,29.21l1.83,1.83c1.32,1.32,3.47,1.32,4.79,0l33.79-33.79c6.66-6.66,6.66-17.45,0-24.11Z"/></g></svg>