<?xml version="1.0" encoding="UTF-8"?><svg id="Capa_2" xmlns="http://www.w3.org/2000/svg" viewBox="0 0 526.01 239.43"><defs><style>.cls-1{fill:#575a5f;}.cls-1,.cls-2{fill-rule:evenodd;stroke-width:0px;}.cls-2{fill:#cdd625;}</style></defs><g id="Capa_1-2"><path class="cls-1" d="m50.91,147.84l.51.2.2.2.15.2,11.76,30.85,34.47-31.26.51-.2h23.88l.46.1.31.25.1.2.05.2-.05.46-8.05,22.55-8.04,22.6-.31.36-.25.1-.2.05h-5.35l-2.09-.05-1.83-.2-1.63-.36-.71-.2-.66-.25-1.22-.51-1.02-.61-.81-.71-.66-.76-.51-.81-.41-.81-.25-.87-.15-.87-.05-.87v-.87l.26-1.58.46-1.53,1.07-3.05,2.95-8.4,3-8.35-34.47,31.46-.51.2h-14.92l-.51-.2-.21-.2-.15-.2-12.32-32.63-11.61,32.74-.36.36-.2.1-.2.05h-10.69l-.46-.1-.31-.25-.1-.15-.05-.2.05-.51,8.2-22.55,8.2-22.55.36-.36.2-.15.2-.05h23.98Zm420.98,46.89l-1.37-.1-1.27-.2-1.22-.25-1.17-.31-1.02-.46-.97-.46-.86-.61-.76-.66-.61-.71-.51-.81-.41-.92-.25-.97-.15-1.07.05-1.12.15-1.22.3-1.32,6.21-17.92,6.01-17.21.31-.36.2-.15.25-.05h19.75l.46.1.36.25.1.2.05.2-.1.46-11.86,33.6-.05.41v.61l.15.51.36.36.41.31,1.07.36,1.17.1h38.44l.51.05.3.15.1.41-.1.66-.91,2.65-1.78,4.99-.36.36-.2.1-.2.05h-50.56Zm-71.38-20.16h24.13l-6.21-14.56-17.92,14.56h0Zm54.58,18.99l.1.46-.1.36-.31.25-.46.1h-10.28l-1.58-.05-1.48-.1-1.37-.25-1.22-.25-1.17-.36-1.07-.41-1.83-.97-1.48-1.07-.61-.56-.56-.56-.91-1.07-.61-1.02-3.16-7.38h-33.34l-16.04,13.85-.56.2h-9.93l-.3-.05-.31-.1-.2-.15-.15-.2v-.51l.1-.25.25-.25,25.76-22.6,25.81-22.55.56-.2h16.65l.2.05.25.15.41.41,9.47,22.55,9.47,22.55h0Zm-158.49,1.17l-1.37-.1-1.27-.2-1.22-.25-1.17-.31-1.02-.46-.97-.46-.87-.61-.76-.66-.61-.71-.51-.81-.41-.92-.25-.97-.15-1.07v-1.12l.2-1.22.31-1.32,6.21-17.92,5.96-17.21.36-.36.2-.15.2-.05h19.81l.46.1.36.25.05.2.05.2-.05.46-6.41,18.07-5.45,15.53-.05.41v.61l.15.51.31.36.46.31,1.02.36,1.22.1h37.16l13.39-36.91.36-.36.21-.15.2-.05h10.54l.46.1.36.25.1.2v.2l-.05.46-8.2,22.55-8.2,22.6-.31.36-.25.1-.2.05h-60.33Zm-158.74,0l-1.37-.1-1.27-.2-1.22-.25-1.12-.31-1.07-.46-.97-.46-.86-.61-.71-.66-.66-.71-.51-.81-.41-.92-.25-.97-.1-1.07v-1.12l.15-1.22.3-1.32.41-1.17.3-.66,11.51-33.3.3-.36.25-.15.21-.05h19.75l.51.1.3.25.1.2.05.2-.1.46-6.42,18.07-5.45,15.53-.05.41v.61l.2.51.31.36.41.31,1.07.36,1.17.1h37.16l13.44-36.91.31-.36.25-.15.2-.05h10.49l.51.1.31.25.1.2.05.2-.1.46-8.2,22.55-8.2,22.6-.31.36-.2.1-.25.05h-60.33Zm148.71-46.89l7.99.05h.36l.25.15.15.15.1.25v.61l-.15.71-.51,1.27-.3.61-.36.81-.41.71-.92,1.22-1.07.97-1.12.71-1.17.51-1.12.36-1.02.2-.92.1h-22.81l-13.13,36.96-.31.36-.25.1-.2.05h-5.35l-2.09-.05-1.88-.2-1.63-.36-1.43-.46-1.17-.56-1.02-.61-.82-.71-.66-.76-.51-.81-.36-.87-.25-.87-.15-.87v-1.73l.21-1.58,1.53-4.48,2.95-8.45,4.23-11.71.76-2.39h-21.23l-.25-.15-.15-.2-.1-.2-.05-.61.15-.71.56-1.27.31-.61.36-.81.41-.71.92-1.22,1.07-.97,1.12-.71,1.12-.51,1.12-.36,1.07-.2.87-.15h57.28Z"/><path class="cls-2" d="m132.47,227.11l3.06-8.76-.51-.25-.51-.2-.51-.15-.56-.15-.56-.1-.61-.1-.61-.05h-1.37l-.61.1-.3.05-.36.1-.56.2-.61.25-.56.31-.51.31-.51.41-.46.41-.46.41-.4.46-.36.46-.36.51-.3.51-.25.51-.21.51-.2.56-.1.51-.1.51-.05.46v.51l.05.46.1.41.05.2.1.2.21.41.1.15.15.15.3.31.41.25.41.2.25.1.25.05.25.05.3.05h1.38l.76-.1.76-.1.76-.2.71-.2.71-.2,1.43-.46h0Zm2.55,7.43l-.25.31-.36.36-.46.41-.3.25-.36.25-.36.25-.4.25-.41.2-.41.2-.87.41-.46.2-.46.15-.46.15-.46.15-.97.25-1.02.25-.97.2-1.02.15-.97.15-1.02.1-1.88.15-.87.05h-.81l-.1-3.05,2.5-.2,1.37-.15,1.42-.2.71-.15.71-.1.66-.2.61-.2.61-.25.31-.1.25-.15.25-.15.25-.15.25-.15.2-.15.31-.31.31-.41.25-.41.25-.41.2-.46.2-.46.36-.92-.81.2-.82.25-.87.15-.81.15-.87.1-.41.05-.46.05-.87.05h-1.58l-.61-.05-.61-.05-.56-.1-.56-.15-.51-.1-.46-.2-.25-.05-.21-.1-.4-.2-.21-.1-.2-.15-.36-.2-.31-.25-.31-.31-.25-.31-.25-.31-.26-.31-.15-.31-.21-.36-.15-.36-.1-.36-.1-.36-.1-.36-.05-.36-.05-.41v-.76l.1-.76.1-.76.1-.36.15-.36.25-.71.15-.36.2-.36.21-.41.25-.36.51-.76.3-.36.31-.36.66-.71.36-.36.4-.36.41-.36.41-.31.41-.36.46-.31.46-.31.51-.25.51-.25.51-.25.51-.25.56-.2.56-.2.56-.15.56-.15.61-.1.61-.1.61-.05.66-.05.61-.05,1.53.05.71.05.76.1,1.48.2.76.15.71.2.76.2.71.25.71.25.36.15.36.15.66.31.71.41.61.36.66.46-4.28,12.27-.41,1.12-.25.61-.26.56-.3.61-.36.61-.41.66-.51.71h0Z"/><path class="cls-2" d="m43.78,220.34l.1-.31v-.31l.05-.31-.05-.31-.05-.25-.05-.25-.1-.25-.15-.2-.2-.2-.2-.2-.25-.15-.25-.1-.31-.1-.36-.1-.41-.05h-.87l-.46.05-.46.1-.41.1-.4.1-.36.15-.36.2-.36.2-.36.2-.31.25-.3.25-.25.25-.51.61-.46.61h8.09Zm3.05,9.37l-1.43.51-1.27.41-.61.15-.66.15-.61.15-.66.1-1.43.2-.76.1-.71.05-.76.05h-2.29l-.71-.05-.76-.1-.66-.1-.71-.2-.61-.15-.31-.1-.3-.15-.56-.25-.51-.31-.4-.31-.41-.36-.15-.2-.15-.15-.3-.41-.15-.2-.15-.2-.2-.41-.1-.2-.1-.25-.15-.46-.05-.2-.05-.25-.05-.25-.05-.2-.05-.51v-.51l.05-.51.1-.51.15-.51.15-.56.15-.41.15-.36.41-.81.46-.76.51-.81.25-.36.3-.36.31-.41.36-.36.71-.66.36-.36.41-.31.86-.61.46-.31.46-.25.51-.25.51-.25.51-.2.56-.2.56-.15.31-.1.3-.05.61-.15.61-.1.61-.1.66-.05.71-.05h1.32l.61.05,1.12.1.56.05.46.1.51.1.41.15.81.31.36.2.36.2.3.25.25.2.25.25.2.31.21.31.2.31.15.31.1.36.1.41.05.36.05.41.05.41-.05.92-.05.46-.1.51-.2,1.07-.15.56-.21.56h-14.41l-.2.56-.1.56-.05.25-.05.31.05.46.05.46.15.46.1.15.1.2.1.2.15.15.15.15.15.15.21.15.15.1.21.15.2.1.51.2.51.1.56.1.25.05.3.05h1.17l.51-.05.97-.1.97-.15.92-.2,1.88-.46,1.88-.51,1.07,2.55-.36.15h0Z"/><path class="cls-2" d="m15.68,227.32l3.21-9.16-.51-.2-.51-.2-.56-.2-.51-.15-.61-.1-.25-.05h-.3l-.66-.05h-1.33l-.66.1-.66.15-.61.2-.56.25-.3.15-.26.15-.56.36-.51.41-.21.2-.25.2-.46.41-.41.51-.36.46-.36.51-.31.51-.26.56-.2.51-.2.56-.15.51-.05.25-.05.25-.05.51v.51l.05.46.05.2.05.25.15.41.2.36.15.2.1.15.31.31.4.25.21.1.2.1.25.1.25.05.25.05.31.05h.3l.31.05.76-.05.76-.1.81-.1.76-.15.76-.2.71-.2,1.32-.41h0Zm-7.89,4.28h-.66l-.66-.05-.31-.05-.3-.05-.56-.1-.51-.1-.51-.15-.46-.15-.46-.2-.41-.2-.36-.2-.36-.25-.36-.31-.25-.25-.3-.31-.21-.31-.25-.31-.15-.36-.2-.36-.1-.31-.15-.36-.1-.41-.05-.36-.1-.76v-.76l.1-.76.05-.36.1-.41.2-.71.31-.76.41-.76.2-.36.25-.41.56-.76.25-.36.36-.36.66-.76.41-.31.4-.36.41-.36.41-.31.46-.31.46-.31.46-.31.51-.25.51-.25.56-.25.51-.2.56-.2.56-.2.61-.15.61-.15.61-.1.61-.1.66-.05.66-.05h1.48l.76.05.41.05h.36l.76.1.71.15.71.15.71.15.36.1.31.05,3-8.6,6.26-1.27-8.3,23.78-1.58.66-1.58.56-.81.25-.82.25-.81.2-.82.25-.82.15-.81.15-.86.15-.82.1-.87.1-.86.05-.87.05-.86.05v-.05h0Z"/><polygon class="cls-2" points="87.87 226.35 87.72 226.71 87.52 227.06 87.31 227.37 87.11 227.72 86.85 227.98 86.6 228.28 86.3 228.59 85.99 228.84 85.33 229.3 84.61 229.76 83.85 230.17 83.44 230.32 82.99 230.52 82.58 230.68 82.17 230.83 81.25 231.08 80.34 231.29 79.42 231.44 78.5 231.59 77.59 231.69 76.72 231.75 75.86 231.75 75.25 231.75 74.69 231.75 73.62 231.64 73.06 231.54 72.55 231.44 72.04 231.34 71.53 231.19 71.02 231.03 70.51 230.83 70.05 230.68 69.54 230.42 68.53 229.96 67.51 229.4 70.87 226.81 71.53 227.16 71.88 227.37 72.24 227.52 72.96 227.78 73.67 228.03 74.03 228.13 74.38 228.18 75.15 228.33 75.91 228.39 76.67 228.39 77.59 228.39 78.5 228.28 78.96 228.18 79.37 228.08 79.78 227.98 80.19 227.88 80.85 227.57 81.15 227.37 81.41 227.21 81.61 227.01 81.81 226.81 81.97 226.55 82.07 226.35 82.07 226.15 82.07 225.99 81.97 225.84 81.87 225.69 81.71 225.59 81.56 225.43 81.1 225.23 80.64 225.08 80.19 224.97 79.47 224.77 78.5 224.52 77.49 224.16 76.52 223.96 75.45 223.6 74.94 223.45 74.38 223.24 73.87 222.99 73.67 222.89 73.41 222.73 72.96 222.43 72.75 222.28 72.6 222.07 72.39 221.92 72.24 221.72 72.14 221.51 72.04 221.31 71.94 221.05 71.88 220.85 71.84 220.6 71.78 220.34 71.84 220.04 71.84 219.73 71.94 219.43 72.04 219.12 72.14 218.81 72.29 218.51 72.45 218.2 72.65 217.9 72.85 217.59 73.11 217.34 73.36 217.08 73.62 216.83 73.87 216.57 74.18 216.37 74.48 216.17 74.84 215.96 75.19 215.76 75.5 215.56 75.91 215.4 76.26 215.2 77.03 214.89 77.84 214.64 78.66 214.44 79.52 214.23 80.34 214.08 81.2 213.98 82.02 213.93 82.83 213.93 83.39 213.93 83.9 213.98 84.92 214.03 85.17 214.08 85.43 214.13 85.89 214.18 86.34 214.28 86.8 214.44 87.77 214.69 88.69 215 89.65 215.35 90.62 215.76 87.31 218.46 86.65 218.2 85.99 218 85.38 217.75 84.77 217.59 84.16 217.44 83.49 217.34 82.83 217.29 82.17 217.29 81.36 217.29 81 217.34 80.59 217.39 80.24 217.49 79.88 217.54 79.57 217.64 79.27 217.8 78.96 217.9 78.71 218.05 78.46 218.2 78.2 218.36 78.05 218.51 77.89 218.71 77.74 218.87 77.69 219.07 77.64 219.27 77.64 219.37 77.69 219.48 77.84 219.63 77.99 219.73 78.25 219.83 78.56 219.99 79.42 220.24 80.39 220.55 82.42 221.05 83.44 221.36 84.46 221.67 84.97 221.87 85.43 222.07 85.94 222.28 86.4 222.53 86.85 222.84 87.26 223.19 87.41 223.4 87.62 223.6 87.72 223.8 87.87 224.06 87.97 224.31 88.03 224.57 88.08 224.82 88.08 225.13 88.08 225.38 88.03 225.69 87.97 226.04 87.87 226.35 87.87 226.35"/><path class="cls-2" d="m107.83,220.34l.1-.31v-.31l.05-.31-.05-.31-.05-.25-.05-.25-.1-.25-.15-.2-.21-.2-.2-.2-.25-.15-.25-.1-.31-.1-.36-.1-.41-.05h-.87l-.46.05-.46.1-.4.1-.41.1-.36.15-.36.2-.36.2-.36.2-.3.25-.26.25-.3.25-.51.61-.46.61h8.1Zm3.05,9.37l-1.43.51-1.27.41-.61.15-.66.15-.61.15-.66.1-1.43.2-.76.1-.71.05-.76.05h-2.29l-.71-.05-.76-.1-.66-.1-.71-.2-.61-.15-.3-.1-.31-.15-.56-.25-.51-.31-.4-.31-.41-.36-.15-.2-.15-.15-.3-.41-.15-.2-.15-.2-.2-.41-.1-.2-.1-.25-.15-.46-.05-.2-.05-.25-.05-.25-.05-.2-.05-.51v-.51l.05-.51.1-.51.15-.51.15-.56.15-.41.15-.36.4-.81.46-.76.51-.81.25-.36.3-.36.31-.41.36-.36.71-.66.36-.36.4-.31.87-.61.46-.31.46-.25.51-.25.51-.25.51-.2.56-.2.56-.15.3-.1.31-.05.61-.15.61-.1.61-.1.66-.05.71-.05h1.33l.61.05,1.12.1.56.05.46.1.51.1.41.15.82.31.36.2.36.2.31.25.25.2.25.25.21.31.2.31.21.31.15.31.1.36.1.41.05.36.05.41.05.41-.05.92-.05.46-.1.51-.2,1.07-.15.56-.2.56h-14.41l-.2.56-.1.56-.05.25v.76l.05.46.15.46.1.15.1.2.1.2.15.15.15.15.15.15.2.15.15.1.2.15.2.1.51.2.51.1.56.1.25.05.31.05h1.17l.51-.05.97-.1.97-.15.92-.2,1.88-.46,1.88-.51,1.07,2.55-.36.15h0Z"/><polygon class="cls-2" points="164.19 228.84 162.61 229.45 161.85 229.76 161.03 230.02 160.22 230.27 159.4 230.47 158.59 230.68 157.72 230.88 156.91 231.03 156.09 231.19 155.23 231.34 154.36 231.44 153.5 231.49 152.63 231.59 151.71 231.59 150.8 231.64 149.83 231.59 149.32 231.54 148.86 231.49 148.05 231.39 147.34 231.24 146.67 230.98 146.06 230.73 145.81 230.57 145.56 230.42 145.35 230.27 145.15 230.12 144.95 229.91 144.79 229.71 144.64 229.51 144.48 229.3 144.23 228.9 144.08 228.39 143.98 227.93 143.93 227.67 143.87 227.42 143.87 226.86 143.87 226.6 143.87 226.3 147.59 215.66 147.79 215.1 154.26 213.77 150.14 225.69 150.03 225.99 149.98 226.25 149.98 226.55 150.03 226.81 150.14 227.06 150.19 227.16 150.29 227.27 150.44 227.47 150.7 227.67 150.95 227.88 151.26 228.03 151.61 228.13 152.02 228.23 152.48 228.33 152.93 228.39 153.5 228.44 154.11 228.44 154.72 228.44 155.38 228.33 155.99 228.23 156.6 228.13 157.21 227.98 157.82 227.83 158.89 227.47 163.47 214.33 169.38 214.33 164.34 228.79 164.19 228.84 164.19 228.84"/><path class="cls-2" d="m187.3,217.75c-2.97-.28-5.07-.16-7.89.87l-4.43,12.73h-5.85l4.83-13.95c5.6-2.96,11.05-3.7,17.06-3.05-1.24,1.14-2.49,2.26-3.72,3.41h0Z"/><path class="cls-2" d="m194.73,231.34h-5.9l5.65-16.39,6.42-1.27-6.16,17.67h0Zm4.23-24.03c1.9-.29,4.39.17,4.07,2.29-.27,1.77-2.45,2.7-4.17,2.7-1.1,0-3.41-.25-3.41-1.83,0-1.84,1.95-2.92,3.51-3.16h0Z"/><path class="cls-2" d="m244.73,228.03l1.83-5.35-5.09-.05h-.66l-.61.05-.61.1-.56.1-.25.1-.25.05-.46.2-.46.2-.36.2-.36.2-.36.25-.25.31-.25.25-.2.31-.15.31-.1.31-.1.31-.05.31v.31l.05.31.1.25.1.31.15.25.2.25.25.25.25.2.31.2.36.2.41.15.46.1.46.1.51.05.56.05.66-.05.61-.05.66-.1.71-.1.66-.2.66-.2.61-.2.56-.25h0Zm4.68.71l-.61.31-.61.25-.61.31-.71.25-.66.25-.71.25-1.53.41-.76.2-.82.15-.81.15-.41.05-.41.05-.87.1-.86.1h-.87l-.91.05-.51-.05-.56-.05-.66-.1-.66-.1-.66-.2-.71-.2-.3-.15-.36-.1-.61-.36-.61-.36-.25-.2-.25-.2-.2-.25-.25-.25-.15-.25-.15-.25-.15-.31-.1-.36-.05-.31-.05-.36.05-.36v-.41l.1-.41.15-.41.1-.31.15-.31.2-.31.15-.31.25-.31.2-.25.25-.25.25-.25.56-.51.61-.46.31-.2.36-.2.71-.36.76-.31.41-.15.41-.15.81-.25.82-.2.87-.15.46-.05.46-.05.92-.05.86-.05h5.55l.31-.87.05-.2.05-.15-.05-.2-.05-.15-.1-.2-.1-.15-.15-.15-.2-.15-.2-.15-.25-.15-.25-.1-.31-.1-.36-.05-.36-.05-.41-.05h-1.43l-.46.05-.46.05-.87.1-.92.15-.87.2-.86.2-1.78.51-.92-2.85,1.33-.41,1.22-.31.61-.15.56-.15,1.17-.25,1.17-.15,1.17-.15.66-.05h.66l.66-.05h1.47l.71.1.76.1.71.15.36.05.36.1.61.25.61.25.56.36.25.15.25.2.25.15.2.2.15.25.15.2.15.25.1.25.1.25.1.25.05.31v.61l-.05.31-.1.31-.1.36-3.16,9.16-.1.1h0Z"/><path class="cls-2" d="m218.61,227.32l3.21-9.16-.51-.2-.51-.2-.56-.2-.51-.15-.56-.1-.3-.05h-.31l-.66-.05h-1.32l-.66.1-.61.15-.61.2-.61.25-.31.15-.25.15-.51.36-.51.41-.25.2-.25.2-.41.41-.46.51-.36.46-.36.51-.31.51-.25.56-.2.51-.21.56-.15.51-.05.25v.25l-.05.51v.97l.05.2.05.25.15.41.21.36.15.2.1.15.36.31.36.25.2.1.21.1.25.1.25.05.25.05.3.05h.31l.3.05.77-.05.76-.1.81-.1.76-.15.76-.2.71-.2,1.33-.41h0Zm-7.89,4.28h-.66l-.66-.05-.31-.05-.25-.05-.61-.1-.51-.1-.51-.15-.46-.15-.46-.2-.41-.2-.36-.2-.36-.25-.31-.31-.3-.25-.31-.31-.2-.31-.25-.31-.15-.36-.2-.36-.1-.31-.15-.36-.05-.41-.1-.36-.1-.76.05-.76.05-.76.05-.36.1-.41.2-.71.31-.76.4-.76.21-.36.25-.41.56-.76.31-.36.31-.36.71-.76.36-.31.41-.36.41-.36.4-.31.46-.31.46-.31.51-.31.46-.25.51-.25.56-.25.51-.2.56-.2.61-.2.56-.15.61-.15.61-.1.61-.1.66-.05.66-.05h1.48l.76.05.41.05h.4l.71.1.76.15.66.15.71.15.36.1.31.05,3-8.6,6.26-1.27-8.3,23.78-1.58.66-1.58.56-.82.25-.81.25-.82.2-.81.25-.82.15-.81.15-.87.15-.81.1-.87.1-.87.05-.87.05-.86.05v-.05h0Z"/><path class="cls-2" d="m271.71,227.32l3.2-9.16-.51-.2-.51-.2-.56-.2-.51-.15-.56-.1-.3-.05h-.31l-.66-.05h-1.32l-.66.1-.66.15-.61.2-.56.25-.3.15-.25.15-.56.36-.51.41-.2.2-.25.2-.46.41-.4.51-.36.46-.36.51-.3.51-.25.56-.21.51-.2.56-.15.51-.05.25-.05.25-.05.51v.51l.05.46.05.2.05.25.15.41.2.36.15.2.1.15.31.31.41.25.2.1.21.1.25.1.25.05.25.05.31.05h.31l.3.05.76-.05.76-.1.82-.1.76-.15.76-.2.71-.2,1.33-.41h0Zm-7.89,4.28h-.66l-.66-.05-.3-.05-.31-.05-.56-.1-.51-.1-.51-.15-.46-.15-.46-.2-.41-.2-.36-.2-.36-.25-.36-.31-.25-.25-.31-.31-.2-.31-.25-.31-.15-.36-.21-.36-.1-.31-.15-.36-.1-.41-.05-.36-.1-.76v-.76l.1-.76.05-.36.1-.41.21-.71.3-.76.41-.76.21-.36.25-.41.56-.76.31-.36.3-.36.71-.76.36-.31.41-.36.4-.36.41-.31.46-.31.46-.31.46-.31.51-.25.51-.25.56-.25.51-.2.56-.2.56-.2.61-.15.61-.15.61-.1.61-.1.66-.05.66-.05h1.48l.76.05.4.05h.36l.76.1.71.15.71.15.71.15.36.1.3.05,3.01-8.6,6.26-1.27-8.3,23.78-1.58.66-1.58.56-.82.25-.82.25-.81.2-.82.25-.81.15-.82.15-.86.15-.81.1-.87.1-.87.05-.86.05-.87.05v-.05h0Z"/><polygon class="cls-2" points="327.25 92.91 336.01 68.27 344.92 43.73 353.83 19.24 355.66 19.04 357.49 18.94 359.28 18.94 361.11 18.94 361.98 18.99 362.84 19.09 363.76 19.19 364.62 19.29 365.49 19.4 366.35 19.55 367.17 19.7 368.03 19.91 368.85 20.11 369.72 20.31 370.53 20.57 371.34 20.82 372.11 21.13 372.92 21.43 373.68 21.74 374.45 22.1 375.21 22.45 375.98 22.81 376.74 23.22 377.45 23.62 378.17 24.03 378.88 24.49 379.54 24.95 380.2 25.46 380.87 25.96 381.53 26.47 382.19 27.03 382.8 27.59 383.41 28.15 383.97 28.76 385.09 30.04 385.65 30.65 386.16 31.36 386.67 32.02 387.18 32.74 387.63 33.45 388.09 34.21 388.5 34.98 388.91 35.74 389.32 36.55 389.67 37.37 390.03 38.18 390.38 39.05 390.69 39.91 391 40.78 391.25 41.7 391.51 42.61 391.71 43.58 391.91 44.55 392.06 45.51 392.22 46.48 392.37 47.5 392.47 48.52 392.52 49.59 392.57 50.66 392.63 51.98 392.63 53.35 392.52 54.73 392.42 56.15 392.27 57.53 392.06 58.9 391.86 60.33 391.55 61.7 391.25 63.08 390.94 64.45 390.59 65.83 390.23 67.2 389.82 68.53 389.37 69.85 388.96 71.12 388.5 72.39 376.64 104.37 364.78 136.34 361.72 136.24 360.14 136.14 358.57 135.98 356.88 135.78 355.26 135.58 353.58 135.32 352.76 135.17 351.95 135.02 350.27 134.66 348.64 134.25 347.82 134.05 347.06 133.84 345.48 133.34 344.72 133.08 343.95 132.83 343.19 132.52 342.48 132.22 341.76 131.91 341.05 131.55 339.73 130.84 338.91 130.38 338.1 129.87 337.29 129.31 336.52 128.7 335.81 128.09 335.1 127.43 334.38 126.77 333.72 126.05 333.06 125.34 332.4 124.63 331.79 123.82 331.23 123.05 330.67 122.24 330.1 121.37 329.6 120.56 329.14 119.69 328.68 118.77 328.22 117.91 327.87 116.99 327.46 116.03 327.1 115.11 326.8 114.19 326.49 113.23 326.24 112.26 325.98 111.29 325.78 110.32 325.63 109.36 325.47 108.34 325.32 107.37 325.27 106.4 325.22 105.44 325.17 104.47 325.17 103.71 325.22 102.94 325.27 102.18 325.32 101.47 325.37 100.75 325.47 99.99 325.68 98.56 325.98 97.14 326.34 95.71 326.75 94.34 327.25 92.91 327.25 92.91"/><polygon class="cls-2" points="389.11 92.91 399.19 65.06 409.32 37.27 412.94 36.96 416.55 36.96 420.06 37.27 421.79 37.57 423.48 37.93 425.16 38.34 426.79 38.84 428.37 39.4 429.94 40.07 431.42 40.83 432.9 41.59 434.32 42.51 435.7 43.48 437.02 44.5 438.24 45.57 439.46 46.79 440.58 48.01 441.65 49.33 442.62 50.76 443.54 52.18 444.4 53.76 445.16 55.34 445.83 57.07 446.44 58.8 446.95 60.63 447.35 62.52 447.71 64.5 447.91 66.54 448.07 68.68 448.07 71.38 447.86 74.13 447.5 76.93 447.05 79.73 446.38 82.48 445.67 85.17 444.86 87.82 443.94 90.42 435.29 113.38 426.63 136.34 423.63 136.24 420.42 135.98 417.16 135.58 413.8 135.02 410.54 134.25 407.34 133.34 404.38 132.22 402.96 131.55 401.58 130.84 399.96 129.82 398.43 128.7 396.95 127.43 395.58 126.05 394.3 124.58 393.13 123.05 392.01 121.37 391.05 119.64 390.13 117.86 389.37 116.03 388.71 114.14 388.14 112.26 387.69 110.32 387.33 108.34 387.12 106.4 387.08 104.42 387.18 101.47 387.38 99.99 387.59 98.56 387.89 97.14 388.24 95.71 389.11 92.91 389.11 92.91"/><polygon class="cls-2" points="316.26 2.9 317.07 3.16 317.89 3.41 318.91 3.82 319.87 4.28 320.84 4.79 321.81 5.29 322.72 5.85 323.64 6.41 324.56 7.08 325.42 7.69 326.24 8.4 327.1 9.11 327.87 9.83 328.27 10.23 328.63 10.59 329.39 11.4 329.75 11.81 330.1 12.27 330.77 13.13 331.43 14 332.09 14.97 332.65 15.88 333.21 16.9 333.77 17.92 334.23 18.99 334.48 19.5 334.74 20.06 335.15 21.18 335.56 22.3 335.91 23.47 336.21 24.69 336.47 25.91 336.72 27.19 336.93 28.46 337.03 29.12 337.08 29.78 337.13 30.44 337.18 31.16 337.29 32.53 337.29 33.6 337.29 34.72 337.23 35.84 337.18 36.96 337.08 38.08 336.98 39.2 336.82 40.37 336.62 41.49 336.21 43.78 335.96 44.9 335.71 46.02 335.4 47.14 335.1 48.21 334.79 49.33 334.48 50.4 323.23 81.25 312.03 112.11 303.17 136.34 301.34 136.29 299.56 136.19 297.83 136.08 296.1 135.88 294.42 135.68 292.79 135.42 291.16 135.17 289.58 134.81 288 134.46 286.53 134.05 285 133.64 283.57 133.13 282.15 132.62 280.77 132.06 279.4 131.5 278.07 130.84 277.31 130.33 276.5 129.82 275.73 129.26 274.97 128.65 274.26 128.04 273.54 127.43 272.88 126.77 272.17 126.05 271.56 125.34 270.9 124.63 270.29 123.92 269.72 123.1 269.17 122.34 268.61 121.52 268.1 120.71 267.64 119.9 267.13 119.03 266.72 118.16 266.31 117.25 265.91 116.33 265.55 115.41 265.25 114.5 264.94 113.53 264.63 112.56 264.38 111.6 264.18 110.63 264.02 109.61 263.87 108.59 263.72 107.57 263.61 106.56 263.57 105.49 263.57 104.47 263.57 103.71 263.57 102.94 263.67 101.41 263.77 100.7 263.82 99.94 263.92 99.23 264.08 98.46 264.38 97.04 264.74 95.66 264.94 94.95 265.14 94.24 265.35 93.57 265.6 92.91 273.85 70.1 282.1 47.35 282.71 45.21 283.01 44.14 283.27 43.07 283.52 42.05 283.73 40.98 284.14 38.9 284.29 37.88 284.44 36.86 284.54 35.84 284.64 34.77 284.75 32.74 284.79 30.75 284.75 29.83 284.69 28.97 284.59 28.1 284.49 27.24 284.39 26.42 284.24 25.61 283.93 24.03 283.73 23.27 283.52 22.5 283.32 21.74 283.06 21.03 282.56 19.6 281.99 18.28 281.64 17.62 281.33 16.95 280.62 15.73 280.26 15.12 279.86 14.56 279.45 14 279.04 13.44 278.64 12.88 278.23 12.37 277.31 11.35 276.85 10.89 276.34 10.44 275.84 9.98 275.38 9.52 275.07 9.32 274.82 9.11 274.61 8.86 274.41 8.6 274.26 8.3 274.11 7.99 273.95 7.69 273.85 7.33 273.8 7.03 273.8 6.72 273.8 6.36 273.8 6.06 273.85 5.75 273.95 5.45 274.15 4.89 274.31 4.63 274.46 4.38 274.66 4.12 274.87 3.92 275.12 3.67 275.33 3.51 275.63 3.31 275.89 3.16 277.21 2.75 278.53 2.39 281.18 1.78 282.45 1.48 283.73 1.22 285 .97 286.27 .76 288.71 .41 289.94 .31 291.16 .2 293.55 .05 294.72 0 295.84 0 297.27 0 298.7 .05 300.07 .1 301.44 .15 302.77 .25 304.09 .41 305.41 .56 306.69 .71 307.96 .92 309.18 1.12 310.46 1.37 311.62 1.63 312.85 1.93 314.02 2.24 315.14 2.55 316.26 2.9 316.26 2.9"/><path class="cls-2" d="m366.2,228.74h4.38l3-8.1c1.55-5.74-9.98-3.28-11.86-2.75l2.95-7.74-4.58.76-6.67,17.82h4.28l3.31-8.86c2.12-.62,8.53-3.03,8.05,1.32l-2.85,7.53h0Zm-14.15-2.14l-1.17-1.53c-4.58,1.3-18.56,4.05-13.54-6.06,3.26-5.55,10.09-6.28,15.89-4.23l2.29-1.58c-9.06-3.07-19.26-1.6-23.93,6.87-3.56,12.35,15.31,8.26,20.46,6.52h0Zm45.11,0l-1.17-1.53c-4.35,1.23-13.29,4.38-14.51-2.39.68-8.22,9.75-9.95,16.85-7.89l2.29-1.58c-7.4-2.8-23.66-1.51-24.39,9.06.7,10.15,15.51,6.16,20.93,4.33h0Zm-69.39,0l-1.17-1.53c-4.31,1.22-13.29,4.33-14.51-2.39.67-8.15,9.34-10.07,16.85-7.89l2.29-1.58-2.85-.97c-7.07-1.35-20.89.54-21.54,10.03.68,10,14.86,6.38,20.93,4.33h0Zm-38.08,8.15l8.55-24.84c1.91-5.08,4.72-7.81,10.39-7.99h110.53l-8.55,24.84c-1.92,5.1-4.63,7.81-10.39,7.99h-110.53Z"/></g></svg>