<?xml version="1.0" encoding="UTF-8"?><svg id="Capa_2" xmlns="http://www.w3.org/2000/svg" viewBox="0 0 788.12 124.1"><g id="Capa_1-2"><path d="m57.67,0C25.91,0,0,25.91,0,58.03v66.06h66.06c31.75,0,57.67-25.55,57.67-57.67V0H57.67Zm45.99,77.38c-9.85,17.88-28.47,29.2-48.91,29.56-17.88,0-32.85-10.22-38.32-25.55h13.87c.19.47.4.93.6,1.39,5.55,7.52,14.19,11.73,23.49,11.39,17.15-.36,32.12-10.58,39.42-25.91H27.01c-3.65,0-6.93-1.46-9.12-4.38-1.82-2.92-2.19-6.57-1.09-9.85.73-2.18,1.45-4,2.54-5.82.11-.26.23-.51.38-.75.33-.54.69-1.07,1.04-1.59,9.68-17.19,27.9-28.34,47.87-28.7,16.79-.36,32.12,9.86,38.32,25.55h-13.5c-4.75-8.03-13.5-12.41-24.45-12.41-16.79.73-32.12,10.59-39.42,25.92h66.79c3.65,0,6.93,1.46,9.12,4.38,1.83,2.56,2.19,6.2,1.1,9.49"/><path d="m30.29,81.39h-.36c.31.48.64.94.97,1.39-.21-.45-.41-.91-.6-1.39Z"/><path d="m397.84,90.15c0,.73-.73,1.46-1.46,1.46h-5.48c-.73,0-1.46-.73-1.46-1.46v-52.56c0-.37,0-.73.37-1.09.36-.37.73-.37,1.09-.37h5.48c.36,0,.73,0,1.09.37.37.36.37.73.37,1.09v52.56Zm-18.98-53.29h-4.75c-1.1,0-1.83.37-2.56,1.1l-16.43,40.15-16.42-40.15c-.37-1.1-1.46-1.46-2.56-1.46h-4.75c-.37,0-1.09.36-1.46.73-.73.73-.73,1.46-.37,2.19l20.8,50.37c.37,1.1,1.46,1.83,2.56,1.83h4.75c1.1,0,2.19-1.1,2.56-2.19l20.8-50c.37-.73.37-1.82-.36-2.19-.73-.37-1.1-.37-1.82-.37h0Zm-55.84,4.02l-2.19,4.01c0,.37-.37.37-.37.37-.73.73-2.19,1.09-2.92.36-.37-.36-.73-.36-1.09-.73-4.75-1.82-9.86-1.46-14.24,1.46-4.38,2.92-6.57,7.67-6.57,12.77v31.39c0,.37,0,.73-.37,1.1s-.73.36-1.09.36h-5.84c-1.1,0-1.83-.73-1.83-1.82v-51.83c0-1.1.73-1.82,1.83-1.46h1.09c2.92,0,5.11,1.83,5.84,4.75,4.02-4.01,9.49-6.2,14.97-6.2h.73c2.92,0,5.84.73,8.76,1.82.37.37,1.46.73,2.92,1.46.37.36.73,1.09.37,2.19h0Zm-128.11,17.52l-1.82-.37c-5.84-1.1-13.14-2.19-13.14-7.3,0-1.46.36-2.92,1.46-4.01,3.29-2.56,7.3-3.65,11.68-3.29h.37c4.38-.36,8.76.73,12.41,3.29.37,0,1.09.73,1.82,1.46,1.1.73,2.56.73,3.29-.37l2.19-2.19c.73-.73.73-1.46.73-2.19s-.37-1.09-1.09-1.46c-1.1-1.09-2.19-1.46-2.56-1.82-5.11-3.29-10.95-5.11-17.15-4.75h-.37c-6.57-1.09-12.77,1.1-17.52,5.48-2.56,2.55-4.01,6.57-4.01,10.22,0,12.05,12.04,14.24,21.53,15.69,10.22,1.46,14.96,3.28,14.96,8.03-.37,6.94-9.85,8.03-13.87,8.03s-8.03-1.1-11.31-2.92c-2.19-1.1-4.01-2.56-5.47-4.75-.37-.73-1.1-1.09-2.19-1.09-.73,0-1.1.36-1.82.73l-2.56,2.56c-1.1.73-1.1,2.19-.37,3.29,1.82,2.19,4.01,4.38,6.57,5.84,5.11,3.28,10.95,4.75,17.15,4.75,20.81,0,22.63-12.41,22.63-16.06.37-13.14-12.77-15.33-21.53-16.79Zm520.48,24.45c5.84-4.38,9.86-10.95,10.95-18.25,1.1-7.3-1.09-14.6-5.47-20.44l4.01-4.75c.37-.73.37-1.46,0-2.19-1.82-2.56-4.75-2.92-7.3-1.82-.73.37-1.09.73-1.46,1.1l-1.46,1.46c-4.38-2.56-9.12-4.01-14.23-4.01-15.33,0-25.91,10.95-25.91,27.01-.37,6.94,2.19,13.87,7.3,18.98,5.11,5.11,11.68,7.66,18.62,7.66,8.03,0,17.15,3.29,17.15,13.5,0,12.41-13.14,13.5-17.15,13.5-7.67,0-16.06-2.92-17.15-11.68v-1.46c0-.73-.73-1.46-1.46-1.46h-5.47c-.73,0-1.46.73-1.46,1.46v1.82c1.09,12.05,11.31,19.71,25.55,19.71,16.06,0,25.91-8.76,25.91-22.26.73-6.93-3.65-14.23-10.95-17.88h0Zm-14.6-3.65c-4.75,0-9.12-1.82-12.41-5.11-3.28-3.29-4.75-8.03-4.75-12.41,0-8.76,4.38-17.88,17.16-17.88,10.22,0,17.15,6.94,17.15,17.88,0,9.49-7.67,17.15-17.15,17.52h0Zm86.14-42.34h-2.19c-1.46,0-2.92.73-4.02,1.46-1.09,1.09-1.82,2.56-1.82,4.01h0c-4.75-5.11-11.68-7.67-18.61-7.67-7.3,0-14.6,2.92-19.71,8.03-5.11,5.11-8.03,12.41-7.67,20.07-.37,7.3,2.56,14.6,7.67,20.07,5.11,5.47,12.41,8.39,19.71,8.39s13.87-2.92,18.61-8.03v6.94c0,.73.73,1.46,1.46,1.46h6.2c.73,0,1.46-.73,1.46-1.46v-51.83c.37-.73-.37-1.46-1.09-1.46h0Zm-26.28,45.62c-5.11,0-10.22-1.82-13.5-5.48-3.65-3.65-5.48-8.76-5.11-13.87,0-10.59,8.39-19.35,18.98-19.35s18.98,8.76,18.98,19.35c.37,5.11-1.82,10.22-5.48,14.23-3.65,4.01-8.76,5.48-13.87,5.11h0Zm-196,0c-.37-1.1-1.46-1.46-2.19-1.82-.37,0-.73,0-1.09.36l-1.82.73c-1.46.73-2.92.73-4.38,1.1-6.21,0-7.3-3.29-7.3-9.86v-28.47h15.69c.73,0,1.46-.73,1.46-1.46v-4.38c0-.73-.73-1.46-1.46-1.46h-15.69v-15.33c0-.73-.73-1.46-1.46-1.46h-1.83c-2.92,0-5.11,2.19-5.11,5.11v11.31h-10.22c-.73,0-1.46.73-1.46,1.46v4.38c0,.73.73,1.46,1.46,1.46h9.86v28.83c0,12.41,5.11,18.25,16.06,18.25,2.55,0,4.74-.37,6.93-1.46.73-.36,1.83-.73,3.29-1.46.73-.37,1.09-1.46.73-2.19l-1.46-3.65Zm48.54-42.34l-2.19,4.01c-.37.73-1.46,1.46-2.56,1.46-.36,0-.73,0-1.09-.36-.37-.37-.73-.37-1.46-.73-4.75-1.82-9.86-1.46-14.24,1.46-4.38,2.92-6.94,7.67-6.94,12.77v31.39c0,1.1-.73,1.82-1.46,1.82h-5.48c-.73,0-1.46-.73-1.46-1.82v-51.83c0-.73.73-1.46,1.46-1.46h1.46c2.92,0,5.11,1.83,5.84,4.75,4.01-4.01,9.49-6.2,14.96-6.2h.73c2.92,0,5.84.73,8.76,1.82,1.1.37,2.19,1.1,3.29,1.82.73,0,.73.73.36,1.1h0Zm-90.52,18.98v31.02c0,.37,0,.73-.37,1.1-.36.37-.73.37-1.09.37h-5.48c-.73,0-1.46-.73-1.46-1.46v-30.66c.37-4.38-1.46-8.39-4.38-11.68-3.28-2.92-7.66-4.38-12.04-4.01h-.37c-4.38,0-8.39,1.82-11.68,4.75-3.28,2.92-4.75,7.3-4.38,11.68v29.93c0,.73-.73,1.46-1.46,1.46h-5.48c-.73,0-1.46-.73-1.46-1.46v-51.46c0-1.1.73-1.83,1.82-1.83h1.1c2.92,0,5.47,1.83,5.84,4.75,4.38-4.38,10.22-6.57,16.42-6.57h0c14.6-.37,24.45,9.12,24.45,24.09h0Zm-245.28,2.92c0-13.14-8.39-27.37-27.01-27.37-7.3,0-14.6,2.92-20.07,8.03-5.11,5.47-8.03,12.77-7.67,20.07-.37,7.66,2.56,14.96,7.67,20.44,5.11,5.48,12.41,8.4,20.07,8.03,7.66,0,15.33-2.56,21.17-8.03.37-.36,1.1-1.09,1.82-2.19.37-.73.73-1.46.37-2.19,0-.73-.37-1.09-1.09-1.46l-2.56-1.82c-.37-.37-1.1-.73-1.46-.73-.73,0-1.46.37-1.82.73-.37.73-1.09,1.09-1.46,1.82-4.01,3.29-9.49,5.48-14.6,5.48-8.76.36-16.79-5.84-18.62-14.6h45.26v-6.2h0Zm-45.26,0c0-9.49,5.47-18.62,18.62-18.62,12.04,0,18.61,6.94,18.61,18.62h-37.23Zm230.68,0c0-13.14-8.39-27.37-27.01-27.37-7.3,0-14.6,2.92-20.07,8.03-5.11,5.47-8.03,12.77-7.67,20.07-.37,7.66,2.56,14.96,7.67,20.44,5.11,5.48,12.41,8.4,20.07,8.03,7.66,0,15.33-2.56,21.17-8.03.37-.36,1.1-1.09,1.82-2.19.37-.73.73-1.46.37-2.19,0-.73-.37-1.09-1.09-1.46l-2.56-1.82c-.37-.37-1.1-.73-1.46-.73-.73,0-1.46.37-1.82.73-.37.73-1.09,1.09-1.46,1.82-4.01,3.29-9.49,5.48-14.6,5.48-8.76.36-16.79-5.84-18.62-14.6h45.26c-.36,0,0-3.28,0-6.2h0Zm-45.26,0c0-9.49,5.48-17.88,18.62-17.88,12.04,0,18.61,6.57,18.61,17.88h-37.23Zm250.39,0c0-13.14-8.4-27.37-27.01-27.37-7.3,0-14.6,2.92-20.07,8.03-5.48,5.11-8.03,12.77-7.67,20.07-.37,7.66,2.56,14.96,7.67,20.44,5.11,5.48,12.41,8.4,20.07,8.03,7.66.37,15.33-2.56,20.8-7.67.73-.73,1.46-1.46,1.83-2.19.36-.73.73-1.46.36-2.19,0-.73-.36-1.09-1.09-1.46l-2.56-1.82c-.37-.37-1.09-.73-1.46-.73-.73,0-1.46.37-1.82.73-.37.73-1.1,1.09-1.46,1.82-4.01,3.28-9.49,5.47-14.6,5.47-8.76.37-16.79-5.84-18.62-14.6h45.26c0-2.19,0-4.38.37-6.57h0Zm-45.62-.37c0-9.49,5.48-17.88,18.62-17.88,12.04,0,18.61,6.57,18.61,17.88h-37.23Zm-224.47-36.13v-3.65c0-.73-.73-1.46-1.46-1.46h-3.65c-1.82,0-3.28,1.46-3.28,3.28v3.65c0,.37,0,.73.37,1.09.36.37.73.37,1.09.37h3.65c1.83.37,3.29-1.09,3.29-3.28Z"/></g></svg>