<?xml version="1.0" encoding="UTF-8"?><svg id="Capa_1" xmlns="http://www.w3.org/2000/svg" viewBox="0 0 800 249.73"><path d="m159.8,162.7h17.64v-94.37c-4.68,0-9.17,1.86-12.48,5.17-3.31,3.31-5.17,7.8-5.17,12.48v76.72Z"/><path d="m424.71,162.7h17.65v-94.37c-4.68,0-9.17,1.86-12.48,5.17-3.31,3.31-5.17,7.8-5.17,12.48v76.72Z"/><path d="m454.37,162.7h17.64v-94.37c-4.68,0-9.16,1.86-12.48,5.17-3.31,3.31-5.17,7.8-5.17,12.48v76.72Z"/><path d="m59.62,85.09h17.14v-16.79h-17.24c-7.48,0-14.64,2.97-19.93,8.26-5.29,5.29-8.26,12.45-8.26,19.93v85.1h-.04c4.67,0,9.16-1.86,12.47-5.16,3.31-3.3,5.17-7.78,5.19-12.45v-41.07h19.91v-16.84h-19.91v-10.3c0-2.83,1.12-5.54,3.13-7.55,2-2,4.72-3.13,7.55-3.13h0Z"/><path d="m382.19,164.4c-26.58,0-37.59-18.47-36.49-37.33.86-14.65,12.14-31.34,35.43-31.34,26.34,0,36.92,23.87,33.08,41.55h-49.53c.99,6.64,7.43,11.2,16.11,11.79,10.4.69,17.1-7.11,17.1-7.11l13.41,7.08c-6.53,10.9-16.94,15.36-29.11,15.36Zm-1.1-53.33c-12.48-.08-16.31,10.53-16.24,13.54h31.91c.29-2.65-2.27-13.46-15.67-13.54Z"/><path d="m336.44,121.69c-2.84-11.91-10.08-20.32-21.78-24.16-10.64-3.61-22.03-1.5-28.48,4.61v-34.01c-2.32,0-4.61.46-6.75,1.34s-4.09,2.19-5.72,3.83c-1.64,1.64-2.94,3.59-3.82,5.73-.89,2.14-1.34,4.44-1.34,6.76v76.76h15.02l.51-4.55c13.89,11.15,36.3,6.09,45.28-5.36,6.8-8.66,9.82-19.57,7.1-30.95Zm-17.72,14.14c-2.12,6.92-7,11.18-14.25,12.01-6.87.81-13.26-1.42-17.89-7.08v-21.16c1.43-1.95,3.24-3.6,5.31-4.86,2.07-1.25,4.37-2.09,6.77-2.45,16.67-1.71,23.02,12.22,20.05,23.54h0Z"/><path d="m147.95,99.15c-3.8,0-7.5,1.28-10.47,3.66-8.68-6.27-21.38-9.54-35.43-4.78-11.6,3.86-18.79,12.23-21.63,24.07-2.69,11.27.31,22.15,7.07,30.76,8.86,11.32,31.02,16.37,44.85,5.46l1.39,4.38h14.22v-63.55Zm-17.44,42.27c-4.99,5.77-11.44,7.07-18.29,6.3-7.25-.81-12.08-4.69-14.17-11.58-2.95-11.27,3.37-25.46,19.93-23.76,9.1,1.42,12.53,8.05,12.53,8.05v20.99Z"/><path d="m552.2,99.17c-3.8,0-7.5,1.28-10.47,3.66-8.68-6.27-21.38-9.54-35.43-4.78-11.61,3.86-18.79,12.22-21.61,24.05-2.71,11.32.3,22.16,7.05,30.77,8.86,11.33,31.02,16.38,44.85,5.47l1.39,4.38h14.22v-63.55Zm-17.44,42.29c-4.97,5.74-11.47,7.05-18.29,6.27-7.25-.81-12.08-4.7-14.17-11.58-2.95-11.23,3.36-25.46,19.93-23.76,9.1,1.42,12.53,8.05,12.53,8.05v21.01Z"/><path d="m246.21,102.81c-8.68-6.27-21.38-9.54-35.43-4.78-11.61,3.86-18.8,12.23-21.64,24.07-2.71,11.32.3,22.16,7.05,30.78,8.86,11.32,31.02,16.37,44.85,5.46l1.39,4.38h14.22v-63.56c-3.8,0-7.48,1.29-10.44,3.66Zm-6.98,38.61c-4.99,5.77-11.44,7.07-18.29,6.3-7.25-.81-12.08-4.69-14.17-11.58-2.95-11.27,3.37-25.46,19.93-23.76,9.1,1.42,12.53,8.05,12.53,8.05v20.99Z"/><path d="m655.53,108.3c-15.66,0-27.46,11.67-27.46,27.15s11.8,27.25,27.46,27.25,27.57-11.71,27.57-27.25-11.85-27.15-27.57-27.15Zm0,41.26c-7.71,0-13.3-5.94-13.3-14.13s5.72-14.01,13.3-14.01,13.42,6.02,13.42,14.01-5.77,14.13-13.43,14.13h0Z"/><path d="m748.15,108.3c-8.11-.63-15.03,3.58-18.91,5.98-4.44-3.58-9.37-5.98-15.71-5.98-11.77,0-23.79,7.06-23.79,7.06v46.1h13.74v-38.21c2.22-1.61,6.21-1.82,8.45-1.82,4.7,0,10.17,3.68,10.17,9.9v30.14h13.69v-33.6c.06-1.4-.19-2.79-.73-4.08,9.16-5.11,19.89-1.22,19.89,7.55v30.14h13.74v-30.34c.04-14.74-11.37-22.11-20.55-22.81Z"/><path d="m591.19,133.25c1.07-6.31,6.58-11.82,13.11-11.82,4.67.05,9.22,1.57,12.99,4.33l7.02-11.02c-5.63-4.13-12.41-6.38-19.39-6.44-12.93,0-23.3,7.62-26.79,18.72,4.92.58,9.52,2.78,13.06,6.24h0Z"/><path d="m617.65,144.94c-3.81,2.99-8.51,4.62-13.35,4.63-2.24-.01-4.44-.65-6.34-1.84.04.56.07,1.12.07,1.69,0,4.08-1.11,8.09-3.22,11.59,3.24,1.13,6.66,1.7,10.09,1.69,12.88,0,20.08-7.45,20.08-7.45l-7.32-10.32Z"/><circle cx="575.46" cy="149.43" r="12.64"/></svg>