<?xml version="1.0" encoding="UTF-8"?><svg id="Capa_1" xmlns="http://www.w3.org/2000/svg" viewBox="0 0 678.75 249.73"><path d="m654.11,103.84L356.57,17.51c-11.54-3.35-23.82-3.31-35.34.16L24.47,106.59c-8.69,2.61-14.62,10.62-14.58,19.71.04,9.09,6.05,17.07,14.76,19.6l297.53,86.33c11.56,3.34,23.82,3.28,35.33-.15l296.79-88.93c8.69-2.6,14.62-10.63,14.58-19.72-.03-9.08-6.04-17.05-14.76-19.59Zm-2.18,31.4l-296.78,88.92c-10.02,3-20.66,3.05-30.69.14L26.93,137.96c-5.19-1.51-8.79-6.26-8.81-11.69-.02-5.42,3.52-10.21,8.7-11.77L323.59,25.57c10-2.99,20.65-3.03,30.7-.13l297.54,86.33c5.21,1.51,8.78,6.27,8.81,11.68.01,5.43-3.53,10.22-8.7,11.77Z"/><polygon points="237.08 89.9 232.26 116.53 209.11 116.63 213.93 90.01 195.83 90.09 183.02 160.96 201.11 160.89 206.23 132.54 229.38 132.44 224.27 160.79 242.36 160.71 255.17 89.83 237.08 89.9"/><path d="m299.76,107.34l-1.01,5.65h-.19c-1.33-3.25-5.45-7.44-14.15-7.4-.94,0-1.88.06-2.81.15-13.23,1.39-26.08,12.03-29.03,28.32-2.74,15.23,4.71,28.41,21.57,28.33,2.53,0,5.19-.41,7.7-1.25,3.66-1.2,7.02-3.3,9.17-6.37h.19l-1.04,5.74,15.89-.07,9.6-53.16-15.89.07Zm-4.79,26.53c-.85,4.71-4.97,12.12-13.19,13.46-.83.13-1.68.2-2.57.2-9.57.05-11.69-8.37-10.79-13.34,1-5.49,5.58-12.36,13.24-13.56.75-.12,1.54-.2,2.35-.2,9.01-.04,12.12,7.04,10.97,13.44Z"/><path d="m347.14,121.55c6.65-.03,9.13,3.78,10.2,7.4l16.18-.07c-.32-12.99-10.09-22.26-24.25-22.2-16,.08-30.53,12.78-33.37,28.4-2.88,15.79,7.25,28.38,23.44,28.31,14.45-.06,26.92-9.98,32.02-22.05l-16.27.07c-2.35,3.27-6.22,7.1-12.86,7.13-7.62.03-11.66-5.68-10.26-13.46,1.39-7.64,7.64-13.9,15.17-13.54Z"/><path d="m409.61,106.23c-1.38,0-2.74.12-4.07.31-14.44,2.11-26.49,14.76-28.94,28.36-2.86,15.8,7.83,28.11,23.05,28.04,2.04,0,4.09-.25,6.13-.7,3.39-.77,6.75-2.16,9.85-4.16,5.06-3.07,9.63-7.69,13.27-13.64l-16.27.07c-1.95,2.01-4.07,3.72-6.92,4.53-1.1.31-2.3.48-3.66.49-6.22.03-10.81-3.69-10.61-10.01l14.23-.06,25.58-.11c.42-1.24.77-2.11,1.14-4.22,2.94-16.18-6.6-28.98-22.78-28.9Zm-3.98,22.51l-12.05.05c1.14-2.95,4.89-8.29,12-9.07.56-.06,1.12-.08,1.69-.08,8.22-.03,10.31,5.89,10.41,9.04l-12.06.05Z"/><path d="m474.43,105.49c-2.21,0-10.2-.26-17.03,5.8l5.95-31.31-16.09.07-14.48,80.28,16-.07.91-4.95h.2c1.83,3.66,6.55,6.57,13.55,6.71,13.67-.06,28.88-9.7,32.39-28.86,3.66-20.11-10.14-27.72-21.39-27.67Zm7.14,28.76c-.33,1.86-1.03,3.62-1.95,5.24-.47.82-1.03,1.6-1.6,2.34-.59.72-1.24,1.4-1.95,2.03-.71.62-1.47,1.2-2.25,1.69-.79.49-1.62.92-2.5,1.27-1.77.7-3.62,1.07-5.49,1.08-1.69,0-3.38-.26-4.9-.95-.76-.34-1.47-.76-2.12-1.29-.65-.52-1.21-1.14-1.7-1.81-.48-.68-.88-1.43-1.2-2.19-.29-.78-.5-1.57-.64-2.39-.27-1.66-.2-3.36.09-5.01.35-1.83,1.03-3.59,1.95-5.21.45-.78,1-1.57,1.57-2.29.59-.7,1.23-1.39,1.94-2.01.68-.61,1.44-1.18,2.22-1.67.8-.47,1.62-.89,2.5-1.24,1.73-.69,3.57-1.03,5.45-1.04.83,0,1.65.08,2.45.23.82.15,1.62.4,2.38.73,1.5.67,2.83,1.75,3.8,3.06.48.66.89,1.38,1.23,2.13.32.77.56,1.55.71,2.38.33,1.62.3,3.28.01,4.91Z"/></svg>