<?xml version="1.0" encoding="UTF-8"?><svg id="Capa_1" xmlns="http://www.w3.org/2000/svg" viewBox="0 0 678.75 249.73"><path d="m188.41,186.41h-29.68v-49.79c-.31-17.12,14.41-29.92,29.68-29.45h56.26c-.89,6.81-4,11.81-7.9,16.2-6.87,7.72-15.61,12.01-26.04,12.27l-22.32.04v50.74Z"/><path d="m295.18,61.86c-3.88,14.21-12.46,23.12-25.99,27.13-3.17.94-6.61,1.34-9.93,1.35-32.26.1-98.73.06-100.19.06.79-5.36,2.82-9.75,5.82-13.54,7.65-9.65,17.45-15.08,30.11-15.03,31.27.12,97.73.04,100.17.04Z"/><path d="m145.1,90.4c-1.63,0-67.68.11-99.55-.05-15.36-.08-26.84-7.04-34-20.75-1.16-2.21-1.81-4.69-2.97-7.74h100.96c17.13.02,31.13,11.03,35.55,28.54Z"/><path d="m145.16,135.44c-2.04.1-35.58-.13-50.6.39-16.92.58-33.11-13.93-35.3-28.25,1.5-.14,37.29-.07,53.69-.49,18.95-.49,31.76,12,32.2,28.35Z"/><path d="m503.29,138.49c.12-1.74.23-3.41.35-5.27h11.31v52.18h-11.33c-.11-1.83-.21-3.48-.32-5.28-13.65,9.34-25.88,8.63-35.16-1.82-9.13-10.29-9.28-27.21-.32-37.55,9.33-10.78,21.05-11.56,35.47-2.26Zm.87,20.67c-.09-8.36-5.21-14.87-12.78-16.25-7.12-1.3-14.42,2.91-16.92,9.96-1.57,4.41-1.55,8.93.14,13.33,2.68,6.98,10.06,11.03,17.14,9.54,7.48-1.58,12.5-8.28,12.41-16.57Z"/><path d="m390.85,162.38h-40.53c-.22,6.42,2.95,10.78,9.08,12.93,7.35,2.57,13.75.53,18.89-6.19h11.58c-2.4,11.9-15.83,19.69-29.88,17.38-15.17-2.5-24.19-15.68-21.87-31.93,2.17-15.19,14.97-24.6,30.84-22.38,14.51,2.03,23.46,14.55,21.89,30.21Zm-13.12-9.08c-.96-8.15-8.03-11.4-13.43-11.53-6.8-.16-11.96,4.11-14.04,11.53h27.47Z"/><polygon points="335.62 111.15 335.62 122.91 304.04 123.17 304.04 141.5 328.43 141.5 328.43 153.43 303.88 153.43 303.88 185.36 291.33 185.36 291.33 111.15 335.62 111.15"/><path d="m670.12,159.39c.78,14.22-11.6,27.3-27.36,27.43-14.49.13-27.82-11.73-27.7-27.79.11-14.35,12.15-27.24,27.77-27.11,16.14.12,28.15,13.69,27.3,27.48Zm-43,.24c.09,9.26,6.55,16.08,15.31,16.19,8.81.11,15.76-7.14,15.79-16.45.03-9.25-7.01-16.6-15.75-16.45-9.07.16-15.45,7.1-15.36,16.72Z"/><path d="m450.31,185.43h-11.55c0-6.59.04-12.9-.01-19.2-.04-4.35-.03-8.72-.38-13.05-.44-5.29-3.45-8.99-7.75-10.16-4.64-1.27-9.97.85-12.92,5.2-2.54,3.75-3.22,8.02-3.23,12.44-.02,8.1,0,16.2,0,24.68h-11.41v-51.94h10.95c.23,1.48.52,3.28.86,5.49,4.33-4.67,9.27-7,15.43-6.91,11.47.16,19.63,7.56,19.96,19.08.32,11.27.07,22.55.07,34.38Z"/><path d="m607.94,152.13h-12.14c-2.15-3.77-4.81-7.34-9.58-8.66-3.36-.93-6.56-1-9.88.1-7.33,2.44-10.58,9-10.61,16.17-.02,7.61,4.56,13.64,11.33,15.65,7.24,2.14,13.65-.81,18.9-8.86h11.58c-2,12.71-13.54,20.88-28.3,20.18-13.53-.64-24.69-11.63-25.48-25.1-.87-14.84,8.6-27.07,22.75-29.38,14.83-2.42,27.53,5.53,31.41,19.9Z"/><path d="m530.6,185.42v-78.15h11.36v78.15h-11.36Z"/><path d="m128.55,154.61c9.13.03,16.6,7.31,16.84,16.4.24,9.12-7.52,16.88-16.91,16.9-9.41.02-17.16-7.53-17.11-16.66.05-9.22,7.74-16.67,17.18-16.63Z"/></svg>