<?xml version="1.0" encoding="utf-8"?>
<!-- Generator: Adobe Illustrator 19.0.0, SVG Export Plug-In . SVG Version: 6.00 Build 0)  -->
<svg version="1.1" id="layer" xmlns="http://www.w3.org/2000/svg" xmlns:xlink="http://www.w3.org/1999/xlink" x="0px" y="0px"
	 viewBox="-153 -46 652 652" style="enable-background:new -153 -46 652 652;" xml:space="preserve">
<style type="text/css">
	.st0{fill:#004799;}
</style>
<path id="XMLID_1_" class="st0" d="M-99.8,259c-1.4,0-2.8,0-4.1,0.1c-1.4,0.1-2.5,0.1-3.5,0.2v24h6c6.7,0,11.7-0.9,15.1-2.6
	c3.4-1.8,5.1-5,5.1-9.8c0-2.3-0.4-4.2-1.3-5.8c-0.9-1.5-2.1-2.8-3.7-3.7c-1.6-0.9-3.6-1.6-5.9-1.9C-94.5,259.2-97,259-99.8,259
	 M-101.1,243.1c12.7,0,22.5,2.2,29.3,6.5c6.8,4.3,10.2,11.5,10.2,21.4c0,10-3.4,17.2-10.4,21.6c-6.9,4.4-16.8,6.7-29.6,6.7h-6v27.8
	h-19.2v-81.8c4.2-0.8,8.6-1.4,13.3-1.7C-108.7,243.2-104.6,243.1-101.1,243.1 M-10.7,279.9c-1.6-0.4-3.6-0.8-5.8-1.3
	c-2.2-0.4-4.6-0.7-7.2-0.7c-1.1,0-2.5,0.1-4.1,0.3c-1.6,0.2-2.8,0.4-3.6,0.7v48.2h-18.4v-59.7c3.3-1.1,7.2-2.2,11.7-3.2
	c4.5-1,9.5-1.5,15-1.5c1,0,2.2,0,3.6,0.1c1.4,0.1,2.8,0.3,4.2,0.5c1.4,0.2,2.8,0.4,4.2,0.7c1.4,0.3,2.6,0.6,3.6,1L-10.7,279.9z
	 M41.7,295.4c0-5.5-1.1-9.8-3.4-13c-2.3-3.1-5.5-4.7-9.7-4.7c-4.2,0-7.4,1.6-9.7,4.7c-2.3,3.2-3.5,7.5-3.5,13
	c0,5.5,1.1,9.9,3.5,13.1c2.3,3.2,5.6,4.8,9.7,4.8c4.2,0,7.4-1.6,9.7-4.8C40.6,305.3,41.7,301,41.7,295.4 M60.5,295.4
	c0,5-0.7,9.5-2.2,13.6c-1.5,4.1-3.6,7.6-6.4,10.5c-2.8,2.9-6.1,5.2-10.1,6.8c-3.9,1.6-8.3,2.4-13.1,2.4c-4.8,0-9.1-0.8-13-2.4
	c-3.9-1.6-7.3-3.9-10-6.8c-2.8-2.9-5-6.4-6.5-10.5c-1.6-4.1-2.3-8.6-2.3-13.6c0-5,0.8-9.5,2.4-13.5c1.6-4.1,3.8-7.6,6.7-10.4
	c2.8-2.9,6.2-5.1,10.1-6.7c3.9-1.6,8.2-2.4,12.8-2.4c4.7,0,9,0.8,12.9,2.4c3.9,1.6,7.3,3.8,10.1,6.7c2.8,2.9,5,6.4,6.5,10.4
	C59.7,286,60.5,290.5,60.5,295.4 M69,248.4l18.4-2.9v18.6h22.1v14.8H87.4v22.2c0,3.8,0.7,6.7,2,9c1.4,2.2,4.1,3.3,8.2,3.3
	c2,0,4-0.2,6.1-0.5c2.1-0.4,4-0.9,5.7-1.5l2.6,13.9c-2.2,0.9-4.7,1.6-7.4,2.3c-2.7,0.6-6,1-10,1c-5,0-9.2-0.6-12.5-2
	c-3.3-1.3-5.9-3.2-7.9-5.5c-2-2.4-3.3-5.2-4.1-8.6c-0.8-3.4-1.2-7.1-1.2-11.2V248.4z M160.8,289.2c-0.1-1.5-0.4-3-0.8-4.4
	c-0.4-1.4-1.1-2.7-2.1-3.8c-0.9-1.1-2.1-2.1-3.6-2.8c-1.4-0.7-3.2-1.1-5.4-1.1c-2.1,0-3.8,0.3-5.3,1c-1.5,0.7-2.7,1.6-3.7,2.7
	c-1,1.1-1.8,2.4-2.3,3.9c-0.5,1.5-0.9,3-1.2,4.5H160.8z M117.6,296c0-5.6,0.9-10.5,2.7-14.7c1.8-4.2,4.1-7.7,7-10.5
	c2.9-2.8,6.2-4.9,9.9-6.4c3.7-1.4,7.6-2.2,11.5-2.2c9.2,0,16.5,2.7,21.8,8.2c5.3,5.5,8,13.5,8,24.1c0,1,0,2.2-0.1,3.4
	c-0.1,1.2-0.2,2.3-0.3,3.3h-41.7c0.4,3.7,2.2,6.6,5.3,8.7c3.1,2.2,7.3,3.2,12.6,3.2c3.4,0,6.7-0.3,9.9-0.9c3.2-0.6,5.9-1.3,8-2.2
	l2.4,14.5c-1,0.5-2.3,1-3.9,1.4c-1.6,0.5-3.5,0.9-5.5,1.2c-2,0.4-4.2,0.7-6.5,0.9c-2.3,0.2-4.6,0.4-6.9,0.4
	c-5.8,0-10.9-0.9-15.2-2.5c-4.3-1.7-7.9-4-10.7-6.9c-2.8-2.9-4.9-6.4-6.3-10.4C118.3,305,117.6,300.7,117.6,296 M188.4,295.6
	c0-4.6,0.8-8.8,2.3-12.9c1.5-4,3.7-7.6,6.6-10.5c2.9-3,6.4-5.4,10.5-7.1c4.1-1.8,8.8-2.6,14-2.6c3.5,0,6.6,0.3,9.5,0.9
	c2.9,0.6,5.7,1.5,8.4,2.6l-3.8,14.2c-1.7-0.6-3.6-1.2-5.7-1.7c-2.1-0.5-4.4-0.7-6.9-0.7c-5.4,0-9.5,1.6-12.1,4.9
	c-2.7,3.3-4,7.6-4,12.9c0,5.7,1.2,10.1,3.8,13.2c2.5,3.1,6.9,4.7,13.1,4.7c2.2,0,4.6-0.2,7.2-0.6c2.5-0.4,4.9-1,7-1.9l2.6,14.6
	c-2.1,0.9-4.8,1.6-8,2.3c-3.2,0.6-6.7,1-10.6,1c-5.9,0-11-0.9-15.3-2.6c-4.3-1.7-7.8-4-10.5-7c-2.8-2.9-4.8-6.5-6.1-10.5
	C189,304.7,188.4,300.3,188.4,295.6 M245.7,295.6c0-4.6,0.8-8.8,2.3-12.9c1.5-4,3.7-7.6,6.6-10.5c2.9-3,6.4-5.4,10.5-7.1
	c4.1-1.8,8.8-2.6,14.1-2.6c3.5,0,6.6,0.3,9.5,0.9c2.9,0.6,5.7,1.5,8.4,2.6l-3.8,14.2c-1.7-0.6-3.6-1.2-5.7-1.7
	c-2-0.5-4.4-0.7-6.9-0.7c-5.4,0-9.5,1.6-12.1,4.9c-2.7,3.3-4,7.6-4,12.9c0,5.7,1.3,10.1,3.8,13.2c2.5,3.1,6.9,4.7,13.1,4.7
	c2.2,0,4.6-0.2,7.1-0.6c2.6-0.4,4.9-1,7-1.9l2.6,14.6c-2.1,0.9-4.8,1.6-8,2.3c-3.2,0.6-6.7,1-10.6,1c-5.9,0-11-0.9-15.3-2.6
	c-4.3-1.7-7.8-4-10.6-7c-2.8-2.9-4.8-6.5-6-10.5C246.4,304.7,245.7,300.3,245.7,295.6 M327.6,327.1h-18.4v-63h18.4V327.1z
	 M329.4,245.8c0,3.3-1.1,5.9-3.3,7.7c-2.2,1.9-4.7,2.8-7.7,2.8c-3,0-5.5-0.9-7.7-2.8c-2.2-1.9-3.3-4.5-3.3-7.7
	c0-3.3,1.1-5.9,3.3-7.7c2.2-1.9,4.7-2.8,7.7-2.8c3,0,5.5,0.9,7.7,2.8C328.3,240,329.4,242.6,329.4,245.8 M385.6,295.4
	c0-5.5-1.1-9.8-3.4-13c-2.3-3.1-5.5-4.7-9.7-4.7c-4.2,0-7.4,1.6-9.7,4.7c-2.3,3.2-3.5,7.5-3.5,13c0,5.5,1.2,9.9,3.5,13.1
	c2.3,3.2,5.6,4.8,9.7,4.8c4.2,0,7.4-1.6,9.7-4.8C384.5,305.3,385.6,301,385.6,295.4 M387.7,241.4l-20.3,16.7l-8.4-7.3l17.5-19.4
	L387.7,241.4z M404.3,295.4c0,5-0.7,9.5-2.2,13.6c-1.5,4.1-3.6,7.6-6.4,10.5c-2.8,2.9-6.1,5.2-10,6.8c-3.9,1.6-8.3,2.4-13.1,2.4
	c-4.8,0-9.1-0.8-13-2.4c-3.9-1.6-7.3-3.9-10-6.8c-2.8-2.9-5-6.4-6.5-10.5c-1.6-4.1-2.3-8.6-2.3-13.6c0-5,0.8-9.5,2.4-13.5
	c1.6-4.1,3.8-7.6,6.7-10.4c2.8-2.9,6.2-5.1,10.1-6.7c3.9-1.6,8.2-2.4,12.8-2.4c4.7,0,9,0.8,12.9,2.4c3.9,1.6,7.3,3.8,10,6.7
	c2.8,2.9,5,6.4,6.5,10.4C403.6,286,404.3,290.5,404.3,295.4 M417.3,266.3c3.1-0.9,7.2-1.7,12.1-2.5c4.9-0.8,10.1-1.1,15.5-1.1
	c5.5,0,10.1,0.7,13.7,2.1c3.7,1.4,6.6,3.4,8.7,5.9c2.1,2.6,3.7,5.6,4.6,9.1c0.9,3.5,1.3,7.4,1.3,11.7v35.6h-18.4v-33.4
	c0-5.8-0.8-9.8-2.3-12.2c-1.6-2.4-4.5-3.6-8.8-3.6c-1.3,0-2.7,0.1-4.2,0.2c-1.5,0.1-2.8,0.3-3.9,0.4v48.6h-18.4V266.3z"/>
</svg>
