<?xml version="1.0" encoding="UTF-8" standalone="no"?>
<svg
   xmlns:dc="http://purl.org/dc/elements/1.1/"
   xmlns:cc="http://creativecommons.org/ns#"
   xmlns:rdf="http://www.w3.org/1999/02/22-rdf-syntax-ns#"
   xmlns:svg="http://www.w3.org/2000/svg"
   xmlns="http://www.w3.org/2000/svg"
   xmlns:sodipodi="http://sodipodi.sourceforge.net/DTD/sodipodi-0.dtd"
   xmlns:inkscape="http://www.inkscape.org/namespaces/inkscape"
   inkscape:version="1.0 (4035a4f, 2020-05-01)"
   sodipodi:docname="Leche Gloria logo.svg"
   version="1.1"
   width="258.2525"
   height="85.766991"
   id="svg244"
   viewBox="0 0 258.2525 85.766991">
  <sodipodi:namedview
     inkscape:current-layer="svg244"
     inkscape:window-maximized="1"
     inkscape:window-y="0"
     inkscape:window-x="0"
     inkscape:cy="53.588782"
     inkscape:cx="224.17577"
     inkscape:zoom="3.2809755"
     fit-margin-bottom="0"
     fit-margin-right="0"
     fit-margin-left="0"
     fit-margin-top="0"
     showgrid="false"
     id="namedview127"
     inkscape:window-height="688"
     inkscape:window-width="1368"
     inkscape:pageshadow="2"
     inkscape:pageopacity="0"
     guidetolerance="10"
     gridtolerance="10"
     objecttolerance="10"
     borderopacity="1"
     bordercolor="#666666"
     pagecolor="#ffffff" />
  <metadata
     id="metadata250">
    <rdf:RDF>
      <cc:Work
         rdf:about="">
        <dc:format>image/svg+xml</dc:format>
        <dc:type
           rdf:resource="http://purl.org/dc/dcmitype/StillImage" />
        <dc:title></dc:title>
      </cc:Work>
    </rdf:RDF>
  </metadata>
  <defs
     id="defs248" />
  <g
     style="fill:#170c41;fill-opacity:1;stroke:none"
     transform="translate(-166.31199,-328.40481)"
     inkscape:transform-center-y="257.53239"
     inkscape:transform-center-x="-121.81708"
     id="Layer1001">
    <path
       id="path194"
       style="fill:#170c41;fill-rule:evenodd;fill-opacity:1;stroke:none"
       d="m 370.9802,392.8583 v -64.2096 l -16.5918,0.0187 v 60.4042 c 3.0864,0.3505 16.5918,3.7867 16.5918,3.7867 z" />
    <path
       id="path196"
       style="fill:#170c41;fill-rule:evenodd;fill-opacity:1;stroke:none"
       d="m 258.022,389.6153 -0.007,-12.6776 -12.2341,3.0938 -0.0306,-51.3956 -16.6787,0.0145 v 69.07 c 3.6191,-1.3896 16.939,-5.7044 28.9502,-8.1051 z" />
    <path
       id="path198"
       style="fill:#170c41;fill-rule:evenodd;fill-opacity:1;stroke:none"
       d="m 205.5889,392.8583 c -1.8398,1.2948 -5.1047,1.4005 -7.5713,1.4005 -9.9024,0 -12.7675,-14.6721 -11.7854,-26.9252 0.8278,-10.1868 -0.1404,-24.6747 11.2227,-24.6747 6.729,0 7.2382,5.4896 7.8547,12.1227 l 18.013,-0.9061 c 0.2158,-20.1929 -11.5613,-25.0683 -24.607,-25.0683 -13.7383,0 -31.8997,10.2081 -32.3903,38.5264 -0.5627,32.2524 16.8298,42.2862 31.8082,42.0034 11.387,-0.2142 21.1963,-8.9068 24.561,-13.1137 V 361.728 l -25.7978,3.3634 v 15.707 l 8.6922,-0.842 z" />
    <path
       id="path200"
       style="fill:#170c41;fill-rule:evenodd;fill-opacity:1;stroke:none"
       d="m 279.539,328.4052 c -15.7324,0.0886 -24.7735,11.1267 -24.6891,30.5321 0.0767,16.8064 10.2606,27.5143 24.6891,27.5865 14.9436,0.0709 24.6911,-10.9405 24.6911,-29.2965 0,-18.2642 -11.5857,-28.8965 -24.6911,-28.8221 z m 0.1189,46.4301 v 0 c -7.3233,0.6378 -7.7695,-9.0382 -7.7695,-17.0495 0,-8.5573 0.3579,-17.0943 7.6806,-17.1848 7.3252,-0.0912 7.4772,9.1348 7.4772,17.4164 0,7.8319 -0.0631,16.4507 -7.3883,16.8179 z" />
    <path
       id="path202"
       style="fill:#170c41;fill-rule:evenodd;fill-opacity:1;stroke:none"
       d="m 339.1292,364.2829 c 7.9453,-2.312 8.3685,-13.1511 8.3176,-17.2704 -0.1887,-14.7678 -11.3309,-18.3766 -18.7608,-18.3766 h -20.1742 v 56.0197 l 14.8579,0.497 -0.005,-18.3073 1.8083,0.0699 7.5101,19.1412 c 3.7802,0.1398 17.8712,2.5247 17.8712,2.5247 -1.5316,-3.9294 -11.4256,-24.2982 -11.4256,-24.2982 z m -15.6381,-7.7427 v 0 -14.444 c 6.7989,-0.2812 9.1699,1.8228 9.0479,7.1536 -0.1456,6.0265 -2.3855,7.5684 -9.0479,7.2904 z" />
    <path
       id="path204"
       style="fill:#170c41;fill-rule:evenodd;fill-opacity:1;stroke:none"
       d="m 407.3774,328.7679 h -19.6495 l -12.6654,64.7732 11.128,3.4858 3.2397,-17.1284 12.2563,5.813 3.805,18.8549 c 7.2222,2.9462 19.073,9.6054 19.073,9.6054 -1.3992,-8.5763 -17.1871,-85.4039 -17.1871,-85.4039 z m -15.5813,39.2791 v 0 l 3.2345,-16.1933 3.5125,19.4936 z" />
  </g>
</svg>
