<?xml version="1.0" encoding="UTF-8"?><svg id="Capa_2" xmlns="http://www.w3.org/2000/svg" viewBox="0 0 330.61 53.13"><defs><style>.cls-1{stroke-width:0px;}</style></defs><g id="Capa_1-2"><g id="Q1xej2.tif"><path class="cls-1" d="M151.15,0v28.04c4.88,1.45,7.98.26,10.4-4.73,4.08-8.4,4.45-8.23,14.49-6.87-2.33,3.99-4.6,7.87-6.93,11.86,11.21,5.38,4.86,15.17,7.05,23.38h-10.47c0-3.31-.25-6.55.07-9.74.34-3.39-1.12-4.37-4.25-4.24-3.44.14-6.89.03-10.72.03v13.97h-9.61V0h9.97Z"/><path class="cls-1" d="M30.51,0c-.16,2.75-.32,5.5-.54,9.22-3.02,0-6.07-.02-9.12,0-5.74.05-6.07.43-5.48,6.69,2.38,0,4.82,0,7.25,0,2.29,0,4.59,0,7.22,0v9.41h-14.86v26.46H4.93v-25.81c-1.78-.39-3.28-.72-4.93-1.09v-8.28c1.38-.37,2.88-.76,4.68-1.24-.45-6.25.93-11.85,6.89-15.38h18.94Z"/><path class="cls-1" d="M330.61,51.98h-10.6v-10.79h10.6v10.79Z"/><path class="cls-1" d="M301.19,20.18c.31-1.67.53-2.85.74-3.95h9.31v35.51h-9.3c-.21-1.03-.44-2.19-.62-3.09-15.16,8.32-25.69,5.13-29.31-12.23-1.83-8.77,2.72-16.47,9.52-19.84,6.58-3.26,12.8-2.24,19.66,3.6ZM281.81,33.91c-.17,5.33,3.91,9.6,9.45,9.9,5.23.28,10.05-4.01,10.29-9.19.27-5.68-3.88-10.15-9.56-10.29-5.91-.15-9.99,3.69-10.18,9.57Z"/><path class="cls-1" d="M132.69,51.88h-9.17c-.22-1.15-.44-2.33-.62-3.3-15.09,8.55-25.61,5.34-29.27-12.02-1.66-7.9,1.21-15.4,8.94-19.62,7.11-3.88,13.99-2.9,20.19,3.39.29-1.73.49-2.9.7-4.13h9.22v35.69ZM113.56,24.34c-5.7-.08-10.01,3.75-10.19,9.07-.19,5.71,3.87,10.09,9.56,10.31,5.59.22,10.14-4.09,10.2-9.67.06-5.43-4.08-9.63-9.57-9.71Z"/><path class="cls-1" d="M63.13,19.89c5.4-5.39,11.37-6.52,17.65-3.51,6.05,2.89,7.83,8.37,7.69,14.71-.14,6.81-.03,13.63-.03,20.69h-9.84c0-6.13.04-12.12-.01-18.1-.05-5.85-2.64-9.05-7.27-9.17-4.53-.12-8.16,3.13-8.47,8.44-.36,6.15-.08,12.33-.08,18.79h-9.71V16.78c6.19-1.98,8.8-1.33,10.08,3.11Z"/><path class="cls-1" d="M185.73,15.42V3.41h9.59v12.41h15.26v9.39h-14.96c0,4.97-.26,9.36.16,13.68.13,1.27,2.1,3.21,3.42,3.37,3.71.46,7.51.16,11.47.16v9.37c-5.78,0-11.57.5-17.22-.16-4.16-.49-7.3-3.45-7.5-7.97-.26-5.84-.06-11.7-.06-17.78-1.98-.31-3.4-.52-5.17-.8v-8.55c1.21-.27,2.75-.6,5.01-1.1Z"/><path class="cls-1" d="M271.56,16.42c-4.93,11.34-9.57,22.28-14.54,33.07-.58,1.26-2.98,2.39-4.54,2.39-2.36,0-6.2-.34-6.87-1.72-5.27-11-9.94-22.27-15-33.93,1.28-.14,2.05-.16,2.79-.3,5.83-1.1,8.97,1.2,10.74,6.87,1.76,5.65,4.65,10.96,7.47,17.38,2.63-6.31,4.89-11.67,7.11-17.04q3.3-7.99,12.84-6.73Z"/><path class="cls-1" d="M35.24,51.75V16.25h9.6v35.5h-9.6Z"/><path class="cls-1" d="M217.3,16.22h9.3v35.55h-9.3V16.22Z"/></g></g></svg>