<?xml version="1.0" encoding="UTF-8"?><svg id="Layer_1" xmlns="http://www.w3.org/2000/svg" viewBox="0 0 402.46 374.32"><defs><style>.cls-1{fill:#231f20;}</style></defs><path class="cls-1" d="m99.55,328.62c-1.22.37-2.51.58-3.85.58-7.1,0-12.85-5.75-12.85-12.83s5.75-12.87,12.85-12.87c7.57,0,11.35,4.95,11.35,8.56l-.02,46.12h32.84l.05-41.8c0-22.17-19.79-40.12-44.23-40.12s-44.21,17.95-44.21,40.12,19.79,40.09,44.21,40.09l3.8-.26.04-27.58"/><path class="cls-1" d="m310.58,328.62c-1.22.37-2.49.58-3.83.58-7.1,0-12.86-5.75-12.86-12.83s5.76-12.87,12.86-12.87c7.57,0,11.36,4.95,11.36,8.56l-.03,46.12h32.84l.05-41.8c0-22.17-19.79-40.12-44.21-40.12s-44.22,17.95-44.22,40.12,19.8,40.09,44.22,40.09l3.79-.26.05-27.58"/><path class="cls-1" d="m146.92,328.36v29.81s32.72,5.08,40.86-26.91c0,0,3.55-19.73,13.72-19.73v-30.81s-41.62-1.63-42.67,31.09c0,0-1.44,14.18-11.91,16.55"/><path class="cls-1" d="m203.68,328.36v29.81s32.7,5.08,40.86-26.91c0,0,3.52-19.73,13.72-19.73v-30.81s-41.63-1.63-42.68,31.09c0,0-1.42,14.18-11.9,16.55"/><rect class="cls-1" x="51.36" y="366.35" width="299.73" height="3.69"/><path class="cls-1" d="m325.54,6.51c13.02,35.73,7.11,80.2-22.39,107.72-8.57,8.22-15.11,14.3-25.35,19.76-1.95-2.26-3.6-5.74-4.02-8.96,33.88-12.63,49.51-45.61,49.94-80.12-.25-13.06-3.29-25.28-6.23-38.4h8.05"/><path class="cls-1" d="m334.99,6.65c3.79,8.72,6.06,17.88,7.36,27.53,5.86,40.77-12.93,77.62-48.44,97.61-5.85,7.27-25.28,2.95-18.17,18.12,32.85-10.19,62.21-40.28,75.2-71.56V13.65s-5.36-7-15.94-7"/><path class="cls-1" d="m249.9,6.51c12.22,13.14,15.63,35.48,11.74,56.11,2.02,9.9-10.83,21.47,1.2,27.15-3.74-11.43,4.34-18.91,8.69-27.43,6.75-2.6,12.29-7.89,19.26-9.73,12.7,8.14,5.12,27.94,3.39,40.24-2.17,9.57-12.68,3.45-16.78,11,.16,4.43-1.21,10.81.95,13.57,32.94-26.71,37.42-72.52,27.8-110.92h-9.05c3.89,15.61,4.6,32.01,3.75,48.51l-3.46.68c-2.43-2.03-3.62-4.51-5.31-6.77.52-10.19-1.77-29.22-8.17-42.42h-7.63c5.2,14.18,9.04,34.41,2.08,48.81-2.49.18-5.04,4.08-7.2,1.58,2.69-10.96-.18-25.53-2.29-33.09,0,0-4.73-12.98-9.07-17.3h-9.9"/><path class="cls-1" d="m228.07,6.51c8.69,11.02,14.08,29.37,16.54,42.73,1.85,10.26-3.49,29.77,5.29,31.4,5.79-17.9,3.77-39.62-3.56-56.77,0,0-4.28-10.99-9.2-17.36h-9.08"/><path class="cls-1" d="m202.11,6.51c17.48,16.38,22.54,39.1,27.28,61.88,2.18,2.02,5.1,4.28,7.6,3.86,1.35-18.47-4.53-33.85-12.14-48.81,0,0-6.67-11.99-12.03-16.92h-10.71"/><path class="cls-1" d="m208.85,32.5c6.91,12.7,11.08,26.34,12.03,41.14-12.56-2.72-9.29-17.93-15.31-26.43-8.1-15.45-20.88-30.72-36.04-40.16l-.7-1.99c20.62-5,29.61,15.14,40.01,27.43"/><path class="cls-1" d="m51.54,14.33v6.72c9.72-3.75,21.64-7.77,31.11-9.81,38.24-7.61,77.7,6.77,102.15,36.29,5.62,6.43,13.04,24.28,20.84,21.14-2.44-17.57-20.6-34.12-32.12-43.66-9.08-7.29-21.75-16.74-35.07-18.49H63.03s-7.58,3.09-11.5,7.81"/><path class="cls-1" d="m51.54,38.29l6.89-3.38c34.48-17.56,75.81-6.87,104.28,16.37,11.73,6.89,18.59,22.56,31.37,26.01-3.05-7.69-6.12-15.4-13.16-21.7-27.81-31.38-74.63-44.82-113.72-32.05,0,0-9.06,3.85-15.67,7.35v7.39"/><path class="cls-1" d="m173.39,73.19c-1.01,1.45-3.5,2.15-5.97,1.86-29.33-29.44-78.94-34.36-115.84-19.56l-.05-8.36c40.7-18.67,93.42-10.76,121.85,26.05"/><path class="cls-1" d="m94.19,95.65c-14.85.94-31.37,9.16-42.65,14.95v10.25c11.34-7.76,32.5-18.87,51.99-17l.09-4.19c-11.4-10.84-2.9-27.92-1.65-40.72-8.38-.64-18.19-.15-25.9.95,0,0-12.56,1.61-24.52,9.61v6.77c12.05-8.63,28.35-12.25,43.89-10.2-1.03,1.63-2.06,4.11-2.06,9.03-14.41,3.41-29.07,5.13-41.83,12.29v9.23c12.01-6.66,27-11.43,40.59-12.48,0,0-.62,7.2,2.06,11.51"/><path class="cls-1" d="m287.01,68.54c-4.66,9.78-2.92,22.39-13.21,29.82-2.47-.29-3.41-3.02-4.61-4.78-1.89-3.97,3.8-4.6,3.86-7.56.66-8.37.16-20.22,10.38-23.46l3.59,5.98"/><path class="cls-1" d="m115.28,72.76c-1.08,4.69-1.2,10.58,2.19,14.1,5.19.34,4.33,6,5.01,9.72v.49c6.45-1.84,13.85-1.21,20.24,1.62-8.81,7.46-22.41,7.68-33.22,3.54,1.86-6.13-2.25-11.13-3.37-16.57.08-4.94-.03-11.1,2.78-15.48,2.43,1.52,5.2-.65,6.37,2.58"/><path class="cls-1" d="m273.7,163.92c27.98-2.15,58.07-20.22,77.23-45.75v-14.35c-11.14,21.39-34.02,40.02-55.46,47.73,0,0-10.07,3.86-21.61,4.89l-.15,7.48"/><path class="cls-1" d="m51.54,146.11c14.65-14.74,34.64-27.35,55.69-29.13,7.22-2.58,22.65,4.64,23.9-7.91-20.77-.42-40.37,2.64-57.6,11.43,0,0-11.08,5.69-22,16.16v9.45"/><path class="cls-1" d="m51.54,161.1c21.44-20.77,45.45-38.89,74.63-39.06,2.23,8.52-15.07,9.54-20.27,11.92-20.19,7.75-43.83,23.62-54.36,43.38v-16.24"/><path class="cls-1" d="m159.49,123.78c-2.48,12.77,8.19,22.61,17.73,28.71,1.45,1.26,3.42,1.79,4.62,3.79-2.16,9.32-10.22,13.57-12.86,22.64-3.97.9-5.6-4.79-6.52-7.78-1.84-6.69,9.66-9.43,4.07-14.23-9.01-7.09-17.24-17.05-14.29-28.59,1.29-2.91,4.53-3.6,7.26-4.54"/><path class="cls-1" d="m51.54,193.96c18.56-25.01,43.16-56.03,75.15-60.58.89,3.75,1.91,11.56-1.47,11.81-28.8,5.83-58.26,31.62-65.26,60.08-4.84,20.11-3.29,40.1-.7,59.88-2.94-1.3-6.77-6.2-7.71-9.17v-62.02"/><path class="cls-1" d="m350.93,136.86c-20.02,23.76-51.15,33.99-79.04,31.22-1.06,3.16-3.83,6.32-3.16,9.54,25.45.63,43.36-4.07,62.84-14.03,0,0,12.96-7.21,19.35-16.27v-10.46"/><path class="cls-1" d="m66.59,249.88c-2.61-33.52,5.65-64.32,32.74-84.51,9.53-6.69,19.3-12.67,29.3-17.89,3.69,9.56-11.56,14.5-16.93,18.64-28.09,18.67-38.63,51.23-36.79,82.59,0,0,1.57,13.06,3.52,19.64h-8.23s-3.07-11.58-3.6-18.47"/><path class="cls-1" d="m350.93,162.75c-24.35,18-60.17,26.67-89.42,17.7.68,3.21.58,6.9,2.28,9.91,21.73,2.38,50.41,1.48,70.14-8.48,0,0,9.59-4.76,17.01-10.92v-8.21"/><path class="cls-1" d="m90.37,268.35c-2.19-3.19-2.25-9.7-3.72-12.77-7.45-35.39,6.61-70.62,38.16-90.44l6.51-4.06c2.44,1.77.13,5.92,1.57,8.41-22.95,9.41-34.69,33.29-36.64,56.65-1.52,14.03-.64,28.61,1.56,42.2h-7.44"/><path class="cls-1" d="m113.88,268.35c-9.2-22.61-11.03-56.31,4.47-76.71,4.82-6.57,9.91-13.36,17.41-17.4.92,2.98,2.86,5.49,2.29,8.92-23.17,20.74-24.37,57.41-15.53,85.2h-8.64"/><path class="cls-1" d="m135.51,268.35c-17.55-25.25-6.62-59.98,5.98-83.89,2.22.53,3.91,2.54,5.87,3.55-7.69,13.15-12.91,27.12-12.76,43.64.99,12.82,2.95,25.44,7.68,36.86l-6.77-.16"/><path class="cls-1" d="m350.93,197.46c-22.58,9.77-60.43,17.57-90.39,6.62-.94-2.23.12-6.16,1.91-8.33,0,0,35.79,12.78,88.48-6.51v8.23"/><path class="cls-1" d="m164.25,268.35c-11.19-21.41-12.35-47.94-7.4-73-.45-1.97-2.62-4.99-5.34-4.79-9.58,21.74-7.19,50.64,2.77,71.53l2.55,6.26h7.41"/><path class="cls-1" d="m186.82,268.35l-9.41.15c-8.3-18.68-17.29-38.82-15.63-59.97,17.27,14.14,11.09,38.42,22.14,55.4l2.9,4.42"/><path class="cls-1" d="m330.22,268.35c-39.87,3.39-61.25-3.72-89.64-18.07l2.61-7.1c29.55,19.56,77.14,24.32,107.74,3.01v8.32s-9.9,12.93-20.71,13.85"/><path class="cls-1" d="m200.69,254.16c3.34,5.73,7.76,10.19,11.79,14.19l-9.6.16c-6.05-6.79-13.31-14.83-17.37-22.28,4.89,3.31,9.5,6.83,15.18,7.93"/><path class="cls-1" d="m231.1,254.27s-6.89.12-10.91-.71c0,0,4.96,9.23,12.66,14.79h13.3s-11.58-7.83-15.06-14.08"/><path class="cls-1" d="m247.55,132.72c-1.42-.86-3.12-1.36-4.92-1.36-5.3,0-9.6,4.28-9.6,9.58l-.02.24c.23,7.25,6.02,15.27,2.69,22.61-3.03,3.39-3.02-1.36-3.97-3.6l-9.76-27.93c-1.61-2.85-2.43-3.82-9.04-4.06h-.08c-9.99,0-18.48,5.65-22.79,13.93,0,0-.14-.34-.29-.58-6.93-11.97-28.88,3.25-28.55-18.18,10.13.93,22.87-2.1,26.58,10.55v.02c2.91-2.02,3.99-5.88,5.91-8.19,3.86-4.59,8.84-6.79,15.32-7.26,8.17-.58,15.65,3.15,20.21,9.26h0c5.94-12.46,24.49-5.23,34.67-7.74l.07.08c9.23,11.5-5.23,27.9-17.98,30.41l-.02-.03c-4.42-13.15,14.88-14.25,16.11-25.81-5.89-2.58-9.02,5.97-14.52,8.09"/><path class="cls-1" d="m235.35,217.57c-3.77-1.24-9.05-2.72-17.43-2.72-18.33,0-22.41,19.56-44.52-7.99,18.4,14.87,26.69,4.92,37.48,1.08l-.09.04c2.35-1.12,4.26-3.35,4.85-5.98l.02-.05c.08-.43.16-.89.21-1.38.53-4.08.87-7.94.45-11.16-5.79-6.76-25.55-4.89-18.36-18.3,1.07-1.01,4.19,1.17,5.25,1.95,7.28,3.47,12.77,8.72,21.01,4.2,4.02-2.63,10.08-3.23,11.43-9.13,1.68,2.25,4.83,5.76,2.77,9.42-4.35,7.54-14.82,5.38-16.97,14.43-.52,1.44-2.85,12.17-.95,14.56l.12.09c4.36.69,9.61,3.25,15.78,8.23,1.84,1.35,3.49,1.91,4.95,1.98h.54c1.55-.14,3.47-1,5.32-2.43,12.44-9.56,18.23,4.55,28.38,4.03,25.56,7.65,53.84,1.35,75.34-10.31v7.81c-6.59,5.54-18.34,9.06-18.34,9.06-25.18,9.1-57.79,7.47-78.96-9.23-1.97-.28-3,2.17-4.78,3.36,7.7,11.74,21.69,16.45,33.97,20.87,22.91,4.65,47.74-.27,66.78-12.47l1.33-.52v8.42l-13.6,7.24c-28.71,13.23-65.8,5.49-90.46-10.53-.88-3.02-2.62-7.5-5.69-10.76-.74-.72-2.85-2.67-5.83-3.82"/><path class="cls-1" d="m105.63,57.86c20.11,1.57,42.15,8.42,60.57,23.59-14.08,7.83-22.94-9.83-34.32-8.86.09,16.62,8.37,2.89,18.1,15.83-6.49,2.38-15.37,8.85-20.82-9.86-7.71-26.45-18.62-11.41-23.4-20.24l-.12-.45"/></svg>