<?xml version="1.0" encoding="UTF-8"?><svg id="Capa_2" xmlns="http://www.w3.org/2000/svg" viewBox="0 0 509.88 148.61"><defs><style>.cls-1{fill:#1d1d1b;fill-rule:evenodd;stroke-width:0px;}</style></defs><g id="Layer_1"><path class="cls-1" d="M0,.14C40.55-.04,80.58,14.42,88.58,43.29l.15,100.37c-4.23-30.37-53.41-46.93-88.73-46.14V.14h0Z"/><path class="cls-1" d="M91.28,95.55v48.71c4.98-31.57,52.37-47.23,88.58-46.74v-43.38c-43.1,1.1-75.59,13.57-88.58,41.41h0Z"/><path class="cls-1" d="M179.85.14c-40.55-.18-80.58,14.28-88.58,43.15v46.88c5.9-33.31,48.39-45.23,88.58-47.88V.14h0Z"/><polygon class="cls-1" points="196.26 0 197.46 0 197.46 147.62 196.26 147.62 196.26 0 196.26 0"/><path class="cls-1" d="M213.49,93.55v-34.92h6.71l7.96,24.72c.74,2.3,1.28,4.02,1.61,5.17.38-1.27.98-3.14,1.79-5.6l8.05-24.29h5.99v34.92h-4.29v-29.23l-9.78,29.23h-4.02l-9.73-29.72v29.72h-4.29Z"/><path class="cls-1" d="M252.28,63.57v-4.93h4.14v4.93h-4.14ZM252.28,93.55v-25.29h4.14v25.29h-4.14Z"/><path class="cls-1" d="M262.71,93.55v-25.29h3.71v3.59c1.79-2.78,4.38-4.17,7.76-4.17,1.47,0,2.82.28,4.05.82,1.24.55,2.15,1.27,2.77,2.16.62.89,1.04,1.94,1.29,3.16.15.8.23,2.19.23,4.17v15.55h-4.14v-15.39c0-1.74-.16-3.05-.48-3.92-.32-.86-.89-1.55-1.71-2.06-.82-.52-1.78-.78-2.88-.78-1.76,0-3.27.59-4.56,1.74-1.28,1.16-1.91,3.36-1.91,6.6v13.81h-4.13Z"/><path class="cls-1" d="M288.87,63.57v-4.93h4.14v4.93h-4.14ZM288.87,93.55v-25.29h4.14v25.29h-4.14Z"/><path class="cls-1" d="M297.64,86l4.08-.67c.23,1.7.87,3,1.92,3.91,1.04.9,2.51,1.36,4.4,1.36s3.31-.41,4.22-1.2c.92-.81,1.38-1.75,1.38-2.82,0-.97-.41-1.73-1.22-2.29-.56-.38-1.97-.86-4.22-1.45-3.02-.8-5.13-1.48-6.3-2.06-1.17-.58-2.06-1.38-2.66-2.41-.6-1.02-.91-2.16-.91-3.39,0-1.13.25-2.17.75-3.13.49-.97,1.18-1.76,2.03-2.4.64-.49,1.52-.91,2.62-1.25,1.11-.34,2.3-.51,3.57-.51,1.91,0,3.59.29,5.04.86,1.45.57,2.52,1.34,3.21,2.32.69.98,1.16,2.28,1.42,3.92l-4.03.58c-.19-1.3-.72-2.32-1.6-3.05-.88-.73-2.12-1.1-3.73-1.1-1.9,0-3.25.33-4.06.98-.81.65-1.22,1.41-1.22,2.29,0,.56.17,1.06.51,1.5.34.46.86.84,1.58,1.15.42.15,1.63.52,3.65,1.09,2.92.81,4.96,1.47,6.11,1.99,1.16.51,2.07,1.27,2.73,2.25.66.98.99,2.2.99,3.66s-.41,2.77-1.21,4.04c-.81,1.26-1.97,2.24-3.48,2.93-1.51.69-3.23,1.03-5.14,1.03-3.17,0-5.59-.68-7.25-2.05-1.66-1.37-2.72-3.39-3.17-6.07h0Z"/><path class="cls-1" d="M331.81,89.72l.6,3.79c-1.16.25-2.2.38-3.12.38-1.5,0-2.66-.24-3.49-.74-.82-.49-1.4-1.14-1.74-1.94-.34-.8-.51-2.49-.51-5.06v-14.55h-3.03v-3.33h3.03v-6.27l4.11-2.57v8.84h4.15v3.33h-4.15v14.79c0,1.23.07,2.01.21,2.36.15.35.38.63.71.84.33.2.8.31,1.41.31.46,0,1.06-.06,1.82-.17h0Z"/><path class="cls-1" d="M352.54,85.41l4.27.54c-.67,2.59-1.92,4.6-3.74,6.03-1.82,1.42-4.15,2.14-6.98,2.14-3.57,0-6.39-1.14-8.48-3.41-2.09-2.28-3.13-5.47-3.13-9.58s1.06-7.56,3.17-9.91c2.12-2.35,4.85-3.53,8.22-3.53s5.92,1.15,7.98,3.45c2.07,2.3,3.1,5.54,3.1,9.71,0,.26,0,.64-.02,1.15h-18.18c.15,2.78.91,4.91,2.27,6.38,1.36,1.48,3.06,2.22,5.09,2.22,1.51,0,2.8-.41,3.88-1.24,1.07-.82,1.92-2.14,2.55-3.95h0ZM338.97,78.47h13.61c-.18-2.12-.71-3.72-1.56-4.78-1.32-1.65-3.02-2.48-5.12-2.48-1.9,0-3.49.66-4.79,1.98-1.29,1.32-2,3.08-2.15,5.28h0Z"/><path class="cls-1" d="M361.95,93.55v-25.29h3.71v3.83c.95-1.79,1.83-2.98,2.63-3.54.8-.57,1.68-.86,2.65-.86,1.39,0,2.8.46,4.25,1.38l-1.43,3.98c-1-.63-2.01-.93-3.02-.93-.91,0-1.71.28-2.44.85-.72.57-1.23,1.35-1.54,2.35-.46,1.52-.69,3.19-.69,5v13.24h-4.13Z"/><path class="cls-1" d="M377.67,63.57v-4.93h4.14v4.93h-4.14ZM377.67,93.55v-25.29h4.14v25.29h-4.14Z"/><path class="cls-1" d="M386.55,80.9c0-4.68,1.25-8.15,3.77-10.41,2.09-1.87,4.65-2.81,7.66-2.81,3.35,0,6.1,1.14,8.22,3.42,2.13,2.28,3.19,5.42,3.19,9.44,0,3.26-.47,5.82-1.41,7.68-.94,1.87-2.31,3.32-4.1,4.35-1.8,1.03-3.76,1.54-5.89,1.54-3.41,0-6.17-1.13-8.27-3.41-2.11-2.27-3.16-5.54-3.16-9.81h0ZM390.8,80.9c0,3.24.68,5.67,2.04,7.28,1.36,1.62,3.08,2.42,5.14,2.42s3.76-.81,5.12-2.43c1.36-1.62,2.04-4.09,2.04-7.4,0-3.13-.68-5.5-2.05-7.11-1.37-1.61-3.07-2.41-5.11-2.41s-3.78.81-5.14,2.41c-1.36,1.6-2.04,4.02-2.04,7.26h0Z"/><path class="cls-1" d="M228.92,148.04v-3.2c-1.54,2.51-3.81,3.76-6.82,3.76-1.94,0-3.73-.55-5.36-1.67-1.63-1.11-2.89-2.66-3.79-4.66-.89-1.99-1.34-4.28-1.34-6.87s.41-4.81,1.21-6.87c.81-2.06,2.03-3.63,3.65-4.72,1.62-1.1,3.44-1.65,5.44-1.65,1.47,0,2.77.33,3.92.97,1.15.64,2.08,1.48,2.81,2.51v-12.53h4.1v34.92h-3.83ZM215.86,135.42c0,3.24.66,5.67,1.97,7.27,1.32,1.6,2.87,2.41,4.66,2.41s3.34-.77,4.6-2.3c1.26-1.53,1.9-3.87,1.9-7.02,0-3.46-.64-6-1.93-7.62-1.28-1.63-2.87-2.43-4.76-2.43s-3.37.78-4.6,2.33c-1.23,1.55-1.85,4.01-1.85,7.36h0Z"/><path class="cls-1" d="M255.93,139.9l4.27.54c-.67,2.59-1.92,4.6-3.74,6.03-1.83,1.42-4.15,2.14-6.98,2.14-3.56,0-6.39-1.14-8.48-3.41-2.09-2.28-3.13-5.47-3.13-9.58s1.06-7.56,3.16-9.91c2.12-2.35,4.85-3.53,8.22-3.53s5.92,1.15,7.98,3.45c2.07,2.3,3.1,5.54,3.1,9.72,0,.26,0,.64-.02,1.15h-18.18c.15,2.78.91,4.91,2.27,6.38,1.36,1.48,3.06,2.22,5.09,2.22,1.51,0,2.8-.41,3.88-1.24,1.07-.82,1.92-2.14,2.55-3.95h0ZM242.37,132.96h13.61c-.18-2.12-.71-3.72-1.56-4.78-1.32-1.65-3.02-2.48-5.12-2.48-1.9,0-3.49.66-4.79,1.97-1.29,1.32-2.01,3.08-2.15,5.29h0Z"/><polygon class="cls-1" points="278.78 148.04 278.78 113.13 303.72 113.13 303.72 119.04 285.57 119.04 285.57 126.78 302.46 126.78 302.46 132.65 285.57 132.65 285.57 142.16 304.36 142.16 304.36 148.04 278.78 148.04 278.78 148.04"/><path class="cls-1" d="M332.43,148.04h-5.99v-3.71c-1,1.45-2.17,2.52-3.53,3.23-1.36.71-2.72,1.06-4.1,1.06-2.81,0-5.2-1.17-7.2-3.51-1.99-2.34-2.99-5.61-2.99-9.8s.97-7.55,2.91-9.78c1.94-2.23,4.4-3.35,7.37-3.35,2.72,0,5.08,1.18,7.07,3.53v-12.58h6.45v34.92h0ZM315.22,134.85c0,2.7.36,4.65,1.08,5.86,1.03,1.74,2.49,2.62,4.36,2.62,1.49,0,2.75-.66,3.79-1.97,1.03-1.31,1.56-3.27,1.56-5.87,0-2.9-.51-5-1.51-6.28-1.01-1.28-2.3-1.92-3.89-1.92s-2.8.63-3.84,1.89c-1.03,1.26-1.55,3.15-1.55,5.66h0Z"/><path class="cls-1" d="M354.84,148.04v-3.79c-.89,1.35-2.06,2.42-3.5,3.2-1.45.77-2.98,1.16-4.58,1.16s-3.1-.37-4.4-1.11c-1.3-.75-2.24-1.79-2.83-3.15-.58-1.35-.87-3.22-.87-5.6v-16h6.45v11.62c0,3.56.12,5.74.36,6.54.24.8.67,1.43,1.29,1.9.63.47,1.43.7,2.39.7,1.1,0,2.09-.31,2.96-.94.87-.63,1.46-1.41,1.79-2.33.32-.93.49-3.21.49-6.83v-10.67h6.45v25.29h-5.99Z"/><path class="cls-1" d="M388.76,130.23l-6.36,1.19c-.21-1.32-.7-2.31-1.46-2.97-.76-.67-1.74-1-2.95-1-1.61,0-2.89.58-3.85,1.72-.96,1.15-1.43,3.08-1.43,5.78,0,3,.49,5.12,1.46,6.36.97,1.24,2.27,1.85,3.91,1.85,1.23,0,2.23-.36,3.01-1.08.78-.72,1.33-1.97,1.65-3.72l6.34,1.11c-.66,3.02-1.93,5.3-3.79,6.83-1.86,1.55-4.36,2.31-7.51,2.31-3.56,0-6.41-1.16-8.52-3.5-2.12-2.33-3.18-5.57-3.18-9.7s1.07-7.42,3.19-9.75c2.13-2.33,5.01-3.5,8.63-3.5,2.97,0,5.33.67,7.08,1.99,1.75,1.33,3.01,3.35,3.78,6.06h0Z"/><path class="cls-1" d="M398.47,130.47l-5.85-1.1c.66-2.45,1.79-4.25,3.39-5.43,1.61-1.17,4-1.76,7.16-1.76,2.88,0,5.02.36,6.43,1.06,1.4.71,2.4,1.6,2.97,2.69.57,1.09.86,3.08.86,5.99l-.07,7.81c0,2.22.1,3.86.31,4.92.2,1.05.6,2.19,1.16,3.39h-6.38c-.16-.45-.38-1.11-.62-1.97-.1-.4-.18-.66-.23-.79-1.1,1.11-2.28,1.94-3.53,2.51-1.25.55-2.59.83-4.02.83-2.51,0-4.49-.71-5.93-2.11-1.45-1.42-2.17-3.2-2.17-5.37,0-1.42.33-2.7.99-3.82.66-1.12,1.58-1.98,2.77-2.57,1.18-.59,2.9-1.11,5.13-1.56,3.01-.58,5.1-1.14,6.26-1.64v-.67c0-1.29-.3-2.2-.92-2.76-.61-.54-1.76-.82-3.46-.82-1.15,0-2.04.24-2.69.71-.64.46-1.16,1.29-1.56,2.46h0ZM407.09,135.9c-.82.29-2.13.63-3.92,1.02-1.79.4-2.95.79-3.51,1.16-.84.62-1.26,1.41-1.26,2.36s.34,1.75,1.01,2.43c.67.68,1.53,1.02,2.57,1.02,1.17,0,2.27-.4,3.33-1.19.78-.6,1.29-1.34,1.54-2.22.17-.57.25-1.66.25-3.26v-1.33h0Z"/><path class="cls-1" d="M441.05,130.23l-6.36,1.19c-.21-1.32-.7-2.31-1.46-2.97-.76-.67-1.74-1-2.95-1-1.61,0-2.89.58-3.85,1.72-.96,1.15-1.43,3.08-1.43,5.78,0,3,.49,5.12,1.46,6.36.97,1.24,2.27,1.85,3.91,1.85,1.23,0,2.22-.36,3.01-1.08.78-.72,1.33-1.97,1.65-3.72l6.34,1.11c-.66,3.02-1.93,5.3-3.79,6.83-1.86,1.55-4.36,2.31-7.5,2.31-3.57,0-6.41-1.16-8.52-3.5-2.12-2.33-3.18-5.57-3.18-9.7s1.07-7.42,3.19-9.75c2.13-2.33,5.01-3.5,8.63-3.5,2.97,0,5.33.67,7.08,1.99,1.75,1.33,3.01,3.35,3.78,6.06h0Z"/><path class="cls-1" d="M445.94,119.32v-6.2h6.45v6.2h-6.45ZM445.94,148.04v-25.29h6.45v25.29h-6.45Z"/><path class="cls-1" d="M457.5,135.03c0-2.22.53-4.37,1.58-6.45,1.06-2.07,2.55-3.67,4.49-4.75,1.94-1.1,4.1-1.65,6.49-1.65,3.68,0,6.71,1.24,9.06,3.73,2.36,2.49,3.53,5.62,3.53,9.42s-1.19,6.99-3.56,9.51c-2.38,2.52-5.37,3.77-8.99,3.77-2.24,0-4.36-.52-6.39-1.57s-3.57-2.58-4.63-4.61c-1.05-2.02-1.58-4.49-1.58-7.4h0ZM464.11,135.39c0,2.51.57,4.43,1.72,5.76,1.14,1.33,2.56,2,4.25,2s3.09-.67,4.23-2c1.14-1.33,1.72-3.27,1.72-5.81s-.57-4.38-1.72-5.72c-1.14-1.33-2.55-2-4.23-2s-3.1.67-4.25,2c-1.15,1.33-1.72,3.26-1.72,5.76h0ZM466.83,119.65l3.16-7.12h7.23l-6.31,7.12h-4.08Z"/><path class="cls-1" d="M509.88,148.04h-6.45v-12.91c0-2.73-.14-4.5-.42-5.3-.27-.8-.73-1.42-1.35-1.87-.62-.44-1.36-.67-2.23-.67-1.12,0-2.12.32-3.01.95-.89.64-1.5,1.48-1.83,2.53-.33,1.05-.49,2.98-.49,5.81v11.45h-6.45v-25.29h5.99v3.71c2.13-2.86,4.81-4.29,8.04-4.29,1.42,0,2.73.27,3.9.8,1.17.54,2.07,1.21,2.67,2.04.6.83,1.03,1.76,1.26,2.81.24,1.05.36,2.55.36,4.5v15.72h0Z"/></g></svg>