<?xml version="1.0" encoding="utf-8"?>
<!-- Generator: Adobe Illustrator 26.4.1, SVG Export Plug-In . SVG Version: 6.00 Build 0)  -->
<svg version="1.1" id="Capa_1" xmlns="http://www.w3.org/2000/svg" xmlns:xlink="http://www.w3.org/1999/xlink" x="0px" y="0px"
	 viewBox="0 0 198.8 32" style="enable-background:new 0 0 198.8 32;" xml:space="preserve">
<g>
	<g>
		<g>
			<path d="M2.7,24.8L2.7,24.8c-1.8-0.7-2.7-2.7-2-4.5L7.2,2.5c0.7-1.8,2.7-2.7,4.5-2l0,0c1.8,0.7,2.7,2.7,2,4.5L7.2,22.8
				C6.5,24.6,4.5,25.5,2.7,24.8z"/>
			<path d="M21.9,24.8L21.9,24.8c-1.8-0.7-2.7-2.7-2-4.5l6.5-17.7c0.7-1.8,2.7-2.7,4.5-2l0,0c1.8,0.7,2.7,2.7,2,4.5l-6.5,17.7
				C25.7,24.6,23.7,25.5,21.9,24.8z"/>
			<path d="M9.9,31.6L9.9,31.6c-1.8-0.7-2.7-2.7-2-4.5l6.5-17.7c0.7-1.8,2.7-2.7,4.5-2l0,0c1.8,0.7,2.7,2.7,2,4.5l-6.5,17.7
				C13.8,31.3,11.7,32.3,9.9,31.6z"/>
		</g>
	</g>
	<g>
		<path d="M38.4,16.3c0-5,3.5-8.2,8.4-8.2c4.3,0,7.4,2.3,8,6.2h-5.3c-0.3-1.5-1.2-2.7-2.7-2.7c-2,0-3,1.8-3,4.7c0,3.1,1.1,4.7,3,4.7
			c1.6,0,2.4-1,2.8-2.7H55c-0.7,4-4,6.2-8.2,6.2C41.9,24.5,38.4,21.2,38.4,16.3z"/>
		<path d="M71.5,14.1L71.5,14.1v10.1h-5.3v-8.8v-0.1c0-2.5-0.8-3.6-2.4-3.6c-1.6,0-2.4,1.1-2.4,3.7v8.8h-5.3V2.3h5.2v9.4
			c0.8-2,2.3-3.7,5.1-3.7C70.1,8,71.5,10.6,71.5,14.1z"/>
		<path d="M73.5,24.2V8.6h5.3v15.5H73.5z"/>
		<circle cx="76.1" cy="4.2" r="2.7"/>
		<path d="M80.9,24.2V2.3h5.3v21.9H80.9z"/>
		<path d="M104,17.9H93c0.3,2.2,1.5,3.1,2.9,3.1c1.4,0,2-0.5,2.5-1.6h5.3c-1.1,3.4-4,5.1-7.9,5.1c-5,0-8.3-3.4-8.3-8.3
			c0-4.9,3.4-8.2,8.3-8.2c5.2,0,8.2,3.5,8.2,8.5C104.1,17,104.1,17.4,104,17.9z M93,14.5h5.6c-0.2-1.9-1.3-2.9-2.8-2.9
			C94.5,11.6,93.4,12.4,93,14.5z"/>
		<path d="M120.7,24.2H115l-3.3-5.2l-3.3,5.2h-5.7l5.6-8.4l-5.2-7.4h5.6l2.9,4.5l2.9-4.5h5.6l-5.1,7.4L120.7,24.2z"/>
		<path d="M137.7,16.3c0,4.7-2.4,8.2-6.4,8.2c-2.5,0-4.3-1.4-5-3.3v8.6h-5.2V8.4h5.2v3.4c0.7-2,2.4-3.7,5-3.7
			C135.3,8,137.7,11.6,137.7,16.3z M132.3,16.3c0-2.9-1-4.7-3.1-4.7c-2.1,0-3.1,1.8-3.1,4.7c0,2.9,1,4.7,3.1,4.7
			C131.3,21,132.3,19.2,132.3,16.3z"/>
		<path d="M144.4,12.9c0.5-2.6,2.2-4.9,5.3-4.9v5.2h-1.3c-2.7,0-3.9,1-3.9,3.5v7.4h-5.3V8.4h5.2V12.9z"/>
		<path d="M166.1,17.9h-11c0.3,2.2,1.5,3.1,2.9,3.1c1.4,0,2-0.5,2.5-1.6h5.3c-1.1,3.4-4,5.1-7.9,5.1c-5,0-8.3-3.4-8.3-8.3
			c0-4.9,3.4-8.2,8.3-8.2c5.2,0,8.2,3.5,8.2,8.5C166.2,17,166.2,17.4,166.1,17.9z M155.2,14.5h5.6c-0.2-1.9-1.3-2.9-2.8-2.9
			C156.6,11.6,155.5,12.4,155.2,14.5z"/>
		<path d="M166.7,19.3h5.3c0.3,1.2,1.4,1.7,2.7,1.7c1.6,0,2.6-0.4,2.6-1.2c0-0.7-0.5-1.1-2.6-1.6l-3.1-0.7c-3.1-0.7-4.6-2.2-4.6-4.5
			c0-3.1,3.2-5,7.2-5c3.9,0,7.1,1.5,7.7,4.7h-5.3c-0.3-0.7-1.2-1.2-2.3-1.2c-1.3,0-2.3,0.4-2.3,1.1c0,0.7,0.8,1,2.2,1.3l3.1,0.7
			c3.3,0.7,5,2.1,5,4.8c0,3.3-3.5,5.1-7.8,5.1C170.3,24.5,167.3,22.9,166.7,19.3z"/>
		<path d="M182.7,19.3h5.3c0.3,1.2,1.4,1.7,2.7,1.7c1.6,0,2.6-0.4,2.6-1.2c0-0.7-0.5-1.1-2.6-1.6l-3.1-0.7c-3.1-0.7-4.6-2.2-4.6-4.5
			c0-3.1,3.2-5,7.2-5c3.9,0,7.1,1.5,7.7,4.7h-5.3c-0.3-0.7-1.2-1.2-2.3-1.2c-1.3,0-2.3,0.4-2.3,1.1c0,0.7,0.8,1,2.2,1.3l3.1,0.7
			c3.3,0.7,5,2.1,5,4.8c0,3.3-3.5,5.1-7.8,5.1C186.3,24.5,183.3,22.9,182.7,19.3z"/>
	</g>
</g>
</svg>
