<?xml version="1.0" encoding="UTF-8" standalone="no"?>
<!-- Generator: Adobe Illustrator 19.1.0, SVG Export Plug-In . SVG Version: 6.00 Build 0)  -->

<svg
   xmlns:dc="http://purl.org/dc/elements/1.1/"
   xmlns:cc="http://creativecommons.org/ns#"
   xmlns:rdf="http://www.w3.org/1999/02/22-rdf-syntax-ns#"
   xmlns:svg="http://www.w3.org/2000/svg"
   xmlns="http://www.w3.org/2000/svg"
   xmlns:sodipodi="http://sodipodi.sourceforge.net/DTD/sodipodi-0.dtd"
   xmlns:inkscape="http://www.inkscape.org/namespaces/inkscape"
   version="1.1"
   id="Layer_1"
   x="0px"
   y="0px"
   viewBox="-235 373.9 100 28.000001"
   xml:space="preserve"
   inkscape:version="0.91 r13725"
   sodipodi:docname="logo-compensar-gris.svg"
   width="100"
   height="28"><title
     id="title4153">Compensar logo</title><metadata
     id="metadata25"><rdf:RDF><cc:Work
         rdf:about=""><dc:format>image/svg+xml</dc:format><dc:type
           rdf:resource="http://purl.org/dc/dcmitype/StillImage" /><dc:title>Compensar logo</dc:title><cc:license
           rdf:resource="http://scripts.sil.org/OFL" /></cc:Work><cc:License
         rdf:about="http://scripts.sil.org/OFL"><cc:permits
           rdf:resource="http://scripts.sil.org/pub/OFL/Reproduction" /><cc:permits
           rdf:resource="http://scripts.sil.org/pub/OFL/Distribution" /><cc:permits
           rdf:resource="http://scripts.sil.org/pub/OFL/Embedding" /><cc:permits
           rdf:resource="http://scripts.sil.org/pub/OFL/DerivativeWorks" /><cc:requires
           rdf:resource="http://scripts.sil.org/pub/OFL/Notice" /><cc:requires
           rdf:resource="http://scripts.sil.org/pub/OFL/Attribution" /><cc:requires
           rdf:resource="http://scripts.sil.org/pub/OFL/ShareAlike" /><cc:requires
           rdf:resource="http://scripts.sil.org/pub/OFL/DerivativeRenaming" /><cc:requires
           rdf:resource="http://scripts.sil.org/pub/OFL/BundlingWhenSelling" /></cc:License></rdf:RDF></metadata><defs
     id="defs23" /><sodipodi:namedview
     pagecolor="#ffffff"
     bordercolor="#666666"
     borderopacity="1"
     objecttolerance="10"
     gridtolerance="10"
     guidetolerance="10"
     inkscape:pageopacity="0"
     inkscape:pageshadow="2"
     inkscape:window-width="1366"
     inkscape:window-height="705"
     id="namedview21"
     showgrid="false"
     inkscape:showpageshadow="false"
     inkscape:zoom="8.5692897"
     inkscape:cx="56.914036"
     inkscape:cy="23.549999"
     inkscape:window-x="-8"
     inkscape:window-y="-8"
     inkscape:window-maximized="1"
     inkscape:current-layer="Layer_1" /><style
     type="text/css"
     id="style3">
	.st0{fill:#333333;}
</style><path
     class="st0"
     d="m -216.49585,378.76216 c 0,2.51356 -2.05043,4.50962 -4.54026,4.50962 -2.48982,0 -4.54025,-1.99606 -4.54025,-4.50962 0,-2.51355 2.05043,-4.50961 4.54025,-4.50961 2.48983,0 4.54026,1.99606 4.54026,4.50961"
     id="path5"
     style="fill:#ff6600"
     inkscape:connector-curvature="0" /><path
     class="st0"
     d="m -207.48857,378.76216 c 0,2.51356 -2.05043,4.50962 -4.54025,4.50962 -2.48982,0 -4.54026,-1.99606 -4.54026,-4.50962 0,-2.51355 2.05044,-4.50961 4.54026,-4.50961 2.48982,-0.0739 4.54025,1.99606 4.54025,4.50961"
     id="path7"
     style="fill:#ff6600"
     inkscape:connector-curvature="0" /><path
     class="st0"
     d="m -216.49585,396.87455 c 0,2.51356 -2.05043,4.50962 -4.54026,4.50962 -2.48982,0 -4.54025,-1.99606 -4.54025,-4.50962 0,-2.51355 2.05043,-4.50961 4.54025,-4.50961 2.48983,0 4.54026,1.99606 4.54026,4.50961"
     id="path9"
     style="fill:#ff6600"
     inkscape:connector-curvature="0" /><path
     class="st0"
     d="m -207.48857,396.87455 c 0,2.51356 -2.05043,4.50962 -4.54025,4.50962 -2.48982,0 -4.54026,-1.99606 -4.54026,-4.50962 0,-2.51355 2.05044,-4.50961 4.54026,-4.50961 2.48982,0 4.54025,1.99606 4.54025,4.50961"
     id="path11"
     style="fill:#ff6600"
     inkscape:connector-curvature="0" /><path
     class="st0"
     d="m -225.50313,387.78139 c 0,2.51356 -2.05044,4.50962 -4.54026,4.50962 -2.48982,0 -4.54026,-1.99606 -4.54026,-4.50962 0,-2.51355 2.05044,-4.50961 4.54026,-4.50961 2.48982,0 4.54026,1.99606 4.54026,4.50961"
     id="path13"
     style="fill:#ff6600"
     inkscape:connector-curvature="0" /><path
     class="st0"
     d="m -216.49585,387.78139 c 0,2.51356 -2.05043,4.50962 -4.54026,4.50962 -2.48982,0 -4.54025,-1.99606 -4.54025,-4.50962 0,-2.51355 2.05043,-4.50961 4.54025,-4.50961 2.48983,0 4.54026,1.99606 4.54026,4.50961"
     id="path15"
     style="fill:#ff6600"
     inkscape:connector-curvature="0" /><path
     class="st0"
     d="m -174.02246,384.01106 c -0.51262,0 -0.952,0.0739 -1.39138,0.29571 -0.43938,0.14786 -0.80553,0.44357 -1.17168,0.81321 l 0,-0.88714 -1.39137,0 0,9.90637 1.39137,0 0,-3.47462 c 0.36615,0.36964 0.80553,0.66535 1.24491,0.81321 0.43938,0.14786 0.95199,0.29571 1.46459,0.29571 0.58584,0 1.09846,-0.0739 1.53784,-0.29571 0.43937,-0.22178 0.87875,-0.44357 1.24491,-0.88714 0.36615,-0.36964 0.65906,-0.73928 0.80552,-1.25677 0.21969,-0.44357 0.29293,-0.96107 0.29293,-1.47857 0,-1.10892 -0.36615,-2.06998 -1.09845,-2.80927 -0.80554,-0.66535 -1.75753,-1.03499 -2.92919,-1.03499 m 1.83074,5.69247 c -0.51261,0.51749 -1.09846,0.73928 -1.83074,0.73928 -0.73231,0 -1.31815,-0.22179 -1.83076,-0.73928 -0.51261,-0.5175 -0.7323,-1.10893 -0.7323,-1.84821 0,-0.66535 0.29292,-1.25678 0.80553,-1.77427 0.5126,-0.5175 1.09845,-0.73928 1.75753,-0.73928 0.73228,0 1.31813,0.22178 1.83074,0.73928 0.5126,0.51749 0.73229,1.10892 0.73229,1.8482 0,0.66535 -0.29291,1.25678 -0.73229,1.77428 m -19.99179,-4.58355 c -0.36615,-0.36964 -0.80552,-0.66535 -1.2449,-0.88714 -0.43938,-0.22178 -0.95199,-0.29571 -1.53783,-0.29571 -0.51261,0 -1.02522,0.0739 -1.4646,0.29571 -0.51261,0.22179 -0.87876,0.5175 -1.31815,0.88714 -0.36613,0.36964 -0.65906,0.73928 -0.80552,1.25678 -0.14646,0.44357 -0.29292,0.96107 -0.29292,1.47856 0,0.5175 0.0733,0.96107 0.29292,1.47857 0.2197,0.51749 0.51261,0.88713 0.80552,1.25677 0.36616,0.36964 0.80554,0.66536 1.24493,0.88714 0.43937,0.22179 0.95197,0.29571 1.53782,0.29571 0.51261,0 1.02521,-0.0739 1.53783,-0.29571 0.51262,-0.22178 0.87875,-0.5175 1.31814,-0.96106 0.36614,-0.36965 0.58583,-0.73929 0.80554,-1.25678 0.21968,-0.44357 0.29291,-0.96107 0.29291,-1.47857 0,-0.51749 -0.0733,-0.96106 -0.29291,-1.40463 -0.21971,-0.5175 -0.51262,-0.88714 -0.87878,-1.25678 m -1.02521,4.58355 c -0.43938,0.51749 -1.09845,0.73928 -1.75752,0.73928 -0.7323,0 -1.31813,-0.22179 -1.83075,-0.73928 -0.51261,-0.5175 -0.7323,-1.10893 -0.7323,-1.84821 0,-0.73928 0.21969,-1.3307 0.7323,-1.8482 0.51262,-0.5175 1.09845,-0.73928 1.75752,-0.73928 0.7323,0 1.31814,0.22178 1.75752,0.73928 0.51261,0.5175 0.73229,1.10892 0.73229,1.8482 0.0733,0.73928 -0.14645,1.33071 -0.65906,1.84821 m -10.39866,-4.43569 c 0.51262,0 0.95199,0.14785 1.31814,0.36964 0.36616,0.22178 0.65907,0.59142 0.952,1.03499 l 1.4646,0 c -0.29293,-0.81321 -0.73231,-1.47856 -1.39138,-1.99606 -0.65906,-0.44357 -1.39137,-0.66535 -2.27012,-0.66535 -0.58584,0 -1.09846,0.0739 -1.53783,0.29571 -0.51262,0.22179 -0.952,0.5175 -1.31815,0.96107 -0.36614,0.36964 -0.58584,0.81321 -0.80553,1.25678 -0.14645,0.44357 -0.29292,0.96106 -0.29292,1.47856 0,0.5175 0.0733,0.96106 0.29292,1.47856 0.21969,0.5175 0.43939,0.88714 0.80553,1.25678 0.36615,0.36964 0.80553,0.66535 1.24492,0.88714 0.43938,0.22178 0.95198,0.29571 1.53782,0.29571 0.87876,0 1.6843,-0.22178 2.27014,-0.66535 0.65906,-0.44357 1.09844,-1.10893 1.39136,-1.99606 l -1.4646,0 c -0.21969,0.44357 -0.5126,0.81321 -0.87876,1.03499 -0.36615,0.22179 -0.80552,0.36964 -1.31814,0.36964 -0.7323,0 -1.31813,-0.22178 -1.75751,-0.73928 -0.51262,-0.5175 -0.73231,-1.10892 -0.73231,-1.8482 0,-0.73928 0.21969,-1.33071 0.73231,-1.84821 0.51261,-0.73928 1.09844,-0.96106 1.75751,-0.96106 m 21.38315,-1.18285 c -0.58583,0 -1.02521,0.0739 -1.39137,0.29571 -0.36615,0.22178 -0.73229,0.5175 -0.95198,0.96107 -0.21969,-0.44357 -0.51261,-0.73929 -0.87877,-0.96107 -0.36615,-0.22178 -0.80552,-0.29571 -1.39136,-0.29571 -0.43938,0 -0.80553,0.0739 -1.09845,0.22178 -0.29292,0.14786 -0.58585,0.44357 -0.87877,0.73928 l 0,-0.88713 -1.2449,0 0,7.39281 1.31813,0 0,-3.77034 c 0,-0.88713 0.14646,-1.47856 0.43938,-1.92213 0.29293,-0.44357 0.7323,-0.59142 1.31814,-0.59142 0.58585,0 0.952,0.22178 1.24491,0.59142 0.29292,0.36964 0.36615,1.035 0.36615,1.92213 l 0,3.69641 1.31815,0 0,-3.84426 c 0,-0.88714 0.14645,-1.47856 0.36614,-1.8482 0.29292,-0.36965 0.65908,-0.59143 1.24492,-0.59143 0.5126,0 0.87875,0.14786 1.17167,0.5175 0.29293,0.36964 0.43939,0.81321 0.43939,1.47856 l 0,4.28783 1.39137,0 0,-4.50961 c 0,-0.88714 -0.29293,-1.62642 -0.80554,-2.14392 -0.43938,-0.5175 -1.09845,-0.73928 -1.97721,-0.73928 m 40.93555,0.96106 c -0.36614,-0.36964 -0.7323,-0.66535 -1.17168,-0.81321 -0.43938,-0.14785 -0.95198,-0.29571 -1.4646,-0.29571 -0.58584,0 -1.09844,0.0739 -1.53782,0.29571 -0.43938,0.22179 -0.87877,0.44357 -1.24491,0.88714 -0.36615,0.36964 -0.58584,0.73928 -0.80553,1.25678 -0.21969,0.44357 -0.29293,0.96107 -0.29293,1.47856 0,1.10892 0.36615,2.06999 1.09846,2.80927 0.73229,0.73928 1.68429,1.10892 2.85596,1.10892 0.51261,0 0.95199,-0.0739 1.39137,-0.29571 0.43938,-0.14786 0.80554,-0.44357 1.17168,-0.81321 l 0,0.88714 1.39138,0 0,-7.39281 -1.39138,0 0,0.88713 0,0 z m -0.65907,4.65748 c -0.51261,0.51749 -1.09845,0.73928 -1.75751,0.73928 -0.73231,0 -1.39137,-0.22179 -1.90399,-0.73928 -0.5126,-0.5175 -0.7323,-1.10893 -0.7323,-1.84821 0,-0.73928 0.2197,-1.3307 0.7323,-1.77427 0.51262,-0.5175 1.09845,-0.73928 1.83075,-0.73928 0.7323,0 1.31814,0.22178 1.83075,0.73928 0.51261,0.51749 0.7323,1.10892 0.7323,1.8482 0,0.66535 -0.21969,1.25678 -0.7323,1.77428 m 5.71194,-5.39676 c -0.29292,0.14786 -0.58584,0.36964 -0.80553,0.73928 l 0,-0.88713 -1.31814,0 0,7.39281 1.39137,0 0,-4.06605 c 0,-0.66535 0.14646,-1.18285 0.36615,-1.47856 0.29292,-0.29571 0.7323,-0.44357 1.31814,-0.5175 l 0,-1.40463 c -0.36615,0 -0.65908,0.0739 -0.95199,0.22178 m -13.98692,2.95713 c -0.14647,-0.0739 -0.29292,-0.0739 -0.51261,-0.14786 -0.73231,-0.29571 -1.09845,-0.59142 -1.09845,-1.03499 0,-0.22179 0.0733,-0.44357 0.21968,-0.59143 0.14646,-0.14785 0.36615,-0.22178 0.58584,-0.22178 0.29293,0 0.51262,0.0739 0.65907,0.22178 0.14647,0.14786 0.21969,0.36964 0.29293,0.66536 l 1.31813,0 c -0.0733,-0.66536 -0.21969,-1.18285 -0.65907,-1.5525 -0.36615,-0.36964 -0.87875,-0.51749 -1.53783,-0.51749 -0.58583,0 -1.17167,0.22178 -1.61106,0.66535 -0.43938,0.44357 -0.65907,0.96107 -0.65907,1.55249 0,0.36964 0.0733,0.66536 0.21969,0.88714 0.14647,0.29571 0.29293,0.5175 0.58585,0.73928 0.14646,0.14786 0.51261,0.29571 1.02521,0.44357 0.21969,0.0739 0.36615,0.14786 0.43938,0.14786 0.29293,0.14785 0.58584,0.29571 0.73231,0.44356 0.14646,0.14786 0.21968,0.36965 0.21968,0.66536 0,0.29571 -0.0733,0.51749 -0.29291,0.73928 -0.21969,0.22178 -0.43938,0.29571 -0.80553,0.29571 -0.36616,0 -0.58584,-0.14785 -0.80553,-0.36964 -0.21969,-0.22178 -0.36615,-0.59142 -0.36615,-0.96106 l -1.31814,0 c 0.0733,0.8132 0.29292,1.40463 0.7323,1.92213 0.43938,0.44357 1.02522,0.66535 1.68428,0.66535 0.73231,0 1.24492,-0.22178 1.75752,-0.66535 0.43938,-0.44357 0.65907,-0.96107 0.65907,-1.62642 0,-0.59143 -0.14645,-1.035 -0.36614,-1.33071 -0.0733,-0.59142 -0.51262,-0.81321 -1.09845,-1.03499 m -12.08294,-1.92213 c -0.36616,-0.36964 -0.73231,-0.66536 -1.09847,-0.88714 -0.36613,-0.22179 -0.73228,-0.36964 -1.17166,-0.44357 -0.65908,-0.14786 -1.31814,-0.0739 -1.90399,0.0739 -0.65906,0.14785 -1.17168,0.51749 -1.61106,0.96106 -0.36615,0.36964 -0.65906,0.81321 -0.87875,1.25678 -0.21969,0.44357 -0.29293,0.96107 -0.21969,1.55249 0,0.5175 0.14646,0.96107 0.29292,1.40464 0.21968,0.44357 0.51261,0.81321 0.87876,1.18285 0.36614,0.36964 0.80553,0.66535 1.31813,0.81321 0.51262,0.22178 1.02523,0.29571 1.53783,0.29571 0.51261,0 1.02523,-0.0739 1.53783,-0.22179 0.36615,-0.14785 0.7323,-0.36964 1.02522,-0.66535 l 0,-1.92213 c 0,0 0,0.0739 0,0.0739 0,0 0,-0.14786 -0.0733,0 -0.21968,0.36964 -0.29291,0.44357 -0.65906,0.73928 -0.43938,0.44357 -0.952,0.66535 -1.53783,0.73928 -0.58584,0.0739 -1.17169,-0.14786 -1.68429,-0.44357 l 4.54025,-4.36176 -0.29291,-0.14785 z m -5.19933,3.6964 c -0.29292,-0.51749 -0.43938,-1.03499 -0.36616,-1.62642 0.0733,-0.51749 0.29293,-1.03499 0.73231,-1.40463 0.43937,-0.36964 0.87875,-0.66535 1.39137,-0.66535 0.5126,-0.0739 1.09844,0.0739 1.68428,0.36964 l -3.4418,3.32676 z m 9.88604,-4.95318 c -0.43938,0 -0.80553,0.0739 -1.17168,0.22178 -0.36614,0.14786 -0.65907,0.36964 -0.95199,0.73928 l 0,-0.81321 -1.31814,0 0,7.39282 1.39137,0 0,-3.32677 c 0,-1.03499 0.14646,-1.77427 0.43938,-2.21784 0.29293,-0.44357 0.80553,-0.66536 1.4646,-0.66536 0.65907,0 1.09845,0.22179 1.39136,0.59143 0.29293,0.36964 0.43939,0.96107 0.43939,1.77427 l 0,3.9182 1.39137,0 0,-4.21391 c 0,-1.03499 -0.29293,-1.8482 -0.80552,-2.43963 -0.51262,-0.73928 -1.24493,-0.96106 -2.27014,-0.96106"
     id="path17"
     inkscape:connector-curvature="0"
     style="fill:#333333" /><path
     class="st0"
     d="m -174.02246,384.01106 c -0.51262,0 -0.952,0.0739 -1.39138,0.29571 -0.43938,0.14786 -0.80553,0.44357 -1.17168,0.81321 l 0,-0.88714 -1.39137,0 0,9.90637 1.39137,0 0,-3.47462 c 0.36615,0.36964 0.80553,0.66535 1.24491,0.81321 0.43938,0.14786 0.95199,0.29571 1.46459,0.29571 0.58584,0 1.09846,-0.0739 1.53784,-0.29571 0.43937,-0.22178 0.87875,-0.44357 1.24491,-0.88714 0.36615,-0.36964 0.65906,-0.73928 0.80552,-1.25677 0.21969,-0.44357 0.29293,-0.96107 0.29293,-1.47857 0,-1.10892 -0.36615,-2.06998 -1.09845,-2.80927 -0.80554,-0.66535 -1.75753,-1.03499 -2.92919,-1.03499 z m 1.83074,5.69247 c -0.51261,0.51749 -1.09846,0.73928 -1.83074,0.73928 -0.73231,0 -1.31815,-0.22179 -1.83076,-0.73928 -0.51261,-0.5175 -0.7323,-1.10893 -0.7323,-1.84821 0,-0.66535 0.29292,-1.25678 0.80553,-1.77427 0.5126,-0.5175 1.09845,-0.73928 1.75753,-0.73928 0.73228,0 1.31813,0.22178 1.83074,0.73928 0.5126,0.51749 0.73229,1.10892 0.73229,1.8482 0,0.66535 -0.29291,1.25678 -0.73229,1.77428 z m -19.99179,-4.58355 c -0.36615,-0.36964 -0.80552,-0.66535 -1.2449,-0.88714 -0.43938,-0.22178 -0.95199,-0.29571 -1.53783,-0.29571 -0.51261,0 -1.02522,0.0739 -1.4646,0.29571 -0.51261,0.22179 -0.87876,0.5175 -1.31815,0.88714 -0.36613,0.36964 -0.65906,0.73928 -0.80552,1.25678 -0.14646,0.44357 -0.29292,0.96107 -0.29292,1.47856 0,0.5175 0.0733,0.96107 0.29292,1.47857 0.2197,0.51749 0.51261,0.88713 0.80552,1.25677 0.36616,0.36964 0.80554,0.66536 1.24493,0.88714 0.43937,0.22179 0.95197,0.29571 1.53782,0.29571 0.51261,0 1.02521,-0.0739 1.53783,-0.29571 0.51262,-0.22178 0.87875,-0.5175 1.31814,-0.96106 0.36614,-0.36965 0.58583,-0.73929 0.80554,-1.25678 0.21968,-0.44357 0.29291,-0.96107 0.29291,-1.47857 0,-0.51749 -0.0733,-0.96106 -0.29291,-1.40463 -0.21971,-0.5175 -0.51262,-0.88714 -0.87878,-1.25678 z m -1.02521,4.58355 c -0.43938,0.51749 -1.09845,0.73928 -1.75752,0.73928 -0.7323,0 -1.31813,-0.22179 -1.83075,-0.73928 -0.51261,-0.5175 -0.7323,-1.10893 -0.7323,-1.84821 0,-0.73928 0.21969,-1.3307 0.7323,-1.8482 0.51262,-0.5175 1.09845,-0.73928 1.75752,-0.73928 0.7323,0 1.31814,0.22178 1.75752,0.73928 0.51261,0.5175 0.73229,1.10892 0.73229,1.8482 0.0733,0.73928 -0.14645,1.33071 -0.65906,1.84821 z m -10.39866,-4.43569 c 0.51262,0 0.95199,0.14785 1.31814,0.36964 0.36616,0.22178 0.65907,0.59142 0.952,1.03499 l 1.4646,0 c -0.29293,-0.81321 -0.73231,-1.47856 -1.39138,-1.99606 -0.65906,-0.44357 -1.39137,-0.66535 -2.27012,-0.66535 -0.58584,0 -1.09846,0.0739 -1.53783,0.29571 -0.51262,0.22179 -0.952,0.5175 -1.31815,0.96107 -0.36614,0.36964 -0.58584,0.81321 -0.80553,1.25678 -0.14645,0.44357 -0.29292,0.96106 -0.29292,1.47856 0,0.5175 0.0733,0.96106 0.29292,1.47856 0.21969,0.5175 0.43939,0.88714 0.80553,1.25678 0.36615,0.36964 0.80553,0.66535 1.24492,0.88714 0.43938,0.22178 0.95198,0.29571 1.53782,0.29571 0.87876,0 1.6843,-0.22178 2.27014,-0.66535 0.65906,-0.44357 1.09844,-1.10893 1.39136,-1.99606 l -1.4646,0 c -0.21969,0.44357 -0.5126,0.81321 -0.87876,1.03499 -0.36615,0.22179 -0.80552,0.36964 -1.31814,0.36964 -0.7323,0 -1.31813,-0.22178 -1.75751,-0.73928 -0.51262,-0.5175 -0.73231,-1.10892 -0.73231,-1.8482 0,-0.73928 0.21969,-1.33071 0.73231,-1.84821 0.51261,-0.73928 1.09844,-0.96106 1.75751,-0.96106 z m 21.38315,-1.18285 c -0.58583,0 -1.02521,0.0739 -1.39137,0.29571 -0.36615,0.22178 -0.73229,0.5175 -0.95198,0.96107 -0.21969,-0.44357 -0.51261,-0.73929 -0.87877,-0.96107 -0.36615,-0.22178 -0.80552,-0.29571 -1.39136,-0.29571 -0.43938,0 -0.80553,0.0739 -1.09845,0.22178 -0.29292,0.14786 -0.58585,0.44357 -0.87877,0.73928 l 0,-0.88713 -1.2449,0 0,7.39281 1.31813,0 0,-3.77034 c 0,-0.88713 0.14646,-1.47856 0.43938,-1.92213 0.29293,-0.44357 0.7323,-0.59142 1.31814,-0.59142 0.58585,0 0.952,0.22178 1.24491,0.59142 0.29292,0.36964 0.36615,1.035 0.36615,1.92213 l 0,3.69641 1.31815,0 0,-3.84426 c 0,-0.88714 0.14645,-1.47856 0.36614,-1.8482 0.29292,-0.36965 0.65908,-0.59143 1.24492,-0.59143 0.5126,0 0.87875,0.14786 1.17167,0.5175 0.29293,0.36964 0.43939,0.81321 0.43939,1.47856 l 0,4.28783 1.39137,0 0,-4.50961 c 0,-0.88714 -0.29293,-1.62642 -0.80554,-2.14392 -0.43938,-0.5175 -1.09845,-0.73928 -1.97721,-0.73928 z m 40.93555,0.96106 c -0.36614,-0.36964 -0.7323,-0.66535 -1.17168,-0.81321 -0.43938,-0.14785 -0.95198,-0.29571 -1.4646,-0.29571 -0.58584,0 -1.09844,0.0739 -1.53782,0.29571 -0.43938,0.22179 -0.87877,0.44357 -1.24491,0.88714 -0.36615,0.36964 -0.58584,0.73928 -0.80553,1.25678 -0.21969,0.44357 -0.29293,0.96107 -0.29293,1.47856 0,1.10892 0.36615,2.06999 1.09846,2.80927 0.73229,0.73928 1.68429,1.10892 2.85596,1.10892 0.51261,0 0.95199,-0.0739 1.39137,-0.29571 0.43938,-0.14786 0.80554,-0.44357 1.17168,-0.81321 l 0,0.88714 1.39138,0 0,-7.39281 -1.39138,0 0,0.88713 0,0 z m -0.65907,4.65748 c -0.51261,0.51749 -1.09845,0.73928 -1.75751,0.73928 -0.73231,0 -1.39137,-0.22179 -1.90399,-0.73928 -0.5126,-0.5175 -0.7323,-1.10893 -0.7323,-1.84821 0,-0.73928 0.2197,-1.3307 0.7323,-1.77427 0.51262,-0.5175 1.09845,-0.73928 1.83075,-0.73928 0.7323,0 1.31814,0.22178 1.83075,0.73928 0.51261,0.51749 0.7323,1.10892 0.7323,1.8482 0,0.66535 -0.21969,1.25678 -0.7323,1.77428 z m 5.71194,-5.39676 c -0.29292,0.14786 -0.58584,0.36964 -0.80553,0.73928 l 0,-0.88713 -1.31814,0 0,7.39281 1.39137,0 0,-4.06605 c 0,-0.66535 0.14646,-1.18285 0.36615,-1.47856 0.29292,-0.29571 0.7323,-0.44357 1.31814,-0.5175 l 0,-1.40463 c -0.36615,0 -0.65908,0.0739 -0.95199,0.22178 z m -13.98692,2.95713 c -0.14647,-0.0739 -0.29292,-0.0739 -0.51261,-0.14786 -0.73231,-0.29571 -1.09845,-0.59142 -1.09845,-1.03499 0,-0.22179 0.0733,-0.44357 0.21968,-0.59143 0.14646,-0.14785 0.36615,-0.22178 0.58584,-0.22178 0.29293,0 0.51262,0.0739 0.65907,0.22178 0.14647,0.14786 0.21969,0.36964 0.29293,0.66536 l 1.31813,0 c -0.0733,-0.66536 -0.21969,-1.18285 -0.65907,-1.5525 -0.36615,-0.36964 -0.87875,-0.51749 -1.53783,-0.51749 -0.58583,0 -1.17167,0.22178 -1.61106,0.66535 -0.43938,0.44357 -0.65907,0.96107 -0.65907,1.55249 0,0.36964 0.0733,0.66536 0.21969,0.88714 0.14647,0.29571 0.29293,0.5175 0.58585,0.73928 0.14646,0.14786 0.51261,0.29571 1.02521,0.44357 0.21969,0.0739 0.36615,0.14786 0.43938,0.14786 0.29293,0.14785 0.58584,0.29571 0.73231,0.44356 0.14646,0.14786 0.21968,0.36965 0.21968,0.66536 0,0.29571 -0.0733,0.51749 -0.29291,0.73928 -0.21969,0.22178 -0.43938,0.29571 -0.80553,0.29571 -0.36616,0 -0.58584,-0.14785 -0.80553,-0.36964 -0.21969,-0.22178 -0.36615,-0.59142 -0.36615,-0.96106 l -1.31814,0 c 0.0733,0.8132 0.29292,1.40463 0.7323,1.92213 0.43938,0.44357 1.02522,0.66535 1.68428,0.66535 0.73231,0 1.24492,-0.22178 1.75752,-0.66535 0.43938,-0.44357 0.65907,-0.96107 0.65907,-1.62642 0,-0.59143 -0.14645,-1.035 -0.36614,-1.33071 -0.0733,-0.59142 -0.51262,-0.81321 -1.09845,-1.03499 z m -12.08294,-1.92213 c -0.36616,-0.36964 -0.73231,-0.66536 -1.09847,-0.88714 -0.36613,-0.22179 -0.73228,-0.36964 -1.17166,-0.44357 -0.65908,-0.14786 -1.31814,-0.0739 -1.90399,0.0739 -0.65906,0.14785 -1.17168,0.51749 -1.61106,0.96106 -0.36615,0.36964 -0.65906,0.81321 -0.87875,1.25678 -0.21969,0.44357 -0.29293,0.96107 -0.21969,1.55249 0,0.5175 0.14646,0.96107 0.29292,1.40464 0.21968,0.44357 0.51261,0.81321 0.87876,1.18285 0.36614,0.36964 0.80553,0.66535 1.31813,0.81321 0.51262,0.22178 1.02523,0.29571 1.53783,0.29571 0.51261,0 1.02523,-0.0739 1.53783,-0.22179 0.36615,-0.14785 0.7323,-0.36964 1.02522,-0.66535 l 0,-1.92213 c 0,0 0,0.0739 0,0.0739 0,0 0,-0.14786 -0.0733,0 -0.21968,0.36964 -0.29291,0.44357 -0.65906,0.73928 -0.43938,0.44357 -0.952,0.66535 -1.53783,0.73928 -0.58584,0.0739 -1.17169,-0.14786 -1.68429,-0.44357 l 4.54025,-4.36176 -0.29291,-0.14785 z m -5.19933,3.6964 c -0.29292,-0.51749 -0.43938,-1.03499 -0.36616,-1.62642 0.0733,-0.51749 0.29293,-1.03499 0.73231,-1.40463 0.43937,-0.36964 0.87875,-0.66535 1.39137,-0.66535 0.5126,-0.0739 1.09844,0.0739 1.68428,0.36964 l -3.4418,3.32676 z m 9.88604,-4.95318 c -0.43938,0 -0.80553,0.0739 -1.17168,0.22178 -0.36614,0.14786 -0.65907,0.36964 -0.95199,0.73928 l 0,-0.81321 -1.31814,0 0,7.39282 1.39137,0 0,-3.32677 c 0,-1.03499 0.14646,-1.77427 0.43938,-2.21784 0.29293,-0.44357 0.80553,-0.66536 1.4646,-0.66536 0.65907,0 1.09845,0.22179 1.39136,0.59143 0.29293,0.36964 0.43939,0.96107 0.43939,1.77427 l 0,3.9182 1.39137,0 0,-4.21391 c 0,-1.03499 -0.29293,-1.8482 -0.80552,-2.43963 -0.51262,-0.73928 -1.24493,-0.96106 -2.27014,-0.96106 z"
     id="path19"
     inkscape:connector-curvature="0"
     style="fill:#333333" /></svg>