<?xml version="1.0" encoding="utf-8"?>
<!-- Generator: Adobe Illustrator 26.3.1, SVG Export Plug-In . SVG Version: 6.00 Build 0)  -->
<svg version="1.1" id="Capa_1" xmlns="http://www.w3.org/2000/svg" xmlns:xlink="http://www.w3.org/1999/xlink" x="0px" y="0px"
	 viewBox="0 0 575 255" style="enable-background:new 0 0 575 255;" xml:space="preserve">
<style type="text/css">
	.st0{fill:#6A6769;}
	.st1{fill:#AEC452;}
	.st2{fill:url(#SVGID_1_);}
	.st3{opacity:0.43;fill:url(#SVGID_00000167383378528744783550000011208695897243114391_);}
	.st4{fill:url(#SVGID_00000010294669815348597140000000055479322381847449_);}
	.st5{fill:url(#SVGID_00000024720025103184776250000002538057029024269216_);}
	.st6{fill:#3981C0;}
</style>
<g>
	<g>
		<path class="st0" d="M280.1,212.3c-3.7,0-5.5-2.2-5.5-6.6v-8.9h1.9v8.7c0,3.7,0.9,5.1,3.7,5.1c2.8,0,3.7-1.5,3.7-5.1v-8.7h1.9v8.9
			C285.6,210,283.8,212.3,280.1,212.3z"/>
		<path class="st0" d="M295.7,212v-7.2c0-2.1-0.3-2.8-1.9-2.8c-0.9,0-2.1,0.3-3.6,1v9h-1.8v-11.3h1.8v0.9c1.3-0.7,2.5-1.2,3.8-1.2
			c3,0,3.5,1.6,3.5,4.4v7.2H295.7z"/>
		<path class="st0" d="M306.7,212v-0.8c-0.7,0.5-1.9,1-3.6,1c-2.1,0-3.4-0.9-3.4-3.2v-0.4c0-3,2-3.5,5.2-3.5h1.7v-0.8
			c0-2-0.4-2.4-2.6-2.4c-1.3,0-2.3,0.1-3.5,0.2v-1.3c0.3-0.1,1.9-0.5,3.6-0.5c3.8,0,4.4,1.4,4.4,3.9v7.6H306.7z M306.6,206.6h-1.7
			c-2.4,0-3.3,0.3-3.3,2.1v0.6c0,1.3,0.8,1.6,1.9,1.6c1.3,0,2.7-0.6,3.1-0.9V206.6z"/>
		<path class="st0" d="M315.9,207v0.2c0,1.9,0.3,3.4,3.4,3.4c1.3,0,2.9-0.1,3.9-0.3v1.5c-0.8,0.2-2.2,0.5-4,0.5
			c-4,0-5.2-1.8-5.2-5.4V206c0-3.6,1.6-5.6,4.8-5.6c3.3,0,4.8,2,4.8,5.8v0.8H315.9z M321.8,205.3c0-1.4-0.3-3.3-2.9-3.3
			c-2.6,0-2.9,1.9-2.9,3.3v0.2h5.9V205.3z"/>
		<path class="st0" d="M338.6,212v-7.5c0-1.6,0-2.5-1.7-2.5c-0.8,0-1.9,0.4-2.9,0.9c0.1,0.5,0.1,1.1,0.1,1.6v7.5h-1.8v-7.5
			c0-1.6,0-2.5-1.5-2.5c-1,0-2.1,0.5-2.9,1v9H326v-11.3h1.8v0.9c0.9-0.7,2.1-1.2,3.4-1.2c1.3,0,2.1,0.5,2.5,1.2
			c1.3-0.9,2.5-1.2,3.5-1.2c3.3,0,3.3,2.3,3.3,4.1v7.5H338.6z"/>
		<path class="st0" d="M347.5,212.3c-0.8,0-1.8-0.1-2.5-0.3v4.4h-1.8v-15.6h1.8v0.8c1-0.7,2.2-1,3.3-1c2.6,0,4.1,1.5,4.1,5.3v1.1
			C352.3,211.1,350.2,212.3,347.5,212.3z M350.5,205.6c0-2.8-0.9-3.6-2.5-3.6c-0.9,0-1.6,0.2-2.9,0.8v7.5c0.9,0.2,1.8,0.3,2.5,0.3
			c1.8,0,3-0.6,3-3.9V205.6z"/>
		<path class="st0" d="M356.4,203v9h-1.8v-11.3h1.8v0.9c1.1-0.8,2.4-1.2,4-1.2v1.6C358.9,202,357.3,202.4,356.4,203z"/>
		<path class="st0" d="M363,207v0.2c0,1.9,0.3,3.4,3.4,3.4c1.3,0,2.9-0.1,3.9-0.3v1.5c-0.8,0.2-2.2,0.5-4,0.5c-4,0-5.2-1.8-5.2-5.4
			V206c0-3.6,1.6-5.6,4.8-5.6c3.3,0,4.8,2,4.8,5.8v0.8H363z M368.8,205.3c0-1.4-0.3-3.3-2.9-3.3c-2.6,0-2.9,1.9-2.9,3.3v0.2h5.9
			V205.3z"/>
		<path class="st0" d="M376.3,212.3c-1.6,0-3.3-0.3-3.7-0.5v-1.4c0.7,0.1,2.3,0.3,3.6,0.3c1.9,0,2.4-0.5,2.4-1.5
			c0-1-0.3-1.3-2.3-2.1l-0.8-0.3c-2.2-0.9-3.1-1.8-3.1-3.5c0-1.9,1.3-2.8,4.1-2.8c1.5,0,3,0.3,3.4,0.4v1.4c-1.2-0.1-2.5-0.2-3.3-0.2
			c-1.6,0-2.3,0.2-2.3,1.2c0,0.9,0.4,1.3,2,1.9l0.8,0.3c2.6,1.2,3.4,1.9,3.4,3.6C380.5,210.7,379.7,212.3,376.3,212.3z"/>
		<path class="st0" d="M388.9,212v-0.8c-0.7,0.5-1.9,1-3.6,1c-2.1,0-3.4-0.9-3.4-3.2v-0.4c0-3,2-3.5,5.2-3.5h1.7v-0.8
			c0-2-0.4-2.4-2.6-2.4c-1.3,0-2.3,0.1-3.5,0.2v-1.3c0.3-0.1,1.9-0.5,3.6-0.5c3.8,0,4.4,1.4,4.4,3.9v7.6H388.9z M388.9,206.6h-1.7
			c-2.4,0-3.3,0.3-3.3,2.1v0.6c0,1.3,0.8,1.6,1.9,1.6c1.3,0,2.7-0.6,3.1-0.9V206.6z"/>
	</g>
	<g id="XMLID_00000147929546291829789620000005545328353328205697_">
		<g id="XMLID_00000066504183528878901880000012810883557046470332_">
			<g id="XMLID_00000089548646464205045630000005315992030886399913_">
				<path id="XMLID_00000101803754745600076270000009951662462351808162_" class="st0" d="M402.9,206.9v5.4h-2.4v-16.9h6.1
					c3.7,0,5.5,1.8,5.5,5.6c0,3.7-1.8,5.9-5.5,5.9H402.9z M406.7,204.6c2.2,0,3.1-1.4,3.1-3.7c0-2.3-1-3.3-3.1-3.3h-3.8v7H406.7z"/>
				<path id="XMLID_00000052070805018714152410000014506695464795688851_" class="st0" d="M421.8,206.2h-4.3v6.1h-2.4v-16.9h6.3
					c3.7,0,5.5,1.6,5.5,5.3c0,2.6-0.9,4.1-2.9,4.9l3,6.7h-2.6L421.8,206.2z M421.5,197.6h-3.9v6.3h4c2.3,0,3.1-1.3,3.1-3.2
					C424.6,198.6,423.6,197.6,421.5,197.6z"/>
				<path id="XMLID_00000005229518425677232580000005583598266873035176_" class="st0" d="M429.5,203.9c0-5.6,1.5-8.8,6.7-8.8
					c5.2,0,6.7,3.2,6.7,8.8c0,5.8-1.5,8.6-6.7,8.6C431,212.5,429.5,209.5,429.5,203.9z M440.5,203.9c0-4.2-0.8-6.5-4.3-6.5
					c-3.5,0-4.3,2.3-4.3,6.5c0,4.2,0.8,6.3,4.3,6.3C439.7,210.2,440.5,208.2,440.5,203.9z"/>
				<path id="XMLID_00000002384513732251141660000007248252605109351046_" class="st0" d="M446.1,195.3h4l4.4,13.5l4.4-13.5h3.9
					v16.9h-2.4v-14H460l-4.3,13.4h-2.5l-4.3-13.4h-0.4v14h-2.4V195.3z"/>
				<path id="XMLID_00000093892994588024698980000000378721060532165820_" class="st0" d="M466.7,195.3h2.4v16.9h-2.4V195.3z"/>
				<path id="XMLID_00000035512553313053093590000014280696197245337757_" class="st1" d="M479.7,203.5h4.7v8.4c0,0-3.5,0.6-5.5,0.6
					c-5.2,0-6.6-3.2-6.6-8.7c0-5.7,1.5-8.7,6.5-8.7c2.6,0,5.6,0.7,5.6,0.7l-0.1,2.1c0,0-3-0.4-5.2-0.4c-3.6,0-4.4,1.9-4.4,6.4
					c0,4.5,0.8,6.4,4.4,6.4c1.3,0,2.9-0.3,3-0.3v-4.3h-2.4V203.5z"/>
				<path id="XMLID_00000010284360155748774430000001778495822728244389_" class="st1" d="M490.7,195.3h4.8l4.3,16.9h-2.4l-1.1-3.8
					h-6.6l-1,3.8h-2.4L490.7,195.3z M490.3,206.2h5.6l-2.2-8.6h-1.2L490.3,206.2z"/>
				<path id="XMLID_00000064331968554577169250000004485713429574583967_" class="st1" d="M511.9,197.7c0,0-3.4-0.4-4.8-0.4
					c-2.2,0-3.3,0.7-3.3,2.4c0,1.8,1,2.2,3.9,2.9c3.4,0.9,4.8,1.8,4.8,4.8c0,3.6-2.2,5.1-5.6,5.1c-1.8,0-5.1-0.6-5.1-0.6l0.2-2.1
					c0,0,3.1,0.4,4.9,0.4c2.2,0,3.3-0.8,3.3-2.7c0-1.6-0.9-2.1-3.5-2.7c-3.6-0.8-5.2-1.8-5.2-5c0-3.2,2.2-4.7,5.7-4.7
					c1.9,0,5,0.6,5,0.6L511.9,197.7z"/>
			</g>
		</g>
	</g>
</g>
<g>
	<g>
		
			<linearGradient id="SVGID_1_" gradientUnits="userSpaceOnUse" x1="3842.9287" y1="3016.094" x2="3774.6421" y2="3089.1223" gradientTransform="matrix(-0.8865 0.4628 -0.4628 -0.8865 4864.3696 1053.5685)">
			<stop  offset="0.2413" style="stop-color:#2D2E78"/>
			<stop  offset="1" style="stop-color:#78C1EA"/>
		</linearGradient>
		<path class="st2" d="M56.1,97.4c-7.5,26.8,5.5,55.6,28.8,69.1c0.6-16.4,11.1-32.5,15.4-48.4c9.2-33.7,0-60.8-29.2-83.1l-4.4,6.1
			c5.2,9.4,7.1,18.2,3.7,28.1C66.5,80.7,59.5,85.7,56.1,97.4z"/>
		
			<linearGradient id="SVGID_00000068667338606985321050000004077869002241834926_" gradientUnits="userSpaceOnUse" x1="2347.5527" y1="4177.7744" x2="2358.1096" y2="4196.5181" gradientTransform="matrix(-0.6153 0.7884 -0.7884 -0.6153 4823.0684 821.498)">
			<stop  offset="2.431610e-02" style="stop-color:#35265B"/>
			<stop  offset="1" style="stop-color:#35265B;stop-opacity:0"/>
		</linearGradient>
		<path style="opacity:0.43;fill:url(#SVGID_00000068667338606985321050000004077869002241834926_);" d="M56.1,97.4
			c3.3-11.8,10.4-16.7,14.4-28.2c4-11.6,9.1-25.4,0.7-34.3l0,0c0.3,0.2,4,2.1,8.2,6.2l0,0c5.8,5.7,3.9,22.6,0.1,36.8
			c-6.1,22.8-30,43.8,5.4,88.5c0-0.1-0.1-0.1-0.3-0.1C61.5,152.7,48.6,124.1,56.1,97.4z"/>
		
			<linearGradient id="SVGID_00000033369322028665144190000016781776570715576762_" gradientUnits="userSpaceOnUse" x1="3672.0938" y1="3154.2041" x2="3714.4583" y2="3154.2041" gradientTransform="matrix(-0.8662 0.4996 -0.4996 -0.8662 4863.8892 1034.8624)">
			<stop  offset="0" style="stop-color:#9BBD43"/>
			<stop  offset="0.997" style="stop-color:#409195"/>
		</linearGradient>
		<path style="fill:url(#SVGID_00000033369322028665144190000016781776570715576762_);" d="M96.7,140.5
			c14.9,3.7,25.8,16.5,26.2,31.8l-3.7,1.5c-6.2-8-17-2-26.4-4.4c-20-5.3-33.5-24.8-38.3-45.8c2.1,6.9,13.7,12.9,20.8,14.3
			C82.3,139.3,89.7,138.8,96.7,140.5z"/>
		
			<linearGradient id="SVGID_00000172429453905199725280000007910445320392207782_" gradientUnits="userSpaceOnUse" x1="3675.7766" y1="3154.2041" x2="3714.4583" y2="3154.2041" gradientTransform="matrix(-0.8662 0.4996 -0.4996 -0.8662 4863.8892 1034.8624)">
			<stop  offset="0" style="stop-color:#65AE8C"/>
			<stop  offset="0.9544" style="stop-color:#65AE8C;stop-opacity:0"/>
		</linearGradient>
		<path style="fill:url(#SVGID_00000172429453905199725280000007910445320392207782_);" d="M122.9,172.3l-3.7,1.5
			c-6.2-8-17-2-26.4-4.4c-20-5.3-33.5-24.8-38.3-45.8c2.2,3.9,8.6,22,25.2,31.3C96.7,164.4,117.5,156.8,122.9,172.3z"/>
	</g>
	<g>
		<g>
			<g>
				<path class="st6" d="M154,84.6c7.3,0,14.1,3.4,20.1,8.6l5.1-6.2c-5.5-5.5-14.7-10.4-25.1-10.4c-14.5,0-24.6,8.5-24.6,21.4
					c0,14.3,10.9,18.5,22.1,21.5c9.3,2.6,17.5,5.6,17.5,14.9c0,11.9-8.5,14.3-16.3,14.3c-9.2,0-17.5-4.2-21.1-6.6l-3.8,7.6
					c3.1,2.6,13.5,7.1,24.7,7.1c16.3,0,26.1-8.1,26.1-22.7c0-14.7-10.9-18.7-21.6-22.1c-10-3-17.9-5.7-17.9-14.9
					C139.1,87.4,147.5,84.6,154,84.6z"/>
				<path class="st6" d="M235.3,97.6h-9V136c0,6.7-7.2,14-15.4,14c-10.2,0-12-6.6-12-15.4v-37h-9.1v39.6c0,13.4,6.3,19.9,18.7,19.9
					c7,0,14-2.9,18.3-9.5h0.2l0.9,7.9h8l-0.8-8.5V97.6z"/>
				<path class="st6" d="M258.5,106l-1-8.4h-7.8l0.7,7.9v49.9h9v-36.9c0.3-7.8,5.1-14.5,12.6-14.5c2.9,0,5.6,1.2,7.6,2.2l2.8-8
					c-2.2-1.4-5.6-2.2-9.2-2.2C266.5,96,261.3,99.5,258.5,106z"/>
				<path class="st6" d="M320.8,144c-0.7,0.4-1.6,0.9-2.8,1.6c-1.1,0.6-2.3,1.2-3.7,1.8c-1.3,0.6-2.8,1-4.3,1.5
					c-2.6,0.7-5,0.9-7.1,0.1c-0.9-0.3-1.7-0.9-2.3-1.6c-0.7-0.8-1.2-1.8-1.6-3.2c-0.4-1.4-0.7-3.2-0.7-5.3V105h18.4v-8.6h-18.4
					c0-1.5-0.1-3.1-0.3-4.6c-0.2-1.7-0.6-3.3-1.2-5c-0.6-1.6-1.3-3.2-2.3-4.6c-1-1.5-2.2-2.8-3.8-3.9l-0.7-0.5l-5.4,5.2l0.7,0.8
					c1.4,1.5,2.5,3.3,3.3,5.4c0.7,2.1,1.1,4.7,1.1,7.7v42c0,3.5,0.4,6.5,1.2,8.9c0.8,2.4,2,4.4,3.3,5.9c1.4,1.5,3,2.6,4.9,3.2
					c1.8,0.6,3.7,0.9,5.7,0.9c2.1,0,4.2-0.3,6.4-0.8c2.1-0.5,4.1-1.2,5.9-1.9c1.9-0.8,3.5-1.5,4.8-2.3c1.4-0.8,2.4-1.4,3.1-1.9
					l0.8-0.6l-4.1-6.6L320.8,144z"/>
				<rect x="332.6" y="97.6" class="st6" width="9.1" height="57.8"/>
				<path class="st6" d="M337.1,75c-3.5,0-6.1,2.7-6.1,6.1c0,3.6,2.4,6.2,5.9,6.2c3.5,0,6.2-2.6,6.2-6.2
					C343.1,77.7,340.5,75,337.1,75z"/>
				<path class="st6" d="M393.5,94.3c-3.2-0.7-7.5-1.1-12.8-1.1c-4.3,0-8.2,0.8-11.6,2.4c-3.4,1.6-6.4,3.8-8.7,6.5
					c-2.4,2.7-4.2,6-5.5,9.8c-1.3,3.7-1.9,7.8-1.9,12.2c0,5.4,0.7,10,2.1,13.8c1.4,3.8,3.4,6.9,5.7,9.3c2.4,2.4,5.2,4.2,8.4,5.3
					c3.1,1.1,6.5,1.7,9.8,1.7c2.1,0,4-0.2,5.7-0.5c1.7-0.4,3.2-0.8,4.5-1.4c1.3-0.6,2.4-1.1,3.3-1.6c0.2-0.1,0.4-0.2,0.6-0.3v2.1
					c0,6.4-1.4,10.9-4.2,13.4c-2.8,2.6-7.5,3.9-14,3.9c-3,0-6-0.3-8.9-0.9c-2.9-0.6-5.3-1.3-7-2.1l-1.1-0.5l-1.8,8.8l0.8,0.3
					c2.2,0.8,4.8,1.5,7.7,2.1c3,0.6,6.4,0.9,10.1,0.9c9,0,15.9-2,20.4-6c4.6-4,6.9-10.7,6.9-20V96.7l-0.6-0.2
					C399.3,95.8,396.7,95,393.5,94.3z M393,103.3v37.6c-1.3,1.1-3.2,2.1-5.6,3c-2.5,1-5.4,1.5-8.5,1.5c-2.1,0-4.1-0.4-6.1-1.2
					c-2-0.8-3.7-2-5.3-3.7c-1.6-1.7-2.8-3.9-3.8-6.6c-1-2.7-1.5-6-1.5-9.9c0-3.3,0.4-6.4,1.3-9.1c0.8-2.7,2.1-5.1,3.7-7
					c1.6-1.9,3.5-3.5,5.8-4.5c2.2-1.1,4.8-1.6,7.7-1.6c3.6,0,6.3,0.2,8.3,0.5C390.6,102.7,391.9,103,393,103.3z"/>
				<path class="st6" d="M462.2,99.7c-7.5-2.8-15.5-3.7-19.1-3.7c-19.3,0-29.2,12.5-29.2,33.1c0,16.9,6.9,28,23,28
					c9.1,0,14.1-4.4,17-8.6l0.4,0.1l0.7,6.9h8.1l-0.9-10.1V99.7z M453.2,137.1c0,6.5-5.4,13.3-15.1,13.3
					c-12.2,0-15.2-10.8-15.2-20.9c0-14.9,4.8-26.3,18.7-26.3c4.9,0,9.5,1,11.6,2V137.1z"/>
				<path class="st6" d="M494.1,122.3c-6.6-2-12.3-3.6-12.3-10.5c0-6.4,5.6-9,10.6-9c5.9,0,10.6,2.7,14.4,6.3l5.2-5.4
					c-4.2-4.2-11.1-7.8-19.3-7.8c-10.1,0-19.4,5.5-19.4,17.1c0,11.5,8.3,14.4,17.6,16.6c6.8,1.6,12,3.7,12,10.5
					c0,6.9-5,9.9-11.5,9.9c-6.8,0-12.5-2.8-15.8-5.1l-3.5,6.5c2.4,2.1,10,5.6,19.4,5.6c11.9,0,20.2-6.3,20.2-17.7
					C511.6,127.6,502.5,124.8,494.1,122.3z"/>
			</g>
		</g>
	</g>
</g>
</svg>
