<?xml version="1.0" encoding="UTF-8"?><svg id="Capa_2" xmlns="http://www.w3.org/2000/svg" viewBox="0 0 85.04 25.71"><defs><style>.cls-1{fill:#203c6f;}.cls-1,.cls-2{stroke-width:0px;}.cls-2{fill:#ee7622;}</style></defs><g id="Capa_1-2"><path class="cls-1" d="m83.36,8h.57c.26,0,.39.12.39.32,0,.23-.16.29-.2.3h0c.07.01.18.07.18.26,0,.14.02.26.06.31h-.22c-.03-.05-.03-.12-.03-.17,0-.22-.04-.31-.24-.31h-.31v.49h-.21v-1.19Zm.21.54h.34c.13,0,.2-.06.2-.19,0-.15-.1-.18-.21-.18h-.34v.37Z"/><path class="cls-1" d="m83.83,9.8c-.67,0-1.21-.54-1.21-1.21s.54-1.21,1.21-1.21,1.21.54,1.21,1.21-.54,1.21-1.21,1.21m0-2.19c-.54,0-.98.44-.98.98s.44.98.98.98.98-.44.98-.98-.44-.98-.98-.98"/><path class="cls-1" d="m6.79.12h2.59l1.49,9.63h-2.79l-.23-1.71h-3.69l-1.29,1.71H0L6.79.12Zm.85,5.86l-.34-2.75-1.79,2.75h2.13Z"/><path class="cls-1" d="m10.84,5.72c0-3.05,2.49-5.72,6.13-5.72,1.91,0,3.3.78,3.96,1.62l-1.78,1.72c-.56-.56-1.34-.98-2.36-.98-1.93,0-3.25,1.49-3.25,3.25,0,1.34.97,2.04,2.14,2.04.53,0,.94-.11,1.27-.26l.38-1.28h-1.84l.51-1.94h4.38l-1.37,4.82c-.94.55-2.17.96-3.58.96-2.28,0-4.6-1.28-4.6-4.22"/><path class="cls-1" d="m22.15.19h3.61c1.6,0,2.65.36,3.29,1,.5.51.74,1.19.74,1.95,0,1.6-.92,2.85-2.87,3.39l1.48,3.22h-2.92l-1.27-2.9h-1.17l-.78,2.9h-2.66L22.15.19Zm2.94,4.59c1.19,0,1.97-.51,1.97-1.33,0-.26-.08-.46-.25-.64-.22-.22-.61-.33-1.17-.33h-1.43l-.63,2.29h1.52Z"/><path class="cls-1" d="m29.54,5.64C29.54,2.73,31.92.01,35.23.01c2.72,0,4.56,1.86,4.56,4.29,0,2.91-2.38,5.63-5.7,5.63-2.72,0-4.56-1.86-4.56-4.29m7.55-1.13c0-1.22-.74-2.12-2.09-2.12-1.67,0-2.76,1.63-2.76,3.05,0,1.22.74,2.12,2.09,2.12,1.68,0,2.76-1.62,2.76-3.05"/><path class="cls-1" d="m38.66,8.17l1.71-1.76c.93.86,1.9,1.3,2.95,1.3.63,0,1.08-.27,1.08-.71,0-.37-.26-.56-1.6-1.08-1.52-.57-2.49-1.23-2.49-2.64,0-1.9,1.72-3.25,4.06-3.25,1.68,0,3,.55,3.92,1.42l-1.64,1.83c-.72-.63-1.56-1.05-2.53-1.05-.64,0-1.04.3-1.04.68s.29.52,1.6,1.04c1.48.56,2.49,1.23,2.49,2.66,0,1.97-1.69,3.31-4.07,3.31-1.87,0-3.41-.64-4.44-1.75"/><path class="cls-1" d="m47.56,6.58c0-.48.08-1.01.22-1.53l1.31-4.86h2.68l-1.35,5.05c-.08.3-.14.59-.14.9,0,.86.53,1.39,1.49,1.39.51,0,.96-.18,1.28-.51.36-.34.6-.82.81-1.58l1.42-5.26h2.68l-1.52,5.65c-.34,1.26-.82,2.19-1.49,2.86-.85.85-2.05,1.23-3.52,1.23-2.46,0-3.86-1.24-3.86-3.35"/><path class="cls-1" d="m58.72.19h3.13c1.56,0,2.58.31,3.28,1.01.51.51.75,1.16.75,1.95,0,2.38-1.93,3.85-4.75,3.85h-1.57l-.74,2.75h-2.66L58.72.19Zm2.38,4.75c1.31,0,2.06-.59,2.06-1.49,0-.26-.1-.49-.27-.67-.26-.26-.64-.37-1.13-.37h-.98l-.67,2.53h1Z"/><polygon class="cls-1" points="67.08 .19 74.74 .19 74.13 2.44 69.1 2.44 68.7 3.89 73.27 3.89 72.71 5.98 68.14 5.98 67.73 7.5 72.84 7.5 72.24 9.75 64.51 9.75 67.08 .19"/><path class="cls-1" d="m75.4.19h3.61c1.6,0,2.65.36,3.29,1,.5.51.74,1.19.74,1.95,0,1.6-.91,2.85-2.87,3.39l1.48,3.22h-2.92l-1.27-2.9h-1.17l-.78,2.9h-2.66L75.4.19Zm2.94,4.59c1.19,0,1.97-.51,1.97-1.33,0-.26-.08-.46-.25-.64-.22-.22-.61-.33-1.17-.33h-1.43l-.63,2.29h1.52Z"/><path class="cls-2" d="m77.5,10.35s0,0,0,0t0,0c-1.01-1.71-2.99-2.88-5.26-2.88-1.79,0-3.4.72-4.5,1.87-8.62,7.31-20.14,11.77-32.79,11.77-11.29,0-21.68-3.55-29.9-9.51,8.82,8.68,21.39,14.11,35.35,14.11,7.89,0,15.42-1.64,21.98-4.75.09-.05.15-.08.15-.08,0,0,6.22-2.6,10.44-7.18,0,0-2.02,4.68-8.33,7.09.25.02.5.05.75.07,0,0,5.54.97,10-2.91.66-.61,1.61-1.66,2.28-3.14,0,0,0,0,0,0,.82-1.92.42-3.44-.15-4.47"/></g></svg>