<?xml version="1.0" encoding="UTF-8"?><svg id="Capa_2" xmlns="http://www.w3.org/2000/svg" viewBox="0 0 439.77 426.58"><defs><style>.cls-1{fill:none;}.cls-1,.cls-2,.cls-3{stroke-width:0px;}.cls-2{fill-rule:evenodd;}.cls-2,.cls-3{fill:#1a171b;}</style></defs><g id="Capa_1-2"><path class="cls-3" d="M23.6,350.64l-5.15-13.79-5.04,13.79h10.19ZM37.49,365.47h-8.2l-3.25-8.5h-14.94l-3.1,8.5H0l14.53-37.35h8.01l14.94,37.35h0Z"/><polygon class="cls-3" points="39.49 365.47 39.49 328.44 47.05 328.44 47.05 359.14 65.76 359.14 65.76 365.47 39.49 365.47 39.49 365.47"/><path class="cls-3" d="M92.86,351.67l7.31,2.32c-1.12,4.09-2.98,7.14-5.6,9.13-2.61,1.99-5.91,2.98-9.92,2.98-4.96,0-9.04-1.69-12.23-5.08-3.19-3.39-4.8-8.02-4.8-13.89,0-6.21,1.62-11.03,4.82-14.47,3.21-3.44,7.44-5.15,12.66-5.15,4.58,0,8.3,1.35,11.15,4.05,1.69,1.59,2.97,3.89,3.82,6.89l-7.47,1.79c-.43-1.94-1.36-3.47-2.75-4.59-1.41-1.12-3.12-1.69-5.11-1.69-2.78,0-5.02,1-6.75,2.98-1.73,1.98-2.59,5.2-2.59,9.64,0,4.71.86,8.06,2.55,10.07,1.69,2,3.9,3,6.63,3,2,0,3.74-.64,5.17-1.92,1.45-1.28,2.49-3.29,3.11-6.05h0Z"/><path class="cls-3" d="M124.24,350.64l-5.16-13.79-5.04,13.79h10.19ZM138.13,365.47h-8.21l-3.25-8.5h-14.94l-3.1,8.5h-8l14.54-37.35h8.01l14.95,37.35h0Z"/><polygon class="cls-3" points="140.12 365.47 140.12 328.44 147.68 328.44 147.68 359.14 166.39 359.14 166.39 365.47 140.12 365.47 140.12 365.47"/><path class="cls-3" d="M177.11,334.46v24.68h5.63c2.12,0,3.64-.12,4.56-.36,1.23-.3,2.24-.82,3.06-1.55.8-.74,1.47-1.93,1.97-3.59.51-1.68.77-3.95.77-6.82s-.26-5.09-.77-6.64c-.5-1.53-1.22-2.74-2.13-3.61-.92-.86-2.08-1.44-3.5-1.75-1.06-.24-3.12-.36-6.19-.36h-3.39ZM169.55,328.13h13.79c3.1,0,5.48.24,7.11.72,2.19.64,4.07,1.79,5.62,3.44,1.57,1.64,2.76,3.67,3.58,6.04.81,2.39,1.22,5.33,1.22,8.83,0,3.08-.37,5.73-1.14,7.95-.94,2.71-2.28,4.91-4,6.59-1.31,1.28-3.08,2.27-5.3,2.98-1.67.52-3.9.79-6.67.79h-14.19v-37.34h0Z"/><path class="cls-3" d="M204.85,328.13h7.55v37.34h-7.55v-37.34h0ZM206.73,324.71l3.5-7.61h8l-6.97,7.61h-4.53Z"/><path class="cls-3" d="M237.18,350.64l-5.16-13.79-5.04,13.79h10.2ZM251.06,365.47h-8.2l-3.25-8.5h-14.94l-3.1,8.5h-8l14.53-37.35h8.02l14.94,37.35h0Z"/><polygon class="cls-3" points="263.12 365.47 263.12 328.13 274.42 328.13 281.16 353.6 287.86 328.13 299.17 328.13 299.17 365.47 292.18 365.47 292.17 336.08 284.75 365.47 277.49 365.47 270.12 336.08 270.11 365.47 263.12 365.47 263.12 365.47"/><path class="cls-3" d="M324.29,350.64l-5.15-13.79-5.04,13.79h10.19ZM338.18,365.47h-8.2l-3.24-8.5h-14.95l-3.11,8.5h-7.99l14.52-37.35h8.03l14.94,37.35h0Z"/><polygon class="cls-3" points="344.98 365.47 344.98 349.75 331.3 328.13 340.14 328.13 348.96 342.92 357.57 328.13 366.25 328.13 352.54 349.81 352.54 365.47 344.98 365.47 344.98 365.47"/><path class="cls-3" d="M374.01,346.77c0,4.23.98,7.42,2.93,9.6,1.96,2.18,4.43,3.27,7.44,3.27s5.47-1.08,7.39-3.24c1.93-2.16,2.89-5.4,2.89-9.73s-.93-7.46-2.81-9.56c-1.88-2.1-4.37-3.16-7.47-3.16s-5.61,1.07-7.52,3.2c-1.9,2.13-2.85,5.33-2.85,9.62h0ZM366.24,347.03c0-3.81.58-7,1.71-9.57.84-1.91,2.01-3.61,3.48-5.12,1.47-1.51,3.08-2.63,4.82-3.37,2.33-.98,5-1.46,8.06-1.46,5.5,0,9.9,1.7,13.2,5.11,3.3,3.41,4.95,8.16,4.95,14.24s-1.63,10.74-4.91,14.14c-3.28,3.4-7.66,5.1-13.14,5.1s-9.97-1.69-13.24-5.08c-3.28-3.39-4.92-8.05-4.92-13.99h0Z"/><path class="cls-3" d="M413.75,343.93h5.57c3.61,0,5.86-.15,6.76-.46.91-.3,1.61-.83,2.11-1.57.51-.75.75-1.69.75-2.81,0-1.25-.33-2.26-.99-3.04-.68-.77-1.62-1.26-2.85-1.47-.59-.08-2.43-.13-5.48-.13h-5.87v9.47h0ZM406.2,365.47v-37.34h15.87c3.98,0,6.88.33,8.69,1.01,1.81.67,3.26,1.86,4.34,3.58,1.08,1.71,1.63,3.67,1.63,5.89,0,2.79-.82,5.1-2.46,6.93-1.65,1.83-4.1,2.98-7.36,3.45,1.62.95,2.96,1.99,4.03,3.13,1.06,1.14,2.48,3.15,4.28,6.06l4.56,7.28h-9.03l-5.41-8.14c-1.95-2.9-3.27-4.72-3.99-5.47-.71-.75-1.46-1.27-2.27-1.55-.81-.28-2.06-.41-3.79-.41h-1.53v15.58h-7.55Z"/><polygon class="cls-3" points="359.9 415.18 366.89 415.18 366.89 422.17 359.9 422.17 359.9 415.18 359.9 415.18"/><path class="cls-3" d="M30.94,395.64v24.13h5.52c2.07,0,3.56-.11,4.47-.34,1.2-.3,2.19-.81,2.98-1.52.79-.71,1.43-1.88,1.93-3.52.49-1.63.75-3.85.75-6.67s-.26-4.97-.75-6.48c-.51-1.51-1.2-2.69-2.09-3.54-.89-.84-2.03-1.42-3.42-1.71-1.03-.23-3.05-.35-6.05-.35h-3.33ZM23.56,389.45h13.49c3.04,0,5.35.24,6.95.69,2.15.63,3.97,1.76,5.51,3.37,1.54,1.61,2.69,3.59,3.48,5.91.81,2.33,1.2,5.21,1.2,8.63,0,3.01-.38,5.6-1.12,7.77-.92,2.65-2.22,4.81-3.92,6.45-1.27,1.25-3.01,2.21-5.18,2.91-1.63.52-3.81.77-6.53.77h-13.88v-36.52h0Z"/><polygon class="cls-3" points="58.31 425.96 58.31 389.45 85.36 389.45 85.36 395.64 65.7 395.64 65.7 403.71 83.98 403.71 83.98 409.9 65.7 409.9 65.7 419.77 86.07 419.77 86.07 425.96 58.31 425.96 58.31 425.96"/><path class="cls-3" d="M109.62,410.03v9.74h6.83c2.66,0,4.35-.07,5.07-.22,1.11-.2,1.99-.67,2.68-1.45.69-.77,1.04-1.8,1.04-3.1,0-1.09-.27-2.03-.79-2.78-.54-.76-1.31-1.32-2.31-1.67-1.01-.35-3.18-.52-6.54-.52h-5.96ZM109.62,395.52v8.44h4.82c2.88,0,4.65-.04,5.35-.12,1.26-.15,2.25-.59,2.98-1.31.72-.72,1.08-1.67,1.08-2.85s-.32-2.05-.94-2.75c-.62-.7-1.55-1.13-2.77-1.28-.73-.08-2.82-.13-6.29-.13h-4.23ZM102.23,389.46h14.6c2.88,0,5.03.11,6.45.36,1.42.24,2.7.74,3.81,1.5,1.12.76,2.06,1.78,2.81,3.05.74,1.26,1.12,2.69,1.12,4.26,0,1.7-.46,3.27-1.37,4.7-.93,1.43-2.16,2.5-3.73,3.21,2.22.65,3.93,1.75,5.12,3.31,1.2,1.57,1.79,3.4,1.79,5.51,0,1.66-.4,3.28-1.17,4.85-.77,1.56-1.82,2.82-3.16,3.76-1.34.94-2.99,1.51-4.96,1.73-1.23.13-4.19.21-8.89.24h-12.43v-36.5h0Z"/><path class="cls-3" d="M143,407.68c0,4.13.95,7.25,2.87,9.39,1.91,2.13,4.33,3.2,7.27,3.2s5.35-1.06,7.24-3.17c1.89-2.11,2.83-5.29,2.83-9.51s-.92-7.29-2.75-9.34c-1.84-2.06-4.27-3.08-7.32-3.08s-5.49,1.04-7.34,3.12c-1.87,2.07-2.8,5.22-2.8,9.41h0ZM135.39,407.93c0-3.72.56-6.84,1.66-9.36.83-1.86,1.97-3.53,3.41-5.01,1.43-1.48,3-2.58,4.72-3.28,2.27-.96,4.89-1.45,7.87-1.45,5.38,0,9.68,1.68,12.91,5.01,3.22,3.34,4.84,7.97,4.84,13.92s-1.6,10.51-4.81,13.83c-3.2,3.33-7.48,5-12.85,5s-9.74-1.66-12.94-4.97c-3.21-3.31-4.81-7.86-4.81-13.68h0Z"/><path class="cls-3" d="M191.42,412.6v-6.19h15.88v14.5c-1.55,1.5-3.77,2.82-6.7,3.96-2.93,1.14-5.9,1.71-8.9,1.71-3.82,0-7.14-.8-9.99-2.41-2.83-1.6-4.96-3.89-6.39-6.87-1.41-2.98-2.14-6.21-2.14-9.72,0-3.8.81-7.17,2.39-10.13,1.59-2.95,3.93-5.22,7-6.79,2.34-1.21,5.25-1.82,8.74-1.82,4.54,0,8.07.95,10.63,2.85,2.54,1.9,4.17,4.53,4.91,7.88l-7.33,1.38c-.51-1.8-1.48-3.21-2.89-4.25-1.43-1.03-3.2-1.55-5.32-1.55-3.21,0-5.77,1.02-7.67,3.05-1.89,2.04-2.85,5.07-2.85,9.07,0,4.33.96,7.58,2.89,9.74,1.92,2.16,4.43,3.25,7.56,3.25,1.54,0,3.09-.3,4.63-.9,1.56-.6,2.88-1.33,3.99-2.18v-4.59h-8.43Z"/><path class="cls-3" d="M218.08,407.68c0,4.13.95,7.25,2.87,9.39,1.91,2.13,4.33,3.2,7.26,3.2s5.36-1.06,7.24-3.17c1.89-2.11,2.82-5.29,2.82-9.51s-.91-7.29-2.75-9.34c-1.84-2.06-4.27-3.08-7.32-3.08s-5.48,1.04-7.34,3.12c-1.86,2.07-2.79,5.22-2.79,9.41h0ZM210.48,407.93c0-3.72.55-6.84,1.66-9.36.83-1.86,1.96-3.53,3.4-5.01,1.43-1.48,3-2.58,4.73-3.28,2.27-.96,4.88-1.45,7.86-1.45,5.38,0,9.68,1.68,12.91,5.01,3.23,3.34,4.84,7.97,4.84,13.92s-1.6,10.51-4.81,13.83c-3.2,3.33-7.48,5-12.85,5s-9.75-1.66-12.95-4.97c-3.21-3.31-4.8-7.86-4.8-13.68h0Z"/><polygon class="cls-3" points="257.76 425.96 257.76 395.64 246.94 395.64 246.94 389.45 275.97 389.45 275.97 395.64 265.15 395.64 265.15 425.96 257.76 425.96 257.76 425.96"/><path class="cls-3" d="M290.27,386.11l3.43-7.45h7.82l-6.8,7.45h-4.45ZM297.91,411.46l-5.05-13.48-4.92,13.48h9.97ZM311.49,425.97h-8.02l-3.19-8.31h-14.6l-3.03,8.31h-7.83l14.21-36.52h7.83l14.62,36.52h0Z"/><path class="cls-3" d="M332.62,395.64v24.13h5.52c2.06,0,3.55-.11,4.46-.34,1.19-.3,2.19-.81,2.97-1.52.79-.71,1.44-1.88,1.94-3.52.49-1.63.74-3.85.74-6.67s-.24-4.97-.74-6.48c-.5-1.51-1.19-2.69-2.1-3.54-.9-.84-2.03-1.42-3.42-1.71-1.02-.23-3.04-.35-6.06-.35h-3.32ZM325.23,389.45h13.48c3.04,0,5.36.24,6.95.69,2.15.63,3.98,1.76,5.51,3.37,1.53,1.61,2.7,3.59,3.49,5.91.8,2.33,1.2,5.21,1.2,8.63,0,3.01-.38,5.6-1.12,7.77-.9,2.65-2.22,4.81-3.91,6.45-1.28,1.25-3.01,2.21-5.19,2.91-1.63.52-3.81.77-6.53.77h-13.88v-36.52h0Z"/><path class="cls-3" d="M395.39,412.47l7.14,2.27c-1.1,4-2.92,6.98-5.47,8.92-2.55,1.94-5.79,2.91-9.7,2.91-4.86,0-8.84-1.65-11.96-4.96-3.12-3.31-4.69-7.84-4.69-13.58,0-6.08,1.58-10.79,4.72-14.15,3.13-3.36,7.27-5.04,12.38-5.04,4.48,0,8.11,1.32,10.9,3.96,1.67,1.56,2.91,3.81,3.74,6.74l-7.31,1.74c-.42-1.89-1.33-3.38-2.7-4.48-1.37-1.1-3.05-1.64-4.99-1.64-2.72,0-4.92.96-6.6,2.91-1.68,1.93-2.53,5.07-2.53,9.42,0,4.6.83,7.89,2.49,9.84,1.66,1.95,3.82,2.93,6.48,2.93,1.97,0,3.66-.63,5.07-1.88,1.42-1.26,2.42-3.22,3.04-5.92h0Z"/><polygon class="cls-3" points="406.63 415.18 413.62 415.18 413.62 422.17 406.63 422.17 406.63 415.18 406.63 415.18"/><path class="cls-1" d="M145.17,36.55l3.59.65,3.59.66,3.91.32,3.26-.65,3.27-1.3,4.24-1.96,3.28-1.31,3.25-.65s2.61,0,1.63,1.3v1.63l-.32,1.96v2.61l1.3,2.29.99.98,1.3,1.63-.34-3.26-.33-2.61.33-2.6,1.71-3.69.26,2.7.99,3.27,1.62,2.28,1.97,2.29,2.6,1.63,4.57.98,3.91-.65,2.94-1.63,1.63-2.28,1.95-2.94,1.32-3.91v-7.19l-1.65-3.26-2.28-2.93-2.61-1.96-3.91-.97-4.89.32-2.95,1.95-2.28,2.62-1.62,2.28-.98,3.26-.33,1.85v-.55l-1.29-2.28v-3.59l.32-2.6.33-3.27s-2.28,1.63-2.95,2.94l-.98,2.93v4.24l-.64.98h-2.93l-2.62.65-2.28.65-2.93,1.31-3.58,1.95-3.27.33,2.28-1.63,1.62-2.28,1.32-2.61,1.63-4.57-.66-3.92-2.62,1.3-1.95.99-1.29,1.3-1.31,1.3-.97,1.63-.65,1.3-1,2.29v1.96l.34,2.28h-1.96l-2.28-.33-3.92-.32-3.26-.65-2.61-.65-.33,4.57,2.94.33,2.6.32ZM181.72,30.02l.97-1.62,2.61-1.96,3.93-.98h2.92l3.28.33,3.91,2.28,1.96,2.61.32,3.27-1.63,2.93-3.25,1.64-4.59.65-4.23-.99-2.95-1.3-2.6-1.63-.98-2.28.33-2.94Z"/><polygon class="cls-1" points="208.81 37.52 210.44 40.13 211.42 38.51 211.1 36.87 210.11 35.57 214.68 34.59 210.44 32.96 211.75 31.32 212.41 29.36 211.75 27.73 210.77 29.7 209.46 31.32 206.2 31.65 205.87 35.57 207.5 36.22 208.81 37.52"/><polygon class="cls-1" points="109.93 23.16 110.58 26.43 114.5 26.75 115.16 25.12 116.46 23.82 119.07 22.19 117.44 21.21 115.81 21.53 114.5 22.51 113.2 17.95 111.89 22.19 109.93 20.56 107.97 20.23 106.66 20.88 108.63 21.86 109.93 23.16"/><polygon class="cls-1" points="226.75 36.55 226.42 38.83 226.75 41.44 227.74 38.83 229.36 37.2 230.99 36.55 230.99 33.93 229.04 33.28 227.74 31.64 226.42 29.37 226.09 32.3 226.75 33.93 222.51 35.56 226.75 36.55"/><path class="cls-1" d="M118.09,142.6l2.28-1.62,2.28-1.96,1.64-2.61.97-4.57-.64-3.91-1.64-2.94-1.96-1.63-3.27-1.96-3.91-.97-3.27-.33-3.58.33-3.59,1.3-2.93,2.29-1.96,2.6-.65,4.24.32,4.57,1.96,2.93,2.29,2.29,2.28,1.62,3.25.98,1.79.33h-.81l-2.29,1.3h-6.19l-3.27-.32s1.63,1.96,2.94,2.61l2.94.98h4.23l.97.65v2.93l.66,2.61.65,2.29,1.3,2.93,1.96,3.59.33,3.26-1.63-2.28-2.29-1.63-2.61-1.31-4.56-1.3-3.91.32,1.3,2.61.99,1.96,1.3,1.3,1.31,1.31,1.62.97,1.3.98,2.28.66h1.97l2.29-.33v1.96l-.33,2.6-.33,3.59-.65,3.59-.67,2.28,4.58.33.32-2.61.33-2.94.65-3.59.66-3.58.32-3.91-.65-3.26-1.31-3.27-1.95-3.91-1.3-3.26-.66-3.59s0-2.6,1.3-1.63h1.64l1.96.33h2.61l2.28-.98.98-.98,1.63-1.63-3.26.33-2.61.32-2.61-.32-3.59-1.66,3.26-.3,2.93-.98ZM112.55,142.27h-2.62l-1.96-1.3-1.96-2.61-.97-3.59v-3.26l.33-2.94,2.28-3.91,2.61-2.28,3.26-.33,2.93,1.63,1.63,3.26.65,4.9-.65,3.91-1.63,2.93-1.62,2.61-2.28.98Z"/><polygon class="cls-1" points="111.24 117.8 115.16 117.8 115.81 116.17 117.12 114.86 120.03 113.23 118.42 112.58 116.46 112.58 115.16 113.56 114.17 108.99 112.55 113.23 110.91 111.93 108.95 111.28 107.32 112.25 109.6 112.9 110.91 114.21 111.24 117.8"/><path class="cls-1" d="M235.24,41.11l1.64,2.94,2.94,2.61,4.23.98h2.94l3.25-1.3,2.62-1.96,1.95-2.94.97-3.91v-2.46l.99,1.48v3.91l-1.3,4.24,2.61-1.63,1.3-1.31.65-2.61v-2.61l-.65-1.96,2.94.33,2.93.32,2.93,1.31,4.25,1.62,3.91.98,4.57.33h4.25l4.89-.33,3.58-.98s.66-3.26-.65-4.24l-2.28.33-2.28.33-3.25.33-3.27.32-1.3-.32.97-1.64-.65-3.26-1.3-2.93-1.96-1.63-1.95-1.97-2.61-1.3-.33,1.95-.32,1.96.32,2.94.98,2.28,1.3,1.95,3.27,1.64-3.92-.66-3.25-.65-2.95-1.31-2.61-.97-3.26-.33-2.94-.65.32-1.95v-2.29l-.32-2.28-1.3-1.63-3.27-1.96,1.31,4.24.65,2.93v2.61l-1.16,1.16-.14-1.81-.98-3.27-1.97-2.6-2.28-1.31-2.61-1.63-3.58-.65-3.59.98-3.58,2.28-1.64,2.93-.98,3.27-.32,2.93v2.93l.65,3.27.65,2.6ZM234.58,31.33l1.96-2.28,2.61-1.64,4.89-1.3,3.58.65,4.26,1.64,2.28,2.93.32,4.24-1.63,2.6-2.29,2.29-4.56.65-4.24-.33-2.94-.97-1.63-1.3-2.29-1.96-.33-1.96v-3.26Z"/><path class="cls-1" d="M309.64,51.56l3.27,1.96,3.58,1.3h2.52l-1.22.97-4.23-.32-4.24-1.31,1.64,2.6,1.62,1.64,2.28.66h2.6l1.96-.66v2.61l-.64,2.93-.99,2.94-1.95,4.25-.98,3.91-.32,4.57v4.24l.65,4.9.65,3.59s3.58.65,4.24-.65l-.33-2.28-.33-2.28v-3.27l-.64-2.93.64-1.3,1.32.65,3.59-.33,2.6-1.3,1.97-2.29,1.62-1.95,1.3-2.28-1.95-.66-1.95-.32-2.95.32-1.95.98-1.96,1.64-1.95,3.26.64-4.25.66-2.93,1.3-3.26.98-2.61.65-2.93.33-2.94,1.95.32h2.62l1.95-.65,1.62-.98,1.96-3.59-3.91,1.63-3.27.65-2.28-.32-1.08-.87,1.4-.12,3.28-1.31,2.6-1.95,1.3-1.96,1.64-2.93.64-3.59-.97-3.58-2.28-3.27-2.92-1.96-2.95-.65-2.94-.32-3.26-.32-3.27.64-2.28.65-2.95,1.64-2.61,2.94-.97,4.23v3.26l1.3,3.26,1.63,2.29ZM313.56,40.79l1.3-2.61,1.3-1.96,1.63-1.96,2.29-.65,3.26.32,2.28,1.96,1.64,2.29.98,4.89-.32,3.92-1.63,4.24-3.27,2.28h-4.24l-2.62-1.31-1.95-2.28-.98-4.89.32-4.24Z"/><path class="cls-1" d="M329.55,129.88l-3.25-.98-2.62-.33h-3.26l-3.27.65-2.6.66-2.6,1.62-2.62,2.94-1.31,4.24v2.94l1.31,3.26,1.96,2.62,3.26,1.95,3.59.98h2.13l-1.47.98h-4.24l-3.91-1.31,1.31,2.61,1.62,1.31,2.61.65h2.28l2.29-.65-.33,2.93-.33,2.94-1.3,2.93-1.64,4.24-.97,3.92-.32,4.57v4.24l.32,4.89.97,3.59s3.27.65,4.25-.66l-.33-2.28-.32-2.28-.33-3.26-.33-3.26.33-1.31,1.62.98,3.27-.65,2.94-1.31,1.63-1.96,1.95-1.95.99-2.61-1.64-.32-1.95-.33-2.93.33-2.3.97-1.96,1.31-1.62,3.26.65-3.92.65-3.27,1.31-2.93.65-2.61.65-3.26.65-2.93,1.95.32h2.29l2.28-.32,1.63-1.31,1.97-3.26-4.24,1.3-2.93.66h-2.62l-1.38-1.11,2.37-.2,3.25-.97,2.6-1.96,1.31-2.29,1.64-2.61.65-3.59-.99-3.59-2.28-3.59-2.93-1.62ZM328.89,142.93l-1.63,4.24-2.94,1.96-4.24.33-2.62-1.3-2.27-2.29-.65-4.89.32-4.24.99-2.62,1.3-1.95,1.96-1.96,1.95-.65,3.58.33,1.96,1.62,1.96,2.61.97,4.9-.65,3.92Z"/><polygon class="cls-1" points="318.45 124.32 319.11 125.96 322.04 125.96 322.37 124.32 324 123.02 326.29 121.39 323.35 121.06 321.71 121.71 320.08 117.47 319.11 121.71 316.81 121.39 314.21 121.71 316.81 122.7 318.45 124.32"/><polygon class="cls-1" points="316.81 28.39 317.46 30.01 320.41 30.34 321.06 28.39 322.37 27.08 324.97 25.78 322.04 25.45 320.08 25.78 318.45 21.53 317.46 26.1 315.18 25.45 312.57 26.1 315.18 27.08 316.81 28.39"/><path class="cls-1" d="M331.18,227.44l-1.96-2.28-1.95-2.29-2.94-1.95-2.29-1.31-2.92-.65h-3.93l-3.91,2.61-2.29,1.96-1.31,3.26-.32,2.93.97,3.59,1.62,3.59,1.53,1.52-1.53-.21-2.92-3.27-1.64-3.58-.97,2.61v2.28l1.3,2.28,1.62,1.64,1.96.97-1.96,1.96-2.28,1.63-2.93,1.3-4.26,1.63-3.58,2.29-3.26,2.94-3.26,2.93-2.95,3.92-1.95,3.26s1.95,2.61,3.26,2.28l1.64-1.63,1.3-1.95,1.95-2.61,1.95-2.29,1.31-.65.33,1.63,2.93,1.96,2.93.97h2.62l2.61-.32,2.6-.65-.98-1.63-.97-1.64-2.28-1.94-2.28-.99-2.62-.32-3.26,1.31,3.26-2.62,2.62-1.63,3.26-1.3,2.28-1.31,2.6-1.63,2.3-1.96,1.3,1.63,1.63,1.96,1.96.98,1.97.65,3.91-1.3-3.91-1.96-2.62-1.63-1.96-1.63v-1.49l1.31,1.16,3.27,1.31,3.25.65,2.28-.65,3.28-.66,2.93-2.28,1.96-3.26.65-3.92-.65-3.25-1.64-2.94ZM329.21,232.34l-2.92,4.24-2.95,2.61-4.23,1.63-3.6-.65-3.26-2.61-.98-2.94.33-3.26,2.93-3.91,2.93-2.61,2.95-1.3,2.28-.33h2.61l1.96.98,1.95,2.61.33,2.61-.33,2.94Z"/><path class="cls-1" d="M247.32,265.29l-3.26-.98-3.6-.65-3.59-.65-3.59.32-3.25.66-4.25,1.96-3.26.65-3.59.64s-2.61,0-1.62-1.62l.32-1.63.66-1.96v-2.29l-.98-2.27-.99-1.31-.97-1.63-.33,3.26v2.61l-.32,2.61-1.96,3.37v-3.05l-.65-3.26-1.29-2.29-1.97-2.61-2.28-1.63-4.58-1.3h-3.91l-2.93,1.63-1.96,1.95-2.28,2.61-1.3,3.92-.66,3.59v3.59l.97,3.25,1.96,3.27,2.61,1.95,3.91,1.3,4.9.33,2.94-1.63,2.28-2.61,1.95-1.96,1.63-3.26.13-.75,1.18,2.05-.33,3.59-.65,2.94-.33,2.94s1.95-1.31,2.93-2.62l1.3-2.61v-1.62l.33-2.62.66-.97h2.93l2.61-.33,2.28-.33,2.93-.97,3.92-1.64h3.25l-2.28,1.31-1.96,1.96-1.63,2.61-1.62,4.24v3.91l2.93-.98,1.97-.98,1.3-.98,1.61-.97.99-1.64.99-1.3.65-1.95.33-2.29v-2.29h1.96l2.28.66,3.93.65,3.25.98,2.29.98.99-4.56-2.95-.65-2.92-.66ZM210.77,268.56l-1.32,1.63-2.61,1.63-3.91.65-2.94-.33-3.25-.32-3.6-2.61-1.96-2.94v-3.26l1.96-2.61,3.27-1.31,4.9-.32,3.91.97,2.93,1.96,2.28,1.63.67,2.61-.33,2.61Z"/><polygon class="cls-1" points="184 259.09 182.7 256.16 181.72 257.47 181.72 259.42 182.7 260.72 178.13 261.38 182.05 263.33 180.74 264.97 180.08 266.93 180.74 268.56 181.39 266.27 183.02 265.29 186.29 264.97 186.95 261.05 185.63 260.4 184 259.09"/><polygon class="cls-1" points="332.82 218.96 334.77 214.71 330.85 217 329.87 215.04 327.59 213.74 328.57 216.02 328.57 218.3 328.24 219.94 329.87 222.22 331.83 221.24 333.79 221.24 336.39 221.9 334.44 219.61 332.82 218.96"/><polygon class="cls-1" points="292.67 225.48 297.24 222.21 300.17 218.3 302.79 213.74 303.12 209.49 303.12 50.58 298.87 52.54 293.98 53.84 289.41 54.82 283.53 56.45 277.66 56.77 271.14 57.42 264.93 58.08 259.07 58.08 252.53 58.08 247.31 57.42 243.07 56.45 238.5 54.82 234.91 53.84 230.67 52.54 225.45 49.93 220.23 47.31 214.68 49.93 209.46 52.54 205.22 53.84 201.63 54.82 197.06 56.45 192.48 57.42 186.95 58.08 181.07 58.08 175.19 58.08 169.32 57.42 163.45 56.77 157.91 56.45 151.7 54.82 146.47 53.84 141.26 52.54 136.37 50.58 136.37 60.69 136.37 70.15 136.37 80.27 136.37 90.06 136.37 100.17 136.37 109.64 136.37 120.4 136.37 129.87 136.37 139.99 136.37 149.78 136.37 160.22 136.37 169.36 136.37 179.47 136.37 189.26 136.37 199.7 136.37 209.49 137.34 213.74 139.95 218.95 143.88 222.55 148.11 226.46 153.01 228.75 158.24 231.68 163.45 233.31 167.69 234.95 175.19 235.93 181.07 237.23 187.93 238.54 194.45 239.84 200.33 241.47 206.52 244.08 213.05 246.69 220.23 250.29 227.08 246.69 232.95 244.08 239.15 241.47 245.69 239.84 251.55 238.54 258.41 237.23 264.93 235.93 272.45 234.95 277.66 233.31 282.22 231.35 287.79 228.75 292.67 225.48"/><path class="cls-1" d="M144.84,253.88l-1.63-2.93-1.95-3.27-2.27-2.93-2.61-2.28-2.95-1.64-4.56-1.95-2.94-1.63-2.6-2.29s-1.63-1.96,0-1.96l1.31-1.31,1.62-.65,1.97-1.63.98-2.61.32-1.31v-1.95l-2.3,1.95-1.95,1.97-1.95,1.62-4.08,1.17,2.45-2.14,1.63-2.61.65-2.61.33-3.26-.33-2.93-2.28-3.92-2.95-2.94-2.93-.98h-2.93l-3.59.32-3.59,1.96-2.92,1.96-2.29,2.61-1.97,2.94-.63,3.91.32,2.94,1.95,3.91,3.25,3.59,3.27.65,3.27.33,2.94-.33,3.26-1.3.98-.65-.98,2.61-2.61,2.29-2.28,1.62-2.61,1.63s2.61.66,3.92,0l2.92-.65,1.31-1.3,1.95-1.63h1.3l1.64,1.95,2.29,1.96,1.95,1.3,2.94,1.31,3.91,1.63,2.28,2.28-2.61-.65h-2.93l-2.94.65-4.24,1.63-2.6,2.94,2.6,1.3,1.96.65,1.62.33,1.96.33,1.96-.33,1.64-.33,1.95-.98,1.63-.97,1.65-1.96,1.3,1.31,1.3,2.27,1.96,3.27,1.95,2.94.97,2.27,3.6-2.6-1.62-2.29-1.32-2.6ZM116.78,230.38l-2.28.32-3.25-.65-2.95-2.29-1.95-2.61-1.96-2.61-.65-4.24.65-3.26,2.28-2.61,3.27-.33,3.26,1.31,3.59,3.26,2.29,3.59.66,3.26.31,2.93-1.3,2.29-1.96,1.63Z"/><path class="cls-1" d="M106.34,53.84h-3.58l-2.61-.32-3.26-.34s1.62,2.3,2.93,2.95l2.62.97h4.56l.66.66.32,2.93.65,2.61.33,2.29,1.62,2.6,1.98,3.92v3.25l-1.65-2.28-1.95-1.63-2.61-1.3-4.56-1.63-3.91.65,1.3,2.61.98,1.63,1.31,1.63.99,1.3,1.62.98,1.62.65,1.97.66,2.28.32,2.29-.32v1.63l-.33,2.6-.33,3.92-.66,3.26-.64,2.61,4.24.32.65-2.93.32-2.61.66-3.59.65-3.58.33-3.92-.66-3.26-1.3-3.26-2.29-4.23-.97-3.27-.99-3.25s0-2.62,1.65-1.64h1.62l1.96.33h2.6l2.3-1.31.98-.97,1.3-1.31-2.95.33h-5.21l-3.84-1.64,3.19-.31,3.26-.98,2.28-1.63,2.29-2.28,1.63-2.29.97-4.56-.64-3.92-1.64-2.93-2.28-1.95-2.94-1.64-3.91-1.3-3.59-.33-3.59.33-3.26,1.3-2.94,2.61-1.96,2.61-.98,3.91.33,4.9,1.95,2.94,2.61,1.96,2.29,1.62,3.26,1.31,1.82.33h-.84l-2.28,1.3ZM108.95,50.9l-1.63-.97-1.95-2.61-.99-3.91v-2.94l.33-3.27,2.28-3.91,2.61-1.96,3.26-.33,2.94,1.64,1.63,3.26.65,4.58-.97,4.24-1.31,2.94-1.63,2.6-2.61.98-2.61-.33Z"/><polygon class="cls-1" points="102.1 210.8 105.37 208.51 104.71 206.89 104.71 204.92 105.69 201.67 104.06 202.31 102.76 203.62 102.43 205.25 98.83 202.31 100.14 206.56 97.86 206.56 96.22 207.54 95.58 208.84 97.53 208.19 99.48 208.51 102.1 210.8"/><polygon class="cls-3" points="119.73 223.53 119.07 220.26 116.78 216.67 113.19 213.41 109.94 212.1 106.67 212.43 104.38 215.04 103.73 218.3 104.38 222.55 106.35 225.16 108.3 227.76 111.25 230.05 114.5 230.71 116.78 230.38 118.74 228.75 120.04 226.46 119.73 223.53"/><polygon class="cls-3" points="114.18 50.25 115.81 47.64 117.12 44.7 118.09 40.47 117.44 35.89 115.81 32.63 112.87 30.99 109.6 31.32 106.99 33.28 104.72 37.2 104.39 40.47 104.39 43.4 105.37 47.31 107.32 49.93 108.95 50.9 111.56 51.23 114.18 50.25"/><polygon class="cls-3" points="118.09 135.75 118.74 131.84 118.09 126.93 116.46 123.67 113.52 122.04 110.26 122.37 107.65 124.65 105.37 128.56 105.05 131.5 105.05 134.77 106.02 138.36 107.97 140.97 109.93 142.27 112.55 142.27 114.83 141.29 116.46 138.68 118.09 135.75"/><polygon class="cls-3" points="208.15 261.7 205.22 259.75 201.31 258.77 196.41 259.09 193.14 260.4 191.18 263.01 191.18 266.27 193.14 269.21 196.74 271.82 200 272.14 202.94 272.47 206.84 271.82 209.46 270.19 210.77 268.56 211.1 265.95 210.43 263.33 208.15 261.7"/><polygon class="cls-3" points="326.61 131.5 324.64 129.88 321.06 129.54 319.11 130.2 317.15 132.16 315.85 134.11 314.86 136.73 314.54 140.97 315.19 145.86 317.46 148.15 320.08 149.45 324.32 149.13 327.26 147.17 328.89 142.93 329.55 139.01 328.57 134.11 326.61 131.5"/><polygon class="cls-3" points="316.16 52.21 318.78 53.52 323.02 53.52 326.29 51.23 327.92 46.99 328.25 43.07 327.26 38.18 325.63 35.89 323.34 33.93 320.08 33.61 317.79 34.26 316.16 36.22 314.86 38.18 313.56 40.79 313.23 45.03 314.22 49.92 316.16 52.21"/><polygon class="cls-3" points="184.98 36.87 187.93 38.17 192.16 39.16 196.74 38.51 200 36.87 201.63 33.94 201.31 30.67 199.34 28.06 195.43 25.78 192.16 25.45 189.24 25.45 185.31 26.43 182.7 28.39 181.72 30.02 181.39 32.96 182.38 35.24 184.98 36.87"/><polygon class="cls-3" points="327.26 224.18 325.3 223.2 322.69 223.2 320.41 223.53 317.47 224.83 314.53 227.44 311.6 231.35 311.27 234.62 312.25 237.56 315.51 240.17 319.11 240.82 323.34 239.19 326.29 236.58 329.21 232.34 329.54 229.4 329.21 226.79 327.26 224.18"/><polygon class="cls-3" points="237.2 38.51 238.83 39.81 241.77 40.78 246.01 41.11 250.57 40.46 252.86 38.17 254.5 35.57 254.18 31.33 251.89 28.39 247.63 26.75 244.05 26.1 239.16 27.4 236.54 29.04 234.58 31.33 234.58 34.59 234.91 36.55 237.2 38.51"/><path class="cls-3" d="M217.94,0c-67.55,15.66-60.7,16.96-126.94,3.58v230.39c6.86,50.25,90.39,39.48,126.94,62.97,36.22-16.97,121.39-19.57,127.27-62.97V3.58c-45.04,17.95-82.56,9.8-127.27-3.58ZM335.75,138.68l-.65,3.59-1.64,2.61-1.31,2.29-2.6,1.96-3.25.97-2.37.2,1.38,1.11h2.62l2.93-.66,4.24-1.3-1.97,3.26-1.63,1.31-2.28.32h-2.29l-1.95-.32-.65,2.93-.65,3.26-.65,2.61-1.31,2.93-.65,3.27-.65,3.92,1.62-3.26,1.96-1.31,2.3-.97,2.93-.33,1.95.33,1.64.32-.99,2.61-1.95,1.95-1.63,1.96-2.94,1.31-3.27.65-1.62-.98-.33,1.31.33,3.26.33,3.26.32,2.28.33,2.28c-.98,1.31-4.25.66-4.25.66l-.97-3.59-.32-4.89v-4.24l.32-4.57.97-3.92,1.64-4.24,1.3-2.93.33-2.94.33-2.93-2.29.65h-2.28l-2.61-.65-1.62-1.31-1.31-2.61,3.91,1.31h4.24l1.47-.98h-2.13l-3.59-.98-3.26-1.95-1.96-2.62-1.31-3.26v-2.94l1.31-4.24,2.62-2.94,2.6-1.62,2.6-.66,3.27-.65h3.26l2.62.33,3.25.98,2.93,1.62,2.28,3.59.99,3.59ZM314.21,121.71l2.6-.33,2.3.33.97-4.24,1.63,4.24,1.63-.65,2.94.32-2.29,1.63-1.63,1.31-.33,1.63h-2.93l-.66-1.63-1.64-1.63-2.6-.98ZM315.18,25.45l2.28.65.99-4.57,1.63,4.25,1.95-.33,2.93.33-2.6,1.3-1.3,1.31-.65,1.95-2.95-.33-.65-1.62-1.63-1.31-2.61-.98,2.61-.65ZM306.7,42.74l.97-4.23,2.61-2.94,2.95-1.64,2.28-.65,3.27-.64,3.26.32,2.94.32,2.95.65,2.92,1.96,2.28,3.27.97,3.58-.64,3.59-1.64,2.93-1.3,1.96-2.6,1.95-3.28,1.31-1.4.12,1.08.87,2.28.32,3.27-.65,3.91-1.63-1.96,3.59-1.62.98-1.95.65h-2.62l-1.95-.32-.33,2.94-.65,2.93-.98,2.61-1.3,3.26-.66,2.93-.64,4.25,1.95-3.26,1.96-1.64,1.95-.98,2.95-.32,1.95.32,1.95.66-1.3,2.28-1.62,1.95-1.97,2.29-2.6,1.3-3.59.33-1.32-.65-.64,1.3.64,2.93v3.27l.33,2.28.33,2.28c-.66,1.3-4.24.65-4.24.65l-.65-3.59-.65-4.9v-4.24l.32-4.57.98-3.91,1.95-4.25.99-2.94.64-2.93v-2.61l-1.96.66h-2.6l-2.28-.66-1.62-1.64-1.64-2.6,4.24,1.31,4.23.32,1.22-.97h-2.52l-3.58-1.3-3.27-1.96-1.63-2.29-1.3-3.26v-3.26ZM233.93,32.3l.32-2.93.98-3.27,1.64-2.93,3.58-2.28,3.59-.98,3.58.65,2.61,1.63,2.28,1.31,1.97,2.6.98,3.27.14,1.81,1.16-1.16v-2.61l-.65-2.93-1.31-4.24,3.27,1.96,1.3,1.63.32,2.28v2.29l-.32,1.95,2.94.65,3.26.33,2.61.97,2.95,1.31,3.25.65,3.92.66-3.27-1.64-1.3-1.95-.98-2.28-.32-2.94.32-1.96.33-1.95,2.61,1.3,1.95,1.97,1.96,1.63,1.3,2.93.65,3.26-.97,1.64,1.3.32,3.27-.32,3.25-.33,2.28-.33,2.28-.33c1.31.99.65,4.24.65,4.24l-3.58.98-4.89.33h-4.25l-4.57-.33-3.91-.98-4.25-1.62-2.93-1.31-2.93-.32-2.94-.33.65,1.96v2.61l-.65,2.61-1.3,1.31-2.61,1.63,1.3-4.24v-3.91l-.99-1.48v2.46l-.97,3.91-1.95,2.94-2.62,1.96-3.25,1.3h-2.94l-4.23-.98-2.94-2.61-1.64-2.94-.65-2.6-.65-3.27v-2.93ZM226.09,32.3l.33-2.93,1.32,2.28,1.3,1.64,1.95.65v2.61l-1.63.65-1.62,1.63-.99,2.61-.33-2.61.33-2.28-4.24-.98,4.24-1.63-.66-1.63ZM206.2,31.65l3.25-.32,1.32-1.63.97-1.96.66,1.63-.66,1.96-1.31,1.63,4.24,1.63-4.57.98.99,1.3.31,1.64-.98,1.62-1.63-2.61-1.3-1.3-1.63-.65.33-3.92ZM139.96,31.33l2.61.65,3.26.65,3.92.32,2.28.33h1.96l-.34-2.28v-1.96l1-2.29.65-1.3.97-1.63,1.31-1.3,1.29-1.3,1.95-.99,2.62-1.3.66,3.92-1.63,4.57-1.32,2.61-1.62,2.28-2.28,1.63,3.27-.33,3.58-1.95,2.93-1.31,2.28-.65,2.62-.65h2.93l.64-.98v-4.24l.98-2.93c.67-1.31,2.95-2.94,2.95-2.94l-.33,3.27-.32,2.6v3.59l1.29,2.28v.55l.33-1.85.98-3.26,1.62-2.28,2.28-2.62,2.95-1.95,4.89-.32,3.91.97,2.61,1.96,2.28,2.93,1.65,3.26v7.19l-1.32,3.91-1.95,2.94-1.63,2.28-2.94,1.63-3.91.65-4.57-.98-2.6-1.63-1.97-2.29-1.62-2.28-.99-3.27-.26-2.7-1.71,3.69-.33,2.6.33,2.61.34,3.26-1.3-1.63-.99-.98-1.3-2.29v-2.61l.32-1.96v-1.63c.98-1.3-1.63-1.3-1.63-1.3l-3.25.65-3.28,1.31-4.24,1.96-3.27,1.3-3.26.65-3.91-.32-3.59-.66-3.59-.65-2.6-.32-2.94-.33.33-4.57ZM115.48,145.54l2.61.32,2.61-.32,3.26-.33-1.63,1.63-.98.98-2.28.98h-2.61l-1.96-.33h-1.64c-1.3-.97-1.3,1.63-1.3,1.63l.66,3.59,1.3,3.26,1.95,3.91,1.31,3.27.65,3.26-.32,3.91-.66,3.58-.65,3.59-.33,2.94-.32,2.61-4.58-.33.67-2.28.65-3.59.33-3.59.33-2.6v-1.96l-2.29.33h-1.97l-2.28-.66-1.3-.98-1.62-.97-1.31-1.31-1.3-1.3-.99-1.96-1.3-2.61,3.91-.32,4.56,1.3,2.61,1.31,2.29,1.63,1.63,2.28-.33-3.26-1.96-3.59-1.3-2.93-.65-2.29-.66-2.61v-2.93l-.97-.65h-4.23l-2.94-.98c-1.31-.65-2.94-2.61-2.94-2.61l3.27.32h6.19l2.29-1.3h.81l-1.79-.33-3.25-.98-2.28-1.62-2.29-2.29-1.96-2.93-.32-4.57.65-4.24,1.96-2.6,2.93-2.29,3.59-1.3,3.58-.33,3.27.33,3.91.97,3.27,1.96,1.96,1.63,1.64,2.94.64,3.91-.97,4.57-1.64,2.61-2.28,1.96-2.28,1.62-2.93.98-3.26.3,3.59,1.66ZM107.32,112.25l1.63-.97,1.96.65,1.64,1.3,1.62-4.24.98,4.57,1.3-.98h1.96l1.61.65-2.92,1.63-1.31,1.31-.65,1.63h-3.91l-.34-3.59-1.3-1.31-2.28-.65ZM107.97,20.23l1.96.33,1.96,1.63,1.3-4.24,1.31,4.56,1.3-.98,1.63-.32,1.63.98-2.61,1.63-1.3,1.3-.65,1.63-3.93-.32-.64-3.27-1.31-1.3-1.96-.98,1.31-.65ZM107.65,52.21l-3.26-1.31-2.29-1.62-2.61-1.96-1.95-2.94-.33-4.9.98-3.91,1.96-2.61,2.94-2.61,3.26-1.3,3.59-.33,3.59.33,3.91,1.3,2.94,1.64,2.28,1.95,1.64,2.93.64,3.92-.97,4.56-1.63,2.29-2.29,2.28-2.28,1.63-3.26.98-3.19.31,3.84,1.64h5.21l2.95-.33-1.3,1.31-.98.97-2.3,1.31h-2.6l-1.96-.33h-1.62c-1.65-.98-1.65,1.64-1.65,1.64l.99,3.25.97,3.27,2.29,4.23,1.3,3.26.66,3.26-.33,3.92-.65,3.58-.66,3.59-.32,2.61-.65,2.93-4.24-.32.64-2.61.66-3.26.33-3.92.33-2.6v-1.63l-2.29.32-2.28-.32-1.97-.66-1.62-.65-1.62-.98-.99-1.3-1.31-1.63-.98-1.63-1.3-2.61,3.91-.65,4.56,1.63,2.61,1.3,1.95,1.63,1.65,2.28v-3.25l-1.98-3.92-1.62-2.6-.33-2.29-.65-2.61-.32-2.93-.66-.66h-4.56l-2.62-.97c-1.31-.65-2.93-2.95-2.93-2.95l3.26.34,2.61.32h3.58l2.28-1.3h.84l-1.82-.33ZM95.58,208.84l.64-1.3,1.64-.98h2.28l-1.31-4.24,3.6,2.94.33-1.64,1.3-1.3,1.62-.65-.97,3.25v1.97l.66,1.62-3.28,2.29-2.61-2.29-1.95-.32-1.95.65ZM144.19,261.37l-.97-2.27-1.95-2.94-1.96-3.27-1.3-2.27-1.3-1.31-1.65,1.96-1.63.97-1.95.98-1.64.33-1.96.33-1.96-.33-1.62-.33-1.96-.65-2.6-1.3,2.6-2.94,4.24-1.63,2.94-.65h2.93l2.61.65-2.28-2.28-3.91-1.63-2.94-1.31-1.95-1.3-2.29-1.96-1.64-1.95h-1.3l-1.95,1.63-1.31,1.3-2.92.65c-1.31.66-3.92,0-3.92,0l2.61-1.63,2.28-1.62,2.61-2.29.98-2.61-.98.65-3.26,1.3-2.94.33-3.27-.33-3.27-.65-3.25-3.59-1.95-3.91-.32-2.94.63-3.91,1.97-2.94,2.29-2.61,2.92-1.96,3.59-1.96,3.59-.32h2.93l2.93.98,2.95,2.94,2.28,3.92.33,2.93-.33,3.26-.65,2.61-1.63,2.61-2.45,2.14,4.08-1.17,1.95-1.62,1.95-1.97,2.3-1.95v1.95l-.32,1.31-.98,2.61-1.97,1.63-1.62.65-1.31,1.31c-1.63,0,0,1.96,0,1.96l2.6,2.29,2.94,1.63,4.56,1.95,2.95,1.64,2.61,2.28,2.27,2.93,1.95,3.27,1.63,2.93,1.32,2.6,1.62,2.29-3.6,2.6ZM186.29,264.97l-3.27.33-1.63.97-.65,2.29-.66-1.63.66-1.96,1.31-1.63-3.92-1.96,4.57-.65-.98-1.3v-1.95l.98-1.31,1.31,2.93,1.63,1.31,1.32.65-.66,3.91ZM252.2,271.17l-2.29-.98-3.25-.98-3.93-.65-2.28-.66h-1.96v2.29l-.33,2.29-.65,1.95-.99,1.3-.99,1.64-1.61.97-1.3.98-1.97.98-2.93.98v-3.91l1.62-4.24,1.63-2.61,1.96-1.96,2.28-1.31h-3.25l-3.92,1.64-2.93.97-2.28.33-2.61.33h-2.93l-.66.97-.33,2.62v1.62l-1.3,2.61c-.98,1.31-2.93,2.62-2.93,2.62l.33-2.94.65-2.94.33-3.59-1.18-2.05-.13.75-1.63,3.26-1.95,1.96-2.28,2.61-2.94,1.63-4.9-.33-3.91-1.3-2.61-1.95-1.96-3.27-.97-3.25v-3.59l.66-3.59,1.3-3.92,2.28-2.61,1.96-1.95,2.93-1.63h3.91l4.58,1.3,2.28,1.63,1.97,2.61,1.29,2.29.65,3.26v3.05l1.96-3.37.32-2.61v-2.61l.33-3.26.97,1.63.99,1.31.98,2.27v2.29l-.66,1.96-.32,1.63c-.99,1.62,1.62,1.62,1.62,1.62l3.59-.64,3.26-.65,4.25-1.96,3.25-.66,3.59-.32,3.59.65,3.6.65,3.26.98,2.92.66,2.95.65-.99,4.56ZM277.66,233.31l-5.21,1.64-7.51.98-6.53,1.3-6.85,1.31-5.87,1.3-6.53,1.63-6.2,2.61-5.87,2.61-6.85,3.6-7.18-3.6-6.53-2.61-6.2-2.61-5.88-1.63-6.52-1.3-6.86-1.31-5.88-1.3-7.5-.98-4.25-1.64-5.21-1.63-5.22-2.93-4.9-2.29-4.23-3.91-3.93-3.6-2.61-5.21-.97-4.25V50.58l4.89,1.96,5.21,1.3,5.23.98,6.21,1.63,5.54.32,5.87.65,5.87.66h11.76l5.53-.66,4.57-.97,4.57-1.63,3.59-.98,4.24-1.3,5.23-2.61,5.55-2.62,5.22,2.62,5.22,2.61,4.24,1.3,3.59.98,4.56,1.63,4.24.97,5.22.66h12.41l6.21-.66,6.52-.65,5.87-.32,5.89-1.63,4.57-.98,4.89-1.3,4.24-1.96v158.91l-.33,4.25-2.61,4.56-2.93,3.91-4.57,3.27-4.89,3.27-5.56,2.6-4.57,1.96ZM332.82,237.56l-1.96,3.26-2.93,2.28-3.28.66-2.28.65-3.25-.65-3.27-1.31-1.31-1.16v1.49l1.96,1.63,2.62,1.63,3.91,1.96-3.91,1.3-1.97-.65-1.96-.98-1.63-1.96-1.3-1.63-2.3,1.96-2.6,1.63-2.28,1.31-3.26,1.3-2.62,1.63-3.26,2.62,3.26-1.31,2.62.32,2.28.99,2.28,1.94.97,1.64.98,1.63-2.6.65-2.61.32h-2.62l-2.93-.97-2.93-1.96-.33-1.63-1.31.65-1.95,2.29-1.95,2.61-1.3,1.95-1.64,1.63c-1.31.33-3.26-2.28-3.26-2.28l1.95-3.26,2.95-3.92,3.26-2.93,3.26-2.94,3.58-2.29,4.26-1.63,2.93-1.3,2.28-1.63,1.96-1.96-1.96-.97-1.62-1.64-1.3-2.28v-2.28l.97-2.61,1.64,3.58,2.92,3.27,1.53.21-1.53-1.52-1.62-3.59-.97-3.59.32-2.93,1.31-3.26,2.29-1.96,3.91-2.61h3.93l2.92.65,2.29,1.31,2.94,1.95,1.95,2.29,1.96,2.28,1.64,2.94.65,3.25-.65,3.92ZM333.79,221.24h-1.96l-1.95.97-1.63-2.28.33-1.63v-2.28l-.98-2.28,2.28,1.3.98,1.95,3.91-2.28-1.95,4.24,1.62.65,1.95,2.29-2.6-.66Z"/><path class="cls-2" d="M183.68,228.75l-5.56-.33.34-.32-.67-1.96.67-4.24-.34-3.59-1.3-4.56-1.3-2.94-1.62-1.63-1.96-3.59,4.56-2.28,1.29-3.58,1.65,2.93.33,2.93,1.3,2.28.98,2.61-.33,1.63.98-3.59,1.98-2.93,1.95-2.28,2.61-1.31,3.25-.65,3.6-.32-.65,3.91-.99,3.26-.98,2.28-1.95,1.96-2.61,1.31-2.94.65-2.28.32-.99-.32.99,1.63.65,2.93.97,3.59.33,2.93v2.94l-1.95.33h0ZM151.37,176.21l3.6-2.29-.32-2.29v-1.63l.65-.98,1.63-.97h-1.63l-.98.32-.97.98-.99,1.63-3.27-2.93.33,4.23-.33.33h-1.95l-.97.65-.99,1.96,1.3-.98.99-.33.98-.33,1.3.65.65.65.97,1.31h0ZM153.34,176.21c-6.86,4.24-9.15,11.74-5.56,16.64,3.26,4.16,10.32,4.8,16.72,1.69.14-.04.23-.06.25-.06l-.98,1.3-1.3.66-1.65.65-1.29.65-1.63.33,1.63.65h2.29l1.95-.33,1.64-.97.97-.98.65,1.63,2.62-1.3-.66-1.31,1.32-.98,1.95-.98.97-1.3.33-1.31-.33-1.95-.97,1.3-1.3,1.31-1.96,1.3-1.96.33-.34.12c6.3-4.28,8.76-11.62,5.24-16.43-3.6-4.9-12.08-5.22-18.6-.65h0ZM165.73,192.85l.66-3.59-.66-3.91-.97-2.94-1.95-2.94-2.61-2.28-2.61-1.31-3.26.33-1.3,2.61.64,4.24,1,2.93,1.31,1.96,2.28,2.28,1.96,1.31,2.61.65,2.93.65h0Z"/><polygon class="cls-2" points="224.79 70.15 210.11 70.15 208.48 68.2 206.85 65.25 205.22 62.97 204.23 61.02 206.2 62 208.15 62.97 210.77 63.95 214.36 63.95 215.67 61.02 216.31 58.73 217.3 56.45 217.94 58.41 218.27 61.02 219.9 63.95 222.51 63.95 225.77 62.97 227.74 62 230.35 60.69 229.04 62.65 228.06 64.28 226.75 66.89 224.79 70.15 224.79 70.15"/><path class="cls-3" d="M289.08,99.2l-1.63.65-2.93.32-3.92.33-6.54.99h-5.53l-2.29-.67.64-.65,2.29-.97,2.29-1.64,2.94-2.28,3.6-1.95,2.61-2.29,3.59-3.92,2.93-4.24,1.3-2.61,1.31-4.24.65-3.91.65-3.27-.33-2.61v-1.63l-.97,1.3-2.61,1.96-1.3,1.3-3.92,2.63-3.91,2.28-2.95,1.63-4.88,1.95-3.92,1.63-4.25,1.31-3.59,1.3-3.91,1.63-2.29.66-2.93,1.3-2.29,1.63-2.28,2.62-1.64,2.6-1.3,2.94-.33,2.61v4.57l-.98,2.61-1.63,1.96-3.27.98h-3.59l-1.95-.98-.97-.98-1.3-1.63-.33-2.93v-10.77l.64-8.17-.98-2.6-1.96-2.62-1.64-1.95-1.3-1.3-19.58-.34-.98,1.31-1.62,1.31v8.48h7.83l1.63,2.28-.33,14.69-.64,3.26-2.94,2.29-2.61,1.3-3.9-.65-2.28-.98-.99-1.63-.99-3.91-.64-4.91-.99-2.28-1.63-2.93-1.64-1.97-1.63-1.63-2.28-1.3-2.94-1.63-3.91-1.31-3.92-1.3-3.9-1.31-3.59-1.63-3.27-.65-3.6-1.96-3.25-1.3-1.94-.98-2.94-.97-2.94-1.97-1.96-1.63-2.62-1.96-2.93-3.26-.97,5.54.64,6.53,1.64,2.94,1.29,3.59,2.29,2.28,3.26,4.25,3.59,2.28,3.26,2.61,3.91,2.28,3.92,1.31,3.26,1.95,2.95,1.32-3.59.65-4.9-.33h-5.55l-3.6-.66-3.91-.65-3.59-1.3-2.28-1.31.63,2.93.99,1.97,1.63,3.25,2.28,3.27,3.6,3.25,2.94,2.29,3.9,2.28,2.62.98,3.58.99,3.26.32,1.97.65,4.56.98-4.89,2.29-3.59,1.62-2.61.66-3.27.97-3.59.33-4.25.33-2.93.32,1.96,1.64,2.28,1.64,2.93,2.27,2.92,1.97,2.62,1.31,3.59,1.3,3.59.33,3.91.33,4.25-.33,5.88-.98-3.28,3.26-3.27,2.29-2.28,1.63-2.29.66-3.25,1.29-3.28.65h-2.61l-2.28-.31,1.3,1.95,3.59,2.29,3.28,1.3,3.9,1.63,4.25-.32,4.89-.66,3.91-.97,2.61-.65,2.61-.99,2.95-1.63-1.3,3.92-1.98,2.61-1.63,1.63-1.96,1.3-1.95,1.65-1.95.65-1.98.32-1.95.65,3.27,2.29,3.58.97h4.89l5.23-1.3,2.28-.98,2.27-.66,2.29-1.29,1.64-.99,1.3-1.31,1.95.33,1.32,2.29-1.65,1.96-2.92,1.95-4.26,2.29-3.25,2.6-3.26,1.96-3.28,2.61-3.59,3.27-2.6,5.87,3.91-.98-2.93,4.24-1.64,1.63-2.29,1.95-2.28,2.62-1.95,1.95-1.97,1.31h-1.96l-3.26-.33-3.91.66-2.29.97-1.64,2.28-.33,2.94.66,2.29,2.28,3.26,2.29,1.96,3.59,1.96,3.25-.33-1.3-2.94,1.96-2.61,4.24.99.66-2.94-.66-3.27.66-.98,2.28-1.63,3.26-2.28,2.94-1.96,2.6-1.96,2.95-1.97,2.61-1.62,2.61-.65-.66,3.58-.64,1.96,2.92-2.29,1.98-1.31,1.95-.97,1.95-.97-1.95,5.54-1.31,3.59-.97,3.26-.66,2.93v3.6l.66,3.26,1.63-1.63,1.62-1.96,3.59-.97-.65,2.93-.66,5.22.33,5.86.98,6.21,1.31,3.27,1.31,3.26,1.63,2.94,1.94,3.59.98,1.63,2.29-4.57,1.63-2.93,1.31-3.27,1.3-3.92.65-2.28.32-7.51v-4.89l-.98-5.88,3.27,1.64,2.93,1.95,1.96,1.31-.66-4.24-.33-3.91-.33-2.95-.97-3.91-.97-2.94-1.3-2.6-.33-1.97,2.6.99,2.61.98,2.6,1.62,2.29.98,2.93,1.96-.64-2.28-.66-1.64,4.57,1.32,2.93,2.28,2.61,1.64,3.92,3.25,1.62,2.94.33,3.93,1.63,2.93,2.6,1.96h4.25l3.25-.98,2.95-3.91.33-4.25-1.63-2.94-2.29-1.95-4.25-.98-3.26.65-1.95.33-1.96-1.96-2.61-2.61-3.59-3.26-1.63-2.95-1.31-2.28v-.65h3.26l1.3-.33-1.95-4.56-2.94-2.94-3.25-2.62-4.25-3.26-3.91-1.95-3.59-1.64-2.6-1.62-1.65-1.97.66-2.28,1.96-.66,4.56,2.28,4.26,1.65,3.91.98,5.87.97,3.59-.32,3.27-.98,4.23-2.3-6.51-1.95-3.6-1.97-2.61-3.26-1.63-2.6-.32-1.64,2.28,1.31,4.23,1.3,6.85.98h6.85l4.89-1.3,2.94-1.96,4.24-3.26h-3.58l-3.91-.66-3.6-.65-2.94-.98-2.61-1.63-2.28-1.96-1.62-1.63-1.63-2.28,2.61.32,6.19.33,5.89-.65,4.55-.65,3.59-1.31,2.95-1.64,2.93-2.27,1.96-1.32,1.3-1.63-3.92-.33-3.58-.65-3.28-.98-2.92-.98-2.95-1.3-2.29-.97-1.62-1.31-.99-.65,1.97-.66,2.93-.97,3.92-.66,2.28-.33,3.92-1.63,2.61-1.31,2.61-1.3,1.63-1.96,2.6-2.28.98-2.28.97-2.29.66-3.26.98-4.25-3.26,1.64ZM213.05,82.23c-1.95,0-3.27-1.31-3.27-3.26,0-1.64,1.32-3.26,3.27-3.26s3.25,1.62,3.25,3.26c0,1.95-1.3,3.26-3.25,3.26Z"/><path class="cls-2" d="M255.14,205.26l-1.95,1.95-1.64,2.61-.98,2.29-.66,1.31-.97-2.28-.33-2.62-1.95-2.94-2.94-2.28-2.94-1.31-2.94-.97h-2.61l.32,3.6.33,2.6,1.32,1.96,1.63,2.28,2.28,1.96,2.28,1.63,2.94.33,2.6-.33-.65,4.89-.33,3.26-.32,3.59v1.96h8.49v-4.24l.33-4.24.64-3.92.33-3.26.98-2.61.98-2.28-1.96-3.58-1.3-.66-.98,1.31h0ZM278.64,173.92l.66-2.28-.66-2.94-1.63-.98-1.96-.65,2.95-.65,2.28.98,1.3,1.3.65,1.96,4.24-3.26-1.95,5.22,2.28.32,1.95.66,1.63,1.95.32,2.28-1.95-1.63-1.63-1.31-1.62.66-1.31.32-1.63,1.31-3.92-3.26h0ZM276.02,174.25c-7.18-2.61-14.03.33-15.33,6.52-.96,4.53,1.4,9.59,5.54,13l-1.63-.27-2.27-.65-1.3-.65-1.64-.98-.98-1.31-.32,1.31v.98l.65,1.3,1.63.98,1.31.65,1.29.33,1.96.65-1.3,1.63,2.28.65.97-1.63.98.65v1.31l1.3.65,1.32.33,2.28.32,2.28-.32,2.29-1.64h-1.96l-2.61-.32-1.31-.65-1.62-.98-.04-.05c.54.26,1.09.5,1.66.7,7.19,2.28,14.05-.65,15.35-6.86,1.3-6.2-3.59-13.38-10.78-15.66h0ZM280.6,177.52l.32,3.26-.65,3.59-.65,2.6-1.63,2.62-2.29,1.63-1.96,1.3-2.6.97-2.3.33-.98-1.96-.32-3.26.32-3.27,1.64-2.28,1.96-2.93,2.6-1.64,2.28-.97h4.26Z"/></g></svg>