<?xml version="1.0" encoding="UTF-8"?><svg id="Layer_1" xmlns="http://www.w3.org/2000/svg" viewBox="0 0 1000.77 299.91"><defs><style>.cls-1{fill:#231f20;fill-rule:evenodd;}</style></defs><path class="cls-1" d="m338.76,103.81v26.6c-7.03,7.77-18.44,12.02-32.02,12.02-22.31,0-37.48-15.06-37.48-41.05s15.04-40.57,37.48-40.57c13.22,0,23.65,4.86,30.2,13-.85,3.16-3.88,5.1-6.79,5.83-4.61-6.68-12.37-10.57-23.41-10.57-17.22,0-27.77,12.02-27.77,32.31s10.67,32.67,27.77,32.67c8.49,0,16.01-1.94,22.32-6.07v-22.47c2.55-2.43,6.43-2.79,9.7-1.7Z"/><path class="cls-1" d="m381.09,88.51c-9.95,0-14.92.73-18.92,2.91v49.8h-9.34v-55.63c6.79-3.77,15.4-5.59,22.8-5.59,3.64,0,5.7.61,7.16,1.09,0,2.79-.37,5.59-1.7,7.41Z"/><path class="cls-1" d="m442.23,80.37v55.63c-4.61,3.28-17.95,5.59-25.47,5.59-14.19,0-23.29-5.22-23.29-19.8v-39.6c2.79-1.34,5.7-1.82,9.34-1.82v40.08c0,8.87,5.21,12.87,16.13,12.87,5.22,0,10.07-.85,13.95-1.94v-49.31c2.55-1.34,6.19-1.7,9.34-1.7Z"/><path class="cls-1" d="m502.14,110.36c0-12.63-7.03-22.47-23.77-22.47-3.4,0-6.91.48-10.55,1.33v42.63c3.64,1.34,8.13,2.43,12.98,2.43,13.22,0,21.35-7.05,21.35-23.93Zm9.46,1.46c0,17.37-8.49,30.61-26.69,30.61-5.7,0-12.25-1.82-17.1-4.74v24.54c-1.94,1.82-6.55,3.16-9.34,3.16v-82.11c3.88-1.7,11.76-3.4,19.28-3.4,20.98,0,33.84,10.93,33.84,31.94Z"/><path class="cls-1" d="m569.58,110.85c0-14.45-7.27-22.83-19.77-22.83s-19.65,8.38-19.65,22.83c0,15.31,7.27,23.2,19.65,23.2s19.77-7.89,19.77-23.2Zm-48.99,0c0-18.95,11.76-31.21,29.23-31.21s29.23,12.51,29.23,31.21-11.52,31.58-29.23,31.58-29.23-12.39-29.23-31.58Z"/><path class="cls-1" d="m185.49,186.54c-19.7,4.75-38.98,10.68-58.07,17.46-2.73,1.04-5.69-.31-6.41-2.93-1.54-5.58-2.9-9.87-4.42-15.43-.64-2.33.73-4.87,3.15-5.75,19.09-6.52,38.37-11.64,58.09-15.89,2.17-.44,4.46,1.15,5.25,3.61,1.59,4.98,2.98,8.99,4.53,14,.7,2.27-.23,4.47-2.12,4.93Zm-98.84-10.64c-1.16-6-2.34-10.51-3.49-16.49-.45-2.34.83-5,2.96-6,29.16-12.81,59.91-20.57,91.5-24.56,2.08-.27,4.18,1.26,4.96,3.56,1.66,4.94,3.09,8.92,4.7,13.88.78,2.39-.26,4.71-2.3,5.04-32.11,5.11-63.41,13.69-93.03,27.16-2.38,1.15-4.8-.03-5.29-2.59Zm14.2-68.18c19.53-5.62,39.02-9.27,59.2-11.74,2.2-.24,4.35,1.19,5.15,3.35,1.87,5.11,3.4,9.17,5.23,14.31.87,2.44-.43,4.87-2.79,5.18-20.64,3.04-40.65,7.21-60.6,13.3-2.44.8-4.83-.42-5.45-2.79-1.45-5.6-2.77-9.91-4.2-15.49-.64-2.51.92-5.34,3.46-6.13Zm38.55-46.9c-49.23,0-89.14,39.91-89.14,89.14s39.91,89.14,89.14,89.14,89.14-39.91,89.14-89.14-39.91-89.14-89.14-89.14Z"/><path class="cls-1" d="m309.69,213.31c0-6.41-4.11-9.08-12.22-9.08h-9.68v18.16h9.56c7.87,0,12.35-3.15,12.35-9.08Zm-14.16-40.92c-2.54,0-5.2.24-7.75.61v16.1h8.23c7.26,0,10.65-3.02,10.65-8.23s-3.51-8.47-11.14-8.47Zm34.01,41.76c0,14.16-14.28,23.6-30.5,23.6h-29.77v-78.19c9.92-1.45,17.43-2.42,26.26-2.42,16.34,0,29.41,7.63,29.41,20.94,0,7.63-4,12.71-11.14,15.49,11.02,3.15,15.74,9.8,15.74,20.58Z"/><path class="cls-1" d="m372.2,222.28v-10.41h-3.51c-8.23,0-15.74,1.82-15.74,7.51,0,4.36,2.91,5.93,8.84,5.93,4.72,0,8.6-1.45,10.41-3.03Zm17.79-22.64v31.84c-6.54,4.96-17.07,7.62-31.35,7.62-12.71,0-23.24-5.21-23.24-16.7,0-17.31,16.82-21.55,36.8-22.15-.36-7.51-3.39-9.44-10.05-9.44-3.51,0-12.83,1.57-14.04,1.57-2.9,0-5.2-1.82-7.14-7.14l-1.45-4.36c7.5-2.78,14.89-4.72,22.88-4.72,17.43,0,27.6,6.54,27.6,23.48Z"/><path class="cls-1" d="m456.64,194.68v43.09h-18.16v-36.67c0-6.41-4.24-9.69-11.62-9.69-2.78,0-5.44.36-7.74.97v45.39h-18.28l.12-53.86c7.63-5.08,19.97-7.87,30.02-7.87,13.92,0,25.66,6.9,25.66,18.64Z"/><path class="cls-1" d="m464.5,208.24c0-21.18,14.77-32.32,33.89-32.32,5.33,0,10.17.73,15.98,2.06-.72,6.05-3.27,11.38-6.05,14.4-2.06-.6-5.45-1.09-7.38-1.09-12.23,0-17.19,6.29-17.19,15.86s4.6,15.62,16.1,15.62c3.15,0,6.78-.61,11.25-2.18l3.27,14.52c-6.66,2.66-13.56,3.88-19,3.88-18.64,0-30.87-11.14-30.87-30.75Z"/><path class="cls-1" d="m562.79,207.38c0-9.93-4.84-15.74-13.31-15.74s-13.32,5.81-13.32,15.74,4.96,15.86,13.32,15.86,13.31-5.45,13.31-15.86Zm-44.9,0c0-19.37,13.07-31.47,31.59-31.47s31.59,12.59,31.59,31.47-12.47,31.59-31.59,31.59-31.59-12.47-31.59-31.59Z"/><path class="cls-1" d="m591.36,160.06c4.24-3.15,13.44-5.81,18.28-5.81v83.52h-18.28v-77.71Z"/><path class="cls-1" d="m664.84,207.38c0-9.93-4.84-15.74-13.31-15.74s-13.31,5.81-13.31,15.74,4.96,15.86,13.31,15.86,13.31-5.45,13.31-15.86Zm-44.9,0c0-19.37,13.07-31.47,31.59-31.47s31.59,12.59,31.59,31.47-12.47,31.59-31.59,31.59-31.59-12.47-31.59-31.59Z"/><path class="cls-1" d="m784.91,194.68v43.09h-18.04v-36.67c0-6.41-4.11-9.69-11.38-9.69-3.39,0-6.66.73-9.32,1.82.97,2.66,1.46,5.57,1.46,8.71v35.83h-18.04v-36.67c0-6.41-4.12-9.69-11.38-9.69-2.79,0-5.45.36-7.75.97v45.39h-18.28l.12-53.86c7.26-5.08,18.64-7.87,28.2-7.87,7.63,0,14.16,2.54,18.88,6.66,6.17-4,14.77-6.66,22.03-6.66,13.19,0,23.48,7.02,23.48,18.64Z"/><path class="cls-1" d="m840.23,206.55c0-11.14-5.81-15.13-15.13-15.13-3.75,0-6.78.73-9.44,1.94v30.38c3.27.48,6.41.73,9.32.73,10.65,0,15.25-8.23,15.25-17.91Zm18.04-2.3c0,22.03-13.08,34.74-34.38,34.74-10.41,0-20.46-1.94-26.51-4.72v-74.2c4.24-3.15,13.56-5.81,18.28-5.81v28.69c5.21-4.48,11.5-6.9,17.19-6.9,18.04,0,25.42,12.47,25.42,28.2Z"/><path class="cls-1" d="m868.56,177.73c2.54-1.09,5.69-1.69,9.2-1.69s6.54.6,9.07,1.69v60.04h-18.27v-60.04Zm-.25-19.12c0-5.08,4.23-9.32,9.32-9.32s9.44,4.12,9.44,9.32-4.23,9.32-9.44,9.32-9.32-4.12-9.32-9.32Z"/><path class="cls-1" d="m932.71,222.28v-10.41h-3.52c-8.23,0-15.73,1.82-15.73,7.51,0,4.36,2.9,5.93,8.84,5.93,4.71,0,8.59-1.45,10.41-3.03Zm17.79-22.64v31.84c-6.53,4.96-17.07,7.62-31.36,7.62-12.71,0-23.24-5.21-23.24-16.7,0-17.31,16.83-21.55,36.8-22.15-.37-7.51-3.39-9.44-10.05-9.44-3.51,0-12.83,1.57-14.04,1.57-2.9,0-5.2-1.82-7.14-7.14l-1.45-4.36c7.5-2.78,14.89-4.72,22.88-4.72,17.42,0,27.59,6.54,27.59,23.48Z"/></svg>