<?xml version="1.0" encoding="UTF-8"?><svg id="Capa_2" xmlns="http://www.w3.org/2000/svg" viewBox="0 0 81.04 42.52"><defs><style>.cls-1{fill:#191e25;}.cls-1,.cls-2{stroke-width:0px;}.cls-2{fill:#bfa779;}</style></defs><g id="Capa_1-2"><path class="cls-1" d="M36.2,23.2c.45.55,1.11.94,2.06.94,1.9,0,3.33-1.56,3.33-3.62s-1.44-3.62-3.34-3.62c-.92,0-1.57.36-2.02.9v-4.07h-1.85v10.23h1.81v-.76ZM37.91,18.62c1.09,0,1.78.85,1.78,1.9s-.68,1.9-1.78,1.9-1.77-.81-1.77-1.9.72-1.9,1.77-1.9"/><path class="cls-1" d="M49.96,23.96v-6.89h-1.81v.76c-.45-.56-1.12-.95-2.06-.95-1.9,0-3.33,1.56-3.33,3.62s1.44,3.62,3.33,3.62c.95,0,1.61-.38,2.06-.94v.76h1.81ZM46.43,22.42c-1.09,0-1.78-.85-1.78-1.9s.69-1.9,1.78-1.9,1.78.81,1.78,1.9-.72,1.9-1.78,1.9"/><path class="cls-1" d="M58.42,23.96v-4.38c0-1.6-1.12-2.69-2.68-2.69-.78,0-1.53.26-2.03,1v-.81h-1.81v6.89h1.86v-3.77c0-1.04.66-1.56,1.46-1.56.85,0,1.34.55,1.34,1.54v3.79h1.86Z"/><path class="cls-1" d="M66.32,22.85l-1.32-1.13c-.39.43-.9.7-1.5.7-.96,0-1.72-.75-1.72-1.9s.77-1.9,1.73-1.9c.6,0,1.05.24,1.47.69l1.34-1.12c-.63-.83-1.61-1.3-2.76-1.3-2.2,0-3.67,1.54-3.67,3.62s1.47,3.62,3.67,3.62c1.15,0,2.12-.46,2.76-1.29"/><path class="cls-1" d="M70.81,24.14c2.15,0,3.73-1.55,3.73-3.62s-1.58-3.62-3.73-3.62-3.72,1.55-3.72,3.62,1.58,3.62,3.72,3.62M70.81,18.62c1.04,0,1.83.78,1.83,1.9s-.79,1.9-1.83,1.9-1.83-.78-1.83-1.9.78-1.9,1.83-1.9"/><path class="cls-1" d="M37.78,33.12c-.96,0-1.72-.75-1.72-1.9s.77-1.9,1.73-1.9c.6,0,1.05.24,1.47.69l1.34-1.12c-.63-.83-1.61-1.3-2.76-1.3-2.2,0-3.67,1.54-3.67,3.63s1.47,3.62,3.67,3.62c1.15,0,2.12-.46,2.76-1.29l-1.32-1.13c-.39.43-.9.7-1.5.7"/><path class="cls-1" d="M44.86,27.78c-2.06,0-3.48,1.48-3.48,3.65s1.46,3.6,3.58,3.6c1.16,0,2.15-.33,2.94-1.04l-1.09-1.19c-.5.42-1.14.66-1.74.66-.87,0-1.57-.43-1.77-1.43h4.88c.02-.16.04-.41.04-.63,0-2.15-1.36-3.62-3.35-3.62M43.29,30.76c.16-.85.68-1.38,1.55-1.38.8,0,1.33.5,1.5,1.38h-3.05Z"/><path class="cls-1" d="M53.55,27.78c-.78,0-1.53.26-2.03.99v-.81h-1.81v6.89h1.86v-3.77c0-1.04.66-1.56,1.46-1.56.85,0,1.34.55,1.34,1.54v3.79h1.85v-4.38c0-1.6-1.12-2.69-2.68-2.69"/><path class="cls-1" d="M61.58,33.3c-.58,0-1.03-.31-1.03-1.17v-2.52h2.49v-1.65h-2.49v-2.05h-1.86v2.05h-1.33v1.65h1.33v2.66c0,1.78.87,2.75,2.58,2.75.98,0,1.68-.31,2.28-.73l-.68-1.45c-.38.23-.85.45-1.29.45"/><path class="cls-1" d="M66.48,28.72v-.75h-1.8v6.89h1.86v-3.75c0-1.02.59-1.55,1.45-1.55.38,0,.82.09,1.12.22l.28-1.84c-.26-.09-.57-.15-.97-.15-.85,0-1.51.29-1.94.94"/><path class="cls-1" d="M75.38,28.72c-.45-.56-1.12-.95-2.06-.95-1.9,0-3.33,1.56-3.33,3.63s1.44,3.62,3.33,3.62c.95,0,1.61-.38,2.06-.94v.76h1.81v-6.89h-1.81v.76ZM73.66,33.3c-1.09,0-1.78-.85-1.78-1.9s.69-1.9,1.78-1.9,1.78.81,1.78,1.9-.72,1.9-1.78,1.9"/><rect class="cls-1" x="79.15" y="24.62" width="1.86" height="10.23"/><path class="cls-1" d="M67.9,38.59c.52,0,.94.24,1.2.64l.79-.49c-.38-.65-1.13-1.04-1.98-1.04-1.42,0-2.43,1.01-2.43,2.4s1,2.4,2.43,2.4c.85,0,1.54-.38,1.95-.98l-.75-.54c-.28.4-.69.63-1.21.63-.82,0-1.46-.58-1.46-1.51,0-.9.62-1.51,1.46-1.51"/><path class="cls-1" d="M72.4,39.13c-.35,0-.69.11-.92.43v-1.9h-.86v4.76h.86v-1.76c0-.48.31-.72.68-.72.39,0,.62.25.62.72v1.76h.86v-2.04c0-.74-.52-1.25-1.25-1.25"/><path class="cls-1" d="M74.95,37.61c-.31,0-.55.24-.55.56s.24.55.55.55.55-.24.55-.55-.24-.56-.55-.56"/><rect class="cls-1" x="74.53" y="39.22" width=".86" height="3.2"/><rect class="cls-1" x="76.29" y="37.66" width=".86" height="4.76"/><path class="cls-1" d="M79.49,39.13c-.96,0-1.62.69-1.62,1.7s.68,1.68,1.66,1.68c.54,0,1-.15,1.36-.49l-.51-.56c-.23.2-.53.31-.81.31-.41,0-.73-.2-.82-.66h2.27c0-.07.02-.19.02-.29,0-1-.63-1.68-1.56-1.68M78.76,40.52c.08-.4.31-.64.72-.64.37,0,.62.23.7.64h-1.42Z"/><path class="cls-2" d="M1.37,38.27h21.16v4.25H1.37v-4.25ZM23.93,31.43c2.29,0,4.2-.29,6.25-.99-.35.02-.06,0-.41,0-12.87,0-23.31-10.43-23.31-23.31,0-2.49.27-4.89.99-7.14-2.21,3.23-3.62,7.13-3.62,11.34,0,11.1,9,20.09,20.09,20.09M18.89,34.15c3.01,0,5.28-.38,7.8-1.63-1.54.28-3.04.4-4.67.32C10.39,32.29,1.39,22.42,1.93,10.78c.09-1.86.41-3.65.94-5.34C1.01,8.36,0,11.53,0,15.26c0,10.43,8.46,18.89,18.89,18.89M19.3,25.39c1.01,0,1.89-.54,2.38-1.34h0s1.11-.61,1.11-.61l-.89-1.83c-.06-.15-.13-.29-.21-.43v-.03s-.01,0-.01,0c-.49-.8-1.37-1.34-2.38-1.34-1.54,0-2.78,1.25-2.78,2.78s1.25,2.78,2.78,2.78M10.21,34.39c.91.01,1.89-.13,2.73-.37-5.59-.12-10.18-3.97-11.53-9.14,0,.14-.06.29-.06.43-.06,4.95,3.91,9.02,8.86,9.08"/></g></svg>