<?xml version="1.0" encoding="UTF-8"?><svg id="Capa_2" xmlns="http://www.w3.org/2000/svg" viewBox="0 0 471.96 117.94"><defs><style>.cls-1{stroke-width:0px;}</style></defs><g id="Layer_1"><path class="cls-1" d="M88.21,53.46c2.2,1.32,4.11,2.35,5.9,3.55,9.51,6.37,14.83,14.96,14.32,26.74-.56,12.89-6.12,22.55-17.85,28.36-7.74,3.83-16.07,5.52-24.6,5.64-15.81.23-31.63,0-47.45.18-3.31.04-4.36-.9-4.2-4.17.25-4.98.28-9.99,0-14.96-.21-3.53.98-4.51,4.47-4.47,14.82.18,29.64.07,44.45.07,3.34,0,6.65-.13,9.72-1.72,4.63-2.39,6.7-6.36,6.15-11.99-.47-4.76-3.48-7.3-7.76-8.7-2.24-.74-4.51-1.07-6.87-1.05-5.16.05-10.32-.02-15.48.02-3.47.03-7.88-1.08-10.17.61-2.51,1.85-.83,6.5-.82,9.91.01,2.79-1.11,3.34-3.56,3.28-5.49-.13-10.99-.2-16.48.02-3.06.12-3.49-1.23-3.54-3.84-.2-9.86-.28-9.97-10.13-9.93-3.06.01-4.5-.5-4.29-4.02.32-5.3.2-10.64.03-15.96-.08-2.66.47-3.91,3.5-3.83,3.44.09,7.82,1.54,10.12-.64,2.34-2.21.67-6.6.76-10.03.06-2.25.99-2.82,3.04-2.79,5.83.08,11.66.13,17.48-.02,2.5-.06,3.02.97,3.04,3.24.03,3.28-1.53,7.56.65,9.58,2.34,2.17,6.65.63,10.1.69,4.66.09,9.34.14,13.98-.2,6.65-.48,10.31-4.15,10.79-10.23.49-6.17-2.54-10.25-8.77-12.12-2.13-.64-4.26-.65-6.42-.65-13.15,0-26.31-.11-39.46.07-3.34.04-4.76-.66-4.55-4.33.31-5.47.1-10.97.07-16.46,0-1.79.03-3.31,2.54-3.22,19.27.68,38.63-1.54,57.82,1.66,6.17,1.03,11.83,3.31,16.74,7.26,11.78,9.47,13.52,24.99,4.02,36.72-2.18,2.69-4.77,5.05-7.31,7.7Z"/><path class="cls-1" d="M132.06,59.25c0-7.48.11-14.95-.06-22.42-.06-2.73.59-3.89,3.56-3.73,6.8.38,13.64-.53,20.41.66,4.96.88,9.24,2.85,11.07,8.04,1.81,5.15,1.09,9.91-3,13.69-1.7,1.57-1.29,2.14.34,3.17,6.29,3.98,7.45,9.94,5.68,16.57-1.74,6.5-6.88,9.27-13.09,9.68-7.29.48-14.62.23-21.93.45-2.45.07-3.07-.86-3.03-3.18.13-7.64.05-15.28.05-22.92ZM148.48,78.86c2.45-.18,5.26.24,8.07-.51,4.52-1.2,6.81-4.04,6.64-8.63-.17-4.78-3.2-7.1-7.64-7.71-2.29-.31-4.65-.27-6.97-.27q-8.8-.03-8.8,8.81,0,8.31,8.69,8.31ZM139.79,47.29c0,1.83.06,3.66-.02,5.49-.08,1.8.43,2.83,2.48,2.73,3.98-.21,8.01-.05,11.95-.53,3.93-.48,6.19-2.88,6.2-7.09.02-4.15-2.13-6.59-5.97-7.43-2.25-.49-4.63-.52-6.95-.55-7.69-.1-7.7-.07-7.69,7.39Z"/><path class="cls-1" d="M261.92,54.54c9.19-7.4,16.36-7.05,22.65.77,3.73-4.17,8.23-6.79,14.02-5.99,5.87.81,9.53,4.36,9.96,10.7.51,7.62.17,15.29.33,22.93.06,3.16-2.16,2.22-3.79,2.35-1.89.15-3.59.26-3.49-2.65.19-5.81.1-11.64.04-17.46-.06-6.51-2.25-9.35-7.05-9.37-5.46-.02-8.71,3.55-8.79,9.8-.07,5.49-.17,10.98.05,16.46.11,2.79-1.01,3.38-3.47,3.29-2.28-.09-4.2.18-4.07-3.24.24-6.14.19-12.31-.02-18.45-.19-5.55-2.4-7.88-6.88-7.86-4.86.02-8.45,3.41-8.57,8.43-.14,5.98-.22,11.98.03,17.95.12,3-1.35,3.17-3.6,3.15-2.31-.02-4.13.14-4.05-3.26.22-8.97-.02-17.96.16-26.93.04-1.74-1.64-4.43,1.96-5.17,3.62-.74,4.05,1.71,4.58,4.55Z"/><path class="cls-1" d="M377.73,80.52c-4.7,4.71-9.14,5.96-14.2,5.52-3.34-.29-6.08-1.64-8.35-3.96-5.28-5.42-6.25-17.54-2.06-24.86,3.77-6.6,11.29-9.33,19.98-7.26,1.11.27,2.22.56,3.82.96,0-4.87.13-9.47-.05-14.06-.1-2.66.48-3.78,3.49-3.83,3.22-.05,3.85,1.09,3.82,4.03-.13,14.79-.04,29.58-.09,44.37,0,1.59.94,3.87-2.22,3.92-2.54.04-4.82.09-4.14-4.83ZM376.92,65.52c0-8.36-2.07-10.44-9.77-9.8-6.46.53-10.06,6.25-9.16,14.54.68,6.32,4.01,9.82,9.21,9.68,5.68-.15,9.53-4.28,9.71-10.43.04-1.33,0-2.66,0-3.98Z"/><path class="cls-1" d="M202.22,80.55c-6.12,6.13-12.19,6.83-18.52,4.29-6.75-2.7-8.76-8.64-9.13-15.33-.77-14.01,9.27-23.28,21.17-19.52,1.4.44,2.75,1.17,3.98,1.99,1.3.87,1.9,1.43,2.62-.72.76-2.27,3.19-1.24,4.81-1.09,1.9.18,1.23,2.07,1.24,3.26.05,9.15.09,18.3-.03,27.44-.02,1.63,1.39,4.26-2.14,4.47-2.75.17-4.78-.26-3.99-4.79ZM200.96,68.2c0-1.16.07-2.33-.01-3.48-.37-5.44-3.28-8.65-8.09-9.01-5.39-.4-9.63,2.46-10.62,7.63-.49,2.56-.46,5.3-.22,7.92.58,6.28,5.35,9.7,11.53,8.51,5.41-1.04,7.44-4.19,7.41-11.57Z"/><path class="cls-1" d="M471.84,67.6c0,4.81.05,9.62-.04,14.43-.02,1.14.84,3.04-1.25,3.14-1.59.08-4,1.26-4.6-1.37-.58-2.55-1.25-1.81-2.83-.79-11.39,7.35-23.62,1.38-24.96-12.11-1.1-11.13,4.04-19.3,13.36-21.38,2.69-.6,5.24-.2,7.86.42,2.63.63,4.86,4.3,8.25.33,1.24-1.45,4.63-.6,4.29,3.41-.39,4.61-.09,9.28-.09,13.93ZM464.8,68.42c.01-8.83-2.7-12.63-9.06-12.74-6.5-.11-10.52,4.58-10.59,12.37-.07,7.32,3.67,11.83,9.85,11.88,6.57.06,9.79-3.73,9.81-11.51Z"/><path class="cls-1" d="M333.38,86.08c-9.5.04-14.91-2.76-17.16-9.48-2.63-7.89-2.58-15.8,3.35-22.45,4.45-4.99,13.62-6.34,20.43-3.54,4.12,1.7,6.38,4.8,6.48,9.16.09,4.34-1.89,7.59-6.03,9.42-4.81,2.13-9.92,2.66-15.06,2.87-3.24.13-3.19,1.43-1.91,3.66,1.54,2.69,4.04,3.86,6.95,4.24,4.05.52,7.88-.33,11.65-1.86,1-.41,2.66-2.7,3.47.05.58,1.97,2.1,4.47-1.32,5.82-3.77,1.48-7.62,2.28-10.85,2.11ZM325.53,67.11c3.26-.6,6.55-1.05,9.76-1.84,2.66-.65,4.46-2.44,4.19-5.35-.28-2.92-2.44-4.1-5.12-4.57-5.59-.98-10.15,1.83-11.93,7.31-.94,2.89-1.1,5.08,3.1,4.45Z"/><path class="cls-1" d="M222.12,55.14c5.64-5.37,11.37-7.21,18.06-5.09,4.6,1.46,7.45,4.69,7.68,9.41.38,7.8.16,15.64.31,23.45.06,3.12-2.1,2.29-3.77,2.4-1.98.14-3.51.03-3.42-2.78.19-5.82.09-11.65.04-17.47-.05-6.42-2.34-9.09-7.84-9.24-5.77-.16-10.15,3.54-10.35,9.13-.2,5.48-.23,10.99.02,16.47.14,3.05-.73,4-3.84,4.01-3.07,0-3.5-1.22-3.46-3.84.14-8.82-.05-17.64.14-26.46.04-1.72-1.69-4.49,1.93-5.12,3.58-.62,4.19,1.71,4.49,5.12Z"/><path class="cls-1" d="M433.55,76.03c2.54,5.86,2.27,6.62-2.99,8.68-7.77,3.05-18.09,1.72-22.46-3.4-5.81-6.8-5.48-14.78-2.85-22.64,2.05-6.16,8.18-9.52,15.56-9.5,6.53.01,11.32,2.8,13.35,7.77,1.73,4.24.67,5.81-3.77,5.82-1.36,0-2.15-.18-2.43-1.71-.78-4.26-3.77-5.46-7.7-5.37-4.17.1-7.08,2.11-8.23,5.99-1.61,5.42-1.95,10.95,2.2,15.53,3.14,3.46,9.55,3.65,15.45.86,1.32-.62,2.58-1.35,3.88-2.03Z"/><path class="cls-1" d="M391.04,67.53c0-4.82.16-9.65-.06-14.46-.14-3.04,1.49-3.13,3.71-3.06,2.04.06,3.95-.28,3.9,2.89-.14,9.81-.18,19.62.01,29.42.07,3.62-2.18,2.84-4.25,3.03-2.6.24-3.49-.7-3.37-3.36.21-4.81.06-9.64.06-14.46Z"/><path class="cls-1" d="M328.85,44.55c1.84-3.37,3.58-6.51,5.27-9.67.67-1.26,1.5-2.16,3.08-1.84,1.56.32,3.69-.54,4.59.97.86,1.44-.96,2.62-1.78,3.71-2.69,3.57-4.05,9.3-11.16,6.83Z"/><path class="cls-1" d="M394.95,43.73c-2.97-.47-5.02-2.09-4.92-5.22.09-2.79,1.75-4.67,4.77-4.7,2.96-.03,4.7,1.56,4.91,4.5.23,3.26-1.76,4.79-4.75,5.41Z"/></g></svg>