<?xml version="1.0" encoding="UTF-8" standalone="no"?>
<svg
   xmlns:dc="http://purl.org/dc/elements/1.1/"
   xmlns:cc="http://creativecommons.org/ns#"
   xmlns:rdf="http://www.w3.org/1999/02/22-rdf-syntax-ns#"
   xmlns:svg="http://www.w3.org/2000/svg"
   xmlns="http://www.w3.org/2000/svg"
   xmlns:sodipodi="http://sodipodi.sourceforge.net/DTD/sodipodi-0.dtd"
   xmlns:inkscape="http://www.inkscape.org/namespaces/inkscape"
   version="1.0"
   width="100"
   height="39"
   viewBox="0 0 75.000003 29.25"
   preserveAspectRatio="xMidYMid meet"
   id="svg2"
   inkscape:version="0.92.4 (5da689c313, 2019-01-14)"
   sodipodi:docname="Tudou.com logo.svg">
  <title
     id="title850">Grupo Argos logo</title>
  <defs
     id="defs72" />
  <sodipodi:namedview
     pagecolor="#ffffff"
     bordercolor="#666666"
     borderopacity="1"
     objecttolerance="1"
     gridtolerance="1"
     guidetolerance="1"
     inkscape:pageopacity="0"
     inkscape:pageshadow="2"
     inkscape:window-width="1366"
     inkscape:window-height="705"
     id="namedview70"
     showgrid="false"
     inkscape:showpageshadow="false"
     inkscape:zoom="1"
     inkscape:cx="52.148825"
     inkscape:cy="14.184122"
     inkscape:window-x="-8"
     inkscape:window-y="-8"
     inkscape:window-maximized="1"
     inkscape:current-layer="svg2"
     showguides="false"
     units="px">
    <inkscape:grid
       type="xygrid"
       id="grid4754" />
  </sodipodi:namedview>
  <metadata
     id="metadata4">
Created by potrace 1.14, written by Peter Selinger 2001-2017
<rdf:RDF>
  <cc:Work
     rdf:about="">
    <dc:format>image/svg+xml</dc:format>
    <dc:type
       rdf:resource="http://purl.org/dc/dcmitype/StillImage" />
    <dc:title>Grupo Argos logo</dc:title>
    <cc:license
       rdf:resource="http://scripts.sil.org/OFL" />
  </cc:Work>
  <cc:License
     rdf:about="http://scripts.sil.org/OFL">
    <cc:permits
       rdf:resource="http://scripts.sil.org/pub/OFL/Reproduction" />
    <cc:permits
       rdf:resource="http://scripts.sil.org/pub/OFL/Distribution" />
    <cc:permits
       rdf:resource="http://scripts.sil.org/pub/OFL/Embedding" />
    <cc:permits
       rdf:resource="http://scripts.sil.org/pub/OFL/DerivativeWorks" />
    <cc:requires
       rdf:resource="http://scripts.sil.org/pub/OFL/Notice" />
    <cc:requires
       rdf:resource="http://scripts.sil.org/pub/OFL/Attribution" />
    <cc:requires
       rdf:resource="http://scripts.sil.org/pub/OFL/ShareAlike" />
    <cc:requires
       rdf:resource="http://scripts.sil.org/pub/OFL/DerivativeRenaming" />
    <cc:requires
       rdf:resource="http://scripts.sil.org/pub/OFL/BundlingWhenSelling" />
  </cc:License>
</rdf:RDF>
</metadata>
  <g
     id="#022d6cff"
     transform="matrix(0.06875987,0,0,0.06875987,-3.8489822,-11.696763)">
    <path
       style="opacity:1;fill:#022d6c;stroke-width:1.01182306"
       d="m 473.13902,181.02424 v 98.09969 a 128.73731,128.73731 0 0 1 91.50368,-98.09969 z m 160.15838,0 a 128.73731,128.73731 0 0 1 91.48211,96.33213 v -96.33213 z m -160.15838,149.4021 v 98.81103 h 92.81857 a 128.73731,128.73731 0 0 1 -92.81857,-98.81103 z m 251.64049,2.56513 a 128.73731,128.73731 0 0 1 -91.84856,96.2459 h 91.84856 z M 520.94942,489.59315 c -3.35339,0.12416 -6.68548,0.49086 -9.9587,1.07778 -13.9732,2.52956 -27.18843,10.66089 -34.40279,23.08609 -7.35595,12.36447 -8.46354,27.74391 -4.87158,41.4946 3.10627,11.89903 10.84002,22.58618 21.38319,28.97077 12.75912,7.85171 28.66636,9.6667 43.17594,6.5098 12.20263,-2.66109 23.6147,-9.71647 30.5659,-20.21919 9.0761,-13.23464 10.79283,-30.71591 6.22957,-45.9135 -3.47064,-12.08116 -11.91289,-22.71551 -23.04297,-28.60432 -8.84078,-4.92511 -19.01836,-6.77436 -29.07856,-6.40203 z m 477.11243,0.10779 c -3.3534,0.12416 -6.68546,0.49085 -9.95871,1.07777 -13.97327,2.52956 -27.21004,10.63936 -34.42434,23.06454 -7.35596,12.36448 -8.44197,27.74391 -4.85001,41.49459 3.1063,11.89904 10.81844,22.58616 21.36162,28.97077 12.75909,7.85175 28.68795,9.66669 43.19749,6.50981 12.2026,-2.6611 23.6147,-9.71647 30.5659,-20.21919 9.0761,-13.23464 10.7929,-30.71593 6.2296,-45.9135 -3.4706,-12.08116 -11.9129,-22.69397 -23.043,-28.58277 -8.8408,-4.92506 -19.0183,-6.77433 -29.07855,-6.40202 z m 112.34795,0.56044 c -2.8424,0.0199 -5.6889,0.2243 -8.5144,0.64667 -6.9614,1.04218 -13.9218,3.58163 -19.163,8.42824 -9.7439,8.75228 -10.0922,25.79613 -0.7329,34.96325 6.7489,6.87028 16.2681,9.66958 24.7674,13.66627 5.2615,2.49921 10.9687,4.88465 14.7225,9.54915 3.845,5.24124 2.1733,13.14357 -2.8453,17.02896 -4.1687,3.09618 -9.4962,4.44222 -14.6363,4.13868 -9.7438,-0.39456 -19.0175,-3.85132 -27.699,-8.04026 0.1114,5.89893 0.024,11.79827 0.065,17.69718 14.3982,3.56162 29.8506,5.3899 44.3399,1.27178 9.2582,-2.57003 17.8309,-9.27394 20.5425,-18.77496 2.4487,-8.98499 1.5008,-19.7562 -5.238,-26.70743 -6.9714,-7.26489 -16.6156,-10.91716 -25.6512,-14.87339 -4.4925,-2.07424 -9.4061,-3.74442 -12.998,-7.2858 -3.3289,-3.2176 -3.6826,-8.75499 -1.3149,-12.61005 2.2766,-3.52112 6.4287,-5.35986 10.476,-5.90625 10.2397,-1.07252 20.7803,1.89717 29.057,8.0187 0.01,-5.67632 0.1,-11.35262 -0.022,-17.02895 -8.1047,-2.6181 -16.6282,-4.24155 -25.1555,-4.18179 z m -219.2639,0.0215 c -8.01996,-0.0585 -16.02509,1.00819 -23.68964,3.57824 -14.53989,4.66451 -27.33647,15.5223 -32.85079,29.94077 -5.52463,14.5399 -4.5257,31.84962 3.92313,45.0944 6.49591,10.33069 17.3589,17.37421 29.03543,20.52096 17.53488,4.76569 36.4005,2.39771 53.15621,-4.13868 l 0.0862,-45.54706 -19.11985,0.0431 -0.0431,36.55836 c -11.94964,4.09789 -26.34247,3.15834 -36.45058,-4.93625 -7.7607,-6.14177 -11.70964,-15.99973 -12.4376,-25.67275 -0.69806,-9.52124 1.05386,-19.61539 6.63913,-27.5481 4.9074,-7.12324 12.84827,-11.89516 21.29697,-13.49383 11.74721,-2.2766 24.37913,0.27568 34.29501,6.98402 l -0.0215,-18.27918 c -7.7601,-1.88282 -15.79902,-3.04582 -23.81898,-3.10401 z m -767.38061,0.0216 c -8.01996,-0.0585 -16.00353,0.98666 -23.66809,3.55668 -14.539894,4.66451 -27.336348,15.54386 -32.850784,29.96233 -5.524553,14.53989 -4.547153,31.84963 3.901569,45.09439 6.495904,10.33071 17.359005,17.3742 29.035445,20.52097 17.53489,4.76568 36.42196,2.39769 53.17775,-4.13869 l 0.0647,-45.54705 -19.11984,0.0431 -0.0216,36.55835 c -11.94967,4.09795 -26.36402,3.15835 -36.472134,-4.93624 -7.760683,-6.14175 -11.687533,-15.99974 -12.416046,-25.67275 -0.698158,-9.52127 1.053873,-19.61541 6.639135,-27.54811 4.907343,-7.12323 12.826685,-11.89515 21.275415,-13.49382 11.74726,-2.27661 24.4007,0.27558 34.31657,6.98402 l -0.0216,-18.27918 c -7.76068,-1.88199 -15.82057,-3.04583 -23.84053,-3.10401 z m 542.01644,1.63823 -49.27617,100.08281 h 18.81807 l 10.32514,-22.87053 h 37.91636 l 10.23893,22.89209 21.1892,-0.0431 C 699.94955,561.02582 665.78173,491.94272 665.78173,491.94272 Z m -327.83965,2.34956 0.12934,56.38954 c 0.21399,7.58868 -0.007,22.64392 -20.30541,22.9352 -21.36482,-0.16445 -20.22851,-15.20784 -20.28385,-23.21542 l 0.23711,-56.08777 -19.63719,0.10779 0.17245,55.74287 c -0.0287,15.68266 -0.41463,41.84687 39.40369,41.86104 40.09114,-0.0342 40.30358,-26.28757 40.28749,-41.34371 l -0.40955,-56.38954 z m 45.30995,1.09934 c 0.0199,32.20631 0.0806,64.40603 0,96.61236 6.40483,-0.13156 12.87337,0.34226 19.22762,-0.194 0.1619,-13.08288 0.0823,-26.16995 0.0215,-39.25282 10.66462,-0.71836 21.63368,-1.85409 31.42813,-6.48824 7.50772,-3.54137 13.93807,-10.01612 16.12361,-18.1714 2.24624,-7.49762 0.19413,-16.0478 -5.25957,-21.66342 -5.74716,-6.31377 -14.29467,-9.22271 -22.61186,-10.00182 -12.93109,-1.27488 -25.95791,-0.48661 -38.92948,-0.84066 z m 353.70641,0.0647 v 96.61235 l 19.22764,-0.0431 c 0.0132,-13.98339 0.0216,-27.97399 0.0216,-41.94726 l 26.12542,30.43655 c 4.95795,5.3829 11.0306,10.80677 18.7103,11.25204 6.46549,0.34401 12.95601,0.2628 19.42162,0.15089 l -42.35681,-43.71482 c 9.51115,-1.63916 18.891,-6.75239 23.64653,-15.43384 4.27999,-7.66962 3.82653,-17.90858 -1.78913,-24.78898 -5.30195,-7.01192 -14.01751,-10.59386 -22.54719,-11.57537 -13.43705,-1.54804 -26.97229,-0.60434 -40.45993,-0.94845 z m -554.88516,0.0216 v 96.61235 l 19.22763,-0.0431 c 0.0101,-13.9834 0.0216,-27.974 0.0216,-41.94727 l 26.12542,30.43655 c 4.95793,5.38291 11.03056,10.80686 18.7103,11.25205 6.46555,0.34401 12.95608,0.26224 19.42162,0.15089 l -42.35686,-43.7149 c 9.51114,-1.63915 18.89097,-6.7524 23.64653,-15.43384 4.28002,-7.66961 3.8265,-17.90858 -1.78911,-24.78897 -5.30196,-7.01194 -14.01753,-10.61547 -22.5472,-11.59693 -13.43701,-1.54809 -26.97233,-0.58289 -40.45993,-0.9269 z m 339.82459,7.69537 c 5.90543,-0.16125 11.87412,1.47976 16.66251,5.0009 7.66964,5.34242 12.19383,14.16577 14.07583,23.15075 2.27652,11.0896 1.17999,23.30842 -5.02247,33.00168 -4.15864,6.68814 -11.02576,11.75174 -18.79651,13.29982 -6.678,1.29513 -13.84735,0.29434 -19.76652,-3.12556 -6.91072,-3.83481 -11.98529,-10.48201 -14.63627,-17.84806 -4.09799,-11.16043 -4.32325,-23.98498 0.45266,-34.96325 3.83477,-8.75227 11.66797,-15.93045 21.18919,-17.76184 1.91235,-0.45029 3.8731,-0.7007 5.84158,-0.75444 z m 477.11243,0.0862 c 5.9054,-0.16124 11.8525,1.47976 16.641,5.00091 7.6696,5.34243 12.2154,14.16578 14.0973,23.15075 2.2766,11.08958 1.1801,23.30842 -5.0224,33.00168 -4.1586,6.68815 -11.0257,11.75174 -18.7965,13.29983 -6.67807,1.29513 -13.8474,0.29434 -19.76656,-3.12557 -6.91075,-3.83481 -11.9853,-10.482 -14.63628,-17.84807 -4.09788,-11.1604 -4.32318,-23.9634 0.45267,-34.94168 3.83481,-8.75227 11.66793,-15.95201 21.1892,-17.78339 1.91233,-0.45029 3.8731,-0.70071 5.84157,-0.75446 z m -242.78112,3.19024 c 8.16542,0.0806 17.62789,-0.006 23.84053,6.18647 6.07095,6.4554 4.66151,17.83119 -2.19867,23.19386 -6.01021,4.95793 -14.10778,6.39853 -21.70653,6.01402 z m -554.88516,0.0216 c 8.16541,0.0806 17.62794,-0.006 23.84053,6.18647 6.07094,6.45542 4.66149,17.83119 -2.19867,23.19385 -6.01022,4.95793 -14.10775,6.39852 -21.70652,6.01403 z m 201.2003,0.0431 c 7.29524,-0.11125 15.2203,3.3e-4 21.53408,4.13868 7.02203,4.56332 7.98011,15.1917 3.25489,21.72808 -5.49418,7.75056 -15.83564,9.94992 -24.81052,9.48448 0.0508,-11.78774 0.0513,-23.57363 0.0215,-35.35124 z m 261.96564,20.75807 13.53693,29.96233 -27.22477,-0.194 z"
       id="path11"
       inkscape:connector-curvature="0" />
  </g>
</svg>
