<?xml version="1.0" encoding="utf-8"?>
<!-- Generator: Adobe Illustrator 19.0.0, SVG Export Plug-In . SVG Version: 6.00 Build 0)  -->
<svg version="1.1" id="layer" xmlns="http://www.w3.org/2000/svg" xmlns:xlink="http://www.w3.org/1999/xlink" x="0px" y="0px"
	 viewBox="-153 -46 652 652" style="enable-background:new -153 -46 652 652;" xml:space="preserve">
<style type="text/css">
	.st0{fill:#00468E;}
	.st1{clip-path:url(#XMLID_25_);fill:url(#XMLID_32_);}
</style>
<path id="XMLID_2_" class="st0" d="M85.8,391.1c0.4-0.1,0.6,0,0.8,0.4l0.7,1.5c0.1,0.3,0,0.5-0.4,0.7c-1.4,0.8-3.2,1.3-5.4,1.3
	c-3,0-5.3-0.9-6.9-2.7c-1.6-1.8-2.4-4.4-2.4-7.8c0-3.4,0.8-6,2.4-7.8c1.6-1.8,3.9-2.7,6.8-2.7c2.1,0,3.9,0.4,5.3,1.2
	c0.3,0.2,0.5,0.4,0.4,0.7l-0.6,1.5c-0.1,0.4-0.4,0.5-0.8,0.3c-1.1-0.5-2.4-0.8-3.8-0.8c-4.3,0-6.4,2.5-6.4,7.6
	c0,5.1,2.2,7.7,6.5,7.7C83.3,392,84.6,391.7,85.8,391.1 M104.9,384.4c0,5.1-1.9,7.7-5.7,7.7c-3.8,0-5.6-2.6-5.6-7.7
	c0-5.1,1.9-7.7,5.6-7.7C103,376.7,104.9,379.2,104.9,384.4 M105.8,376.5c-1.5-1.8-3.8-2.7-6.6-2.7c-2.9,0-5,0.9-6.6,2.7
	c-1.5,1.8-2.3,4.4-2.3,7.8c0,3.4,0.8,6,2.3,7.8s3.7,2.7,6.6,2.7c2.9,0,5.1-0.9,6.6-2.7c1.5-1.8,2.3-4.4,2.3-7.8
	C108.1,380.9,107.4,378.3,105.8,376.5 M129,374.7c0-0.4-0.2-0.5-0.6-0.5h-1.9c-0.4,0-0.6,0.2-0.6,0.6v14.5l-9.3-14.7
	c-0.2-0.3-0.4-0.4-0.8-0.4h-2c-0.4,0-0.6,0.2-0.6,0.6V394c0,0.4,0.2,0.6,0.6,0.6h1.9c0.4,0,0.6-0.2,0.6-0.6v-14.5l9.3,14.7
	c0.2,0.3,0.5,0.4,0.8,0.4h2c0.4,0,0.6-0.2,0.6-0.6V374.7z M146.3,385.5c0.4,0,0.6-0.2,0.6-0.6v-1.5c0-0.4-0.2-0.6-0.6-0.6H138V377
	h8.6c0.4,0,0.6-0.2,0.6-0.6v-1.7c0-0.4-0.2-0.6-0.6-0.6h-11.2c-0.4,0-0.6,0.2-0.6,0.6V394c0,0.4,0.2,0.6,0.6,0.6h11.3
	c0.4,0,0.6-0.2,0.6-0.6v-1.7c0-0.4-0.2-0.6-0.6-0.6H138v-6.3H146.3z M159.2,386.8l5,7.3c0.3,0.4,0.5,0.5,0.9,0.5h2.2
	c0.2,0,0.3-0.1,0.4-0.2c0.1-0.2,0.1-0.3-0.1-0.5l-6.7-9.6l6.6-9.4c0.1-0.2,0.1-0.3,0.1-0.5c-0.1-0.2-0.2-0.2-0.4-0.2h-2.3
	c-0.4,0-0.6,0.2-0.8,0.5l-4.9,7.2l-4.9-7.2c-0.2-0.3-0.5-0.5-0.8-0.5h-2.3c-0.2,0-0.3,0.1-0.4,0.2c-0.1,0.2,0,0.3,0.1,0.5l6.5,9.5
	l-6.7,9.6c-0.1,0.2-0.1,0.3-0.1,0.5c0.1,0.2,0.2,0.2,0.4,0.2h2.2c0.4,0,0.6-0.2,0.8-0.5L159.2,386.8z M172.3,394
	c0,0.4,0.2,0.6,0.6,0.6h2c0.4,0,0.6-0.2,0.6-0.6v-19.3c0-0.4-0.2-0.6-0.6-0.6h-2c-0.4,0-0.6,0.2-0.6,0.6V394z M195.2,384.4
	c0,5.1-1.9,7.7-5.7,7.7c-3.8,0-5.6-2.6-5.6-7.7c0-5.1,1.9-7.7,5.6-7.7C193.3,376.7,195.2,379.2,195.2,384.4 M196.1,376.5
	c-1.5-1.8-3.7-2.7-6.6-2.7c-2.9,0-5,0.9-6.6,2.7c-1.5,1.8-2.3,4.4-2.3,7.8c0,3.4,0.8,6,2.3,7.8s3.7,2.7,6.6,2.7
	c2.9,0,5.1-0.9,6.6-2.7c1.5-1.8,2.3-4.4,2.3-7.8C198.4,380.9,197.7,378.3,196.1,376.5 M219.2,374.7c0-0.4-0.2-0.5-0.6-0.5h-1.9
	c-0.4,0-0.6,0.2-0.6,0.6v14.5l-9.3-14.7c-0.2-0.3-0.4-0.4-0.8-0.4h-2c-0.4,0-0.6,0.2-0.6,0.6V394c0,0.4,0.2,0.6,0.6,0.6h1.9
	c0.4,0,0.6-0.2,0.6-0.6v-14.5l9.3,14.7c0.2,0.3,0.5,0.4,0.8,0.4h2c0.4,0,0.6-0.2,0.6-0.6V374.7z M236.5,385.5c0.4,0,0.6-0.2,0.6-0.6
	v-1.5c0-0.4-0.2-0.6-0.6-0.6h-8.3V377h8.6c0.4,0,0.6-0.2,0.6-0.6v-1.7c0-0.4-0.2-0.6-0.6-0.6h-11.2c-0.4,0-0.6,0.2-0.6,0.6V394
	c0,0.4,0.2,0.6,0.6,0.6H237c0.4,0,0.6-0.2,0.6-0.6v-1.7c0-0.4-0.2-0.6-0.6-0.6h-8.7v-6.3H236.5z M253.4,393.4
	c1.4-0.9,2.1-2.3,2.1-4.2c0-1.8-0.7-3.2-2.1-4.3c-0.7-0.6-2.1-1.3-4.1-2.1c-0.1,0-0.1,0-0.2-0.1c-0.1,0-0.1-0.1-0.2-0.1
	c0,0-0.1,0-0.2-0.1c-0.9-0.3-1.5-0.6-2-0.9c-0.5-0.2-0.9-0.5-1.2-1c-0.4-0.4-0.5-0.9-0.5-1.5c0-0.9,0.3-1.6,1-2
	c0.7-0.4,1.8-0.7,3.2-0.7c1.5,0,2.8,0.2,4.1,0.7c0.4,0.1,0.6,0,0.8-0.3l0.6-1.5c0.1-0.3,0-0.5-0.4-0.7c-1.4-0.6-3.2-0.9-5.3-0.9
	c-2.4,0-4.2,0.5-5.4,1.4c-1.2,0.9-1.8,2.3-1.8,4c0,0.7,0.1,1.4,0.3,2c0.2,0.6,0.5,1.1,0.8,1.5c0.3,0.4,0.8,0.8,1.4,1.1
	c0.6,0.4,1.1,0.6,1.6,0.8c0.4,0.2,1,0.4,1.8,0.7c0.8,0.3,1.4,0.6,1.8,0.7c0.4,0.2,0.8,0.4,1.3,0.7c0.5,0.3,0.9,0.7,1.1,1
	c0.2,0.4,0.3,0.8,0.3,1.3c0,0.9-0.4,1.6-1.3,2.1c-0.9,0.5-2,0.7-3.5,0.7c-1.8,0-3.4-0.3-4.8-0.8c-0.3-0.2-0.6,0-0.7,0.3l-0.6,1.6
	c-0.1,0.3,0,0.5,0.4,0.7c1.4,0.7,3.4,1,6,1C250.1,394.8,252,394.4,253.4,393.4 M283.5,384.3c0,5.1-1.9,7.7-5.7,7.7
	c-3.8,0-5.6-2.6-5.6-7.7c0-5.1,1.9-7.7,5.6-7.7C281.6,376.7,283.5,379.2,283.5,384.3 M283.8,394.8c-1.3,0-2.4-0.2-3.3-0.6
	c2-0.5,3.5-1.6,4.6-3.4c1.1-1.7,1.7-3.9,1.7-6.5c0-3.4-0.7-6-2.3-7.8c-1.6-1.8-3.8-2.7-6.6-2.7c-2.9,0-5,0.9-6.6,2.7
	c-1.5,1.8-2.3,4.4-2.3,7.8c0,3.2,0.7,5.7,2.1,7.5c1.4,1.8,3.4,2.7,6,2.9c2,1.7,4.5,2.5,7.5,2.5c0.4,0,0.6-0.1,0.8-0.1
	c0.1-0.1,0.2-0.3,0.2-0.5v-1.4c0-0.3-0.2-0.5-0.6-0.5c-0.1,0-0.2,0-0.5,0C284.1,394.8,283.9,394.8,283.8,394.8 M293.5,393
	c1.3,1.3,3.3,2,5.9,2c2.6,0,4.6-0.7,5.9-2c1.3-1.3,2-3.2,2-5.7v-12.6c0-0.4-0.2-0.6-0.5-0.6h-2c-0.4,0-0.6,0.2-0.6,0.6V387
	c0,3.3-1.6,5-4.7,5c-3.1,0-4.6-1.7-4.6-5v-12.3c0-0.4-0.2-0.6-0.6-0.6h-2c-0.4,0-0.6,0.2-0.6,0.6v12.6
	C291.6,389.8,292.2,391.6,293.5,393 M324.4,385.5c0.4,0,0.6-0.2,0.6-0.6v-1.5c0-0.4-0.2-0.6-0.6-0.6h-8.3V377h8.6
	c0.4,0,0.6-0.2,0.6-0.6v-1.7c0-0.4-0.2-0.6-0.6-0.6h-11.2c-0.4,0-0.6,0.2-0.6,0.6V394c0,0.4,0.2,0.6,0.6,0.6h11.3
	c0.4,0,0.6-0.2,0.6-0.6v-1.7c0-0.4-0.2-0.6-0.6-0.6h-8.7v-6.3H324.4z M340.2,394c0,0.4,0.2,0.6,0.6,0.6h2c0.4,0,0.6-0.2,0.6-0.6
	v-19.3c0-0.4-0.2-0.6-0.6-0.6h-2c-0.4,0-0.6,0.2-0.6,0.6V394z M365.3,374.7c0-0.4-0.2-0.5-0.6-0.5h-1.9c-0.4,0-0.6,0.2-0.6,0.6v14.5
	l-9.3-14.7c-0.2-0.3-0.4-0.4-0.8-0.4h-2c-0.4,0-0.6,0.2-0.6,0.6V394c0,0.4,0.2,0.6,0.6,0.6h1.9c0.4,0,0.6-0.2,0.6-0.6v-14.5
	l9.3,14.7c0.2,0.3,0.5,0.4,0.8,0.4h2c0.4,0,0.6-0.2,0.6-0.6V374.7z M382.1,393.4c1.4-0.9,2.1-2.3,2.1-4.2c0-1.8-0.7-3.2-2.1-4.3
	c-0.7-0.6-2.1-1.3-4.1-2.1c-0.1,0-0.1,0-0.2-0.1c-0.1,0-0.1-0.1-0.2-0.1c0,0-0.1,0-0.2-0.1c-0.9-0.3-1.5-0.6-2-0.9
	c-0.5-0.2-0.9-0.5-1.2-1c-0.4-0.4-0.5-0.9-0.5-1.5c0-0.9,0.3-1.6,1-2c0.7-0.4,1.8-0.7,3.2-0.7c1.5,0,2.8,0.2,4.1,0.7
	c0.4,0.1,0.6,0,0.8-0.3l0.6-1.5c0.1-0.3,0-0.5-0.4-0.7c-1.4-0.6-3.2-0.9-5.3-0.9c-2.4,0-4.2,0.5-5.4,1.4c-1.2,0.9-1.8,2.3-1.8,4
	c0,0.7,0.1,1.4,0.4,2c0.2,0.6,0.5,1.1,0.8,1.5c0.3,0.4,0.8,0.8,1.4,1.1c0.6,0.4,1.1,0.6,1.6,0.8c0.4,0.2,1,0.4,1.8,0.7
	c0.8,0.3,1.4,0.6,1.8,0.7c0.4,0.2,0.8,0.4,1.3,0.7c0.5,0.3,0.9,0.7,1.1,1c0.2,0.4,0.3,0.8,0.3,1.3c0,0.9-0.4,1.6-1.3,2.1
	c-0.9,0.5-2,0.7-3.5,0.7c-1.8,0-3.4-0.3-4.8-0.8c-0.3-0.2-0.6,0-0.7,0.3l-0.6,1.6c-0.1,0.3,0,0.5,0.4,0.7c1.4,0.7,3.4,1,6,1
	C378.8,394.8,380.7,394.4,382.1,393.4 M392,385.7V377h3.3c1.9,0,3.2,0.3,4.1,1c0.8,0.7,1.3,1.8,1.3,3.4c0,1.6-0.4,2.7-1.3,3.3
	c-0.8,0.7-2.2,1-4.1,1H392z M391.4,394.6c0.4,0,0.6-0.2,0.6-0.6v-5.5h3.3c3,0,5.1-0.6,6.5-1.7c1.4-1.1,2.1-2.9,2.1-5.5
	c0-2.5-0.7-4.4-2.1-5.5c-1.4-1.1-3.5-1.7-6.5-1.7h-5.9c-0.4,0-0.6,0.2-0.6,0.6V394c0,0.4,0.2,0.6,0.6,0.6H391.4z M409.2,394
	c0,0.4,0.2,0.6,0.6,0.6h2c0.4,0,0.6-0.2,0.6-0.6v-19.3c0-0.4-0.2-0.6-0.6-0.6h-2c-0.4,0-0.6,0.2-0.6,0.6V394z M421.6,384.7V377h3.5
	c1.8,0,3.2,0.3,4,0.9c0.8,0.6,1.2,1.6,1.2,3c0,1.3-0.4,2.3-1.2,2.9c-0.8,0.6-2.2,0.9-4.1,0.9H421.6z M419,374.1
	c-0.4,0-0.6,0.2-0.6,0.6V394c0,0.4,0.2,0.6,0.6,0.6h2c0.4,0,0.6-0.2,0.6-0.6v-6.5h3.2l5.3,6.6c0.3,0.3,0.5,0.5,0.9,0.5h2.2
	c0.2,0,0.4-0.1,0.5-0.3c0.1-0.2,0-0.3-0.1-0.5l-5.5-6.7c3.7-0.6,5.5-2.7,5.5-6.2c0-2.3-0.7-4-2.1-5.1c-1.4-1.1-3.5-1.6-6.3-1.6H419z
	 M442.2,386.9l3.3-9.6h0.1l3.3,9.6H442.2z M444.2,374.1c-0.2,0-0.4,0-0.5,0.1c-0.1,0.1-0.2,0.2-0.3,0.5l-7.1,19.2
	c-0.1,0.2-0.1,0.3,0,0.4c0.1,0.1,0.2,0.2,0.4,0.2h2.2c0.3,0,0.5-0.2,0.6-0.5l1.6-4.4h8.3l1.6,4.4c0.2,0.4,0.4,0.5,0.7,0.5h2.2
	c0.2,0,0.3-0.1,0.4-0.2c0.1-0.1,0.1-0.3,0-0.4l-7.1-19.2c-0.1-0.2-0.2-0.4-0.2-0.5c-0.1-0.1-0.3-0.1-0.5-0.1H444.2z M474.6,374.7
	c0-0.4-0.2-0.5-0.6-0.5h-1.9c-0.4,0-0.6,0.2-0.6,0.6v14.5l-9.3-14.7c-0.2-0.3-0.4-0.4-0.8-0.4h-2c-0.4,0-0.6,0.2-0.6,0.6V394
	c0,0.4,0.2,0.6,0.6,0.6h1.9c0.4,0,0.6-0.2,0.6-0.6v-14.5l9.3,14.7c0.2,0.3,0.5,0.4,0.8,0.4h2c0.4,0,0.6-0.2,0.6-0.6V374.7z"/>
<g id="XMLID_1_">
	<defs>
		<path id="XMLID_26_" d="M29.6,330.5c-6-5.4,3.1-20.4,26.3-23.2c0.2,12.8-15.8,24.1-23.4,24.1C31.2,331.4,30.2,331.1,29.6,330.5
			 M44.3,208.5c5.3-0.1,9.1,10.3-2.1,19.4C36.2,216.8,39.6,208.6,44.3,208.5 M29.4,201c-17.4,8.7-10.8,37.4-6.3,44.9
			c-20.4,21.2-44.3,39.3-63.8,50.7c-26.8,15.7-50.5,14.9-56.7,6.5c-11.4-15.4,13.8-74.4,15.8-80.1c1.8-5-0.2-10.8-4.9-13.5
			c-5.3-3.1-12.8,0.5-16.1,6.1c-5.5,9.3-42.3,79.8-9.1,105.6c22.8,17.8,65.9,4.8,139.9-66c6.4,11.6,18.5,33.7,22.5,41.9
			c-51.3,10.2-45.4,46.3-27,54.2c18.4,7.9,54.5-3.6,52.9-49.4c22.6-7.4,41.9-21.6,62.2-37.9c-8.5,29.2,17,41.6,38,36.9
			c14.6-3.3,26.6-14.2,35.5-25.6c0,0,0,0,0,0c0,0,0,0,0,0c11.1,29.7,60.4,28.4,79.9,23.2c49.9-13.3,96.6-49.9,147.6-45.1
			c8.7,0.8,26.1,9.3,32.7,0.7c1-1.3,1.6-2.6,2-3.8v-4.1c-2.4-8.7-19.7-14.5-26.1-15.7c-45.4-8.9-96.2,24.4-121.3,38.6
			c-23.2,13.1-72.2,31.8-96.1,10.3c-9.8-8.8-3.5-37-3.2-38.8c0.7-3.6-1.6-7.1-5.2-7.9c-3.6-0.8-7.1,1.6-7.9,5.2
			c-2.4,11.1-5,19.4-10.5,27c-8.6,12-21.1,20.2-33,19c-15.1-1.5-16.3-24.9,2-43.2c9.8-9.8,25.8-20.7,46.3-20.9c3,0,5.4-2.4,5.5-5.5
			c0.1-3.2-2.2-5.7-5.4-6c-19.2-1.3-45,5.5-63.7,25c-30,29.4-51,45.3-81.2,57.6c-3.7-13.1-15.4-30.3-27.1-53.2
			c7.9-6.5,17.6-23.7,6.6-34.2c-3.6-3.5-8.9-5.1-14.1-5.1C36.4,198.6,32.5,199.4,29.4,201 M-79.6,162.9c-9.3,0.6-27.3,3.5-27.3,13.5
			c0,11.3,23.2,13.6,30.6,13.6c7.4,0,13.4-6.1,13.4-13.6c0-6.9-5.1-12.7-11.7-13.5H-79.6z"/>
	</defs>
	<clipPath id="XMLID_25_">
		<use xlink:href="#XMLID_26_"  style="overflow:visible;"/>
	</clipPath>
	
		<linearGradient id="XMLID_32_" gradientUnits="userSpaceOnUse" x1="35.9627" y1="577.5411" x2="46.0472" y2="577.5411" gradientTransform="matrix(53.5504 0 0 -53.5504 -1991.1702 31188.6387)">
		<stop  offset="0" style="stop-color:#00AEEF"/>
		<stop  offset="0.1" style="stop-color:#00AEEF"/>
		<stop  offset="0.3021" style="stop-color:#0C81C8"/>
		<stop  offset="0.5534" style="stop-color:#1A4E9E"/>
		<stop  offset="0.744" style="stop-color:#222F83"/>
		<stop  offset="0.85" style="stop-color:#252379"/>
		<stop  offset="0.8839" style="stop-color:#282478"/>
		<stop  offset="0.9057" style="stop-color:#302874"/>
		<stop  offset="0.924" style="stop-color:#3F2E6E"/>
		<stop  offset="0.9405" style="stop-color:#543765"/>
		<stop  offset="0.9557" style="stop-color:#6F4259"/>
		<stop  offset="0.97" style="stop-color:#91504B"/>
		<stop  offset="0.9835" style="stop-color:#B8603A"/>
		<stop  offset="0.9962" style="stop-color:#E57326"/>
		<stop  offset="1" style="stop-color:#F47920"/>
	</linearGradient>
	<rect id="XMLID_31_" x="-144.8" y="162.9" class="st1" width="619.2" height="196.4"/>
</g>
</svg>
