<?xml version="1.0" encoding="UTF-8"?><svg id="Layer_1" xmlns="http://www.w3.org/2000/svg" viewBox="0 0 1000.77 299.91"><g id="F1okwg.tif"><path d="m431.76,66.47c.27.56.71.48,1.17.29,0,0,.25.02.25.02,0,0,.23-.1.23-.1.75.11,1.49.22,2.24.32.33.62.93.42,1.45.45,3.51.24,7.01.56,10.24,2.13,8.28,2.54,15.54,6.77,21.62,12.93.7.71,1.46,1.37,2.19,2.06.93,2.58,2.6,4.77,3.9,7.15.98,2.93,1.97,5.86,2.95,8.79-.08.18-.06.35.07.51.13,2.42.26,4.84.38,7.25.33,6.81-1.34,13.17-4.44,19.21-.33.02-.53.14-.45.51-.7,2.3-2.75,3.65-3.98,5.58-1.18.63-2.06,1.56-2.82,2.63-1.29,1.17-2.57,2.33-3.86,3.5-1.7.48-3.13,1.44-4.47,2.55-1.28.28-2.33.97-3.31,1.8-.59-.19-1.04.12-1.49.42-.62.41-1.83.38-1.67,1.35.14.92,1.26.7,2,.95,1.67.57,3.51.53,5.05,1.49,1.01-.08,1.44.92,2.25,1.19.2.54.66.43,1.08.41,5.46,2.23,10.14,5.5,13.86,10.07,4.03,4.43,6.26,9.78,7.95,15.4,1.36,5.81,1.47,11.67.86,17.57-.92.77-.15,1.88-.56,2.75-1.19,3.7-2.04,7.56-3.67,11.06-1.46,3.13-3.47,6.14-5.78,8.72-2.7,3.01-5.85,5.68-9.34,7.86-.36-.08-.53.12-.6.44,0,0,.02-.03.02-.03-1.2.12-1.92,1.05-2.82,1.67-3.39.73-6.15,2.92-9.38,4.01-.37-.12-.52.1-.62.4-.9.24-1.81.47-2.71.71-.36-.13-.53.07-.63.37,0,0,.03-.04.03-.04-1.85.57-3.69,1.15-5.54,1.72-2.02.2-4.05.41-6.07.61-2.56.71-5.3.04-7.82,1.04-23.45.06-46.9.11-70.35.17-1.01,0-2.02.09-3.03.14-1.37-.43-3.37.33-3.78-1.94,0-.92.01-1.83.02-2.75.1-10.25.3-20.5.29-30.75-.03-43.49-.1-86.99-.22-130.48,0-2.07.77-2.82,2.69-2.82.74,0,1.47-.08,2.21-.12,17.22,0,34.44,0,51.66.01,7.58.39,15.18-.1,22.74.83Zm-39.27,115.52s-.03,0-.04,0c0,5.59.06,11.19-.03,16.78-.03,1.88.51,2.48,2.5,2.53,8.21.2,16.39-.88,24.61-.38,2.63.16,5.31-.03,7.92-.82,7.95-2.4,14.94-5.85,16.33-15.08.96-6.38-.29-12.99-5.52-16.69-4.51-3.2-9.71-4.83-15.08-5.04-9.52-.36-19.06-.07-28.59-.12-1.74,0-2.16.68-2.13,2.31.1,5.5.04,11,.04,16.51Zm-.14-66.34c.08,0,.16,0,.24,0,0,5.13-.02,10.27.02,15.4,0,.87-.36,2.02,1.51,1.78,6.16-.77,12.4-.48,18.55-.13,6.3.36,12.08-.73,17.6-3.48,7.86-3.91,10.81-15.59,6.09-22.85-3.8-5.84-9.82-6.83-15.91-7.46-7.71-.8-15.48-.62-23.23-.6-1.1,0-2.18.33-3.22.41-1.65.13-1.68.89-1.67,2.1.04,4.94.02,9.89.02,14.84Z"/><path d="m566.24,64.05c6.19-1.63,12.46-2.68,18.89-2.72,3.51-.06,7.03-.13,10.54-.19,2.78.25,5.57.49,8.35.74,1.26.46,2.52.91,3.9.54,2.4.55,4.81,1.11,7.21,1.66,1.19.76,2.57.87,3.91,1.09,6.76,2.1,13.4,4.46,19.42,8.26.18.05.36.1.54.15,3.76,2.27,7.64,4.37,10.61,7.74.63.72,1.5,1.59,2.7,1.68.37.33.75.67,1.12,1,.19.2.37.4.56.6,0,0-.03-.03-.03-.03.48,2.01-.81,3.24-2.05,4.47-7.23,7.19-14.48,14.36-21.69,21.57-3.32,3.32-3.29,3.35-6.3.1-.04-.09-.1-.16-.19-.2-1.41-1.9-3.21-3.36-5.25-4.55-.2-.48-.66-.47-1.07-.54-2.99-2.26-5.97-4.53-10.05-4.3-2.38-2.32-5.63-1.5-8.46-2.2-1.35-.34-2.83-.83-4.32-.42-.93,0-1.85-.01-2.78-.02-2.07-.37-4.08.16-6.11.45-4.91.23-9.64,1.12-13.9,3.74-.44.03-.95-.08-1.12.52-2.11,1.26-4.31,2.39-6.3,3.81-5.2,3.7-10.07,7.74-12.59,13.85-2.57,3.31-4.55,6.92-5.63,10.99-.39.18-.37.54-.48.88-1.39,4-1.42,8.23-2.11,12.35-.41,3.88.67,7.69.54,11.56-.16,4.2,1.54,8.06,2.23,12.11.94,3.17,2.43,6.09,4.29,8.83,1.59,3.73,4.01,6.91,6.9,9.71,4.21,4.07,8.91,7.49,14.28,9.96,2.03,1.28,4.19,2.24,6.62,2.48,6.28,2.3,12.83,1.36,19.28,1.53,3.23.08,6.19-1,9.12-2.18,1.66-.15,3.05-.96,4.42-1.79,5.7-2.66,10.83-6.15,14.77-11.02,1.71-2.11,2.66-1.71,4.26-.15,4.14,4.02,8.38,7.92,12.58,11.87,0,0-.02-.02-.02-.02,3.53,3.44,6.67,7.28,10.76,10.14,0,0,.14.13.14.13,2.74,3.09,2.6,2.97-.3,6.02-2.81,2.95-6.14,5.33-8.93,8.28-.68.18-1.26.51-1.65,1.12-7.23,4.41-14.66,8.39-22.76,11.02-.73.13-1.45.25-2.18.38-.56.13-1.12.27-1.67.4l-2.78,1.03c-10.59,2.89-21.43,2.29-32.22,2.25-4.12-.2-8.19-.72-12.19-1.76-.56-.93-1.5-.37-2.24-.57-1.22-1.41-3.34.77-4.45-1.09-5.04-2.13-10.43-3.29-15.34-5.87-7.67-4.03-14.86-8.61-21.14-14.61-3.23-3.08-6.05-6.49-9.02-9.78-2.78-4.22-5.55-8.44-8.33-12.65-1.12-2.22-2.24-4.43-3.36-6.65,0-.44.04-.9-.53-1.06-.13-2.14-.61-4.17-1.69-6.05-.04-1.21-.37-2.32-1.09-3.31-.6-2.74-1.2-5.49-1.8-8.23-.37-2.75-.74-5.5-1.11-8.25-.6-1.55-.45-3.18-.47-4.78-.09-6.13-.09-12.26,1.04-18.33.18-1.1.36-2.2.54-3.3.37-1.74.7-3.5,1.12-5.23,1.61-6.55,3.86-12.87,6.82-18.95.17-.16.33-.33.5-.49.14-.21.27-.42.41-.62.44-.44.73-.95.7-1.59.73-.33,1.05-.95,1.2-1.69.33-.56.67-1.12,1-1.69,1.74-2.57,3.47-5.14,5.21-7.7.27-.3.54-.6.82-.9,2.42-2.64,4.84-5.28,7.26-7.93.2-.18.4-.35.61-.53,1.72-1.45,3.45-2.9,5.17-4.34.32-.25.64-.51.96-.76.19-.13.38-.26.57-.39.74-.53,1.48-1.05,2.22-1.58,2.04-1.29,4.07-2.57,6.11-3.86,1.36-1.11,3.37-1.19,4.43-2.77,5.66-2.9,11.73-4.73,17.76-6.64,1.19.13,2.22-.46,3.32-.7Z"/><path d="m247.36,150.57c-.17-.19-.34-.38-.51-.57-1.2-1.47-2.31-3.04-3.64-4.4-1.27-1.29-1.21-2.32.11-3.42,2.59-2.14,4.77-4.67,7.13-7.03,11.39-11.41,22.89-22.71,34.33-34.06,7.76-7.7,15.5-15.41,23.25-23.12.52-.37,1.04-.75,1.56-1.12,1.11-.45,1.01.79,1.57,1.11.06.36.12.72.18,1.08-.01,6.04-.12,12.09.01,18.13.06,2.56-.23,4.87-2.06,6.8,0,0-.1.11-.1.11-6.36,6.21-12.75,12.39-19.07,18.64-11.31,11.17-22.58,22.38-33.85,33.6-.8.8-1.6,1.46-2.81,1.38-.98-1.1-1.95-2.19-2.93-3.29.08-.34-.14-.45-.41-.52-.36-.38-.72-.75-1.07-1.13-.55-.74-.77-1.74-1.71-2.18Z"/><path d="m299.57,68.01c-2.39,2.03-4.6,4.23-6.67,6.58-.77.35-1.31.93-1.72,1.65-.7.36-1.25.86-1.58,1.59,0,0-.12.13-.12.13-.14.14-.28.27-.43.41-.22.21-.45.41-.67.62-.17.16-.34.31-.51.47-2.95,2.3-5.91,4.61-7.96,7.82-.2.02-.29.13-.27.33-.41.19-1.04.08-1.11.77-.39.47-.77.93-1.16,1.4-1.63,1.12-3.01,2.5-4.12,4.13-.2.02-.29.14-.27.34-.26.23-.53.45-.79.68-.52.52-1.03,1.04-1.55,1.56-2.53,1.94-4.57,4.35-6.63,6.74-.93.53-1.64,1.28-2.22,2.16-.21.21-.41.41-.62.62-.21,0-.33.12-.35.33-.84.86-1.69,1.71-2.53,2.57-.13.14-.25.28-.38.42-.17.17-.35.34-.52.52-3.71,3.59-7.42,7.17-11.13,10.76-1.82.61-2.36,2.44-3.56,3.64-.21.05-.32.18-.32.4-.2.2-.4.4-.6.6-1.3,1.26-2.6,2.51-3.89,3.77-1.75,1.23-3.11,2.83-4.41,4.49,0,0,0,0,0,0-1.04-.08-2.07.38-3.08-.52-2.2-1.96-4.54-3.76-6.83-5.63,0,0,.02.02.02.02-.73-1.08-1.77-1.83-2.77-2.63-2.66-2.14-2.71-3.16-.33-5.52,17.47-17.34,34.96-34.67,52.4-52.05.99-.99,2.06-1.41,3.36-1.53.78-.06,1.56-.12,2.34-.19.29-.01.57-.02.86-.03,5.79.38,11.57.37,17.36-.02,1.08.71,4.44-.95,2.76,2.62Z"/><path d="m220.12,100.48c-1.47,1.47-2.95,2.94-4.42,4.41-1.96,1.37-3.56,3.11-5.07,4.93-1.27.92-2.33,2.04-3.28,3.27-.43.08-.98-.05-1.15.56,0,0,0-.02,0-.02-1.71.44-2.48-1.25-3.81-1.67-1.78-1.21-3.4-2.71-5.57-3.27-1.89-.99-3.78-1.97-5.67-2.96-.03-.1-.09-.18-.18-.23-2.14-1.5-.92-2.71.42-3.76,2.7-2.12,4.77-4.84,7.19-7.23,0,0-.02.02-.02.02.42-.34.88-.65,1.26-1.03,8.54-8.49,17.08-16.99,25.6-25.51,1.19-1.19,2.46-2.13,4.17-2.37.97,0,1.99.28,2.82-.49.51.48,1.03.55,1.59.08.76.58,1.58.42,2.4.21.46.26.92.25,1.38.02.98.33,1.95.36,2.92-.02.38.24.74.24,1.09-.05,1.88.49,3.76.35,5.65.08,0,0,.19.12.19.12,0,0,.19-.12.19-.12.58.02,1.16.04,1.75.06.93.28,1.86.25,2.79.04.38.06.77.12,1.15.18.43,2.35-2.13,2.8-2.85,4.42-2.77,2.77-5.54,5.54-8.31,8.31-.19.19-.38.37-.56.56-.8.29-1.26.92-1.67,1.61-1.72,1.34-3.5,2.62-4.64,4.54-1.2,1.18-2.39,2.37-3.59,3.55-2.63,1.54-4.53,3.79-6.22,6.25-.36.37-.73.73-1.09,1.1-1.69,1.27-3.2,2.71-4.46,4.4Z"/><path d="m274.18,185.21c-.06.35-.12.71-.17,1.06-.71-.01-1.42-.02-2.14-.03,0,0,.03.03.03.03-.02-.99-.74-1.64-1.2-2.42-2.36-4.07-4.71-8.14-7.11-12.2-.85-1.45-.8-2.5.53-3.8,7.48-7.29,14.87-14.68,22.26-22.05,7.39-7.38,14.76-14.78,22.14-22.18.35-.23.7-.46,1.06-.69,1.56-.88.8,1.16,1.6,1.24.06.36.12.73.18,1.09,0,6.13-.04,12.26,0,18.38.01,2.47-.83,4.57-2.55,6.31-7.52,7.62-15.18,15.11-22.54,22.88-3.81,4.03-8.58,7.12-11.65,11.85,0,0-.03.02-.03.02-.32.01-.53.12-.42.5Z"/><path d="m198.47,65.38c1.3.32,2.59.25,3.89,0,1.41.39,3,.21,4.24,1.27-1.65,2.75-3.94,4.96-5.93,7.41-5.14,4.41-9.66,9.45-14.54,14.12-1.05,1-2.15,1.94-3.23,2.9-.84.63-1.73,1.2-2.1,2.25-.05,1.36-1.42,1.5-2.18,2.12-.77.63-1.69,1.01-1.85,2.12-1.84.83-3.27-.76-4.95-.84-.53-.28-.95-.82-1.66-.67-3.35-1.73-6.83-3.12-10.56-3.84-.36-.74-1.07-.48-1.67-.56-.69-.6-1.66-1.12-.58-2.18,1.31-1.45,2.62-2.9,3.93-4.35,2.21-1.87,4.25-3.9,6.14-6.08,3.51-2.53,6.61-5.5,9.42-8.76,1.93-1.03,2.55-3.35,4.43-4.43.38-.07.75-.14,1.13-.22,0,0,.25.05.25.05l.23-.11c3.53-.11,7.07.32,10.6-.14,1.67.34,3.34.32,5-.04Z"/><path d="m311.39,174.76c-.03,4.55-.11,9.11-.06,13.66.02,2.11-.24,4.13-1.06,6.08-.61.67-1.18,1.37-1.82,2.01-5,5.04-10.01,10.07-15.02,15.1,0,0,0,0,0,0-2.04,1.75-4.05,3.54-5.66,5.71-.89,1.2-1.77,1.24-2.56-.02-.47-.76-.89-1.59-1.13-2.44-1.34-4.68-2.37-9.47-5.04-13.67,0-.54,0-1.07,0-1.61,6.27-6.69,12.74-13.18,19.35-19.55,3.63-3.5,7.34-6.93,10.68-10.72,0,0-.01,0-.01,0,.18-.19.36-.39.54-.58,0,0,0,0,0,0,1.07-.38.97.84,1.55,1.13.07.54.15,1.08.22,1.63-.1.17-.09.35.02.51,0,.75,0,1.49,0,2.24-.1.17-.1.34,0,.51Z"/><path d="m140.72,65.86c6.65-.52,13.31-.55,19.96,0,.05.47-.08.82-.39,1.23-4.22,5.46-9.64,9.77-14.35,14.76-.87.92-1.71,1.88-2.69,2.66-.76.6-1.74,1.37-2.71.86-.76-.41-.38-1.51-.36-2.28.15-5.74.35-11.48.54-17.21Z"/><path d="m311.5,220.45c-.06,3.75-.2,7.5-.14,11.24.04,2.3-.69,3.3-3.2,3.1-5.14-.42-10.3-.66-15.45-.09-.78.09-1.54-.09-1.84-.87-.32-.81.56-1.07.97-1.48,5.75-5.77,11.53-11.51,17.3-17.26,0,0,0-.01,0-.01,1.93-.66,2.26.53,2.36,1.99.04.39.08.79.12,1.18-.18.38-.19.74.08,1.08-.06.37-.12.74-.18,1.11Z"/><path d="m859.56,200.01c.78,1.42,1.14,2.97,1.14,4.56.01,8.87-.04,17.73,0,26.6,0,1.71-.51,2.81-2.25,3.2-2.96.01-5.92.03-8.89.04-.56,0-1.12,0-1.67,0-4.71-.05-9.43-.14-14.14-.14-28.03.01-56.05.04-84.08.08-1.56,0-3.13.16-4.69.24-.47,0-.94-.01-1.41-.02-.57-.16-1.15-.33-1.72-.49-.05-.82-.13-1.64-.13-2.46-.02-52.94-.03-105.88-.01-158.82,0-2.17-.33-4.38.28-6.53.75-.67,1.72-.36,2.57-.6l2.78.02c1.3,0,2.59,0,3.89,0,1.11,0,2.22,0,3.33,0,13.02.02,26.03.07,39.05.07,17.91,0,35.82-.06,53.73-.09,2.81.57,5.78-.58,8.53.73.1,7.48.2,14.96.29,22.44.03,2.75.07,5.5.06,8.25,0,2.7-.94,3.7-3.65,3.4-9.49-1.05-19-.33-28.49-.44-12.86-.15-25.72-.05-38.57-.02-1.05,0-2.23-.43-3.15.51-.34,0-.5.16-.43.51,0,.37,0,.74,0,1.12-.01.73-.02,1.47-.04,2.2-.04,6.96-.46,13.93.37,20.88-.9.61-.4,1.46-.39,2.23,0,.92.01,1.83.02,2.75-.11.81.04,1.45,1.01,1.56.93,0,1.85,0,2.78,0,21.18.04,42.36.12,63.55.07,2.43,0,3.2.63,3.17,3.07-.11,7.97,0,15.94.03,23.91-.17,1.81-.89,3.55-.68,5.4-1.1.07-2.19.15-3.29.22-15.93,0-31.85-.01-47.78-.02-.56,0-1.11,0-1.67,0-1.3,0-2.59,0-3.89,0-.56,0-1.11,0-1.67,0-3.04-.02-6.09.03-9.13-.08-2.08-.08-2.82.76-2.6,2.77.16,1.45.1,2.92.14,4.38v2.2c.01,5.32.01,10.64.01,15.96-.11.7-.16,1.42-.34,2.1-1.73,6.72-.76,7.97,6.1,7.77.27,0,.54-.06.81-.09,3.52,0,7.04,0,10.55,0,.56,0,1.11,0,1.67,0,.37,0,.74,0,1.11,0h2.78c2.22,0,4.44,0,6.67,0,.37,0,.74,0,1.11,0,1.85,0,3.7,0,5.55,0h2.22c1.48,0,2.96,0,4.44,0,.93,0,1.85,0,2.78,0,5.74,0,11.48,0,17.22,0,.74,0,1.48,0,2.22,0,.74,0,1.48,0,2.22,0,.74,0,1.48,0,2.22,0,1.11,0,2.22,0,3.33,0,1.11.01,2.22.03,3.33.04.56.18,1.11.36,1.67.55Z"/><path d="m678.45,234.49q-4.44-.44-4.44-4.85c0-53.28,0-106.56,0-159.84q0-3.9,3.89-4.07c10.18-.03,20.37-.07,30.55-.1,2.21.39,4.53-.24,6.67.74,1.02,53.07.19,106.15.46,159.22.01,2.12.2,4.23-.04,6.35-.1.91,0,1.87-.99,2.41-.18-.08-.34-.07-.5.04-11.86-.21-23.72-.22-35.58.1Z"/></g></svg>