<?xml version="1.0" encoding="UTF-8" standalone="no"?>
<svg
   xmlns:dc="http://purl.org/dc/elements/1.1/"
   xmlns:cc="http://creativecommons.org/ns#"
   xmlns:rdf="http://www.w3.org/1999/02/22-rdf-syntax-ns#"
   xmlns:svg="http://www.w3.org/2000/svg"
   xmlns="http://www.w3.org/2000/svg"
   xmlns:sodipodi="http://sodipodi.sourceforge.net/DTD/sodipodi-0.dtd"
   xmlns:inkscape="http://www.inkscape.org/namespaces/inkscape"
   viewBox="0 0 150 99.999998"
   height="100"
   width="150"
   xml:space="preserve"
   id="svg2"
   version="1.1"
   inkscape:version="0.48.4 r9939"
   sodipodi:docname="Cementos Argos logo.svg"><title
     id="title3242">Cementos Argos logo</title><sodipodi:namedview
     pagecolor="#ffffff"
     bordercolor="#666666"
     borderopacity="1"
     objecttolerance="10"
     gridtolerance="10"
     guidetolerance="10"
     inkscape:pageopacity="0"
     inkscape:pageshadow="2"
     inkscape:window-width="1600"
     inkscape:window-height="844"
     id="namedview24"
     showgrid="false"
     inkscape:showpageshadow="false"
     inkscape:zoom="1"
     inkscape:cx="114.47304"
     inkscape:cy="51.267418"
     inkscape:window-x="-4"
     inkscape:window-y="-4"
     inkscape:window-maximized="1"
     inkscape:current-layer="svg2" /><metadata
     id="metadata8"><rdf:RDF><cc:Work
         rdf:about=""><dc:format>image/svg+xml</dc:format><dc:type
           rdf:resource="http://purl.org/dc/dcmitype/StillImage" /><dc:title>Cementos Argos logo</dc:title></cc:Work></rdf:RDF></metadata><defs
     id="defs6"><clipPath
       id="clipPath20"
       clipPathUnits="userSpaceOnUse"><path
         id="path18"
         d="M 0,0 H 5999 V 7591.97 H 0 z"
         inkscape:connector-curvature="0" /></clipPath></defs><path
     id="path22-8"
     style="fill:#b7dd2a;fill-opacity:1;fill-rule:evenodd;stroke:none"
     d="M 0.04820718,99.924081 H 149.87542 V 0.10180981 H 0.04820718 z"
     inkscape:connector-curvature="0" /><path
     id="path24-2"
     style="fill:#1c284b;fill-opacity:1;fill-rule:evenodd;stroke:none"
     d="m 62.034959,70.492481 c -6.446954,-3.90207 -10.745494,-10.89974 -10.745494,-18.8844 0,-10.69378 7.708549,-19.61807 17.964437,-21.70425 l -7.218943,40.58865 z M 74.131357,29.446201 V 2.6906015 l 4.390602,27.2301495 c 10.220034,2.11296 17.893079,11.01862 17.893079,21.68733 0,12.14959 -9.951445,22.01451 -22.283681,22.16186 v -44.32374"
     inkscape:connector-curvature="0" /><path
     id="path26-4"
     style="fill:#1d284d;fill-opacity:1;fill-rule:nonzero;stroke:none"
     d="m 38.627946,90.268201 2.212542,-4.74208 2.298739,4.74208 z m 2.183922,-10.4719 -7.786821,15.94801 h 2.930749 l 1.60915,-3.64125 6.091472,0.0281 1.838782,3.61312 h 3.246926 l -7.930258,-15.94801"
     inkscape:connector-curvature="0" /><path
     id="path28-5"
     style="fill:#1d284d;fill-opacity:1;fill-rule:nonzero;stroke:none"
     d="m 53.7848,87.267631 v -5.74405 c 0,0 0.804406,0 1.292977,0 4.482317,0 4.252341,5.74405 0,5.74405 z m 3.534135,1.0585 c 6.46488,-1.86298 4.941927,-8.41147 -2.011524,-8.41147 0,0 -3.878931,0 -4.597136,0 v 15.32713 h 3.016944 c 0,0 0,-4.54461 0,-6.57694 4.482317,5.0246 6.55108,6.57694 6.55108,6.57694 h 3.562755 c 0,0 -4.711951,-4.51616 -6.522119,-6.91566"
     inkscape:connector-curvature="0" /><path
     id="path30-5"
     style="fill:#1d284d;fill-opacity:1;fill-rule:nonzero;stroke:none"
     d="m 79.563487,79.968291 c -4.28094,-1.63705 -13.389365,0 -13.389365,7.76248 0,8.18589 10.487592,9.25827 14.280328,6.74631 0,-2.00421 0,-7.04268 0,-7.04268 h -2.787321 c 0,0 0,4.78443 0,5.65935 -2.708011,1.4538 -8.188858,0.11991 -8.188858,-5.46425 0,-6.05938 6.006651,-7.68695 10.086612,-5.09032 0,-0.87491 -0.0025,-2.57089 -0.0025,-2.57089"
     inkscape:connector-curvature="0" /><path
     id="path32-1"
     style="fill:#1d284d;fill-opacity:1;fill-rule:nonzero;stroke:none"
     d="m 90.798233,93.073101 c -2.80111,0 -5.07157,-2.72975 -5.07157,-6.09699 0,-3.36724 2.27046,-6.09698 5.07157,-6.09698 2.800755,0 5.071225,2.72974 5.071225,6.09698 0,3.36724 -2.27047,6.09699 -5.071225,6.09699 z m -0.0431,-14.39567 c -4.71334,0 -8.533652,3.71204 -8.533652,8.29088 0,4.57884 3.820312,8.29089 8.533652,8.29089 4.712985,0 8.533645,-3.71205 8.533645,-8.29089 0,-4.57884 -3.82066,-8.29088 -8.533645,-8.29088"
     inkscape:connector-curvature="0" /><path
     id="path34-7"
     style="fill:#1d284d;fill-opacity:1;fill-rule:nonzero;stroke:none"
     d="m 111.61904,79.997431 c -3.01694,-1.32679 -9.76904,-0.90337 -9.76904,3.58469 0,4.48804 7.95888,4.71399 7.95888,7.59311 0,2.87912 -4.25235,3.02004 -7.70028,1.21363 0,1.18554 0,2.70978 0,2.70978 3.96513,0.734 10.6024,1.18553 10.6024,-4.26212 0,-5.44801 -7.78647,-4.53583 -7.78647,-7.73438 0,-3.1982 6.2349,-1.27021 6.6659,-0.67743 0,-1.18553 0.0286,-2.42728 0.0286,-2.42728"
     inkscape:connector-curvature="0" /></svg>