<?xml version="1.0" encoding="UTF-8"?><svg id="Capa_2" xmlns="http://www.w3.org/2000/svg" viewBox="0 0 789.55 215.31"><g id="Capa_1-2"><g id="hvkBVg"><path d="m140.16.54C93.56,46.67,46.95,92.81.15,139.14.06,138.66,0,138.5,0,138.34.01,92.84.03,47.35.04,1.85.04.05.05.04,1.83.04c14.86,0,29.73.04,44.59.03,19.11,0,38.23-.02,57.34-.04C114.78.02,125.81,0,136.83,0c1.08,0,2.16.11,3.24.16.03.12.06.25.09.37Z"/><path d="m432.79,205.8c-2.95,3.26-5.73,6.34-8.6,9.51-.78-.63-1.54-1.2-2.26-1.82-1.25-1.07-2.49-2.16-3.69-3.28-.68-.63-1.2-.64-2.02-.12-4.12,2.62-8.68,4.08-13.53,4.45-6.85.53-13.55-.11-19.68-3.52-10.63-5.91-16.34-14.89-16.83-27.16-.6-15.27,10.43-30.07,28.13-32.2,11.79-1.42,22.21,1.73,30.29,10.94,8.59,9.8,9.78,25.71,2.72,36.57-.56.87-.56,1.42.23,2.08,1.74,1.46,3.44,2.97,5.25,4.55Zm-19.23-16.67c.27-.89.51-1.48.63-2.1.82-4.52.22-8.79-2.08-12.82-4.48-7.86-15.71-10-22.43-4.26-3.91,3.34-5.89,7.57-6.01,12.7-.23,10.13,7.48,18.14,17.55,16.89,1.23-.15,2.42-.66,3.78-1.04-2.68-2.29-5.03-4.32-7.39-6.31-.61-.52-.9-.95-.24-1.67,2.35-2.56,4.69-5.12,6.97-7.74.83-.95,1.4-.95,2.31-.06,2.17,2.14,4.45,4.16,6.9,6.43Z"/><path d="m611.29,114.42c4.82,7.03,9.54,13.9,14.48,21.09-.98.05-1.46.09-1.93.09-5.49,0-10.98-.03-16.46-.02-1,0-1.65-.28-2.24-1.19-3.49-5.41-7.07-10.77-10.61-16.15-.57-.86-1.25-1.36-2.36-1.32-1.82.07-3.64.02-5.69.02v18.64c-1.36,0-2.49,0-3.62,0-4.02,0-8.05-.03-12.07,0-.99,0-1.44-.16-1.44-1.35.05-18.61.04-37.22.04-55.83,0-3.83.01-3.8,3.82-3.81,8.83-.02,17.65-.09,26.48-.08,4.19,0,8.29.67,12.16,2.37,7.29,3.21,11.25,8.77,11.77,16.73.41,6.27-1.06,11.93-5.76,16.35-1.54,1.45-3.49,2.48-5.25,3.68-.41.28-.85.5-1.3.76Zm-24.92-10.67c4.4,0,8.57.22,12.69-.08,2.8-.2,5.5-1.28,6.76-4.19,2.04-4.72-.94-9.69-6.35-10.14-4.04-.34-8.12-.1-12.18-.05-.31,0-.88.57-.88.88-.06,4.47-.04,8.94-.04,13.58Z"/><path d="m674.96,114.52c4.78,6.97,9.47,13.81,14.37,20.97-.92.06-1.39.12-1.86.12-5.44,0-10.89-.01-16.33,0-1.05,0-1.77-.33-2.38-1.25-3.41-5.19-6.92-10.32-10.32-15.53-.92-1.41-1.97-2.1-3.7-1.92-1.49.16-3.01.03-4.75.03,0,.55,0,1.03,0,1.51,0,5.3-.01,10.61.03,15.91,0,.94-.21,1.27-1.21,1.26-4.8-.05-9.61-.03-14.41,0-.93,0-1.37-.15-1.37-1.27.03-19.43.03-38.87-.02-58.3,0-1.3.47-1.49,1.58-1.48,7.82.05,15.64.12,23.46.05,4.44-.04,8.87-.19,13.23.9,7.77,1.94,13.54,6.18,15.25,14.34,1.42,6.74,1.01,13.4-3.94,18.84-1.68,1.85-3.97,3.17-5.99,4.71-.53.4-1.11.74-1.66,1.1Zm-24.96-10.73c3.91,0,7.65.09,11.39-.04,1.51-.05,3.08-.42,4.5-.97,2.87-1.11,4.19-3.3,4.05-6.44-.15-3.24-1.34-5.09-4.35-6.26-.68-.26-1.39-.57-2.09-.59-4.19-.11-8.39-.16-12.59-.16-.3,0-.86.56-.87.87-.06,4.47-.04,8.94-.04,13.6Z"/><path d="m637.35,192.49c4.74,6.91,9.41,13.71,14.26,20.79-.78.1-1.2.2-1.62.2-5.53.01-11.07-.01-16.6.03-1.13,0-1.82-.38-2.45-1.35-3.23-4.99-6.56-9.9-9.79-14.89-1.01-1.56-2.15-2.46-4.15-2.17-1.42.2-2.89.04-4.48.04-.02.27-.07.66-.07,1.06.02,5.26.04,10.52.08,15.77,0,.74,0,1.43-.99,1.43-5.12-.01-10.23-.04-15.35-.05-.71,0-.92-.33-.9-1.03.14-6.72.29-13.43.34-20.15.06-8.09.04-16.18,0-24.28-.02-4.57-.11-9.14-.22-13.71-.03-1.11.2-1.64,1.49-1.63,10.15.08,20.31-.03,30.46.16,6.02.11,11.62,1.64,16.25,5.89,3.76,3.45,5.69,7.68,5.79,12.71.05,2.54.03,5.15-.47,7.62-1.06,5.25-4.21,9.12-8.8,11.85-.93.55-1.85,1.14-2.79,1.72Zm-24.85-10.8c4.36,0,8.56.07,12.75-.05,1.14-.03,2.34-.48,3.38-.99,2.88-1.42,4.09-3.96,3.72-7.4-.3-2.75-2.13-4.73-5.16-5.5-.79-.2-1.62-.33-2.43-.34-3.79-.04-7.58-.03-11.37-.03-.3,0-.61.1-.9.15v14.16Z"/><path d="m756.1,151.41c15.71-.28,28.47,9.14,32.33,23.44,3.87,14.32-2.85,29.66-16.24,36.09-12.98,6.23-25.66,5.31-37.1-3.6-8.56-6.67-12.16-15.9-11.32-26.73.86-11.03,6.34-19.29,15.73-24.9,5.24-3.13,11.06-4.47,16.61-4.29Zm15.94,31.05c-.16-.92-.29-2.67-.77-4.32-1.7-5.82-5.51-9.69-11.42-11.05-5.61-1.29-10.76.13-14.56,4.54-4.42,5.12-5.3,11.19-3.01,17.48,3.55,9.72,14.35,12.94,22.36,7.95,5.04-3.14,7.14-7.98,7.39-14.58Z"/><path d="m658.67,152.56c.65,0,1.23,0,1.81,0,7.31,0,14.63,0,21.94,0,7,0,13.78,1.09,19.91,4.66,9.15,5.32,13.85,13.33,14.09,23.95.12,5.17-.35,10.18-2.6,14.96-3.94,8.36-10.76,13.12-19.34,15.77-5.06,1.56-10.27,1.56-15.48,1.57-6.35.01-12.71-.02-19.06.02-1.03,0-1.31-.3-1.31-1.33.04-17.87.04-35.74.04-53.61,0-1.92,0-3.83,0-5.98Zm17.09,14.93c-.06.53-.16,1.01-.17,1.5-.02,9.36-.01,18.72-.07,28.08,0,1.01.21,1.43,1.25,1.41,2.37-.05,4.76.07,7.12-.08,8.98-.59,14.4-5.69,15.14-14.12.66-7.6-3.66-14.08-10.78-15.88-4.05-1.02-8.22-1.05-12.5-.9Z"/><path d="m355.52,74.62c1.96,0,3.82,0,5.68,0,3.38-.01,6.77.01,10.15-.07,1-.03,1.11.37,1.11,1.2-.04,19.2-.06,38.4-.08,57.6,0,.68,0,1.35,0,2.15h-16.99v-23.09c-1.46,0-2.77,0-4.09,0-5.3,0-10.61.01-15.91-.04-1.02,0-1.43.14-1.42,1.33.06,6.99.02,13.99-.04,20.98,0,.31-.52.88-.8.88-5.26.05-10.52.03-15.78.01-.12,0-.25-.09-.55-.2,0-1.77,0-3.59,0-5.41,0-17.14,0-34.29.01-51.43,0-.91.1-1.83.06-2.74-.04-1.01.33-1.33,1.36-1.32,4.75.07,9.51.11,14.26.03,1.24-.02,1.45.37,1.45,1.46-.03,6.99-.02,13.99-.02,21.17.37.04.8.12,1.22.12,6.4,0,12.8-.05,19.21,0,1.21,0,1.04-.67,1.04-1.41,0-6.9,0-13.81,0-20.71,0-.13.05-.27.1-.51Z"/><path d="m559.35,74.71v14.21c-.78.04-1.54.12-2.3.12-8.73,0-17.47-.04-26.2-.04-1.14,0-2.6-.21-3.31.39-.57.48-.27,2.04-.29,3.12-.03,1.55.03,3.11,0,4.66-.01.79.24,1.14,1.11,1.12,3.89-.06,7.77-.08,11.66-.07,5.3,0,10.61.05,15.91.08.13,0,.25.07.5.14v12.93h-29.1c-.05.42-.12.72-.12,1.02,0,2.15.04,4.3.01,6.44-.03,2.14-.06,2.17,2.13,2.18,9.6,0,19.21,0,28.81,0,1.79,0,1.8,0,1.8,1.8,0,3.75-.05,7.5,0,11.25.02,1.19-.33,1.54-1.57,1.54-15.37-.03-30.73,0-46.1,0-.55,0-1.09,0-1.77,0v-60.9h48.81Z"/><path d="m433.57,121.13c0,2.57,0,5.07,0,7.57,0,1.87-.01,3.75.05,5.62.03.89-.12,1.31-1.17,1.31-15.32-.03-30.64-.01-45.96-.03-2.34,0-2.36-.04-2.36-2.35,0-19.11,0-38.22-.04-57.33,0-1.18.44-1.35,1.43-1.35,15.23.03,30.46.04,45.69.05.59,0,1.18,0,1.86,0v14.29c-.72.03-1.43.09-2.14.09-9.38,0-18.75-.01-28.13,0-2.06,0-2.01.02-1.92,2.11.09,1.87.09,3.75.06,5.62-.01,1.03.15,1.48,1.44,1.47,9.19-.08,18.37-.04,27.88-.04,0,1.27-.01,2.34,0,3.41.03,2.83.03,5.67.14,8.5.04,1.07-.24,1.43-1.36,1.43-8.78-.04-17.56,0-26.34-.05-1.31,0-1.77.37-1.75,1.66.03,2.33-.05,4.65-.09,6.98-.02.95.58.95,1.28.95,6.08,0,12.17,0,18.25,0,4.07,0,8.14,0,12.21,0,.31,0,.61.06.97.09Z"/><path d="m239.78,98.3v13.19h-29.26c0,1.84,0,3.52,0,5.2,0,.64,0,1.28-.02,1.92-.09,2.41-.1,2.44,2.4,2.44,9.19,0,18.39,0,27.58-.02,2.74,0,2.74-.01,2.74,2.7,0,3.88,0,7.77,0,11.77h-49.32v-60.89c.89,0,1.79,0,2.68,0,14.73,0,29.45,0,44.18,0,.36,0,.76-.15,1.08-.04.33.11.82.46.82.7.06,4.34.07,8.69,0,13.03,0,.25-.72.7-1.11.7-3.61.04-7.23,0-10.84,0-6.08,0-12.17,0-18.25.02-2.02,0-1.98.03-1.92,2.04.06,1.92.07,3.84.01,5.76-.03,1.12.33,1.49,1.48,1.48,8.69-.04,17.38,0,26.07,0,.5,0,.99,0,1.65,0Z"/><path d="m585.68,152.66v14.31c-1.99,0-3.9,0-5.81,0-8.37,0-16.74.02-25.11-.01-.81,0-1.17.18-1.16,1.04.01,2.33-.03,4.66-.08,6.99-.02.92.49.97,1.23.97,8.87.05,17.74.14,26.61.21.4,0,.8.04,1.36.06v13.14h-29.07v9.59c2.7,0,5.25,0,7.8,0,7.73,0,15.46.01,23.19-.04,1.28,0,1.75.32,1.72,1.68-.07,3.88-.02,7.77.04,11.66.01.91-.3,1.21-1.18,1.19-2.61-.04-5.21-.03-7.82-.03-12.81,0-25.62.02-38.42.03-.41,0-.82-.01-1.23-.02-.81,0-1.08-.4-1.07-1.21.06-14.63.09-29.26.12-43.9.01-4.85.03-9.69,0-14.54,0-1.06.27-1.35,1.42-1.34,8.14.1,16.28.1,24.42.11,7.36.01,14.73,0,22.09.02.27,0,.54.03.95.06Z"/><path d="m440.28,152.59c2.25,0,4.49,0,6.72,0,3.06,0,6.13.04,9.19-.03,1.14-.02,1.54.38,1.53,1.5-.05,9.51-.08,19.02-.07,28.53,0,2.51-.07,5.06.36,7.52,1.17,6.71,6.43,10.18,13.15,8.92,5.09-.95,8.23-4.57,8.65-10.19.19-2.59.12-5.21.12-7.81,0-8.96,0-17.92-.06-26.88,0-1.31.35-1.68,1.72-1.64,4.8.12,9.6.1,14.4.05,1,0,1.25.3,1.24,1.24-.03,11.47.09,22.95-.08,34.42-.08,5.47-1.16,10.81-4.24,15.53-3.87,5.94-9.55,9.09-16.36,10.21-6.17,1.02-12.38,1.07-18.49-.61-9.33-2.57-14.88-8.75-16.86-18.08-.67-3.15-.86-6.43-.89-9.66-.11-9.74-.03-19.48-.02-29.21,0-1.18,0-2.36,0-3.79Z"/><path d="m361.32,199.12c.07.74.18,1.46.19,2.18.02,3.7-.02,7.41.01,11.11,0,.82-.22,1.12-1.08,1.12-17.19-.05-34.39-.09-51.58-.1-.96,0-1.4-.18-1.37-1.27.08-3.01.1-6.03.04-9.04-.02-1.36.34-2.39,1.28-3.44,7.75-8.64,15.44-17.35,23.15-26.03,1.9-2.14,3.8-4.27,5.92-6.65-.91-.04-1.52-.09-2.14-.09-8.51,0-17.01,0-25.52,0-1.71,0-1.68-.02-1.66-1.77.03-3.57.02-7.13.02-10.7,0-1.96,0-1.9,1.96-1.9,9.33.03,18.66.04,27.99.04,7.13,0,14.27-.03,21.4-.09,1.17,0,1.63.36,1.61,1.57-.05,2.83-.05,5.67.06,8.5.07,1.73-.52,3.08-1.65,4.33-7.3,8.13-14.58,16.27-21.86,24.42-1.86,2.08-3.68,4.19-5.5,6.31-.38.44-.66.95-1.03,1.48h29.75Z"/><path d="m789.55,135.6c-2.39,0-4.58,0-6.76,0-3.38,0-6.77-.03-10.15.02-1.04.02-1.54-.37-1.91-1.32-1.25-3.23-2.58-6.42-3.9-9.66h-12.69c-3.15,0-6.31.03-9.46-.02-.88-.01-1.2.27-1.5,1.12-1.07,3.01-2.28,5.97-3.51,8.91-.17.4-.77.89-1.17.89-5.66.06-11.32.04-17.19.04.53-1.38.98-2.61,1.49-3.81,6.59-15.59,13.19-31.18,19.79-46.76,1.42-3.36,2.84-6.72,4.32-10.06.16-.37.77-.76,1.18-.77,4.94-.04,9.87-.02,14.81.04.43,0,1.08.34,1.23.69,2.38,5.58,4.68,11.19,7.02,16.78,6.02,14.34,12.06,28.68,18.09,43.02.08.2.14.41.3.88Zm-40.98-24.23h13.31c-2.15-5.52-4.23-10.89-6.32-16.26-.12-.05-.25-.1-.37-.15-2.17,5.39-4.35,10.77-6.62,16.42Z"/><path d="m296.21,113.91c3.25,2.28,6.65,4.66,10.05,7.04.3.21.59.43.87.66,1.71,1.4,1.71,1.52.31,3.23-4.69,5.74-10.49,9.79-17.87,11.14-9.74,1.79-18.95.55-27.1-5.52-5.87-4.37-9.6-10.21-11.27-17.32-2-8.53-1.12-16.77,3.32-24.36,4.78-8.18,12.04-13.1,21.34-14.88,7.38-1.41,14.57-.67,21.42,2.52,4.27,1.99,7.62,5.14,10.5,8.83.56.72.31,1.09-.29,1.55-3.89,3.03-7.77,6.08-11.81,9.25-.74-.73-1.52-1.47-2.27-2.24-2.11-2.17-4.54-3.99-7.51-4.56-6.91-1.31-12.49.83-15.89,7.1-3.42,6.32-3.25,12.73.9,18.77,5.24,7.63,15.2,7.53,21.01,2.64,1.46-1.23,2.84-2.57,4.28-3.87Z"/><path d="m463.04,135.96c-8.26-20.44-16.46-40.73-24.8-61.36,1.19,0,2.21,0,3.23,0,5.03,0,10.06-.03,15.09,0,.37,0,.96.31,1.07.62,2.7,7.42,5.35,14.85,8.01,22.28,1.66,4.64,3.29,9.29,4.95,13.93.1.28.26.54.58,1.2,4.59-12.81,9.06-25.26,13.6-37.93h18.77c-.84,2.18-1.59,4.17-2.39,6.14-7.27,18.07-14.55,36.14-21.86,54.2-.16.4-.74.89-1.12.89-5.07.06-10.14.04-15.12.04Z"/><path d="m697,74.61h17.08v60.93c-.45.03-.93.08-1.41.08-4.66,0-9.33,0-13.99,0-1.73,0-1.73-.01-1.73-1.78.01-18.46.03-36.93.04-55.39,0-1.22,0-2.44,0-3.83Z"/><path d="m525.16,152.59c0,13.2-.01,26.08,0,38.97,0,6.72.03,13.44.13,20.16.02,1.39-.44,1.81-1.8,1.78-4.62-.08-9.24-.08-13.86-.06-1.25,0-1.68-.27-1.63-1.69.17-4.57.15-9.14.13-13.71-.05-14.22-.16-28.44-.16-42.66,0-3.46-.36-2.79,2.71-2.81,4.16-.03,8.32.01,12.49.02.67,0,1.35,0,1.98,0Z"/><path d="m280.79,182.97c0-9.69.02-19.39-.02-29.08,0-1.25.41-1.44,1.61-1.41,4.52.12,9.05.07,13.58.09,1.92,0,1.91,0,1.91,1.93,0,18.84,0,37.68,0,56.52,0,3.05.1,2.48-2.48,2.48-4.39,0-8.78-.05-13.17,0-1.1,0-1.48-.24-1.47-1.44.06-9.69.03-19.39.03-29.08,0,0,0,0,.01,0Z"/></g></g></svg>