<?xml version="1.0" encoding="UTF-8"?><svg id="Capa_1" xmlns="http://www.w3.org/2000/svg" viewBox="0 0 451.29 249.73"><defs><style>.cls-1,.cls-2{fill:#1d1d1b;}.cls-2{fill-rule:evenodd;}</style></defs><path class="cls-2" d="m367.96,245.66v-5.42h.6c1.06,0,1.95-.43,2.86-.59.76-.78,1.36-1.52,1.36-2.42h6.6c-.59,2.58-1.94,4.67-3.74,6.32-1.97,1.36-4.52,2.11-7.69,2.11"/><path class="cls-2" d="m367.96,233.76v-4.35h5.11c-.28-1.68-.6-3.04-1.34-3.61-.91-1.38-2.11-1.66-3.77-1.66v-5.88c3.91,0,6.63,1.06,8.59,3.78,2.25,2.39,3.17,5.7,3.17,10.08v1.79l-11.76-.15Z"/><polygon class="cls-2" points="384.22 244.91 384.22 209.83 387.39 209.83 390.53 209.83 390.4 245.07 387.23 244.91 384.22 244.91"/><polygon class="cls-2" points="397.18 245.07 397.18 209.83 400.33 209.83 403.49 209.83 403.49 245.07 400.33 245.07 397.18 245.07"/><polygon class="cls-2" points="409.81 245.07 409.81 219.01 412.97 219.01 416.42 219.01 416.42 245.07 412.97 245.07 409.81 245.07"/><polygon class="cls-2" points="410.41 215.38 414.63 208.18 421.84 208.18 414.91 215.38 410.41 215.38"/><path class="cls-2" d="m422.45,245.07v-26.06h6.47v3.76c0-.29.16-.74.61-1.33,1.5-1.97,4.05-3.02,6.92-3.02,2.57,0,4.82.59,6.04,2.25,1.5,1.82,2.24,4.06,2.24,6.93v17.48h-6.46v-16.26c.14-1.66-.15-2.7-.9-3.61-.61-.77-1.51-1.06-3.16-1.06-1.51,0-2.87.29-3.79,1.66-.88,1.06-1.33,2.7-1.33,4.66v14.62h-6.63Z"/><path class="cls-2" d="m367.96,218.25v5.88c-1.96,0-3.17.59-3.9,1.97-.61.6-.92,1.93-1.21,3.31h5.11v4.35h-5.11c0,2.09.6,3.47,1.21,4.83.74.89,1.95,1.64,3.9,1.64v5.42c-3.9,0-6.77-1.05-8.56-3.46-2.27-2.71-3.17-6.01-3.17-10.85,0-3.9.9-7.37,3.17-9.62,1.95-2.42,4.66-3.48,8.56-3.48"/><path class="cls-2" d="m340.72,245.66v-5.42c1.8,0,3.16-1.04,4.06-2.41.9-1.34,1.5-3.31,1.5-6.03.15-2.39-.59-4.07-1.5-5.42-.91-1.34-2.26-2.1-4.06-2.1v-6.03c1.8.62,3.76,1.66,4.97,3.78l.45.29v-12.49h6.32v35.07h-6.46v-3c-1.52,2.1-3.16,3.3-5.27,3.76"/><path class="cls-2" d="m340.72,218.25v6.03c-1.66,0-3.16.76-4.21,2.1-.9,1.35-1.2,3.32-1.2,5.74,0,2.69.3,4.37,1.2,5.72,1.06,1.65,2.56,2.4,4.21,2.4v5.42c-.75,0-1.06,0-1.66-.17-3.15,0-5.71-.88-7.53-3.59-1.96-2.7-2.85-6.18-2.85-10.55,0-3.61.89-7.07,2.85-9.32,1.82-2.72,4.38-3.78,7.53-3.78h1.66Z"/><path class="cls-2" d="m314.08,245.49v-5.25l.6-.15c.91.15,1.96-.28,2.56-.61.91-.61,1.51-1.36,1.51-2.41h6.77c-.76,2.74-1.96,4.83-3.92,6.48-2.09,1.36-4.65,1.94-7.52,1.94"/><path class="cls-2" d="m314.08,233.76v-4.35h4.67c0-1.68-.32-3.04-.9-3.78-.9-1.35-2.12-1.65-3.77-1.65v-5.73c3.77,0,6.62,1.06,8.57,3.78,1.82,2.25,3.17,5.7,3.17,10.08,0,.59,0,.89-.45,1.65h-11.28Z"/><path class="cls-2" d="m314.08,218.25v5.73h-.3c-1.66,0-2.86.6-3.76,1.97-.48.76-1.05,2.09-1.05,3.47h5.11v4.35h-5.41c.3,1.96.59,3.31,1.49,4.67.76,1.05,1.96,1.66,3.92,1.8v5.25c-3.92,0-6.63-1.03-8.89-3.29-1.94-2.71-2.86-6.01-2.86-10.85,0-3.9.92-7.37,3.16-9.77,1.96-2.42,4.84-3.33,8.59-3.33"/><path class="cls-2" d="m236.72,245.49v-5.4h.89c.91,0,1.67-.44,2.57-.75.9-.6,1.19-1.35,1.51-2.27h6.77c-.76,2.58-1.97,4.66-4.21,6.32-1.82,1.36-4.37,1.98-7.53,2.1"/><path class="cls-2" d="m236.72,233.61v-4.35h4.97c0-1.68-.6-3.03-1.21-3.79-.59-1.35-1.82-1.65-3.76-1.65v-5.71c3.76,0,6.62,1.04,8.87,3.76,1.81,2.4,2.86,5.72,2.86,10.07v1.67h-11.74Z"/><polygon class="cls-2" points="272.22 244.91 272.22 244.91 269.08 244.91 265.91 244.91 265.91 209.68 271.04 209.68 276 209.68 282.02 237.67 288.05 209.68 293.16 209.68 298.27 209.68 298.12 244.91 294.65 244.91 291.5 244.91 291.65 215.1 285.48 244.91 282.02 244.91 278.55 244.91 272.22 214.34 272.22 244.91"/><path class="cls-2" d="m236.72,218.12v5.71c-1.66,0-2.85.6-3.77,1.97-.75.75-1.04,2.09-1.35,3.47h5.12v4.35h-5.12c.31,2.11.6,3.31,1.35,4.82.92.91,2.11,1.66,3.77,1.66v5.4c-3.46-.13-6.33-1.04-8.59-3.45-1.96-2.7-2.86-6.02-2.86-10.84,0-3.91.9-7.37,2.86-9.76,2.25-2.28,5.12-3.32,8.59-3.32"/><path class="cls-2" d="m209.78,245.37v-5.43c1.5.16,2.84-.89,3.77-2.27,1.33-1.34,1.65-3.3,1.65-6.16,0-2.24-.32-3.92-1.65-5.27-.93-1.35-2.14-2.1-3.77-2.1v-6.02c1.96.6,3.45,1.66,4.82,3.61l.28.43v-12.48h6.62v35.07h-6.31v-3.01h-.32c-1.33,1.97-3.31,3.33-5.1,3.63"/><path class="cls-2" d="m209.78,218.12v6.02c-1.96,0-3.18.76-4.24,2.1-.89,1.35-1.49,3.33-1.49,5.57,0,2.72.6,4.52,1.49,5.87,1.06,1.67,2.28,2.27,4.24,2.27v5.42h-1.96c-3.17,0-5.72-.91-7.55-3.63-1.95-2.69-2.84-6.15-2.84-10.54,0-3.61.9-7.06,2.84-9.47,1.83-2.57,4.39-3.61,7.55-3.61h1.96Z"/><path class="cls-2" d="m169.57,245.07v-4.84c1.52,0,2.41-.89,3.33-1.95.43-.29.76-.62.76-1.36.28-.6.28-1.35.28-1.66v-3.15c-.6.43-1.65.74-2.85,1.04l-1.52.45v-4.51l.61-.3c1.21,0,2.11-.31,2.86-.62l.62-1.05c.28-.44.28-.59.28-1.35,0-.6-.28-1.07-.9-1.66-1.06-.31-1.96-.75-3.16-.75h-.31v-5.44h.92c3.17,0,5.41.76,7.21,2.11,1.66,1.37,2.55,3.33,2.55,5.73v14.44c0,1.06,0,2.11.32,2.41.28.74.6,1.06.89,1.36v.75h-6.93c-.29-1.04-.29-2.1-.29-3.15h-.31c-1.35,1.78-2.55,2.7-4.37,3.47"/><path class="cls-2" d="m169.57,217.95v5.44c-1.35,0-1.95.43-2.86,1.03-.75.62-1.04,1.67-1.04,2.72h-6.34c.32-3,1.37-5.41,3.18-6.78,1.67-1.65,3.9-2.42,7.06-2.42"/><path class="cls-2" d="m169.57,229.1v4.51l-1.04.3c-.9,0-1.97.31-2.57.89-.58.78-.9,1.52-.9,2.43,0,1.05.31,1.64.9,2.42.32.58,1.36.89,2.26.89l1.35-.31v4.84c-1.04.3-2.25.3-3.61.3-2.25,0-3.75-.62-5.41-2.12-1.22-1.35-1.8-3.01-1.8-5.41,0-2.25.58-4.39,1.95-5.72.9-1.36,2.71-2.26,5.26-2.55l3.61-.46Z"/><path class="cls-2" d="m129.85,245.37v-5.43c1.95,0,3.15-1.06,4.06-2.4,1.05-1.35,1.65-3.31,1.65-6.02,0-2.41-.6-4.07-1.65-5.41-.91-1.38-2.11-1.96-4.06-1.96v-6.19c1.95.76,3.76,1.67,5.11,3.78l.31.3v-12.51h6.32v35.08h-6.32v-3c-1.66,2.11-3.15,3.31-5.42,3.77"/><polygon class="cls-2" points="147.61 244.61 147.61 218.71 150.76 218.71 153.93 218.71 153.93 244.61 150.76 244.61 147.61 244.61"/><polygon class="cls-2" points="147.9 214.95 152.42 207.87 159.66 207.87 152.74 214.95 147.9 214.95"/><path class="cls-2" d="m129.85,217.95v6.19c-1.66,0-3.15.58-4.22,1.96-.92,1.35-1.19,3.32-1.19,5.7,0,2.72.27,4.39,1.19,5.73,1.07,1.66,2.56,2.4,4.22,2.4v5.43h-1.66c-3.17,0-5.57-1.06-7.52-3.77-1.96-2.73-2.86-6.02-2.86-10.53,0-3.63.91-7.09,2.86-9.35,1.95-2.72,4.35-3.78,7.68-3.78h1.5Z"/><path class="cls-2" d="m89.96,244.91v-4.67c1.2,0,2.41-1.04,3.45-2.11.3-.29.3-.59.58-1.34,0-.59.31-1.36.31-1.65v-3.01c-.9.3-1.94.58-3.15,1.04l-1.2.29v-4.35l.6-.46c.9,0,1.81-.3,2.85-.61l.58-1.05c0-.29.31-.6.31-1.36-.31-.59-.59-1.05-1.19-1.65-.75-.3-1.66-.59-3.16-.59v-5.44h.6c3.16,0,5.71.6,7.22,1.96,1.95,1.35,2.85,3.48,2.85,5.72v14.6c0,.9,0,1.96.3,2.25,0,.76.31,1.06,1.06,1.51v.6h-7.08c-.3-1.06-.61-2.12-.61-3-1.19,1.64-2.85,2.55-4.35,3.31"/><polygon class="cls-2" points="106.37 244.61 106.37 209.38 109.52 209.38 112.98 209.52 112.98 244.61 109.52 244.61 106.37 244.61"/><polygon class="cls-2" points="22.08 209.38 22.37 209.38 26.14 209.38 37.88 244.45 34.4 244.45 30.65 244.45 28.38 237.37 22.08 237.37 22.08 231.35 26.43 231.35 22.08 217.2 22.08 209.38"/><path class="cls-2" d="m89.96,217.95v5.44c-1.36,0-2.27.29-2.86.89-.61.76-1.05,1.82-1.05,2.71h-6.32c0-3,1.05-5.41,2.86-6.77,1.66-1.67,4.2-2.42,7.38-2.27"/><path class="cls-2" d="m89.96,229.1v4.35l-1.07.31c-1.2,0-2.1.31-2.4,1.04-.76.62-1.05,1.38-1.05,2.26,0,1.05.3,1.8.61,2.42.59.75,1.36,1.06,2.26,1.06.58,0,.89,0,1.65-.31v4.67c-1.36.29-2.27.29-3.63.29-2.09,0-4.05-.59-5.26-1.96-1.66-1.35-2.25-3.01-2.25-5.41s.59-4.39,1.96-5.72c1.19-1.36,3.17-2.41,5.27-2.71l3.91-.31Z"/><polygon class="cls-2" points="41.94 244.45 42.09 209.38 45.54 209.38 48.7 209.38 48.57 244.61 45.4 244.61 41.94 244.45"/><path class="cls-2" d="m75.96,235.13h0c-.3,2.99-1.22,5.71-3.17,7.36-2.26,2.12-4.82,2.71-7.68,2.71-3.76,0-6.61-1.05-8.88-3.3-1.79-2.42-2.85-5.71-2.85-10.23s1.05-7.69,3.31-10.09c1.81-2.42,4.66-3.78,8.59-3.78,3.16,0,5.72,1.06,7.52,2.72,1.95,2.1,3.17,4.51,3.17,7.51h-6.32c-.31-1.49-.62-2.4-1.67-3.45-.6-.6-1.5-.9-2.7-.9-1.97,0-2.87.6-3.92,1.95-.89,1.35-1.19,3.3-1.19,6.04s.31,4.82,1.19,6.17c.9,1.36,1.96,1.97,3.76,1.97,1.07,0,1.96-.62,2.86-1.38,1.05-1.06,1.36-1.94,1.67-3.3h6.32Z"/><polygon class="cls-2" points="6.57 244.45 18.3 209.38 22.08 209.38 22.08 217.2 17.56 231.35 22.08 231.35 22.08 237.37 15.75 237.37 13.49 244.45 10.04 244.45 6.57 244.45"/><path class="cls-1" d="m224.96,57.62c0,.05,0,.1,0,.15l.04-.11-.04-.04Z"/><path class="cls-1" d="m275.86,28.28c-.14.09-.29.16-.43.23.28.06.43.02.43-.23Z"/><path class="cls-1" d="m228.24,66.62c0-.19,0-.37,0-.56l-.11.09.1.47Z"/><path class="cls-1" d="m162.6,4.07l.15,175.9c.27,5.16,5.4,7.75,8.54,7.75h43.74c5.27,0,10.54,5.44,11.67,11.03,1-5.9,5.55-10.59,11.83-11.19l44.15.16c4.99.15,6.68-1.37,6.97-8.05V4.07h-127.06Zm48.01,5.15s5.83,5.9,6.82,7.12l1.72-1.38c-.28-.9-4.84-5.45-5.27-6.05l1.56-.6,4.69,6.06c.29-.16,1.57-.77,2.29-1.06-.29-.91-1.71-3.93-2-4.53l1.15-.46,1.56,4.99c.71-.3,1.42-.46,2.27-.62l-.7-4.69,1.71-.14-.16,4.83c.87-.14,1.86,0,2.57.16l.14-4.85,1.44.16-.86,4.69c.86.16,1.84.46,2.69.9.15,0,1.44-4.68,1.57-5.43.56.31,1.14.46,1.57.75-.29.61-2.14,4.24-2.43,5,.86.44,1.99,1.06,2.43,1.52l2.98-6.52,1.57,1.06-3.99,5.76c.71.75,1.42,1.36,1.86,1.81.84-1.06,5.84-8.47,5.99-8.47l1.84,1.83-7.26,7.41.85,1.5,10.27-8.15,1.55,1.5-11.24,7.42c.57,1.05,1.71,5.14,1.71,7.27.15,6.2-3.14,10.74-6.7,13.31l-.57-1.65c.29-.31,1.57,0,1.57-.62v-.45l.28-.3.29-.3c.28-.62,0-1.06,0-1.37h.28c.29-.61-.28-1.65.57-2.1.42-.16,1-.78.57-1.22-.57-1.06-1.58-.16-2-.91.57,0,0-.76.28-1.21.29-.31-.14-.62-.43-.16-.28.44-.99,0-.99.61-.3,0-.57-1.23-1.43-.91-.43.16,0,.91-1,1.22l-.57.31v.44l-.57.32c-.28-.76-.28-1.37-.69-2.44l-.3-.89c-.28-.45-.28-.76-.28-1.06,1.35,0,1.54-1.25,1.56-2.28-.1.1-.19.2-.29.3l-.28-.44c.12-.11.23-.21.34-.31-.83.04-2.91.16-2.91-1.22-.86.46-1.56-2.71-1.56-3.32l.29-.47-.14-.45c.56,0,.99-.3.99-.6,0-.15-.28-.3-.7-.46l.27-.75c0-.77-.56-1.36-1.14-1.36-.7,0-1.27.59-1.27,1.36l.28.75c-.42.16-.71.32-.71.46,0,.3.43.6,1.14.6l-.29.45.43.47c0,.6-.43,4.07-1.42,3.18.14.74-1.13,1.04-2.13.74-.44.6-.58,1.67.7,2.59,0,.05,0,.1-.02.15,0,0,.01,0,.02-.01h.3c.28.29-.3.61.28.61,0,.3-.28,1.06.29,1.06.28,0,.28.6.71.6-.71,0,0,1.05-.71,1.05v.31h-.29l-.28-.31c-.3-.3-.73-.3-.73-1.05-.27-.3-.56-.6-.56-1.36.23,0,.32-.1.39-.25-.59.37-1.39.55-1.39.55v.45c-.28,0,0,.59-.57.59v.76l.29.61v-.31l.28.62c-.57,0-.87,0-.87.31-.99.76-2.26.76-1.56,2.41.57.31-.29,1.36.57,1.68v1.35h.28c0,.61.44,1.36-.13,1.66-1.86,3.49-9.4,15.9-12.82,21.37l-3-1.38,14.1-19.23c-4.71-3.77-5.84-10-5.13-14.99.3-1.66,1.86-5.16,2.43-5.6l-9.4-7.41,1.56-.61,8.11,7.56c.43-.76,1.29-1.65,1.72-2.11l-7.95-6.97,1.7-.75Zm49.7,31.18c-5.26-1.82-13.66-5.3-17.65-6.36h.84c.87.14,16.1,4.4,17.1,4.24,0,.45-.29,1.22-.29,2.12Zm6.14,7.28l-.43,2.43c-1.43-.62-22.36-12.58-23.35-12.73v-.45c.71,0,23.64,10.91,23.79,10.76Zm-6.56-12.28l-17.1-3.94.3-.44,17.22,2.43c0,.3-.43,1.37-.43,1.96Zm-16.38-6.49l-.13-.48c4.69,0,10.97-.3,15.81-.3l.28,1.97c-1.29,0-14.96-1.19-15.97-1.19Zm-.42-1.97l-.15-.6,14.95-4.09.73,2.72s-12.27,1.37-15.53,1.97Zm-.15-2.28l-.42-.14,13.83-5.91.7,1.82-14.11,4.24Zm-.99-1.97l-.28-.6,12.39-8.02,1,1.83-13.1,6.8Zm20.65,40.43l.44-1.07,1.27.6-.98,2.43c-3.85-2.26-12.4-2.43-15.67,0l-.73-2.57,1.57-.6.57,1.05c.43-.15,1.14-.31,1.56-.31l-.14-1.06c.56,0,1.28-.15,1.86-.3l.13.9c.57,0,1.29-.15,2.14-.15v-.91h2.28v.91c.72,0,1.29-.14,2.29.15l.13-1.05c.71.15,1.16.3,1.58.3l-.15.92c.56.15,1.58.6,1.85.76Zm4.56,99.92c-.43.76-1.43,1.06-2.27,1.23-1.85-.6-4.57-1.52-5.13-1.99.85,0,2.98-.59,2.98-.75.29.46,3.99,1.36,4.42,1.51Zm-4.42-2.87v-.91c.86.3,1.85.77,2.14,1.21-.3,0-1.71-.3-2.14-.3Zm4.57,4.53l.15,5.61c-.29.29-1.15.74-1.73.91,0-1.68-.14-3.95-.27-5.6.56-.32,1.28-.61,1.85-.92Zm-50.86,11.36c-2.42,0-7.82-.3-9.82-.6v-6.06c.57.14,8.12.76,9.82.92-.13,1.52,0,3.17,0,5.74Zm-30.91-12.71c.43-.3,1.99-1.07,2.43-1.23.56.32.98.47,2.13.77-.29.31-1.85.92-2.41,1.38-.71-.31-1.72-.46-2.14-.92Zm1.15,1.96v5.61c-.71-.46-1.42-.91-2-1.52l.15-.46v-4.53c.29.15,1.27.75,1.85.9Zm0-4.83c1.14-1.07,2.56-1.07,3.41-1.38v1.24c-1-.16-2.27,0-2.99.74l-.42-.59Zm1.15,5.3c1.27.44,5.69,1.5,6.54,1.65v5.76c-.57.15-4.7-1.07-6.54-1.82v-5.6Zm.83-.76c.86-.45,2-1.06,2.71-1.67.88.32,3.56.92,5.99,1.22-.84.6-2.28,1.36-2.85,1.81-1.99-.45-4.41-.75-5.85-1.36Zm36.76-62.84h-6.83v-2.72c2.14-.16,4.56-.29,6.83-.16-.14.91.16,1.98,0,2.88Zm.16,3.63c-.16-.61.27-.61.27-1.65h.71c0,1.2.29.9.15,1.65-.15.46.56.76.99.76v.31h-.99v1.98c.85-.92,2.99,2.41,3.56-.17h.56c.85,1.84,2.27,2.14,3.7-.45l2.57-.15c-.86.15-2.99,2.58-4,3.94-1.71-.76-3.83-1.98-6.4-1.98-1.75,0-4.17.87-5.7,1.53h2.7v.75h-2.71v-.75c-.59.25-1.04.47-1.28.6-.43-1.52-1.85-3.63-3.85-4.09h2.56c.72,1.37,2.85,2.58,3.57.6h.56c.16,2.27,2.57-.6,3.28.17l-.13-1.98-1.14.16v-.63c.29,0,1.14,0,1.01-.6Zm10.39-5.9c1,0,4.57.44,5.85.75l-.14,2.58c-2-.17-3.13-.46-5.71-.46.14-1.19,0-2.26,0-2.87Zm25.64,9.23v2.58c-1.58-.15-2.29-.46-2.84-.62,0-.9.13-1.96.13-2.56.71,0,1.86.45,2.71.6Zm-.3-1.22c0-.6.15-1.8.15-2.26l.59.3v2.12c-.44,0-.44-.16-.74-.16Zm-37.17,26.97c0-.16-.14-1.98-.14-2.59l.57.16c.28,2.11,2.7,2.11,2.99,0h.71v1.96c-.43,0-.71,3.64-1,4.08-.71-.15-1.56-.15-2.14,0,.14-.6-.42-3.61-1-3.61Zm-.14-17.89v2.88h-3.28v-2.88h3.28Zm-3.28-.3v-2.57h3.28v2.57h-3.28Zm3.14,3.47v2.59h-3.14v-2.59h3.14Zm.14,3.02v2.89h-3.28v-2.89h3.28Zm-.14,3.34v2.74c-1.14-.62-2.14-1.38-3.14-2.12v-.62h3.14Zm.57,3.77v.93c-1.13-.93-5.13-3.34-8.27-6.06-1.55-1.37-2.84-3.02-3.29-4.41-.27-1.06-.27-2.56,0-3.32.17-.45,1.29-2.56,3.87-2.28.7,0,.85.78.29,1.38h-.58c.42-.76-.13-1.06-.71-.9-.42,0-1.28.44-1.42.76-1,1.19-1.28,2.41-.86,4.07.43,1.51,1.69,3.01,3.7,4.84.71.63,4.55,3.33,7.27,4.99Zm3.27-13.32v2.72h-3.28v-2.72h3.28Zm-2.28-4.69c.57-.75,1.43-.46,1.72,0,.42.59.28,1.52,0,2.12-.14-2.12-1.56-2.43-2,0-.28-.91,0-1.97.29-2.12Zm6.13,1.82v2.57h-3.14v-2.57h3.14Zm-3.02-1.82v-.75h2.86v.75h-2.86Zm3.14,4.68v2.88h-3.26v-2.88h3.26Zm-.13,3.18v2.59h-3.14v-2.59h3.14Zm.13,3.02v2.89h-3.26v-2.89h3.26Zm-.13,3.34v.62c-1,.75-1.99,1.5-3.13,2.12v-2.74h3.13Zm3.69-1.21c2-1.83,3.13-3.33,3.7-4.84.44-1.66.15-2.88-.85-4.07-.29-.32-1.01-.76-1.43-.76-.71-.16-1.15.14-.71.9h-.56c-.58-.6-.44-1.38.27-1.38,2.57-.28,3.56,1.83,3.84,2.28.29.76.29,2.26,0,3.32-.57,1.38-1.7,3.04-3.42,4.41-2.99,2.72-7.56,5.29-8.69,6.21v-.92c2.7-1.65,7.12-4.52,7.83-5.14Zm-2.99-8.33c1.43-.58,2.71-.14,3.15.29.99.78.7,1.99-.16,2.43-.85.46-1.99.46-2.99,0,3.15-.29,3.42-2.26,0-2.72Zm25.51-.14c0,.59-.29,1.65-.29,2.42-.43-.3-3.57-.77-4.15-.77v-2.56c1.03.15,3.44.75,4.44.91Zm-4.44-2.26v-2.74c.57,0,1.44.32,1.87.46v2.58c-.72-.16-1.42-.3-1.87-.3Zm7.85,3.16l-.14,2.59c-.28,0-1.72-.47-2.41-.63l.14-2.43c.43,0,1.85.46,2.41.46Zm-.7-1.8v-2.59l.98.16v2.72c-.56-.16-.71-.16-.98-.3Zm.42,33.3c-.72,0-3.7.44-4.85.14-.15-1.21,0-2.11,0-3.17.71.14,4.12-.3,4.85-.3-.15.44,0,2.43,0,3.33Zm-22.65,1.36v-3.33c.85.15,2.98,0,3.7,0v3.33c-.72.15-2.56.31-3.7,0Zm.71,1.51v3.79c-1.28.15-2.71.15-4.7.15v-3.94c1.42.16,3.28,0,4.7,0Zm-2.85-14.98h5.42v4.09h-4.42c-.28-.61-.7-1.22-.86-1.51.3-.17.71-.47,1.15-.77l-1.29-1.82Zm-5.27-6.06v-1.06c1.72-1.05,2-1.05,3.14-1.98v3.04c-.44-.14-2.42.16-3.14,0Zm1.14,1.07v2.85c-.57-.29-1.14-.9-2.41-1.04v-1.81h2.41Zm1.28,0l5.4-.16v3.64c-.41,0-1.98.29-2.83.16-.58-.32-1.71-1.07-2.57-1.38v-2.26Zm6.99-13.18c.55,0,1.14.15,1.85.15-.14.75-.14,1.65-.28,2.72-.58-.15-1.14,0-1.72-.15.29-.77.29-1.83.16-2.73Zm5.27,4.4c0,1.05,0,2.11-.14,2.85h-8.98c1.57-.9,3-2.57,3.27-3.32.58.15,5.85.47,5.85.47Zm-2.58,17.69c0-.75.16-3.93,0-4.07h5.27v4.07c-1-.15-3.55.16-5.27,0Zm2.44,5l-5.29-.14v-3.19c2.01-.15,3.43,0,5.13-.15.16,1.06.16,2.43.16,3.48Zm-5.13-10.44v-3.47c1.56,0,3.7.14,5.27.3v3.33c-1.57,0-3.7-.16-5.27-.16Zm11.37,6.67c0,.9.31,2.72.31,3.34-1.01.13-4.57.29-5,.29,0-.91-.14-2.28-.14-3.48,1.71,0,3.56-.15,4.83-.15Zm-1.83-1.38c-.16-1.37-.16-2.26-.16-3.78,1.14,0,3.58.16,4.73.3,0,1.05.12,2.11.12,3.33-1.27.14-3.42.14-4.69.14Zm8.11,1.07v3.03c-1.55.15-3.27.15-4.68.46-.16-.92-.16-2.44-.16-3.18,2.28-.17,3.57-.31,4.84-.31Zm-2.14-1.21c0-1.83-.14-3.48-.14-3.48l3.86.15c0,.76.14,2.11.14,3.18l-3.85.16Zm2-4.39l-4.44-.31c0-1.07-.11-1.66,0-3.02.45,0,3.44.15,4.44.3v3.03Zm-3.14-4.69c-1.56-.16-3.7-.46-5.13-.62l-.14-2.89c.7,0,4.69.46,5.55.62,0,.89-.14,1.96-.29,2.88Zm-2.7,1.2v3.02l-5.14-.14c-.13-1.07-.13-2.12,0-3.18,1.42,0,3.84.14,5.14.29Zm-8.55-1.96c0-.92-.16-2.28-.16-3.04,1.86,0,3.28.15,4.99.15,0,1.07.14,1.98.14,3.04-1.14-.15-3.42-.31-4.97-.15Zm-1.57-3.2c0,1.07-.14,2.44,0,3.34h-6.41v-3.34c1.55,0,3.83-.14,6.41,0Zm3.57,23.93v3.64c-1,0-3.43.46-5.29.46l-.14-3.65c1.43.16,4-.3,5.42-.45Zm-1.99-1.21c-.16-1.21,0-2.11,0-3.18.84,0,4.12-.3,4.83-.3,0,.45.14,2.4.14,3.18-.7.15-3.84.59-4.97.29Zm3.41.91c1.42.15,3.98-.3,5.27-.3l.15,3.49c-1.01.15-3.56.43-5.42.43v-3.63Zm3-1.35c0-1.37.13-2.28,0-3.34.85.15,4.12-.31,4.99-.31-.15.62,0,2.59,0,3.33-.72.16-3.85.62-4.99.32Zm3.54.91c1.44.15,2.86-.31,4.29-.31v3.19c-.86.3-2.43.46-4.29.46v-3.33Zm5.7-6.37c-.14-.91-.14-1.97-.14-2.87h2.41v2.72c-.7.15-1.55.15-2.28.15Zm1.44-4.09c0-.74,0-2.12-.16-3.02h.86l.14,3.18-.83-.16Zm.7-4.08h-2.41c0-1.06.13-1.98.13-3.03l2.28.14v2.89Zm-1-4.24c-.7-.16-3.55,0-4.41-.31,0-1.38.15-1.98.29-3.03,1.58.15,2.85.3,4.43.46-.16.58-.3,1.66-.3,2.87Zm-2.85-4.54c-1.27-.15-3.7-.46-4.55-.46v-2.73c1.43.3,2.57.44,4.71.76l-.16,2.43Zm-1.83-4.11c.13-1.35.13-2.24.13-3.01.73,0,2.71.77,3.99.91v2.72c-.85-.16-3.26-.62-4.12-.62Zm3.98-7.71l-3.43-.75v-2.58c1.28.15,2.28.61,3.56.76l-.14,2.58Zm-5,4.38v3.02c-.7-.14-4.27-.58-4.98-.75,0-.9.29-1.96.29-2.87l4.69.59Zm-2.98,4.1v2.73c-1.59-.31-2.85-.31-4.84-.61.13-.61,0-2.74,0-2.9,1.14.16,3.41.45,4.84.78Zm-3.14-1.98c-2.13-.14-3.84-.44-5.41-.59,0-1.07.16-1.99.16-2.58,1.41.15,3.69.15,5.4.45l-.15,2.71Zm-2.84-8.93c-1.29-.29-2.58-.46-3.14-.46,0-.59.14-2.4.14-3.17,1,.16,1.86.3,3,.46v3.17Zm0,1.37v2.72h-4.42c-.3-.45-.71-.9-1.43-1.04-.14-.92-.14-1.52-.14-2.28,2,.15,3.99.6,5.99.6Zm-4.57-1.98c-.42-.3-3.28-.3-6.26-.3.56-.89,1.85-2.43,2.27-3.32,1.42,0,2.99.3,4.43.45-.29.92-.29,2.26-.44,3.17Zm-5.54.77v.61h-2.72v-.61h2.72Zm2.27,6.35c.57.9.29,1.97,0,2.28-.57.76-1.42.46-1.71,0-.44-.61-.44-1.38-.29-2.12.43,2.26,1.85,2.26,1.99-.16Zm-5.12,3.5c.86-.47,1.71-.18,1.99.12.71.78.43,1.68,0,1.99-.71.46-1.43.29-2.14,0,2.14-.17,2.43-1.68.15-2.11Zm-7.98,6.33v-3.01h3.27v3.01h-3.27Zm2.42.46v1.67c0,1.51-1.86,1.65-1.99,0v-1.67h1.99Zm.84-7.27h-3.27v-2.88h3.27v2.88Zm-.14.29v2.75h-3.28v-2.75h3.28Zm-8.55,9.26c.86,0,1.85-.16,2.7-.16v1.82c-.71.16-1.85.9-2.7,1.37v-3.02Zm-.57-1.07c0-.44,0-2.27-.15-3.03,1.15,1.07,1.43.92,3.28,1.96v1.07c-.7.16-2.7-.15-3.13,0Zm-27.34,2.41h1.99c0,.77.13,1.37.13,2.59-1.26-.15-1.56-.15-2.12-.15v-2.44Zm0-2.26v-2.43h1.13v2.73c-.27,0-.57-.15-1.13-.3Zm21.63-8.78c.45,1.36,2.01,2.87,2.71,3.64-2.71.15-6.1,0-8.67,0v-3.34c1.56,0,3.99-.3,5.96-.3Zm-1.83-.76v-3.03h.7c0,1.06.3,2.42.71,3.03h-1.42Zm-1.56,5.91s-.15,1.21-.29,3.48c-1.55,0-2.7-.15-4.43-.15v-3.33h4.73Zm-3.85,5.15c0,.9-.14,2.27-.14,3.02-1.28,0-3.13.16-4.98.16,0-.91.14-2.13,0-3.18.7,0,3.41-.16,5.12,0Zm-7.55,7.72v-3.33c.99-.15,3.41,0,4.42,0,0,1.05.13,1.97.13,3.33-.71.14-2.99.14-4.55,0Zm7.55,2.11l.15.15c0,1.22-.15,2.12-.15,2.73h-4.85c-.14-1.05-.28-2.27-.14-3.03.57,0,4.99,0,4.99.15Zm-6.13-.3v.15c-.14.76-.29,1.52-.29,2.9l-4.41-.16c-.3-.61,0-1.83,0-3.03.85.14,4.26,0,4.7.14Zm-.44-6.19h-4.69v-2.89c.56,0,3.84-.29,4.84,0,0,.77-.29,1.83-.15,2.89Zm3.84-4.85c-1.13,0-2.97-.16-5.25.16,0-1.07-.15-2.13,0-3.34,1.27,0,3.41-.31,5.25-.31v3.49Zm-3.4-5c-1.29,0-3.15.62-5.13.62v-2.73c-.14,0,4.27-.62,5.13-.62v2.73Zm-3.14,2.43c0,.89-.27,1.81-.13,2.87-1.3.15-2.15-.15-2.87-.15v-2.73c.57,0,2.28-.15,2.99,0Zm.15,8.48l.14,3.33c-.41.45-3.83.14-4.4,0,0-.77.27-2.28.13-3.33h4.14Zm-4.85,5c.85-.15,1.28-.15,1.86,0v2.87h-1.86c-.14-1.06-.14-1.97,0-2.87Zm0,8.48c.71.15,1.42.15,2.14.15v3.19c-.99,0-1.42,0-2.14-.32v-3.01Zm.58-1.53v-2.56c1-.15,2.68,0,3.55,0v2.72c-.43,0-2.27,0-3.55-.16Zm2.56,1.68c1.43,0,2.98.3,4.7.3v3.48c-1.42-.15-3.71-.15-4.7-.44v-3.34Zm2.7-1.37c0-.9.15-1.64.15-2.71,1.71.3,3.41.16,5.11.3,0,1.07.14,1.52.14,2.57-1.7,0-3.54-.16-5.4-.16Zm3.42,1.52c.99.14,3.79.6,4.54.6,0-.08.02-.09.02,0,0,0-.01,0-.02,0-.04.33-.13,1.9-.13,3.49-1.14,0-2.84-.14-4.41-.45v-3.64Zm3.69-1.05v-2.88c2.01.31,3.15,0,4.99,0v2.88c-1.85.15-3.28,0-4.99,0Zm2.29,1.81c1.56-.3,3.55,0,5.42,0,0,1.06,0,2.73-.15,3.33-2.14.3-4.28.15-5.27-.14v-3.2Zm4.25-1.81l-.13-2.88c1.01,0,1.83.16,2.57.16.15,0,0,2.42,0,2.88-.74,0-1.86-.15-2.44-.15Zm1.16-4.1l-5.14-.14c-.28-1.06-.15-1.67-.15-2.73.29-.61,4.41-.46,5.41,0-.13.45-.13,2.73-.13,2.87Zm-2.72-5.15c-2.57.16-3.98.16-5.69-.14l.14-3.48c1.42,0,2.27,0,5.55-.16-.13,0,0,3.02,0,3.78Zm-2.7-4.84v-3.32c1.42-.3,4.99-.3,5.96-.3v3.47c-1.97,0-3.95.15-5.96.15Zm4.42-4.84c-.17-.93-.29-2.58-.29-3.63.57.14,5.13,0,5.83,0l.15,3.78c-1.28,0-3.7,0-5.69-.15Zm5.54-11.21c.29.74.29,1.52-.14,2.12-.42.46-1.28.76-1.85,0-.28-.31-.43-1.38,0-2.28.15,2.41,1.56,2.41,1.99.16Zm3.28,5.46c-.71.29-1.42.46-1.99,0-.57-.31-.73-1.21-.15-1.99.29-.3,1.29-.59,2.14-.12-2.27.43-2.14,1.95,0,2.11Zm0-5.78c-.99.46-2.14.46-3.12,0-.71-.44-1-1.65,0-2.43.42-.43,1.71-.88,3.12-.29-3.55.45-3.12,2.43,0,2.72Zm-.14-5.59h-2.85v-.61h2.85v.61Zm-8.68-1.37c.13-1.19.13-2.56.13-3.63,1.3-.15,3.15-.46,4.13-.46.58.17,2.58,1.53,3.43,3.65-2.28,0-4.99.15-7.68.44Zm1.43,1.53v1.67c-1.15.6-2.58,1.22-2.72,1.8-.7-.15-2.57-.15-2.99-.15v-3.47c.72,0,4.41,0,5.71.15Zm-3-1.07c-1.01-.15-1.71-.15-2.85,0v-3.33c.86-.16,2.28-.3,3.13-.3l-.28,3.63Zm.42,5.76c0,.61,0,2.12-.14,2.87-.43.15-5.28.31-6.12.31,0-.61-.14-1.98-.14-2.58.42-.16,4.97-.45,6.4-.61Zm-4.69,4.53v3.04c-.87,0-3.43.16-4.84.16,0-.6,0-2.13-.14-3.04.85,0,3.98-.16,4.98-.16Zm-7.98-.44c0-.77-.15-1.51-.15-2.71.58,0,2.99-.47,4.99-.63,0,.77.15,1.54.15,2.73-2.14.17-3.85.46-4.99.61Zm2-8.63c-.58.3-1.42,0-2.28.3v-2.88l2.28-.28v2.86Zm-.14,1.52l.14,3.18c-1.57,0-5,.29-5,.29-.14-.91,0-2.42,0-2.87,0,0,4.42-.46,4.86-.6Zm-6.99-.78l-.13-2.71c.7,0,2.12-.29,3.69-.61l.15,3.05c-.15-.16-2.28.15-3.71.28Zm.86,1.53v2.72l-1.87.16c-.12-.76-.12-1.83-.12-2.72l1.99-.16Zm2.99,4.08c0,.32.13,1.52.13,2.43-.42,0-2.42.3-3.12.3l-.15-2.4c.57-.16,3.14-.32,3.14-.32Zm-2.99,3.66v2.88h-2.14c0-.92-.15-1.99-.15-2.75.85-.14,1.42-.14,2.29-.14Zm-2.14,34.97c.7.3,1.56.46,2.27.62-.13.74-.13,1.04-.13,1.66-.58-.16-1.72-.47-2.14-.62v-1.66Zm.42-1.36v-2.72l4.99.46c0,1.22,0,1.95-.15,2.87-.57.15-3.84-.46-4.84-.6Zm3.28,1.98c1.43.15,2.98.6,4.7.6-.14.75-.14,1.21-.29,2.26-1,0-3.69-.45-4.41-.61-.15-.75,0-1.65,0-2.25Zm3.13-1.07v-2.72c.28,0,4.56.6,4.97.46-.14,1.21,0,1.97-.14,2.72-.56.3-3.84-.32-4.83-.46Zm2.85,1.97l4.7.45c-.15.75-.15,1.83-.15,2.44-.72,0-3.56-.31-4.69-.6l.14-2.28Zm3.42-1.05l-.14-3.19c1.86.15,3.57.46,5.42.31,0,.74.13,1.65,0,3.03-2.15,0-3.56,0-5.28-.15Zm2.71,1.81c1.42,0,3.83.31,5.26.31l-.13,2.71c-1.15,0-3.3-.15-5.13-.44v-2.58Zm3.99-1.51l-.15-3.02c.58.15,2.01.15,2.86.15-.15,1.36,0,2.73,0,3.18-.74-.14-1.71,0-2.71-.3Zm2.7,1.95h4.99v2.9c-1.99,0-3.85,0-4.99-.15v-2.75Zm4.7-9.67v3.34c-.57,0-2.28.15-4.41-.32-.14-1.19-.14-2.27,0-3.47l4.41.45Zm-3.56-1.82c0-1.06.15-2.26.15-3.33,1,.15,2.41.3,3.42.45v3.19c-.57,0-2.85-.16-3.56-.31Zm3.56,6.81v3.19c-.57,0-2.42,0-3.27-.15v-3.18c1.13.15,2.13.15,3.27.15Zm0-11.36h-4.41c0-.43.28-3.33.28-3.33.71.16,3.84,1.38,4.27,1.67-.14.31-.14,1.07-.14,1.66Zm-7.26-4.99c0-.75.13-2.58.13-3.78h5.28c-.13,1.36-.28,3.78-.28,3.94,0-.46-4.71,0-5.13-.16Zm2.99-5c0-1.19.14-2.72.14-3.78,2.85.16.87.16,3.57,0,0,1.2.15,2.59.15,3.78-1.43.16-3.27,0-3.85,0Zm4.71.31c1.28,1.5,2,2.41,2.98,3.48-.42.3-.86.76-1.28,1.21-.85-.61-2.43-2.58-3.14-2.87.58-.62,1.14-1.21,1.43-1.82Zm1.84.14c.57-.61,1.14-.9,2.58-1.37.15.46.99,2.89,1.14,3.49-.57.15-1.14.3-1.72.76-.27-.76-1.71-2.57-1.99-2.88Zm8.71-1.06c.56.16,1.41.77,1.98,1.06-.27.61-1.28,2.12-1.85,2.88-.29-.31-.72-.61-1.43-.76.29-.76.86-2.58,1.29-3.18Zm4.12.6c.29,0,1.56,1.37,2.12,1.82-.84.6-2.12,2.12-4.12,3.79,0-.45-.71-1.52-.99-1.67l2.98-3.94Zm-.72,6.96c.43,1.07.43,1.97.57,3.03h-.86c-.15-1.51-.43-3.03-.85-3.77.28.15.7.44,1.13.74Zm.58,7.73l-.57-.3v-3.18h.57v3.48Zm.14,1.36v3.65l-.72-.32v-3.63l.72.3Zm-.14,5.15c.14.76.14,1.66.14,3.33l-.72-.29-.14-3.19.71.15Zm.43,4.83v2.59l-1.01-.29-.14-2.73,1.15.43Zm-.86-20.42c.71-.45,1.56-.91,2-1.36.42.75.7,1.36,1.14,1.97-.56.29-1.57.59-2.27.9l-.87-1.51Zm4.7.9c.29,0,.58.15,1.01.15,0,1.07.12,2.13.12,3.33h-4.41c-.14-.43-.28-.91-.42-1.35.56-.31,3.56-1.22,3.69-2.13Zm-3.41,4.85c.85.16,1.99,0,2.7,0v3.33c-.71.16-1.57.16-2.7-.15,0-1.22.14-2.11,0-3.18Zm3.27,9.99v3.04c-1.29.15-2.57.15-3.14.15l-.13-3.03c.99,0,1.71,0,3.27-.16Zm-2.85,4.68c1.28,0,2.85-.12,4.27-.43v2.88c-1.85.15-2.84.3-4.27.15v-2.59Zm4-1.78l-.16-3.04c1.01,0,2.29-.29,3.86-.29v3.03c-1.3,0-3.15.31-3.7.31Zm7.38.59l.15,2.58s-4.12.77-5.54.77c-.15-1.06-.15-1.84-.15-2.74.85,0,5.14-.61,5.54-.61Zm-2.11-1.21l-.15-3.19c1,.16,3.84-.45,5.26-.45.15,1.07.15,2.12.15,3.19-1.41,0-4.69.45-5.26.45Zm3.54.92c.86,0,4.42-.46,5-.6l.13,2.72c-.13,0-3.57.6-5.13.6v-2.72Zm3.14-1.82v-3.18c.83.16,2.56-.16,3.98-.3,0,1.05.15,1.97.15,3.03-1.29.15-3.57.45-4.13.45Zm2.83.75c.87,0,3.72-.6,4.29-.75l.15,2.72s-2.85.75-4.44.75v-2.72Zm2.86-1.66l-.14-2.89c1,0,2.42-.28,3.84-.43v2.72c-1.27.15-3.13.61-3.7.61Zm5.12,0v2.58s-.83.59-2.28.59c0-1.19-.14-1.81-.14-2.72.87,0,1.86-.31,2.41-.45Zm-2.28-4.24v-3.03c.58,0,1.44-.15,2.43-.29v3.02c-.56.31-1.56.17-2.43.31Zm-.41-25.74v-2.58c.69.17,1.86.17,2.84.31v2.27c-.98.14-2.14,0-2.84,0Zm1.55-3.63c0-.78.15-2.88.15-2.88l1.29.31v2.72s-1,0-1.43-.15Zm-.14-16.81c-.56-.16-3.13-1.07-4.13-1.35.15-.77.15-1.68.29-2.28.71.17,3.98,1.21,4.13,1.36-.15.61-.15,1.84-.29,2.28Zm-1.97.75c0,.45-.29,2.28-.29,2.72-1.72-.29-3.14-.59-4.15-.74,0-1.21.16-2.28.16-3.18.7.15,3.84,1.05,4.28,1.2Zm-3.58-2.42c-.99-.29-4.27-1.06-5.12-1.2l.42-2.28c1.27,0,4.27.91,5.13,1.21-.14.74-.29,1.66-.43,2.27Zm-1.85.9c-.15,1.07-.15,2.28-.28,3.19-1.3-.16-5.42-.9-6.98-1.05,0-1.23,0-2.29.14-3.66,1.99.32,5.69,1.21,7.11,1.52Zm-4.28-2.27c-2.13-.43-3.84-.9-5.56-1.05l.3-2.43c1.28-.15,4.56.77,5.55,1.06-.15.76-.15,1.22-.29,2.42Zm-4.41.61v3.33c-1.43-.3-3.15-.61-4.13-.77.27-1.65.14-2.26.27-3.34,1.3.33,2.85.46,3.86.78Zm-4.85-.78c-.15.78-.29,2.29-.44,3.2-1.27-.16-3.97-.76-4.68.31-1.14,1.66-1.72,1.82-2.57-.31v-3.94c.57-.15,4.56.3,7.69.74Zm-4.56-1.5c-2.86-.6-6.12-.45-7.83-.6,0-.9,0-1.97-.15-2.88,1.58,0,5.56.16,7.98.45v3.03Zm-5.41,4.25c0-.91-1.85-.76-1.15-1.83-.7-.31-.57-1.81-.57-1.81h2.86v3.64h-1.14Zm.58.45v1.07c-.14.9-1.16-.16-1.72-.16v-.91h1.72Zm-6.13-.45h-1.14v-3.64h2.84s.14,1.5-.56,1.81c.7,1.07-1.15.92-1.15,1.83Zm1.15.45v.91c-.58,0-1.57,1.06-1.72.16v-1.07h1.72Zm-3.14-3.94c0,1.07.13,2.73.13,3.94-1.57,2.43-2.13-.6-3.28-.6-1.41-.16-2.85.31-3.98.6v-3.64c.7-.14,6.12-.6,7.13-.3Zm-10.13-.92v-2.56c1.15-.15,3.7-.6,5.84-.6.14,1.06.14,2.72.14,2.72-2.12,0-4.4.3-5.98.44Zm1.72,1.22v3.94c-1.43,0-3.69.45-5.41.9,0-1.36.14-2.56.14-3.79,1.02-.29,3.71-.89,5.27-1.05Zm-3.28-1.06c-1.42,0-4.98.76-5.7.92v-2.57c.71-.32,4.27-.92,5.7-.92v2.57Zm-3.41,2.28l-.15,3.8c-.28,0-4.85.75-5.55.75,0-1.05-.14-2.41,0-3.19,1.42-.44,3.42-1.05,5.7-1.35Zm-8.83.14v-2.41s3.83-1.19,5.11-1.37c0,.76.14,1.37.14,2.43-.41,0-3.41.77-5.25,1.36Zm1.85,1.52c0,.76.13,1.83,0,3.03-1.01.3-3.99.77-5,1.2v-3.17c1.73-.6,3.71-1.07,5-1.07Zm-2.86-1.19c-1.57.29-3.13.89-4.13,1.35,0-.75-.14-1.35-.14-2.43.87-.44,2.7-1.05,4.27-1.37v2.45Zm-3.13,2.56v3.02c-.43.15-1.27.47-2.15.62,0-.62,0-2.42-.12-3.04.12,0,1.13-.45,2.27-.6Zm-1.42,13.03v2.4l-1.29.16v-2.57h1.29Zm3.55,46.49c.99.29,8.41,1.35,9.69,1.66v6.21c-.58,0-8.41-1.36-9.69-1.83v-6.04Zm.71-.92c.86-.46,2.28-1.37,3-1.97,2.84.46,5.25.76,8.11,1.22-.43.6-1.42,1.51-1.85,2.11-3.42-.3-6.57-.76-9.27-1.36Zm10.68,1.67c.58-.75,1.29-1.66,1.87-2.27,2.83.29,6.12.44,8.96.91-.44.61-.86,1.36-1.28,2.11-3.14-.16-6.42-.62-9.55-.76Zm10.69,1.81l1.15-1.82v6.36l-1.15,1.2v-5.75Zm-1.42-28.32c.42-.59.71-1.5.85-1.95.57.45,1.72,1.5,2.57,2.12l-.71,1.05c-.28-.15-1.58-.74-2.7-1.21Zm4,33.17c2.26.31,7.96.46,11.52.15.29.31.72.91,1.14,1.22-1.86.45-11.97.6-13.82,0l1.15-1.37Zm12.24-.6v-5.46l.99.92.16,5.75-1.15-1.21Zm0-7.88c3.28,0,7.54-.6,10.39-.75l2.44,1.96c-1,.3-9.7.75-10.69.6l-2.14-1.82Zm2.27,3.19c2.7,0,8.99-.46,11.4-.77-.15,1.66.14,5.3.14,6.67-1.98.75-11.39,1.36-11.53.89-.14-2.57,0-4.83,0-6.8Zm9.4-4.4c2-.14,5.56-.75,7.55-.9.86.61,3.28,1.81,3.71,1.81-1.43.3-5.71.77-8.56,1.05-.42-.15-2.26-1.5-2.7-1.97Zm12.4,2.28c0,1.51.14,4.69.28,6.51-1.28.29-7.83,1.36-9.11,1.21l-.29-6.51c1.72-.31,7.69-.91,9.12-1.21Zm-3.3-3.79c1.15-.14,3.14-.46,4.44-.76.56.45,3.55,1.23,4.98,1.66,0,.31-4.41,1.22-5.26,1.22l-4.15-2.12Zm10.84,2.12c.3,1.82.14,3.94.42,5.91l-6.26,1.96c0-2.57-.14-4.25-.27-6.52.7,0,4.68-.91,6.11-1.36Zm-1.84-61.64c-9.85-3.92-18.38-5.59-33.91-6.49-3.29-.16-13.81-.44-23.8,1.51-7.27,1.51-12.11,3.32-14.66,4.54-.71-.14-1.71-.6-1.99-1.06,19.94-7.43,29.19-6.94,39.03-6.81,1.85,0,9.4.3,17.67,1.82,8.96,1.51,15.95,3.94,19.22,5.28-.15.32-1,.93-1.55,1.21Zm-33.91-9.66c-3.29-.15-13.82-.31-23.81,1.66-7.26,1.52-14.95,4.25-17.51,5.6-.57-.15-1.43-.91-1.43-1.52,19.81-7.42,31.49-7.57,41.32-7.57,1.85,0,9.4.31,17.67,1.83,8.96,1.66,18.67,4.84,21.92,6.2-.28.61-1.13,1.06-1.85,1.36-9.82-3.92-20.79-6.66-36.31-7.56Zm-.44-3.18c-14.38-.45-29.2,1.8-42.31,7.74v-5.93c.86-.59,2.15-1.06,3.84-1.35v2.26c1.58-.59,3.85-1.21,5.14-1.82v-1.82l4.84-1.51c.14.16.14.91.14,1.98,2.57-.76,4.98-1.38,7.27-1.82v-1.98l6.26-1.03.15,2.26c2.99-.3,6.11-.46,9.11-.3l.13-2.28h7.86v2.28c1.26,0,8.39.59,9.83.9l.28-2.43,5.39.76v2.43c.87.15,5,1.22,6.43,1.66l.13-2.11,5.41,1.51-.28,1.96c1.7.31,4.43,1.36,5.98,2.13l.14-2.42,3.43,1.5-.14,5.91c-12.11-5.45-25.79-8.03-39.04-8.48Zm-36.19-30.44c.45-.15,1.29-.28,1.86-.28v.74c.71,0,1.86-.15,2.7-.15v-.9h2.14v.9c.87,0,1.43,0,2.28.15l.15-1.05c.71.16,1.13.16,1.57.32l-.15.89c.56.15,1.27.31,1.71.45l.14-1.06,1.14.61-.58,2.73c-3.69-2.27-12.65-2.27-15.93.3l-.29-2.72,1.56-.46.28,1.06c.44-.31,1.15-.46,1.57-.6l-.15-.92Zm19.37-39.21l-.27.31-9.97-4.53.55-1.06,9.68,5.29Zm-7.54-7.27l.58-.9,8.13,6.21-.15.14-8.55-5.45Zm6.84,9.25l-.13.15-12.25-1.82.99-1.51,11.4,3.18Zm-.13,2.43l-.15.31-14.39-1.23v-1.19l14.54,2.11Zm.13,2.42l-.13.46-16.39,1.04v-1.2l16.52-.3Zm0,2.86l.16.47-21.37,4.85v-2.12h.13l21.08-3.2Zm-.13,2.14l.29.6-26.36,11.66-1.86-2.27,27.93-9.99Zm1.56,2.26l.43.77-25.65,15.75-.71-2.72,25.93-13.79Zm-16.54,22.73c1.71-2.27,14.4-13.93,18.25-18.02l-.15.9c-3.98,4.55-10.42,12.12-14.54,17.12h-3.56Zm10.84,11.49c1.85,2.58,3.83,3.49,5.84,4.24,1.28-1.37,2.7-7.43,3.84-13.6.99-6.36,1.71-13.18,1.71-16.06l.57-.15c0,3.93-.73,9.38-1.42,14.83-.86,5.15-1.86,10.9-3.87,15.59-.11.15-.26.46-.54.9,0-.31-6.7-3.79-6.7-5.44l.57-.32Zm-.43-2.12c.28-.59,1.56-4.24,1.99-4.84l-.29,1.67c-.28.59-.99,3.31-.99,3.31l-.71-.15Zm10.54-21.05c-.15,1.53-2.71,17.73-3.44,18.18-1.41,0-2.54-.76-3.54-1.36-.59-.46,5.98-16.04,6.98-16.82Zm-4.14,30.29c.58.32,1-.3,1.28-.76,1.7-4.22,2.71-9.39,3.56-14.38,1.14-6.95,1.71-13.93,2.41-19.53l.44.62c-.15,5.9-1.14,14.83-2.71,23.02-.85,4.08-2.01,8.16-2.99,11.35,0,2.12-3.13.76-1.56,2.42,1.28.61,1.28-1.06,2.27-1.06v.76c-.71,0-.42.59-.71.91v.75c-.56,0-.71,1.97,0,1.97-.28,1.35.71,1.35,1.28,1.96,0,1.36,1.85,0,1.85,1.06,0,.45,1.14.3.58.9-1.43-.13-2.84,0-3.71.16v-2.43l-8.39,1.37v1.97l-1.29.33v-16.68c2.42,2.12,6.13,4.54,7.69,5.29Zm8.13-25.73h.15c.19-2.11.33-3.96.43-5.32l-.03.02.04-.16c.01-.17.02-.34.03-.49l-.36-.27h.37c.03-.44.05-.79.06-1.04,0,.76,2.71.76,2.42,1.66-.12.15-.2.97-.25,2.24l.12.03-.13.09c-.07,1.66-.09,4.05-.08,6.73h.2l-.2.16c0,2.11.04,4.4.08,6.65h.12l-.12.13c.08,4.71.22,9.22.33,11.55h.36l-.34.27c.02.38.04.69.05.92,0,0-.02,0-.05,0l.05.17-.28-.18c-.19-.01-.47-.03-.81-.05l-.34.22.04-.24c-1.88-.13-5.02-.4-5.02-.82.62-1.22,1.24-4.53,1.79-8.54l-.22-.24h.26c.29-2.14.57-4.47.82-6.77l-.37-.19.4-.08c.23-2.18.44-4.33.61-6.27l-.14-.15Zm1.7-9.85v-.31c.29,0,.56-.3.99-.3v1.21h-.99v-.61Zm-.29-4.68l-.42.44h-.28c0-.76,0-1.37.7-1.37l.29-.29.29.29c-.58,0,0,.93-.58.93Zm-.42-2.58h-.28v-.31h-.28v-.45l.99-.3h.58c.27.75-.58.75-1,1.06Zm6.12-1.97h.57l.29.61c0,.3-.29,1.05.27.59,0,.45-.56.77-.56,1.06-.28.6-.28,1.68-1.27,1.36l-.58.61c.3.76,1.28.31,1.85.31,0,.75,0,1.66.56,2.11,0,1.22-3.27,1.52-3.27-.59l.86-.15c0-.61-1.28-.61-.71-1.67-.29,0,.29-.61-.29-.91,0-.45.29-1.06-.28-1.06v-2.72h.57v.31h.29c-.29.76.42,1.06.42,1.8h-.42c0,.92.14,1.35.85,1.35.43,0,.85-.43.85-1.35h-.7c0-.75.7-1.37,0-1.8.28-.62-.28-.62-.28-.93-.72,0-1.29-.44-1.58-.76,0-.59-.14-1.35.15-1.8h2.84c.43.61.43,2.87.15,3.34-.57-.32-1.13.15-.57.3Zm1.43-2.43h.43c.43,0,1.14,5.75,1.56,6.66h.85v.31h-.28v.45h-.29l-.28.91c-.42,0-.42.3-.42.3v.45l-.58.3c0-.3-.56-.3-.56-.75-.3-3.93.43-2.87-.43-8.63Zm1.53,10.58l-.26-.13h.3l.12-.27c.14-.33.29-.65.45-.95.3.1.61.3,1.08.57l.05-.11.08.19c.07.04.14.08.21.12h.13l-.05.05c.06.03.12.06.18.1-1.99,3.48-1.57,5.75-2.98,8.93-.86-.75-1.57,1.07-2.14-.14,1.1-1.71,1.68-5.49,2.81-8.36Zm2.31,4.11c.57,0,.29.58.57.58,0,.32.57,0,.28.62,0-.62-.56-.3-.85-.3-.43-.6.29-.32,0-.91Zm.29-10.91c.56-.6,2.27.45,2.55,1.22.3.43.3,1.51-.12,2.72,0,.31-.29.61-.86.91-.29-.3-.29.75-.71.45h-.3l-.56-1.05h-.29v-1.65l.57-.33c.57,0,.28-.75.57-.75.14-.15-.73-.9-.86-1.51Zm12.82,35.88c-.71-.15-.71-1.2,0-1.96-.71,0-.99-1.04-.86-1.66-.14-2.27-3.41-9.23-3.55-9.54l.42-.15s3.98,9.23,4.55,10c.43,2.7,2.71,1.51,2.71,1.79v3.93c-.57.46-1.14.61-2.71-.75.86-1.22.86-1.53-.56-1.67Zm-8.27-27.53l.44.15c0,.14,12.39,15.44,12.39,16.8-.72.16-1.13.77-2,.91-1.85-4.09-11.39-17.86-10.83-17.86Zm.14,34.51c1.42.15,7.55-4.09,8.12-4.99l.28.76c-1.55,1.8-5.54,4.53-9.11,6.06-.14-1.83-.57-8.95-1.28-15.76-.56-4.24-1.29-8.18-1.14-9.07,1.14,3.18,2,9.68,2.7,14.99.28,3.47.43,6.66.43,8.02Zm-3.42-26.95h-.42v.6l-.57-.3c-.29,0,.57.9-.15.75,1.28,5.15,2.57,18.17,3.29,28.93,1.71,0,9.12-5.01,10.4-6.36.3-.45.71.15.43.6-.56.74-1.29,1.2-.71,1.51.28.14.85-.31.85-.92,1.29.76,1.56-1.2,1.71.15v14.55c-.15,0-1.27-.3-1.98-.46l.13-2.26-7.69-1.22-.29,2.72c-.7-.16-2.56-.45-3.27-.45.71-.16,1.42-.31,1.42-1.67,1.15,0,.14-1.21.86-.91.85.47,2.7-2.26,1.56-3.93.28-.6-.15-1.22-.86-1.35l-.7.3c0,.61,1.28-.17.7.91,1,.45.86,3.17-.29,2.87-.41-.16-.99-.46-.69.16-.72-.47-1.29,1.51-1.29,1.65q-.28.3-.28.76-.57.29-1.28.29l-.57.33c0-.62-.29-.33-.71-.33l-.3-.29h-.28v.29h-.57c0-1.66,1.86-1.35,1.86-2.7h.28c.29-.62-.28-.91.29-1.22h-.57c0,.31-.29.61-.71.61v.62l-.86.74c-.71,0-1.86.3-2.14-.45l.28-.29v-.62h.29c-.29-.61.85-1.37,0-1.96-1.56-.15-1.42,2.26-2.86.44,0-1.36,1.88-1.36,2.72-1.36.29-.3.71-1.21,1.42-.75,0,.3-.43.91,0,.91.85-.32.85.75,1.56.44,0,.6.57,0,.86.6l.71.3.28-.59-.28-.31v.31c-.42,0-.42-.75-.42-.75l-.29-.91c0-9.23-1.14-19.23-2.56-28.31l-.57-1.21c0-.76-.29-1.21-.29-2.12.57,0,.29-.77.29-1.09.71.32.28-.29.28-.29h1v.6c-.29,0-.57-.32-1,0,0,1.06,1.28.77,1,1.68.28.45.57,0,.57,0,0,0,0-.31.42-.31,0-.91.29-1.37.29-1.98,0,.29.28.6.28,1.07-.57.3-.28,1.21-.57,1.96Zm25.64,19.68c.14-.6.14-1.37.28-1.66.3.16,1,.16,1.43.3,0,.62.14,1.06,0,1.66-.3-.15-1-.15-1.72-.3Zm1.72,1.22v1.67c-.43,0,0,.15-.86,0l.15-1.82.71.15Zm-1.13-.15c0,.15-.16,1.21-.16,1.82-.71-.31-1.42-.17-2.13-.45.14-.76.14-1.22.28-1.83.43.15,1.56.31,2.01.46Zm-11.12,16.5l1.27.15v1.36h-1.27c0-.62.14-.78,0-1.51Zm.99-13.02v1.81h-.72l-.13-1.67.85-.14Zm-.72-3.8c.43-.15,1-.31,1.57-.31,0,.31,0,1.06.13,1.84-.7,0-.98,0-1.54.29,0-.6-.16-1.36-.16-1.82Zm0,9.24v-2.13l1.87-.15v2.13c-.44,0-1.15,0-1.87.15Zm.87,1.22v2.11c-.43-.15,0,0-.87-.15v-2.12l.87.16Zm-.86,5.61c-.13-.47-.13-1.08-.13-1.99h2.27l.15,1.99c-.43,0-1.43.13-2.29,0Zm1.42-3.65v-2.12l2.27.16.16,2.11c-.58-.15-1.56-.15-2.44-.15Zm3.86-3.18c-.56-.15-1.7,0-2.85-.15v-2.13l2.71.15.14,2.12Zm-2-10.59c-.14-.46,0-1.06,0-1.52.71-.16,1.72-.16,2.58,0l-.16,1.52c-.71,0-1.72-.15-2.43,0Zm5.15,5.29c.56,0,1.41-.15,2.11,0l.15,1.98c-.43-.17-1.12-.17-2.26-.17v-1.82Zm-1.3-5.15c0-.45,0-.91.14-1.66.72,0,1.43.16,2.3.31,0,.74,0,.89-.16,1.66l-2.27-.31Zm1.71,8.64l.16,2.25c-.56-.14-1.58-.29-2.72-.44v-2.12l2.56.31Zm1.29,3.47v2.12c-.56-.15-1.43-.15-2.56-.3v-2.13l2.56.31Zm-3.41-.31v2.13c-.44,0-1.15,0-2.15-.16v-2.11l2.15.14Zm-4.29,6.38l1.99.13v1.39c-.43-.17-1.15.13-1.99-.17,0-.62.15-.78,0-1.36Zm.85-.9l-.14-2.14,2.57.16.16,2.12c-.44,0-2-.13-2.58-.13Zm2.58,1.34l2.4.29-.13,1.38c-.57,0-1.57-.3-2.27-.3-.16-.76,0-.76,0-1.37Zm1.27-1.34c-.14-.77-.14-1.37,0-1.84l2.43-.15v1.99h-2.43Zm2.43,1.64l2.26.46-.15,1.36c-.42-.15-1.55-.15-2.12-.28v-1.54Zm.84-1.51c-.14-2.4-.14-1.06-.14-1.97l1.57.3.15,1.83c-.43-.16-1.29-.16-1.58-.16Zm.45-3.17v-2.12h.98v2.27c-.43-.15-.15-.15-.98-.15Zm-1.01-3.48v-2.12l2.13.16v2.26c-.43-.17-1.29-.3-2.13-.3Zm-.44-13.63c-.85-.15-1.71-.45-2.57-.45l.16-.91c.7,0,2.27.3,2.69.45l-.28.91Zm-1.71,3.77v1.99c-.7-.16-1.42,0-2.13-.16,0-.91-.15-1.37-.15-1.98.57,0,1.85.15,2.27.15Zm-1.99-4.23c-.42-.16-2.28,0-2.85.16.15-.45,0-.76-.13-1.06.86-.15,1.85-.15,3.14,0l-.16.91Zm-1.28,4.08c-.15.31,0,1.21,0,1.83h-1.99v-1.83h1.99Zm-.28,3.94v2.12c-1.01-.16-2-.16-2.85,0v-1.97c1.14-.3,1.56-.15,2.85-.15Zm-2.15-4.84c-.42,0-1.12.29-1.71.45v-1.52c.44-.14,1.01-.29,1.71-.29-.12.29,0,.74,0,1.36Zm-2.26-2.11l-.29-.92c.15-.31,1.71-.76,2.13-.76l.3.9c-.44.16-1.71.47-2.14.77Zm-22.23,18.3c-.7,0-1-.3-1.42-.75-.43-.91.42-1.21.42-1.21.72,0,.86-.16.86-1.07h.42c.29.46.43.61-.42,1.51,1.14.47.84.91.14,1.51Zm-.14-4.53c-1.42,1.36-2.85.29-2.85-.75.71.45,1.57,1.04,2.85,0,.56.3,1.28.45,2.13-.76.86.15,1.29-.32,1.29-.91h.69c0,.76-.69,1.97-1.7,1.52-.14,1.06-2.14,1.5-2.42.9Zm-10.26.6v-.44c-.71.75-.71,1.35-.29,2.41.42,1.36,3.56,2.87,4.7.44.99.47,2-.44,2.42.16v.61c-.57,0-1.28-.29-1.28.45,0,.46-.43,1.07-1.14.61-.71-.31-.29,1.36-.85,1.36s-.71-1.19-1.15-.75c-.57.75-1.28.45-1.42-.75-.15-.76-2,1.21-2.58-1.82-.69,0-.84-1.52-.27-1.82,1.14-.77,2.14-2.26,1.86-2.57-.57-1.07,1.99-1.67,2.56-.32.29.62,1.01-.44,1.56.16l-.42.91c-2,0-.7,1.51.14.75.86-.62.86.91,1.99.16,1.01-.91.28.9,2.29,1.04,1.42.47.15,1.67-.71,1.06,0-1.06-3.7-1.06-3.7.61-1.28-.61-.85,1.21-2.56-.3-1.29-.31-.58-1.66-.58-2.41l-.56.44Zm7.83-6.51l.57-.16.14-.44.15.44.57.16-.42.31.14.44-.43-.3-.42.3.15-.44-.43-.31Zm3.7-21.8l.71-.3c0,1.83.58,22.11.43,23.94-.72-.92-.99,2.11-1.58-.31.09-1.24.16-2.44.22-3.64l-.22-.15-.28.3v-.61l-.29-.29h.43l.14-.46.26.39c.07-1.62.12-3.22.15-4.8l-.4-.29-.42.31.15-.6-.42-.32h.56l.14-.6.15.6h.27c.07-4.33.02-8.6.02-13.17Zm-.29,2.43l-.42-.31-.42.31.14-.45-.42-.3h.56l.15-.63.14.63h.57l-.43.3.15.45Zm-1.27-8.48l.28-1.05c.42.29.42-.33.71-.33v1.38h-.99Zm.56,14.68l.14-.45.29.45h.44l-.44.45.14.45-.42-.28-.42.28.14-.45-.43-.45h.56Zm2.43-6.05c.17.11.33.18.49.22l.08-.22.09.26c.67.12,1.22-.26,1.76-.72.1.87.19,1.68.27,2.43h.16l-.15.16c.15,1.46.26,2.71.34,3.77h.08l-.08.08c.15,2,.21,3.38.25,4.46h.26l-.25.18c.04,1.1.07,1.88.19,2.71h.34l-.3.21c.1.6.24,1.24.47,2.05-.43.58-.78.65-1.07.49l.06.28-.43-.31-.43.31.15-.6-.42-.31h.48c-.43-.64-.76-1.32-1.2-.14-.12-1-.21-1.9-.27-2.72h0s0,0,0,0c-.02-.26-.04-.51-.05-.75l-.24-.18h.23c-.07-1.21-.09-2.22-.08-3.11l-.3-.21h.3c.02-1.41.1-2.49.09-3.55l-.09.07.09-.39c0-.09,0-.17,0-.26l-.38-.25h.37c-.05-.83-.17-1.7-.43-2.74l-.21.14.14-.44s0-.01,0-.02l-.41-.28.3-.09c-.05-.17-.1-.34-.16-.52Zm3.55-11.35v-.6c.28,0,0-.31.57-.31l.71.31c0,.6-1,.29-1.28.6Zm-4.72-.6h-.27l.27-.78v.78Zm-3.69,1.94c-.29,3.63.01,7.96.1,11.98h.18l.14-.45.15.45h.57l-.42.45.14.45-.43-.31-.31.22c.02,1.57,0,3.08-.11,4.47-.29-.46-.57-1.37-.86-1.8l.14-7.89c0-1.06.29-7.11,0-7.58h.71Zm-.72-5.9h-.28v-1.05c.71,0,.28.75.28,1.05Zm-.28,23.93l.28-.3c.02.19.03.4.04.6h.39l.15-.45.14.45h.56l-.42.3.14.61-.42-.31-.43.31.14-.61-.24-.17c.1,1.56.16,3.42.21,5.31h.46l.15-.6.14.6h.57l-.43.31.14.44-.42-.29-.43.29.15-.44-.32-.23c.06,2.5.1,5.04.17,7.04,0,.9-7.41.45-8.13-.62l.29-.14c1.56.45,5.83.92,7.27.45.14-1.52,0-11.5-.14-12.57Zm-32.76,27.87c.42-.15,1.72-.62,2.14-.62.13.32.13.77.13,1.22-.7.15-1.57.44-2.27.77v-1.37Zm0-3.95l2.14-.28v2.11c-.43,0-1.58.45-1.99.45,0-.59-.15-1.51-.15-2.27Zm1.01-1.5c-.16-.46-.16-1.22-.16-2.12l2.14-.16.14,2.12c-.43,0-1.28.16-2.12.16Zm9.81-12.57v1.82c-.43,0-1.41-.15-2.42-.15v-1.67h2.42Zm-.86-4.85c0-.6.15-1.37.3-1.82.56.17,1.68.44,2.26.76-.28.76-.28,1.21-.41,1.66-.3-.15-1.29-.45-2.15-.6Zm2.42,11.21l-.14,2.11c-.43,0-1.7-.15-2.28-.15l-.13-1.96h2.55Zm-4.12-1.21v-2.12l1.85.17v2.11c-.43,0-1,0-1.85-.16Zm1.28-6.97c-.86-.14-1.58,0-2.28-.14.14-.91,0-1.38.14-1.97.42,0,1.72,0,2.28.15,0,.15-.14,1.37-.14,1.97Zm-.29-6.35c-.85-.15-1.71-.31-2.57-.15v-.92c.86-.15,2.28.16,2.72.29l-.15.77Zm-.28,1.37c0,.74,0,.89-.14,1.65h-2.43c0-.3,0-1.07.15-1.8.71,0,1.41,0,2.41.15Zm-1.99,9.83v2.12h-2.14l-.14-2.12h2.28Zm-3.15-4.85c.15-.9,0-1.52,0-1.97.43-.15,1.72-.15,2.14-.31,0,.31.15,1.52.15,2.13-.86,0-1.42.14-2.29.14Zm1.31-3.63c-.71.16-1.73.16-2.43.3,0-.43-.15-1.2-.29-1.51.71-.13,1.84-.45,2.72-.29v1.5Zm-4.87,7.72v-2.27c1.15-.16,1.72-.16,3-.29v2.11c-.85,0-2.12.15-3,.45Zm3,.76v2.12c-.43,0-.85.16-1.71.16l-.15-2.11,1.86-.17Zm-1.13-11.2l-.29-.9c.86-.16,1.71-.31,2.99-.31l.15,1.07c-.57-.16-2.28.15-2.85.15Zm.28,4.38c0,.15.14,1.37.28,1.97-.86,0-1.85.47-2.56.47,0-.93,0-1.37-.15-1.99.56-.15,1.85-.44,2.42-.44Zm-2.27-.46c-.15-.45-.3-1.04-.43-1.35.43-.31.85-.47,1.56-.76.14.29.28.76.57,1.35-.43.16-1.28.47-1.7.76Zm.42,7.73v2.12c-.42,0-.14.16-1,0v-2.12h1Zm-.57,3.34l1.99-.17.15,2.12c-.58,0-1.14.17-2.14.17v-2.12Zm3.13,1.81v-2.11h2.13v2.11h-2.13Zm.28,4.84l1.85-.29.15,1.97c-.57,0-.99.16-2,.33v-2Zm1.14-1.19v-2.12l2.14-.15v1.97c-.43.15-1.55.15-2.14.31Zm2-3.94v-2.12l2.28.16.14,2.11c-.56-.15-1.28,0-2.41-.15Zm1.56,3.47c-.15-.75-.15-1.36-.15-1.8l2.15-.15v1.83c-.43,0-1,.13-2,.13Zm.72,1.08l-.15,1.64c-.42.16-1.29.16-1.85.31-.15-.76-.15-1.21-.15-1.79l2.14-.16Zm3.4-.16l-.13,1.8c-.44,0-1.29-.14-2,0,0-.58,0-1.35-.15-1.8h2.28Zm-1.13-1.04v-1.98l1.41.16v1.65l-1.41.17Zm.42-6.07v-2.12h.85l.14,2.12c-.41-.16-.14,0-.99,0Zm0-3.78v-1.81l.99.16v1.66h-.99Zm-.42-3.48c.14-.91,0-1.37.14-1.83.41,0,.99.15,1.42.15v1.99c-.74-.31-.87-.16-1.56-.31Zm-.43-6.21l.14-.76c.99,0,1.42.31,2.28.6l-.28.91c-.58-.3-2-.76-2.14-.76Zm-10.12-.91l.44,1.05c-.58.16-1.58.61-2.01.93l-.57-.93,2.14-1.05Zm-1,19.38l.7-.16.15,2.12-.86.15v-2.11Zm71.08-7.71c-.43,0-.29.14-1.27,0l.14-1.83,1.13.15v1.68Zm-1.42-9.68l.16-.77c.98.15,1.27.15,2.27.62l-.42.89c-.72-.43-1.85-.73-2.01-.73Zm-1.99-6.06c-.43-.45-17.95-17.27-19.1-19.99,1.72,1.2,15.24,13.78,20.52,18.93-.44.29-.87.9-1.43,1.06ZM166.45,8.15h41.45c.29,1.97-1.15,1.67-2.27,2.13-.87.6-1.42-.31-2.42-.31.71,6.66-2.85,3.46-3.42,4.69-.15,5.75-2.28,6.67-6.26,6.06-.43,0-3-1.53-2.86-1.67,0,.45-.7,1.67-1.28,1.67,1.87,3.93-5.84,10.13-7.7,8.93v.89c.3,2.45,9.84-2.26,8.98-9.22.7.31,2,.9,3.43.75,0,7.27-4.57,8.78-7.13,10.15,3.56,4.82-4,9.38-8.13,9.68l-.27.59c2.56.78,5.69,4.56,6.55,8.8.85,4.37-.28,6.21-1.57,8.02-1.27,1.65-4.97,3.18-8.84,3.18-2.27,0-4.98-1.97-4.98-2.26-.72,1.35-1.28,1.66-3.27,1.95V8.15Zm119.65,170.49c0,2.57-1.72,4.68-3.99,4.68h-46.29c-2.56,0-7.4,2.42-8.97,5.91-2-3.49-5.84-5.91-8.42-5.91h-47.85c-2.28,0-4.28-2.26-4.28-4.68v-114.32c1.01-.29,3.15-1.06,3.42-2.41,1.14,1.05,4.42,2.72,7.97,1.96.86-.15,6.84-.75,8.55-6.82,7.4,0,22.66-15.9,26.07-18.02l-.58.77c-3.7,4.22-21.08,19.39-23.36,19.39l.14.9-1.56.46.56,5.45,1-.45c.72.9,1.57,1.83,1.57,3.03v21.65c-2.27.46-4.13,1.38-5.99,2.57v8.63c0,1.53,5.41,4.1,5.99,4.39l-.14,52.09c-4.42,1.82-6.28,3.64-6.55,5.77v6.66c7.26,4.99,25.52,8.16,43.16,8.48,16.23.3,32.76-1.83,41.73-7.57l-.12-8.02c.12-1.52-3.58-4.85-5.43-5.16v-52.24c.99-.45,5.55-3.03,5.55-4.39v-8.32l-5.97-2.42v-22.72l1.41-2.42.44.3,1.41-3.65c.87.93,2.59,0,2.43-1.49,0-1.52-2.14-.16-2-2.12-1-2.58-22.51-18.03-24.21-18.63v-.63l24.21,16.21c3.85,8.34,12.39,6.2,12.96,5.75.43,2.27,1.3,5.59,7.12,5.59v111.76Zm0-112.8c-2.84.16-6.7-3.33-6.55-6.65-8.41,3.63-11.54-2.88-12.25-4.4-.73-2.72-.29-8.02,1.71-7.57,0-.6,1.14-.32,1.42,0-1.71,3.03.14,10.31,3.84,10.31,0,2.11,5.84,1.21,5.84.44.42,0,1.29-.44,1.29.3.7,1.82,3.56,3.33,4.69,3.02v4.54Zm0-6.51c-1,1.06-3.83-1.06-3.83-2.57,0-.46-2.15-.63-2.43-.63-1.15,1.98-4.85,2.13-5.13.63-1.56.59-5.14-5.75-3-9.55-.29-.6,1-1.36,0-1.98-.99,1.08-4.56.47-5.99-.58-2.69-2.28-3.68-6.36-3.68-8.04.28-1.05.41-3.93,1.84-3.93v-1.06c-2.57,0-3.99-5-3.99-7.26l.58-.77c.14.47,1.71,1.82,2.27,1.67,1.14-.6-.14,1.23,1.56,2.59,1.28,1.05,4.42,1.36,5.57-.16.54.86,2.77,2.26,5.57.83-.42-.09-1.13-.41-2.15-.67-1.72-.62-2.85-1.51-3.13-2.29-.28,0-.86,0-.86.46-1.01,1.83-4.28,1.51-4.71-.76.58,0,.15-.9-.42-.9-1.43,0-2.71-1.82-2.86-1.82-.42,0-.42-1.96-.42-2.27-3.42,0-4.99-4.68-4.99-7.57l.29-.75c-.86-1.51-2.86-.45-3.84-.89,0-.47-2.85-2.89-1.72-2.89h35.47v51.17Z"/><path class="cls-1" d="m177.27,27.22c2.71-.15,5.69-.45,5.69-4.54,2,0,3.86-.45,4.14-3.03-2.85,1.67-3.84,1.37-5.12.91-.43,3.18-1.87,4.99-5.72,4.99,0,4.99-1.56,7.11-3.69,8.03,4.55.76,4.7-3.64,4.7-6.36Z"/><path class="cls-1" d="m278.85,44.79c1.98,0,1.98-1.82.83-1.36-2.98.59-5.4-.15-5.4-2.72-2.57-.76-4.84-.91-4.99-4.71-1.42,1.22-4.99-.75-5.13-1.65,0-.62-.57.6-.29,1.36.42,1.06,3.43,2.58,4.41,1.82,0,1.67,2.43,4.39,5.28,3.93-.43,2.57,1.7,3.49,5.27,3.34Z"/><path class="cls-1" d="m178.13,38.89c-1.14-.76-1.14.62-.58,1.06,2.15,1.5,4.72-4.7,4.72-6.66h-.87c-.28,2.1-1.99,6.5-3.27,5.6Z"/><path class="cls-1" d="m275,36.16c-.57.17-.86.17-1.02.17-.83.14-1.7,3-.13,3.32,2.28.46,6.42-.45,6.69-1.66v-.31c-.27,0-3.12,1.97-5.83,1.21-.86-.31-1-1.67.28-2.73Z"/><path class="cls-1" d="m269.87,43.58c-1.01.31-4.14-1.22-4.56-3.48-.14-1.21-.72-.15-.29,1.05.86,2.14,2.58,3.34,4.55,3.34,1.15,0,1.01-1.2.3-.91Z"/><path class="cls-1" d="m281.41,50.69c-1.43-.59-6.55-.59-6.55-3.48,0-.76-.72-.9-.87-.32-1.55,5.02,5.15,4.71,6.44,4.71.83-.15,1.85-.59.99-.91Z"/><path class="cls-1" d="m176.99,45.84c-.43-.29-.72-.29-1.01-.29-.7,2.72-1.71,3.93-3.69,3.79v.89c3.57.45,5.12-3.79,4.7-4.39Z"/><path class="cls-1" d="m175,58.87c-1.28-.46-.43,1.06,1.14,1.21,1.56.16,3.28-.15,4.27-3.32,1.58.29,3.7-4.24,3.56-7.12l-.56-.91c-.29,1.38-.44,6.96-3.85,6.81.29,2.27-1.71,4.26-4.55,3.34Z"/><path class="cls-1" d="m172.29,56.58c3.29.17,6.69-.29,7.55-5.58.15-1.07-1.15-.62-1.01,0,.43,3.01-3.55,5.44-6.25,4.37-.57-.29-1,1.07-.29,1.21Z"/><path class="cls-1" d="m222.39,28.65c-.07.14-.17.25-.39.25,0,.76.29,1.05.56,1.36,0,.76.43.76.73,1.05l.28.31h.29v-.31c.71,0,0-1.05.71-1.05-.43,0-.43-.6-.71-.6-.56,0-.29-.76-.29-1.06-.57,0,0-.31-.28-.61h-.3s-.01,0-.02.01c-.07.26-.3.47-.58.65Z"/><path class="cls-1" d="m222.39,28.65c.28-.18.51-.39.58-.65-.39.17-.47.45-.58.65Z"/><polygon class="cls-1" points="231.97 30.25 231.97 29.95 231.68 30.25 231.97 30.25"/><path class="cls-1" d="m218.29,31.01v.61c.58,0,1.13.31,1.43-.31l-.57-.3h-.86Z"/><path class="cls-1" d="m245.51,76.13c.55,0,.84-.31.55-.91-.55,0-1.13.3-.85.91h.3Z"/><path class="cls-1" d="m243.38,77.18h-.44l-.56,1.07c.29,0,1.01-.3,1.01-1.07Z"/><path class="cls-1" d="m218.58,79.62h.29c.28-.45-.29-.76-.29-.76,0,.31-.7.31-.29.76h.29Z"/><path class="cls-1" d="m237.67,80.53l-.28-.61-.43.29v1.07h.43c0-.75.28-.75.28-.75Z"/><path class="cls-1" d="m229.01,20.26c-.31.79-.84,1.56-1.61,2.9l.57.29c.42-1.13,1.01-2.26,1.28-2.89l-.14-.3h-.11Z"/><path class="cls-1" d="m229.01,20.26c.04-.1.08-.21.11-.31l.29.16c0,.08-.06.23-.15.45l.3.62.14-.92.86-.15-.71-.45.27-.91-.7.6-.87-.45.43.77-.71.6h.75Z"/><path class="cls-1" d="m229.12,19.94c-.03.11-.07.21-.11.31h.11l.14.3c.09-.21.15-.37.15-.45l-.29-.16Z"/><path class="cls-1" d="m221.06,22.35c.37.56,1.16,1.55,1.78,2.46l.45-.46c-.87-1.04-1.63-1.64-2.09-2.28h-.05s-.09.28-.09.28Z"/><path class="cls-1" d="m220.57,22.08l.29.91.2-.64c-.13-.2-.2-.34-.2-.42l.15-.17c.06.1.12.2.19.3l.8-.13-.71-.46.14-.91-.7.61-.86-.45.43.75-.58.76.84-.15Z"/><path class="cls-1" d="m220.85,21.94c0,.08.08.22.2.42l.09-.28h.05c-.07-.11-.14-.21-.19-.31l-.15.17Z"/><path class="cls-1" d="m223.28,20.71c.27.66.85,1.85,1.28,2.87l.57-.29c-.75-1.36-1.29-2.09-1.6-2.88h-.11l-.14.3Z"/><path class="cls-1" d="m222.84,20.41l.15.91.29-.61c-.09-.22-.14-.38-.14-.46l.28-.15c.03.1.07.21.11.31h.75l-.71-.6.43-.76-.86.45-.71-.61.29.92-.71.45.84.16Z"/><path class="cls-1" d="m223.14,20.26c0,.08.05.24.14.46l.14-.3h.11c-.04-.1-.08-.2-.11-.31l-.28.15Z"/><path class="cls-1" d="m219.39,24.61c.41.44,1.24,1.31,1.9,2.01l.29-.44c-.92-.84-1.59-1.28-2.14-1.82h-.02s-.04.26-.04.26Z"/><path class="cls-1" d="m218.88,24.51l.42.75.1-.64c-.12-.13-.21-.22-.24-.26l.14-.16c.05.05.1.1.15.15l.7-.15-.71-.31v-.9l-.55.59-.72-.14.43.62-.43.75.72-.3Z"/><path class="cls-1" d="m219.15,24.35s.12.13.24.26l.04-.26h.02c-.05-.05-.1-.1-.15-.16l-.14.16Z"/><path class="cls-1" d="m218.18,26.88c.38.21,1.27.59,1.97.96l.16-.31c-.88-.39-1.54-.56-2.08-.8l-.07.04.02.11Z"/><path class="cls-1" d="m217.29,27.39l.58-.31.42.45-.12-.65c-.08-.05-.15-.09-.17-.11v-.15c.07.04.14.07.22.11l.36-.24h-.58l-.13-.63-.29.63h-.56l.56.28-.29.63Z"/><path class="cls-1" d="m218,26.77s.09.07.17.11l-.02-.11.07-.04c-.07-.03-.15-.07-.22-.11v.15Z"/><path class="cls-1" d="m231.17,22.06c-.53.64-1.19,1.25-2.05,2.29l.44.46c.66-.94,1.39-1.96,1.76-2.52l-.07-.22h-.09Z"/><path class="cls-1" d="m230.42,21.94l.75.13c.08-.1.16-.19.23-.29l.15.17c-.03.07-.11.19-.22.36l.22.7.28-.91.86.15-.56-.76.28-.75-.72.45-.69-.61.12.91-.69.46Z"/><path class="cls-1" d="m231.4,21.77c-.08.1-.15.2-.23.29h.09s.07.23.07.23c.11-.16.19-.29.22-.36l-.15-.17Z"/><path class="cls-1" d="m231.17,25.86c-.11.1-.22.2-.34.31l.28.44c.09-.1.19-.2.29-.3,0-.16,0-.31,0-.46-.06,0-.14,0-.23,0Z"/><path class="cls-1" d="m232.97,24.35h-.02c-.47.47-1.04.86-1.78,1.51.09,0,.17,0,.23,0,0,.14,0,.3,0,.46.6-.63,1.26-1.33,1.61-1.7l-.04-.26Z"/><path class="cls-1" d="m233.25,24.35s-.12.13-.25.26l.1.64.43-.75.71.3-.42-.75.42-.62-.85.14-.43-.59v.9l-.71.31.7.15c.05-.05.1-.1.15-.15l.15.16Z"/><path class="cls-1" d="m233.01,24.61c.12-.13.21-.22.25-.26l-.15-.16c-.05.05-.1.1-.15.15h.02s.04.26.04.26Z"/><path class="cls-1" d="m234.18,26.72c-.53.25-1.19.41-2.06.81l.14.31c.71-.37,1.61-.76,1.98-.97l.02-.11-.07-.05Z"/><path class="cls-1" d="m234.18,26.72c.07-.03.14-.07.21-.11v.15s-.08.07-.16.11l-.12.65.42-.45.43.31-.15-.63.58-.28h-.71l-.15-.63-.15.63h-.56l.35.23Z"/><path class="cls-1" d="m234.39,26.61c-.07.04-.14.07-.21.11l.07.05-.02.11c.07-.04.13-.08.16-.11v-.15Z"/><path class="cls-1" d="m209.47,76.13c-.56-.31,0,.45-.56,0v.45h.56v-.45Z"/><path class="cls-1" d="m206.05,75.21h.86c0-.3-.57-.3-.57-.76.29-.9-.99-.6-1.28-.3l.72.76c.56,0,.28.3.28.3Z"/><path class="cls-1" d="m208.18,74.92c-.56,0-.86-.46-.86,0l.3.3.56-.3Z"/><path class="cls-1" d="m209.18,76.88c-.27,0-.27.62-.72.3v.32h.72v-.62Z"/><path class="cls-1" d="m210.46,77.18c-.7-.3-.43.77-.7.77l.28.3c.43,0,.43-.75.43-1.07Z"/><path class="cls-1" d="m212.6,78.54v-1.04h-.28c-.29.76-1,.45-1,1.04.41.62.71-.29,1.28,0Z"/><polygon class="cls-1" points="219.43 71.74 219.15 70.82 218.87 71.74 218.01 71.74 218.73 72.34 218.43 73.26 219.15 72.64 219.87 73.26 219.59 72.34 220.3 71.74 219.43 71.74"/><polygon class="cls-1" points="221.58 69 221.43 69.92 222 69.46 222.72 69.92 222.56 69 223.14 68.56 222.29 68.56 222 67.65 221.71 68.56 220.86 68.56 221.58 69"/><path class="cls-1" d="m218.72,64.92l.22.24c.01-.08.02-.16.03-.24h-.26Z"/><path class="cls-1" d="m219.15,66.3l.71-.47.7.47-.27-.77.7-.6h-.86l-.28-.9-.28.9h-.6c-.01.08-.02.16-.03.24l.35.37-.14.77Z"/><path class="cls-1" d="m223.29,61.73h-.12s0,.09,0,.13l.12-.13Z"/><path class="cls-1" d="m222.14,60.83l-.29.9h-.7l.56.63-.13.76.56-.47.7.47-.13-.76.45-.5s0-.09,0-.13h-.74l-.29-.9Z"/><path class="cls-1" d="m219.43,57.96l.37.19c0-.09.02-.19.03-.28l-.4.08Z"/><path class="cls-1" d="m219.87,59.02l.56-.3.57.3-.15-.76.43-.3-.72-.15-.14-.6-.29.6-.31.07c0,.09-.02.19-.03.28l.21.11-.14.76Z"/><path class="cls-1" d="m223.29,54.92h-.2c0,.05,0,.11,0,.16l.2-.16Z"/><path class="cls-1" d="m222.29,54.18l-.15.74h-.7l.57.45-.29.76.58-.45.7.45-.27-.76.37-.29c0-.05,0-.11,0-.16h-.53l-.27-.74Z"/><path class="cls-1" d="m220.3,51.45l.14.15c0-.05,0-.1.01-.15h-.15Z"/><path class="cls-1" d="m220.57,52.52l.57-.32.44.32-.15-.61.42-.46h-.57l-.14-.61-.29.61h-.4c0,.05,0,.1-.01.15l.28.31-.15.61Z"/><path class="cls-1" d="m223.29,48.11l-.12-.03s0,.08,0,.12l.13-.09Z"/><path class="cls-1" d="m222.43,47.52l-.14.45-.58.14.43.31-.14.6.43-.31.56.31-.15-.6.32-.23s0-.08,0-.12l-.45-.11-.29-.45Z"/><rect class="cls-1" x="220.72" y="117" width="3.28" height="2.88"/><rect class="cls-1" x="220.72" y="123.2" width="3.28" height="2.89"/><rect class="cls-1" x="224.57" y="120.03" width="3.27" height="2.88"/><rect class="cls-1" x="224.57" y="126.7" width="3.27" height="3.01"/><rect class="cls-1" x="228.42" y="117" width="3.26" height="2.88"/><rect class="cls-1" x="228.42" y="123.2" width="3.26" height="2.89"/><path class="cls-1" d="m223.57,74.77l-.05-.17s-.12,0-.23-.01l.28.18Z"/><path class="cls-1" d="m222.14,74.77l.34-.22c-.1,0-.2-.01-.3-.02l-.04.24Z"/><path class="cls-1" d="m223.85,73.41h-.36c0,.09,0,.19.01.27l.34-.27Z"/><path class="cls-1" d="m222.84,72.49l-.28.92h-.85l.58.45-.11.66c.1,0,.2.01.3.02l.36-.24.45.29c.11,0,.18,0,.23.01l-.23-.74.22-.18c0-.09,0-.18-.01-.27h-.35l-.3-.92Z"/><polygon class="cls-1" points="235.4 36.46 235.24 36.16 234.82 35.99 234.96 36.32 235.4 36.46"/><polygon class="cls-1" points="228.97 46 229.27 45.84 229.56 46 229.41 45.69 229.7 45.55 229.41 45.55 229.27 45.22 229.12 45.55 228.84 45.55 228.97 45.69 228.97 46"/><polygon class="cls-1" points="229.7 47.21 229.56 47.52 229.84 47.36 230.11 47.52 229.98 47.21 230.26 47.06 229.98 47.06 229.84 46.76 229.7 47.06 229.41 47.06 229.7 47.21"/><polygon class="cls-1" points="228.14 48.58 228.42 48.42 228.69 48.58 228.54 48.27 228.84 48.11 228.54 48.11 228.42 47.83 228.27 48.11 227.98 48.11 228.27 48.27 228.14 48.58"/><polygon class="cls-1" points="230.55 44.49 230.42 44.19 230.26 44.49 229.98 44.49 230.26 44.79 230.11 45.1 230.42 44.79 230.69 45.1 230.55 44.79 230.83 44.49 230.55 44.49"/><polygon class="cls-1" points="229.84 43.28 230.11 43.13 230.26 43.28 230.26 42.98 230.55 42.82 230.11 42.82 230.11 42.36 229.98 42.82 229.7 42.82 229.84 42.98 229.84 43.28"/><polygon class="cls-1" points="230.99 42.36 231.26 42.22 231.55 42.36 231.4 42.07 231.68 41.91 231.4 41.91 231.26 41.61 231.11 41.91 230.83 41.91 231.11 42.07 230.99 42.36"/><path class="cls-1" d="m230.42,40.4h-.3l.26.13c.05-.14.11-.27.17-.4l-.12.27Z"/><path class="cls-1" d="m230.26,41l.29-.3.28.3-.15-.45.3-.16h-.3l-.14-.3v.03c-.07.13-.13.26-.18.4l.04.02-.15.45Z"/><path class="cls-1" d="m232.12,39.64l-.05.11s.09.05.14.08l-.08-.19Z"/><path class="cls-1" d="m232.55,39.95h-.13s.06.03.09.05l.05-.05Z"/><path class="cls-1" d="m231.68,39.95l.29.29-.15.31.29-.16.28.16-.15-.31.25-.25s-.06-.03-.09-.05h-.16l-.05-.12s-.09-.05-.14-.08l-.09.2h-.29Z"/><path class="cls-1" d="m220.85,46.14l.03-.02s0-.1.01-.15l-.04.16Z"/><path class="cls-1" d="m220.57,45.23l.36.27c0-.09.01-.18.02-.27h-.37Z"/><path class="cls-1" d="m221.85,46.14l-.15-.59.43-.32h-.56l-.15-.58-.29.58h-.2c0,.09-.01.17-.02.27l.08.06-.11.43s0,.1-.01.15l.55-.29.42.3Z"/><polygon class="cls-1" points="233.39 37.36 233.83 37.36 233.97 36.92 233.53 36.92 233.39 37.36"/><path class="cls-1" d="m230.26,55.23l-.08.22c.06.02.11.03.16.04l-.09-.26Z"/><path class="cls-1" d="m229.97,56.12c-.03-.12-.07-.25-.11-.37l-.3.09.41.28Z"/><path class="cls-1" d="m229.84,56.58l.21-.14c-.03-.1-.05-.2-.08-.3l-.14.44Z"/><path class="cls-1" d="m229.98,56.13h0c.03.11.05.21.08.31l.21-.14.42.29-.14-.45.44-.29-.57-.17-.06-.18c-.05,0-.11-.02-.16-.04l-.08.22-.25.08c.04.13.07.25.11.37h0Z"/><path class="cls-1" d="m232.55,57.21h-.16c0,.05.01.1.02.16l.15-.16Z"/><path class="cls-1" d="m231.83,56.76l-.15.45h-.57l.44.45-.15.45.42-.31.43.31-.14-.45.28-.3c0-.05-.01-.1-.02-.16h-.41l-.15-.45Z"/><path class="cls-1" d="m230.11,59.18l.38.25c0-.08,0-.17-.01-.25h-.37Z"/><path class="cls-1" d="m230.5,59.69l-.09.39.09-.07c0-.11,0-.22,0-.32Z"/><path class="cls-1" d="m231.26,60.08l-.15-.61.44-.29h-.44l-.28-.46-.15.46h-.2c0,.08,0,.17.01.25l.06.04-.05.22c0,.11,0,.22,0,.32l.32-.23.43.3Z"/><path class="cls-1" d="m232.83,61.13h-.08s0,.06,0,.08l.08-.08Z"/><path class="cls-1" d="m232.25,60.7l-.28.44h-.42l.42.3-.15.6.43-.31.43.31-.14-.6.2-.22s0-.06,0-.08h-.34l-.15-.44Z"/><path class="cls-1" d="m230.11,63.56l.3.21c0-.07,0-.14,0-.21h-.3Z"/><path class="cls-1" d="m230.42,64.32l.41-.16.43.16-.15-.45.44-.3h-.56l-.16-.6-.15.6h-.27c0,.07,0,.14,0,.21l.14.1-.14.45Z"/><path class="cls-1" d="m233.26,65.68h-.26c0,.06,0,.12,0,.18l.25-.18Z"/><path class="cls-1" d="m232.55,65.08l-.15.6h-.57l.43.3-.14.62.43-.3.42.3-.14-.62.18-.12c0-.06,0-.12,0-.18h-.17l-.28-.6Z"/><path class="cls-1" d="m230.26,66.88l.24.18c0-.06,0-.12-.01-.18h-.23Z"/><polygon class="cls-1" points="230.55 67.81 230.55 67.81 230.55 67.81 230.55 67.81"/><path class="cls-1" d="m231.4,67.81l-.15-.62.42-.32h-.56l-.12-.57-.16.57h-.34c0,.06,0,.12.01.18l.18.14-.13.61h0s.44-.3.44-.3l.41.3Z"/><path class="cls-1" d="m233.53,68.56h-.34c0,.07.02.14.03.21l.3-.21Z"/><path class="cls-1" d="m232.83,68.09l-.15.47h-.56l.43.29-.15.61.43-.29.43.29-.15-.61.12-.08c-.01-.07-.02-.14-.03-.21h-.22l-.15-.47Z"/><path class="cls-1" d="m232.03,70.67h-.48l.42.31-.15.6.43-.31.43.31-.06-.28c-.22-.12-.41-.38-.59-.64Z"/><path class="cls-1" d="m232.97,70.67h-.57l-.15-.45-.14.45h-.09c.17.26.37.51.59.64l-.07-.32.42-.31Z"/><path class="cls-1" d="m281.98,33.29c1.14,0,1-1.06.29-.91-1.01.29-4.14-1.21-4.58-3.48-.11-1.21-.69-.16-.27,1.2.84,2.13,2.55,3.19,4.56,3.19Z"/><path class="cls-1" d="m274.72,22.82c.98,0,.98-1.05.14-.75-.87.31-4.13-1.21-4.42-3.48-.29-1.37-.86-.15-.29,1.06.71,2.11,2.43,3.17,4.57,3.17Z"/></svg>