<?xml version="1.0" encoding="UTF-8"?><svg id="Layer_1" xmlns="http://www.w3.org/2000/svg" viewBox="0 0 1000.77 299.91"><defs><style>.cls-1{fill:#231f20;}.cls-2{fill:#414042;}</style></defs><g id="_9rOhSX.tif"><path class="cls-1" d="m990.67,246.03c-.11,0-.22,0-.33,0,0-.31-.01-.63-.01-.94,0-62.96,0-125.92,0-188.87,0-.57,0-1.14,0-1.73-1.21.01-2.3-.23-3.42-.23-61.23.02-122.47.02-183.7.02-1.37,0-2.73,0-4.1.01-.4,0-.86-.12-1.14.33-.06-.32-.13-.64-.19-.95,64.3,0,128.59,0,192.89,0v192.38Z"/><path class="cls-1" d="m797.97,54.6c.28-.45.73-.33,1.14-.33,1.37-.01,2.73-.01,4.1-.01,61.23,0,122.47,0,183.7-.02,1.12,0,2.22.25,3.42.23,0,.58,0,1.16,0,1.73,0,62.96,0,125.92,0,188.87,0,.31,0,.63.01.94-1.68.08-3.35.23-5.03.23-61.93.01-123.86.01-185.79.01-1.63,0-1.64,0-1.64-1.66,0-62.24,0-124.47,0-186.71,0-1.1.05-2.2.08-3.29Zm175.04,162.49l.02.02c-.02-.21-.13-.32-.33-.34l.02.02c-.27-.58-.74-.97-1.25-1.32-.53-.79-1.23-1.42-1.95-2.02-1.89-1.58-3.71-3.23-5.64-4.78-8.32-6.67-17.41-12.02-27.29-16.03-3.62-1.47-7.37-2.57-11.12-3.68-4.94-1.46-9.94-2.58-15-3.48-3.31-.58-6.66-.84-10.01-1-8.19-.39-16.36-.06-24.47,1.23-4.84.77-9.62,1.85-14.3,3.25-4.6,1.37-9.11,3-13.5,4.96-.22-.09-.28.05-.32.23-.74,0-1.21.66-1.9.77-.23-.13-.25.02-.25.19-.34.14-.67.29-1.01.43-.23-.12-.25.02-.25.2-.13.04-.25.08-.38.12-.23-.13-.26.02-.26.19-.12.04-.25.08-.37.12-.23-.12-.25.02-.25.2l-.38.12c-.23-.13-.25.02-.26.19-3.12,1.72-6.26,3.42-9.23,5.4-1.55,1.03-3.12,2.05-4.68,3.08-.19.02-.3.12-.3.32-.36.07-.67.21-.96.47-1.71,1.53-3.52,2.95-5.29,4.41-2.64,2.17-5.06,4.55-7.55,6.87-.93.87-.93.91-.03,1.81,4.19,4.18,8.39,8.36,12.58,12.53.03.08.04.21.08.22.16.05.19-.09.23-.21.62.07.93-.41,1.32-.73,1.89-1.57,3.76-3.16,5.66-4.71,4.72-3.83,9.89-6.98,15.09-10.12.14.04.22-.03.26-.16.27-.13.55-.25.82-.38.34.1.57-.03.73-.32,0,0,0,0,0,0,.34.05.6-.15.88-.28,3.8-1.74,7.6-3.47,11.6-4.69,5.62-1.72,11.3-3.19,17.13-3.97,3.53-.47,7.08-.85,10.65-.99,3.52-.14,7.02.16,10.53.43,3.54.27,7.04.85,10.51,1.51,1.09.2,2.26.31,3.31.75,2.08.87,4.34,1.09,6.45,1.87,1.3.48,2.69.72,3.99,1.2,12.27,4.47,23.3,10.99,32.93,19.83,1.18,1.08,1.51,1.08,2.61-.02,3.67-3.67,7.34-7.34,11.01-11.02.3-.3.63-.58.85-.92.36-.56.34-1.09-.37-1.42-.13-.12-.26-.24-.38-.36Zm7.27-7.54c.14.15.29.31.43.46.15.16.3.41.54.16.08-.08-.02-.26-.18-.3-.08-.27-.16-.53-.4-.7-.05-.24-.07-.51-.41-.52-.82-1.36-1.67-2.7-2.46-4.07-1.39-2.41-2.73-4.84-4.15-7.23-8.02-13.5-16.15-26.93-24.22-40.4-2.11-3.52-4.4-6.94-6.5-10.46-1.74-2.91-3.45-5.85-5.19-8.75-2.08-3.47-4.19-6.94-6.29-10.41-1.7-2.82-3.35-5.67-5.07-8.48-1.9-3.11-3.76-6.24-5.65-9.36-1.73-2.86-3.39-5.76-5.09-8.64-6.77-11.51-13.7-22.92-20.58-34.36-.28-.47-.52-1-1.13-1.21-.6.66-1.06,1.37-1.41,2.12-.8,1.71-1.89,3.26-2.84,4.88-2.46,4.2-5.02,8.34-7.57,12.48-3.59,5.83-6.98,11.79-10.68,17.56-1.96,3.07-3.71,6.28-5.57,9.42-1.46,2.46-2.95,4.9-4.42,7.36-2.37,3.96-4.73,7.93-7.11,11.89-2.08,3.45-4.18,6.89-6.26,10.33-1.84,3.05-3.68,6.11-5.52,9.17-.38.19-.64.46-.57.93-.55.68-1.04,1.39-1.32,2.22-.37.19-.65.45-.55.92-.58.24-.51.84-.71,1.29-.38.17-.68.4-.55.89-.24.45-.47.91-.71,1.36l-.11.04v.11c-.74.83-1.16,1.85-1.73,2.79-5.42,9.01-10.82,18.03-16.24,27.03-3.84,6.38-7.71,12.74-11.59,19.09-.25.41-.42.83-.57,1.27-.44.52-.96.99-1.05,1.96.74-.5,1.27-.85,1.57-1.47,1.1-.77,1.94-1.87,3.05-2.6,1.13-.74,2.13-1.67,3.05-2.56,1.04-1,2.25-1.79,3.28-2.8.99-.97,2.21-1.82,3.3-2.74,12.84-10.88,25.65-21.81,38.4-32.79,5.99-5.16,12.16-10.11,17.92-15.53,2.33-2.19,4.91-4.1,7.34-6.18,2.6-2.22,5.17-4.47,7.71-6.76.45-.41,1.03-.48,1.48-.84.27-.22.44-.08.65.13,2.7,2.79,5.82,5.09,8.71,7.65,3.83,3.4,7.83,6.6,11.73,9.92,7.34,6.25,14.67,12.53,22,18.8,7.93,6.78,15.85,13.57,23.77,20.36,4.37,3.75,8.71,7.55,13.08,11.29,1.86,1.59,3.79,3.11,5.69,4.66.06.17.17.28.36.3.05.18.16.28.35.3Z"/><path class="cls-2" d="m859.23,210.82c2.58-1.03,5.14-2.1,7.74-3.07,7.83-2.92,15.86-5.12,24.13-6.37,8.06-1.22,16.16-1.85,24.31-1.41,15.18.82,29.78,4.13,43.69,10.32,3.69,1.64,7.33,3.38,10.84,5.39.36.21.76.34,1.14.51.49.36.94.8,1.64.6l-.02-.02c-.02.24.12.32.33.34l-.02-.02c.13.12.26.24.38.36.7.32.73.85.37,1.42-.22.35-.55.63-.85.92-3.67,3.67-7.34,7.35-11.01,11.02-1.1,1.1-1.43,1.1-2.61.02-9.63-8.84-20.66-15.36-32.93-19.83-1.3-.48-2.69-.72-3.99-1.2-2.11-.78-4.37-1.01-6.45-1.87-1.05-.44-2.22-.55-3.31-.75-3.47-.65-6.96-1.24-10.51-1.51-3.51-.27-7.02-.56-10.53-.43-3.56.14-7.11.52-10.65.99-5.83.78-11.52,2.25-17.13,3.97-4,1.22-7.8,2.96-11.6,4.69-.28.13-.54.32-.88.28.8-.84,1.87-1.23,2.86-1.76.86-.46,1.71-.92,2.56-1.39.26.05.48.04.6-.25,0,0,.02-.02.02-.02.24-.03.51,0,.62-.3.11-.03.22-.07.34-.1.18.05.25-.07.29-.21,0,0,0,0,0,0,.24-.03.47-.09.62-.31Z"/><path class="cls-1" d="m807.9,208.45c0,.35.21.47.52.49-.3.62-.83.98-1.57,1.47.1-.97.61-1.44,1.05-1.96Z"/><path class="cls-1" d="m972.72,216.79c-.69.2-1.15-.24-1.64-.6.3-.15.36-.42.38-.72.52.35.98.74,1.25,1.32Z"/><path class="cls-1" d="m842.55,150.5c0,.42,0,.85-.57.93-.08-.47.19-.73.57-.93Z"/><path class="cls-1" d="m839.4,155.86c-.02.4.02.83-.55.89-.13-.49.17-.72.55-.89Z"/><path class="cls-1" d="m840.66,153.65c0,.41,0,.83-.55.92-.1-.48.17-.73.55-.92Z"/><path class="cls-1" d="m981.07,209.88c.16.05.26.22.18.3-.24.25-.39,0-.54-.16.12-.05.24-.1.35-.14Z"/><path class="cls-1" d="m979.58,208.96c.26-.02.52-.06.68-.3.34,0,.36.28.41.52,0,0-.12.1-.12.1-.21,0-.41-.01-.62-.02-.18-.02-.29-.13-.36-.3Z"/><path class="cls-1" d="m850.58,215.48c.17-.26.44-.31.73-.32-.16.29-.39.42-.73.32Z"/><path class="cls-1" d="m981.07,209.88c-.12.05-.24.09-.35.14-.14-.15-.29-.31-.43-.46.09-.09.18-.19.27-.28,0,0,.12-.1.12-.1.24.17.33.44.4.7Z"/><path class="cls-1" d="m980.55,209.27c-.09.09-.18.19-.27.28-.19-.02-.3-.12-.35-.3.21,0,.41.01.62.02Z"/><path class="cls-1" d="m838.14,158.12c-.03.05-.07.1-.1.15,0,0,0-.11,0-.11l.11-.04Z"/><path class="cls-1" d="m848.2,193.93c-.11.08-.21.15-.32.23.03-.18.09-.32.32-.23Z"/><path class="cls-1" d="m845.98,194.92c-.08.06-.16.13-.25.19,0-.17.02-.32.25-.19Z"/><path class="cls-1" d="m844.72,195.54c-.08.07-.17.13-.25.2,0-.17.03-.31.25-.2Z"/><path class="cls-1" d="m844.09,195.86c-.09.06-.17.13-.26.19,0-.17.03-.32.26-.19Z"/><path class="cls-1" d="m843.46,196.17c-.08.07-.17.13-.25.2,0-.17.03-.31.25-.2Z"/><path class="cls-1" d="m842.83,196.49c-.09.06-.17.13-.26.19,0-.17.03-.32.26-.19Z"/><path class="cls-1" d="m828.66,205.16c-.1.11-.2.22-.3.32,0-.2.1-.3.3-.32Z"/><path class="cls-1" d="m849.5,216.02c.09-.05.17-.11.26-.16-.04.13-.11.2-.26.16Z"/><path class="cls-1" d="m973.03,217.11c-.21-.02-.35-.1-.33-.34.2.02.32.14.33.34Z"/><path class="cls-1" d="m973.39,217.46c-.13-.12-.26-.24-.38-.36.13.12.26.24.38.36Z"/><path class="cls-1" d="m827.12,231.57c.11,0,.21,0,.32.01-.04.12-.07.26-.23.21-.05-.01-.06-.14-.08-.22Z"/><path class="cls-1" d="m470.21,195.11c-2.38-6.92-4.78-13.83-7.14-20.76-3.2-9.38-6.36-18.78-9.56-28.16-3.04-8.91-6.12-17.81-9.17-26.71-1.05-3.08-2.07-6.17-3.1-9.26.03-.19-.02-.3-.24-.25-.31-.03-.62-.08-.93-.08-6.63,0-13.27-.01-19.9,0-.41,0-.83.07-1.24.11-.19-.04-.29,0-.19.22l-.11.69c-.16,0-.32.02-.19.25-.01.23-.03.46-.04.68-.44.77-.97,1.51-.79,2.48-.08.13-.15.25-.23.38-.17,0-.32,0-.19.23-.02.23-.04.45-.06.68-.58.11-.41.71-.48.99-.27,1.14-1.03,2.15-.95,3.38-.07.13-.14.25-.22.38-.17,0-.32,0-.2.24-.04.23-.08.47-.12.7-.17,0-.31.02-.21.25-.04.23-.07.45-.11.68-.17,0-.32.04-.21.27-.03.22-.07.45-.1.67-.17,0-.32.04-.22.27-.03.22-.07.45-.1.67-.07.09-.14.18-.21.27-.03.22-.07.45-.1.67-.18,0-.31.04-.22.27-.03.22-.07.44-.1.66-.74,1.26-1.17,2.62-1.34,4.07-.08.13-.15.25-.23.38-.17,0-.32,0-.19.23l-.06.68c-.46.08-.29.35-.17.6-.07.12-.14.25-.21.37h0c-.17,0-.32,0-.19.24-.04.24-.08.47-.12.71-.17,0-.32,0-.19.24-.04.23-.08.47-.12.7-.17,0-.32,0-.2.24-.04.23-.08.47-.12.7-.17,0-.32,0-.19.24-.04.23-.08.47-.12.7-.17,0-.32,0-.19.24-.04.24-.08.47-.12.71-.17,0-.32,0-.19.24-.04.23-.08.47-.12.7-.17,0-.32,0-.2.24-.04.23-.08.46-.12.7-.17,0-.32.02-.21.25-.04.23-.07.46-.11.68-.17,0-.32.03-.21.26-.04.23-.07.45-.11.68-.17,0-.32.03-.21.26-.04.23-.07.45-.11.68-.07.09-.14.18-.21.27-.03.22-.07.45-.1.67-.95,1.53-1.41,3.23-1.66,5,.23-.38.44-.78.62-1.18-.18.4-.39.8-.62,1.18-.08.13-.15.25-.23.38-.17,0-.32,0-.19.23l-.06.68c-.34.46-.69.91-.48,1.54.12-.1.23-.21.32-.32-.09.11-.2.22-.32.32-.08.19-.16.38-.23.58-4.48,13.14-8.95,26.28-13.43,39.42-.64,1.87-1.28,3.73-1.93,5.6-.06.2.01.27.22.22.36.03.73.08,1.09.08,6.23,0,12.46,0,18.69-.02,1.64,0,1.49.21,1.99-1.53,1.33-4.61,2.64-9.23,3.96-13.84.26-.9.3-2.02.87-2.64.62-.65,1.8-.03,2.71-.23.47.03.93.08,1.4.08,6.63,0,13.26,0,19.89,0,.57,0,1.14-.05,1.72-.08,1.62.13,1.31.12,1.67,1.35.2.7.43,1.4.63,2.1,1.3,4.45,2.63,8.9,3.89,13.36.41,1.44.33,1.46,1.77,1.46,5.08,0,10.15,0,15.23,0,1.41,0,2.82-.06,4.23-.1.84.17.92-.18.58-.83-.01-.1,0-.21-.04-.31Zm-47.83-37.23c1.03-3.34,2.03-6.68,2.93-10.06.62-2.29,1.34-4.56,1.97-6.86.77-2.81,1.43-5.64,2.05-8.48.09-.41.22-.8.34-1.2.29-.18.58-.22.88,0,.16.3.18.62.18.95-.14.29-.15.52.23.61.03.32.07.64.1.96-.16.31-.14.53.26.59,0,.22.02.44.02.66h0c-.12.29-.14.53.25.61.03.33.06.65.09.98h0c-.15.24.03.25.19.28.04.32.09.64.13.96-.15.31-.13.54.27.59,0,.22.02.44.03.66-.13.31-.11.54.29.59,0,.22.02.44.03.67-.13.3-.12.54.28.6.01.22.02.44.04.66-.13.32-.09.55.32.58,0,.23.01.47.02.7-.14.24.03.24.19.25.03.22.07.44.1.67-.11.33-.08.56.34.57,0,.24,0,.47,0,.71-.15.24.02.24.18.25.03.22.06.45.1.67-.11.32-.09.56.33.58,0,.23.01.47.02.7-.14.23.02.24.19.25l.1.67c-.12.29-.09.53.27.6-.27.62.36,1.04.35,1.6-.21.49.17.62.48.8.55,2.88,1.59,5.63,2.32,8.46.12.45.36.88.21,1.49h-16.95c.15-1.18.56-2.25.9-3.33Z"/><path class="cls-1" d="m683.06,111.94c0-.57-.04-1.15-.06-1.72,0-.03.03-.07.02-.1-.02-.06-.05-.12-.07-.19-.48-.51-1.09-.24-1.63-.24-5.19-.02-10.38,0-15.56,0-1,0-1.99-.01-2.99-.04-.53-.01-.77.23-.75.75.07,2.45-.11,4.91.13,7.35-.04.26-.11.51-.11.77,0,5.15-.02,10.31,0,15.46,0,.67.15,1.34.23,2.01-.03.31-.06.63-.09.94h0c-.2,0-.4.01-.6.02-1.27-.89-2.43-1.97-4.05-2.23-.34-.36-.76-.57-1.27-.55-.1-.02-.21-.04-.31-.06-.45-.4-1.03-.43-1.58-.54-.21-.02-.42-.05-.63-.07-1.2-.55-2.47-.7-3.77-.67-.93-.34-1.89-.3-2.85-.24-.74-.13-1.47-.13-2.21,0-.32-.08-.63-.07-.94.03-2.95,0-5.77.71-8.51,1.69-4.54,1.62-8.28,4.4-11.25,8.19-1.27,1.62-2.44,3.34-3.33,5.19-1.1,2.28-1.69,4.75-2.37,7.18-.08.3-.07.62-.1.93-.27.27-.27.61-.23.96-.3.81-.42,1.64-.36,2.5-.06.02-.12.04-.19.05-.38-.02-.69.06-.73.52-.04.42.15.65.57.7.14,1.67-.39,3.34-.03,5.02-.24.75-.07,1.48.08,2.21-.05,1.06-.06,2.12.3,3.14-.07.87.13,1.7.39,2.51-.05.24-.04.47.14.66.02.43.05.86.25,1.26.09.41.18.81.28,1.22-.23.56.26.88.46,1.29.2,1.13.65,2.16,1.21,3.15.2.79.5,1.54,1.03,2.17.33.95.86,1.78,1.53,2.53.1.41.32.75.68.99.26.61.65,1.13,1.18,1.54.39.68.91,1.23,1.56,1.65.03-.03.05-.05.08-.08-.03.03-.06.05-.08.08.96,1.29,2.19,2.25,3.59,3.03.42.48.95.79,1.56.98,1.96,1.26,4.07,2.17,6.32,2.74.4.18.8.37,1.26.32.5.24,1.02.37,1.58.29.62.12,1.24.32,1.89.24,1.47.21,2.94.23,4.42.03.76.1,1.48-.07,2.2-.25.71.05,1.34-.16,1.91-.58.1,0,.2-.02.29-.05,1.04-.02,1.94-.44,2.83-.92,3.27-1.12,5.78-3.26,7.9-5.91.3-.14.48-.4.66-.66l.1-.02h0s-.1.02-.1.02c.2.2.4.4.6.6-.05.74-.15,1.48-.02,2.22-.12.63-.12,1.26,0,1.89-.02.15-.06.31-.07.46-.06,1.83-.06,1.84,1.72,1.84,5.35,0,10.71,0,16.06-.02,2.18,0,1.83.07,1.83-1.88,0-27.44.01-54.87.01-82.31Zm-35.62,68.12l-.58-.19c-5.6-2.19-7.83-6.74-8.54-12.29-.22-1.71-.05-3.44-.02-5.16.18-.4.32-.81.24-1.26.42-2.28,1.25-4.4,2.6-6.3.05-.63.25-1.17.55-1.61-.31.44-.5.98-.55,1.61.97-.93,1.95-1.86,2.92-2.79.56-.2,1.06-.5,1.54-.86h0c.94-.3,1.89-.61,2.83-.91.41-.05.82-.11,1.23-.16.53.09,1.05.09,1.58,0,.73.12,1.45.37,2.21.33.19.07.38.13.57.2,0-.06,0-.12.01-.18,0,.06-.01.12-.01.18,4.68,1.78,7.29,5.25,8.24,10.07.09.46.2.91.31,1.37,0,1.68.02,3.35.03,5.03-.28.92-.34,1.86-.38,2.81-.24.25-.2.58-.28.88-.68,2.46-1.77,4.67-3.64,6.49-1.81,1.76-4.03,2.57-6.43,3.06-1.47-.07-2.96.06-4.41-.3Zm15.87,8.8c-.1.05-.19.14-.26.24.08-.1.16-.19.26-.24Zm.25.37c.04-.14.09-.29.13-.43-.12-.29-.3-.53-.51-.7.21.17.39.41.51.7-.04.14-.09.29-.13.43h0Z"/><path class="cls-1" d="m57.3,151.83c-.8-.37-1.72-.47-2.4-1.08,0-.11-.02-.22-.02-.32.33-.43.85-.59,1.27-.9,2.35-1.7,4.5-3.61,6-6.13,2.4-4.01,3.42-8.38,3.12-13.04-.24-3.7-1.25-7.17-3.24-10.33-2.69-4.28-6.67-6.84-11.3-8.54-3.79-1.38-7.78-1.76-11.76-1.8-9.19-.1-18.38-.05-27.57-.05-1.22,0-1.25.06-1.3,1.22-.01.26,0,.52,0,.79,0,27.55,0,55.1,0,82.65,0,.37,0,.73,0,1.1,0,.45.23.67.67.69.42.02.84.03,1.26.03,6.14,0,12.29,0,18.43,0,3.99,0,7.99-.11,11.97.03,1.89.07,3.74-.27,5.53-.56,2.07-.33,4.16-.93,6.14-1.78,5.14-2.23,9.43-5.46,11.99-10.54,3.54-7.02,3.75-14.25.72-21.49-1.89-4.5-5.05-7.86-9.52-9.94Zm-35.23-18.63c0-3.87,0-7.75,0-11.62,0-1.28.03-1.29,1.33-1.29,5.46,0,10.92-.02,16.38.05,2.92.04,5.79.53,8.26,2.16,3.21,2.11,4.67,5.28,4.91,9.04.12,1.89-.1,3.74-.49,5.6-.97,4.64-4.08,7.13-8.32,8.56-1.1.37-2.25.46-3.41.46-5.67-.02-11.34-.02-17.01-.03-.1,0-.21,0-.32,0-1.3-.03-1.32-.03-1.33-1.3-.01-3.87,0-7.75,0-11.62Zm33.21,44.62c-1.43,3.4-4,5.58-7.33,6.92-1.61.65-3.32.96-5.07.96-6.61,0-13.22,0-19.83,0-.21,0-.42-.04-.62-.06-.08-.09-.17-.18-.25-.27h0c-.02-2.3-.04-4.6-.04-6.9,0-6.8,0-13.61,0-20.41,0-.37,0-.73,0-1.1,0-.51.21-.78.75-.77.31,0,.63,0,.94,0,5.09,0,10.18,0,15.27,0,2,0,3.97.17,5.94.53,6.63,1.23,11.22,6.56,11.44,13.27.09,2.69-.13,5.32-1.19,7.84Z"/><path class="cls-1" d="m764.3,160.3c-.47-2.99-1.2-5.93-2.71-8.6-.23-.68-.56-1.32-.99-1.9-1-1.99-2.31-3.76-3.8-5.41.02-.46-.07-.85-.66-.83-.4-.25-.39-.87-.92-1.01-.1-.09-.19-.18-.29-.27v-.02c-.02-.53-.4-.61-.82-.64-.56-.1-.57-.83-1.1-.96-.1-.09-.2-.18-.3-.26-.76.07-.9-.73-1.43-1.03-1.52-.84-2.91-1.93-4.47-2.67-1.13-.53-2.24-1.24-3.55-1.37-.2-.45-.63-.2-.95-.32-.2-.45-.63-.2-.94-.31-.2-.45-.64-.2-.95-.32-.79-.43-1.66-.55-2.53-.65-.07-.38-.16-.73-.62-.29-1.47-.24-2.93-.57-4.43-.55-.41-.12-.83-.15-1.25-.07-1.48-.32-2.96-.33-4.45-.03-1.37-.02-2.74,0-4.08.41-.34-.05-.68-.04-.99.14-1.04,0-2.03.36-3.01.6-3.79.91-7.33,2.48-10.59,4.62-1.4.92-2.93,1.71-4.02,3.06-.93.75-1.77,1.59-2.53,2.52-2.42,2.45-4.29,5.23-5.36,8.52-.1.05-.15.13-.14.25-.53,1.12-.97,2.27-1.13,3.51-.33.36-.32.81-.34,1.25-.27.27-.26.61-.23.96-.23.61-.4,1.23-.32,1.89-.36,1.13-.38,2.29-.33,3.46-.14,1.05-.12,2.1.01,3.14-.02.95-.06,1.91.29,2.83-.13.86.18,1.66.37,2.47,1.46,6.51,4.57,12.07,9.75,16.39.2.25.39.5.59.75-.05.74.38.9,1,.82,1.48.8,2.7,2.04,4.34,2.57.96.7,2.01,1.24,3.16,1.55,1.58.89,3.29,1.44,5.05,1.83.38.26.79.4,1.26.35.28.2.59.31.95.24.4.14.82.19,1.24.13,1.77.4,3.56.61,5.38.54.31.11.63.1.95.02.74.15,1.47.13,2.21,0,1.28.05,2.55.12,3.82-.16,1.63-.08,3.21-.37,4.73-.96.2-.05.39-.11.59-.16,3.66-.72,6.94-2.38,10.13-4.22,1.78-.75,3.15-2.02,4.47-3.37.79-.61,1.55-1.25,2.1-2.1.38-.2.6-.54.78-.91,2.53-2.66,4.22-5.83,5.5-9.22,1.97-5.25,2.4-10.67,1.54-16.19Zm-29.35-9.79s-.09.03-.15.06c.06-.03.1-.05.15-.06Zm5.26,24.69h0c-2.89,3.22-6.51,4.91-10.83,5.14-2.14-.26-4.23-.59-6.21-1.56-4.93-2.42-7.4-6.45-7.94-11.78-.33-3.26.45-6.33,1.67-9.32.78-1.91,2.34-3.18,3.68-4.63,0-.1-.01-.21-.02-.31,0,.1.01.21.02.31.68-.36,1.3-.8,1.87-1.3.95-.41,1.94-.72,2.83-1.27.36.05.71.08,1-.21,2.2-.28,4.39-.3,6.57.16.28.2.55.44.95.31.19.05.39.11.58.16.07-.06.13-.11.19-.15-.06.05-.12.09-.19.15.29.23.64.34,1,.41,2.77,1.54,5.11,3.52,6.58,6.39.08.52.29.97.61,1.38.27,1.21.54,2.42.81,3.64.13,2.09-.02,4.18-.21,6.26-.28.38-.25.83-.27,1.27-.55,1.54-1.36,2.96-2.19,4.37-.25.12-.38.34-.49.58Z"/><path class="cls-1" d="m352.07,155.61c-.31-.77-.14-1.71-.7-2.37-.51-.61-.79-1.35-1.06-2.05-1.09-2.76-2.77-5.14-4.73-7.31-3.35-3.7-7.36-6.45-12.02-8.31-4.23-1.69-8.63-2.58-13.14-2.61-3.17-.02-6.36.38-9.47,1.2-5.11,1.34-9.75,3.59-13.68,7.11-3.32,2.97-5.95,6.46-7.69,10.65-2.72,6.54-3.47,13.21-2.06,20.13,1.32,6.51,4.4,12.12,9.26,16.61,6.59,6.09,14.5,9.05,23.49,9.02,1.63-.07,3.25-.07,4.87-.31,9.51-1.42,17.24-5.81,22.77-13.7,4.6-6.56,6.35-13.93,5.52-21.89-.22-2.09-.58-4.18-1.36-6.17Zm-51.53.29s-.04.05-.04.08c0-.03.02-.06.04-.08Zm-.32.93s-.04.05-.04.08c0-.03.02-.06.04-.08Zm34.5,24.89c-3.6,3.42-7.97,5.36-13.01,5.58-2.53.11-5.01-.04-7.48-.72-4.66-1.3-8.19-4.1-11.03-7.9-3.67-4.91-4.78-10.44-4.15-16.45.19-1.8,1.03-3.41,1.14-5.19h0c.07-.1.15-.19.22-.29.03-.22.06-.43.09-.65h0c.08-.09.15-.17.23-.26.8-1.46,1.25-3.14,2.39-4.37,3.78-4.07,8.15-7.07,13.84-8,11.35-1.85,22.82,6.3,24.32,18.15.97,7.65-.79,14.62-6.57,20.1Z"/><path class="cls-1" d="m505.04,178.54c-.79,0-1.58-.02-2.36-.09-1.77-.16-3.25-.81-4.06-2.52.02-.25-.02-.48-.23-.64-.05-1.3-.36-2.58-.35-3.9.02-19.45.02-38.9.02-58.35,0-.94-.03-1.88-.05-2.82.03-.21-.06-.3-.27-.27-3.29-.03-6.57-.07-9.86-.07-3.44,0-6.88.04-10.33.07-.23-.04-.38.04-.39.29-.28,1.92-.11,3.86-.11,5.78.06,20.07-.19,40.14.14,60.22-.39.23-.38.44.03.64.11.84.23,1.68.34,2.52-.08.05-.16.1-.25.15l.25.13c.25,1.38.5,2.75.75,4.13-.13.23.03.25.2.26l.11.68c-.11.23.03.26.21.26.07.12.13.24.2.36-.12.25-.24.5.16.61-.11.4.19.66.34.97-.07.22.05.28.24.27.16.46.34.91.68,1.28-.05.46.21.72.6.9.14.26.25.55.44.77.99,1.15,1.84,2.46,3.35,3.05,0,.2.1.3.3.31.09.37.45.18.65.31.06.34.31.48.61.55.11.02.21.05.32.07.33.39.72.65,1.26.54.11.03.22.06.33.09,0,.18.08.29.29.26l.33.05c.53.17.97.6,1.57.55l.64.06c.09.38.33.37.62.24l.67.02c.06.39.28.43.59.27,4.13.51,8.27.66,12.41.19,1.1-.12,1.12-.11,1.14-1.2.02-.99,0-1.99,0-2.99,0-4.14,0-8.28,0-12.41,0-1.73-.04-1.6-1.51-1.58Z"/><path class="cls-1" d="m125.26,138.6c-5.23-4.49-11.56-5.67-18.18-5.63-2.5.01-5.02.31-7.49.84-4.76,1.02-9.31,2.59-13.45,5.19-1.82,1.14-1.89,1.6-.59,3.37,1.13,1.55,2.08,3.19,2.8,4.97.74,1.83.85,1.83,2.56.73,2.6-1.68,5.35-3.14,8.34-3.92,3.23-.84,6.51-1.51,9.93-.96,3.76.6,6.95,1.8,9.07,5.35,1.56,2.61,2.02,5.3,2.15,8.18.03.73-.24,1.09-1,1.01-.21-.02-.42,0-.63,0-5.57-.11-11.11.26-16.61,1.21-4.58.8-8.98,2.13-13.02,4.47-2.34,1.36-4.34,3.15-5.88,5.37-2.59,3.73-3.42,7.89-2.9,12.39.72,6.21,3.94,10.67,9.34,13.68,3.77,2.1,7.84,2.91,12.11,2.8,8.31-.21,14.48-4.01,18.66-11.12.2-.33.25-.81.85-.95,0,.54.06,1.05-.01,1.54-.39,2.6-.25,5.22-.27,7.84,0,1.11.04,1.14,1.16,1.15,2.84.01,5.67,0,8.51-.02,1.35-.01,1.37-.04,1.37-1.43,0-12.57,0-25.14.02-37.7,0-4-.56-7.89-2.12-11.62-1.08-2.6-2.59-4.91-4.72-6.74Zm-12.54,46.67c-4.38,3.54-11.17,3.94-15.81,1-3.3-2.09-5.24-5.44-4.46-9.78.51-2.83,2.31-4.85,4.79-6.29,2.58-1.5,5.39-2.25,8.3-2.75,4.52-.78,9.08-.69,13.64-.69,1.29,0,1.3.02,1.34,1.3.01.47,0,.94,0,1.41-.36,6.36-2.77,11.75-7.79,15.81Z"/><path class="cls-1" d="m204.87,146.24c-1.2-4.2-3.38-7.74-7.17-10.12-2.24-1.41-4.73-2.15-7.3-2.66-3.76-.76-7.52-.68-11.25.1-4.61.97-8.75,2.9-12.18,6.21-2.01,1.94-3.69,4.1-4.9,6.61-.17-.01-.33-.02-.5-.03.23-3.56.1-7.12.16-10.68.01-.67.02-1.25-.94-1.24-3.26.02-6.51,0-9.77-.02-.69,0-.95.3-.91.95.01.21,0,.42,0,.63,0,19.06,0,38.12,0,57.19,0,.68-.01,1.36,0,2.04.02,1.09.03,1.13,1.17,1.13,2.94.02,5.88,0,8.82.02,2.1,0,1.91.17,1.91-1.98.01-9.64-.05-19.27.05-28.91.07-6.33,2.11-11.88,6.97-16.23,4.23-3.78,9.12-5.7,14.81-5.35,3.64.22,6.72,1.57,8.63,4.9.71,1.24,1.14,2.57,1.41,3.97.45,2.32.52,4.68.53,7.03.04,11,.02,21.99.02,32.99,0,.84-.02,1.67-.07,2.51-.05,1-.07,1.04.99,1.05,3.2.02,6.41.03,9.61.02,1.18,0,1.2-.03,1.2-1.27,0-12.99-.01-25.97,0-38.96,0-3.36-.39-6.67-1.31-9.89Z"/><path class="cls-1" d="m273.79,180.02c-.44-.82-.56-.82-1.29-.19-1.59,1.37-3.27,2.62-5.08,3.7-5.13,3.06-10.66,4.38-16.59,3.69-2.37-.27-4.71-.78-6.88-1.89-5.05-2.59-8.67-6.45-10.67-11.77-1.63-4.34-1.67-8.8-.91-13.31.6-3.59,1.94-6.88,4.38-9.58,4.57-5.05,10.31-7.56,17.18-7.49,2.01.02,3.91.54,5.8,1.1,1.44.43,2.94.71,4.28,1.34,1.93.9,3.88,1.87,5.19,3.69.15.21.37.38.58.53.64.45.99.41,1.37-.28,1.21-2.2,2.82-4.13,4.16-6.25.9-1.41.97-1.37-.25-2.49-.19-.18-.4-.34-.6-.5-6.3-5.04-13.58-7.33-21.55-7.36-4.67-.02-9.25.85-13.61,2.63-3.43,1.39-6.56,3.3-9.29,5.79-3.31,3.02-5.86,6.57-7.51,10.79-1.66,4.25-2.69,8.58-2.52,13.18-.11,2.61.13,5.21.74,7.77,2.34,9.77,7.96,16.99,17.08,21.3,7.73,3.65,15.85,4.17,24.13,2.26,5.69-1.31,10.68-4,15.06-7.84.49-.43.98-.81.58-1.57-1.27-2.41-2.49-4.84-3.78-7.24Z"/><path class="cls-1" d="m538.02,135.72c0-1.58,0-1.59-1.49-1.59-6.09-.01-12.18-.02-18.27-.02-1.27,0-1.29.01-1.29,1.31,0,20.21.01,40.41.02,60.62-.03.22.06.31.28.28,6.56,0,13.12.02,19.68.03.1,0,.21,0,.31,0,.53,0,.76-.27.76-.78,0-.26,0-.52,0-.79,0-5.86-.02-11.73-.02-17.59,0-13.82,0-27.64,0-41.46Z"/><path class="cls-1" d="m518.69,126.36c5.93,0,11.85,0,17.78,0,1.19,0,1.22-.01,1.23-1.23.01-4.71.01-9.42,0-14.12,0-1.1-.03-1.13-1.13-1.14-2.99-.01-5.98,0-8.97,0h0c-2.99,0-5.98,0-8.97,0-1.38,0-1.39.02-1.39,1.36,0,4.55,0,9.1,0,13.65,0,1.46,0,1.47,1.45,1.48Z"/><path class="cls-1" d="m606.95,157.66c-.06-.72-.13-1.45-.19-2.17.02-2.44-.65-4.71-1.61-6.92-.35-1.65-.99-3.17-2.14-4.44.03-.47-.24-.75-.63-.94-.1-.28-.28-.49-.55-.63-.46-.45-.3-1.3-1.03-1.57-.46-.64-1.04-1.18-1.65-1.67-.08-.08-.16-.16-.24-.24-.1-.09-.21-.18-.31-.26-.29-.09-.57-.18-.82-.4-2.65-2.4-5.85-3.63-9.29-4.37-.06-.33-.1-.69-.58-.37-.23.04-.46.09-.69.14.01-.05.02-.11.04-.16-.14-.45-.48-.49-.87-.41h0c-.35,0-.7.02-1.05.02-1.67-.19-3.31-.65-5.01-.5-.63-.24-1.27-.19-1.92-.08-.42-.01-.84-.06-1.25-.04-4.37.24-8.64.99-12.8,2.38-3.45,1.15-6.73,2.69-9.9,4.45-2.07,1.15-2.05,1.19-.98,3.32.07.14.11.29.18.42,1.81,3.58,3.66,7.15,5.43,10.75.66,1.34.58,1.37,1.84.65.12-.07.31-.05.46-.06.1-.08.2-.15.3-.23.83-.41,1.68-.79,2.49-1.23,3.33-1.84,6.94-2.82,10.65-3.47.49-.09,1.02-.18,1.51.13.2.13.39.01.5-.21.21-.02.41-.05.62-.07.25.03.51.06.76.11,1.82.37,3.72.5,5.26,1.73-.03.74.33,1.06,1.05,1,.46.37.68.89.9,1.41.36.87.27,1.83.51,2.72-.01.25-.03.49-.04.74-1.97.37-3.97.32-5.95.45-4.31.29-8.56.91-12.73,1.99-4.5,1.17-8.78,2.86-12.43,5.84-2.77,2.26-4.71,5.09-5.41,8.61-1.07,5.38-.1,10.4,3.01,14.97,1.04,1.53,2.33,2.82,3.68,4.06.11.94.27,1.06.92.7,1.2.62,2.32,1.4,3.57,1.95,4.25,1.86,8.71,2.31,13.23,1.74,3.74-.47,7.17-1.88,10.07-4.38.73-.44,1.33-1.02,1.81-1.72.52-.24.72-.81,1.17-1.12.22.45.63.43,1.03.43-.02,1.52-.05,3.03-.05,4.55,0,1.09.02,1.11,1.13,1.11,5.61,0,11.22,0,16.84,0,1.2,0,1.21-.01,1.24-1.2,0-.21,0-.42,0-.63,0-11.77,0-23.54,0-35.31,0-.52-.06-1.04-.09-1.56Zm-21.05,14.46c-.4.26-.21.63-.18.97-.11.42-.39.8-.36,1.26-1.71,3.41-4.17,6.02-7.9,7.22-.68.01-1.36.04-2.04.03-2.92-.05-4.6-1.29-5.57-4.11-.1-.01-.21-.03-.3-.07.09.04.2.05.3.07,0-.21-.01-.42-.02-.63-.04-1.74.84-3.05,1.96-4.25,0,0,0,0,0,0,1.7-1.11,3.47-2.03,5.49-2.39.7-.13,1.39-.34,2.09-.52,1.16-.07,2.33,0,3.45-.37.21,0,.42-.02.63-.03.05.01.1.02.15.03.76.15,1.77-.32,2.25.24.56.67.1,1.68.05,2.55Zm-5.42,20.69c-.09-.04-.17-.08-.26-.11.09.04.17.08.26.11,0,0,0,0,0,0Zm6.02-3.99c.34,0,.68-.03,1.02-.02.08,0,.15-.01.23-.02-.07,0-.15,0-.23.02-.34-.01-.68.01-1.02.02Zm.87.59c-.13.18-.29.35-.4.54.11-.2.26-.36.4-.54.07-.09.13-.18.18-.28h0c-.05.1-.11.19-.18.28Z"/><path class="cls-1" d="m413.99,124.36c.07-.09.14-.18.21-.27-.17.01-.32.04-.21.27Z"/><path class="cls-1" d="m408.01,141.96l.21-.27c-.17,0-.32.04-.21.27Z"/><path class="cls-1" d="m857.33,211.76c-.12.28-.34.3-.6.25.15-.21.37-.25.6-.25Z"/><path class="cls-1" d="m857.98,211.45c-.11.3-.38.27-.62.3.14-.25.37-.29.62-.3Z"/><path class="cls-1" d="m859.23,210.82c-.15.22-.38.28-.62.31.13-.25.36-.31.62-.31Z"/><path class="cls-1" d="m858.61,211.14c-.05.14-.11.26-.29.21.1-.07.19-.14.29-.21Z"/></g></svg>