<?xml version="1.0" encoding="UTF-8"?><svg id="Capa_2" xmlns="http://www.w3.org/2000/svg" viewBox="0 0 182.9 226.87"><g id="Capa_1-2"><path d="m34.67,199.45h-5.04c-.44,0-.86.18-.99.53-.11.28-6.27,18.46-6.27,18.46,0,.01-6.2-18.19-6.31-18.46-.12-.35-.54-.53-.98-.53h-5.04c-.34,0-.79.2-.8.68,0,.09.02.2.06.3,0,0,8.71,23.42,8.85,23.73.14.32,1.15,2.63,4.2,2.71,3.05-.08,4.03-2.32,4.21-2.71.17-.4,8.85-23.73,8.85-23.73.04-.1.06-.2.06-.3,0-.48-.46-.68-.79-.68Z"/><path d="m72.41,205.7c.29-.26.35-.61.35-.84v-4.35c.01-.23-.04-.59-.34-.85-.24-.2-.5-.27-.77-.28h0s-6.37-.01-6.37-.01c-3.06,0-5.8.65-7.68,2.36-1.88,1.71-2.92,4.4-2.92,8.2v15.54c0,.32.06.66.3.93.26.3.62.36.85.36h4.35c.23,0,.58-.04.85-.33.21-.23.27-.51.28-.78v.02s.03-16.32.03-16.32c0-1.13.39-1.83,1-2.47.56-.59,1.48-.87,2.25-.87h6.85c.32,0,.65-.06.94-.3Z"/><path d="m51.49,220.53c-.28-.25-.63-.28-.95-.28l-2.31-.02c-.77,0-1.69-.29-2.25-.86-.61-.64-.99-1.34-.99-2.46v-10.85h5.55c.32.01.65-.04.94-.29.29-.26.35-.6.35-.84v-4.31c0-.23-.05-.58-.35-.85-.29-.23-.62-.29-.94-.29h-5.56s0-6.98,0-6.98c0-.32-.05-.66-.3-.94-.26-.3-.62-.35-.85-.35h-4.34c-.24,0-.59.06-.85.35-.25.28-.3.62-.3.94v23.82c0,3.79,1,6.49,2.88,8.19,1.87,1.71,4.62,2.36,7.68,2.36h1.81c.26-.03.54-.09.77-.3.29-.27.35-.61.35-.85l-.02-4.34c0-.24-.05-.6-.35-.85Z"/><path d="m91.69,201.86c4.36,0,7.94,2.42,9.57,6.49.05.11.17.19.29.19h1.99c.1,0,.2-.06.26-.13.05-.08.07-.19.04-.28-1.82-5.41-6.48-8.78-12.15-8.78-7.24,0-13.12,6.21-13.12,13.86s5.88,13.66,13.12,13.66c5.72,0,10.38-3.36,12.15-8.79.03-.09.01-.2-.04-.28-.06-.08-.16-.14-.26-.14h-1.94c-.14,0-.25.08-.3.2-1.53,4.09-5.12,6.53-9.62,6.53-5.87,0-10.65-5.02-10.65-11.2s4.77-11.35,10.65-11.35Z"/><path d="m163.27,199.35c-3.92,0-7.12,1.93-8.68,5.23-1.67-3.25-5.02-5.23-8.96-5.23-3.1,0-5.8,1.25-7.56,3.46v-2.5c0-.18-.15-.31-.32-.31h-1.84c-.18,0-.31.14-.31.31v25.66c0,.18.14.31.31.31h1.84c.17,0,.32-.14.32-.31v-16.54c0-4.39,3.17-7.57,7.56-7.57s7.61,3.18,7.61,7.57v16.54c0,.18.13.31.31.31h1.84c.18,0,.31-.14.31-.31v-16.54c0-4.39,3.18-7.57,7.57-7.57s7.6,3.18,7.6,7.57v16.54c0,.18.15.31.32.31h1.84c.18,0,.31-.14.31-.31v-16.54c0-5.84-4.24-10.08-10.08-10.08Z"/><path d="m119.3,199.35c-7.6,0-13.77,6.15-13.77,13.76s6.17,13.77,13.77,13.77,13.77-6.15,13.77-13.77-6.16-13.76-13.77-13.76Zm0,25.1c-6.26,0-11.34-5.08-11.34-11.35s5.08-11.34,11.34-11.34,11.35,5.09,11.35,11.34-5.09,11.35-11.35,11.35Z"/><path d="m72.78,220.23c-1.83,0-3.33,1.48-3.33,3.32s1.5,3.32,3.33,3.32,3.32-1.49,3.32-3.32-1.49-3.32-3.32-3.32Z"/><path d="m63.77,148.35c.56.28,1.68.8,1.68.8,7.77,3.54,16.13,4.36,23.99,2.86,0,0,0,0,0,0,4.06-.78,7.98-2.19,11.61-4.15,5.66-3.07,10.62-7.52,14.35-13.18.25-.37.48-.73.72-1.12h.01s5.92-10.25,5.92-10.25l5.25-9.08,18.69-32.36,12.3-21.29-.03-.02c.44-.74.9-1.5,1.31-2.27,3.43-6.75,4.77-14.01,4.26-21.04-.02-.25-.04-.51-.06-.77-.48-5.17-1.95-10.2-4.33-14.81-1.26-2.43-2.78-4.75-4.53-6.9-.91-1.13-1.88-2.21-2.93-3.23-.12-.12-.25-.24-.37-.36-2.78-2.66-5.97-4.97-9.58-6.81-2.26-1.14-4.58-2.06-6.92-2.76h-.02c-5.73-1.69-11.64-2.03-17.32-1.14h-.01c-6.84,1.06-13.33,3.87-18.79,8.21,0,0,0,0,0,0-3.63,2.87-6.81,6.4-9.33,10.54l-.02-.02-9.66,16.76s-.01-.04-.01-.07c-.18-1.69-.47-3.36-.85-4.99-.54-2.27-1.26-4.47-2.18-6.62-.99-2.31-2.19-4.53-3.6-6.61h0c-.83-1.23-1.75-2.43-2.71-3.57-3.33-3.91-7.46-7.25-12.32-9.73-1.96-1-3.98-1.82-6.02-2.47-.51-.17-1-.31-1.51-.45-.14-.05-.28-.08-.42-.11h0C40.59-1.26,30.39,0,21.73,4.46c-1.94,1-3.8,2.15-5.55,3.46h0c-4.81,3.56-8.89,8.27-11.8,13.97-5.69,11.15-5.64,23.72-.96,34.36.89,2.03,1.96,3.98,3.17,5.84,1.44,2.19,3.1,4.26,4.97,6.14,1.85,1.89,3.92,3.61,6.17,5.11,1.34.9,2.71,1.72,4.17,2.46.88.45,1.77.85,2.66,1.22,6.46,2.73,13.3,3.64,19.89,2.9,0,0,0,0,0,0,2.88-.32,5.7-.95,8.43-1.87,1.2-.4,2.4-.86,3.56-1.38l-8.76,15.16h.03c-.46.77-.91,1.52-1.32,2.32,0,0,0,0,0,0-.05.08-.1.16-.14.25-3.8,7.43-5.03,15.5-4.06,23.2.27,2.14.73,4.26,1.33,6.33,1.33,4.52,3.46,8.81,6.3,12.63.88,1.17,1.81,2.31,2.81,3.39,2.8,2.99,6.1,5.59,9.86,7.69.42.24.84.47,1.27.69Z"/><path d="m163.86,114.6c-10.52,0-19.04,8.52-19.04,19.04s8.52,19.04,19.04,19.04,19.04-8.52,19.04-19.04-8.52-19.04-19.04-19.04Z"/></g></svg>