<?xml version="1.0" encoding="utf-8"?>
<!-- Generator: Adobe Illustrator 25.0.1, SVG Export Plug-In . SVG Version: 6.00 Build 0)  -->
<svg version="1.1" id="katman_1" xmlns="http://www.w3.org/2000/svg" xmlns:xlink="http://www.w3.org/1999/xlink" x="0px" y="0px"
	 viewBox="0 0 560 400" style="enable-background:new 0 0 560 400;" xml:space="preserve">
<style type="text/css">
	.st0{fill:#1D1D1B;}
	.st1{fill:#FFDC00;}
</style>
<polygon class="st0" points="384.9,270.1 368.9,211.8 373,211.8 389,270.1 "/>
<polygon class="st0" points="400.3,270.1 384.3,211.8 380.2,211.8 396.2,270.1 "/>
<g>
	<path class="st1" d="M519.6,211.8v35.6c0,7.2-2.3,13.3-6.7,17.6c-4.4,4.3-10.6,6.6-17.9,6.6c-7.3,0-13.5-2.3-17.9-6.6
		c-4.4-4.3-6.7-10.4-6.7-17.6v-8.4l7.4-27.2h5.2l0,36c0,0-0.3,4.9,2.9,8.3c2,2.2,5.1,3.3,9.1,3.3c4,0,7.1-1.1,9.2-3.3
		c3.2-3.4,2.9-8.2,2.9-8.3v-0.1v-35.9H519.6z M458,211.8l-9.6,37.2l-11.7-37.2h-11.5l-11.5,36.9l-9.8-36.9h-12.5l16,58.3h11.4
		l12-38.7l12,38.7h11.5l15.9-58.3H458z"/>
	<path class="st1" d="M349.4,244.1v25.9 M342.1,225.8c-3.4,0-7.5,0.6-11,3.2v-2.7h-9.7v43.8h0h9.7h0v-26.5c0-3.9,3.1-8.6,9.3-8.6
		c5.4,0,9,3.7,9,9.1v25.9h9.7v-26.6C359.1,232.7,352.2,225.8,342.1,225.8 M226.3,225.8c-3.4,0-7.5,0.6-11,3.2v-2.7h-9.7v43.8h0h9.7
		h0v-26.5c0-3.9,3.1-8.6,9.3-8.6c5.4,0,9,3.7,9,9.1v25.9h9.7v-26.6C243.4,232.7,236.4,225.8,226.3,225.8 M256.8,205.6
		c-4.1,0-7.4,3.3-7.4,7.4c0,1.9,0.7,3.6,1.8,4.9h11.1c1.1-1.3,1.8-3,1.8-4.9C264.2,208.9,260.9,205.6,256.8,205.6 M186.8,247
		c0,0,0.9,13.7-14,13.7c-14.9,0-14-13.7-14-13.7v-35.2h-10.3v34.8c0,14.6,9.5,23.9,24.3,23.9c14.8,0,24.3-9.4,24.3-23.9v-34.9h-10.3
		V247z M304.2,248.2c0-7.7-5.3-13.3-12.6-13.3c-7.4,0-12.7,5.6-12.7,13.3c0,7.7,5.4,13.3,12.7,13.3
		C298.9,261.5,304.2,255.9,304.2,248.2 M313.9,248.2c0,12.8-9.6,22.4-22.3,22.4c-12.8,0-22.4-9.6-22.4-22.4
		c0-12.8,9.6-22.4,22.4-22.4C304.3,225.8,313.9,235.4,313.9,248.2 M252,226.2l0,43.8h9.7v-43.8H252z M342.1,153
		c-3.4,0-7.5,0.6-11,3.2v-2.7h-9.7v43.8h9.7h0v-26.5c0-3.9,3.1-8.6,9.3-8.6c5.4,0,9,3.7,9,9.1v25.9h9.7v-26.6
		C359.1,159.9,352.2,153,342.1,153 M185.9,170.5c-4.2-1-7.2-2.1-7.3-4.6c-0.1-3.3,2.9-4.3,8-4.3c2.1,0,8.8,0,8.8,0v-8.1l-8.7,0
		c-7.6,0-17.2,1.6-17.2,13c0.1,5.1,3.6,9.1,10,11.1c1.5,0.5,3,0.8,4.5,1.2c4.5,1.1,8.4,2.2,8.4,5.5c0.1,3-4,4.9-7.4,4.9
		c-6,0-9.9-3.4-11.2-4.7l-6.3,5.9c0,0,5.5,7.3,17.9,7.3c8.1,0,16.4-5.2,16.2-13.8C201.5,175.5,193.6,172.3,185.9,170.5 M271,170.8
		c-0.4-2.8-1.8-5.4-4-7.1c-2.4-1.8-4.8-2.1-7.4-2.1c-3.6,0-6.8,1.7-9.1,4.3c-1.8,2.1-2.6,4.9-2.6,4.9H271z M260.4,197.8
		c-12.8,0-22.3-9.6-22.4-22.4c0-2.8,0.5-5.7,1.5-8.3c1.5-4,4.2-7.5,7.7-10c3.8-2.7,8.5-4.1,13.1-4.1c6.1,0,11.1,2.1,14.7,6
		c2.5,2.6,4.1,6,5.1,9.4c0.9,3.1,1,6.2,1,9.4h-33.4l0.2,1c1.2,5.9,6.3,9.8,12.6,9.8c5.5,0,9.1-2.6,10.9-4.5l6.7,6.2
		C274,194.9,267.4,197.8,260.4,197.8 M152,170.8c-0.4-2.8-1.8-5.4-4-7.1c-2.5-1.8-4.8-2.1-7.4-2.1c-3.6,0-6.8,1.7-9.1,4.3
		c-1.8,2.1-2.6,4.9-2.6,4.9H152z M141.4,197.8c-12.8,0-22.3-9.6-22.4-22.4c0-2.8,0.5-5.7,1.5-8.3c1.5-4,4.2-7.5,7.7-10
		c3.8-2.7,8.5-4.1,13.1-4.1c6.1,0,11.1,2.1,14.7,6c2.5,2.6,4.1,6,5.1,9.4c0.9,3.1,1,6.2,1,9.4h-33.4l0.2,1c1.2,5.9,6.3,9.8,12.6,9.8
		c5.5,0,9-2.6,10.9-4.5l6.7,6.2C155,194.9,148.4,197.8,141.4,197.8 M110,139l-11.1,41.5L85.6,139H75.1l-13.3,41.5L50.6,139H40.4
		L56,197.3h10.2l14-43.3l14.1,43.3h10.2l15.6-58.3H110z M306.9,153.1c-2.9,0.4-6,1.4-8.7,3.6v-3.2h-9.7v43.8h9.7v-26.7
		c0-0.9,0.1-1.8,0.5-2.6c0.8-2,2.4-4.1,4.8-5.1c1.6-0.7,3.1-0.9,4.4-0.9h0c1.4,0,3.5,0.2,4.9,1v-9.4
		C312.8,153.6,309.8,152.7,306.9,153.1 M232.1,187.3l2.1,8l-1,0.5c-2.4,1.2-4.7,1.9-8.4,1.9c-7.9,0-12.8-4.9-12.8-12.7l0-23.5H204
		v-8.1h8.1v-11.6l9.7-2.6v14.2H232v8.1h-10.3l0,22.3c0,2.8,1.9,4.8,4.8,5c1.6,0.1,3.3-0.4,4.7-1.1L232.1,187.3z"/>
</g>
</svg>
