<?xml version="1.0" encoding="UTF-8" standalone="no"?>
<svg
   xmlns:dc="http://purl.org/dc/elements/1.1/"
   xmlns:cc="http://creativecommons.org/ns#"
   xmlns:rdf="http://www.w3.org/1999/02/22-rdf-syntax-ns#"
   xmlns:svg="http://www.w3.org/2000/svg"
   xmlns="http://www.w3.org/2000/svg"
   xmlns:sodipodi="http://sodipodi.sourceforge.net/DTD/sodipodi-0.dtd"
   xmlns:inkscape="http://www.inkscape.org/namespaces/inkscape"
   width="100"
   height="50"
   viewBox="0 0 80 40"
   version="1.1"
   id="svg2"
   sodipodi:version="0.32"
   inkscape:version="0.92.4 (5da689c313, 2019-01-14)"
   sodipodi:docname="Win_Sports+_logo.svg">
  <title
     id="title822">Cafam logo</title>
  <metadata
     id="metadata59">
    <rdf:RDF>
      <cc:Work
         rdf:about="">
        <dc:format>image/svg+xml</dc:format>
        <dc:type
           rdf:resource="http://purl.org/dc/dcmitype/StillImage" />
        <dc:title>Cafam logo</dc:title>
        <cc:license
           rdf:resource="http://scripts.sil.org/OFL" />
        <dc:date>3 jul 2020</dc:date>
        <dc:creator>
          <cc:Agent>
            <dc:title>EEIM</dc:title>
          </cc:Agent>
        </dc:creator>
        <dc:rights>
          <cc:Agent>
            <dc:title>N/A</dc:title>
          </cc:Agent>
        </dc:rights>
      </cc:Work>
      <cc:License
         rdf:about="http://scripts.sil.org/OFL">
        <cc:permits
           rdf:resource="http://scripts.sil.org/pub/OFL/Reproduction" />
        <cc:permits
           rdf:resource="http://scripts.sil.org/pub/OFL/Distribution" />
        <cc:permits
           rdf:resource="http://scripts.sil.org/pub/OFL/Embedding" />
        <cc:permits
           rdf:resource="http://scripts.sil.org/pub/OFL/DerivativeWorks" />
        <cc:requires
           rdf:resource="http://scripts.sil.org/pub/OFL/Notice" />
        <cc:requires
           rdf:resource="http://scripts.sil.org/pub/OFL/Attribution" />
        <cc:requires
           rdf:resource="http://scripts.sil.org/pub/OFL/ShareAlike" />
        <cc:requires
           rdf:resource="http://scripts.sil.org/pub/OFL/DerivativeRenaming" />
        <cc:requires
           rdf:resource="http://scripts.sil.org/pub/OFL/BundlingWhenSelling" />
      </cc:License>
    </rdf:RDF>
  </metadata>
  <defs
     id="defs57">
    <pattern
       y="0"
       x="0"
       height="6"
       width="6"
       patternUnits="userSpaceOnUse"
       id="EMFhbasepattern" />
  </defs>
  <sodipodi:namedview
     inkscape:window-height="705"
     inkscape:window-width="1366"
     inkscape:pageshadow="2"
     inkscape:pageopacity="0"
     guidetolerance="1"
     gridtolerance="1"
     objecttolerance="1"
     borderopacity="1.0"
     bordercolor="#666666"
     pagecolor="#ffffff"
     id="base"
     inkscape:zoom="7.9949406"
     inkscape:cx="50.543842"
     inkscape:cy="30.499628"
     inkscape:window-x="-8"
     inkscape:window-y="-8"
     inkscape:current-layer="g10"
     showgrid="false"
     showguides="true"
     inkscape:showpageshadow="false"
     units="px"
     inkscape:window-maximized="1"
     inkscape:snap-path-clip="false"
     inkscape:snap-path-mask="false"
     inkscape:snap-perpendicular="false"
     inkscape:snap-tangential="false" />
  <g
     id="#ffffffff"
     transform="translate(0,-1101)" />
  <g
     id="#2acbffff-4"
     transform="matrix(0.74035173,0,0,0.75447038,-840.95699,-787.15387)"
     style="fill:#00ff00" />
  <g
     id="#000000ff-6"
     transform="matrix(0.14544439,0,0,0.14544439,32.622855,-7.939333)" />
  <g
     id="g10"
     transform="matrix(0.43980104,0,0,0.43980104,-2.3278823,-28.323837)"
     style="clip-rule:evenodd;fill-rule:evenodd">
    <g
       id="g904"
       transform="matrix(0.1094571,0,0,0.1094571,106.59007,-185.1088)">
      <rect
         y="2282.365"
         x="-918.8515"
         height="825"
         width="1650"
         id="rect828"
         style="opacity:1;fill:#0e4194;fill-opacity:1;stroke:none;stroke-width:0;stroke-miterlimit:4;stroke-dasharray:none;stroke-opacity:1" />
      <g
         style="fill:#ffffff"
         transform="translate(-918.85113,2282.3653)"
         id="#ffffffff-0">
        <path
           style="opacity:1;fill:#ffffff"
           inkscape:connector-curvature="0"
           id="path9"
           d="m 779.95,116.06 c 21.07,-7.46 43.76,-9.4 65.97,-8.28 21.07,1.36 42.96,6.9 59.2,21.06 9.16,7.69 14.49,19.36 15.31,31.21 0.82,11.22 -2.29,22.44 -7.77,32.18 -11.62,-9.51 -24.1,-18.29 -38.3,-23.49 -22.69,-8.77 -48.32,-8.3 -71.24,-0.63 -13.11,4.45 -25.1,12.43 -33.78,23.28 -11.35,13.98 -17.45,31.4 -21.2,48.81 -5.02,23.92 -6.07,48.47 -5.89,72.85 -0.02,45.37 1.39,90.74 4.18,136.03 34.09,-1.46 68.03,-6.62 101.01,-15.39 12.69,-32.6 23.81,-65.83 32.97,-99.59 7.35,-26.86 13.29,-54.07 18.93,-81.33 14.56,0.1 29.37,-1.22 43.67,2.25 8.65,2.03 17.11,6.08 22.99,12.9 5.04,5.73 7.81,13.01 9.84,20.27 7.18,25.32 14.76,50.52 22.61,75.63 7.9,-4.31 13.42,-11.49 19.35,-18.03 24.19,-27.63 44.23,-58.75 60.52,-91.62 11.71,-2.23 24.01,-1.91 35.55,1.11 11.51,3.04 19.94,12.57 24.81,23.05 8.3,17.5 12.14,36.67 16.08,55.52 8.77,45.43 15.01,91.29 21.93,137.03 18.9,-71.41 36.9,-143.06 55.23,-214.62 5.36,-1.08 10.54,-3.11 16.07,-3.27 10.16,-0.52 21.07,0.37 29.74,6.21 8.21,5.53 13.05,14.63 16.46,23.67 6.5,18.06 9.39,37.14 12.55,56 6.81,44.03 12.77,88.19 20.33,132.1 11.75,-41.48 22.17,-83.33 32.83,-125.1 7.52,-29.89 15.03,-59.78 22.36,-89.71 9.45,-3.36 19.74,-4.08 29.65,-2.67 10.52,1.69 19.35,8.85 25.09,17.57 9.9,15 14.55,32.66 18.9,49.89 9.87,42.24 16.12,85.33 28.21,127.05 12.51,44.31 31.25,87.78 61.36,123.08 -13.16,11.64 -31.11,16.71 -48.45,16.42 -10.19,-0.19 -19.14,-6.35 -25.78,-13.65 -10.85,-12.03 -17.99,-26.84 -24.29,-41.62 -15.05,-36.64 -24.48,-75.21 -34.59,-113.41 -5.09,-18.79 -9.58,-37.8 -15.95,-56.2 -10.36,41.27 -19.65,82.79 -28.88,124.32 -5.2,23.67 -10.32,47.36 -14.88,71.15 -1.57,8.45 -3.22,16.89 -4.03,25.45 -9.75,3.72 -20.38,3.85 -30.67,3.98 -7.49,0.17 -14.68,-3.35 -19.78,-8.71 -7.39,-7.69 -11.73,-17.68 -15.27,-27.58 -5.51,-16.05 -8.74,-32.77 -11.63,-49.45 -4.83,-28.7 -8.12,-57.63 -12.97,-86.33 -3.06,-17.75 -6.56,-35.49 -12.28,-52.6 -15.26,64.82 -30.7,129.62 -43.71,194.93 -1.59,8.49 -3.25,16.99 -4.09,25.59 -9.26,3.54 -19.3,5.1 -29.2,4.64 -10.19,-0.51 -19.16,-6.93 -24.92,-15.04 -8.58,-11.93 -13.06,-26.18 -16.9,-40.19 -5.78,-22.13 -9.34,-44.75 -12.96,-67.31 -6.91,-44.21 -13.43,-88.59 -24.35,-132.03 -20.61,30.93 -45.37,59.18 -73.85,83.1 7.42,21.63 15.58,43 24.46,64.07 8.66,20.33 18.08,40.4 29.6,59.29 6.03,10.03 13.1,19.36 20.11,28.72 -8.63,6.86 -18.47,12.38 -29.17,15.22 -8.72,2.29 -18.36,2.61 -26.7,-1.26 -11.63,-5.23 -20.25,-15.2 -27.42,-25.44 -12.14,-17.8 -20.75,-37.69 -28.55,-57.68 -6.9,-17.92 -12.95,-36.16 -18.65,-54.49 -23.78,11.81 -48.48,21.71 -73.75,29.85 -8.67,25.76 -18.27,51.45 -32.24,74.87 -6.87,11.05 -14.86,22.13 -26.35,28.76 -14.12,8.09 -33.58,4.49 -43.89,-8.11 14.17,-26.09 27.46,-52.65 39.79,-79.66 -24.15,4.49 -48.6,7.3 -73.13,8.42 3.92,44.22 9.15,88.39 17.75,131.97 1.99,10.28 4.36,20.48 6.27,30.77 3.6,18.93 -4.04,39.27 -18.58,51.77 -8.35,7.14 -18.84,13.07 -30.14,12.61 -7.24,-37.97 -14.09,-76.03 -19.61,-114.29 -5.47,-37.56 -9.52,-75.32 -12.65,-113.14 -17.52,-1.09 -34.99,-2.98 -52.33,-5.74 6.61,19.55 14.17,38.89 24.37,56.88 3.4,6.04 7.27,11.79 10.9,17.69 -11.96,8.92 -26,16.18 -41.16,16.86 -9.65,0.49 -18.78,-4.36 -25.29,-11.21 -9.97,-10.25 -16.2,-23.42 -21.55,-36.51 -7.69,-19.44 -12.97,-39.72 -17.73,-60.04 -23.68,-7.15 -46.84,-16.04 -69.22,-26.56 -15.08,30.88 -34.1,60.2 -58.8,84.28 -19.65,19.52 -43.54,34.65 -69.32,44.68 -43.79,16.93 -93.61,17.47 -137.8,1.66 -47.71,-16.82 -88.25,-52.7 -110.9,-97.91 -15.55,-30.71 -22.78,-65.54 -20.93,-99.9 1.82,-37.31 14.55,-73.99 36.21,-104.43 21.77,-30.8 52.47,-55.23 87.45,-69.38 34.23,-13.98 72.41,-17.99 108.82,-11.65 11.46,2.09 23.02,4.6 33.46,9.98 12.57,5.92 24.25,15.77 28.82,29.27 5.23,14.67 3.25,31.63 -5.16,44.74 -22.23,-17.49 -49.71,-28.22 -77.96,-30.05 -30.26,-2.29 -61.15,5.52 -86.72,21.86 -25.64,16.23 -45.92,40.8 -56.85,69.13 -11.86,30.32 -12.84,64.73 -2.81,95.7 11.49,36.16 38.12,67.13 72.06,84.05 33.69,17.12 74.27,19.92 110.02,7.69 18.77,-6.45 36.43,-16.59 50.68,-30.49 21.24,-20.35 36.93,-45.66 50.28,-71.66 0.72,-1.35 1.06,-2.84 1.25,-4.33 -13.37,-7.87 -23.26,-21.35 -26.84,-36.44 -3.14,-12.9 -1.6,-26.79 4.07,-38.78 13.98,10.84 28.54,20.93 43.59,30.23 16.75,-41.71 30.72,-84.46 44.7,-127.16 13.73,0.27 27.72,-1.39 41.21,1.92 9.36,2.22 18.32,7.11 24.32,14.77 5.52,6.86 8.43,15.43 9.96,24.02 8.77,49.35 18.53,98.58 31.01,147.14 21.27,4.51 42.85,7.56 64.53,9.18 -1.69,-28.09 -2.9,-56.21 -3.56,-84.33 -0.92,-45.35 -2.28,-91.33 7.87,-135.86 7.02,-31.29 19.83,-62.46 43.03,-85.28 12.16,-11.94 27,-21.1 43.08,-26.75 M 520.49,403.72 c 12.54,6.08 25.45,11.35 38.49,16.24 -5.61,-30.84 -10.63,-61.78 -16.68,-92.53 -5.89,25.79 -12.82,51.39 -21.81,76.29 M 904.04,415 c 14,-5.66 27.74,-11.97 41.17,-18.87 -6.53,-22.56 -12.91,-45.17 -19.75,-67.64 -6.68,28.95 -13.68,57.82 -21.42,86.51 z" />
      </g>
    </g>
  </g>
</svg>
