<svg id="Capa_1" data-name="Capa 1" xmlns="http://www.w3.org/2000/svg" viewBox="0 0 313.18 226.21"><defs><style>.cls-1{fill:#5f7eba;}.cls-2{fill:#43649c;}</style></defs><title>logo-gtd-azul</title><path class="cls-1" d="M183.3,152l-.06-52.19H206.3V65H183.24V37a24.25,24.25,0,0,0-24.05-24.12H148.51V65.11H130.66A34.79,34.79,0,0,0,96.32,99.9V100h0v26h0A26.12,26.12,0,0,1,70.19,152l-17.34.07v0h-.07a43.49,43.49,0,0,0,0,87l.49,0h77.81a34.78,34.78,0,0,0-34.67-34.78H52.74v0a8.7,8.7,0,0,1,0-17.4v0h0v0l17.43,0a60.91,60.91,0,0,0,60.89-60.91h0V99.84h17.4l0,62.67s0,.07,0,.11,0,.07,0,.11a24.24,24.24,0,0,0,24,24.13h10.87v0h23V152Z" transform="translate(-9.3 -12.82)"/><rect class="cls-2" x="139.23" y="52.27" width="34.73" height="34.73"/><path class="cls-1" d="M131.08,125.9A60.89,60.89,0,1,1,70.19,65,60.9,60.9,0,0,1,131.08,125.9ZM70.18,99.82a26.11,26.11,0,1,0,26.11,26.1A26.11,26.11,0,0,0,70.18,99.82Z" transform="translate(-9.3 -12.82)"/><path class="cls-2" d="M105.55,76.31A34.67,34.67,0,0,0,96.32,99.9V100h0v26h0a26.78,26.78,0,0,1-.47,4.86c0,.13,0,.27-.06.4A26.12,26.12,0,0,1,70.18,152h0l-17.32.07v0h-.07a43.36,43.36,0,0,0-30,12,60.76,60.76,0,0,0,47.43,22.73c.41,0,.81,0,1.21,0,.64,0,1.29,0,1.93,0,.14,0,.27,0,.41,0,.9-.05,1.79-.11,2.68-.2l.64-.08a60.5,60.5,0,0,0,24.56-8.34l.14-.09a60.28,60.28,0,0,0,6.25-4.37c.3-.24.61-.47.91-.72s.49-.43.74-.63c.49-.43,1-.85,1.47-1.28.26-.23.5-.48.75-.71.46-.44.92-.86,1.37-1.31s1.08-1.12,1.61-1.69l.4-.42c.35-.39.68-.79,1-1.18s.61-.68.9-1,.44-.57.67-.85c.38-.48.77-1,1.13-1.45s.54-.75.81-1.13.6-.83.89-1.26.48-.75.72-1.12.59-.89.86-1.35.41-.71.62-1.07.58-1,.85-1.48c.17-.31.33-.64.49-1,.29-.55.58-1.1.86-1.67.17-.35.32-.71.48-1.07.25-.54.5-1.07.73-1.62s.33-.82.49-1.23.41-1,.6-1.54.33-1,.49-1.44.33-.92.47-1.39.28-1,.42-1.47.28-.94.4-1.42.25-1.08.38-1.62.21-.88.3-1.32.19-1,.28-1.55.18-1,.26-1.46.11-.88.17-1.32.16-1.15.22-1.73.07-1,.11-1.49.09-1.06.12-1.6,0-1,0-1.54,0-1,0-1.59h0A60.87,60.87,0,0,0,105.55,76.31Z" transform="translate(-9.3 -12.82)"/><path class="cls-1" d="M322.42,125.84a61,61,0,1,1-61-60.86A60.92,60.92,0,0,1,322.42,125.84Zm-61.09-26a26.12,26.12,0,1,0,26.11,26.12A26.12,26.12,0,0,0,261.33,99.81Z" transform="translate(-9.3 -12.82)"/><path class="cls-1" d="M322.47,37a24.31,24.31,0,0,0-24.2-24.12H287.68v174h34.79V37Z" transform="translate(-9.3 -12.82)"/><path class="cls-2" d="M287.68,70.89v109.9a60.83,60.83,0,0,0,0-109.9Z" transform="translate(-9.3 -12.82)"/></svg>