<?xml version="1.0" encoding="UTF-8"?><svg id="Capa_2" xmlns="http://www.w3.org/2000/svg" viewBox="0 0 85.04 15.3"><defs><style>.cls-1{fill:#e3251d;stroke-width:0px;}</style></defs><g id="Capa_1-2"><path class="cls-1" d="m14.38,5.75c.02-.34-.25-1.41-1.68-1.41-2.3,0-3.56,2.25-3.39,3.93.14,1.33.99,3.04,3.76,3.04,3.2,0,5.42-2.03,6.66-3.57,0,0,.74-.83,1.88-2.75.98-1.66,1.23-2.73,1.29-3.16.01-.07.01-.17-.02-.24-.02-.05-.05-.1-.11-.16-.49-.45-3.2-1.25-11.32-1.25S.63.97.14,1.42c-.06.05-.09.1-.11.16-.03.07-.03.17-.02.24.06.43.4,1.41,1.4,3.06,1.16,1.91,1.78,2.85,1.78,2.85,0,0-.62.93-1.78,2.85C.4,12.23.07,13.21,0,13.64c-.01.07-.01.17.02.24.02.05.05.1.11.16.49.45,3.2,1.25,11.32,1.25s10.82-.81,11.32-1.25c.06-.06.09-.1.11-.16.03-.07.03-.17.02-.24-.06-.43-.4-1.41-1.4-3.06-.55-.9-.97-1.59-1.27-2.06-1.15,1.47-3.94,4.41-7.73,4.41-4.73,0-6.05-3.25-6.05-4.8,0-2.01,1.2-5.53,6.09-5.53,2.02,0,4,1.14,4,2.71s-1.24,2-1.94,2-1.04-.32-1.04-.32c0,0,.75-.39.81-1.24"/><path class="cls-1" d="m31.97,5.03h.01c.69,0,1.25.26,1.69.76.23.27.42.43.67.43.14,0,.28-.04.5-.14.27-.13.54-.29.54-.58,0-.14-.06-.29-.19-.47-.76-1.11-1.96-1.7-3.49-1.7h-.03c-2.83,0-4.74,1.79-4.76,4.45,0,1.26.42,2.34,1.23,3.13.83.8,2.02,1.23,3.42,1.23h.03c1.6,0,2.84-.6,3.58-1.73.12-.19.17-.32.18-.44,0-.25-.22-.41-.46-.54-.2-.11-.34-.16-.47-.16-.21,0-.37.12-.59.35-.51.53-1.14.8-1.88.8h-.01c-.74,0-1.34-.29-1.75-.81-.37-.48-.56-1.15-.56-1.89,0-1.67.88-2.67,2.34-2.67"/><path class="cls-1" d="m51.68,3.42c-.69.03-1.41.34-1.88.81-.04.04-.07.07-.09.08,0-.02,0-.05,0-.1,0-.46-.17-.62-.66-.62h-1c-.72,0-.96.22-.97.9l-.03,6.62c0,.36.06.57.21.71.15.14.38.2.77.2h.69c.72,0,.96-.23.97-.9l.02-4.06c0-1.02.73-1.7,1.8-1.7.07,0,.14,0,.2,0,.11.01.22.02.33.02.56,0,.76-.21.77-.81,0-.5-.07-.78-.26-.95-.17-.16-.44-.23-.85-.21"/><path class="cls-1" d="m57.82,10.62h-.01c-.68,0-1.21-.29-1.56-.84-.31-.49-.48-1.17-.47-1.97,0-1.32.55-2.74,2.06-2.74v-.08.08c1,0,2.06.73,2.05,2.77,0,1.74-.78,2.77-2.06,2.77m.08-7.18h-.03c-2.91,0-4.8,1.75-4.81,4.45-.01,2.64,1.84,4.35,4.72,4.36h.03c1.47,0,2.69-.43,3.54-1.25.81-.79,1.25-1.89,1.26-3.2,0-1.22-.43-2.31-1.24-3.09-.85-.82-2.05-1.26-3.46-1.27"/><path class="cls-1" d="m70.51,10.3h-2.9c-.14-.01-.24-.03-.3-.06-.05-.02-.06-.05-.06-.08,0-.05.03-.13.15-.28l3.73-4.71c.29-.37.33-.46.33-.92,0-.22-.04-.35-.13-.44-.09-.09-.24-.13-.47-.13l-6.08-.03h-.02c-.72,0-.96.23-.97.9,0,.68.24.91.97.91h2.49c.14.01.24.03.3.05.05.02.06.05.06.08,0,.05-.03.13-.15.28l-3.74,4.71c-.29.37-.32.46-.33.92,0,.43.15.57.61.57l6.49.03h.02c.73,0,.96-.22.96-.91,0-.69-.23-.91-.97-.91"/><path class="cls-1" d="m79.57,10.34h-2.9c-.17-.01-.37-.04-.37-.14,0-.04.03-.13.15-.28l3.73-4.71c.29-.37.32-.46.33-.92,0-.42-.15-.56-.61-.57l-6.08-.03h-.02c-.72,0-.96.23-.97.9,0,.36.06.57.21.71.15.14.38.2.77.2h2.49c.24.01.37.05.37.13,0,.05-.03.13-.15.28l-3.74,4.71c-.29.37-.33.46-.33.92,0,.22.04.36.13.44.09.09.24.13.48.13l6.49.03h.02c.72,0,.96-.23.97-.91,0-.68-.24-.91-.97-.91"/><path class="cls-1" d="m83.5,2.84h0c.86,0,1.53-.63,1.54-1.42,0-.39-.15-.74-.44-1.01-.28-.26-.67-.41-1.1-.41-.86,0-1.54.62-1.55,1.4,0,.79.69,1.43,1.54,1.44"/><path class="cls-1" d="m83.83,3.73h-.67c-.72,0-.96.23-.97.9l-.03,6.63c0,.69.23.91.97.91h.67c.72,0,.96-.22.97-.9l.03-6.63c0-.69-.23-.91-.97-.91"/><path class="cls-1" d="m40.8,10.19h-.02c-.83,0-1.88-.85-1.88-2.42,0-1.13.6-2.41,1.9-2.41h.01c1.28,0,1.87,1.23,1.87,2.41,0,1.41-.72,2.42-1.88,2.42m3.55-6.62h-.66c-.36,0-.57.06-.71.19-.12.12-.18.29-.19.56-.59-.58-1.59-.8-2.39-.81h-.03c-2.23,0-3.99,1.86-4,4.23,0,1.2.39,2.3,1.12,3.08.73.78,1.74,1.22,2.84,1.23h.02c.97,0,1.99-.43,2.45-.95v.05c0,.63.23.84.9.84h.64c.36,0,.57-.06.71-.19.13-.13.19-.33.19-.66v-6.74c0-.64-.22-.84-.88-.84"/></g></svg>