<?xml version="1.0" encoding="UTF-8"?><svg id="Capa_2" xmlns="http://www.w3.org/2000/svg" viewBox="0 0 561.87 230.77"><g id="Capa_1-2"><g id="_8gC6aZ.tif"><path d="m275.04.27c.31,0,.62.02.93.04,6.83.61,12.39,3.71,16.81,8.89,4.51,5.28,6.49,11.52,6.42,18.46.09.03.19.05.28.08.38-.41.79-.8,1.15-1.24,9.2-11.4,21.19-18.39,35.18-22.17,5.21-1.41,10.52-2.19,15.91-2.49,13.72-.76,26.82,1.76,39.14,7.81,11.87,5.83,21.34,14.37,27.87,25.99.94,1.68.95,2.14,2.29.16,5.04-7.47,10.89-14.23,18.11-19.71,7.18-5.45,15.09-9.46,23.82-11.77,5.08-1.35,10.24-2.14,15.5-2.51,10.89-.75,21.59.26,31.94,3.75,9.36,3.16,17.7,8.14,25.04,14.79,7.17,6.51,12.9,14.11,17.27,22.71,4.08,8.03,6.89,16.51,7.97,25.47.54,4.5.96,9.05.98,13.57.14,35.38.18,70.77.22,106.15,0,5.39-.13,10.78-.2,16.16-.05,3.56-.56,7.05-1.88,10.36-1.76,4.4-4.73,7.92-8.49,10.72-5.1,3.79-10.93,5.62-17.25,5.11-5.76-.46-10.92-2.69-15.27-6.64-4.64-4.22-7.39-9.42-8.28-15.62-.17-1.16-.23-2.33-.23-3.5-.01-21.78.01-43.56-.02-65.35-.02-13.82-.19-27.63-.16-41.45.01-5.58-.34-11.1-1.68-16.51-1.78-7.18-4.53-13.99-9.36-19.7-4.02-4.75-9.04-8.19-15-10.22-5.24-1.79-10.62-2.36-16.11-2.12-6.98.31-13.33,2.37-19.18,6.32-6.79,4.6-10.77,11.17-13.85,18.45-2.12,5.01-3.4,10.27-3.97,15.69-.23,2.24-.27,4.51-.27,6.76-.02,10.95.02,21.91,0,32.86-.05,20.15-.12,40.3-.21,60.45,0,2.02-.22,4.03-.3,6.05-.03.81.01,1.61.03,2.42.1,4.37.31,8.77-.78,13.06-1.82,7.12-6.22,12.28-12.53,15.86-3.6,2.04-7.52,3.17-11.65,3.22-7.66.08-14.19-2.7-19.47-8.27-4.66-4.92-6.89-10.87-6.91-17.6-.04-19.34,0-38.69-.04-58.03-.03-15.67-.08-31.34-.21-47.01-.03-4.13-.16-8.29-.63-12.39-.96-8.44-3.42-16.46-8.56-23.32-5.41-7.22-12.55-12-21.56-13.73-4.83-.93-9.68-1.06-14.56-.45-8.19,1.03-15.2,4.46-20.89,10.4-4.19,4.38-7.1,9.61-9.29,15.25-1.67,4.32-2.87,8.75-3.37,13.35-.22,2-.29,4.03-.3,6.05-.02,28.21,0,56.42-.02,84.63,0,2.25-.23,4.5-.31,6.76-.03,1.01.1,2.02.1,3.02-.03,5.76.04,11.53-.16,17.28-.33,9.37-5.14,16.05-12.97,20.71-3.26,1.94-6.91,3.12-10.7,3.32-8.2.42-15.16-2.41-20.7-8.31-4.05-4.31-6.4-9.47-6.68-15.42-.21-4.34-.19-8.69-.19-13.03-.01-55.14,0-110.27-.01-165.41,0-4.93.61-9.73,2.84-14.21,3.65-7.33,9.5-11.81,17.51-13.44,2.68-.52,5.72-.55,6.92-.54Z"/><path d="m65.72,0c.46.61.89,1.24,1.39,1.83,7.89,9.3,15.79,18.59,23.67,27.89,6.88,8.12,13.75,16.26,20.63,24.38,6.16,7.27,12.34,14.53,18.52,21.79,1.13,1.33,1.27,1.31,2.42-.04,5.95-7.01,11.9-14.02,17.85-21.03,9.22-10.86,18.44-21.73,27.66-32.59,3.75-4.42,7.46-8.86,11.24-13.26,3.73-4.34,8.44-7.04,14.07-8.1.88-.17,1.81-.07,2.71-.08,2.12,0,4.26-.2,6.36.03,4.88.55,9.06,2.75,12.62,6.06,5.18,4.83,7.85,10.79,7.9,17.93.04,6.12-1.86,11.48-5.82,16.14-11.89,13.99-23.75,28.01-35.63,42.01-8.83,10.4-17.66,20.8-26.5,31.2-1.21,1.42-1.23,1.41-.02,2.83,8.14,9.62,16.27,19.24,24.41,28.86,9.21,10.87,18.44,21.73,27.65,32.6,3.25,3.83,6.49,7.66,9.69,11.52,2.81,3.39,4.69,7.28,5.25,11.64,1.13,8.88-1.43,16.5-8.28,22.49-4.63,4.05-10.14,6.1-16.19,6.11-7.06,0-13.25-2.63-18.11-7.83-3.1-3.32-5.94-6.89-8.88-10.36-11.46-13.52-22.92-27.03-34.37-40.55-4.72-5.58-9.43-11.17-14.13-16.77-.48-.57-.81-.67-1.33-.04-4.14,4.97-8.29,9.93-12.48,14.86-7.97,9.4-15.97,18.78-23.96,28.18-6.31,7.41-12.63,14.82-18.92,22.25-2.65,3.13-5.25,6.32-7.86,9.49-1.11,1.35-2.32,1.67-4.41,1.02.2-.29.35-.57.55-.81,7.21-8.5,14.43-17,21.65-25.5,7.33-8.63,14.66-17.26,21.99-25.88,11.17-13.15,22.34-26.29,33.5-39.44,6.34-7.47,12.66-14.97,19.02-22.43.65-.76.33-1.23-.16-1.81-3.08-3.61-6.16-7.23-9.23-10.86-6.65-7.83-13.29-15.67-19.94-23.5-10.14-11.94-20.3-23.86-30.44-35.8-8.2-9.65-16.38-19.32-24.59-28.97-4.13-4.85-8.29-9.67-12.44-14.5C62.49.62,62.18.32,61.88,0c1.28,0,2.56,0,3.84,0Z"/><path d="m3.44,0c1.27,1.53,2.52,3.06,3.8,4.58,6.4,7.56,12.82,15.1,19.22,22.66,7.82,9.22,15.64,18.45,23.47,27.67,7.35,8.65,14.71,17.3,22.06,25.95,9.55,11.24,19.09,22.5,28.68,33.72.75.88.5,1.4-.12,2.12-4.38,5.12-8.74,10.25-13.09,15.39-5.94,7.02-11.86,14.05-17.8,21.07-5.87,6.94-11.75,13.88-17.64,20.81-6.88,8.08-13.78,16.14-20.65,24.23-5.94,6.98-11.86,13.97-17.77,20.97-3.07,3.63-6.1,7.29-9.18,10.9-.28.33-.82.56-1.26.61-.81.1-1.64.03-2.46.03-.03-.1-.06-.2-.09-.3.62-.74,1.23-1.48,1.85-2.21,7.37-8.68,14.74-17.36,22.11-26.04,7.28-8.58,14.57-17.15,21.86-25.73,9.46-11.15,18.92-22.3,28.38-33.45,5.62-6.63,11.25-13.26,16.87-19.88,1.88-2.21,3.73-4.43,5.65-6.61.56-.64.56-1.11.02-1.74-3.67-4.31-7.31-8.65-10.96-12.96-5.82-6.86-11.64-13.72-17.46-20.57-9.26-10.92-18.53-21.83-27.79-32.75-10.03-11.81-20.07-23.62-30.11-35.42C7.53,8.96,4.05,4.89.58.81.36.56.19.27,0,0c1.15,0,2.29,0,3.44,0Z"/><path d="m24.27,0c.54.71,1.04,1.45,1.61,2.13,6.49,7.66,12.99,15.31,19.49,22.96,9.14,10.76,18.28,21.52,27.41,32.28,9.18,10.81,18.36,21.62,27.54,32.43,7.11,8.37,14.21,16.74,21.34,25.1.42.49.41.84,0,1.31-4.13,4.85-8.25,9.7-12.37,14.55-4.29,5.06-8.57,10.13-12.86,15.19-4.75,5.6-9.5,11.2-14.25,16.8-5.53,6.53-11.03,13.08-16.57,19.6-6.4,7.52-12.84,14.99-19.23,22.51-6.98,8.21-13.93,16.45-20.85,24.71-.7.83-1.4,1.28-2.48,1.13-.52-.07-1.06-.01-1.84-.01.32-.5.48-.81.7-1.07,7.59-8.93,15.19-17.86,22.78-26.79,7.09-8.34,14.19-16.68,21.27-25.03,9.28-10.94,18.55-21.9,27.83-32.84,5.84-6.88,11.7-13.75,17.54-20.63,2.05-2.41,4.09-4.84,6.14-7.25,1.28-1.51,1.29-1.5.02-3-3.85-4.55-7.7-9.11-11.55-13.66-9.22-10.87-18.44-21.73-27.66-32.59-7.5-8.83-15.01-17.66-22.51-26.49-9.2-10.84-18.4-21.67-27.6-32.51C25.66,5.88,23.14,2.94,20.63,0,21.84,0,23.05,0,24.27,0Z"/><path d="m44.89,0c1.57,1.89,3.12,3.79,4.7,5.67,7.76,9.15,15.52,18.29,23.28,27.43,5.58,6.57,11.18,13.13,16.76,19.71,6.52,7.68,13.02,15.37,19.54,23.05,5.63,6.63,11.26,13.24,16.89,19.86,5.06,5.96,10.11,11.92,15.17,17.88q1.68,1.98-.03,3.99c-5.37,6.36-10.72,12.73-16.1,19.07-6.43,7.58-12.9,15.12-19.33,22.69-7.57,8.91-15.13,17.82-22.69,26.74-7.52,8.86-15.04,17.71-22.55,26.59-4.92,5.81-9.79,11.65-14.7,17.47-.2.23-.52.49-.8.51-.97.06-1.94.02-3.21.02,32.66-38.49,65.14-76.78,97.66-115.12-2.1-2.49-4.15-4.9-6.19-7.31-5.82-6.86-11.63-13.72-17.46-20.58-5.61-6.6-11.23-13.18-16.83-19.78-11.21-13.2-22.4-26.41-33.61-39.61-5.52-6.5-11.05-12.98-16.57-19.48C46.36,5.89,43.92,2.94,41.45,0c1.15,0,2.29,0,3.44,0Z"/></g></g></svg>