<?xml version="1.0" encoding="UTF-8"?><svg id="Capa_2" xmlns="http://www.w3.org/2000/svg" viewBox="0 0 85.04 18.17"><defs><style>.cls-1{fill:#434342;}.cls-1,.cls-2{stroke-width:0px;}.cls-2{fill:#ea514c;}</style></defs><g id="Capa_1-2"><path class="cls-2" d="m6.54,9.71c0,1.42-1.26,2.63-2.27,2.63-.83,0-1.51-.43-1.78-1.21v-7.02H0v7.17c.07,1.07,1.03,3.06,3.25,3.06s3.39-1.73,3.39-1.73v1.51h2.42V4.12h-2.53v5.59Z"/><path class="cls-2" d="m17.35,0v5.43c-.77-.96-1.85-1.56-3.04-1.56-2.36,0-4.27,1.62-4.27,5.24,0,2.9,1.27,5.24,4.27,5.24,1.19,0,2.26-.6,3.04-1.56v1.34h2.46V0h-2.46Zm-2.29,12.33c-1.6,0-2.28-1.44-2.28-3.22,0-2.23,1.02-3.22,2.28-3.22s2.28,1.44,2.28,3.22-1.02,3.22-2.28,3.22Z"/><path class="cls-2" d="m23.49,18.17v-5.43c.77.96,1.85,1.56,3.04,1.56,2.36,0,4.27-1.62,4.27-5.24,0-2.9-1.27-5.24-4.27-5.24-1.19,0-2.26.6-3.04,1.56v-1.34h-2.46v14.13h2.46Zm2.29-12.33c1.6,0,2.28,1.44,2.28,3.22,0,2.23-1.02,3.23-2.28,3.23s-2.28-1.44-2.28-3.23c0-1.78,1.02-3.22,2.28-3.22Z"/><path class="cls-1" d="m32.5,3.99c0-.06.05-.11.11-.11h.23c.07,0,.11.05.11.11v2.52c0,.69.43,1.22,1.13,1.22s1.15-.52,1.15-1.21v-2.53c0-.06.05-.11.11-.11h.23c.06,0,.11.05.11.11v2.55c0,.92-.65,1.62-1.6,1.62s-1.59-.7-1.59-1.62v-2.55h0Z"/><path class="cls-1" d="m37.18,3.93c0-.06.05-.11.11-.11h.15l2.72,3.39h.01v-3.22c0-.06.05-.11.11-.11h.21c.06,0,.11.05.11.11v4.06c0,.06-.05.11-.11.11h-.11l-2.77-3.46h0v3.28c0,.06-.05.11-.11.11h-.21c-.06,0-.11-.05-.11-.11V3.93Z"/><path class="cls-1" d="m42.27,3.88h.24c.06,0,.11.05.11.11v3.99c0,.06-.05.11-.11.11h-.24c-.06,0-.11-.05-.11-.11v-3.99c0-.06.05-.11.11-.11Z"/><path class="cls-1" d="m43.58,4.04c-.04-.08.01-.16.1-.16h.24c.05,0,.09.04.1.07l1.5,3.38h.02l1.5-3.38s.05-.07.1-.07h.24c.09,0,.14.08.1.16l-1.83,4.06s-.05.07-.1.07h-.06s-.08-.03-.1-.07l-1.82-4.06Z"/><path class="cls-1" d="m48.47,3.99c0-.06.05-.11.11-.11h2.38c.07,0,.11.05.11.11v.18c0,.06-.05.11-.11.11h-2.03v1.47h1.73c.06,0,.11.05.11.11v.17c0,.07-.05.11-.11.11h-1.73v1.54h2.03c.07,0,.11.05.11.12v.17c0,.06-.05.11-.11.11h-2.38c-.07,0-.11-.05-.11-.11v-3.99Z"/><path class="cls-1" d="m52.34,3.99c0-.06.05-.11.11-.11h1.56c.72,0,1.31.57,1.31,1.28,0,.55-.37,1.02-.89,1.23l.83,1.53c.04.08,0,.17-.1.17h-.31c-.05,0-.08-.03-.1-.05l-.8-1.6h-1.15v1.54c0,.06-.05.11-.11.11h-.23c-.07,0-.11-.05-.11-.11v-3.99h0Zm1.65,2.06c.46,0,.87-.39.87-.88,0-.46-.4-.85-.87-.85h-1.17v1.73h1.17Z"/><path class="cls-1" d="m56.36,7.47s.06-.08.09-.11c.06-.08.13-.13.21-.05.04.04.48.46,1.02.46.49,0,.81-.31.81-.66,0-.42-.36-.66-1.06-.95-.66-.29-1.06-.56-1.06-1.25,0-.41.33-1.07,1.28-1.07.59,0,1.03.31,1.03.31.04.02.11.09.04.2-.02.04-.05.08-.07.12-.05.08-.11.11-.21.05-.04-.02-.42-.28-.79-.28-.64,0-.83.41-.83.66,0,.4.31.64.81.85.81.33,1.34.64,1.34,1.34,0,.63-.6,1.09-1.3,1.09s-1.19-.42-1.27-.49c-.05-.04-.11-.09-.04-.21Z"/><path class="cls-1" d="m60.27,3.88h.24c.06,0,.11.05.11.11v3.99c0,.06-.05.11-.11.11h-.24c-.06,0-.11-.05-.11-.11v-3.99c0-.06.05-.11.11-.11Z"/><path class="cls-1" d="m62.16,3.99c0-.06.05-.11.11-.11h1.35c1.16,0,2.12.95,2.12,2.11s-.95,2.12-2.12,2.12h-1.35c-.06,0-.11-.05-.11-.11v-3.99Zm1.36,3.69c.99,0,1.71-.71,1.71-1.7s-.72-1.7-1.71-1.7h-.91v3.4h.91Z"/><path class="cls-1" d="m66.36,7.94l1.83-4.06s.05-.07.1-.07h.06c.05,0,.08.03.1.07l1.82,4.06c.04.08-.01.16-.1.16h-.24c-.05,0-.09-.04-.1-.07l-.45-1h-2.14l-.44,1s-.05.07-.1.07h-.24c-.09,0-.14-.08-.1-.16Zm2.87-1.28c-.29-.66-.59-1.32-.88-1.98h-.05l-.88,1.98h1.81Z"/><path class="cls-1" d="m71.25,3.99c0-.06.05-.11.11-.11h1.35c1.16,0,2.12.95,2.12,2.11s-.95,2.12-2.12,2.12h-1.35c-.06,0-.11-.05-.11-.11v-3.99Zm1.36,3.69c.99,0,1.71-.71,1.71-1.7s-.72-1.7-1.71-1.7h-.91v3.4h.91Z"/><path class="cls-1" d="m32.56,10.03c0-.06.05-.11.11-.11h1.35c1.16,0,2.12.95,2.12,2.11s-.95,2.12-2.12,2.12h-1.35c-.06,0-.11-.05-.11-.11v-3.99Zm1.36,3.69c.99,0,1.71-.71,1.71-1.7s-.72-1.7-1.71-1.7h-.9v3.4h.9Z"/><path class="cls-1" d="m37.48,9.91h.24c.06,0,.11.05.11.11v3.99c0,.06-.05.11-.11.11h-.24c-.06,0-.11-.05-.11-.11v-3.99c0-.06.05-.11.11-.11Z"/><path class="cls-1" d="m39.37,10.03c0-.06.05-.11.11-.11h2.38c.07,0,.11.05.11.11v.18c0,.06-.05.11-.11.11h-2.03v1.47h1.73c.06,0,.11.05.11.11v.17c0,.07-.05.11-.11.11h-1.73v1.54h2.03c.07,0,.11.05.11.11v.17c0,.06-.05.11-.11.11h-2.38c-.07,0-.11-.05-.11-.11v-3.99Z"/><path class="cls-1" d="m45.1,9.85c.61,0,1.05.21,1.46.56.05.05.05.12,0,.17-.05.05-.12.12-.17.17-.05.06-.09.05-.16,0-.31-.27-.74-.47-1.15-.47-.95,0-1.68.8-1.68,1.73s.72,1.74,1.68,1.74c.66,0,1.09-.25,1.09-.25v-.84h-.69c-.07,0-.11-.05-.11-.11v-.22c0-.07.05-.11.11-.11h1.04c.06,0,.11.05.11.11v1.38s-.02.08-.05.1c0,0-.61.4-1.49.4-1.21,0-2.18-.96-2.18-2.17s.97-2.18,2.18-2.18Z"/><path class="cls-1" d="m49.81,9.85c1.21,0,2.17.97,2.17,2.18s-.97,2.17-2.17,2.17-2.17-.96-2.17-2.17.96-2.18,2.17-2.18Zm0,3.92c.96,0,1.75-.78,1.75-1.74s-.79-1.76-1.75-1.76-1.74.8-1.74,1.76.78,1.74,1.74,1.74Z"/><path class="cls-1" d="m54.85,10.03c0-.06.05-.11.11-.11h1.33c.74,0,1.35.6,1.35,1.33s-.61,1.36-1.35,1.36h-1v1.42c0,.06-.05.11-.11.11h-.23c-.07,0-.11-.05-.11-.11v-3.99h0Zm1.42,2.13c.49,0,.92-.4.92-.92,0-.49-.42-.86-.92-.86h-.96v1.79h.96Z"/><path class="cls-1" d="m60.6,9.85c1.21,0,2.17.97,2.17,2.18s-.97,2.17-2.17,2.17-2.17-.96-2.17-2.17.96-2.18,2.17-2.18Zm0,3.92c.96,0,1.75-.78,1.75-1.74s-.79-1.76-1.75-1.76-1.74.8-1.74,1.76.79,1.74,1.74,1.74Z"/><path class="cls-1" d="m64,10.03c0-.06.05-.11.11-.11h1.56c.72,0,1.31.57,1.31,1.28,0,.56-.37,1.02-.89,1.23l.83,1.53c.04.08,0,.18-.1.18h-.31c-.05,0-.08-.03-.1-.05l-.8-1.6h-1.15v1.54c0,.06-.05.11-.11.11h-.24c-.07,0-.11-.05-.11-.11v-3.99h0Zm1.65,2.06c.46,0,.87-.39.87-.88,0-.46-.4-.85-.87-.85h-1.17v1.73h1.17Z"/><path class="cls-1" d="m68.89,10.32h-1.05c-.07,0-.11-.05-.11-.11v-.18c0-.06.05-.11.11-.11h2.56c.07,0,.11.05.11.11v.18c0,.06-.05.11-.11.11h-1.05v3.7c0,.06-.05.11-.11.11h-.23c-.06,0-.11-.05-.11-.11v-3.7Z"/><path class="cls-1" d="m70.67,13.98l1.83-4.06s.05-.07.1-.07h.06c.05,0,.08.03.1.07l1.82,4.06c.04.08-.01.16-.1.16h-.24c-.05,0-.09-.04-.1-.07l-.45-1h-2.14l-.44,1s-.05.07-.1.07h-.24c-.09,0-.14-.08-.1-.16Zm2.87-1.28c-.3-.66-.59-1.32-.88-1.98h-.05l-.88,1.98h1.81Z"/><path class="cls-1" d="m75.56,10.03c0-.06.05-.11.11-.11h.23c.06,0,.11.05.11.11v3.7h1.74c.07,0,.11.05.11.11v.17c0,.06-.05.11-.11.11h-2.09c-.07,0-.11-.05-.11-.11v-3.99h0Z"/><path class="cls-1" d="m78.82,10.03c0-.06.05-.11.11-.11h2.38c.07,0,.11.05.11.11v.18c0,.06-.05.11-.11.11h-2.03v1.47h1.73c.06,0,.11.05.11.11v.17c0,.07-.05.11-.11.11h-1.73v1.54h2.03c.07,0,.11.05.11.11v.17c0,.06-.05.11-.11.11h-2.38c-.07,0-.11-.05-.11-.11v-3.99Z"/><path class="cls-1" d="m82.43,13.5s.06-.08.09-.11c.06-.08.13-.13.21-.05.04.04.48.46,1.02.46.49,0,.81-.31.81-.66,0-.42-.36-.66-1.06-.95-.66-.29-1.06-.56-1.06-1.25,0-.41.33-1.07,1.29-1.07.59,0,1.03.31,1.03.31.04.02.11.09.04.2-.02.04-.05.08-.07.11-.05.08-.11.11-.21.05-.04-.02-.42-.28-.79-.28-.64,0-.83.41-.83.66,0,.4.31.64.81.85.81.33,1.34.64,1.34,1.34,0,.63-.6,1.09-1.3,1.09s-1.19-.42-1.27-.49c-.05-.04-.11-.09-.04-.21Z"/></g></svg>