<svg width="107" height="61" viewBox="0 0 107 61" fill="none"
    xmlns="http://www.w3.org/2000/svg">
    <path d="M78.3145 3.26006V0.18674C78.3145 0.0863325 78.233 0.00488281 78.1326 0.00488281H75.8095C75.7091 0.00488281 75.6277 0.0863325 75.6277 0.18674V3.26006C75.6277 3.36047 75.5462 3.44192 75.4458 3.44192H72.3244C72.224 3.44192 72.1426 3.52337 72.1426 3.62378V6.02373C72.1426 6.12414 72.224 6.20559 72.3244 6.20559H75.4458C75.5462 6.20559 75.6277 6.28704 75.6277 6.38745V9.46077C75.6277 9.56118 75.7091 9.64263 75.8095 9.64263H78.1326C78.233 9.64263 78.3145 9.56118 78.3145 9.46077V6.38745C78.3145 6.28704 78.3959 6.20559 78.4963 6.20559H81.5988C81.6992 6.20559 81.7806 6.12414 81.7806 6.02373V3.62378C81.7806 3.52337 81.6992 3.44192 81.5988 3.44192H78.4963C78.3959 3.44192 78.3145 3.36047 78.3145 3.26006Z" fill="#EDEEF1"/>
    <path d="M84.7462 15.8644L83.3786 19.3134C83.3449 19.3934 83.2691 19.4475 83.1855 19.4475H78.5532C78.4023 19.4475 78.3019 19.2923 78.3609 19.154L86.5835 0.130568C86.6172 0.0547357 86.6931 0.00488281 86.7766 0.00488281H91.5935C91.6771 0.00488281 91.7529 0.0554379 91.7866 0.134781L99.8169 19.154C99.8752 19.2923 99.7748 19.4433 99.6238 19.4433H94.7943C94.7065 19.4433 94.6307 19.3885 94.597 19.3092L93.2546 15.8602H84.742L84.7462 15.8644ZM89.0338 4.92205L86.1981 12.1135H91.8196L89.0338 4.92205V4.92205Z" fill="#EDEEF1"/>
    <path d="M101.75 19.2333V0.214094C101.75 0.0968346 101.843 0.00415039 101.96 0.00415039H106.495C106.613 0.00415039 106.705 0.0961325 106.705 0.214094V19.2333C106.705 19.3506 106.613 19.4432 106.495 19.4432H101.96C101.843 19.4432 101.75 19.3513 101.75 19.2333Z" fill="#EDEEF1"/>
    <path d="M9.68182 19.4728H1.68453C1.56728 19.4728 1.47461 19.3801 1.47461 19.2628V0.214156C1.47461 0.096897 1.56658 0 1.68453 0H9.8784C12.1229 0 14.015 0.440249 15.5546 1.30881C17.1659 2.24057 18.3573 3.45248 19.1169 4.92981C19.8766 6.41065 20.2578 8.00945 20.2578 9.7213C20.2578 11.8151 19.7923 13.5895 18.8523 15.0415C17.8497 16.5603 16.5446 17.6767 14.9375 18.3936C13.3263 19.1112 11.5767 19.4721 9.68463 19.4721H9.68041L9.68182 19.4728ZM10.0174 15.361C10.8522 15.361 11.6539 15.1679 12.4255 14.7775C13.1978 14.3871 13.8353 13.7622 14.3471 12.902C14.821 12.0756 15.0562 11.0392 15.0562 9.77607C15.0562 8.51289 14.8048 7.42666 14.305 6.59602C13.7552 5.72324 13.0798 5.09833 12.2746 4.71636C11.4693 4.33439 10.6338 4.14129 9.76958 4.14129H6.56813V15.3603H10.0167L10.0174 15.361Z" fill="#EDEEF1"/>
    <path d="M41.6772 19.4728H36.7093C36.6208 19.4728 36.5457 19.418 36.512 19.3386L35.2279 16.028H26.7947L25.4818 19.3429C25.4481 19.4229 25.373 19.477 25.2887 19.477H20.5224C20.3714 19.477 20.271 19.3218 20.3293 19.1835L28.5246 0.130568C28.5583 0.0547357 28.6334 0.00488281 28.7176 0.00488281H33.6729C33.7571 0.00488281 33.8322 0.0554377 33.8659 0.134781L41.8709 19.1835C41.9299 19.3218 41.8288 19.4728 41.6779 19.4728H41.6772ZM33.7269 12.1388L31.0583 5.19519L28.3315 12.1388H33.7269Z" fill="#EDEEF1"/>
    <path d="M50.2104 19.4727H45.5367C45.4195 19.4727 45.3268 19.38 45.3268 19.2628V4.196H39.7509C39.6337 4.196 39.541 4.10402 39.541 3.98606V0.214094C39.541 0.0968346 39.6337 0.00415039 39.7509 0.00415039H56.0586C56.1759 0.00415039 56.2686 0.0961325 56.2686 0.214094V3.98606C56.2686 4.10332 56.1766 4.196 56.0586 4.196H50.4238V19.2628C50.4238 19.38 50.3276 19.4727 50.2097 19.4727H50.2104Z" fill="#EDEEF1"/>
    <path d="M75.266 19.4728H70.2982C70.2097 19.4728 70.1346 19.418 70.1009 19.3386L68.8168 16.028H60.3877L59.0742 19.3429C59.0405 19.4229 58.9653 19.477 58.8811 19.477H54.1105C53.9596 19.477 53.8585 19.3218 53.9175 19.1835L62.1127 0.130568C62.1464 0.0547357 62.2215 0.00488281 62.3058 0.00488281H67.261C67.3453 0.00488281 67.4204 0.0554377 67.4541 0.134781L75.4591 19.1835C75.5181 19.3218 75.417 19.4728 75.266 19.4728V19.4728ZM67.3158 12.1388L64.6472 5.19519L61.9204 12.1388H67.3158Z" fill="#EDEEF1"/>
    <path d="M12.3293 32.3951C11.564 32.0054 10.7138 31.6607 9.80184 31.3707L9.79342 31.3679C8.84562 31.08 8.16532 30.8637 7.58751 30.6671C7.01392 30.4719 6.56881 30.2402 6.2599 29.9755C6.11808 29.8561 5.92922 29.642 5.92922 29.1687C5.92922 28.7397 6.06823 28.4511 6.37574 28.237C6.75205 27.9793 7.23226 27.8564 7.80164 27.869H7.81709C8.48686 27.869 8.98042 28.0291 9.32584 28.3584C9.66775 28.6849 9.84046 29.0416 9.8538 29.4503L9.86713 29.873C9.87065 29.9867 9.96402 30.0766 10.0778 30.0766H14.4643C14.5836 30.0766 14.6791 29.9776 14.6749 29.8582L14.6574 29.4046C14.6152 28.31 14.293 27.3438 13.6976 26.5307C13.1058 25.7317 12.2921 25.1068 11.279 24.6735C10.2849 24.248 9.13698 24.0325 7.86623 24.0325C6.59548 24.0325 5.47498 24.2438 4.49489 24.6602C3.48461 25.0829 2.67442 25.698 2.08468 26.49C1.4802 27.3024 1.18392 28.2763 1.20428 29.385C1.20569 30.7085 1.63886 31.7906 2.48977 32.5973C3.28241 33.3556 4.4303 33.9756 5.90254 34.4398L6.63269 34.668C7.21541 34.8498 7.77356 35.024 8.30643 35.1925C8.97831 35.4052 9.51329 35.6735 9.89592 35.9908C10.2631 36.2956 10.3403 36.7435 10.3403 37.0658C10.3403 37.5061 10.1824 37.8213 9.82782 38.0882C9.43326 38.3852 8.86668 38.5354 8.14425 38.5354C7.29685 38.5354 6.66499 38.3339 6.21356 37.9189C5.76774 37.5096 5.53957 37.0244 5.5157 36.4346L5.49885 36.0154C5.49464 35.9024 5.40126 35.8132 5.28823 35.8132H0.978215C0.860969 35.8132 0.766189 35.9087 0.767594 36.0259L0.772508 36.4676C0.786549 37.7083 1.13056 38.7889 1.79613 39.6785C2.44344 40.5443 3.33647 41.2155 4.44996 41.6726C5.53395 42.1178 6.78715 42.3439 8.17514 42.3439H8.82245V42.3158C10.009 42.2526 11.0445 42.0132 11.9081 41.6017C12.9555 41.1018 13.7594 40.427 14.2951 39.5964C14.8385 38.7545 15.1144 37.8305 15.1144 36.851C15.1144 35.7451 14.849 34.8161 14.3281 34.0922C13.824 33.3851 13.1514 32.815 12.3307 32.3965L12.3293 32.3951Z" fill="#EDEEF1"/>
    <path d="M28.4387 35.1341C28.4387 36.2379 28.1726 37.0187 27.6222 37.5229C27.0648 38.0389 26.2967 38.2903 25.2738 38.2903C24.2509 38.2903 23.4589 38.0326 22.9134 37.5229C22.3798 37.0285 22.1095 36.2253 22.1095 35.1341V24.5253C22.1095 24.4088 22.0155 24.3147 21.8989 24.3147H17.7497C17.6331 24.3147 17.5391 24.4088 17.5391 24.5253V35.111C17.5391 36.7133 17.8887 38.0726 18.5788 39.1504C19.269 40.2289 20.2118 41.0413 21.3794 41.5644C22.5125 42.0784 23.7959 42.3396 25.1937 42.341H25.2064C26.5888 42.3396 27.882 42.0791 29.0509 41.5672C30.2458 41.0406 31.2133 40.2311 31.9259 39.1596C32.6448 38.079 33.0092 36.7168 33.0092 35.1103V24.5246C33.0092 24.4081 32.9151 24.314 32.7986 24.314H28.6493C28.5328 24.314 28.4387 24.4081 28.4387 24.5246V35.1334V35.1341Z" fill="#EDEEF1"/>
    <path d="M46.1241 33.7046L41.0517 24.4306C41.0144 24.3632 40.9435 24.321 40.867 24.321H36.279C36.1624 24.321 36.0684 24.4151 36.0684 24.5317V41.4121L36.0726 41.851C36.074 41.9668 36.1674 42.0595 36.2832 42.0595H40.4345C40.5511 42.0595 40.6452 41.9654 40.6452 41.8489V33.3837C40.6452 33.1661 40.9344 33.0916 41.0397 33.2812L44.5466 39.602C44.5838 39.6687 44.654 39.7101 44.7305 39.7101H47.8295C47.906 39.7101 47.9762 39.6687 48.0134 39.602L51.5202 33.2812C51.6256 33.0909 51.9148 33.1661 51.9148 33.3837V41.8489C51.9148 41.9654 52.0089 42.0595 52.1254 42.0595H56.2747C56.3912 42.0595 56.4853 41.9654 56.4853 41.8489V24.5317C56.4853 24.4151 56.3912 24.321 56.2747 24.321H51.6852C51.608 24.321 51.5364 24.3632 51.4999 24.4313L46.4941 33.7032C46.4148 33.85 46.2042 33.8507 46.1241 33.7039V33.7046Z" fill="#EDEEF1"/>
    <path d="M69.9591 33.7046L64.8866 24.4306C64.8494 24.3632 64.7785 24.321 64.702 24.321H60.1139C59.9974 24.321 59.9033 24.4151 59.9033 24.5317V41.4121L59.9075 41.851C59.9089 41.9668 60.0023 42.0595 60.1182 42.0595H64.2695C64.386 42.0595 64.4801 41.9654 64.4801 41.8489V33.3837C64.4801 33.1661 64.7694 33.0916 64.8747 33.2812L68.3815 39.602C68.4187 39.6687 68.4889 39.7101 68.5655 39.7101H71.6644C71.7409 39.7101 71.8111 39.6687 71.8484 39.602L75.3552 33.2812C75.4605 33.0909 75.7498 33.1661 75.7498 33.3837V41.8489C75.7498 41.9654 75.8438 42.0595 75.9604 42.0595H80.1096C80.2262 42.0595 80.3202 41.9654 80.3202 41.8489V24.5317C80.3202 24.4151 80.2262 24.321 80.1096 24.321H75.5202C75.443 24.321 75.3713 24.3632 75.3348 24.4313L70.3291 33.7032C70.2497 33.85 70.0391 33.8507 69.9591 33.7039V33.7046Z" fill="#EDEEF1"/>
    <path d="M88.1274 24.321H83.9782C83.8619 24.321 83.7676 24.4154 83.7676 24.5317V41.8489C83.7676 41.9652 83.8619 42.0595 83.9782 42.0595H88.1274C88.2438 42.0595 88.3381 41.9652 88.3381 41.8489V24.5317C88.3381 24.4154 88.2438 24.321 88.1274 24.321Z" fill="#EDEEF1"/>
    <path d="M91.5293 24.5317V27.8227C91.5293 27.9392 91.6234 28.0333 91.7399 28.0333H96.5435C96.66 28.0333 96.7541 28.1274 96.7541 28.244V41.8489C96.7541 41.9654 96.8482 42.0595 96.9647 42.0595H101.114C101.231 42.0595 101.325 41.9654 101.325 41.8489V28.244C101.325 28.1274 101.419 28.0333 101.535 28.0333H106.363C106.48 28.0333 106.574 27.9392 106.574 27.8227V24.5317C106.574 24.4151 106.48 24.321 106.363 24.321H91.7399C91.6234 24.321 91.5293 24.4151 91.5293 24.5317Z" fill="#EDEEF1"/>
    <path d="M42.5652 58.0069V46.8882H40.9562V51.0315C40.9562 51.1165 40.8978 51.2005 40.819 51.2271C40.7934 51.2333 40.7729 51.2404 40.7473 51.2404C40.6817 51.2404 40.6234 51.2148 40.5844 51.1687C40.0109 50.4978 39.1127 50.1066 38.1285 50.1066C36.0248 50.1066 34.377 51.8847 34.377 54.1515C34.377 55.2649 34.761 56.2881 35.4585 57.043C36.1549 57.7918 37.1002 58.2025 38.1295 58.2025C39.1004 58.2025 39.9925 57.799 40.5855 57.0953C40.6244 57.0502 40.6828 57.0174 40.7483 57.0174C40.7739 57.0174 40.7944 57.0174 40.82 57.0307C40.905 57.0635 40.9572 57.1414 40.9572 57.2325V58.0079H42.5662L42.5652 58.0069ZM38.5207 56.7562C37.1074 56.7562 36.0003 55.61 36.0003 54.1504C36.0003 52.6908 37.1074 51.5446 38.5207 51.5446C39.9341 51.5446 41.0412 52.6908 41.0412 54.1504C41.0412 55.61 39.9341 56.7562 38.5207 56.7562ZM51.8155 58.0069V50.3012H50.226V51.0243C50.226 51.1155 50.1676 51.1933 50.0887 51.2261C50.0631 51.2322 50.0426 51.2394 50.017 51.2394C49.9515 51.2394 49.8931 51.2138 49.8542 51.1616C49.2878 50.4845 48.4142 50.1066 47.3982 50.1066C45.2946 50.1066 43.6467 51.8847 43.6467 54.1515C43.6467 56.4182 45.2946 58.1964 47.3982 58.1964C48.3692 58.1964 49.2673 57.7856 49.8542 57.083C49.8931 57.0307 49.9515 57.0051 50.017 57.0051C50.0426 57.0051 50.0693 57.0051 50.0887 57.0184C50.1737 57.0512 50.226 57.1291 50.226 57.2141V58.0028H51.8155V58.0089V58.0069ZM47.7833 56.7562C46.37 56.7562 45.2629 55.61 45.2629 54.1504C45.2629 52.6908 46.37 51.5446 47.7833 51.5446C49.1967 51.5446 50.3038 52.6908 50.3038 54.1504C50.3038 55.61 49.1967 56.7562 47.7833 56.7562ZM66.4836 58.0069V50.3012H64.8941V51.0243C64.8941 51.1155 64.8357 51.1933 64.7569 51.2261C64.7303 51.2322 64.7108 51.2394 64.6852 51.2394C64.6196 51.2394 64.5613 51.2138 64.5223 51.1616C63.956 50.4845 63.0824 50.1066 62.0664 50.1066C59.9627 50.1066 58.3149 51.8847 58.3149 54.1515C58.3149 56.4182 59.9627 58.1964 62.0664 58.1964C63.0373 58.1964 63.9355 57.7856 64.5223 57.083C64.5613 57.0369 64.6196 57.0051 64.6852 57.0051C64.7118 57.0051 64.7313 57.0051 64.7569 57.0184C64.8419 57.0512 64.8941 57.1291 64.8941 57.2202V58.0089H66.4836V58.0069ZM62.4515 56.7562C61.0381 56.7562 59.931 55.61 59.931 54.1504C59.931 52.6908 61.0381 51.5446 62.4515 51.5446C63.8648 51.5446 64.972 52.6908 64.972 54.1504C64.972 55.61 63.8648 56.7562 62.4515 56.7562ZM75.0293 51.265C74.3329 50.5163 73.3886 50.1055 72.3593 50.1055C71.3884 50.1055 70.4963 50.5091 69.9033 51.2128C69.8644 51.2589 69.806 51.2906 69.7405 51.2906C69.7149 51.2906 69.6944 51.2906 69.6688 51.2773C69.5838 51.2445 69.5316 51.1667 69.5316 51.0755V46.8872H67.9298V58.0059H69.5316V57.2766C69.5316 57.1854 69.5899 57.1076 69.6688 57.0809C69.6883 57.0748 69.7149 57.0676 69.7405 57.0676C69.7989 57.0676 69.8572 57.0932 69.9033 57.1393C70.4769 57.8102 71.3751 58.2015 72.3593 58.2015C74.4629 58.2015 76.1108 56.4233 76.1108 54.1566C76.1108 53.0432 75.7268 52.0199 75.0293 51.264V51.265ZM71.9681 56.7562C70.5547 56.7562 69.4476 55.61 69.4476 54.1504C69.4476 52.6908 70.5547 51.5446 71.9681 51.5446C73.3814 51.5446 74.4885 52.6908 74.4885 54.1504C74.4885 55.61 73.3814 56.7562 71.9681 56.7562ZM81.159 51.7792C81.289 51.7792 81.4129 51.7854 81.5174 51.8048V50.1567C81.459 50.1506 81.3802 50.1373 81.289 50.1373C80.4164 50.1373 79.6022 50.5869 79.1792 51.3029C79.1393 51.3685 79.0676 51.4074 78.9959 51.4074C78.9764 51.4074 78.957 51.4074 78.9447 51.4012C78.8535 51.3756 78.788 51.2906 78.788 51.1995V50.3001H77.1985V58.0059H78.8075V54.6247C78.8075 52.866 79.7128 51.7782 81.1651 51.7782H81.159V51.7792ZM82.7218 50.3001V58.0059H84.3441V50.3001H82.7218ZM83.5104 46.8934C82.9635 46.8934 82.5139 47.343 82.5139 47.89C82.5139 48.437 82.9635 48.8866 83.5104 48.8866C84.0573 48.8866 84.507 48.437 84.507 47.89C84.507 47.343 84.0573 46.8934 83.5104 46.8934ZM86.5983 57.0553C87.3337 57.7918 88.3763 58.1954 89.5285 58.1954C90.4738 58.1954 91.2163 58.013 92.5907 57.0102L91.6915 56.0659C90.994 56.5217 90.3498 56.7368 89.7118 56.7368C88.2257 56.7368 87.1063 55.6234 87.1063 54.1504C87.1063 52.6775 88.2257 51.5641 89.7118 51.5641C90.4021 51.5641 91.0401 51.7854 91.6659 52.235L92.6747 51.2773C91.4375 50.2223 90.2976 50.0984 89.5489 50.0984C87.1841 50.0984 85.4707 51.7987 85.4707 54.1433C85.4707 55.2833 85.8752 56.3189 86.6045 57.0481L86.5983 57.0543V57.0553ZM95.6847 54.5673C95.7237 54.5284 95.7759 54.5089 95.8281 54.5089H95.8404C95.906 54.5089 95.9582 54.5417 95.9971 54.5868L98.746 57.9997H100.712L97.2149 53.7725C97.1432 53.6875 97.1503 53.5645 97.2282 53.4857L100.413 50.3001H98.4787L95.6581 53.1333C95.6192 53.1722 95.567 53.1989 95.5086 53.1989C95.482 53.1989 95.4564 53.1989 95.4307 53.1856C95.3519 53.1528 95.2996 53.0749 95.2996 52.9899V46.8934H93.6907V58.012H95.2996V55.0221C95.2996 54.9637 95.3263 54.9043 95.3652 54.8654L95.6847 54.5724V54.5663V54.5673ZM103.67 58.1954C105.058 58.1954 106.464 57.3554 106.464 55.7596C106.464 54.7179 105.807 54.0009 104.458 53.5584L103.513 53.2521C102.85 53.0309 102.53 52.7113 102.53 52.2688C102.53 51.7608 102.98 51.4023 103.618 51.4023C104.198 51.4023 104.719 51.7669 105.058 52.4122L106.34 51.7218C105.832 50.7252 104.797 50.1066 103.618 50.1066C102.1 50.1066 100.999 51.0765 100.999 52.4122C100.999 53.4672 101.631 54.1771 102.941 54.594L103.898 54.9002C104.608 55.1215 104.901 55.4083 104.901 55.8907C104.901 56.6005 104.25 56.8484 103.696 56.8484C102.992 56.8484 102.361 56.4059 102.036 55.6828L100.745 56.3537C101.214 57.4937 102.329 58.1974 103.664 58.1974H103.67V58.1954ZM56.668 58.1175C57.176 58.1175 57.6389 58.0786 57.9185 58.0325V56.6579C57.684 56.6845 57.3388 56.704 57.1104 56.704C56.4007 56.704 55.8077 56.5739 55.8077 55.0037V51.7864C55.8077 51.6686 55.905 51.5785 56.0156 51.5785H57.6379V50.2889H56.0156C55.8988 50.2889 55.8077 50.1916 55.8077 50.0809V47.8726H54.212V50.0809C54.212 50.1987 54.1137 50.2889 54.0031 50.2889H52.8571V51.5785H54.0031C54.1199 51.5785 54.212 51.6758 54.212 51.7864V55.4339C54.212 58.1114 55.99 58.1114 56.6608 58.1114L56.667 58.1175H56.668Z" fill="#EDEEF1"/>
    <path d="M30.3733 56.4511V53.9631L30.1387 53.833L23.879 57.3504L17.9583 54.0214V52.5229L23.879 55.8518L30.3733 52.1972V49.7481L30.106 49.5986L23.879 53.1027L18.2061 49.911L23.879 46.7132L28.4519 49.2862L28.7971 49.0905V48.856L23.879 46.0945L17.3848 49.7491V50.0687L23.879 53.7234L29.7997 50.3944V51.8991L23.879 55.2281L17.6193 51.7045L17.3848 51.8346V54.3226L23.879 57.9772L29.7997 54.6483V56.1468L23.879 59.4819L17.6254 55.9584L17.3848 56.0885V56.4531L23.879 60.1078L30.3733 56.4531V56.4511Z" fill="#EDEEF1"/>
    <path d="M0.767578 58.0563V50.3977H3.84196C4.637 50.3977 5.2424 50.5837 5.65815 50.9557C6.0812 51.3204 6.29272 51.7908 6.29272 52.3671C6.29272 52.8485 6.16143 53.235 5.89885 53.5268C5.64356 53.8113 5.32992 54.0045 4.95793 54.1067C5.39557 54.1942 5.75662 54.413 6.04108 54.7631C6.32554 55.1059 6.46777 55.5071 6.46777 55.9666C6.46777 56.572 6.24896 57.0716 5.81132 57.4655C5.37369 57.8594 4.7537 58.0563 3.95137 58.0563H0.767578ZM2.16801 53.6143H3.63409C4.02796 53.6143 4.33066 53.5231 4.54218 53.3408C4.7537 53.1585 4.85946 52.8995 4.85946 52.564C4.85946 52.2431 4.7537 51.9914 4.54218 51.8091C4.33795 51.6194 4.02796 51.5246 3.61221 51.5246H2.16801V53.6143ZM2.16801 56.9185H3.73256C4.14831 56.9185 4.46924 56.8236 4.69535 56.634C4.92876 56.4371 5.04546 56.1635 5.04546 55.8134C5.04546 55.456 4.92511 55.1752 4.68441 54.971C4.44371 54.7668 4.11913 54.6646 3.71067 54.6646H2.16801V56.9185Z" fill="#EDEEF1"/>
    <path d="M9.31881 58.0563V55.332L6.74771 50.3977H8.33413L10.03 53.9316L11.7149 50.3977H13.2794L10.7192 55.332V58.0563H9.31881Z" fill="#EDEEF1"/>
</svg>
    