<?xml version="1.0" encoding="UTF-8"?><svg id="Capa_2" xmlns="http://www.w3.org/2000/svg" viewBox="0 0 543.01 221.98"><g id="Capa_1-2"><path d="m430.57,62.06h0c0-12.2,11.72-22.86,33.91-22.86,16.21,0,29.57,8.2,36.75,27.39,1.33,3.55,3.21,4.44,7.94,2.95,10.77-3.38,26.4-8.36,26.4-8.36,3-1.02,4.06-3,3.25-6.09-.2-.75-.79-2.79-.79-2.79C528.35,18.79,500.76,0,462.97,0c-45.74,0-75.01,27.07-75.01,61.37,0,74.36,112.59,55.05,112.59,95.17,0,15.12-17.25,25.74-38.96,25.74s-45.68-9.61-58.81-25.28c-3.9-4.66-5.41-5.31-10.14-5.31h-24.23c-5.02,0-6.72.64-10.92,5.31-15.35,17.03-37.63,25.28-59.72,25.28-35.28,0-64.27-19.87-69.13-60.11h136.84c4.11,0,7.13-1.87,8.5-5.32,2.16-5.43,3.67-14.55,3.67-21.17,0-53.59-33.37-95.67-92.62-95.67-52.87,0-90.98,34.24-99.24,84.21h-12.1l-.02-4.66h0C173.67,27.01,143.41,0,92.63,0,52.86,0,22.6,19.74,9.22,51.82c-1.4,3.36-.67,5.61,2.69,7.16l26.15,10.27c4.38,1.71,6.59,1.35,8.12-1.75,10.63-21.46,23.57-28.76,45.53-28.76,24.87,0,39.92,15.22,39.92,39.05v6.43h-20.9v.02C29.64,84.53,0,116.76,0,157.44c0,37.03,27.45,64.54,68.94,64.54,22.33,0,47.88-9.53,63.79-27.25.7,8.29,1.78,17.34,2.08,19.82.38,3.14,1.87,4.65,5.02,4.65h28.75c3.6,0,5.71-1.86,5.71-5.16l-.42-92.62h11.1c6.51,61.91,50.17,100.56,109.57,100.56,33.23,0,59.67-8.65,85.66-31.16,22.74,22.13,47.3,31.16,82.03,31.16,44.98,0,80.79-26.12,80.79-65.73,0-76.24-112.44-58.73-112.44-94.19Zm-144.86-23.33c27.45,0,49.26,19.03,50.46,45.98l-107.14-.11c5.13-29.33,27.65-45.87,56.68-45.87ZM75.37,182.13c-20.95,0-32.91-11.55-32.91-27.99,0-19.71,17.64-32.73,75.77-32.73h13.4c0,36.78-26.13,60.72-56.26,60.72Z"/></g></svg>