<?xml version="1.0" encoding="UTF-8"?><svg id="Capa_1" xmlns="http://www.w3.org/2000/svg" viewBox="0 0 249.99 249.73"><defs><style>.cls-1{fill:#fff;}</style></defs><path d="m75.78,188.82c-3.58,0-6.49,3.29-6.49,7.37s2.91,7.35,6.49,7.35,6.53-3.29,6.53-7.35-2.94-7.37-6.53-7.37Z"/><path d="m134.49,188.82c-3.59,0-6.51,3.29-6.51,7.37s2.92,7.35,6.51,7.35,6.52-3.29,6.52-7.35-2.92-7.37-6.52-7.37Z"/><path d="m204.37,188.82c-3.25,0-5.9,3.29-5.9,7.37s2.65,7.35,5.9,7.35,5.97-3.29,5.97-7.35-2.67-7.37-5.97-7.37Z"/><path d="m6.19,6.06v237.61h237.62V6.06H6.19Zm40.16,197.48c1.82,0,4.35-.62,5.44-2.37l.29-.46,4.31,3.24-.29.38c-2.44,3.17-6.29,5.05-10.27,5.05-7.21,0-13.07-5.9-13.07-13.2s5.86-13.18,13.07-13.18c3.99,0,7.77,1.83,10.33,5.03l.3.4-4.34,3.2-.28-.37c-1.4-1.79-3.73-2.43-5.48-2.43-3.6,0-6.43,3.24-6.43,7.36s2.83,7.35,6.43,7.35Zm29.44,5.85c-7.53,0-13.64-5.9-13.64-13.2s6.11-13.19,13.64-13.19,13.64,5.93,13.64,13.19-6.12,13.2-13.64,13.2Zm38.03-17.63c-1.78-2.28-4.74-1.78-4.97-1.74-2.02.37-3.54,2.15-3.54,4.22v14.63h-6.84v-25.36l.88.6c1.1.64,2.37,1.02,3.75,1.02,1.11,0,2.17-.23,3.11-.68l.62-.32c1.52-.74,3.19-1.15,4.82-1.14,1.09,0,2.17.2,2.17.2v8.56Zm20.68,17.63c-7.54,0-13.66-5.9-13.66-13.2s6.12-13.19,13.66-13.19,13.62,5.93,13.62,13.19-6.12,13.2-13.62,13.2Zm48.09-.52h-6.86v-13.62c0-4.32-2.71-6.27-5.42-6.27s-5.95,2.24-5.95,5.26v14.63h-6.85v-25.36l.91.63c1.09.61,2.39.99,3.74.99,1.1,0,2.36-.27,3.32-.71,0,0,2.05-.83,2.83-1.05,0,0,0,0,.02,0,0,0-.01,0-.02,0,.02,0,.4-.09.4-.09.91-.21,1.58-.25,2.31-.28.4-.02.81,0,1.16.04,6.17.44,10.42,5.27,10.42,12.08v13.74Zm34.63.03c-1.29-1.08-2.95-1.71-4.74-1.71-1.07,0-2.07.24-2.99.61l-.92.49c-1.52.73-3.15,1.11-4.87,1.11-6.85,0-12.27-5.82-12.38-13.2,0-7.26,5.53-13.19,12.38-13.19h.13c.22,0,.41.02.63.03.71.03,2.02.32,2.02.32.16.05.63.18.69.18.34.13,1.45.63,1.65.69.26.11.46.2.46.2.93.44,2.19.71,3.33.71,1.35,0,2.64-.38,3.75-.99l.87-.63v25.38Z"/><path class="cls-1" d="m168.29,183.37s.01,0,.02,0c-.02,0-.02,0-.02,0Z"/><path d="m204.37,203.53c-3.25,0-5.9-3.29-5.9-7.35s2.65-7.37,5.9-7.37,5.97,3.29,5.97,7.37-2.67,7.35-5.97,7.35Z"/></svg>