<?xml version="1.0" encoding="UTF-8" standalone="no"?>
<svg
   width="50mm"
   height="16mm"
   viewBox="0 0 50 16"
   version="1.1"
   id="svg8"
   inkscape:version="1.2 (dc2aedaf03, 2022-05-15)"
   sodipodi:docname="LogoCGRhorizontal.svg"
   xmlns:inkscape="http://www.inkscape.org/namespaces/inkscape"
   xmlns:sodipodi="http://sodipodi.sourceforge.net/DTD/sodipodi-0.dtd"
   xmlns="http://www.w3.org/2000/svg"
   xmlns:svg="http://www.w3.org/2000/svg"
   xmlns:rdf="http://www.w3.org/1999/02/22-rdf-syntax-ns#"
   xmlns:cc="http://creativecommons.org/ns#"
   xmlns:dc="http://purl.org/dc/elements/1.1/">
  <defs
     id="defs2">
    <rect
       x="0.94362128"
       y="50.593472"
       width="86.646881"
       height="36.795254"
       id="rect929" />
  </defs>
  <sodipodi:namedview
     id="base"
     pagecolor="#ffffff"
     bordercolor="#666666"
     borderopacity="1.0"
     inkscape:pageopacity="0.0"
     inkscape:pageshadow="2"
     inkscape:zoom="3.1207602"
     inkscape:cx="71.136513"
     inkscape:cy="41.4963"
     inkscape:document-units="mm"
     inkscape:current-layer="g1484"
     inkscape:document-rotation="0"
     showgrid="false"
     inkscape:window-width="1258"
     inkscape:window-height="706"
     inkscape:window-x="92"
     inkscape:window-y="0"
     inkscape:window-maximized="0"
     inkscape:showpageshadow="0"
     inkscape:pagecheckerboard="0"
     inkscape:deskcolor="#d1d1d1" />
  <metadata
     id="metadata5">
    <rdf:RDF>
      <cc:Work
         rdf:about="">
        <dc:format>image/svg+xml</dc:format>
        <dc:type
           rdf:resource="http://purl.org/dc/dcmitype/StillImage" />
        <dc:title />
      </cc:Work>
    </rdf:RDF>
  </metadata>
  <g
     inkscape:label="Capa 1"
     inkscape:groupmode="layer"
     id="layer1"
     transform="translate(-14.000001,-80)">
    <rect
       style="fill:#da3434;fill-opacity:1;stroke:none;stroke-width:0.115301"
       id="rect936-2-3"
       width="33"
       height="1"
       x="29"
       y="62" />
    <text
       xml:space="preserve"
       id="text927"
       style="font-style:normal;font-weight:normal;font-size:10.5833px;line-height:1.25;font-family:sans-serif;white-space:pre;shape-inside:url(#rect929);fill:#000000;fill-opacity:1;stroke:none" />
    <rect
       style="fill:#da3434;fill-opacity:1;stroke:none;stroke-width:0.199708"
       id="rect936"
       width="33"
       height="3"
       x="28.887697"
       y="56.499996" />
    <rect
       style="fill:#da3434;fill-opacity:1;stroke:none;stroke-width:0.115301"
       id="rect936-2"
       width="33"
       height="1"
       x="28.887697"
       y="60.250004" />
    <text
       xml:space="preserve"
       style="font-style:normal;font-weight:normal;font-size:1.7701px;line-height:1.25;font-family:sans-serif;fill:#000000;fill-opacity:1;stroke:none;stroke-width:0.0442525"
       x="28.932585"
       y="72.974937"
       id="text909-46"><tspan
         sodipodi:role="line"
         x="28.932585"
         y="72.974937"
         style="font-style:normal;font-variant:normal;font-weight:normal;font-stretch:normal;font-family:'EngraversGothic BT';-inkscape-font-specification:'EngraversGothic BT';stroke-width:0.0442525"
         id="tspan923-5">COLOMBIA</tspan></text>
    <text
       xml:space="preserve"
       style="font-style:normal;font-weight:normal;font-size:5.31029px;line-height:1.25;font-family:sans-serif;letter-spacing:0px;fill:#000000;fill-opacity:1;stroke:none;stroke-width:0.132757"
       x="28.68545"
       y="69.424805"
       id="text909-4-1"><tspan
         sodipodi:role="line"
         x="28.68545"
         y="69.424805"
         style="font-style:normal;font-variant:normal;font-weight:normal;font-stretch:normal;font-family:'EngraversGothic BT';-inkscape-font-specification:'EngraversGothic BT';stroke-width:0.132757"
         id="tspan932-0">CONTRALORIA</tspan></text>
    <text
       xml:space="preserve"
       style="font-style:normal;font-weight:normal;font-size:1.7701px;line-height:1.25;font-family:sans-serif;fill:#000000;fill-opacity:1;stroke:none;stroke-width:0.0442525"
       x="28.932585"
       y="71.224937"
       id="text909-0-7"><tspan
         sodipodi:role="line"
         x="28.932585"
         y="71.224937"
         style="font-style:normal;font-variant:normal;font-weight:normal;font-stretch:normal;font-family:'EngraversGothic BT';-inkscape-font-specification:'EngraversGothic BT';stroke-width:0.0442525"
         id="tspan926-0">GENERAL DE LA REPÚBLICA</tspan></text>
    <g
       id="g1584"
       transform="translate(0,30.000001)"
       style="opacity:1">
      <rect
         style="opacity:0;fill:#001d92;fill-opacity:1;stroke:#000000;stroke-width:0.062547"
         id="rect833"
         width="49.937454"
         height="15.937453"
         x="14.031275"
         y="50.031273" />
      <g
         id="g1533"
         style="fill:#cc0000;stroke:none">
        <g
           id="g1479"
           style="fill:#000000;stroke:none">
          <g
             aria-label="CONTRALORÍA"
             id="text909-4-1-7"
             style="font-style:normal;font-weight:normal;font-size:5.31029px;line-height:1.25;font-family:sans-serif;letter-spacing:0px;fill:#000000;fill-opacity:1;stroke:none;stroke-width:0.132757"
             transform="translate(-0.80767978)">
            <path
               d="m 32.207912,58.512099 0.28522,0.212619 q -0.197061,0.373379 -0.539326,0.575627 -0.342265,0.199654 -0.777874,0.199654 -0.643043,0 -1.063096,-0.422645 -0.417459,-0.425238 -0.417459,-1.07606 0,-0.653414 0.420052,-1.076059 0.420053,-0.425238 1.060503,-0.425238 0.396716,0 0.723423,0.173725 0.326707,0.173725 0.531547,0.495247 l -0.298185,0.212619 q -0.134831,-0.256699 -0.388937,-0.401902 -0.254106,-0.145203 -0.567848,-0.145203 -0.482283,0 -0.798618,0.331893 -0.316336,0.3293 -0.316336,0.834918 0,0.505619 0.316336,0.834919 0.316335,0.3293 0.798618,0.3293 0.337078,0 0.598963,-0.165946 0.261884,-0.165947 0.433017,-0.487468 z"
               style="font-style:normal;font-variant:normal;font-weight:normal;font-stretch:normal;font-family:'EngraversGothic BT';-inkscape-font-specification:'EngraversGothic BT';fill:#000000;stroke-width:0.132757;stroke:none"
               id="path1306" />
            <path
               d="m 34.429,59.165513 q 0.482283,0 0.798618,-0.3293 0.316336,-0.3293 0.316336,-0.834919 0,-0.508211 -0.316336,-0.837511 -0.313743,-0.3293 -0.798618,-0.3293 -0.482282,0 -0.798617,0.331893 -0.316336,0.3293 -0.316336,0.834918 0,0.505619 0.316336,0.834919 0.316335,0.3293 0.798617,0.3293 z m 0,0.334486 q -0.643043,0 -1.063095,-0.422645 -0.417459,-0.425238 -0.417459,-1.07606 0,-0.653414 0.420052,-1.076059 0.420052,-0.425238 1.060502,-0.425238 0.643043,0 1.065688,0.425238 0.422646,0.425238 0.422646,1.076059 0,0.650822 -0.422646,1.07606 -0.420052,0.422645 -1.065688,0.422645 z"
               style="font-style:normal;font-variant:normal;font-weight:normal;font-stretch:normal;font-family:'EngraversGothic BT';-inkscape-font-specification:'EngraversGothic BT';fill:#000000;stroke-width:0.132757;stroke:none"
               id="path1308" />
            <path
               d="m 36.372648,59.424805 v -2.862578 h 0.18669 l 1.856527,2.139154 v -2.139154 h 0.357822 v 2.862578 H 38.592183 L 36.727877,57.28565 v 2.139155 z"
               style="font-style:normal;font-variant:normal;font-weight:normal;font-stretch:normal;font-family:'EngraversGothic BT';-inkscape-font-specification:'EngraversGothic BT';fill:#000000;stroke-width:0.132757;stroke:none"
               id="path1310" />
            <path
               d="m 40.432111,59.424805 v -2.533278 h -1.203113 v -0.3293 h 2.766641 v 0.3293 h -1.205706 v 2.533278 z"
               style="font-style:normal;font-variant:normal;font-weight:normal;font-stretch:normal;font-family:'EngraversGothic BT';-inkscape-font-specification:'EngraversGothic BT';fill:#000000;stroke-width:0.132757;stroke:none"
               id="path1312" />
            <path
               d="m 42.806181,57.837941 h 1.262749 q 0.269663,0 0.407088,-0.119274 0.140017,-0.119274 0.140017,-0.350044 0,-0.225583 -0.140017,-0.350043 -0.137425,-0.127053 -0.388937,-0.127053 h -1.2809 z m -0.35523,1.586864 v -2.862578 h 1.641316 q 0.420052,0 0.6586,0.212619 0.238548,0.210026 0.238548,0.583405 0,0.31115 -0.18669,0.534141 -0.18669,0.220398 -0.492654,0.274849 l 0.715645,1.257564 h -0.394123 l -0.715645,-1.252378 h -1.109767 v 1.252378 z"
               style="font-style:normal;font-variant:normal;font-weight:normal;font-stretch:normal;font-family:'EngraversGothic BT';-inkscape-font-specification:'EngraversGothic BT';fill:#000000;stroke-width:0.132757;stroke:none"
               id="path1314" />
            <path
               d="m 46.404104,58.320223 h 1.260157 L 47.03159,57.052287 Z m -0.923077,1.104582 1.402767,-2.862578 h 0.295592 l 1.418324,2.862578 h -0.386344 l -0.388937,-0.770096 h -1.581678 l -0.378566,0.770096 z"
               style="font-style:normal;font-variant:normal;font-weight:normal;font-stretch:normal;font-family:'EngraversGothic BT';-inkscape-font-specification:'EngraversGothic BT';fill:#000000;stroke-width:0.132757;stroke:none"
               id="path1316" />
            <path
               d="m 49.053023,59.424805 v -2.862578 h 0.355229 v 2.533277 h 1.869492 v 0.329301 z"
               style="font-style:normal;font-variant:normal;font-weight:normal;font-stretch:normal;font-family:'EngraversGothic BT';-inkscape-font-specification:'EngraversGothic BT';fill:#000000;stroke-width:0.132757;stroke:none"
               id="path1318" />
            <path
               d="m 53.213613,59.165513 q 0.482283,0 0.798618,-0.3293 0.316336,-0.3293 0.316336,-0.834919 0,-0.508211 -0.316336,-0.837511 -0.313742,-0.3293 -0.798618,-0.3293 -0.482282,0 -0.798617,0.331893 -0.316336,0.3293 -0.316336,0.834918 0,0.505619 0.316336,0.834919 0.316335,0.3293 0.798617,0.3293 z m 0,0.334486 q -0.643042,0 -1.063095,-0.422645 -0.417459,-0.425238 -0.417459,-1.07606 0,-0.653414 0.420052,-1.076059 0.420052,-0.425238 1.060502,-0.425238 0.643043,0 1.065688,0.425238 0.422646,0.425238 0.422646,1.076059 0,0.650822 -0.422646,1.07606 -0.420052,0.422645 -1.065688,0.422645 z"
               style="font-style:normal;font-variant:normal;font-weight:normal;font-stretch:normal;font-family:'EngraversGothic BT';-inkscape-font-specification:'EngraversGothic BT';fill:#000000;stroke-width:0.132757;stroke:none"
               id="path1320" />
            <path
               d="m 55.512491,57.837941 h 1.262749 q 0.269664,0 0.407088,-0.119274 0.140017,-0.119274 0.140017,-0.350044 0,-0.225583 -0.140017,-0.350043 -0.137424,-0.127053 -0.388937,-0.127053 h -1.2809 z m -0.35523,1.586864 v -2.862578 h 1.641316 q 0.420052,0 0.6586,0.212619 0.238548,0.210026 0.238548,0.583405 0,0.31115 -0.18669,0.534141 -0.18669,0.220398 -0.492654,0.274849 l 0.715645,1.257564 h -0.394123 l -0.715645,-1.252378 h -1.109767 v 1.252378 z"
               style="font-style:normal;font-variant:normal;font-weight:normal;font-stretch:normal;font-family:'EngraversGothic BT';-inkscape-font-specification:'EngraversGothic BT';fill:#000000;stroke-width:0.132757;stroke:none"
               id="path1322" />
            <path
               d="m 58.32995,59.424805 v -2.878136 h 0.360415 v 2.878136 z m 0.09594,-3.212622 h -0.238549 l 0.54192,-0.90752 h 0.394123 z"
               style="font-style:normal;font-variant:normal;font-weight:normal;font-stretch:normal;font-family:'EngraversGothic BT';-inkscape-font-specification:'EngraversGothic BT';fill:#000000;stroke-width:0.132757;stroke:none"
               id="path1324" />
            <path
               d="m 60.501774,58.320223 h 1.260156 l -0.632671,-1.267936 z m -0.923078,1.104582 1.402767,-2.862578 h 0.295592 l 1.418325,2.862578 H 62.309036 L 61.920098,58.654709 H 60.33842 l -0.378565,0.770096 z"
               style="font-style:normal;font-variant:normal;font-weight:normal;font-stretch:normal;font-family:'EngraversGothic BT';-inkscape-font-specification:'EngraversGothic BT';fill:#000000;stroke-width:0.132757;stroke:none"
               id="path1326" />
          </g>
          <g
             aria-label="GENERAL_DE_LA_REPÚBLICA"
             id="text909-0-7-8"
             style="font-style:normal;font-weight:normal;font-size:1.7701px;line-height:1.25;font-family:sans-serif;fill:#000000;fill-opacity:1;stroke:none;stroke-width:0.0442525">
            <path
               d="m 29.69496,60.96651 v -0.140018 h -0.260156 v -0.109767 h 0.378566 v 0.28695 q -0.06914,0.119274 -0.18064,0.183233 -0.110631,0.06309 -0.251513,0.06309 -0.214348,0 -0.354366,-0.140882 -0.139153,-0.141746 -0.139153,-0.358687 0,-0.217805 0.140018,-0.358687 Q 29.167733,60.25 29.381217,60.25 q 0.132239,0 0.241142,0.05791 0.108902,0.05791 0.177182,0.165083 l -0.0994,0.07087 q -0.04494,-0.08557 -0.129646,-0.133968 -0.0847,-0.0484 -0.189283,-0.0484 -0.160761,0 -0.266206,0.110631 -0.105446,0.109767 -0.105446,0.278307 0,0.16854 0.105446,0.278307 0.105445,0.109767 0.266206,0.109767 0.10026,0 0.178047,-0.04322 0.07865,-0.04322 0.135696,-0.128781 z"
               style="font-style:normal;font-variant:normal;font-weight:normal;font-stretch:normal;font-family:'EngraversGothic BT';-inkscape-font-specification:'EngraversGothic BT';fill:#000000;stroke-width:0.0442525;stroke:none"
               id="path1353" />
            <path
               d="m 30.44482,61.224937 v -0.954194 h 0.750218 V 60.38051 H 30.56323 v 0.280035 h 0.382024 v 0.109767 H 30.56323 v 0.344858 h 0.670702 v 0.109767 z"
               style="font-style:normal;font-variant:normal;font-weight:normal;font-stretch:normal;font-family:'EngraversGothic BT';-inkscape-font-specification:'EngraversGothic BT';fill:#000000;stroke-width:0.0442525;stroke:none"
               id="path1355" />
            <path
               d="m 31.865381,61.224937 v -0.954194 h 0.06223 l 0.618844,0.713053 v -0.713053 h 0.119274 v 0.954194 h -0.0605 l -0.621436,-0.713053 v 0.713053 z"
               style="font-style:normal;font-variant:normal;font-weight:normal;font-stretch:normal;font-family:'EngraversGothic BT';-inkscape-font-specification:'EngraversGothic BT';fill:#000000;stroke-width:0.0442525;stroke:none"
               id="path1357" />
            <path
               d="m 33.29718,61.224937 v -0.954194 h 0.750218 V 60.38051 H 33.41559 v 0.280035 h 0.382023 v 0.109767 H 33.41559 v 0.344858 h 0.670702 v 0.109767 z"
               style="font-style:normal;font-variant:normal;font-weight:normal;font-stretch:normal;font-family:'EngraversGothic BT';-inkscape-font-specification:'EngraversGothic BT';fill:#000000;stroke-width:0.0442525;stroke:none"
               id="path1359" />
            <path
               d="m 34.836151,60.695982 h 0.420917 q 0.08989,0 0.135696,-0.03976 0.04667,-0.03976 0.04667,-0.116682 0,-0.07519 -0.04667,-0.116681 -0.04581,-0.04235 -0.129646,-0.04235 h -0.426967 z m -0.11841,0.528955 v -0.954194 h 0.547106 q 0.140017,0 0.219533,0.07087 0.07952,0.07001 0.07952,0.194469 0,0.103717 -0.06223,0.178047 -0.06223,0.07347 -0.164219,0.09162 L 35.576,61.224937 h -0.131375 l -0.238548,-0.41746 h -0.369923 v 0.41746 z"
               style="font-style:normal;font-variant:normal;font-weight:normal;font-stretch:normal;font-family:'EngraversGothic BT';-inkscape-font-specification:'EngraversGothic BT';fill:#000000;stroke-width:0.0442525;stroke:none"
               id="path1361" />
            <path
               d="m 36.515142,60.856743 h 0.420053 l -0.210891,-0.422646 z m -0.307693,0.368194 0.46759,-0.954194 h 0.09853 l 0.472775,0.954194 H 37.117563 L 36.987917,60.968238 H 36.46069 l -0.126189,0.256699 z"
               style="font-style:normal;font-variant:normal;font-weight:normal;font-stretch:normal;font-family:'EngraversGothic BT';-inkscape-font-specification:'EngraversGothic BT';fill:#000000;stroke-width:0.0442525;stroke:none"
               id="path1363" />
            <path
               d="m 37.877793,61.224937 v -0.954194 h 0.11841 v 0.844427 h 0.623165 v 0.109767 z"
               style="font-style:normal;font-variant:normal;font-weight:normal;font-stretch:normal;font-family:'EngraversGothic BT';-inkscape-font-specification:'EngraversGothic BT';fill:#000000;stroke-width:0.0442525;stroke:none"
               id="path1365" />
            <path
               d="m 41.176134,60.38051 h -0.290407 v 0.73466 h 0.290407 q 0.176319,0 0.277443,-0.09853 0.101124,-0.0994 0.101124,-0.267936 0,-0.165946 -0.102853,-0.26707 -0.102852,-0.101124 -0.275714,-0.101124 z m 0,-0.109767 q 0.225584,0 0.363009,0.133103 0.138289,0.133103 0.138289,0.346587 0,0.215212 -0.135696,0.344858 -0.135696,0.129646 -0.365602,0.129646 h -0.408817 v -0.954194 z"
               style="font-style:normal;font-variant:normal;font-weight:normal;font-stretch:normal;font-family:'EngraversGothic BT';-inkscape-font-specification:'EngraversGothic BT';fill:#000000;stroke-width:0.0442525;stroke:none"
               id="path1369" />
            <path
               d="M 42.308882,61.224937 V 60.270743 H 43.0591 v 0.109767 h -0.631808 v 0.280035 h 0.382024 v 0.109767 h -0.382024 v 0.344858 h 0.670702 v 0.109767 z"
               style="font-style:normal;font-variant:normal;font-weight:normal;font-stretch:normal;font-family:'EngraversGothic BT';-inkscape-font-specification:'EngraversGothic BT';fill:#000000;stroke-width:0.0442525;stroke:none"
               id="path1371" />
            <path
               d="m 45.245942,61.224937 v -0.954194 h 0.11841 v 0.844427 h 0.623165 v 0.109767 z"
               style="font-style:normal;font-variant:normal;font-weight:normal;font-stretch:normal;font-family:'EngraversGothic BT';-inkscape-font-specification:'EngraversGothic BT';fill:#000000;stroke-width:0.0442525;stroke:none"
               id="path1375" />
            <path
               d="m 46.926659,60.856743 h 0.420053 l -0.21089,-0.422646 z m -0.307693,0.368194 0.46759,-0.954194 h 0.09853 l 0.472776,0.954194 H 47.52908 l -0.129646,-0.256699 h -0.527227 l -0.126189,0.256699 z"
               style="font-style:normal;font-variant:normal;font-weight:normal;font-stretch:normal;font-family:'EngraversGothic BT';-inkscape-font-specification:'EngraversGothic BT';fill:#000000;stroke-width:0.0442525;stroke:none"
               id="path1377" />
            <path
               d="m 49.924224,60.695982 h 0.420917 q 0.08989,0 0.135696,-0.03976 0.04667,-0.03976 0.04667,-0.116682 0,-0.07519 -0.04667,-0.116681 -0.04581,-0.04235 -0.129646,-0.04235 h -0.426967 z m -0.11841,0.528955 v -0.954194 h 0.547106 q 0.140017,0 0.219534,0.07087 0.07952,0.07001 0.07952,0.194469 0,0.103717 -0.06223,0.178047 -0.06223,0.07347 -0.164218,0.09162 l 0.238548,0.419188 H 50.5327 l -0.238549,-0.41746 h -0.369923 v 0.41746 z"
               style="font-style:normal;font-variant:normal;font-weight:normal;font-stretch:normal;font-family:'EngraversGothic BT';-inkscape-font-specification:'EngraversGothic BT';fill:#000000;stroke-width:0.0442525;stroke:none"
               id="path1381" />
            <path
               d="m 51.295524,61.224937 v -0.954194 h 0.750219 v 0.109767 h -0.631809 v 0.280035 h 0.382024 v 0.109767 h -0.382024 v 0.344858 h 0.670702 v 0.109767 z"
               style="font-style:normal;font-variant:normal;font-weight:normal;font-stretch:normal;font-family:'EngraversGothic BT';-inkscape-font-specification:'EngraversGothic BT';fill:#000000;stroke-width:0.0442525;stroke:none"
               id="path1383" />
            <path
               d="m 52.834495,60.695982 h 0.420917 q 0.08989,0 0.135696,-0.03976 0.04667,-0.03976 0.04667,-0.116682 0,-0.07519 -0.04667,-0.116681 -0.04581,-0.04235 -0.129646,-0.04235 h -0.426967 z m -0.11841,0.528955 v -0.954194 h 0.547106 q 0.139153,0 0.21867,0.06914 0.08038,0.06915 0.08038,0.189284 0,0.12446 -0.07779,0.201383 -0.07692,0.07692 -0.205704,0.07692 h -0.444252 v 0.41746 z"
               style="font-style:normal;font-variant:normal;font-weight:normal;font-stretch:normal;font-family:'EngraversGothic BT';-inkscape-font-specification:'EngraversGothic BT';fill:#000000;stroke-width:0.0442525;stroke:none"
               id="path1385" />
            <path
               d="m 54.312101,60.270743 v 0.617979 q 0,0.148661 0.05532,0.199655 0.05618,0.05013 0.219534,0.05013 0.163354,0 0.218669,-0.05013 0.05532,-0.05099 0.05532,-0.199655 v -0.617979 h 0.119274 v 0.649959 q 0,0.176318 -0.09162,0.253241 -0.09162,0.07606 -0.301643,0.07606 -0.210027,0 -0.301643,-0.07606 -0.09162,-0.07692 -0.09162,-0.253241 v -0.649959 z m 0.248056,-0.116681 h -0.07952 l 0.18064,-0.302508 h 0.131375 z"
               style="font-style:normal;font-variant:normal;font-weight:normal;font-stretch:normal;font-family:'EngraversGothic BT';-inkscape-font-specification:'EngraversGothic BT';fill:#000000;stroke-width:0.0442525;stroke:none"
               id="path1387" />
            <path
               d="m 55.730079,60.647581 h 0.456353 q 0.0752,0 0.114953,-0.03371 0.03976,-0.03457 0.03976,-0.09853 0,-0.06742 -0.03889,-0.101124 -0.03803,-0.03371 -0.115818,-0.03371 h -0.456353 z m 0,0.467589 h 0.499569 q 0.08125,0 0.127917,-0.04754 0.04667,-0.0484 0.04667,-0.131375 0,-0.08211 -0.04667,-0.13051 -0.04667,-0.0484 -0.127917,-0.0484 h -0.499569 z m -0.11841,0.109767 v -0.954194 h 0.564392 q 0.140882,0 0.212619,0.0605 0.0726,0.05964 0.0726,0.177183 0,0.05704 -0.02247,0.101988 -0.02247,0.04494 -0.06396,0.0726 0.07606,0.04408 0.114953,0.108039 0.03889,0.06396 0.03889,0.146932 0,0.132239 -0.0873,0.210026 -0.08643,0.07692 -0.235092,0.07692 z"
               style="font-style:normal;font-variant:normal;font-weight:normal;font-stretch:normal;font-family:'EngraversGothic BT';-inkscape-font-specification:'EngraversGothic BT';fill:#000000;stroke-width:0.0442525;stroke:none"
               id="path1389" />
            <path
               d="m 57.160141,61.224937 v -0.954194 h 0.11841 v 0.844427 h 0.623165 v 0.109767 z"
               style="font-style:normal;font-variant:normal;font-weight:normal;font-stretch:normal;font-family:'EngraversGothic BT';-inkscape-font-specification:'EngraversGothic BT';fill:#000000;stroke-width:0.0442525;stroke:none"
               id="path1391" />
            <path
               d="m 58.533168,61.224937 v -0.95938 h 0.120138 v 0.95938 z"
               style="font-style:normal;font-variant:normal;font-weight:normal;font-stretch:normal;font-family:'EngraversGothic BT';-inkscape-font-specification:'EngraversGothic BT';fill:#000000;stroke-width:0.0442525;stroke:none"
               id="path1393" />
            <path
               d="m 60.122274,60.920702 0.09507,0.07087 q -0.06569,0.12446 -0.179776,0.191876 -0.114088,0.06655 -0.259292,0.06655 -0.214348,0 -0.354365,-0.140882 -0.139154,-0.141746 -0.139154,-0.358687 0,-0.217805 0.140018,-0.358687 Q 59.564797,60.25 59.77828,60.25 q 0.132239,0 0.241142,0.05791 0.108903,0.05791 0.177183,0.165083 l -0.0994,0.07087 q -0.04494,-0.08557 -0.129646,-0.133968 -0.0847,-0.0484 -0.189284,-0.0484 -0.160761,0 -0.266206,0.110631 -0.105445,0.109767 -0.105445,0.278307 0,0.16854 0.105445,0.278307 0.105445,0.109767 0.266206,0.109767 0.11236,0 0.199655,-0.05532 0.08729,-0.05532 0.144339,-0.162489 z"
               style="font-style:normal;font-variant:normal;font-weight:normal;font-stretch:normal;font-family:'EngraversGothic BT';-inkscape-font-specification:'EngraversGothic BT';fill:#000000;stroke-width:0.0442525;stroke:none"
               id="path1395" />
            <path
               d="m 61.156486,60.856743 h 0.420053 l -0.210891,-0.422646 z m -0.307693,0.368194 0.467589,-0.954194 h 0.09853 l 0.472776,0.954194 h -0.128781 l -0.129646,-0.256699 h -0.527227 l -0.126188,0.256699 z"
               style="font-style:normal;font-variant:normal;font-weight:normal;font-stretch:normal;font-family:'EngraversGothic BT';-inkscape-font-specification:'EngraversGothic BT';fill:#000000;stroke-width:0.0442525;stroke:none"
               id="path1397" />
          </g>
        </g>
        <g
           id="g1484"
           style="fill:#cc0000;stroke:none">
          <path
             id="path835-6"
             style="fill:#ffcc00;fill-opacity:1;stroke:none;stroke-width:0.755906;stroke-miterlimit:4;stroke-dasharray:none;stroke-opacity:1"
             d="M 30.236328,7.5585938 A 22.677165,22.677165 0 0 0 7.5585938,30.236328 22.677165,22.677165 0 0 0 30.236328,52.914062 22.677165,22.677165 0 0 0 52.914062,30.236328 22.677165,22.677165 0 0 0 30.236328,7.5585938 Z m -0.01367,5.6699222 a 17.007874,17.007874 0 0 1 0.01367,0 A 17.007874,17.007874 0 0 1 47.244141,30.236328 17.007874,17.007874 0 0 1 30.236328,47.244141 17.007874,17.007874 0 0 1 13.228516,30.236328 17.007874,17.007874 0 0 1 30.222656,13.228516 Z"
             transform="matrix(0.26458333,0,0,0.26458333,14.000001,50)" />
          <circle
             style="opacity:1;fill:#cc3300;fill-opacity:1;stroke:none;stroke-width:0.281573"
             id="path835"
             cx="22.000002"
             cy="58"
             r="3" />
          <path
             id="path835-6-5"
             style="fill:#333399;fill-opacity:1;stroke:none;stroke-width:0.563147"
             d="m 22.000029,64.000179 c 3.313826,8.4e-5 6.000235,-2.686325 6.000151,-6.000151 8.3e-5,-3.313826 -2.686325,-6.000234 -6.000151,-6.00015 l -0.0036,1.500167 h 1.7e-5 0.0036 c 2.485269,9e-6 4.499975,2.014714 4.499984,4.499983 -9e-6,2.485269 -2.014715,4.499975 -4.499984,4.499984 z"
             sodipodi:nodetypes="cccccsccc" />
        </g>
      </g>
    </g>
  </g>
</svg>
