<?xml version="1.0" encoding="UTF-8"?><svg id="Capa_1" xmlns="http://www.w3.org/2000/svg" viewBox="0 0 251.58 249.73"><polygon points="4.29 3.36 4.29 197 4.69 196.73 4.69 3.77 246.89 3.77 246.89 124.52 246.89 124.53 246.89 124.89 246.89 125.3 246.89 125.82 246.89 245.96 4.69 245.96 4.69 206.31 4.3 206.32 4.29 200.3 4.69 198.46 4.69 196.73 4.29 197 4.29 246.36 247.29 246.36 247.29 3.36 4.29 3.36"/><polygon points="154.89 225.39 160.54 225.39 157.76 217.24 154.89 225.39"/><path d="m174.02,220.57c-2.37,0-2.73,2.01-2.73,4.33s.36,4.36,2.73,4.36,2.71-2.03,2.71-4.36-.34-4.33-2.71-4.33Z"/><polygon points="42.62 158.01 42.73 157.66 43.11 157.5 42.43 156.93 42.17 156.92 41.48 156.89 42.61 158.26 42.62 158.01"/><polygon points="65.98 137.66 65.98 136.86 65.72 136.86 65.47 136.86 65.47 137.4 65.72 137.51 65.98 137.66"/><polygon points="73.34 138.64 73.09 137.85 72.95 137.85 72.55 137.85 72.55 138.64 72.95 138.64 73.34 138.64"/><polygon points="74.09 142.44 74.34 141.92 73.95 141.92 73.58 141.92 73.58 142.66 73.95 142.52 74.09 142.44"/><polygon points="190.63 200.73 195.11 200.73 192.91 194.18 190.63 200.73"/><path d="m63.51,227.55c0,1.19.75,1.86,2.4,1.86,1.01,0,1.75-.08,2.45-.75.39-.39.57-1.01.57-1.93v-1.06h-3.07c-1.55,0-2.35.69-2.35,1.88Z"/><path d="m117.02,202.93c.68-.76.88-1.59.88-5.06s-.2-4.3-.88-5.06c-.51-.58-1.29-.96-2.25-.96s-1.77.38-2.28.96c-.68.76-.86,1.59-.86,5.06s.18,4.3.86,5.06c.51.58,1.32.96,2.28.96s1.74-.38,2.25-.96Z"/><path d="m99.89,192h-3.31v4.75h3.31c1.54,0,2.55-.99,2.55-2.38s-1.01-2.38-2.55-2.38Z"/><path d="m98.23,220.41c-1.23,0-2.19.67-2.6,1.65-.26.59-.31.98-.34,1.78h5.88c-.03-.8-.11-1.19-.36-1.78-.41-.98-1.34-1.65-2.58-1.65Z"/><path d="m119.78,220.57c-2.37,0-2.73,2.01-2.73,4.33s.36,4.36,2.73,4.36,2.71-2.04,2.71-4.36-.34-4.33-2.71-4.33Z"/><path d="m133.54,194.48c0-1.47-1.01-2.48-2.61-2.48h-3.29v4.94h3.29c1.59,0,2.61-.99,2.61-2.46Z"/><path d="m134.94,220.41c-1.23,0-2.19.67-2.6,1.65-.26.59-.31.98-.34,1.78h5.88c-.03-.8-.11-1.19-.36-1.78-.41-.98-1.34-1.65-2.58-1.65Z"/><path d="m224.6,227.55c0,1.19.75,1.86,2.4,1.86,1.01,0,1.75-.08,2.45-.75.39-.39.57-1.01.57-1.93v-1.06h-3.07c-1.55,0-2.34.69-2.34,1.88Z"/><path d="m145.17,191.85c-.97,0-1.77.38-2.28.96-.68.76-.86,1.59-.86,5.06s.18,4.3.86,5.06c.51.58,1.31.96,2.28.96s1.74-.38,2.25-.96c.68-.76.88-1.59.88-5.06s-.2-4.3-.88-5.06c-.51-.58-1.29-.96-2.25-.96Z"/><polygon points="122.76 37.54 123.06 37.32 122.69 37.11 121.64 37.12 122.76 37.54"/><polygon points="241.01 123.87 240.9 124.54 240.96 124.55 241.08 124.57 241.15 124.13 241.05 124 241.01 123.87"/><polygon points="241.71 127.9 241.55 127.66 241.48 128.06 241.67 128.1 241.86 128.14 241.89 127.97 241.72 127.93 241.71 127.9"/><polygon points="236.26 127.17 236 126.96 236.1 127.88 236.16 127.77 236.3 127.65 236.49 127.69 236.36 127.25 236.26 127.17"/><polygon points="151.18 137.29 151.29 136.74 151.91 135.92 152.56 135.62 153.86 134.04 154.65 132.71 155.01 130.93 154.2 129.79 152.65 130.42 151.02 132.1 150.1 134.51 149.52 136.26 149.56 137.84 151.18 137.29"/><polygon points="78.15 140.67 78.15 139.92 77.75 139.92 77.35 139.92 77.35 140.67 77.75 140.67 78.15 140.67"/><polygon points="244.41 125.65 244.14 126.03 244.42 126.09 244.52 126.11 244.72 125.94 244.79 125.54 244.5 125.63 244.41 125.65"/><polygon points="125.8 36.7 125.42 36.47 125.14 36.68 125.59 36.84 125.8 36.7"/><polygon points="123.43 35.76 123.07 35.54 122.99 35.67 122.97 35.72 123.15 35.95 123.43 35.76"/><polygon points="242.77 124.34 242.44 124.6 242.27 124.48 242.1 124.33 242.24 124.69 242.37 125.05 242.65 125.1 243.15 125.21 243.34 125.03 243.45 124.36 242.9 124.25 242.77 124.34"/><polygon points="222.91 200.73 227.39 200.73 225.19 194.18 222.91 200.73"/><polygon points="179.93 139.74 180.33 139.76 180.64 140.24 181.47 139.87 182.47 139.42 182.55 139.36 183.43 137.72 185.16 137.06 185.42 135.8 186.14 134.94 186.36 134.52 186.64 134.3 187.57 133.55 189.02 130.94 188.97 127.98 187.87 125.7 185.21 127.96 183.47 130.08 182.55 131.62 181.07 133.17 179.68 135.57 179.1 138.06 179.14 139.24 179.93 139.74"/><polygon points="4.69 196.73 4.69 198.46 5.13 196.43 4.69 196.73"/><path d="m5.13,196.43l.85-.57,1.85-2.12,1.3-2.21,3.02-3.17,2.36-3.17,1.28-2.59,2.3-1.99,1.07-1.49,1.48-1.78,1.64-3.5,3.44-2.22.24-1.52.85-1.21,1.79-2.05,2.05-2.51.97-1.83,1.48-.61-.25.59.13.3.63.32,1.23-2.36.82.92,1.31.04.46-1.13-.7-.62-.56-.15-1.11.46.28-1.53.38-.16-.5.05-5.36,2.12h-.5l-.25.43-1.24-.21-.76-1.28h-1.03l-.53.52.53.54-1.27.22h-1.5l-1.24-2.28-.82-2.57-1.74-.99.24-2.49,4.31-4.31,3.32-.27,7.38-2.07,3.81-.26,3.52-1.06,1.79-.47,2.05-1.24h1.8l.14-.58.43-1.05.22-.52.97,1.32.08.1.17-.09,2.25-.47-1.18-.78,1.03-1.36.47-1,1.07-.45.2-1.07.3.28.49-1.03.26-.75,1.56-1.99,2.03-1.56.49-.78v-1.25l.75-.49,2.75-1.75-.5-.21,1.5-1.53.99-1.53.54-.75.24-1.28.26-.22,1.2-.91,1.3-1.49,1.24-1.81,1.5-1.47.53-.55-.53-.28.32-.46h.22l1.35-.99-.32-1.92.1-.07.86-.68.14-.28.67-1.28.11-.07.89-.68.24-1.1.03-.15.76-.53.5-.53.6-.97.67-1.07.97-1.75.32-.52h.49l.26-.22v-.78l.99-1.25v-.82l.78-.22v-.74l3.28-3.55,2.32-4.35,1.03-.75.74-1.03,1.25-2.03,1.06-2.31,1.25-1.24.5-1.79,2.36-.56.53-1.78.13-1.45.78-1,.75-1.51.55-1.3.75-.75.25-1.04.53.28.75-1.78,1.24-1.56,1.03-1.46,1.91-.86-.33-.54.53-.24.22-.82,1.23-1.22.54-1.53.75-.53-.75-1.25,1.25-.7.77-1.81.72-1.79,1.28-1.49,1.02-1.49.54-2.32,1.57-1.55,1.28-1.99.2-1.28.54-1.82,1.78-1,1.78.75h2.03v2.07l1.24.96v.82l.53.22-.75,5.09-1.02,5.58-.76.54-.28.99v1.49l-.99.53-.28,1.53.28.79h-.54l-.5.75v1.49l-.75,1.06v3.56l-1.03,1.71-1.28,1.78-.2,1.53-.79,1.53v2.56l-1,1.75v2.8l-1.06,1.53-.75,1.57-.22.96v1.78l-1.07,2.32v3.28l-.71,1.23-.52,1.81-.76,2-1.03,2.32.22,2.3-.75,1.78-.22,2.04-.74,2.03h-.28l-.75,3.27-.53,3.57-.5.28-.47.47.21,2.52-.74,2.1-.54,1.26.25,1.28-.99.5v2.51l-.79.76-.22,3.06-1.06,2.31v1.98l-1,1.29-.28,1.29v1.24h-.23l-.24.25.47.28-.72,1.5-.22,1.81-1.07,3.04-.12,2.02-1.93,7.21.3-.11.6-.63,1.09-.29.84-.37.87-1.64.47.38.46-1.17.93-.64,1.17-.78.83-1.61,1.66-1.74,1.89-1.43.21-1.05.77-.07.27-.22.11-.53,1.15-.24.25-1.22.67.4.87-1.7,1.11-1.61.4-1.96,1.28-1.26.64-4.61,1.81-3.72.77-1.11,1.46-.76,2.65.76.63.96,1.18.49,1.62-1.52,2.09-.12.25-.17.1-.51,2.92-.14,2.56-.03,1.34,1.04.77,1.42.57.95.67.62-.67,3.28v2.28s-1.39,2.08-1.39,2.08l-.1,1.53-1.16,2.09-.44,3.29-.78.09-.32.49-1.02,3.35,1.33,2.42,2.48-.81,2.15-.39,2.13-2.61,2.88-1.55,2.47-4.62.76-4.79,1.59-3.02.97-2.87,1.01-2.1.74-1.22,1.02-1.29,1-1.69,1.08-.32.42-.67,1.43-.76,1.51-1.01,1.06-.12.79-.06,2.2.52.7.63,1.14.78.34.84.25-.19v1.29s.86.93.86.93l-.31,1.53.53,1.12-.25,2.82-1.2,1.8-.26,1.25-1.13,1.62-.08.3-.2.05h-.3s-.99,1.11-.99,1.11l-.85,1.68-.54.34-.38.45-.98.65-.82.57-1.19.76-1.06,1.02-.28.3-.28.2-.15.77.14.5,2.9-.17,2.86-.18,1.4-.47.7-.92,1.04.21.54-.13.1-.49,1.32-.28,1.36-.28,1.94-1.84,1.86-1.48.25-.42.3-.27.4-.35,1.41-1.6.8-1.62,1.84-1.23,1.14-1.83,1.26-1.02,1.04-1.34.75-1.15.93-.85.94-.88.95-.79.91-1.92.86-1.61,1.18-.59.83-.34,1.07-1.51,1.37-1.58,1.3-1.3,1.32-.6.67-.3-.14-.57,3.21.65,2.07-1.1.1-.49,2.48.51,1.05,1.27-.25,1.22.57.92.15.78.66.43-.8,3.95-.52-.1-.26.23.2.04.47.36-1.41,1.74-.56,2.76-.32,3.09,1.07,2.25-.3.16,3.05,1.12.07.06-.09-.02-.43-.09-.05.27.43.09.37.07.06-.27,4.91-1.71,1.55-.47,3.19-.67,1.55-.59h1.27l1.7-.45,1.44-.69,2.67-.59,2.33-.82,1.57-.89,1.89-.22.86-.32.74-.51h.91s2.04-1.21,2.04-1.21l1.08.02.27-.08,1.45-.52.85-.53.74.15-.25.19-.03.17.17.32,1.09-.69.09.64.51.39.47-.37-.11-.47-.18-.22-.55-.11.5-.59.38.07.8-.05.44-.51.28.66.75.36.77-1.19.06-.05,2.04-1.04.51-.02h.47s.84-.28.84-.28l.7-.91.05.11.24.57.53.29.2-.14.1-.61-.39-.08-.35-.07.7-.74.44-.34.22-.16.04.85.05.34.06.35.99-.05.87-.64.09-.04.3-.15h.81s-.07.42-.07.42l-.03.18.8-.02h-.4s.42,1.07.42,1.07l.08.29V3.77H4.69v192.96l.44-.3h0ZM121.57,35.46l-.17-.16-.18-.36h1.02s.14.05.14.05l.22.02v-.06l-.96-.62.07-.5-.31-.45h.22s.17-.12.17-.12l.36.1.45.02-.09-.41-.12-.45.43-.47-.25-.5h.21s.23.02.23.02l.4-.14-.47-1.01.15-.26.62-.16.02-.69.28-.69.52-.31-.12-.59-.23-.36.1-.5c.99-.97,1.72-2.08,2.17-3.32.28-.8.56-1.62.84-2.43l.31.48.75.05.18-.13-.25-.13.63-.61-.07-.65.19-.13-.14-.18.56-.27.91.21.35-.28-.05-.29-.47-.03.37-.39.53-.39,1.56.37,1.58.57,1.12-.16,1.11.81.58,2.4-1.07.95-.66,1.16-1.26,1.07-.74,1.23-.41.59-.13.91-.83.59-.13.65-.58.71-.83,1.26-.5,1.24-1.57,1.42-.59,1.25-.63.33-.19.64h.22s-.84.59-.84.59l-.03.27-.07.44v.05l-.45.04-.61.07-.47.32-.29.04-.24.04-.06.02.41.2.26.14.09.06.38.43-.38-.24-.48-.16-.29.09-.16.1.52.46-.24.34-.12-.07.09-.06-.23-.03-.18.13-1.43-.97-.09-.41.16-.29-.91-.38-.24-.16-.43.11-.31-.07,1.08-.79.77-.41.02-.49-.86-.3Z"/><path d="m246.85,126.13l-.08-.02-.03.19.12.15-.21,1.3h-.14s-.28,0-.28,0l-.89.45-.23.4-.07.44-1.02-.41-.27-.12-.05-.64-.35-.25-.91.63-.35.39-.35.38-.18-.04-.19-.04.04-.26-.33-.43-.35-.07-.31.57-.13.78-.11-.02-1.34-.45-.56.52-.39.34-2.19.89-.32.12-1.05.96-.16-.46-.52-.31-.53.74-.13.8-.91-.18-.65.32-.1.62-.91-.36-.22-.96.06-.37-.12-.47-.78,1.13-.2,1.23-.53-.29-.08-.12-1.11.32-.15.76-1.33-.03-.88.58-1.41.17-1.52.28-1.26.99-2.89,1.03-2.03.19-2.01,1.76-2.72-.59-2.41.26-1.54.65-1.47.26-1.11.73-2.13.43-1.25.31-4.59,2.19-5.38-1.09-.41-.62-.32.26-.2-.04.06-.31.24-.16-.93-.41-1.26-.26-.36.8-.47.48-.41.62-.61.84-.65.47-.74.6-.69.63-.34.68-.66.12-1,1.09-.88.56-.52-.1-.37.07-.19.02-.11.53-1.22-.25-.59.43-.1.49-2.62-1.05-2.67-1.09-.8-.92-.86-.91-.43-.42-.83.16-.88.56-.68.84-.87.36-1.19.86-.04.2.21.04-1.41.51-1.48,1.02-2.24.84-2.1,1.35-1.91.42-1.88.37-2.28,1.07-2.25.85-1.37.53-1.58-.06-.28.04-2.13.51-2.48-.5-.85-1-1.46-.51-1.85,1.44-1.82,1.43-.49.88-1.03.34-3.04,1.74-2.7,2.04-.83.36-.1.49-1.22-.25-.87.34-.09.46-2.48-.51-1.3-1.25-1.92-.9-1.32-1.03-.28-2.42-.02-2.36-.24-.79.04-.43-.03-.36.37-.21-.02-.35.04-.41h.37s-.05-.42-.05-.42v-.24s.17.01.17.01l.29-1,.28-.42.08-.42.23-.06.35-.48-.42-.54.32-.2.3-.24-.15-1.88.4-1.95,1.47-2.06.44-2.19-.43-.39-.72-.15-1.51,1.01-1.26,1.01-1.15,1.9-1.08,1.56-1.42,1.78-.87,1.64-1.34,1.8-1.07,1.3-.1.48-1.29,1.33-.36,1.75-1.19.53-.93.82-.52,1.49-1.25.76-.31.41-.55.22-1.01,1.28-.84,1.4-1.27.55-.81,1.34-1.55.73-1.16,1.27-1.84.63-.66.48-1.65.5-1.29.28-2.28,1.07-3.23,1.04-1.68.24-.78.35.12-.26-.2.15-.51-.35-1.68.05-.83-1.29-.14-1.56.45-2.64.05-1.7.56-1.3.38-1.17.22-2.56.44-.84.82-2.53.21-2.49,1.03-2.3v-2.54l.99-1.77v-.26l-.22-.28v.28h-.52v-.28l.74-1.78,1.03-1.49v-2.31l.5-1.79.46-1.75.29-1.75,1.07-2.09v-2.53l.75-1.49v-2.32l.71-.49.29-.99v-2.53l.46-.28.32-.53.2-2.24,1.07-1.79v-2.81l.47.26.29-.26-.29-.74.49-1.81.78-1.46.47-3.38.54-3.27,1.02-1.77.25-2.24h.53l.49-3.06.76-1.78v-2.03l1.03-1.78.74-2.07.26-2.28-.47-1.74-.81.75v1.53l-1.24.46-.75,1.03-.53,1.54-.53.99-1,1.07-.75.96-.78,1.57-.75,1.49-1.02,1.28-.78,1.54-.96.75-.79.74-1.27,2.03-.99,2.6h-.5l-.29.47v.52l-1.28,1.01-.75,1.49v.53l-.96,1.06-1.07,1.25v.96l-1,.29-.24.99.24.3-.99,1.02-1.04,1.49-.53,1.07-.7.74-.78.72-.28,1.28h.28l-.82.28-.43.47-1.21,1.38-.6.68-1.26,2.28h-.03l-1.14,1.14-.1.1-.67,1.7-.14.37-.71.78-.14.1-.61.65.22.49-.22.49-.74.55-.31.74-1.51,1.28-1.23.99-.29,1.28-.76.47-.25,1.28v1.08l1.5.19,1.56-.75-.32-.24h2.34l.61-.35,1-.6.14-.08.63.43.9.6h1.28l.45.24.4.22.14.07-.14-.82-.07-.46.07-.21.4-1.08v.78l.27.75.54.21h.43l.32-1.28.99-.22v.22h-.24l.24.32h.5l-.21,3.03-.78.74-.82.25-.22.5v.54l.76.25.28.49h-3.06l-1.29.86-.99.71-.15.35-.1.4-.53.74h-.75v-.26l-.25-.28-.14.11-.61.43-.74.21-.54,1.06-.24-.25h-.5v-1.02l-.53-.54-.76.75-.77.81-1.53.25-.75,1.01-.26-.26-.25-.24-.78-.24-.77,1.99-.99.39-.5-.11-1.79.51-1.02.69.16.38-1.43.33-4.11,1.61-.17.81-.23,1.01-.37.15-.38.16-.2-.48-1.04-.3-.7.29.04,1.27.59,1.42-.23.09-2.86.82-.45,1.49-.34,1-2.99,3.96-.45.56-.88,2.76-.77-.55-1.24.1-.18,1.8.6,1.44-1.81.75-.83,1.28.47,1.12-2.01.47-1.4-1.3-.28-.67-.7-.61-.22,2.71.92,2.22-1.25.15-1.11-.46-1.74,2.02-.81,2.19-3.24,1.74.48,1.15-1.79,1.16-.65,1.57-1.72,1.48-1.76,1.74-.78,2.44-2.92,3.95-2.53,2.07-1.09,4.13-4.14,1.66-5.05,3.75-1.32.04v39.65h242.19v-120.14.45s-.04-.13-.04-.13Zm-181.66,62.73h11.86v3.13h-8.35v4.22h7.11v3.14h-7.11v4.38h8.35v3.14h-11.86v-18.01Zm-19.63,0h3.47l4.71,9.74,4.68-9.74h3.47v18.01h-3.52v-10.5l-3.44,6.83h-2.38l-3.46-6.83v10.5h-3.52v-18.01Zm8.28,42.58h-2.17l-6.03-18.36h2.89l4.23,13.35,4.23-13.35h2.94l-6.08,18.36Zm17.71,0h-2.58v-1.19c-.96.95-1.86,1.34-3.48,1.34s-2.71-.39-3.5-1.19c-.67-.69-1.03-1.7-1.03-2.81,0-2.19,1.52-3.76,4.51-3.76h3.45v-.93c0-1.65-.82-2.45-2.86-2.45-1.45,0-2.14.34-2.86,1.26l-1.73-1.62c1.23-1.44,2.52-1.88,4.69-1.88,3.58,0,5.39,1.52,5.39,4.48v8.74Zm9.95,0h-1.62c-2.5,0-3.58-1.68-3.58-3.61v-14.75h2.63v14.59c0,1.01.36,1.52,1.42,1.52h1.16v2.24Zm8.82,0h-1.62c-2.5,0-3.58-1.68-3.58-3.61v-14.75h2.63v14.59c0,1.01.36,1.52,1.42,1.52h1.16v2.24Zm.83-39.44h-4.71v14.87h-3.52v-14.87h-4.7v-3.14h12.93v3.14Zm12.63,33.67h-8.48c0,2.24,1.19,3.66,3.33,3.66,1.47,0,2.24-.41,3.17-1.34l1.68,1.57c-1.34,1.34-2.6,2.04-4.9,2.04-3.28,0-5.88-1.73-5.88-6.7,0-4.23,2.19-6.68,5.54-6.68s5.54,2.58,5.54,6.29v1.16Zm-1.15-18.8l-3.52-7.18h-2.53v7.18h-3.52v-18.01h7.06c3.67,0,5.84,2.51,5.84,5.52,0,2.53-1.54,4.1-3.29,4.73l4.02,7.77h-4.07Zm5.49-9c0-3.11-.05-5.36,1.77-7.18,1.26-1.26,2.83-1.97,4.88-1.97s3.59.71,4.86,1.97c1.82,1.82,1.8,4.07,1.8,7.18s.03,5.36-1.8,7.18c-1.26,1.26-2.81,1.97-4.86,1.97s-3.62-.71-4.88-1.97c-1.82-1.82-1.77-4.07-1.77-7.18Zm17.01,33.57h-2.58v-1.39c-.98,1.19-2.04,1.55-3.46,1.55-1.31,0-2.47-.44-3.19-1.16-1.32-1.32-1.47-3.56-1.47-5.54s.16-4.2,1.47-5.52c.72-.72,1.86-1.16,3.17-1.16,1.39,0,2.47.33,3.43,1.47v-6.6h2.63v18.36Zm2.52-24.57h-3.52v-18.01h6.98c3.72,0,5.94,2.55,5.94,5.61s-2.23,5.62-5.94,5.62h-3.46v6.78Zm12.84,18.79h-8.48c0,2.24,1.19,3.66,3.33,3.66,1.47,0,2.24-.41,3.17-1.34l1.67,1.57c-1.34,1.34-2.6,2.04-4.9,2.04-3.27,0-5.88-1.73-5.88-6.7,0-4.23,2.19-6.68,5.54-6.68s5.54,2.58,5.54,6.29v1.16Zm-.19-20.62c-1.82-1.82-1.77-4.07-1.77-7.18s-.05-5.36,1.77-7.18c1.26-1.26,2.83-1.97,4.88-1.97s3.59.71,4.86,1.97c1.82,1.82,1.8,4.07,1.8,7.18s.03,5.36-1.8,7.18c-1.26,1.26-2.81,1.97-4.86,1.97s-3.62-.71-4.88-1.97Zm22.29,26.39l-1.26-3.69h-7.24l-1.26,3.69h-2.97l6.73-18.36h2.24l6.73,18.36h-2.97Zm3.54-24.57h-11.69v-18.01h3.52v14.87h8.17v3.14Zm58.87-33.01l.03-.04.21.21h-.5l.26-.17Zm-22.89,15h3.14l7.13,11.03v-11.03h3.52v18.01h-3.14l-7.13-11.06v11.06h-3.52v-18.01Zm-34.05,0h3.52v18.01h-3.52v-18.01Zm9.85,41.57c-.72.72-1.88,1.16-3.2,1.16-1.42,0-2.48-.36-3.45-1.55v1.39h-2.58v-18.36h2.63v6.6c.95-1.13,2.03-1.47,3.43-1.47,1.31,0,2.45.44,3.17,1.16,1.32,1.32,1.47,3.53,1.47,5.52s-.15,4.23-1.47,5.54Zm3.84-23.56h-3.52v-14.87h-4.7v-3.14h12.93v3.14h-4.71v14.87Zm12.43,24.57h-2.58v-1.32c-.9.98-2.17,1.47-3.48,1.47s-2.45-.44-3.22-1.19c-1.01-.98-1.32-2.22-1.32-3.69v-8.35h2.63v7.96c0,2.04,1.16,2.91,2.63,2.91s2.71-.9,2.71-2.91v-7.96h2.63v13.07Zm1.89-27.76h-6.4l-1.09,3.19h-3.67l6.55-18.01h2.76l6.58,18.01h-3.67l-1.06-3.19Zm10.25,17.75c-.59-.59-1.05-.88-1.96-.88-1.42,0-2.6,1.14-2.6,2.94v7.94h-2.63v-13.07h2.58v1.42c.67-.93,2.01-1.57,3.48-1.57,1.26,0,2.22.33,3.12,1.24l-1.98,1.98Zm12.09,0c-.59-.59-1.05-.88-1.96-.88-1.42,0-2.6,1.14-2.6,2.94v7.94h-2.63v-13.07h2.58v1.42c.67-.93,2.01-1.57,3.48-1.57,1.26,0,2.22.33,3.12,1.24l-1.99,1.98Zm14.26,10h-2.58v-1.19c-.95.95-1.86,1.34-3.48,1.34s-2.71-.39-3.51-1.19c-.67-.69-1.03-1.7-1.03-2.81,0-2.19,1.52-3.76,4.51-3.76h3.46v-.93c0-1.65-.82-2.45-2.86-2.45-1.44,0-2.14.34-2.86,1.26l-1.73-1.62c1.24-1.44,2.53-1.88,4.69-1.88,3.58,0,5.39,1.52,5.39,4.48v8.74Zm-6.42-15.44l1.93-4.18h2.91l-2.86,4.18h-1.98Zm3.16-9.13l-1.06-3.19h-6.4l-1.09,3.19h-3.67l6.55-18.01h2.76l6.58,18.01h-3.67Z"/><polygon points="75.16 141.41 75.16 141.2 74.72 141.2 74.34 141.2 74.34 141.41 74.72 141.41 75.16 141.41"/></svg>