<?xml version="1.0" encoding="UTF-8"?><svg id="Capa_2" xmlns="http://www.w3.org/2000/svg" viewBox="0 0 452.2 104.2"><defs><style>.cls-1{stroke-width:0px;}</style></defs><g id="Layer_1"><path class="cls-1" d="M100.95,73.81c-5.64-3.43-12.03-4.69-18.39-5.72-8.74-1.42-8.77-1.24-12.06,7.08-3.24,8.18-5.6,9.8-14.5,9.84-6.48.03-12.96-.01-19.44.02-1.58,0-3.32-.49-4.18,1.69-2.22,5.65-4.58,11.24-7.03,17.23,11.39,0,22.24.67,32.97-.15,16.78-1.28,32-7.06,44.14-19.24,4.32-4.34,3.73-7.56-1.5-10.74Z"/><path class="cls-1" d="M27.03,31.24c4.82,2.36,10.02,3.49,15.24,4.5,9.77,1.89,9.78,1.84,13.43-7.34,3.01-7.56,5.64-9.36,13.9-9.4,6.65-.03,13.31,0,19.96-.02,1.59,0,3.31.41,4.16-1.75,2.17-5.51,4.48-10.96,6.97-17-11.67,0-22.65-.6-33.54.14-16.02,1.08-30.39,6.96-42.33,17.91-5.79,5.31-4.91,9.47,2.2,12.96Z"/><path class="cls-1" d="M40.38,66.41c-5.1,0-9.19.05-13.27-.01-5.59-.08-6.78-1.9-4.72-7.15,2.72-6.93,5.47-13.84,8.21-20.77.87-.78,1.48-1.54-.17-2.12-5.81-.06-11.63-.08-17.44-.2-1.8-.04-3.08.29-3.99,2.14C1.6,53.43-2.16,69.18,1.3,85.97c1.82,8.83,7.74,11.34,15.55,6.74,10.29-6.06,16.66-15.71,23.53-26.3Z"/><path class="cls-1" d="M125.35,19.59c-.99-10.69-8.65-14.81-17.29-9.24-8.86,5.71-14.77,14.2-20.59,22.71-1.27,1.85-1.02,3.1,1.61,3.06,3-.04,5.99-.03,8.99,0,6.15.06,7.49,1.92,5.25,7.7-2.45,6.34-5.11,12.61-7.69,18.9-.99,2.41-.69,3.61,2.39,3.47,4.65-.22,9.33-.23,13.97,0,2.93.15,4.5-.91,5.73-3.55,5.06-10.82,8.31-22.01,7.67-34.08,0-2.99.23-6-.04-8.97Z"/><path class="cls-1" d="M262.04,41.69c.13-7.14-.05-14.29.1-21.43.07-3.21-.11-5.23-4.38-5.2-3.97.03-4.74,1.45-4.58,4.97.16,3.45.56,7-.44,11.02-3.48-4.45-6.7-8.26-9.56-12.32-2.88-4.1-6.38-4.54-10.6-2.6-.59,9.95-.57,19.9-.01,29.86,7.29,2.45,8.48,1.67,8.48-5.54,0-3.02,0-6.04,0-10.47,4.57,5.81,8.24,10.27,11.66,14.91,2.15,2.92,5.12,2.28,7.72,1.85,2.81-.47,1.59-3.26,1.62-5.03Z"/><path class="cls-1" d="M307.97,56.77c-9.9-.08-17.2,6.59-17.42,15.91-.22,9.11,7.28,16.38,16.94,16.43,9.76.05,17.06-6.92,17.03-16.26-.03-9.34-6.89-16.01-16.55-16.08ZM307.49,81.14c-4.4-.09-8.01-3.93-7.93-8.44.08-4.44,4.03-8.46,8.19-8.33,4.27.13,7.84,4.1,7.79,8.65-.05,4.82-3.42,8.21-8.05,8.12Z"/><path class="cls-1" d="M377.22,57.44c-4.5-.14-9.04-1.15-13.46.6-.71,9.65-.33,19.3-.19,28.95-.17.62-.04,1.05.69,1.13,4.43,1.06,8.95.71,13.36.36,10.09-.82,15.84-6.8,15.77-15.82-.07-9.01-5.71-14.32-16.17-15.22ZM377.29,80.81c-1.41.28-2.83.56-4.94.97,0-4.92.06-9.54-.03-14.16-.03-1.86.52-2.55,2.51-2.65,5.01-.26,8.91,2.38,9.45,6.75.61,4.87-1.85,8.06-6.99,9.09Z"/><path class="cls-1" d="M420.08,80.96c-3.65.18-7.31.02-10.96.05-1.57.01-2.87.1-2.87-2.22,0-2.33.99-2.78,3.01-2.7,2.99.12,5.99-.09,8.97.07,2.44.13,3.09-.84,3.1-3.17,0-2.42-.45-3.75-3.25-3.6-3.15.17-6.31-.02-9.47.05-1.69.03-2.31-.61-2.33-2.33-.02-1.8.75-2.29,2.38-2.26,3.16.06,6.31-.07,9.47.03,2.7.09,4.64.12,4.68-3.72.04-4-1.84-4.3-4.86-4.03-1.65.14-3.32-.04-4.98.04-4.95.23-11.36-2.07-14.47.83-3.41,3.18-.6,9.73-1.16,13.96,0,4.97.06,9.12-.03,13.26-.05,2.13.35,3.49,2.92,3.46,6.64-.09,13.29-.1,19.93,0,3.01.05,2.99-1.77,3-3.92.01-2.2-.08-3.94-3.09-3.8Z"/><path class="cls-1" d="M233.42,69.1c-2.2-.71-6.39-.54-5.57-3.38.97-3.36,4.73-1.44,7.37-.83.32.07.67.16.93.35,4.06,3.02,5.44-.81,6.57-3.09,1.55-3.11-2.03-3.09-3.59-3.99-2.34-1.35-5.09-1.37-7.77-1.3-.83,0-1.67-.06-2.49,0-5.88.48-9.81,3.88-10.35,8.92-.53,4.91,1.85,7.92,7.91,9.86,2.21.71,4.49,1.19,6.7,1.91,1.05.34,2.42.68,2.25,2.22-.18,1.71-1.57,1.94-2.95,2.01-3.09.16-5.87-.78-8.5-2.35-3.54-2.11-4.19,1.53-5.61,3.1-1.86,2.07.51,2.87,1.78,3.58,4.95,2.78,10.33,3.75,15.89,2.59,5.69-1.18,8.79-5.22,8.39-10.65-.49-6.75-6.11-7.39-10.96-8.95Z"/><path class="cls-1" d="M443.25,69.76c-2.08-.58-4.16-1.14-6.22-1.77-.97-.3-1.91-.83-1.84-2.02.08-1.47,1.25-1.83,2.46-1.94,2.57-.23,4.9.58,7.15,1.74,3.68,1.89,4.07-1.82,5.33-3.46,1.58-2.06-.61-2.79-2.03-3.52-4.82-2.47-9.94-2.7-15.01-1.28-4.44,1.24-6.86,4.41-6.99,9.17-.13,4.55,2.5,7.02,6.41,8.39,2.5.88,5.14,1.35,7.64,2.22,1.29.45,3.34.75,2.81,2.79-.44,1.69-2.22,1.74-3.75,1.71-2.71-.06-5.28-.78-7.53-2.25-3.53-2.31-4.24,1.18-5.66,2.77-2.14,2.39.42,3.09,1.87,3.88,3.38,1.86,7.03,2.92,10.94,2.81.83,0,1.67.06,2.49,0,6.27-.51,10.47-4.24,10.86-9.63.35-4.74-2.52-7.82-8.92-9.6Z"/><path class="cls-1" d="M335.99,44.88c2.19,3.72,5.94,2.36,8.44,1.61,2.52-.76.11-3.4-.51-4.94-3.23-7.96-6.81-15.79-10.05-23.75-.93-2.29-2.3-3.02-4.54-2.77-2.16.24-4.7-.86-5.91,2.22-3.77,9.66-8.56,18.91-11.84,28.78,2.61,1.53,5.27,1.1,7.94.21,0,0-.04.06-.04.06.68-.11.97-.54,1.01-1.19.76-1.26,1.38-3.48,2.3-3.61,3.41-.48,6.92-.39,10.38-.28,2.18.07,2.03,2.34,2.81,3.67ZM330.99,33.49c-.7,1.92-3.51.2-6.15,1.18,1.33-3.23,2.25-5.46,3.52-8.53,1.55,2.91,3.36,5.35,2.62,7.35Z"/><path class="cls-1" d="M204.98,59.47c-1.07-2.66-3.07-2.56-5.29-2.55-2.2.01-4.26-.15-5.33,2.5-3.64,9.08-7.41,18.1-11.13,27.14-.63.58-1.17,1.14.15,1.52,2.32.81,4.64.67,6.98.1.79.02,1.11-.46,1.22-1.15,2.86-5.31,12.26-5.91,15.57-.99.1.84.17,1.7,1.22,1.93,2.26,1.24,4.63.57,6.97.39q1.75-.85.27-3.14c-3.56-8.58-7.18-17.13-10.64-25.75ZM196.56,75.86c.7-2.65,1.5-5.04,3.13-7.57,1.24,2.62,2.53,4.78,2.72,7.57h-5.85Z"/><path class="cls-1" d="M297.12,47.28c3.55.12,7.24-.77,10.16-3.53,1.13-1.07,3.95-2.37,1.94-4.1-1.78-1.54-3.46-5.31-7.33-2.24-3.87,3.07-7.94,2.5-10.63-.72-2.5-2.99-2.53-8.07-.08-11.1,2.59-3.2,6.6-3.76,10.63-.85,4.01,2.89,5.44-1.17,7.21-2.71,2-1.74-.79-3.04-2.03-4.04-5.29-4.28-14.29-4.28-20.05-.15-5.83,4.17-8.08,11.42-5.81,18.64,2.13,6.75,8.02,10.84,15.98,10.8Z"/><path class="cls-1" d="M173.94,47.29c3.38.13,6.93-.64,9.83-3.14,1.33-1.15,4.28-2.46,2.48-4.37-1.7-1.8-3.69-5.52-7.69-2.16-3.47,2.91-7.7,2.23-10.23-.79-2.68-3.2-2.75-8.43.08-11.47,3.11-3.34,6.84-3.43,10.24-.69,3.93,3.16,5.49-.9,7.19-2.47,2.31-2.14-.83-3.39-2.14-4.42-5.18-4.06-14.05-3.95-19.65,0-5.85,4.13-8.24,11.54-5.98,18.58,2.22,6.91,7.89,10.92,15.86,10.94Z"/><path class="cls-1" d="M287.81,81.23c-1.7-1.45-3.32-4.95-7.01-2.03-3.92,3.1-8,2.52-10.65-.68-2.56-3.09-2.6-7.98-.08-11.09,2.67-3.31,6.3-3.83,10.59-.8,3.79,2.68,5.15-.95,6.91-2.45,2.69-2.29-.65-3.42-1.83-4.41-4.88-4.07-14.23-4.09-19.7-.31-5.8,4-8.29,11.55-6.14,18.59,2.09,6.83,7.96,11.05,15.41,11.06,4.67,0,7.9-.85,10.64-3.39,1.22-1.13,4.33-2.38,1.87-4.49Z"/><path class="cls-1" d="M190.62,30.98c0,3.98.14,7.96-.05,11.93-.14,2.95.79,4.18,3.94,4.05,5.47-.21,10.95-.23,16.42,0,3.15.14,3.97-1.03,3.93-3.98-.03-2.81-.51-4.37-3.82-3.99-2.62.3-5.31-.1-7.95.1-2.78.22-3.8-.66-3.68-3.57.22-5.46-.16-10.95.14-16.4.2-3.61-1.45-4.03-4.42-4-2.86.03-4.82.24-4.58,3.92.26,3.96.06,7.95.06,11.93Z"/><path class="cls-1" d="M175.85,80.92c-1.77.3-3.67-.16-5.46.09-3.67.52-4.43-1.12-4.26-4.45.27-5.29-.13-10.62.14-15.91.21-4.1-2.38-3.4-4.85-3.54-2.74-.15-4.28.31-4.18,3.69.23,8.12.18,16.24.02,24.36-.06,3.22,1.13,4.26,4.14,3.46h17.99c1.27.18,1.98-.25,1.81-1.65.96-4.43-.13-6.95-5.35-6.06Z"/><path class="cls-1" d="M276.17,40.74c0-6.44,0-12.87,0-19.31,0-6.92-1.34-7.75-8.61-5.31-.51,9.95-.49,19.9,0,29.85,7.25,2.46,8.61,1.63,8.62-5.24Z"/><path class="cls-1" d="M218.16,31.49c0,3.65,0,7.31,0,10.96,0,2.41-.75,5.07,3.52,4.71,3.26-.27,5.35-.65,5.24-4.67-.22-7.63-.19-15.28,0-22.92.07-2.89-.93-3.44-3.65-3.63-4.07-.29-5.69.81-5.19,5.1.4,3.44.08,6.97.08,10.45Z"/><path class="cls-1" d="M231.12,7.73c-7.91-3.46-8.24-3.3-11.19,5.35,5.33,1.53,8.25-1.75,11.19-5.35Z"/><path class="cls-1" d="M358.37,63.37c0-6.97-.89-7.56-8.06-5.35-1.11,4.07-.21,8.22-.5,12.32-.07,1.02.47,2.73-1.68,1.61-.29-.37-.58-.73-.87-1.1-2.98-3.95-5.97-7.9-8.93-11.86-2.26-3.03-5.54-2.04-8.26-1.6-2.74.44-1.46,3.29-1.49,5.06-.13,7.62.08,15.24-.12,22.86-.1,3.73,2.18,3.33,4.55,3.36,2.45.04,4.65.23,4.41-3.44-.27-3.99-.06-8.01-.06-13.27,4.57,5.5,8.14,9.8,11.71,14.1.35.4.69.8,1.04,1.2-.03-.02-.06-.05-.1-.07.21.6.56,1.01,1.26.99,2.05.79,4.1.65,6.17.08,1.73-1.01.89-2.68.91-4.03.09-6.95.04-13.91.04-20.86Z"/></g></svg>