<?xml version="1.0" encoding="UTF-8"?><svg id="Capa_2" xmlns="http://www.w3.org/2000/svg" viewBox="0 0 785.81 241.41"><g id="Capa_1-2"><path d="m126.7,95.89c-.5,1.03-.18,2.19-.52,3.23-1.89,5.77-1.23,11.79-1.22,17.63.01,3.92,1.08,8.05,2.42,11.91,2.1,6.02,4.9,11.73,8.83,16.77,7.42,9.52,17.19,15.7,28.69,19.22.76.23,2.25.73,2.29-.98.1-3.78,1.26-7.41,1.56-11.16.46-5.74,1.95-11.34,2.37-17.1.18-2.52.41-2.5-1.89-3.39-.1-.04-.21-.04-.31-.06-2.33-1.7-4.75-3.28-6.47-5.7-1.54-2.18-3.08-4.34-4.15-6.8-2.2-5.05-1.72-10.3-1.18-15.56.7-.24.6-.95.79-1.45,1.72-4.53,4.32-8.41,8.15-11.45,4.63-3.67,9.75-5.9,15.8-5.57.95.05,1.9-.05,2.86-.08,1.76,0,3.41.42,5.08,1.02,6.61,2.41,11.54,6.7,14.6,12.97,1.96,4.03,2.71,8.35,2.52,12.89-.14,3.4-1.17,6.39-2.75,9.32-1.07,1.98-2.37,3.69-3.95,5.32-2.05,2.12-4.24,4-6.69,5.61-.34.22-.82.19-.75.78.13,1.15-.03,2.29.18,3.46.48,2.65.9,5.32,1.11,8.01.15,1.97.67,3.85.88,5.8.22,2,.67,3.95,1.04,5.93.43,2.29.62,4.63.96,6.94.15,1.03.51,1.43,1.82,1.13,2.52-.58,4.67-2.01,7.13-2.67.45.19.8-.1,1.2-.24,2.42-.85,4.61-2.19,6.71-3.6,4.97-3.33,9.83-6.8,13.56-11.6,1.48-1.91,2.94-3.81,4.31-5.81,4.52-6.61,6.77-13.94,7.47-21.8.36-4.07,1.11-8.13.36-12.27-.52-2.89-.54-5.88-1.17-8.74-1.82-8.35-5.3-15.92-10.99-22.44-5.17-5.93-11.14-10.78-18.16-14.36-.37-.21-.72-.47-1.11-.62-4.79-1.87-9.57-3.65-14.76-4.34-3.32-.45-6.65-.79-9.98-1.14-2.36-.25-4.48.08-6.82.14-3.88.1-7.83,1.29-11.51,2.29-5.43,1.47-10.51,3.8-15.18,6.95-9.09,6.14-16.28,13.91-20.47,24.16-1,2.44-1.79,4.96-2.68,7.44Z"/><path d="m483.42,134.35h0c0-8.76,0-17.51,0-26.27,0-.16,0-.32,0-.48.07-9.23,4.45-14.29,12.56-16.99,3.26-1.09,6.66-1.04,10.02-.38,5.18,1.01,9.24,3.59,11.63,8.45,1.84,3.75,2.11,7.82,2.13,11.85.07,17.47,0,34.93-.07,52.4,0,1.15.24,1.54,1.48,1.53,11.4-.05,22.8-.05,34.2,0,1.32,0,1.56-.42,1.55-1.62-.03-18.31-.04-36.62,0-54.93,0-4.07-.11-8.14-.63-12.18-.5-3.83-1.19-7.62-2.21-11.37-2.19-8.04-5.55-15.36-11.98-20.98-3.14-2.75-6.64-4.81-10.53-6.42-3.37-1.4-6.81-2.27-10.36-2.69-3.21-.38-6.45-.66-9.71-.41-2.53.2-5.08.47-7.46,1.18-3.03.9-5.98,2.28-8.75,3.83-4.72,2.63-8.53,6.26-11,11.15-.2.39-.3,1.13-.86,1-.7-.16-.39-.92-.32-1.35.52-3.59.22-7.19.31-10.79.05-2.02-.36-2.43-2.33-2.43-10.81,0-21.63-.02-32.44.01-2.62,0-2.39-.45-2.39,2.37,0,30.52.02,61.04.03,91.56,0,4.14.02,8.28-.08,12.42-.03,1.27.26,1.67,1.63,1.66,11.24-.07,22.48-.04,33.72-.04.32,0,.64,0,.96,0,.6,0,.96-.46.84-.88-.21-.75.1-1.42.1-2.12-.04-9.02-.03-18.04-.03-27.07Z"/><path d="m290.96,71.33c0-4.4-.09-8.74.05-13.08.05-1.54-.41-1.83-1.83-1.82-10.76.04-21.52,0-32.28-.02-3.1,0-3.11-.04-3.11,2.98-.01,34.55-.01,69.1-.06,103.64,0,1.33.53,1.41,1.6,1.41,11.13-.03,22.26-.02,33.4-.02,2.24,0,2.19,0,2.22-2.32.22-18.82-.42-37.64.33-56.46.13-3.23,1.17-6.18,3.01-8.84,3.52-5.1,13.95-8.62,20.52-6.42,9.38,3.13,12.26,8.94,12.46,16.27.37,13.58.12,27.17.12,40.75,0,5.2.03,10.4-.07,15.6-.02,1.28.41,1.44,1.52,1.44,10.81-.04,21.63-.02,32.44-.02,3.28,0,3.24,0,3.24-3.19-.01-16.24-.01-32.48,0-48.72,0-7.03.06-14.05-1.28-21.02-.59-3.07-1.32-6.09-2.03-9.12-.7-3.01-2.13-5.73-3.45-8.45-1.42-2.93-3.35-5.59-5.57-8.07-1.86-2.09-4.03-3.75-6.2-5.4-2.72-2.07-5.92-3.29-9.17-4.43-5.11-1.8-10.41-2.19-15.7-2.32-3.59-.09-7.21.73-10.68,1.97-8.09,2.9-15.18,6.98-18.85,15.27-.12.26-.27.45-.64.39Z"/><path d="m589.93,128.05s0,0,0,.01c-5.43,0-10.87.05-16.3-.04-1.33-.02-1.55.45-1.37,1.56.22,1.35.33,2.73.57,4.08.55,3.12.82,6.3,2.35,9.19,2.33,4.39,5.34,8.26,8.94,11.67.8.76,1.62,1.73,2.54,2.15,1.84.85,3.65,1.77,5.34,2.85,3.2,2.03,6.73,3.35,10.25,4.55,5.65,1.92,11.51,2.95,17.53,2.66,3.01-.15,6.07,0,9.04-.45,5.34-.8,10.64-1.88,15.7-3.87,5.71-2.26,11.26-4.87,15.73-9.17,7.12-6.85,9.57-15.4,8.11-24.95-1.43-9.34-5.8-17.07-14.13-22.14-4.13-2.52-8.44-4.57-13.16-5.89-6.73-1.89-13.5-3.63-20.2-5.61-2.31-.68-4.69-1.34-6.72-2.74-1.88-1.29-3.34-2.97-2.85-5.41.46-2.31,2.04-3.76,4.39-4.3,3.04-.71,6.07-.84,9.09.09,3.53,1.08,5.64,3.78,5.63,7.37,0,1.34.62,1.58,1.76,1.58,10.71-.02,21.41-.02,32.12.02,1.09,0,1.32-.42,1.35-1.42.06-2.07-.01-4.15-.42-6.14-1.59-7.73-4.9-14.56-11.35-19.46-9.32-7.09-20.17-9.62-31.62-10.36-2.48-.16-4.92-.22-7.41-.01-5.17.44-10.27,1.12-15.16,2.94-4.23,1.58-8.11,3.75-11.82,6.33-10.65,7.41-15.58,17.39-13.63,30.33.86,5.73,3.04,10.93,7.4,15.12,6.99,6.7,15.24,11.04,24.5,13.63,2.93.82,5.86,1.64,8.8,2.42,4.18,1.1,8.39,2.07,12.43,3.62,1.05.41,2.1.93,2.64,2.04,1.09,2.27.6,4.57-1.65,6.1-4.59,3.12-9.54,3.9-14.68,1.46-3.68-1.75-5.84-4.75-6.22-8.85-.09-.92-.47-.95-1.21-.95-5.43.03-10.86.02-16.3.02Z"/><path d="m57.44,165.09c2.09-.17,4.2-.08,6.31-.29,7.53-.77,14.44-3.37,21.12-6.7,6.29-3.14,11.39-7.81,15.98-13.01,4.36-4.94,7.32-10.7,9.34-16.96.33-1.04.18-1.77-1.05-1.91-1.25-.14-2.52-.22-3.77-.38-3.23-.42-6.46-.86-9.68-1.33-3.41-.49-6.81-1.07-10.23-1.51-2.63-.34-5.22-.95-7.84-1.37-2.22-.35-2.94-.4-4.3,1.38-6.06,7.95-17.61,11.37-26.72,6.38-5.98-3.27-10.31-7.95-11.77-14.89-.71-3.37-.57-6.6.25-9.93,1.93-7.76,10.08-15.34,19-16.13,8.11-.72,16.9,3.72,20.95,11.28.68,1.27,1.48,1.47,2.65,1.3,2.79-.41,5.58-.83,8.37-1.24,7.95-1.17,15.9-2.38,23.87-3.45,1.44-.19,1.5-.72,1.19-1.86-1.32-4.92-3.45-9.51-6.05-13.85-2.19-3.64-4.81-7.04-8.06-9.83-6.26-5.38-12.91-10.06-20.97-12.63-3.65-1.17-7.33-1.99-11.05-2.63-4.7-.81-9.46-.8-14.25-.42-4.34.35-8.53,1.18-12.65,2.42-7.91,2.4-14.83,6.53-20.93,12.1C6.09,79.74.61,92.36.06,107.2c-.23,6.18.13,12.29,1.82,18.34,2.53,9.03,7.24,16.65,13.69,23.4,6.65,6.96,14.94,11.17,23.86,14.08,5.75,1.87,11.86,2.65,18.01,2.07Z"/><path d="m386.15,99.29s.04,0,.05,0c0,14.86,0,29.73,0,44.59,0,6.25,0,12.5-.09,18.75-.02,1.41.28,1.84,1.78,1.83,10.71-.07,21.42-.04,32.13-.04q3.31,0,3.31-3.27c0-33.07,0-66.14,0-99.21,0-1.25-.12-2.51.05-3.74.19-1.43-.26-1.81-1.69-1.8-11.14.06-22.27.04-33.41.05q-2.12,0-2.12,2.07c0,13.59,0,27.18,0,40.77Z"/><path d="m404.3,42.03c1.92-.14,3.47,0,4.87-.39,8.86-2.42,15.4-7.19,17.09-16.91,1.4-8.1-.95-14.8-7.28-20.01-4.44-3.65-9.67-4.91-15.41-4.7-4.26.15-8.12,1.23-11.65,3.53-6.2,4.05-9.62,9.77-9.83,17.18-.09,2.99.71,5.91,2.14,8.57,4.38,8.12,11.1,12.55,20.07,12.73Z"/><path d="m314.83,227.62s.04,0,.05,0c0,3.13-.04,6.26.01,9.39.05,2.55,1.1,3.61,3.44,3.55,3-.07,3.28-1.15,3.3-3.49.04-3.34.08-6.69,0-10.03-.04-1.81.55-3.42,1.29-4.99.91-1.93,2.99-2.7,5.6-2.21,1.36.25,2.55,1.7,2.79,3.52.12.89.13,1.8.14,2.7.02,3.66.03,7.32.04,10.98,0,.64.06,1.26.34,1.86.94,2.07,4.41,2.59,5.74.76.63-.87.71-2.05.71-3.15,0-3.18-.08-6.37-.01-9.55.04-1.78.53-3.5,1.42-5.07,1.14-2.02,3.08-2.28,5.11-2.08,1.8.18,2.56,1.53,3.02,3.08.47,1.59.57,3.23.57,4.88,0,3.29-.04,6.58.04,9.87.05,2.09,1.08,2.96,3.14,2.89,2.51-.08,3.55-1.22,3.59-4.22.06-3.93.08-7.85-.02-11.78-.05-1.71-.33-3.44-.95-5.06-2.78-7.21-12.94-6.69-16.1-2.21-.75,1.06-1.19,1.07-1.85-.03-.89-1.48-2.26-2.46-3.92-2.81-3.68-.78-7.21-.73-9.92,2.48-.29.34-.52.88-1.13.67-.4-.14-.28-.52-.27-.82.04-1.47-.89-2.26-2.11-2.61-1.53-.44-2.73.22-3.43,1.62-.54,1.08-.63,2.23-.63,3.41,0,2.81,0,5.62,0,8.44Z"/><path d="m94.87,201.7c-1.34-.03-2.66.15-3.98.28-8.11.82-16.67,8.99-16.55,17.88.07,5.05.81,9.64,3.97,13.72,4.08,5.27,9.72,7.5,16.08,7.82,3.01.15,6.05-.86,8.85-2.25,1.34-.66,2.63-1.4,3.73-2.42,1.24-1.14,1.46-2.63.87-4.22-.61-1.64-1.92-1.6-3.28-1.53-1.29.06-2.24.84-3.22,1.54-4.32,3.1-9.61,3.07-13.89-.06-6.26-4.58-6.99-14.95-1.62-20.67,3.74-3.98,10.51-5.19,15.22-1.86.52.37,1.14.59,1.65.97.57.42,1.17.46,1.79.25,1.14-.38,2.5-.64,2.66-2.11.17-1.59.11-3.1-1.52-4.19-3.27-2.19-6.88-3.07-10.75-3.14Z"/><path d="m278.76,236.93c-.06,1.76.13,3.02,1.62,3.52,2.6.86,4.76-.64,4.79-3.37.06-6.31.05-12.62.08-18.93,0-.81-.13-1.59-.48-2.31-.62-1.27-2.37-2.02-3.8-1.68-1.4.34-2.47,1.64-2.48,3.07-.01,3.08.09,6.15-.04,9.22-.09,2.08-.19,4.21-1.27,6.12-1.07,1.91-2.89,2.62-4.86,2.82-1.51.15-3.22-1.74-3.86-3.74-.37-1.16-.55-2.32-.53-3.56.06-3.71.05-7.42.04-11.13,0-1.65-1.12-2.78-2.74-2.87-2.84-.17-4.08.93-4.1,3.92-.03,4.66-.03,9.33.14,13.99.21,5.95,5.8,9.94,11.67,8.63,2.3-.51,3.96-1.87,5.84-3.71Z"/><path d="m539.32,227.16c0,3.39-.02,6.79.01,10.18.01.96-.01,1.97.98,2.64,1.33.91,2.71.74,4.04.17,1.26-.55,1.37-1.77,1.37-2.98,0-2.97-.13-5.95.06-8.91.2-3.05.14-6.22,3.62-7.98,1.97-1,4.7-.35,5.72,1.62.94,1.83,1.07,3.71,1.08,5.65,0,3.39,0,6.79,0,10.18,0,1.15.28,2.24,1.47,2.71,2.84,1.12,5.38-.54,5.4-3.59.04-4.45.03-8.91-.09-13.36-.05-1.94-.66-3.79-1.6-5.55-2.5-4.67-10.71-5.08-13.96-1.85-.95.94-1.72,1.51-2.42-.35-.53-1.4-2.08-1.97-3.46-1.51-1.34.45-2.31,1.19-2.26,2.89.1,3.34.03,6.68.03,10.02Z"/><path d="m152.85,227.6s-.05,0-.07,0c0,3.29,0,6.57,0,9.86,0,1.46.6,2.67,2.05,3.05,2.82.75,4.71-.78,4.73-3.69.02-3.13,0-6.27,0-9.4,0-1.77.29-3.47,1.15-5.05,1.08-1.99,3.05-2.9,5.86-2.51,1.89.26,2.44,1.85,2.91,3.39.17.55.24,1.13.3,1.71.44,4.34.22,8.69.31,13.03.01.63-.11,1.32.45,1.79,1.26,1.06,2.63,1.31,4.24.74,1.4-.5,1.81-1.42,1.8-2.8-.04-5.14.14-10.29-.09-15.43-.15-3.24-1.62-6.18-4.84-7.4-4.15-1.57-8.23-1.47-11.45,2.25-.24.28-.51.57-.94.44-.53-.16-.27-.62-.31-.94-.23-1.78-1.78-2.87-3.52-2.46-1.62.38-2.5,1.49-2.55,3.55-.07,3.29-.02,6.57-.02,9.86Z"/><path d="m617.84,214.12c-3.15-.14-5.95.29-8.2,2.36-2.4,2.21-3.34,5.6-1.9,8.63,1.09,2.28,3.09,3.17,5.27,3.96,2.03.75,4.27.83,6.18,1.94,1.45.84,1.76,1.76,1,2.99-.72,1.17-3.07,2.13-4.34,1.66-1.44-.53-2.94-.95-4.18-1.87-1.3-.97-3.5-.82-4.35.6-.87,1.44-.14,3.6,1.47,4.51,4.21,2.37,8.6,2.64,13.12,1.02,4.2-1.5,5.71-4.03,5.33-8.78-.22-2.79-2.73-5.08-6.28-5.92-2.05-.48-4.05-1.15-5.95-2.08-.76-.37-1.64-.83-1.48-1.82.16-.96.85-1.51,1.87-1.85,2.32-.77,4.29-.13,6.2,1.13,1.32.87,3.25.63,4.12-.46.9-1.13.72-2.66-.51-3.86-.73-.71-1.62-1.19-2.59-1.52-1.62-.55-3.26-.89-4.78-.66Z"/><path d="m411.53,214.14c-2.06-.27-4.03.27-5.92,1.16-3.86,1.81-5.38,7.01-3.02,10.66.95,1.48,2.38,2.26,3.96,2.79,1.85.61,3.74,1.1,5.6,1.7,1.3.42,2.18,1.25,2.21,2.73.03,1.41-.93,2.02-2.07,2.17-1.61.21-3.27.41-4.78-.53-.76-.47-1.53-.94-2.35-1.31-1.76-.81-3.18-.28-3.96,1.44-.54,1.2.08,3.13,1.41,3.9,4.71,2.74,11.04,2.93,15.85-.13,3.11-1.97,4.63-8.99.18-11.69-1.55-.94-3.16-1.67-4.94-2.13-1.66-.43-3.34-.86-4.83-1.81-1.77-1.13-1.79-2.47.11-3.38,2.38-1.14,4.62-.49,6.73.84,1.54.97,3.31.69,4.22-.56.84-1.15.26-3.36-1.23-4.2-2.23-1.27-4.57-1.89-7.18-1.64Z"/><path d="m196.55,214.15c-2.48-.37-4.83.36-6.96,1.8-4.24,2.87-4.43,9.79.54,12.16,1.96.93,4,1.57,6.1,2.11,1.48.38,3.12.79,3.37,2.67.17,1.27-1.1,2.22-3.36,2.79-.43.11-.81.08-1.23-.04-1.54-.44-2.98-1.03-4.29-1.98-1.08-.78-2.31-.64-3.44.04-1.11.66-1.41,1.76-1.11,2.89.38,1.49,1.61,2.34,2.93,2.92,4.11,1.81,8.32,2.06,12.46.21,4.23-1.89,5.08-3.75,4.67-8.67-.26-3.06-2.52-4.57-5.26-5.52-2.13-.74-4.43-.94-6.44-2.07-1.04-.59-1.99-1.24-1.66-2.56.31-1.27,1.47-1.55,2.61-1.68,1.92-.21,3.64.21,5.23,1.41,1.28.96,3.36.69,4.05-.32.76-1.11.36-3.46-.81-4.31-2.15-1.56-4.6-2.11-7.37-1.83Z"/><path d="m216.41,228.07c-.11,2.11-.36,4.63.2,6.96,1.35,5.63,6.94,6.7,11.29,5.08,1.52-.56,2.03-1.68,1.66-3.5-.29-1.42-1.41-1.5-2.59-1.49-2.92.03-3.7-.73-3.75-3.73-.05-2.44-.05-4.88-.02-7.31.02-1.31-.52-2.94.28-3.86.85-.97,2.51-.28,3.81-.3,1.45-.03,2.31-.69,2.56-2.09.29-1.6-.32-2.59-1.8-3.07-1.19-.38-2.41-.39-3.63-.32-.91.05-1.25-.32-1.22-1.2.03-1.16.06-2.33-.01-3.5-.1-1.58-1.1-2.74-2.42-2.95-2.25-.35-3.35.24-4.15,1.99-.53,1.17-.72,2.41-.41,3.53.45,1.64-.03,2.15-1.61,2.27-1.21.09-2.43.4-2.87,1.84-.57,1.88.64,3.34,3,3.39,1.28.03,1.79.37,1.71,1.73-.12,2.06-.03,4.13-.03,6.52Z"/><path d="m637.42,227.73s.01,0,.02,0c0,1.91-.07,3.82.02,5.73.09,1.88.79,3.53,2.03,5,1.66,1.98,4.02,1.98,6.23,2.39,1.45.27,2.65-.57,3.83-1.2.99-.53,1.18-1.61.94-2.66-.3-1.26-1.25-1.74-2.48-1.85-2.63-.25-3.77-.91-3.8-2.42-.08-3.76-.05-7.53-.03-11.3,0-1.1.49-1.71,1.73-1.53.78.11,1.6.07,2.39.03,1.89-.09,2.59-.78,2.56-2.49-.03-1.71-1.11-2.75-2.8-2.72-.8.02-1.6.03-2.39.04-1.01.02-1.58-.35-1.51-1.49.07-1.11.07-2.23-.01-3.34-.16-2.07-.82-2.68-3.46-3.07-1.42-.21-2.35.53-3.05,1.8-.79,1.42-.66,2.95-.41,4.32.33,1.72-.63,1.71-1.68,1.76-2.07.11-2.84.72-2.88,2.44-.05,2.16.3,2.6,2.66,2.66,1.67.04,2.12.89,2.1,2.33-.02,1.86,0,3.71,0,5.57Z"/><path d="m244.49,218.21c-.1-.59-.15-.84-.19-1.08-.29-2.03-1.45-3.07-3.39-3.02-1.77.04-2.96,1.29-3.06,3.32-.07,1.48-.07,2.97-.06,4.45.02,5.19,0,10.39.09,15.58.04,2.15,1.12,3.1,3.15,3.06,2.76-.04,3.64-.94,3.65-3.82,0-3.66-.19-7.31.2-10.96.33-3.11,2.75-5.46,5.9-5.59.82-.03,1.55-.22,2.24-.58,1.26-.66,1.59-1.85,1.44-3.11-.13-1.05-.58-2.19-1.8-2.32-2.34-.25-4.69-.27-6.39,1.83-.52.65-1.04,1.31-1.79,2.24Z"/><path d="m692.26,227.57h.14c0,3.56,0,7.11,0,10.67,0,.79.03,1.64.89,2.01,1.42.6,2.92.57,4.33.03,1.26-.48,1.21-1.72,1.23-2.86.09-3.86-.22-7.71.28-11.57.4-3.12,2.68-5.55,5.83-5.67.87-.04,1.66-.27,2.41-.59,1.46-.63,1.41-1.99,1.35-3.27-.05-1.14-.74-1.94-1.8-2.16-2.54-.54-4.81-.08-6.63,1.99-1.23,1.41-1.29,1.35-2.08-.27-.7-1.45-1.96-2.07-3.54-1.73-1.31.28-2.43,1.56-2.43,2.81,0,3.54,0,7.08,0,10.62Z"/><path d="m486.19,227.17h0c0,3.23-.02,6.47,0,9.7.03,3.31.99,4.12,4.26,3.7,1.19-.15,1.91-.75,2.21-1.94.24-.92.34-1.84.34-2.79-.02-5.83-.04-11.66-.03-17.49,0-.79-.09-1.55-.3-2.3-.42-1.5-1.83-2.18-4.02-1.93-1.4.16-2.44,1.17-2.45,2.57-.04,3.5-.01,6.99-.01,10.49Z"/><path d="m303.52,227.42s-.04,0-.06,0c0-.95,0-1.91,0-2.86,0-2.44.07-4.88-.03-7.32-.09-2.23-1.21-3.15-3.5-3.14-2.2.01-3.24.89-3.26,3.12-.06,6.84-.05,13.68,0,20.52.01,1.7,1.11,2.7,2.81,2.84,2.73.22,3.99-.87,4.03-3.62.04-3.18,0-6.36,0-9.54Z"/><path d="m489.69,202.32c-2.65-.01-4.37,1.47-4.39,3.79-.02,2.25,2.16,4.21,4.66,4.17,2.07-.03,3.93-1.97,3.97-4.15.04-2.03-1.93-3.8-4.23-3.81Z"/><path d="m304.05,206.07c0-2.37-1.43-3.75-3.9-3.76-2.47,0-4.39,1.64-4.41,3.79-.02,1.7,2.16,4.09,3.8,4.16,2.53.11,4.5-1.72,4.51-4.19Z"/><path d="m785.78,123.07c-.02-9.22.21-18.44-.3-27.66-.18-3.21-.89-6.32-1.53-9.46-.47-2.32-1.37-4.49-2.3-6.65-1.55-3.61-3.61-6.97-6.29-9.78-6.09-6.37-13.52-10.72-21.96-13.32-5.99-1.85-12.21-2.25-18.4-2.57-2.82-.14-5.67.39-8.51.53-4.72.22-9.3,1.1-13.8,2.38-10.88,3.08-19.98,8.88-27.1,17.72-.94,1.17-.83,1.89.22,2.92,5.34,5.18,10.61,10.43,15.91,15.66.82.81,1.68,2.22,2.51,2.22.86,0,1.72-1.39,2.56-2.2,7.52-7.23,16.54-9.9,26.63-7.66,9.97,2.21,14.61,9.94,14.7,18.92,0,.95-.24,1.06-1.1.64-2.53-1.25-5.23-2.1-7.91-2.94-3.02-.94-6.15-1.46-9.3-1.73-8.32-.7-16.59-.45-24.74,1.54-5.1,1.24-9.91,3.16-14.28,6.1-8.21,5.52-12.58,13.17-12.81,23.09-.11,4.71.07,9.35,2,13.79,2.21,5.1,4.79,9.98,9.4,13.28,5.08,3.64,10.7,6.27,16.91,7.5,2.32.46,4.64.78,6.99,1.08,2.94.37,5.9.33,8.78.28,2.83-.06,5.77-.74,8.52-1.73,1.8-.65,3.61-1.27,5.37-2.02,4.75-2.01,8.77-5.05,12.39-9.26,0,3.38.05,6.38-.03,9.38-.03,1.07.29,1.33,1.32,1.33,11.66-.03,23.33-.03,34.99,0,1.01,0,1.21-.29,1.21-1.26-.04-13.37,0-26.75-.03-40.12Zm-39,5.12c-3.69,7.31-9.78,11.25-17.71,12.73-1.28.24-2.53.22-3.79.24-4.79.06-10.33-5.54-10.14-10.22.18-4.49,4.38-8.75,9.32-9.49,1.57-.23,3.12-.48,4.73-.36,5.89.35,11.67,1.06,16.82,4.34,1.23.78,1.36,1.6.77,2.77Z"/><path d="m483.42,134.35c0,9.02-.02,18.05.03,27.07,0,.71-.3,1.38-.1,2.12.12.42-.24.88-.84.88-.32,0-.64,0-.96,0-11.24,0-22.48-.03-33.72.04-1.37,0-1.66-.39-1.63-1.66.09-4.14.08-8.28.08-12.42,0-30.52-.02-61.04-.03-91.56,0-2.82-.23-2.36,2.39-2.37,10.81-.03,21.63-.02,32.44-.01,1.97,0,2.38.41,2.33,2.43-.09,3.59.21,7.2-.31,10.79-.06.43-.38,1.19.32,1.35.57.13.67-.61.86-1,2.48-4.89,6.29-8.52,11-11.15,2.78-1.55,5.72-2.93,8.75-3.83,2.37-.71,4.93-.98,7.46-1.18,3.26-.25,6.5.03,9.71.41,3.55.42,6.99,1.3,10.36,2.69,3.89,1.61,7.39,3.67,10.53,6.42,6.43,5.62,9.79,12.95,11.98,20.98,1.02,3.74,1.71,7.53,2.21,11.37.53,4.04.64,8.1.63,12.18-.03,18.31-.03,36.62,0,54.93,0,1.2-.24,1.63-1.55,1.62-11.4-.05-22.8-.05-34.2,0-1.24,0-1.48-.38-1.48-1.53.07-17.47.14-34.93.07-52.4-.02-4.03-.29-8.1-2.13-11.85-2.39-4.86-6.45-7.44-11.63-8.45-3.36-.65-6.76-.7-10.02.38-8.11,2.7-12.48,7.77-12.56,16.99,0,.16,0,.32,0,.48,0,8.76,0,17.51,0,26.27h0Z"/><path d="m290.96,71.33c.37.06.53-.13.64-.39,3.67-8.29,10.76-12.37,18.85-15.27,3.47-1.24,7.09-2.06,10.68-1.97,5.28.13,10.59.52,15.7,2.32,3.25,1.15,6.45,2.37,9.17,4.43,2.16,1.65,4.33,3.31,6.2,5.4,2.22,2.48,4.15,5.14,5.57,8.07,1.32,2.73,2.75,5.44,3.45,8.45.7,3.04,1.44,6.06,2.03,9.12,1.34,6.97,1.29,13.99,1.28,21.02-.02,16.24-.02,32.48,0,48.72,0,3.19.04,3.19-3.24,3.19-10.81,0-21.63-.02-32.44.02-1.12,0-1.55-.16-1.52-1.44.1-5.2.07-10.4.07-15.6,0-13.59.25-27.18-.12-40.75-.2-7.33-3.08-13.14-12.46-16.27-6.56-2.19-17,1.32-20.52,6.42-1.84,2.66-2.88,5.61-3.01,8.84-.74,18.82-.11,37.64-.33,56.46-.03,2.32.02,2.32-2.22,2.32-11.13,0-22.26-.01-33.4.02-1.07,0-1.6-.09-1.6-1.41.05-34.55.05-69.1.06-103.64,0-3.02,0-2.99,3.11-2.98,10.76.03,21.52.06,32.28.02,1.42,0,1.88.28,1.83,1.82-.14,4.34-.05,8.69-.05,13.08Z"/><path d="m589.93,128.05c5.43,0,10.86.01,16.3-.02.74,0,1.12.03,1.21.95.38,4.1,2.54,7.1,6.22,8.85,5.14,2.44,10.09,1.66,14.68-1.46,2.24-1.53,2.74-3.83,1.65-6.1-.54-1.12-1.59-1.64-2.64-2.04-4.04-1.56-8.26-2.52-12.43-3.62-2.94-.78-5.87-1.6-8.8-2.42-9.26-2.59-17.51-6.93-24.5-13.63-4.36-4.18-6.54-9.39-7.4-15.12-1.95-12.93,2.98-22.91,13.63-30.33,3.71-2.58,7.59-4.75,11.82-6.33,4.89-1.82,9.99-2.5,15.16-2.94,2.49-.21,4.93-.15,7.41.01,11.45.74,22.3,3.28,31.62,10.36,6.45,4.9,9.76,11.73,11.35,19.46.41,1.99.48,4.07.42,6.14-.03.99-.25,1.42-1.35,1.42-10.71-.03-21.41-.03-32.12-.02-1.14,0-1.77-.24-1.76-1.58.02-3.59-2.1-6.29-5.63-7.37-3.02-.93-6.05-.79-9.09-.09-2.35.54-3.92,1.99-4.39,4.3-.49,2.44.96,4.12,2.85,5.41,2.03,1.39,4.41,2.05,6.72,2.74,6.7,1.98,13.47,3.72,20.2,5.61,4.72,1.32,9.03,3.37,13.16,5.89,8.33,5.07,12.7,12.8,14.13,22.14,1.46,9.55-.99,18.1-8.11,24.95-4.47,4.3-10.02,6.91-15.73,9.17-5.05,2-10.36,3.07-15.7,3.87-2.97.45-6.02.31-9.04.45-6.02.29-11.89-.74-17.53-2.66-3.52-1.2-7.05-2.52-10.25-4.55-1.69-1.08-3.5-2-5.34-2.85-.92-.42-1.74-1.39-2.54-2.15-3.59-3.41-6.61-7.28-8.94-11.67-1.53-2.89-1.8-6.07-2.35-9.19-.24-1.35-.35-2.72-.57-4.08-.18-1.11.04-1.58,1.37-1.56,5.43.09,10.86.04,16.3.04,0,0,0,0,0-.01Z"/><path d="m57.44,165.09c-6.16.58-12.27-.19-18.01-2.07-8.91-2.91-17.2-7.12-23.86-14.08-6.45-6.75-11.16-14.37-13.69-23.4C.19,119.5-.17,113.39.06,107.2c.55-14.84,6.03-27.46,17.11-37.58,6.1-5.57,13.02-9.7,20.93-12.1,4.12-1.25,8.31-2.08,12.65-2.42,4.79-.38,9.55-.4,14.25.42,3.72.64,7.4,1.47,11.05,2.63,8.07,2.57,14.71,7.25,20.97,12.63,3.24,2.79,5.87,6.19,8.06,9.83,2.6,4.34,4.73,8.93,6.05,13.85.3,1.14.25,1.66-1.19,1.86-7.97,1.08-15.92,2.29-23.87,3.45-2.79.41-5.58.83-8.37,1.24-1.18.17-1.97-.03-2.65-1.3-4.06-7.56-12.84-11.99-20.95-11.28-8.92.79-17.07,8.37-19,16.13-.83,3.33-.96,6.56-.25,9.93,1.46,6.95,5.79,11.62,11.77,14.89,9.11,4.98,20.66,1.56,26.72-6.38,1.36-1.78,2.08-1.73,4.3-1.38,2.62.42,5.2,1.03,7.84,1.37,3.42.44,6.81,1.02,10.23,1.51,3.22.46,6.45.9,9.68,1.33,1.25.16,2.51.24,3.77.38,1.23.14,1.38.87,1.05,1.91-2.01,6.26-4.98,12.02-9.34,16.96-4.59,5.2-9.7,9.87-15.98,13.01-6.67,3.33-13.59,5.93-21.12,6.7-2.12.22-4.22.12-6.31.29Z"/><path d="m386.15,99.29c0-13.59,0-27.18,0-40.77q0-2.07,2.12-2.07c11.14,0,22.27.01,33.41-.05,1.43,0,1.88.37,1.69,1.8-.16,1.23-.05,2.49-.05,3.74,0,33.07,0,66.14,0,99.21q0,3.27-3.31,3.27c-10.71,0-21.42-.03-32.13.04-1.5.01-1.81-.42-1.78-1.83.1-6.25.08-12.5.09-18.75,0-14.86,0-29.73,0-44.59-.02,0-.04,0-.05,0Z"/><path d="m184.73,85.34c-.95.03-1.91.13-2.86.08-6.05-.34-11.16,1.9-15.8,5.57-3.84,3.04-6.44,6.92-8.15,11.45-.19.5-.09,1.21-.79,1.45-.6-2.83.77-5.28,1.61-7.8,2.55-7.67,6.85-14.24,12.58-19.96,4.94-4.92,10.72-8.49,17.14-11.03,4.84-1.91,9.9-3.02,15.16-3.34,1.84-.11,3.84.29,5.59-.76,7.02,3.57,12.99,8.43,18.16,14.36,5.68,6.52,9.17,14.09,10.99,22.44.62,2.86.65,5.85,1.17,8.74.74,4.13,0,8.19-.36,12.27-.7,7.86-2.95,15.18-7.47,21.8-1.37,2-2.83,3.9-4.31,5.81-3.73,4.81-8.59,8.27-13.56,11.6-2.1,1.41-4.29,2.74-6.71,3.6-.39.14-.74.42-1.19.24,2.05-1.5,3.9-3.24,5.91-4.8,5.27-4.08,9.01-9.39,11.81-15.43,2.4-5.19,3.24-10.68,3.34-16.27.07-3.98-.79-7.89-2.06-11.7-3.13-9.4-9.17-16.47-17.41-21.79-6.41-4.14-22.45-7.35-22.78-6.52Z"/><path d="m209.21,61.01c-1.74,1.06-3.75.65-5.59.76-5.26.32-10.32,1.43-15.16,3.34-6.42,2.53-12.2,6.1-17.14,11.03-5.73,5.72-10.03,12.29-12.58,19.96-.84,2.52-2.21,4.97-1.61,7.8-.54,5.26-1.01,10.5,1.18,15.56,1.07,2.46,2.61,4.62,4.15,6.8,1.72,2.43,4.14,4,6.47,5.7-.58.8-1.4.7-2.17.48-3.43-.98-6.89-1.85-10.25-3.08-3.22-1.17-6.1-2.93-8.91-4.78-2.33-1.54-4.66-3.11-6.7-5.06-3.15-3.03-5.75-6.51-7.95-10.25-1.63-2.76-3.05-5.69-3.94-8.77-.5-1.73-1.17-3.25-2.31-4.61.89-2.48,1.69-5,2.68-7.44,4.19-10.26,11.37-18.02,20.47-24.16,4.67-3.15,9.75-5.48,15.18-6.95,3.69-1,7.51-2.03,11.32-2.29,2.17-.11,4.65-.4,7.01-.15,3.33.35,6.66.7,9.98,1.14,5.18.7,9.96,2.47,14.76,4.34.39.15.74.41,1.11.62Z"/><path d="m184.73,85.34c.33-.83,16.37,2.37,22.78,6.52,8.24,5.32,14.28,12.4,17.41,21.79,1.27,3.81,2.13,7.72,2.06,11.7-.1,5.59-.94,11.08-3.34,16.27-2.8,6.04-6.53,11.35-11.81,15.43-2.01,1.56-3.86,3.3-5.91,4.8-2.46.66-4.61,2.09-7.13,2.67-1.31.3-1.66-.1-1.82-1.13-.34-2.31-.53-4.65-.96-6.94-.37-1.97-.82-3.93-1.04-5.93-.21-1.94-.73-3.83-.88-5.8-.21-2.68-.63-5.36-1.11-8.01-.21-1.17-.05-2.31-.18-3.46-.07-.59.41-.56.75-.78,2.44-1.61,4.64-3.49,6.69-5.61,1.58-1.64,2.88-3.34,3.95-5.32,1.58-2.93,2.61-5.92,2.75-9.32.18-4.54-.56-8.86-2.52-12.89-3.06-6.27-8-10.56-14.6-12.97-1.67-.61-3.32-1.02-5.08-1.02Z"/><path d="m404.3,42.03c-8.96-.19-15.68-4.61-20.07-12.73-1.43-2.65-2.23-5.58-2.14-8.57.22-7.41,3.63-13.12,9.83-17.18,3.53-2.3,7.39-3.38,11.65-3.53,5.74-.21,10.97,1.04,15.41,4.7,6.33,5.21,8.68,11.91,7.28,20.01-1.68,9.73-8.22,14.49-17.09,16.91-1.41.38-2.95.25-4.87.39Z"/><path d="m126.7,95.89c1.13,1.36,1.81,2.88,2.31,4.61.89,3.09,2.31,6.01,3.94,8.77,2.2,3.74,4.8,7.22,7.95,10.25,2.03,1.95,4.37,3.53,6.7,5.06,2.81,1.86,5.7,3.61,8.91,4.78,3.36,1.22,6.82,2.1,10.25,3.08.77.22,1.59.32,2.17-.48.1.02.21.03.31.06,2.3.89,2.07.87,1.89,3.39-.42,5.76-1.91,11.36-2.37,17.1-.3,3.76-1.46,7.38-1.56,11.16-.04,1.71-1.54,1.21-2.29.98-11.5-3.52-21.27-9.7-28.69-19.22-3.93-5.04-6.73-10.76-8.83-16.77-1.35-3.85-2.41-7.99-2.42-11.91-.02-5.85-.68-11.87,1.22-17.63.34-1.04.02-2.2.52-3.23Z"/><path d="m314.83,227.62c0-2.81,0-5.62,0-8.44,0-1.17.09-2.33.63-3.41.7-1.4,1.91-2.06,3.43-1.62,1.23.36,2.15,1.14,2.11,2.61,0,.29-.13.68.27.82.61.21.85-.33,1.13-.67,2.71-3.21,6.24-3.27,9.92-2.48,1.65.35,3.03,1.33,3.92,2.81.66,1.1,1.11,1.09,1.85.03,3.16-4.48,13.32-5.01,16.1,2.21.62,1.62.91,3.35.95,5.06.11,3.92.08,7.85.02,11.78-.05,2.99-1.08,4.14-3.59,4.22-2.06.07-3.09-.8-3.14-2.89-.08-3.29-.04-6.58-.04-9.87,0-1.65-.1-3.29-.57-4.88-.46-1.55-1.23-2.91-3.02-3.08-2.03-.2-3.97.06-5.11,2.08-.89,1.57-1.38,3.29-1.42,5.07-.07,3.18.01,6.37.01,9.55,0,1.1-.07,2.28-.71,3.15-1.33,1.83-4.79,1.31-5.74-.76-.27-.6-.34-1.22-.34-1.86-.01-3.66-.02-7.32-.04-10.98,0-.9-.02-1.81-.14-2.7-.24-1.82-1.43-3.27-2.79-3.52-2.61-.48-4.7.28-5.6,2.21-.74,1.56-1.33,3.17-1.29,4.99.07,3.34.03,6.68,0,10.03-.03,2.34-.3,3.41-3.3,3.49-2.34.06-3.39-1-3.44-3.55-.06-3.13-.01-6.26-.01-9.39-.02,0-.04,0-.05,0Z"/><path d="m94.87,201.7c3.87.07,7.47.95,10.75,3.14,1.63,1.09,1.7,2.61,1.52,4.19-.16,1.47-1.52,1.73-2.66,2.11-.62.21-1.22.17-1.79-.25-.51-.38-1.13-.6-1.65-.97-4.72-3.33-11.49-2.12-15.22,1.86-5.37,5.72-4.64,16.09,1.62,20.67,4.28,3.14,9.58,3.16,13.89.06.98-.7,1.93-1.48,3.22-1.54,1.36-.07,2.67-.1,3.28,1.53.59,1.6.36,3.08-.87,4.22-1.1,1.02-2.39,1.75-3.73,2.42-2.79,1.39-5.83,2.4-8.85,2.25-6.36-.32-12-2.55-16.08-7.82-3.16-4.08-3.9-8.67-3.97-13.72-.12-8.88,8.44-17.06,16.55-17.88,1.32-.13,2.64-.31,3.98-.28Z"/><path d="m278.76,236.93c-1.87,1.84-3.53,3.2-5.84,3.71-5.86,1.31-11.45-2.68-11.67-8.63-.17-4.66-.17-9.33-.14-13.99.02-2.99,1.26-4.08,4.1-3.92,1.62.09,2.74,1.22,2.74,2.87.02,3.71.03,7.42-.04,11.13-.02,1.23.16,2.39.53,3.56.64,2,2.35,3.88,3.86,3.74,1.97-.19,3.79-.91,4.86-2.82,1.08-1.92,1.18-4.04,1.27-6.12.13-3.07.02-6.15.04-9.22,0-1.43,1.08-2.73,2.48-3.07,1.44-.35,3.19.41,3.8,1.68.35.72.49,1.5.48,2.31-.03,6.31-.02,12.62-.08,18.93-.03,2.73-2.19,4.22-4.79,3.37-1.49-.49-1.69-1.75-1.62-3.52Z"/><path d="m539.32,227.16c0-3.34.07-6.69-.03-10.02-.05-1.7.91-2.44,2.26-2.89,1.38-.46,2.93.1,3.46,1.51.7,1.86,1.48,1.29,2.42.35,3.25-3.23,11.46-2.82,13.96,1.85.94,1.76,1.54,3.6,1.6,5.55.12,4.45.12,8.91.09,13.36-.02,3.04-2.57,4.71-5.4,3.59-1.2-.47-1.47-1.56-1.47-2.71-.02-3.39,0-6.79,0-10.18,0-1.95-.14-3.83-1.08-5.65-1.01-1.97-3.75-2.62-5.72-1.62-3.48,1.76-3.42,4.94-3.62,7.98-.19,2.96-.06,5.94-.06,8.91,0,1.21-.11,2.43-1.37,2.98-1.33.58-2.71.74-4.04-.17-.99-.67-.96-1.68-.98-2.64-.04-3.39-.01-6.79-.01-10.18Z"/><path d="m152.85,227.6c0-3.29-.05-6.58.02-9.86.04-2.06.92-3.16,2.55-3.55,1.74-.41,3.29.69,3.52,2.46.04.32-.22.78.31.94.43.13.7-.16.94-.44,3.23-3.72,7.3-3.82,11.45-2.25,3.22,1.22,4.69,4.15,4.84,7.4.24,5.13.05,10.28.09,15.43.01,1.37-.4,2.3-1.8,2.8-1.6.57-2.98.32-4.24-.74-.56-.47-.44-1.16-.45-1.79-.08-4.35.14-8.7-.31-13.03-.06-.57-.13-1.16-.3-1.71-.48-1.54-1.02-3.12-2.91-3.39-2.81-.39-4.78.52-5.86,2.51-.86,1.58-1.14,3.29-1.15,5.05-.01,3.13.01,6.27,0,9.4-.02,2.91-1.9,4.44-4.73,3.69-1.45-.38-2.04-1.59-2.05-3.05,0-3.29,0-6.57,0-9.86.02,0,.05,0,.07,0Z"/><path d="m617.84,214.12c1.51-.23,3.16.11,4.78.66.97.33,1.86.81,2.59,1.52,1.23,1.2,1.41,2.73.51,3.86-.87,1.09-2.79,1.33-4.12.46-1.91-1.26-3.87-1.9-6.2-1.13-1.02.34-1.72.89-1.87,1.85-.16.99.72,1.45,1.48,1.82,1.9.93,3.9,1.6,5.95,2.08,3.54.83,6.06,3.13,6.28,5.92.38,4.75-1.13,7.27-5.33,8.78-4.52,1.62-8.91,1.35-13.12-1.02-1.61-.91-2.34-3.06-1.47-4.51.86-1.43,3.05-1.57,4.35-.6,1.24.92,2.75,1.34,4.18,1.87,1.27.46,3.63-.49,4.34-1.66.76-1.23.45-2.16-1-2.99-1.91-1.11-4.15-1.19-6.18-1.94-2.17-.8-4.18-1.68-5.27-3.96-1.44-3.02-.49-6.42,1.9-8.63,2.25-2.07,5.06-2.5,8.2-2.36Z"/><path d="m411.53,214.14c2.62-.24,4.95.38,7.18,1.64,1.48.84,2.07,3.05,1.23,4.2-.91,1.25-2.68,1.53-4.22.56-2.12-1.33-4.36-1.98-6.73-.84-1.9.91-1.89,2.26-.11,3.38,1.48.94,3.17,1.38,4.83,1.81,1.78.46,3.39,1.18,4.94,2.13,4.46,2.71,2.93,9.72-.18,11.69-4.82,3.06-11.15,2.86-15.85.13-1.33-.77-1.95-2.7-1.41-3.9.78-1.71,2.19-2.25,3.96-1.44.81.37,1.59.84,2.35,1.31,1.51.94,3.18.74,4.78.53,1.13-.15,2.1-.76,2.07-2.17-.03-1.48-.91-2.31-2.21-2.73-1.86-.6-3.75-1.09-5.6-1.7-1.59-.53-3.01-1.31-3.96-2.79-2.35-3.64-.83-8.84,3.02-10.66,1.9-.89,3.86-1.44,5.92-1.16Z"/><path d="m196.55,214.15c2.77-.27,5.21.27,7.37,1.83,1.18.86,1.57,3.21.81,4.31-.69,1.01-2.77,1.28-4.05.32-1.59-1.2-3.31-1.62-5.23-1.41-1.14.12-2.29.41-2.61,1.68-.32,1.32.62,1.97,1.66,2.56,2.01,1.13,4.31,1.33,6.44,2.07,2.74.95,5.01,2.46,5.26,5.52.41,4.93-.43,6.78-4.67,8.67-4.14,1.85-8.35,1.6-12.46-.21-1.32-.58-2.55-1.43-2.93-2.92-.29-1.13,0-2.22,1.11-2.89,1.13-.68,2.37-.82,3.44-.04,1.32.95,2.76,1.54,4.29,1.98.43.12.8.15,1.23.04,2.27-.57,3.53-1.51,3.36-2.79-.25-1.88-1.89-2.28-3.37-2.67-2.09-.54-4.14-1.18-6.1-2.11-4.97-2.36-4.79-9.29-.54-12.16,2.13-1.44,4.48-2.17,6.96-1.8Z"/><path d="m216.41,228.07c0-2.39-.09-4.46.03-6.52.08-1.36-.44-1.7-1.71-1.73-2.36-.05-3.56-1.51-3-3.39.43-1.44,1.65-1.75,2.87-1.84,1.58-.12,2.06-.63,1.61-2.27-.31-1.12-.12-2.37.41-3.53.8-1.75,1.9-2.34,4.15-1.99,1.32.21,2.32,1.36,2.42,2.95.07,1.16.04,2.33.01,3.5-.02.87.32,1.25,1.22,1.2,1.22-.07,2.45-.06,3.63.32,1.49.48,2.09,1.47,1.8,3.07-.25,1.4-1.12,2.06-2.56,2.09-1.3.03-2.97-.66-3.81.3-.8.91-.26,2.54-.28,3.86-.04,2.44-.03,4.88.02,7.31.06,3,.83,3.77,3.75,3.73,1.19-.01,2.31.07,2.59,1.49.37,1.83-.15,2.94-1.66,3.5-4.35,1.61-9.94.55-11.29-5.08-.56-2.33-.31-4.85-.2-6.96Z"/><path d="m637.42,227.73c0-1.86-.02-3.71,0-5.57.02-1.44-.43-2.29-2.1-2.33-2.36-.06-2.71-.51-2.66-2.66.04-1.71.81-2.33,2.88-2.44,1.04-.05,2-.04,1.68-1.76-.26-1.37-.38-2.89.41-4.32.7-1.27,1.63-2.01,3.05-1.8,2.65.39,3.3,1,3.46,3.07.09,1.11.08,2.23.01,3.34-.07,1.14.5,1.5,1.51,1.49.8-.01,1.6-.03,2.39-.04,1.69-.04,2.77,1.01,2.8,2.72.03,1.71-.67,2.4-2.56,2.49-.8.04-1.61.08-2.39-.03-1.25-.17-1.73.43-1.73,1.53-.02,3.77-.05,7.53.03,11.3.03,1.52,1.16,2.17,3.8,2.42,1.23.12,2.18.59,2.48,1.85.25,1.05.06,2.13-.94,2.66-1.18.63-2.39,1.47-3.83,1.2-2.21-.41-4.57-.41-6.23-2.39-1.23-1.47-1.94-3.12-2.03-5-.09-1.9-.02-3.82-.02-5.73,0,0-.01,0-.02,0Z"/><path d="m244.49,218.21c.74-.93,1.26-1.58,1.79-2.24,1.69-2.1,4.05-2.08,6.39-1.83,1.22.13,1.67,1.27,1.8,2.32.15,1.26-.17,2.45-1.44,3.11-.69.36-1.42.55-2.24.58-3.15.13-5.57,2.48-5.9,5.59-.39,3.65-.2,7.31-.2,10.96,0,2.88-.89,3.78-3.65,3.82-2.03.03-3.11-.92-3.15-3.06-.09-5.19-.08-10.39-.09-15.58,0-1.48,0-2.97.06-4.45.1-2.03,1.28-3.28,3.06-3.32,1.94-.04,3.1.99,3.39,3.02.04.25.09.49.19,1.08Z"/><path d="m692.26,227.57c0-3.54,0-7.08,0-10.62,0-1.25,1.12-2.53,2.43-2.81,1.58-.34,2.84.28,3.54,1.73.79,1.63.85,1.68,2.08.27,1.81-2.08,4.09-2.53,6.63-1.99,1.06.23,1.75,1.03,1.8,2.16.06,1.28.1,2.63-1.35,3.27-.75.33-1.54.56-2.41.59-3.15.13-5.43,2.55-5.83,5.67-.5,3.86-.2,7.71-.28,11.57-.03,1.14.03,2.38-1.23,2.86-1.4.53-2.91.57-4.33-.03-.86-.36-.89-1.21-.89-2.01,0-3.56,0-7.11,0-10.67h-.14Z"/><path d="m486.19,227.17c0-3.5-.03-7,.01-10.49.02-1.4,1.06-2.41,2.45-2.57,2.19-.25,3.6.43,4.02,1.93.21.75.3,1.51.3,2.3,0,5.83.01,11.66.03,17.49,0,.95-.1,1.86-.34,2.79-.31,1.19-1.03,1.79-2.21,1.94-3.27.42-4.23-.39-4.26-3.7-.03-3.23,0-6.47,0-9.7h0Z"/><path d="m303.52,227.42c0,3.18.03,6.36,0,9.54-.04,2.75-1.3,3.85-4.03,3.62-1.71-.14-2.8-1.14-2.81-2.84-.04-6.84-.06-13.68,0-20.52.02-2.23,1.06-3.11,3.26-3.12,2.29-.01,3.41.91,3.5,3.14.1,2.43.03,4.88.03,7.32,0,.95,0,1.91,0,2.86.02,0,.04,0,.06,0Z"/><path d="m489.69,202.32c2.31.01,4.27,1.78,4.23,3.81-.04,2.18-1.9,4.12-3.97,4.15-2.5.03-4.68-1.92-4.66-4.17.02-2.32,1.74-3.8,4.39-3.79Z"/><path d="m304.05,206.07c0,2.47-1.98,4.3-4.51,4.19-1.64-.07-3.82-2.46-3.8-4.16.02-2.15,1.95-3.8,4.41-3.79,2.47,0,3.9,1.39,3.9,3.76Z"/><path d="m475.71,223.78c-1.77-9.01-11.76-11.88-18.12-8.25-.86.49-1.59,1.21-2.66,2.04,0-5.22,0-10.14,0-15.06,0-.63.03-1.23-.46-1.78-1.05-1.18-2.75-1.62-4.5-.89-1.37.56-1.84,1.81-1.85,3.2-.02,4.93,0,9.85,0,14.78,0,6.36-.05,12.73.06,19.09.06,3.6,1.31,3.87,4.22,3.6,1.03-.1,2.07-.57,1.91-2.03-.04-.35-.28-.89.29-1.09.46-.16.8.14,1.1.47,2.54,2.72,5.78,3.4,9.29,2.96,2.6-.33,5.03-1.27,6.92-3.15,3.91-3.89,4.81-8.66,3.78-13.89Zm-10.12,10.41c-1.28.76-2.86,1.11-4.65.97-.75-.06-1.33-.4-1.87-.74-2.77-1.71-4.33-4.21-4.08-7.5.24-3.23,1.85-5.75,4.95-7.01,4.06-1.65,8.87,1.68,9.06,6.19.02.42,0,.85,0,1.27,0,3.14-1.27,5.55-3.4,6.81Z"/><path d="m468.99,227.38c0,3.14-1.27,5.55-3.4,6.81,2.13-1.27,3.41-3.67,3.4-6.81,0-.42.02-.85,0-1.27.02.42,0,.85,0,1.27Z"/><path d="m580.98,229.4c2.55-.02,5.11,0,7.67,0,2.5,0,5,0,7.51,0-2.5,0-5,0-7.51,0-2.56,0-5.11-.02-7.67,0Z"/><path d="m595.5,217.66c-2.57-2.99-5.98-3.66-9.74-3.57-4.83.11-8.66,1.95-11.12,6.15-1.1,1.87-2.36,3.84-2,6.1.24,1.55.19,3.1.55,4.65,1.59,6.75,5.56,8.92,11.38,9.8,3.76.57,7.43-.17,10.71-2.42,1.69-1.16,2.49-3.43,1.49-4.98-.69-1.08-3.41-1.18-4.74-.06-1.52,1.29-3.31,1.99-5.2,2.07-3.18.14-5.32-1.62-6.78-4.33-.7-1.29-.54-1.65.95-1.67,2.55-.02,5.11,0,7.67,0,2.5,0,5,0,7.51,0,1.28,0,2.46-.38,2.59-1.8.32-3.74-.79-7.08-3.24-9.93Zm-4.55,6.89c-1.76.03-3.51,0-5.27,0v.04c-1.7,0-3.41-.04-5.11.02-1.11.04-1.13-.5-.8-1.25,1.39-3.09,4.83-4.82,8.18-4.13,1.82.37,3.7,2.44,4.02,4.33.16.92-.42.99-1.02,1Z"/><path d="m518.48,229.39c-2.5,0-5.01.05-7.51-.02,2.5.07,5,.02,7.51.02,2.56,0,5.11.02,7.67-.01-2.56.03-5.11,0-7.67,0Z"/><path d="m526.07,218.04c-2.39-3.04-5.72-4.03-9.57-3.99-3.96.05-7.36,1.18-9.94,4.17-3,3.48-4.28,7.45-3.29,12.11.72,3.4,2.3,6.19,5.11,8.17,3.32,2.33,7.2,2.8,11.08,2.28,2.6-.35,5.05-1.47,7.12-3.21,1.21-1.02,1.19-2.36.77-3.65-.38-1.14-1.45-1.31-2.6-1.39-1.39-.1-2.28.67-3.28,1.35-4.64,3.12-8.81,1.15-11.41-3-.4-.64-.43-1.55.92-1.51,2.5.07,5,.02,7.51.02,2.56,0,5.11.02,7.67,0,1.5-.02,2.41-.62,2.67-2.31.52-3.49-.7-6.44-2.74-9.04Zm-4.49,6.27c-2.04.41-4.1.26-6.16.29-1.49,0-2.98.03-4.47-.01-.97-.03-1.28-.42-.75-1.41,1.68-3.15,4.3-4.35,7.77-3.99,1.77.19,4.07,2.57,4.32,4.44.09.67-.25.59-.7.68Z"/><path d="m390.76,219.89c-2.88-4.17-6.98-6-12.26-5.76-1.78-.3-3.68.18-5.47.99-6.99,3.19-9.21,8.86-8.1,14.71,1.76,9.27,11.53,13.08,19.33,10.07,8.53-3.29,11.13-13.31,6.51-20.01Zm-4.86,7.7c.27,3.49-2.04,7.2-7.18,7.85-1.72.22-4.96-1.96-5.89-4.04-1.09-2.43-1.41-4.92-.3-7.49,1.36-3.15,4.53-4.98,7.68-4.32,3.11.65,5.67,3.78,5.7,6.98,0,.26,0,.53,0,1.02Z"/><path d="m680.92,223.27c-.12-3.49-1.48-6.34-4.95-7.96-5.36-2.5-10.39-1.52-15.32,1.09-1.12.59-1.85,2.84-1.29,3.72.79,1.23,1.96,1.66,3.37,1.15.99-.36,1.95-.78,2.91-1.21,3.56-1.6,8.12-.72,8.91,3.6-1.49-.09-2.83.56-4.29.66-1.51.1-3,.42-4.51.61-4.87.61-7.17,2.81-8.55,7.42-.77,2.57,1.08,6.01,3.4,7.09,4.42,2.05,8.82,2.12,12.9-.95.75-.57,1.11-.72,1.38.33.19.72.72,1.4,1.31,1.65,2.63,1.1,4.72-.31,4.75-3.2.05-4.67.14-9.34-.02-14.01Zm-6.85,8.78c-.92,2.83-5.92,4.61-8.56,3.05-1.86-1.09-2.08-3.25-.31-4.55,2.02-1.48,4.4-1.67,6.39-1.73,3.16.03,3.35.55,2.48,3.23Z"/><path d="m133.09,233.79c1.7-1.29,2.49-3.4,2.5-6.37,0-.32,0-.64,0-.96,0,.32,0,.64,0,.96,0,2.97-.79,5.08-2.49,6.37Z"/><path d="m128.96,214.11c-7.57-.6-14.4,5.38-14.1,13.8.25,6.88,5.96,13.06,14.01,12.98,8.62-.09,13.85-5.71,13.75-15.27-.05-5.45-5.2-11.82-13.66-11.51Zm6.62,13.31c0,2.97-.8,5.08-2.5,6.37-.57.43-1.23.77-2.01,1.01-4.79,1.53-8.45-1.38-9.19-6.16-.35-2.23.03-4.39,1.47-6.29,1.86-2.45,4.75-3.46,7.59-2.54,2.89.94,4.7,3.55,4.64,6.65,0,.32,0,.64,0,.96Z"/></g></svg>