<?xml version="1.0" encoding="UTF-8"?><svg id="Capa_2" xmlns="http://www.w3.org/2000/svg" viewBox="0 0 754.94 142.11"><defs><style>.cls-1{fill:#c2c2c2;}.cls-2{fill:#bd1818;}.cls-3{fill:#939393;}</style></defs><g id="Capa_1-2"><path class="cls-3" d="m603.02,126.88c0,3.88-.06,7.75.03,11.63.03,1.4-.45,1.73-1.78,1.72-10.34-.05-20.68-.05-31.02,0-1.39,0-1.92-.26-1.92-1.8.04-35.64.04-71.28,0-106.93,0-1.52.49-1.81,1.89-1.81,11.19.05,22.37.06,33.56,0,1.55,0,1.96.42,1.95,1.95-.06,12.81-.03,25.63-.03,38.44,0,.88,0,1.77,0,2.69.83-.09.97-.68,1.26-1.05,4.7-6.07,10.97-9.26,18.52-9.88,8.55-.71,16.61.77,23.5,6.31,6.2,4.98,9.7,11.63,11.26,19.3,2.53,12.37,2.12,24.59-2.91,36.31-4.58,10.68-12.81,16.69-24.45,17.99-4.11.46-8.15.33-12.21-.4-6.85-1.22-11.91-4.9-15.36-10.87-.68-1.18-1.3-2.4-1.94-3.6-.12,0-.23,0-.34,0Zm1.62-25.71c-.15,2.13.01,4.47.41,6.77.63,3.68,1.77,7.18,5.65,8.72,5.27,2.09,10.16-1.12,11.47-7.4,1.09-5.2,1.2-10.46.34-15.68-.62-3.75-2-7.27-6.18-8.45-5.13-1.46-9.59,1.42-10.88,6.94-.68,2.92-.92,5.9-.81,9.1Z"/><path class="cls-2" d="m263.98,84.33c-5.12.72-10.23.81-15.29-.46-5.5-1.38-9.9-4.43-13.38-8.88-.36-.46-.72-.92-1.09-1.37-.02-.03-.1-.02-.38-.05v2.25c0,12.09-.03,24.19.04,36.28,0,1.52-.37,1.93-1.91,1.92-11.12-.07-22.24-.06-33.35-.01-1.4,0-2.01-.18-2.01-1.84.05-34.72.05-69.44.01-104.16,0-1.36.35-1.75,1.72-1.75,10.4.05,20.81.05,31.21,0,1.42,0,1.72.48,1.7,1.79-.08,3.83-.03,7.65-.03,11.67.76-.38.88-1.03,1.14-1.55,4.19-8.65,11.14-13.03,20.69-13.5,7.25-.36,14.27.3,20.66,4.2,7.68,4.68,11.93,11.78,14.09,20.23,3.02,11.82,3.09,23.63-.84,35.31-.18.18-.36.36-.55.54-9.9,3.12-17.64,8.76-21.78,18.62-.22.25-.44.5-.66.76Zm-31.03-38.77c0,.84-.01,1.69,0,2.53.05,3.27.33,6.5,1.9,9.45,2.9,5.46,10.64,5.8,14.03.64,1.02-1.55,1.64-3.26,1.83-5.08.64-5.9.97-11.81-.89-17.56-1.4-4.32-4.15-6.26-8.18-6.13-3.82.12-6.59,2.52-7.82,6.7-.91,3.1-.82,6.28-.88,9.45Z"/><path class="cls-2" d="m35.14,18.87c5.96-11.77,16.19-14.61,28.06-14.24,5.42.17,10.59,1.34,15.12,4.44,6.57,4.49,8.57,11.28,9.04,18.75.07,1.17.08,2.34.08,3.51,0,16.65,0,33.3.02,49.95,0,1.18-.04,1.89-1.6,1.88-11.38-.07-22.76-.07-34.14,0-1.59,0-1.6-.73-1.6-1.89.02-13.92.02-27.84,0-41.75,0-1.62,0-3.26-.14-4.87-.3-3.62-2.63-5.99-5.88-6.1-3.76-.13-6.01,1.78-6.62,5.67-.16,1.02-.25,2.06-.25,3.1-.02,14.57-.04,29.14.03,43.7,0,1.7-.4,2.17-2.14,2.16-11.06-.09-22.11-.07-33.17,0-1.53,0-1.95-.37-1.95-1.92C.05,56.85.05,32.46,0,8.07c0-1.51.45-1.81,1.86-1.8,10.54.06,21.07.06,31.61,0,1.41,0,1.74.43,1.7,1.77-.09,3.61-.03,7.22-.03,10.84Z"/><path class="cls-2" d="m105.04,30.32c0-.59,0-1.21,0-1.84,0-5.92.04-11.84-.03-17.75-.01-1.3.27-1.85,1.64-2.27,11.47-3.49,23.22-4.24,35.1-3.81,7.41.27,14.79.78,21.89,3.21,8.85,3.02,15.71,8.25,18.95,17.38,1.43,4.03,1.64,8.27,1.65,12.5.03,14.44-.01,28.88.04,43.31,0,1.53-.25,2.13-1.98,2.11-10.27-.09-20.55-.08-30.83,0-1.56.01-2-.42-1.93-1.95.12-2.85.03-5.72.03-8.7-.26.14-.46.19-.54.31-5.24,8.2-13.16,11.42-22.44,11.94-7.11.4-14.02-.54-20.29-4.23-8.05-4.74-10.61-12.08-10.06-21.03.88-14.28,11.76-22.13,24.99-24.34,8.85-1.48,17.71-1.51,26.61-.44,2.54.31,2.64.21,2.04-2.24-1.19-4.81-4.96-6.62-9.28-7.46-11.92-2.3-23.23-.08-34.12,4.91-.4.18-.74.54-1.43.39Zm33.3,34.97c3.81.12,6.85-1.36,9.03-4.43,2.17-3.07,2.85-6.61,2.87-10.32,0-1.06-.54-1.13-1.34-1.11-2.79.08-5.58.02-8.36.23-2.59.19-5.13.75-7.33,2.29-2.95,2.07-3.43,4.99-2.79,8.27.51,2.63,2.26,4.2,5.42,4.81.82.16,1.67.18,2.51.26Z"/><path class="cls-3" d="m396.14,129.16c-1.26,1.65-2.15,2.99-3.21,4.19-4.34,4.95-10.08,7.26-16.37,8.25-7.13,1.12-14.18.45-20.83-2.43-11.06-4.81-14.18-13.48-12.79-24.27,1.56-12.11,9.41-18.54,20.48-21.55,9.18-2.5,18.58-2.75,28.02-1.7,1.29.14,2.6.18,3.87.4,1.14.19,1.39-.28,1.26-1.26-.38-2.88-1.76-5.12-4.26-6.65-2.44-1.5-5.16-2.13-7.94-2.48-10.89-1.39-21.19.78-31.09,5.27-1.84.83-1.88.83-1.88-1.24,0-5.92.05-11.84-.03-17.76-.02-1.38.48-1.91,1.74-2.28,12.5-3.69,25.25-4.54,38.18-3.67,6.1.41,12.16.94,18.03,2.81,6.68,2.12,12.4,5.57,16.55,11.39,3.13,4.4,4.56,9.38,4.61,14.64.14,15.94.04,31.87.09,47.81,0,1.34-.48,1.6-1.7,1.6-10.34-.04-20.69-.05-31.03,0-1.4,0-1.78-.44-1.74-1.78.09-2.92.03-5.85.03-9.29Zm-4.33-22.59c-3.51,0-7.01.14-10.31,1.52-4.08,1.71-5.75,5.23-4.59,9.51.86,3.17,3.34,4.76,7.7,4.91,6.38.23,11.44-4.88,11.98-12.08q.29-3.86-3.61-3.86c-.39,0-.78,0-1.17,0Z"/><path class="cls-3" d="m729.33,110.83c-7.87,0-15.73.03-23.6-.03-1.59-.01-2.17.19-1.73,2.03.95,4.04,3.6,6.34,7.24,7.75,4.63,1.8,9.52,2,14.39,1.89,5.71-.13,11.4-.7,16.93-2.27,1.94-.55,3.85-1.18,5.66-2.08.85-.42,1.18-.21,1.18.74-.01,5.92-.03,11.83.02,17.75,0,1.12-.74,1.24-1.47,1.44-5.51,1.55-11.11,2.65-16.8,3.19-6.01.57-12.05.98-18.09.8-9.42-.28-18.64-1.52-27.1-6.08-10.36-5.59-16.02-14.49-18.04-25.88-1.26-7.11-1.16-14.24.51-21.27,2.71-11.4,9.89-18.94,20.7-23.04,10.14-3.84,20.71-4.57,31.44-3.78,6.73.5,13.02,2.3,18.66,6.09,7.91,5.32,12,13.09,14.07,22.12,1.43,6.24,1.73,12.59,1.65,18.97-.02,1.44-.51,1.69-1.8,1.68-7.93-.05-15.86-.03-23.8-.02Zm-16.14-16.31c2.73,0,5.46.01,8.19-.01.59,0,1.48.25,1.38-.82-.3-3.22-.35-6.48-1.86-9.48-2.7-5.35-9.35-6.46-13.56-2.18-3.15,3.21-3.76,7.27-3.68,11.53.02.97.66.95,1.33.95,2.73,0,5.46,0,8.19,0Z"/><path class="cls-3" d="m263.98,84.33c.22-.25.44-.5.66-.76.26.43.67.35,1.04.25,10.2-2.68,17.18-8.9,20.74-18.87.18-.18.36-.36.55-.54,5.25-1.17,10.51-2.26,15.91-2.53,10.75-.54,21.41.02,31.89,2.7.98.25,1.33.71,1.33,1.74-.04,6.57-.05,13.13,0,19.7.01,1.54-.47,1.59-1.7,1.05-5.32-2.32-10.89-3.47-16.69-3.11-5.58.34-10.64,1.98-13.98,6.86-2.46,3.59-2.94,7.72-2.67,11.95.58,9.06,5.84,15.36,13.89,16.66,6.75,1.09,13.18-.08,19.33-2.95.41-.19.83-.38,1.22-.61.83-.49,1-.1,1,.67.01,6.89.02,13.78.07,20.67,0,1.22-.87,1.29-1.65,1.53-4.91,1.54-9.95,2.46-15.07,2.88-8.24.68-16.48.73-24.66-.7-10.57-1.85-19.87-6.02-26.46-14.92-3.96-5.35-5.95-11.47-6.79-18.02-1.03-8.03-.44-15.92,2.04-23.65Z"/><path class="cls-3" d="m478.06,79.73c2.52-4.62,5.16-8.91,8.99-12.38,5.57-5.05,12.09-6.51,19.36-5.24.91.16,1.34.58,1.32,1.56-.15,9.35.26,18.71-.26,28.06-.08,1.38-.83,1.15-1.73,1.02-3.14-.47-6.27-.92-9.48-.32-8.48,1.58-15.52,9.3-15.75,17.94-.25,9.16-.14,18.33-.07,27.49.02,1.86-.46,2.39-2.36,2.37-11.05-.09-22.1-.07-33.15-.01-1.41,0-1.91-.28-1.9-1.8.05-24.38.04-48.76,0-73.13,0-1.38.42-1.75,1.77-1.75,10.47.05,20.93.05,31.4,0,1.44,0,1.91.36,1.89,1.84-.09,4.78-.03,9.56-.03,14.34Z"/><path class="cls-3" d="m553.88,101.91c0,12.09-.03,24.18.04,36.28,0,1.61-.39,2.07-2.03,2.06-11.05-.07-22.1-.07-33.15,0-1.68.01-2.02-.52-2.02-2.09.05-24.18.05-48.37,0-72.55,0-1.62.43-2.07,2.06-2.06,11.05.07,22.1.07,33.15,0,1.69-.01,2.01.53,2,2.09-.06,12.09-.03,24.18-.03,36.28Z"/><path class="cls-1" d="m326.75,43.76c-3.15,5.47-8.09,6.38-13.55,5.63-6.29-.86-9.83-4.99-11.34-10.85-1.45-5.64-1.32-11.29,1.07-16.76,3.39-7.75,13.04-9.39,19.04-6.04,1.28.72,2.09,1.93,3.27,2.75.59-.38.31-.95.31-1.41.03-5.01.06-10.02,0-15.02-.02-1.49.42-2.09,1.99-2.06,4.29.09,8.59.08,12.88,0,1.48-.03,1.9.54,1.9,1.95-.03,15.03-.03,30.05,0,45.08,0,1.32-.32,1.83-1.73,1.8-4.03-.09-8.07-.08-12.1,0-1.37.03-1.88-.4-1.76-1.77.1-1.09.02-2.21.02-3.31Zm-8.6-12.57c-.07,1.36.01,2.7.37,4.03.59,2.17,2.08,3.51,3.87,3.41,1.65-.09,3.18-1.82,3.56-3.86.41-2.25.23-4.49-.04-6.72-.25-2.06-1.86-3.63-3.63-3.77-1.71-.13-3.21,1.29-3.84,3.45-.34,1.16-.25,2.3-.29,3.46Z"/><path class="cls-1" d="m373.63,35.91c-3.12,0-6.24-.01-9.37,0-1.71.01-2.05.65-1.13,2.11.93,1.48,2.45,2.22,4.04,2.5,4.67.81,9.3.43,13.78-1.11,1.24-.43,1.65-.28,1.6,1.06-.06,1.88-.06,3.77,0,5.66.04,1.1-.34,1.67-1.44,1.91-7.48,1.64-14.97,2.4-22.52.43-6.77-1.76-11.05-6.76-12.05-13.68-.47-3.23-.29-6.34.55-9.43,1.16-4.29,3.88-7.36,7.97-8.99,6.17-2.46,12.55-3.16,19.03-1.25,6.11,1.8,9.09,6.31,10.37,12.24.48,2.24.39,4.51.46,6.78.05,1.33-.34,1.84-1.74,1.8-3.18-.09-6.37-.03-9.56-.03Zm-7.03-7.38h0c1.04,0,2.07-.02,3.11,0,.69,0,1.16-.21,1.09-.99-.15-1.84-.45-3.62-2.05-4.83-1.45-1.1-2.92-.82-4.33.06-1.06.66-2.58,4.38-2.02,5.2.8,1.18,2.15.32,3.23.54.31.06.65,0,.97,0Z"/><path class="cls-3" d="m535.35,55.51c-5.65,0-11.31-.03-16.96.03-1.25.01-1.69-.33-1.68-1.63.05-7.54.04-15.07,0-22.61,0-1.15.29-1.59,1.52-1.59,11.37.04,22.74.04,34.11,0,1.18,0,1.56.32,1.56,1.53-.05,7.6-.05,15.2,0,22.8,0,1.26-.48,1.5-1.6,1.49-5.65-.04-11.3-.02-16.96-.02Z"/><path class="cls-1" d="m389.19,24.42c0-7.47.04-14.95-.03-22.42-.01-1.5.37-2.04,1.95-2,4.22.11,8.45.07,12.67.01,1.28-.02,1.84.26,1.83,1.7-.05,15.14-.04,30.28,0,45.42,0,1.25-.34,1.72-1.65,1.7-4.35-.07-8.71-.08-13.06,0-1.4.02-1.75-.48-1.74-1.8.05-7.54.03-15.08.03-22.61Z"/></g></svg>