<svg xmlns="http://www.w3.org/2000/svg" width="228" height="93.638" viewBox="0 0 228 93.638"><path d="M357.232,363.053c-.509,0-1.071-.055-1.071-.641V358.78c0-.468.289-.657.738-.657a2.157,2.157,0,0,1,2.222,2.466c0,1.726-.674,2.457-1.889,2.465m-.033-5.205h-3.03v.275c.758,0,.938.188.938.657v3.633c0,.469-.18.658-.938.658v.258h3.03c1.761,0,3.191-.938,3.191-2.722,0-1.912-1.388-2.734-3.191-2.758" transform="translate(-276.061 -269.887)" fill="#fff"/><path d="M385.753,363.053c-.51,0-1.072-.055-1.072-.641V358.78c0-.468.291-.657.737-.657a2.157,2.157,0,0,1,2.222,2.466c0,1.726-.672,2.457-1.888,2.465m-.035-5.205H382.69v.275c.757,0,.937.188.937.657v3.633c0,.469-.18.658-.937.658v.258h3.028c1.761,0,3.192-.938,3.192-2.722,0-1.912-1.389-2.734-3.192-2.758" transform="translate(-280.157 -269.887)" fill="#fff"/><path d="M369.453,361.872c-.421.9-.98,1.156-2.094,1.156-.535,0-.62-.17-.62-.6v-1.716h.866c.247,0,.689.694.689.694l.146-.051a3.8,3.8,0,0,1-.111-.8,5.079,5.079,0,0,1,.111-.885l-.146-.043s-.415.764-.689.764h-.866v-1.732c0-.416.12-.563.579-.563,1.157,0,1.668.284,1.929,1.034l.221-.094a5.45,5.45,0,0,1-.048-1.407l-.169-.017a4.657,4.657,0,0,1-1.832.2h-2.67v.272c.748,0,.936.191.936.658v3.635c0,.469-.188.658-.936.658v.255h3.844a1.332,1.332,0,0,1,.689.132l.171-.025a10,10,0,0,1,.244-1.526Z" transform="translate(-277.581 -269.851)" fill="#fff"/><path d="M397.671,361.872a1.909,1.909,0,0,1-2.094,1.156c-.535,0-.62-.17-.62-.6v-1.716h.864c.247,0,.69.694.69.694l.146-.051a3.793,3.793,0,0,1-.111-.8,5.077,5.077,0,0,1,.111-.885l-.146-.043s-.415.764-.69.764h-.864v-1.732c0-.416.117-.563.579-.563,1.157,0,1.666.284,1.926,1.034l.224-.094a5.406,5.406,0,0,1-.048-1.407l-.17-.017a4.66,4.66,0,0,1-1.831.2h-2.67v.272c.748,0,.936.191.936.658v3.635c0,.469-.188.658-.936.658v.255h3.844a1.326,1.326,0,0,1,.688.132l.172-.025a10.014,10.014,0,0,1,.244-1.526Z" transform="translate(-281.632 -269.851)" fill="#fff"/><path d="M375.475,358.8c0-.627.362-.926,1.082-.926a1.288,1.288,0,0,1,1.35,1.38l.36.064a4.712,4.712,0,0,0,.1-1.447,4.39,4.39,0,0,0-1.781-.322c-1.243,0-2.076.643-2.076,1.683,0,2.13,3.123,1.284,3.123,2.919a.956.956,0,0,1-1.093.989c-1.278,0-1.315-1.02-1.727-1.679l-.25.026a3.452,3.452,0,0,1-.132,1.432,3.742,3.742,0,0,0,2.077.561c1.445,0,2.135-.846,2.135-1.783,0-2.048-3.164-1.223-3.164-2.9" transform="translate(-278.97 -269.841)" fill="#fff"/><path d="M410.833,358.608c0-.467.043-.93.043-.93l-2.429.488v.274c.92,0,1.332.1,1.332.416v3.532c0,.467-.43.658-1.187.658v.256h3.448v-.256c-.73,0-1.207-.19-1.207-.658Z" transform="translate(-283.855 -269.861)" fill="#fff"/><path d="M435.278,363.074c-1.019,0-1.031-.888-1.381-1.365l-.289.035a4.458,4.458,0,0,1,.086.8c0,.28-.014.468-.014.468a3.154,3.154,0,0,0,1.691.434,1.916,1.916,0,0,0,2.144-1.73c0-1.044-1.268-1.434-1.268-1.434s1.1-.4,1.1-1.282c0-.9-.8-1.365-1.9-1.365a4.732,4.732,0,0,0-1.718.378,6.363,6.363,0,0,0,.158,1.325l.314-.059c0-.916.326-1.321,1.011-1.321a1.014,1.014,0,0,1,1,1.1,1.381,1.381,0,0,1-1.449,1.324v.249a1.388,1.388,0,0,1,1.556,1.272c0,.688-.3,1.167-1.046,1.167" transform="translate(-287.468 -269.855)" fill="#fff"/><path d="M418,363.06c-.579,0-1-.445-1-1.264a1.182,1.182,0,0,1,.546-1.093s1.5.213,1.5,1.2A1.052,1.052,0,0,1,418,363.06m0-5.1c.527,0,.876.391.876,1.137a1.347,1.347,0,0,1-.341,1.005s-1.377-.275-1.377-1.2a.825.825,0,0,1,.842-.938m1.072,2.355a1.576,1.576,0,0,0,.765-1.229c0-.9-.689-1.45-1.794-1.45s-1.872.613-1.872,1.495a1.48,1.48,0,0,0,.868,1.329s-1.116.366-1.116,1.341c0,1.089.81,1.647,2.019,1.647a1.9,1.9,0,0,0,2.127-1.733,1.552,1.552,0,0,0-1-1.4" transform="translate(-284.928 -269.855)" fill="#fff"/><path d="M426.8,363.06c-.577,0-.994-.445-.994-1.264a1.183,1.183,0,0,1,.543-1.093s1.5.213,1.5,1.2a1.052,1.052,0,0,1-1.047,1.153m0-5.1c.531,0,.878.391.878,1.137a1.347,1.347,0,0,1-.341,1.005s-1.379-.275-1.379-1.2a.826.826,0,0,1,.842-.938m1.075,2.355a1.576,1.576,0,0,0,.762-1.229c0-.9-.689-1.45-1.8-1.45s-1.867.613-1.867,1.495a1.479,1.479,0,0,0,.864,1.329s-1.112.366-1.112,1.341c0,1.089.808,1.647,2.015,1.647a1.894,1.894,0,0,0,2.125-1.733,1.55,1.55,0,0,0-.992-1.4" transform="translate(-286.192 -269.855)" fill="#fff"/><path d="M277.35,337.112l.822.231a19.775,19.775,0,0,0-.847,3.687,10.348,10.348,0,0,1-5.7,1.52c-4.752,0-8.657-2.681-8.657-7.962,0-5.412,4.033-8.144,9.2-8.144a15.438,15.438,0,0,1,5.6,1.108,23.438,23.438,0,0,1-.411,4.767l-.873-.154c0-2.912-1.542-4.716-4.394-4.716-3.158,0-5.548,2.474-5.548,7.01s2.338,6.931,5.343,6.931c3.8,0,4.213-2.578,5.472-4.277" transform="translate(-262.966 -265.127)" fill="#fff"/><path d="M303.385,334.609c0,5.025-4.111,7.962-9.094,7.962-5.008,0-8.528-2.757-8.528-8.064,0-4.949,3.931-7.912,9.094-7.912,5.085,0,8.528,2.629,8.528,8.014m-3.52-.051c0-4.692-1.8-7.036-5.267-7.036-3.338,0-5.06,2.809-5.06,7.036,0,4.533,1.721,6.956,5.06,6.956,3.392,0,5.267-2.164,5.267-6.956" transform="translate(-266.239 -265.15)" fill="#fff"/><path d="M314.363,339.673c0,1.57.36,1.828,2.774,1.828v.723H310.2V341.5c2.491,0,2.8-.258,2.8-1.828V329.16a4.364,4.364,0,0,0-3.055-1.366v-.774h5.676c.128.591.744,1.392,3.337,4.38l6.782,7.757v-9.535c0-1.57-.692-1.828-2.542-1.828v-.774h6.37v.774c-2.106,0-2.518.283-2.518,1.828v10.462c0,1.005.564,1.624,1.8,1.624v.747h-4.059l-10.428-11.7Z" transform="translate(-269.712 -265.214)" fill="#fff"/><path d="M351.581,337.112l.822.231a19.778,19.778,0,0,0-.847,3.687,10.347,10.347,0,0,1-5.7,1.52c-4.752,0-8.657-2.681-8.657-7.962,0-5.412,4.033-8.144,9.2-8.144a15.438,15.438,0,0,1,5.6,1.108,23.513,23.513,0,0,1-.411,4.767l-.873-.154c0-2.912-1.542-4.716-4.392-4.716-3.161,0-5.55,2.474-5.55,7.01s2.338,6.931,5.343,6.931c3.8,0,4.213-2.578,5.472-4.277" transform="translate(-273.624 -265.127)" fill="#fff"/><path d="M365.643,335.344V339.7c0,1.288.8,1.8,2.055,1.8v.721H360.12V341.5c2.082,0,2.594-.516,2.594-1.8V329.6c0-1.288-.512-1.8-2.594-1.8v-.772H367.7v.772c-1.259,0-2.055.516-2.055,1.8v4.56h7.989V329.6c0-1.288-.872-1.8-2.081-1.8v-.772H379.1v.772c-2.082,0-2.594.516-2.594,1.8v10.1c0,1.288.54,1.8,2.67,1.8v.721h-7.629V341.5c1.209,0,2.081-.516,2.081-1.8v-4.355Z" transform="translate(-276.916 -265.215)" fill="#fff"/><path d="M401.564,339.879c.436,1.005.591,1.366,2.7,1.624v.72h-7.038v-.72c1.155-.129,1.387-.619,1.079-1.341l-1-2.473h-6.42l-.927,2.473c-.256.723-.231,1.212,1.1,1.341v.72h-5.291v-.72c2.056-.258,2.288-.619,2.672-1.624l4.494-11.389a5.379,5.379,0,0,0-2.746-.669v-.8h6.19a6.407,6.407,0,0,0,.668,2.191Zm-4.752-3.4-2.825-7.036-2.645,7.036Z" transform="translate(-280.598 -265.214)" fill="#fff"/><path d="M419.593,340.931c-.667,0-1.773.076-1.773.076a11.7,11.7,0,0,0,.411-3.245,10.47,10.47,0,0,0-5.163-8.711l.411-.567a9.209,9.209,0,0,1,6.4,5.439c.975,2.447.771,4.638,1.464,7.085,0,0-1.155-.076-1.747-.076m3.082-12.653a49.668,49.668,0,0,0-2.131,5.154l.18.567c2.182-3.3,3.724-4.716,5.5-4.716v-.567a9.251,9.251,0,0,1-3.313-.541Z" transform="translate(-284.518 -265.389)" fill="#fff"/><path d="M478.334,334.609c0,5.025-4.109,7.962-9.093,7.962-5.008,0-8.528-2.757-8.528-8.064,0-4.949,3.929-7.912,9.094-7.912,5.085,0,8.527,2.629,8.527,8.014m-3.518-.051c0-4.692-1.8-7.036-5.266-7.036-3.338,0-5.061,2.809-5.061,7.036,0,4.533,1.722,6.956,5.061,6.956,3.39,0,5.266-2.164,5.266-6.956" transform="translate(-291.359 -265.15)" fill="#fff"/><path d="M488.259,329.508c0-1.263-1-1.753-2.98-1.753v-.772h2.852c1.336,0,3.521-.206,5.061-.206,4.392,0,6.936,1.572,6.936,4.382,0,3.606-3.751,4.9-5.653,4.9,0,.31,2.107.078,3.237,1.391l4.264,4.872c.643.745,1.643,1.621,2.313,1.621v.594h-4.316s-6.062-8.4-7.449-8.4v-.569c2.853,0,4.136-1.906,4.136-4.251a3.781,3.781,0,0,0-4.06-3.686,6.165,6.165,0,0,0-1.258.078v11.827a1.791,1.791,0,0,0,2.03,1.934v.72h-7.757v-.72c2.133,0,2.645-.568,2.645-1.934Z" transform="translate(-294.887 -265.177)" fill="#fff"/><path d="M526.238,334.609c0,5.025-4.109,7.962-9.093,7.962-5.008,0-8.529-2.757-8.529-8.064,0-4.949,3.932-7.912,9.1-7.912,5.084,0,8.526,2.629,8.526,8.014m-3.518-.051c0-4.692-1.8-7.036-5.267-7.036-3.338,0-5.06,2.809-5.06,7.036,0,4.533,1.721,6.956,5.06,6.956,3.392,0,5.267-2.164,5.267-6.956" transform="translate(-298.238 -265.15)" fill="#fff"/><path d="M440.624,342.154v-.717c2.158,0,2.9-.336,2.9-3.968v-9.251c-3.6,0-5.188,1.107-7.09,4.9l-.589-.336a50.268,50.268,0,0,1,2.594-6.261h.462c.334.594,2.877.825,6.114.825s5.779-.232,6.114-.825h.487a55.234,55.234,0,0,1,2.594,6.261l-.591.336c-1.926-3.788-3.493-4.9-7.089-4.9v9.251c0,3.632.719,3.968,2.877,3.968v.717" transform="translate(-287.789 -265.138)" fill="#fff"/><path d="M373.5,263.225c7.057,2.556,12.786,5.734,14.884,12.575,1.257,4.491.348,8.291,1.815,12.159a24.36,24.36,0,0,0-3.493-.276,27.08,27.08,0,0,0-3.492.276,19.627,19.627,0,0,0,.907-6.147c0-7.74-3.7-13.957-11.248-17.274Zm2.586-3.664c-.839-.9-6.358-5.388-16.071-5.388-13.346,0-24.6,8.568-24.6,24.388,0,16.1,11.669,23.907,24.316,23.907a28.661,28.661,0,0,0,14.043-3.455,83.879,83.879,0,0,0,3.355-11.746l-1.746-.346c-1.958,7.185-6.569,12.576-14.952,12.576-10.761,0-16.629-8.775-16.629-21.281,0-12.161,5.589-21.073,17.885-21.073,7.059,0,12.437,2.9,13.626,3.868ZM416.2,300.674c7.127,0,12.368-.207,12.368-.207v-1.728c-6.569,0-9.084-.759-9.084-11.4,0-18.863,1.048-27.361,1.048-27.361,8.735,0,14.533,4.284,21.1,15.339l1.327-.691c-2.026-5.457-5.8-12.229-10.97-19.484h-1.327c-1.189,1.728-4.752,2.625-14.535,2.625-9.781.07-13.485-.9-14.6-2.625l-1.4.07a109.368,109.368,0,0,0-10.062,18.309,9.855,9.855,0,0,1,.56,1.866c6.428-11.053,12.017-15.407,21.032-15.407,0,0,1.186,8.5,1.186,27.361.07,10.64-2.584,11.469-9.152,11.469v1.659s5.242.207,12.507.207" transform="translate(-273.37 -254.174)" fill="#fff"/></svg>