<?xml version="1.0" encoding="UTF-8"?><svg id="Capa_2" xmlns="http://www.w3.org/2000/svg" viewBox="0 0 37.23 37.16"><defs><style>.cls-1,.cls-2,.cls-3,.cls-4,.cls-5{stroke-width:0px;}.cls-1,.cls-3{fill:none;}.cls-2,.cls-3{fill-rule:evenodd;}.cls-2,.cls-5{fill:#fff;}.cls-3{stroke:#fff;stroke-miterlimit:3.86;}.cls-4{fill:#be2b31;}</style></defs><g id="Capa_1-2"><path class="cls-2" d="m4.21,23.53v-3.38h-1v3.45c0,.94-.33,1.29-1.1,1.29-.87,0-1.09-.49-1.09-1.19v-3.55H0v3.61c0,1.06.37,2.01,2.03,2.01,1.38,0,2.18-.72,2.18-2.24Z"/><path class="cls-2" d="m8.35,25.67v-4.66h-.83v1.45c0,.57.01,1.4.05,1.87-.16-.35-.34-.74-.54-1.1l-1.23-2.22h-1.11v4.66h.83v-1.66c0-.56-.01-1.29-.04-1.69.13.3.28.65.48,1l1.3,2.35h1.1Z"/><rect class="cls-5" x="8.9" y="21.01" width=".85" height="4.66"/><path class="cls-2" d="m14.06,21.01h-.87l-.87,2.67c-.12.39-.2.65-.26.97h-.01c-.08-.34-.18-.65-.26-.91l-.86-2.73h-.93l1.54,4.66h.98l1.55-4.66Z"/><polygon class="cls-2" points="16.71 25.67 16.71 24.91 15.15 24.91 15.15 23.64 16.63 23.64 16.63 22.91 15.15 22.91 15.15 21.76 16.71 21.76 16.71 21.01 14.3 21.01 14.3 25.67 16.71 25.67"/><path class="cls-2" d="m20.34,25.67l-1.06-1.57c-.11-.16-.24-.34-.36-.51.67-.11,1.13-.61,1.13-1.3,0-.95-.63-1.31-1.61-1.31-.51,0-.93,0-1.27.03v4.66h.85v-1.93h.03l1.23,1.93h1.06Zm-1.19-3.29c0,.44-.31.71-.83.71-.13,0-.25,0-.31-.01v-1.35c.09-.01.21-.02.33-.02.54,0,.8.22.8.67Z"/><path class="cls-2" d="m23.21,24.23c0-1.46-1.86-1.15-1.86-1.98,0-.33.25-.57.74-.57.27,0,.54.05.79.12l.05-.79c-.26-.05-.55-.08-.8-.08-1.06,0-1.69.57-1.69,1.4,0,1.53,1.86,1.13,1.86,2.02,0,.43-.33.61-.77.61-.32,0-.68-.08-.92-.17l-.05.84c.28.08.59.11.91.11,1.09,0,1.75-.64,1.75-1.52Z"/><rect class="cls-5" x="23.56" y="21.01" width=".85" height="4.66"/><path class="cls-2" d="m28.76,23.26c0-1.64-.87-2.28-2.24-2.28-.54,0-1.08.02-1.43.03v4.65c.37.01.77.03,1.23.03,1.44,0,2.44-.84,2.44-2.44Zm-.92.07c0,1.1-.6,1.6-1.44,1.6-.17,0-.35-.01-.47-.03v-3.14c.14-.01.32-.02.52-.02,1.01,0,1.38.59,1.38,1.6Z"/><path class="cls-2" d="m32.86,25.67l-1.58-4.66h-.96l-1.55,4.66h.86l.31-.95h1.67l.31.95h.94Zm-1.48-1.66h-1.23l.4-1.19c.09-.27.16-.54.21-.78h0c.05.26.12.49.2.75l.41,1.22Z"/><path class="cls-2" d="m36.76,23.26c0-1.64-.87-2.28-2.24-2.28-.54,0-1.08.02-1.43.03v4.65c.37.01.77.03,1.23.03,1.44,0,2.44-.84,2.44-2.44Zm-.92.07c0,1.1-.6,1.6-1.44,1.6-.17,0-.35-.01-.47-.03v-3.14c.14-.01.32-.02.52-.02,1.01,0,1.38.59,1.38,1.6Z"/><path class="cls-2" d="m10.46,37.03l-1.34-9.06h-1.93l-1.48,4.68c-.22.67-.36,1.18-.48,1.88h-.03c-.11-.64-.27-1.26-.47-1.91l-1.44-4.66h-1.94L.03,37.03h1.68l.48-4.17c.1-.79.19-1.5.24-2.31h.03c.1.72.32,1.54.55,2.28l1.31,4.2h1.64l1.36-4.55c.22-.71.36-1.36.47-1.93h.03c.06.63.14,1.3.27,2.16l.61,4.32h1.75Z"/><path class="cls-2" d="m17.99,37.03l-2.68-7.9h-1.63l-2.62,7.9h1.46l.52-1.62h2.84l.52,1.62h1.6Zm-2.5-2.82h-2.09l.68-2.01c.14-.46.27-.91.36-1.32h.01c.09.44.2.83.35,1.26l.7,2.07Z"/><path class="cls-2" d="m23.48,29.13h-1.53l-.95,2.12c-.22.5-.44,1.01-.6,1.46h-.02c-.14-.41-.31-.84-.51-1.31l-.99-2.27h-1.58l2.35,5.12v2.79h1.45v-2.8l2.39-5.1Z"/><path class="cls-2" d="m30.65,32.97c0-2.7-1.41-3.97-3.41-3.97s-3.67,1.57-3.67,4.18c0,2.45,1.12,3.98,3.41,3.98,2.03,0,3.67-1.58,3.67-4.19Zm-1.55.12c0,1.9-1.05,2.69-2.02,2.69-1.35,0-1.97-1.09-1.97-2.76,0-1.78.96-2.65,1.99-2.65,1.29,0,2,.96,2,2.72Z"/><path class="cls-2" d="m37.23,37.03l-1.8-2.66c-.19-.27-.4-.57-.61-.87,1.13-.19,1.91-1.03,1.91-2.2,0-1.62-1.07-2.22-2.72-2.22-.87,0-1.57.01-2.16.05v7.9h1.45v-3.27h.06l2.09,3.27h1.79Zm-2.01-5.57c0,.74-.53,1.21-1.4,1.21-.22,0-.42-.01-.52-.02v-2.28c.14-.02.36-.03.57-.03.91,0,1.36.37,1.36,1.14Z"/><path class="cls-1" d="m18.6,13.19s-.03-.03,0-3.83c-.24,0-1.77,0-2.82,0-.82,0-.97,0-.99,0v-.02s-3.49,0-3.49,0c0,7.57,6.65,8.59,7.33,8.79v-4.93h-.02Z"/><path class="cls-4" d="m18.62,5.62v-.14s0,0,0,0c0,0,0,.05,0,.14Z"/><path class="cls-5" d="m21.63,9.36h-.02s.35-.25.35-.25l-.38-.18.32-.28-.4-.13.27-.32-.42-.07.23-.35h-.42s.18-.39.18-.39l-.42.05.12-.4-.41.11.06-.42-.39.16v-.42s-.36.21-.36.21l-.05-.42-.33.26-.11-.4-.29.3-.17-.38-.24.34-.12-.2h0s-.09-.16-.09-.16l-.19.37-.27-.32-.14.4-.31-.28-.08.41-.35-.24-.03.42-.38-.19.03.42-.4-.13.09.41-.41-.08.15.39-.42-.02.2.37-.42.04.25.34-.41.1.3.3-.39.15.33.26-.37.21.37.21-.33.26.39.15-.3.3.41.1-.25.34.42.04-.2.37.42-.02-.15.39.41-.08-.09.41.4-.13-.03.42.38-.19.03.42.35-.24.08.41.31-.28.14.4.27-.32.19.37.08-.14h0l.03-.05h0l.1-.17.24.34.17-.39.29.3.11-.4.33.26.05-.42.36.21v-.42s.39.16.39.16l-.06-.42.41.11-.12-.4.42.05-.17-.38h.42s-.23-.36-.23-.36l.42-.07-.27-.32.4-.13-.32-.28.38-.18-.33-.22Zm-1.57.83c-.06.2-.14.39-.25.57-.15-.03-.31-.05-.45-.07.05-.18.09-.36.12-.55.19,0,.38.02.58.04Zm-.57-.13c.03-.21.04-.43.04-.67h.67c0,.25-.04.49-.1.72-.21-.02-.41-.03-.61-.04Zm-.09,0c-.33-.01-.6-.02-.71-.02v-.65h.75c0,.24-.01.46-.04.67Zm-.02.1c-.03.19-.07.37-.12.54-.24-.02-.45-.03-.57-.03v-.53c.11,0,.37,0,.69.02Zm-.15.63c-.05.16-.12.31-.2.46-.15,0-.27-.01-.35-.01v-.48c.12,0,.31,0,.54.03Zm.1,0c.13.01.27.03.41.06-.1.15-.22.3-.35.45-.09-.02-.18-.03-.26-.04.07-.15.15-.31.2-.46Zm.1.61c.08.02.15.03.23.05-.25.18-.51.32-.78.43.2-.16.39-.32.55-.48Zm.06-.08c.13-.15.25-.3.35-.45.13.02.25.05.37.08-.14.16-.3.31-.47.44-.09-.03-.17-.05-.26-.07Zm.41-.54c.11-.19.19-.38.25-.58.18.02.35.04.5.07-.1.22-.23.42-.38.6-.12-.03-.24-.07-.38-.09Zm.29-.67c.06-.23.09-.47.1-.72h.57c0,.29-.07.55-.17.8-.15-.03-.32-.06-.5-.07Zm-.01-1.57c.18-.02.36-.04.51-.07.1.25.16.52.17.82h-.56c0-.27-.04-.52-.11-.75Zm.02.75h-.67c0-.25-.01-.48-.05-.7.19,0,.4-.02.6-.04.07.23.12.48.11.74Zm-.04-.84c-.07-.21-.17-.41-.29-.59.14-.03.27-.06.4-.09.15.18.29.38.39.61-.15.03-.32.05-.5.07Zm-.34-.68c-.11-.16-.22-.31-.34-.44.08-.02.17-.04.25-.07.17.13.33.27.47.43-.12.03-.25.06-.39.09Zm-.1.02c-.14.02-.27.04-.41.06-.05-.16-.12-.31-.19-.46.08,0,.17-.02.25-.04.12.13.24.28.35.44Zm.06.09c.11.18.22.37.29.58-.2.02-.4.03-.6.04-.03-.19-.07-.38-.13-.56.14-.02.28-.04.43-.06Zm1.52,1.41h-.34c0-.31-.07-.59-.17-.85.13-.03.23-.06.31-.11.12.29.19.62.2.95Zm-.65-1.67c.17.19.31.4.42.64-.07.04-.17.07-.3.1-.1-.23-.24-.43-.39-.62.1-.03.2-.07.27-.11Zm-.06-.08c-.08.04-.17.08-.28.11-.14-.16-.29-.31-.46-.44.07-.03.15-.07.21-.11.19.12.37.27.52.43Zm-.63-.49c-.07.04-.14.07-.21.09-.24-.17-.49-.31-.75-.42.34.05.67.16.96.32Zm-.31.14c-.08.02-.16.04-.23.05-.16-.16-.32-.31-.47-.43.24.1.48.23.7.38Zm-.34.07c-.08.01-.14.02-.21.03-.08-.16-.19-.32-.29-.48.16.12.33.27.5.45Zm-.6-.42c.11.15.21.31.29.46-.12,0-.22,0-.29,0v-.47Zm0,.56c.07,0,.18,0,.33,0,.07.15.14.3.19.46-.22.02-.4.03-.52.03v-.48Zm0,.58s.01,0,.02,0c.13,0,.32-.01.54-.03.06.18.09.36.12.55-.32.01-.58.01-.68.01v-.53Zm0,.63h.03c.12,0,.38,0,.67-.01.03.22.04.45.05.7h-.75v-.68Zm-1.3-.75c-.11.18-.21.37-.28.58-.18-.02-.35-.04-.5-.07.1-.22.24-.42.39-.6.12.04.26.07.4.09Zm-.33-.17c.14-.16.3-.3.47-.43.09.03.17.05.26.07-.12.14-.23.29-.34.45-.13-.02-.26-.05-.39-.09Zm.68,1.6h-.67c0-.27.04-.52.11-.75.2.02.41.03.6.04-.03.22-.04.46-.05.71Zm.04.76c-.2,0-.4.02-.61.04-.06-.23-.09-.46-.1-.71h.66c0,.24.02.46.04.67Zm-.69-1.52c-.07.24-.12.49-.11.76h-.56c0-.31.07-.58.17-.84.15.03.32.06.51.08Zm-.11.86c0,.25.03.49.09.72-.18.02-.35.04-.5.08-.1-.25-.16-.51-.17-.79h.57Zm.13.81c.06.2.14.4.26.59-.13.03-.26.06-.37.09-.15-.19-.29-.39-.39-.61.15-.03.32-.06.51-.07Zm.32.68c.1.15.22.3.35.45-.08.02-.17.04-.25.07-.17-.13-.32-.27-.47-.44.12-.03.24-.06.37-.09Zm.42.53c.15.16.34.32.54.47-.26-.11-.52-.25-.76-.42.08-.02.15-.04.22-.05Zm-.31-.55c.14-.02.28-.04.41-.06.05.16.12.31.2.46-.08,0-.17.02-.26.04-.13-.14-.25-.29-.34-.44Zm-.07-.08c-.11-.19-.19-.39-.26-.59.2-.02.39-.03.58-.04.03.19.07.38.13.56-.15.02-.3.04-.45.07Zm-.26-2.32c.07-.21.17-.39.29-.57.15.03.29.05.43.06-.05.18-.09.36-.12.55-.19,0-.39-.02-.59-.04Zm.34-.65c.11-.16.22-.31.34-.44.09.02.18.03.26.03-.07.15-.14.3-.2.46-.13-.01-.27-.03-.41-.06Zm.43-.53c.17-.18.35-.33.51-.45-.11.16-.21.32-.29.48-.07,0-.14-.01-.21-.03Zm.36-.46c-.15.12-.31.27-.47.44-.08-.02-.16-.03-.24-.05.23-.16.47-.29.71-.39Zm-.07-.07c-.25.11-.5.25-.74.41-.07-.03-.14-.06-.2-.09.29-.16.6-.27.94-.32Zm-1.04.38c.07.04.14.07.21.1-.17.13-.32.28-.47.45-.1-.03-.19-.07-.27-.11.16-.17.33-.31.53-.44Zm-.59.51c.08.04.17.08.27.11-.15.19-.29.38-.38.61-.12-.03-.22-.06-.29-.1.11-.23.25-.44.41-.63Zm-.45.71c.08.04.18.07.31.1-.1.26-.17.55-.17.86h-.33c0-.34.08-.66.2-.96Zm-.2,1.05h.34c0,.29.07.56.17.81-.13.03-.25.07-.33.11-.11-.29-.18-.6-.18-.92Zm.19.94l.04.07c.07-.04.18-.08.31-.11.1.23.23.43.39.62-.12.04-.23.08-.31.13-.18-.22-.33-.45-.43-.72Zm.49.79c.08-.05.19-.09.31-.13.14.16.29.31.45.44-.08.03-.16.07-.24.12l.03.04c-.21-.13-.39-.3-.55-.48Zm.6.51c.08-.05.17-.08.26-.12.29.21.6.38.92.5-.43-.03-.83-.16-1.18-.38Zm.69-.24c.08-.01.15-.03.23-.04.08.16.18.31.28.47-.18-.14-.37-.29-.51-.44Zm.65.47c-.12-.17-.23-.35-.32-.52.14,0,.25-.01.32-.01v.53Zm0-.62c-.08,0-.2,0-.36.01-.07-.15-.14-.3-.2-.46.24-.02.43-.03.56-.03v.48Zm0-.57c-.13,0-.34,0-.59.03-.05-.18-.09-.36-.12-.55.35-.01.62-.01.71-.01v.53Zm0-.63c-.09,0-.37,0-.72.01-.03-.21-.04-.43-.04-.66h.77v.65Zm0-.74h-.77c0-.25.02-.48.05-.7.35.02.62.02.72.02v.69Zm0-.78c-.1,0-.37,0-.7-.02.03-.19.07-.37.12-.54.25.02.45.03.58.03v.53Zm0-.63c-.12,0-.31,0-.54-.03.05-.16.12-.31.19-.46.09,0,.17,0,.23,0,.05,0,.08,0,.12,0v.48Zm0-.58c-.07,0-.18,0-.31,0,.09-.16.19-.33.31-.49v.5Zm.09,4.53v-.5c.07,0,.18,0,.31,0-.09.16-.19.33-.31.5Zm.41-.49c.08,0,.15.02.23.03-.15.15-.33.3-.52.45.11-.16.21-.32.29-.48Zm-.25.65c.32-.12.63-.29.92-.5.09.03.18.07.26.12-.35.22-.75.35-1.18.38Zm1.22-.4l.03-.05c-.08-.05-.16-.08-.25-.11.17-.13.32-.29.46-.45.12.04.23.08.31.13-.16.18-.35.35-.55.48Zm.62-.56c-.08-.05-.19-.09-.31-.13.15-.19.28-.39.38-.61.14.03.25.07.33.11-.1.23-.24.44-.4.63Zm.43-.72c-.08-.04-.19-.08-.33-.11.1-.25.16-.53.17-.82h.34c0,.33-.07.64-.18.93Z"/><path class="cls-2" d="m19.89,9.61s-.01-.01-.02-.01c0,0,0,0,0,0,0,0,0,.01,0,.02l.11.23-.27.02s-.01,0-.02,0c0,0,0,0,0,0,0,0,.02,0,.02.01l.25.09-.17.2s-.01.01-.01.02c0,.01.02,0,.02,0l.24-.11.02.25s0,.01,0,.02c0,0,0,0,0,0,0,0,0-.02.01-.02l.08-.23.2.16s.01.01.02.01c.01,0,0-.02,0-.02l-.11-.23.25-.02s.01,0,.02,0c0,0,0,0,0,0,0,0-.02,0-.02-.01l-.24-.09.17-.19s.01-.01.01-.02c0,0,0,0,0,0,0,0-.01,0-.02,0l-.23.11-.02-.26s0-.01,0-.02c0,0,0,0,0,0,0,0,0,.02,0,.02l-.09.24-.2-.16Z"/><path class="cls-3" d="m19.89,9.61s-.01-.01-.02-.01c0,0,0,0,0,0,0,0,0,.01,0,.02l.11.23-.27.02s-.01,0-.02,0c0,0,0,0,0,0,0,0,.02,0,.02.01l.25.09-.17.2s-.01.01-.01.02c0,.01.02,0,.02,0l.24-.11.02.25s0,.01,0,.02c0,0,0,0,0,0,0,0,0-.02.01-.02l.08-.23.2.16s.01.01.02.01c.01,0,0-.02,0-.02l-.11-.23.25-.02s.01,0,.02,0c0,0,0,0,0,0,0,0-.02,0-.02-.01l-.24-.09.17-.19s.01-.01.01-.02c0,0,0,0,0,0,0,0-.01,0-.02,0l-.23.11-.02-.26s0-.01,0-.02c0,0,0,0,0,0,0,0,0,.02,0,.02l-.09.24-.2-.16Z"/><path class="cls-2" d="m18.01,7.41s0-.01-.01,0c0,0,0,0,0,0,0,0,0,0,0,.01l.09.19h-.21s-.01.01-.01.01c0,0,0,0,0,0,0,0,.01,0,.02,0l.2.07-.13.16s-.01,0,0,.01c0,0,.02,0,.02,0l.19-.09.02.2s0,0,0,.01c0,0,0,0,0,0,0,0,0-.01,0-.02l.07-.19.16.13s.01.01.01,0c0,0,0-.02,0-.02l-.09-.18.2-.02s.01,0,.01,0c0,0,0,0,0,0,0,0-.01,0-.02,0l-.19-.07.13-.15s.01,0,0-.02c0,0,0,0,0,0,0,0,0,0-.01,0l-.19.09-.02-.21s0-.01,0-.01c0,0,0,0,0,0,0,0,0,.01,0,.01l-.07.19-.16-.13Z"/><path class="cls-3" d="m18.01,7.41s0-.01-.01,0c0,0,0,0,0,0,0,0,0,0,0,.01l.09.19h-.21s-.01.01-.01.01c0,0,0,0,0,0,0,0,.01,0,.02,0l.2.07-.13.16s-.01,0,0,.01c0,0,.02,0,.02,0l.19-.09.02.2s0,0,0,.01c0,0,0,0,0,0,0,0,0-.01,0-.02l.07-.19.16.13s.01.01.01,0c0,0,0-.02,0-.02l-.09-.18.2-.02s.01,0,.01,0c0,0,0,0,0,0,0,0-.01,0-.02,0l-.19-.07.13-.15s.01,0,0-.02c0,0,0,0,0,0,0,0,0,0-.01,0l-.19.09-.02-.21s0-.01,0-.01c0,0,0,0,0,0,0,0,0,.01,0,.01l-.07.19-.16-.13Z"/><path class="cls-2" d="m17.03,10.21s0-.01-.01,0c0,0,0,0,0,0,0,0,0,0,0,.01l.09.19h-.21s-.01.01-.02.01c0,0,0,0,0,0,0,0,.01,0,.02,0l.2.07-.13.16s0,.01,0,.01c0,0,.02,0,.02,0l.19-.09.02.2s0,0,0,.01c0,0,0,0,0,0,0,0,0-.01,0-.02l.07-.19.16.13s.01.01.01,0c0,0,0-.02,0-.02l-.09-.18.2-.02s.01,0,.01,0c0,0,0,0,0,0,0,0-.01,0-.02,0l-.19-.07.13-.15s.01,0,0-.02c0,0,0,0,0,0,0,0,0,0-.01,0l-.19.09-.02-.21s0-.01,0-.01c0,0,0,0,0,0,0,0,0,.01,0,.01l-.07.19-.16-.13Z"/><path class="cls-3" d="m17.03,10.21s0-.01-.01,0c0,0,0,0,0,0,0,0,0,0,0,.01l.09.19h-.21s-.01.01-.02.01c0,0,0,0,0,0,0,0,.01,0,.02,0l.2.07-.13.16s0,.01,0,.01c0,0,.02,0,.02,0l.19-.09.02.2s0,0,0,.01c0,0,0,0,0,0,0,0,0-.01,0-.02l.07-.19.16.13s.01.01.01,0c0,0,0-.02,0-.02l-.09-.18.2-.02s.01,0,.01,0c0,0,0,0,0,0,0,0-.01,0-.02,0l-.19-.07.13-.15s.01,0,0-.02c0,0,0,0,0,0,0,0,0,0-.01,0l-.19.09-.02-.21s0-.01,0-.01c0,0,0,0,0,0,0,0,0,.01,0,.01l-.07.19-.16-.13Z"/><path class="cls-2" d="m18.78,10.95s0-.01-.01,0c0,0,0,0,0,0,0,0,0,0,0,.01l.09.19h-.21s-.01.01-.01.02c0,0,0,0,0,0,0,0,.01,0,.02,0l.2.07-.13.16s-.01.01,0,.01c0,0,.01,0,.02,0l.19-.09.02.2s0,0,0,.01c0,0,0,0,0,0,0,0,0-.01,0-.02l.07-.19.16.13s.01.01.01,0c0,0,0-.02,0-.02l-.09-.18.2-.02s.01,0,.01,0c0,0,0,0,0,0,0,0-.01,0-.02,0l-.19-.07.13-.15s.01,0,0-.02c0,0,0,0,0,0,0,0,0,0-.01,0l-.19.09-.02-.21s0-.01,0-.01c0,0,0,0,0,0,0,0,0,.01,0,.01l-.07.19-.16-.13Z"/><path class="cls-3" d="m18.78,10.95s0-.01-.01,0c0,0,0,0,0,0,0,0,0,0,0,.01l.09.19h-.21s-.01.01-.01.02c0,0,0,0,0,0,0,0,.01,0,.02,0l.2.07-.13.16s-.01.01,0,.01c0,0,.01,0,.02,0l.19-.09.02.2s0,0,0,.01c0,0,0,0,0,0,0,0,0-.01,0-.02l.07-.19.16.13s.01.01.01,0c0,0,0-.02,0-.02l-.09-.18.2-.02s.01,0,.01,0c0,0,0,0,0,0,0,0-.01,0-.02,0l-.19-.07.13-.15s.01,0,0-.02c0,0,0,0,0,0,0,0,0,0-.01,0l-.19.09-.02-.21s0-.01,0-.01c0,0,0,0,0,0,0,0,0,.01,0,.01l-.07.19-.16-.13Z"/><path class="cls-1" d="m18.64,5.57c-2.07,0-3.75,1.68-3.75,3.75s1.68,3.75,3.75,3.75,3.75-1.68,3.75-3.75-1.68-3.75-3.75-3.75Z"/><path class="cls-1" d="m14.7,9.34h-3.41c0,7.57,6.65,8.59,7.33,8.79v-4.86c-2.16-.02-3.91-1.77-3.92-3.93Z"/><path class="cls-1" d="m18.62,3.63V.43c-.89,0-1.61.72-1.61,1.6s.72,1.6,1.61,1.6h0v1.75s.02,0,.03,0c2.18,0,3.95,1.77,3.95,3.95,0,0,0,0,0,.01h3.34V2.03h-5.7c0,.88-.72,1.6-1.61,1.6Z"/><path class="cls-5" d="m19.11,1.42s.07.01.1.04c.02.02.04.05.04.09.02-.05.01-.09-.03-.13-.03-.02-.05-.03-.08-.03-.06,0-.1.04-.1.04-.01.01-.02.03-.03.05,0,0,0,0,.01-.01.03-.03.06-.04.1-.04Z"/><path class="cls-5" d="m18.62.69c-.1,0-.15.05-.17.08-.03.04-.03.1-.01.14.01.02.03.04.05.05,0,.02,0,.04,0,.06-.03-.03-.07-.06-.1-.06h-.02s-.01,0-.01,0c-.03.01-.06.03-.07.03h-.07s.03.06.03.06c0,.01.04.09.04.09l.03.05.05-.04s.11.11.13.16v.14c-.02-.08-.05-.17-.1-.22-.07-.07-.15-.1-.24-.1-.12,0-.23.07-.28.12-.13.14-.13.31,0,.44.06.04.1.07.13.08.08.03.16.01.21-.04-.05.06-.12.1-.23.13v.09s.05,0,.08,0c.2,0,.37-.17.4-.22.03-.05.04-.13.04-.2v.12s.03.07.03.07v.18s-.08.1-.08.17c0,.08.01.15.06.21v.04c-.06-.06-.18-.06-.23,0h-.12s-.08.04-.08.1c0,.05.05.1.09.1h.11c.06.06.17.07.24,0v.31c-.05-.07-.12-.15-.18-.18,0,0-.03,0-.06,0-.05,0-.13.02-.17.14-.01.04,0,.08.02.12.03.05.09.07.14.04.01,0,.03-.01.04-.02.05.03.13.1.14.23v.42c.06,0,.13.02.19.02V.69Zm-.39.77c-.05-.05-.15-.05-.2,0-.02.02-.04.05-.04.09-.02-.05-.01-.09.03-.13.03-.02.06-.03.09-.03.06,0,.1.04.1.04.01.01.02.03.03.05,0,0,0-.01-.01-.02Z"/><path class="cls-1" d="m18.64,5.57c-2.07,0-3.75,1.68-3.75,3.75s1.68,3.75,3.75,3.75,3.75-1.68,3.75-3.75-1.68-3.75-3.75-3.75Z"/><path class="cls-1" d="m18.62.69v-.27c-.89,0-1.61.72-1.61,1.6s.72,1.6,1.61,1.6V.69s0,0,0,0Z"/><path class="cls-1" d="m14.7,9.34h-3.41c0,7.57,6.65,8.59,7.33,8.79v-4.86c-2.16-.02-3.91-1.77-3.92-3.93Z"/><path class="cls-1" d="m18.82,3.61h0c-.06,0-.13.02-.2.02h0c-.07,0-.13-.01-.19-.02v.28h-.21v.28h-.11v-.28h-.29v.27h-.11v-.27h-.3v.86s.3,0,.3,0v-.13h.11v.13h.29v-.13h.11v.13h.23v.1s-.06.02-.08.04c-.02.02-.04.06-.04.09s.01.07.04.09c.03.02.05.04.1.04-.01.02-.02.05-.02.08,0,.07.09.15.18.15v.04s.02,0,.03,0c2.18,0,3.95,1.77,3.95,3.95,0,0,0,0,0,.01h3.34V2.03h-5.7c0,.81-.62,1.48-1.41,1.58Z"/><path class="cls-5" d="m19.11,1.42s.07.01.1.04c.02.02.04.05.04.09.02-.05.01-.09-.03-.13-.03-.02-.05-.03-.08-.03-.06,0-.1.04-.1.04-.01.01-.02.03-.03.05,0,0,0,0,.01-.01.03-.03.06-.04.1-.04Z"/><path class="cls-1" d="m18.64,5.57c-2.07,0-3.75,1.68-3.75,3.75s1.68,3.75,3.75,3.75,3.75-1.68,3.75-3.75-1.68-3.75-3.75-3.75Z"/><path class="cls-1" d="m14.7,9.34h-3.41c0,7.57,6.65,8.59,7.33,8.79v-4.86c-2.16-.02-3.91-1.77-3.92-3.93Z"/><path class="cls-1" d="m18.82,3.61v-.41c.01-.13.09-.2.14-.23.01.01.03.02.04.02.05.03.11,0,.14-.04.03-.04.03-.09.02-.12-.04-.13-.13-.15-.17-.15-.03,0-.05,0-.06,0-.07.03-.14.11-.19.18v-.31c.06.06.18.06.24,0h.11s.09-.05.09-.1c0-.07-.05-.1-.09-.1h-.12c-.06-.06-.17-.06-.23,0v-.04c.05-.06.07-.13.07-.21,0-.07-.04-.13-.08-.17v-.17s.03-.1.03-.1v-.06c0,.05,0,.11.03.15.03.05.21.22.4.22.03,0,.05,0,.08,0v-.09c-.11-.03-.17-.07-.22-.13.04.03.08.06.12.06.03,0,.06,0,.08-.02.03-.01.08-.04.14-.09.12-.12.11-.29-.02-.43-.05-.06-.15-.12-.28-.12-.09,0-.17.03-.24.1-.05.05-.08.13-.1.2v-.12c.02-.06.11-.16.13-.17l.05.04.03-.06s.04-.08.04-.09l.02-.06h-.06s-.04-.02-.07-.03h-.01s-.02,0-.02,0c-.03,0-.07.03-.1.06v-.06s.04-.03.05-.05c.02-.04.01-.1-.01-.14-.02-.03-.07-.08-.17-.08h0v-.27c-.89,0-1.61.72-1.61,1.6s.72,1.6,1.61,1.6h0c-.07,0-.13-.01-.19-.02v.28h-.21v.28h-.11v-.28h-.29v.27h-.11v-.27h-.3v.86s.3,0,.3,0v-.13h.11v.13h.29v-.13h.11v.13h.23v.1s-.06.02-.08.04c-.02.02-.04.06-.04.09s.01.07.04.09c.03.02.05.04.1.04-.01.02-.02.05-.02.08,0,.07.09.15.18.15v.04s.02,0,.03,0c2.18,0,3.95,1.77,3.95,3.95,0,0,0,0,0,.01h3.34V2.03h-5.7c0,.81-.62,1.48-1.41,1.58Z"/><path class="cls-5" d="m18.8,5.19s0-.06-.02-.08c.03,0,.07-.01.1-.04.03-.02.04-.06.04-.09,0-.04-.01-.07-.04-.09-.02-.02-.05-.04-.08-.04v-.1h.23v-.13s.11,0,.11,0v.13h.29v-.13h.11v.13h.3v-.86h-.3v.27h-.11v-.27h-.29v.28h-.11v-.28s-.21,0-.21,0v-.28c-.07,0-.13.02-.2.02h0v1.71c.08,0,.18-.07.18-.15Z"/><path class="cls-5" d="m20.61,1.61c-.19-.92-1.01-1.61-1.99-1.61s-1.79.69-1.99,1.61h-5.77v7.73c0,3.37,1.29,7.69,7.43,9.15.09.02.33.08.33.08l.11-.03s.11-.03.2-.05c6.14-1.46,7.42-5.78,7.42-9.15V1.61h-5.75Zm-1.99,16.52c-.68-.2-7.33-1.22-7.33-8.79h3.41c0,2.16,1.76,3.92,3.92,3.93v4.86Zm.03-5.06c-2.07,0-3.75-1.68-3.75-3.75s1.68-3.75,3.75-3.75,3.75,1.68,3.75,3.75-1.68,3.75-3.75,3.75Zm7.29-3.73h-3.34s0,0,0-.01c0-2.18-1.77-3.95-3.95-3.95,0,0-.02,0-.03,0v-.04c-.09,0-.18-.08-.18-.15,0-.03,0-.06.02-.08-.04,0-.07-.01-.1-.04-.02-.02-.04-.06-.04-.09s.01-.07.04-.09c.02-.02.05-.04.08-.04v-.1h-.23v-.13h-.11v.13h-.29v-.13h-.11v.13h-.3v-.86h.3v.27h.11v-.27h.29v.28h.11v-.28h.21v-.28c.06,0,.13.02.19.02h0c-.89,0-1.61-.72-1.61-1.6s.72-1.6,1.61-1.6v.27h0c.1,0,.15.05.17.08.03.04.03.1.01.14-.01.02-.03.04-.05.05v.06s.07-.06.1-.06h.02s.01,0,.01,0c.03.01.06.03.07.03h.06s-.02.06-.02.06c0,.01-.04.09-.04.09l-.03.06-.05-.04s-.11.1-.13.17v.12c.02-.08.05-.16.1-.2.07-.07.15-.1.24-.1.12,0,.23.07.28.12.13.14.13.31.02.43-.06.05-.1.07-.14.09-.03.01-.06.02-.08.02-.05,0-.09-.02-.12-.06.05.05.12.1.23.13v.09s-.05,0-.08,0c-.2,0-.37-.17-.4-.22-.03-.04-.02-.1-.03-.15v.06s-.03.1-.03.1v.17s.08.1.09.17c0,.08-.02.15-.07.21v.04c.06-.06.18-.06.23,0h.12s.09.04.09.1c0,.05-.05.1-.09.1h-.11c-.06.06-.17.07-.24,0v.31c.05-.07.12-.15.18-.18,0,0,.03,0,.06,0,.05,0,.13.02.17.15.01.03,0,.08-.02.12-.03.05-.09.07-.14.04-.01,0-.03-.01-.04-.02-.05.03-.13.11-.14.23v.41c.79-.1,1.41-.76,1.41-1.58h5.7v7.3Z"/><path class="cls-5" d="m18.82,3.61h0c-.07,0-.13.02-.2.02V.69s0,0,0,0v2.94h0s0,0,0,0c.07,0,.13-.01.2-.02Z"/></g></svg>