<?xml version="1.0" encoding="UTF-8"?><svg id="Capa_2" xmlns="http://www.w3.org/2000/svg" viewBox="0 0 57.69 8.49"><defs><style>.cls-1{fill:#fefefe;fill-rule:evenodd;}.cls-1,.cls-2{stroke-width:0px;}.cls-2{fill:#fff;}</style></defs><g id="Capa_1-2"><path class="cls-1" d="m33.63,3.34h0c.06-.96-.83-1.7-1.76-1.7-1.1,0-2.04.96-2.04,2.21s.94,2.15,2.2,2.15c.72,0,1.16-.23,1.65-.91v-.28c-.55.68-.88.85-1.43.85s-1.6-.45-1.6-2.32h2.97Zm-2.97-.17h0c.06-.79.44-1.3,1.1-1.3.55,0,1.16.4,1.1,1.3h-2.2Z"/><path class="cls-1" d="m37.87,1.64h-.17c-.06.11-.17.23-.28.23-.22,0-.55-.23-1.16-.23-1.16,0-2.09,1.02-2.09,2.26s.83,2.09,2.04,2.09c.72,0,1.38-.28,1.76-.91v-.28c-.39.57-.99.85-1.49.85-.83,0-1.49-.96-1.49-2.09,0-1.02.55-1.7,1.32-1.7.66,0,1.21.45,1.38,1.24h.17v-1.47Z"/><path class="cls-1" d="m42.61,1.64h-.17l-1.38.11v.23c.66,0,.77.06.77.62v2.26c-.33.45-.66.68-1.05.68-.55,0-.94-.4-.94-.96V1.64h-.17l-1.32.11v.23c.61,0,.72.11.72.51v2.15c0,.74.55,1.36,1.32,1.36.55,0,.99-.28,1.43-.79v.68h1.49v-.23c-.55,0-.72-.11-.72-.57V1.64Z"/><path class="cls-1" d="m45.3,2.72h0c.39-.34.61-.51.88-.51.22,0,.61.17.94.4l.33-.74c-.22-.23-.55-.34-.77-.34-.28,0-.61.23-1.38.9v-.9h-.17l-1.43.11v.23c.66,0,.83.06.83.68v2.32c0,.68-.06.79-.66.79v.23h2.09v-.23c-.5,0-.66-.11-.66-.57v-2.38Z"/><path class="cls-1" d="m49.38,1.53h-.22l-1.32.11v.23c.61,0,.77.06.77.62v2.55c0,.51-.16.62-.77.62v.23h2.2v-.23c-.55,0-.66-.23-.66-.62V1.53Zm-.39-1.53h0c-.28,0-.5.23-.5.51s.22.51.5.51.5-.23.5-.51-.22-.51-.5-.51Z"/><path class="cls-1" d="m54.93,2.6h0c-.11-.34-.05-.57.28-.62v-.28h-1.93v.28c.44,0,.66.11.83.62l1.43,3.34-.28.74c-.22.74-.55,1.02-1.04,1.02-.11,0-.22,0-.39-.11l-.22.74c.17.11.33.17.5.17.49,0,.99-.57,1.32-1.53l1.38-4.07c.22-.74.44-.96.88-.96v-.23h-1.44v.23c.45,0,.5.28.34.74l-.72,2.21-.94-2.26Z"/><path class="cls-1" d="m51.85.28h-.17c-.33.74-.83,1.19-1.38,1.47v.23h.77v2.77c0,.74.5,1.19,1.16,1.19.5,0,.88-.23,1.21-.68l-.11-.17c-.22.28-.44.4-.77.4-.44,0-.72-.28-.72-.85V1.98h1.43v-.28h-1.43V.28Z"/><path class="cls-1" d="m3.8,5.54h0v-1.87h-.77v1.47c-.17.11-.39.17-.66.17-.94,0-1.54-.74-1.54-1.64,0-.85.5-1.53,1.65-1.53.44,0,.83.11,1.16.28v-.74c-.33-.11-.72-.23-1.27-.23C.94,1.47,0,2.43,0,3.73s.83,2.21,2.15,2.21c.72,0,1.27-.17,1.65-.4Z"/><path class="cls-1" d="m7.76,5.88h0c-.66-1.13-1.1-1.87-1.27-1.98.39-.17.77-.57.77-1.13,0-.68-.39-1.24-1.54-1.24h-1.1v4.36h.77v-1.7h.33c.16.06.5.57,1.16,1.7h.88Zm-1.27-3.06h0c0,.4-.33.74-.72.74h-.39v-1.36h.39c.5,0,.72.28.72.62Z"/><path class="cls-1" d="m11.67,4.24h0V1.53h-.77v2.72c0,.34-.11.57-.28.74-.11.17-.39.28-.77.28-.28,0-.55-.06-.72-.28-.17-.17-.22-.45-.22-.74V1.53h-.83v2.77c0,.45.17.91.44,1.24.28.28.72.4,1.32.4.66,0,1.1-.17,1.38-.45.28-.34.44-.74.44-1.24Z"/><path class="cls-1" d="m15.14,2.94h0c0-.9-.61-1.41-1.49-1.41h-1.1v4.36h.77v-1.53h.22c1.21,0,1.6-.85,1.6-1.41Zm-.77,0h0c0,.51-.22.79-.83.79h-.22v-1.53h.22c.55,0,.83.34.83.74Z"/><path class="cls-1" d="m19.93,3.68h0c0-.57-.17-1.13-.55-1.53-.39-.45-.94-.68-1.6-.68s-1.21.23-1.6.62c-.39.45-.61,1.02-.61,1.64,0,.68.22,1.3.66,1.7.39.34.88.51,1.54.51.61,0,1.16-.23,1.54-.62.39-.4.61-.96.61-1.64Zm-.83.06h0c0,.96-.55,1.58-1.38,1.58-.77,0-1.32-.62-1.32-1.58,0-1.02.55-1.58,1.32-1.58.83,0,1.38.62,1.38,1.58Z"/><path class="cls-1" d="m28.9,2.89h0v-1.3h-.17c-.06.17-.17.23-.28.23-.28,0-.39-.23-.83-.23-.66,0-1.21.57-1.21,1.19,0,1.41,2.15,1.13,2.15,2.26,0,.45-.33.74-.72.74-.5,0-1.16-.34-1.32-1.19h-.17v1.41h.17c0-.17.11-.28.28-.28.22,0,.61.28,1.05.28.66,0,1.27-.57,1.27-1.24,0-1.58-2.15-1.3-2.15-2.38,0-.34.28-.57.72-.57s.94.4.99,1.08h.22Z"/><rect class="cls-2" x="23.27" y="0" width=".25" height="7.41"/></g></svg>