<?xml version="1.0" encoding="UTF-8"?><svg id="Capa_2" xmlns="http://www.w3.org/2000/svg" viewBox="0 0 1390.29 261.71"><defs><style>.cls-1{fill:#fff;}</style></defs><g id="Capa_1-2"><path class="cls-1" d="m1110.52,233.66c0,7.14-.1,14.28.06,21.41.06,2.58-.83,3.19-3.28,3.18-19.04-.09-38.09-.1-57.13,0-2.56.01-3.53-.49-3.53-3.32.08-65.64.08-131.28,0-196.92,0-2.81.91-3.34,3.49-3.33,20.6.1,41.2.11,61.81,0,2.85-.02,3.6.77,3.59,3.6-.11,23.6-.06,47.19-.06,70.79,0,1.63,0,3.25,0,4.96,1.53-.17,1.78-1.25,2.32-1.94,8.65-11.18,20.21-17.05,34.11-18.2,15.75-1.3,30.59,1.42,43.27,11.61,11.42,9.17,17.86,21.42,20.74,35.55,4.66,22.77,3.9,45.29-5.36,66.87-8.44,19.66-23.59,30.74-45.02,33.13-7.57.84-15.01.6-22.49-.73-12.61-2.25-21.93-9.02-28.29-20.03-1.26-2.17-2.39-4.42-3.58-6.63-.21,0-.42,0-.64,0Zm2.97-47.35c-.28,3.93.02,8.24.75,12.48,1.17,6.78,3.26,13.22,10.4,16.05,9.7,3.85,18.71-2.06,21.13-13.63,2.01-9.58,2.22-19.26.63-28.87-1.14-6.9-3.68-13.38-11.37-15.57-9.45-2.69-17.67,2.62-20.04,12.78-1.26,5.37-1.69,10.86-1.5,16.77Z"/><path class="cls-1" d="m486.14,155.3c-9.43,1.33-18.84,1.5-28.15-.84-10.13-2.54-18.24-8.16-24.63-16.34-.66-.85-1.33-1.69-2.01-2.52-.05-.06-.19-.03-.7-.09v4.15c0,22.27-.05,44.54.07,66.81.01,2.79-.68,3.55-3.51,3.53-20.47-.13-40.95-.11-61.42-.02-2.57.01-3.7-.32-3.7-3.39.1-63.94.09-127.88.02-191.81,0-2.5.65-3.23,3.18-3.22,19.16.1,38.31.1,57.47,0,2.61-.01,3.17.89,3.12,3.29-.14,7.04-.05,14.09-.05,21.5,1.4-.7,1.63-1.89,2.1-2.86,7.72-15.93,20.52-24,38.11-24.87,13.35-.65,26.28.56,38.04,7.73,14.14,8.61,21.98,21.69,25.95,37.26,5.56,21.77,5.7,43.52-1.55,65.03-.33.33-.67.66-1,.99-18.22,5.75-32.49,16.13-40.1,34.29-.41.46-.81.93-1.22,1.39Zm-57.14-71.39c0,1.55-.02,3.11,0,4.66.1,6.02.61,11.96,3.5,17.4,5.34,10.06,19.59,10.69,25.84,1.18,1.88-2.86,3.01-6.01,3.37-9.35,1.17-10.86,1.79-21.75-1.64-32.33-2.58-7.95-7.65-11.53-15.06-11.3-7.03.22-12.13,4.65-14.4,12.33-1.68,5.71-1.52,11.57-1.62,17.41Z"/><path class="cls-1" d="m64.71,34.75c10.98-21.67,29.81-26.9,51.67-26.22,9.98.31,19.51,2.46,27.85,8.17,12.09,8.28,15.77,20.77,16.64,34.53.14,2.15.15,4.31.15,6.46.01,30.66,0,61.32.04,91.98,0,2.17-.07,3.48-2.94,3.46-20.96-.12-41.92-.13-62.88,0-2.92.02-2.95-1.35-2.94-3.49.04-25.63.03-51.26.01-76.89,0-2.99-.01-6-.26-8.97-.56-6.67-4.84-11.03-10.83-11.24-6.92-.24-11.07,3.27-12.19,10.44-.29,1.88-.46,3.8-.47,5.7-.03,26.83-.07,53.66.05,80.48.02,3.14-.73,4-3.94,3.98-20.36-.16-40.72-.14-61.08-.01-2.81.02-3.59-.68-3.59-3.54C.1,104.69.1,59.77,0,14.86c0-2.78.82-3.33,3.43-3.31,19.4.11,38.81.11,58.21,0,2.6-.01,3.2.78,3.14,3.25-.17,6.65-.06,13.3-.06,19.96Z"/><path class="cls-1" d="m193.43,55.83c0-1.09,0-2.24,0-3.38,0-10.9.06-21.8-.06-32.7-.03-2.39.5-3.41,3.02-4.18,21.12-6.42,42.76-7.81,64.64-7.01,13.65.5,27.25,1.44,40.31,5.9,16.3,5.57,28.94,15.2,34.89,32.01,2.63,7.43,3.02,15.23,3.04,23.02.05,26.59-.02,53.18.07,79.77.01,2.81-.46,3.92-3.64,3.89-18.92-.16-37.85-.14-56.77,0-2.86.02-3.68-.78-3.56-3.6.22-5.25.06-10.53.06-16.03-.48.26-.85.34-.99.57-9.65,15.1-24.24,21.02-41.33,21.99-13.1.74-25.82-.99-37.36-7.79-14.82-8.73-19.53-22.24-18.52-38.73,1.62-26.29,21.65-40.75,46.02-44.83,16.3-2.73,32.62-2.78,49-.8,4.68.57,4.87.39,3.75-4.13-2.19-8.85-9.13-12.2-17.09-13.74-21.95-4.24-42.78-.14-62.83,9.05-.73.33-1.36,1-2.64.72Zm61.33,64.41c7.01.22,12.62-2.5,16.62-8.17,4-5.65,5.25-12.17,5.29-19,.01-1.96-.99-2.09-2.48-2.04-5.13.15-10.28.04-15.39.42-4.77.35-9.45,1.37-13.5,4.21-5.44,3.81-6.32,9.18-5.14,15.23.94,4.83,4.17,7.74,9.98,8.86,1.52.29,3.08.33,4.62.49Z"/><path class="cls-1" d="m729.53,237.86c-2.32,3.04-3.97,5.5-5.9,7.71-7.99,9.11-18.56,13.37-30.15,15.19-13.14,2.06-26.12.84-38.35-4.48-20.37-8.85-26.11-24.83-23.56-44.7,2.86-22.31,17.33-34.14,37.72-39.69,16.9-4.6,34.22-5.06,51.6-3.12,2.38.26,4.78.34,7.13.74,2.09.36,2.56-.52,2.33-2.32-.7-5.31-3.25-9.42-7.84-12.24-4.49-2.75-9.49-3.92-14.62-4.57-20.06-2.56-39.02,1.44-57.25,9.71-3.39,1.54-3.46,1.53-3.46-2.29-.01-10.9.09-21.8-.06-32.7-.04-2.55.89-3.51,3.2-4.19,23.01-6.8,46.5-8.36,70.32-6.76,11.23.75,22.39,1.74,33.21,5.18,12.3,3.91,22.84,10.26,30.48,20.98,5.77,8.1,8.4,17.27,8.48,26.96.25,29.35.08,58.7.16,88.05,0,2.47-.88,2.95-3.13,2.94-19.05-.08-38.09-.09-57.14.01-2.58.01-3.28-.82-3.2-3.29.16-5.38.05-10.78.05-17.11Zm-7.98-41.6c-6.47,0-12.91.26-18.99,2.81-7.51,3.14-10.59,9.62-8.45,17.5,1.59,5.85,6.16,8.76,14.18,9.04,11.74.42,21.07-8.99,22.06-22.24q.53-7.11-6.65-7.12c-.72,0-1.43,0-2.15,0Z"/><path class="cls-1" d="m1343.13,204.1c-14.49,0-28.98.06-43.46-.05-2.92-.02-4,.34-3.19,3.75,1.76,7.44,6.64,11.68,13.33,14.28,8.53,3.31,17.53,3.68,26.5,3.47,10.52-.25,20.99-1.28,31.18-4.18,3.57-1.02,7.09-2.18,10.42-3.83,1.56-.77,2.17-.38,2.17,1.35-.02,10.9-.05,21.79.03,32.69.02,2.07-1.37,2.28-2.71,2.65-10.14,2.86-20.46,4.88-30.94,5.87-11.08,1.04-22.19,1.8-33.32,1.47-17.34-.52-34.33-2.8-49.91-11.2-19.08-10.29-29.5-26.68-33.22-47.65-2.33-13.1-2.13-26.22.95-39.17,4.99-21,18.21-34.89,38.13-42.43,18.68-7.08,38.14-8.41,57.91-6.96,12.4.91,23.97,4.23,34.36,11.21,14.57,9.8,22.09,24.1,25.91,40.74,2.64,11.5,3.18,23.18,3.03,34.94-.03,2.65-.94,3.12-3.32,3.1-14.61-.1-29.22-.05-43.82-.04Zm-29.72-30.04c5.03,0,10.05.02,15.08-.02,1.08,0,2.73.46,2.54-1.52-.55-5.93-.64-11.93-3.42-17.45-4.97-9.86-17.23-11.9-24.97-4.01-5.81,5.92-6.92,13.38-6.77,21.24.03,1.79,1.21,1.76,2.46,1.76,5.03,0,10.05,0,15.08,0Z"/><path class="cls-1" d="m486.14,155.3c.41-.46.81-.93,1.22-1.39.48.78,1.23.64,1.91.46,18.78-4.93,31.63-16.39,38.19-34.75.33-.33.67-.66,1-.99,9.67-2.16,19.35-4.16,29.3-4.65,19.8-.99,39.42.04,58.73,4.96,1.81.46,2.46,1.31,2.44,3.21-.08,12.09-.1,24.19,0,36.28.03,2.83-.86,2.93-3.13,1.94-9.79-4.27-20.05-6.39-30.74-5.73-10.28.63-19.6,3.64-25.75,12.63-4.52,6.61-5.42,14.22-4.92,22,1.07,16.69,10.76,28.29,25.59,30.68,12.43,2,24.27-.14,35.6-5.44.76-.35,1.53-.69,2.25-1.12,1.52-.9,1.84-.18,1.84,1.23.02,12.69.04,25.38.14,38.07.02,2.24-1.6,2.37-3.04,2.82-9.05,2.83-18.33,4.52-27.75,5.31-15.17,1.26-30.34,1.34-45.42-1.3-19.47-3.41-36.58-11.09-48.72-27.47-7.3-9.85-10.97-21.13-12.51-33.18-1.9-14.79-.81-29.33,3.76-43.56Z"/><path class="cls-1" d="m880.41,146.84c4.64-8.52,9.51-16.4,16.56-22.8,10.26-9.3,22.26-11.99,35.65-9.65,1.67.29,2.46,1.07,2.43,2.88-.27,17.22.48,34.46-.48,51.68-.14,2.55-1.54,2.12-3.18,1.87-5.79-.87-11.55-1.69-17.45-.59-15.62,2.91-28.59,17.12-29.01,33.04-.45,16.87-.26,33.76-.12,50.63.03,3.43-.84,4.4-4.34,4.37-20.35-.17-40.7-.13-61.05-.03-2.59.01-3.51-.51-3.51-3.32.09-44.89.08-89.79.01-134.68,0-2.53.77-3.23,3.26-3.22,19.27.09,38.55.1,57.82,0,2.65-.01,3.52.66,3.47,3.4-.17,8.8-.06,17.61-.06,26.42Z"/><path class="cls-1" d="m1020.03,187.67c0,22.27-.06,44.54.07,66.81.02,2.96-.73,3.81-3.75,3.79-20.35-.13-40.71-.13-61.06,0-3.09.02-3.73-.96-3.72-3.85.08-44.54.09-89.07,0-133.61,0-2.98.79-3.81,3.79-3.79,20.35.13,40.71.14,61.06,0,3.11-.02,3.7.98,3.68,3.85-.12,22.27-.06,44.54-.06,66.81Z"/><path class="cls-1" d="m601.74,80.58c-5.8,10.07-14.9,11.75-24.95,10.37-11.59-1.58-18.11-9.18-20.88-19.98-2.67-10.39-2.43-20.8,1.97-30.86,6.24-14.27,24.01-17.29,35.06-11.12,2.36,1.32,3.85,3.56,6.03,5.07,1.09-.69.57-1.75.57-2.59.05-9.22.11-18.45-.01-27.67-.04-2.75.76-3.84,3.67-3.79,7.9.16,15.81.14,23.72.01,2.72-.05,3.5,1,3.49,3.59-.06,27.67-.06,55.34,0,83.01,0,2.43-.59,3.37-3.19,3.32-7.42-.16-14.85-.15-22.28,0-2.52.05-3.46-.75-3.24-3.27.18-2.02.04-4.06.04-6.09Zm-15.84-23.15c-.12,2.51.02,4.98.69,7.43,1.09,3.99,3.82,6.46,7.12,6.28,3.05-.17,5.86-3.35,6.55-7.11.76-4.15.42-8.27-.08-12.38-.46-3.79-3.42-6.69-6.68-6.94-3.16-.24-5.91,2.38-7.07,6.34-.62,2.13-.46,4.24-.53,6.37Z"/><path class="cls-1" d="m688.08,66.14c-5.75,0-11.5-.03-17.25.01-3.15.02-3.78,1.2-2.09,3.88,1.72,2.72,4.51,4.09,7.44,4.6,8.6,1.49,17.13.79,25.38-2.05,2.29-.79,3.03-.52,2.95,1.94-.11,3.47-.11,6.95.01,10.42.07,2.02-.63,3.07-2.65,3.51-13.77,3.03-27.56,4.42-41.46.8-12.47-3.24-20.35-12.45-22.2-25.19-.86-5.95-.53-11.68,1.01-17.37,2.14-7.89,7.15-13.56,14.67-16.56,11.37-4.54,23.12-5.81,35.05-2.29,11.24,3.31,16.75,11.62,19.09,22.54.89,4.13.71,8.31.85,12.49.09,2.44-.62,3.39-3.21,3.32-5.86-.17-11.74-.05-17.61-.05Zm-12.95-13.59h0c1.91-.01,3.82-.03,5.73,0,1.26.02,2.13-.38,2.02-1.82-.27-3.38-.83-6.66-3.78-8.9-2.67-2.02-5.37-1.5-7.97.12-1.96,1.22-4.76,8.06-3.72,9.59,1.48,2.17,3.95.58,5.94.99.57.12,1.19.02,1.79.02Z"/><path class="cls-1" d="m985.91,102.22c-10.41,0-20.82-.06-31.23.05-2.31.02-3.11-.61-3.09-3.01.1-13.88.08-27.76,0-41.64-.01-2.11.53-2.93,2.8-2.92,20.94.07,41.88.07,62.82,0,2.17,0,2.88.59,2.87,2.82-.09,14-.09,28,0,42,.02,2.32-.88,2.76-2.94,2.74-10.41-.08-20.82-.04-31.23-.04Z"/><path class="cls-1" d="m716.74,44.97c0-13.76.07-27.53-.06-41.29-.03-2.77.67-3.75,3.59-3.68,7.77.2,15.56.14,23.33.02,2.36-.04,3.38.48,3.38,3.14-.08,27.88-.07,55.77,0,83.65,0,2.3-.63,3.16-3.03,3.12-8.02-.12-16.04-.14-24.05,0-2.58.05-3.22-.88-3.2-3.32.1-13.88.05-27.76.05-41.65Z"/></g></svg>