<?xml version="1.0" encoding="utf-8"?>
<!-- Generator: Adobe Illustrator 27.2.0, SVG Export Plug-In . SVG Version: 6.00 Build 0)  -->
<svg version="1.1" id="Capa_1" xmlns="http://www.w3.org/2000/svg" xmlns:xlink="http://www.w3.org/1999/xlink" x="0px" y="0px"
	 viewBox="0 0 221.57 101.37" style="enable-background:new 0 0 221.57 101.37;" xml:space="preserve">
<style type="text/css">
	.st0{clip-path:url(#SVGID_00000010997854861436979960000018426757646386405028_);}
	.st1{fill:#D75375;}
	.st2{opacity:0.18;fill:#FFFFFF;}
	.st3{fill:#F9DD76;stroke:#F9DD76;stroke-width:0.2234;stroke-miterlimit:10;}
	.st4{fill:#F9DD76;stroke:#F9DD76;stroke-width:0.2354;stroke-miterlimit:10;}
	.st5{fill:#F9DD76;stroke:#F9DD76;stroke-width:0.1586;stroke-miterlimit:10;}
	.st6{fill:#F9DD76;stroke:#F9DD76;stroke-width:0.1936;stroke-miterlimit:10;}
	.st7{fill:#F9DD76;stroke:#F9DD76;stroke-width:0.1881;stroke-miterlimit:10;}
	.st8{fill:#FFFFFF;}
	.st9{fill:#1A2C45;}
	.st10{opacity:0.97;}
	.st11{opacity:0.78;fill:#5999D1;stroke:#5999D1;stroke-width:0.2512;stroke-miterlimit:10;}
	.st12{opacity:0.38;fill:#FFFFFF;stroke:#FFFFFF;stroke-width:0.6102;stroke-miterlimit:10;}
	.st13{opacity:0.9;fill:#6BB7B1;stroke:#6BB7B1;stroke-width:1.1144;stroke-miterlimit:10;}
	.st14{opacity:0.38;fill:#FFFFFF;stroke:#FFFFFF;stroke-width:1.3928;stroke-miterlimit:10;}
	.st15{opacity:0.9;fill:#EFC754;stroke:#EFC754;stroke-width:1.1177;stroke-miterlimit:10;}
	.st16{opacity:0.38;fill:#FFFFFF;}
	.st17{fill:#DB684A;}
	.st18{fill:#FAE9D7;stroke:#1A2C45;stroke-width:1.0878;stroke-miterlimit:10;}
	.st19{fill:#DB684A;stroke:#DB684A;stroke-width:1.3832;stroke-miterlimit:10;}
	.st20{fill:none;stroke:#1A2C45;stroke-width:1.0878;stroke-miterlimit:10;}
	.st21{opacity:0.29;fill:#DB684A;stroke:#DB684A;stroke-width:1.0878;stroke-miterlimit:10;}
	.st22{opacity:0.53;fill:#DB684A;}
	.st23{fill:none;stroke:#272C3B;stroke-width:1.0878;stroke-miterlimit:10;}
	
		.st24{clip-path:url(#SVGID_00000091010956141337821960000014981137156563587224_);fill:#1A2C45;stroke:#1A2C45;stroke-width:1.0878;stroke-miterlimit:10;}
	
		.st25{clip-path:url(#SVGID_00000091010956141337821960000014981137156563587224_);fill:#E28994;stroke:#1A2C45;stroke-width:1.0878;stroke-miterlimit:10;}
	
		.st26{clip-path:url(#SVGID_00000091010956141337821960000014981137156563587224_);fill:#FFFFFF;stroke:#1A2C45;stroke-width:1.0878;stroke-miterlimit:10;}
	.st27{fill:none;stroke:#4C77B7;stroke-width:1.3449;stroke-miterlimit:10;}
	.st28{clip-path:url(#SVGID_00000164509667610764104300000000480414077633727383_);fill:#505098;}
	
		.st29{clip-path:url(#SVGID_00000164509667610764104300000000480414077633727383_);fill:#FFFFFF;stroke:#FFFFFF;stroke-width:0.399;stroke-miterlimit:10;}
	
		.st30{clip-path:url(#XMLID_00000048480328080538225990000001518423744848530864_);fill:none;stroke:#1A2C45;stroke-width:0.8391;stroke-miterlimit:10;}
	.st31{fill:#99CBC9;stroke:#99CBC9;stroke-width:0.8856;stroke-miterlimit:10;}
	.st32{fill:#FAE9D7;stroke:#1A2C45;stroke-width:1.0197;stroke-miterlimit:10;}
	.st33{fill:none;stroke:#1A2C45;stroke-width:1.0197;stroke-miterlimit:10;}
	.st34{fill:#F9DD76;stroke:#F9DD76;stroke-width:1.4676;stroke-miterlimit:10;}
	.st35{fill:none;stroke:#F9DD76;stroke-width:1.4676;stroke-miterlimit:10;}
	.st36{fill:#EDB054;}
	.st37{fill:#FAE278;}
	.st38{fill:#F8D367;}
	.st39{fill:#A3CEC4;}
	.st40{fill:#C3DFE0;}
	.st41{fill:#EEC44F;}
	.st42{fill:#FFFFFF;stroke:#FFFFFF;stroke-width:0.5;stroke-miterlimit:10;}
	.st43{fill:#F9DD76;stroke:#F9DD76;stroke-width:0.1619;stroke-miterlimit:10;}
	.st44{clip-path:url(#SVGID_00000070810283259191909310000004328398077561712804_);}
	.st45{fill:#F2CB4A;}
	.st46{opacity:0.39;}
	.st47{opacity:0.22;}
	.st48{opacity:0.82;fill:#FFFFFF;}
	.st49{opacity:0.77;fill:#FFFFFF;}
	.st50{fill:#A8D2D0;stroke:#A8D2D0;stroke-width:0.1259;stroke-miterlimit:10;}
	.st51{fill:#1A2C45;stroke:#1A2C45;stroke-width:0.1259;stroke-miterlimit:10;}
	.st52{fill:#1A2C45;stroke:#1A2C45;stroke-width:0.1083;stroke-miterlimit:10;}
	.st53{fill:#DA6440;}
	.st54{fill:#FAE9D7;}
	.st55{fill:#4C77B7;}
	
		.st56{clip-path:url(#SVGID_00000033346707651271737920000006962606749933609865_);fill:#1A2C45;stroke:#1A2C45;stroke-width:0.7367;stroke-miterlimit:10;}
	.st57{fill:#1A2C45;stroke:#1A2C45;stroke-width:0.7367;stroke-miterlimit:10;}
	.st58{fill:#FAE9D7;stroke:#1A2C45;stroke-width:0.7556;stroke-miterlimit:10;}
	.st59{fill:#DA6440;stroke:#DA6440;stroke-width:0.7556;stroke-miterlimit:10;}
	.st60{fill:#FFFFFF;stroke:#FFFFFF;stroke-width:0.7556;stroke-miterlimit:10;}
	.st61{fill:none;stroke:#FFFFFF;stroke-width:0.7556;stroke-miterlimit:10;}
	.st62{opacity:0.29;fill:#DB684A;stroke:#DB684A;stroke-width:1.1011;stroke-miterlimit:10;}
	.st63{fill:#272C3B;}
	.st64{fill:none;stroke:#272C3B;stroke-width:1.1011;stroke-miterlimit:10;}
	.st65{fill:#FFFFFF;stroke:#272C3B;stroke-width:1.1011;stroke-miterlimit:10;}
	
		.st66{clip-path:url(#SVGID_00000076578540523425546080000002043026126876351123_);fill:none;stroke:#272C3B;stroke-width:1.1011;stroke-miterlimit:10;}
	.st67{fill:#4C77B7;stroke:#4C77B7;stroke-width:1.1011;stroke-miterlimit:10;}
	.st68{fill:#1F4D92;}
	.st69{fill:#DD7249;}
	.st70{clip-path:url(#SVGID_00000163784995482274433810000015676595677302607292_);}
	.st71{opacity:0.32;}
	.st72{fill:#FFFFFF;stroke:#FFFFFF;stroke-width:0.219;stroke-miterlimit:10;}
	.st73{fill:#FFFFFF;stroke:#FFFFFF;stroke-width:0.1726;stroke-miterlimit:10;}
	.st74{fill:#FFFFFF;stroke:#FFFFFF;stroke-width:0.136;stroke-miterlimit:10;}
	.st75{fill:#FAE9D7;stroke:#1A2C45;stroke-width:1.0588;stroke-miterlimit:10;}
	.st76{fill:#FFFFFF;stroke:#FFFFFF;stroke-width:1.0588;stroke-miterlimit:10;}
	.st77{fill:none;stroke:#1A2C45;stroke-width:1.0588;stroke-miterlimit:10;}
	.st78{fill:#DA6440;stroke:#DA6440;stroke-width:1.0588;stroke-miterlimit:10;}
	.st79{fill:#99CBC9;stroke:#1A2C45;stroke-width:1.0588;stroke-miterlimit:10;}
	.st80{fill:#4C77B7;stroke:#1A2C45;stroke-width:1.0588;stroke-miterlimit:10;}
	.st81{fill:#F2CB4A;stroke:#1A2C45;stroke-width:1.0588;stroke-miterlimit:10;}
	.st82{fill:#E9A565;stroke:#E9A565;stroke-width:1.0451;stroke-miterlimit:10;}
	.st83{fill:none;stroke:#FFFFFF;stroke-width:1.0451;stroke-miterlimit:10;}
	.st84{fill:#E69853;stroke:#E69853;stroke-width:1.0451;stroke-miterlimit:10;}
	.st85{fill:#DA6440;stroke:#DA6440;stroke-width:1.0451;stroke-miterlimit:10;}
	.st86{opacity:0.51;fill:#FFFFFF;}
	.st87{fill:#FAE9D7;stroke:#1A2C45;stroke-width:1.0451;stroke-miterlimit:10;}
	.st88{opacity:0.29;fill:#DB684A;stroke:#DB684A;stroke-width:1.0451;stroke-miterlimit:10;}
	.st89{fill:#1A2C45;stroke:#1A2C45;stroke-width:1.0451;stroke-miterlimit:10;}
	.st90{fill:none;stroke:#1A2C45;stroke-width:1.0451;stroke-miterlimit:10;}
	.st91{fill:#E9ADB8;stroke:#1A2C45;stroke-width:1.0451;stroke-miterlimit:10;}
	.st92{fill:#69569B;stroke:#69569B;stroke-width:0.9893;stroke-miterlimit:10;}
	.st93{fill:none;}
	.st94{clip-path:url(#SVGID_00000069386946467539401110000008782900288508808320_);}
	.st95{fill:#4DA071;}
	.st96{fill:#FFFFFF;fill-opacity:0.35;}
	.st97{opacity:0.09;fill:#FFFFFF;}
	.st98{fill:#FBF8EE;}
	.st99{fill:#D43781;}
	.st100{fill:#8A3A86;}
	.st101{fill:#5F7FAB;}
	.st102{fill:#63B4A5;}
	.st103{fill:#F5F0CE;}
	.st104{fill:#F0B951;}
	.st105{fill:#D33450;}
	.st106{fill:#C22E49;}
	.st107{fill:#9E293D;}
	.st108{fill:#424B96;}
	.st109{fill:#B4D8D5;}
	.st110{fill:#F9DD76;}
	.st111{opacity:0.29;fill:#DB684A;stroke:#DB684A;stroke-width:1.5077;stroke-miterlimit:10;}
	.st112{fill:#1A2C45;stroke:#1A2C45;stroke-width:1.5077;stroke-miterlimit:10;}
	.st113{fill:none;stroke:#1A2C45;stroke-miterlimit:10;}
	.st114{fill:none;stroke:#1A2C45;stroke-width:0.75;stroke-miterlimit:10;}
	.st115{clip-path:url(#SVGID_00000013914480942321247740000006755331877729685945_);}
	
		.st116{clip-path:url(#SVGID_00000013914480942321247740000006755331877729685945_);fill:#FFFFFF;stroke:#1A2C45;stroke-width:1.5077;stroke-miterlimit:10;}
	
		.st117{clip-path:url(#SVGID_00000013914480942321247740000006755331877729685945_);fill:#E28994;stroke:#1A2C45;stroke-width:1.5077;stroke-miterlimit:10;}
	.st118{fill:#1A2C45;stroke:#1A2C45;stroke-width:1.5525;stroke-linecap:round;stroke-miterlimit:10;}
	.st119{clip-path:url(#SVGID_00000176004898872711415730000004002603304275938947_);}
	.st120{fill:#73C0E6;}
	.st121{fill:#D75A2C;}
	.st122{fill:#7E9BCD;}
	.st123{fill:#BEDFF2;}
	.st124{fill:#DB6941;}
	.st125{fill:#5CB5C4;}
	.st126{fill:#54ABB8;}
	.st127{fill:#142133;}
	.st128{opacity:0.3;fill:#C22E49;}
	.st129{fill:#FAE9D7;stroke:#1A2C45;stroke-miterlimit:10;}
	.st130{fill:#DA6440;stroke:#DA6440;stroke-width:1.5;stroke-miterlimit:10;}
	.st131{opacity:0.29;fill:#DB684A;stroke:#DB684A;stroke-width:1.5;stroke-miterlimit:10;}
	.st132{fill:#1A2C45;stroke:#1A2C45;stroke-miterlimit:10;}
	.st133{fill:#E9ADB8;stroke:#1A2C45;stroke-miterlimit:10;}
	.st134{fill:#FAE9D7;stroke:#1A2C45;stroke-width:0.75;stroke-miterlimit:10;}
	.st135{fill:#FEFCFD;stroke:#1A2C45;stroke-miterlimit:10;}
	
		.st136{clip-path:url(#SVGID_00000095340615287399529700000006144014708378665641_);fill:#4C77B7;stroke:#1A2C45;stroke-miterlimit:10;}
	
		.st137{clip-path:url(#SVGID_00000095340615287399529700000006144014708378665641_);fill:#FFFFFF;stroke:#FFFFFF;stroke-width:0.75;stroke-miterlimit:10;}
	.st138{fill:#FFFFFF;stroke:#1A2C45;stroke-miterlimit:10;}
	.st139{fill:none;stroke:#1A2C45;stroke-width:1.5;stroke-miterlimit:10;}
</style>
<g>
	<path d="M55.2,47.28c10.33,0,16.38-5.81,16.38-15.9V12.89H60.43v18.16c0,5.14-1.97,7.06-5.14,7.06c-3.17,0-5.14-1.92-5.14-7.06
		V12.89H38.82v18.49C38.82,41.47,44.87,47.28,55.2,47.28z"/>
	<polygon points="104.72,37.97 87.91,37.97 87.91,33.55 102.13,33.55 102.13,25.38 87.91,25.38 87.91,21.44 104.1,21.44 
		104.1,12.89 76.76,12.89 76.76,46.52 104.72,46.52 	"/>
	<path d="M141.32,46.52l-7.06-10.38c4.03-2.07,6.34-5.72,6.34-10.57c0-7.78-5.96-12.68-15.32-12.68h-16.19v33.5l-5.36,6.49h7.21
		l9.49-6.37v-8.45h3.07l5.72,8.45H141.32z M124.56,29.51h-4.13v-7.88h4.13c3.12,0,4.61,1.49,4.61,3.94S127.68,29.51,124.56,29.51z"
		/>
	<path d="M162.5,47.28c10.95,0,18.97-7.4,18.97-17.58s-8.02-17.58-18.97-17.58c-10.95,0-18.97,7.4-18.97,17.58
		S151.55,47.28,162.5,47.28z M162.5,21.3c4.18,0,7.54,3.17,7.54,8.41c0,5.24-3.36,8.41-7.54,8.41c-4.18,0-7.54-3.17-7.54-8.41
		C154.96,24.47,158.33,21.3,162.5,21.3z"/>
	<path d="M198.24,38.64c-3.7,0-7.93-1.2-11.1-3.07l-3.65,8.26c3.36,2.07,9.03,3.46,14.65,3.46c10.42,0,15.66-5.19,15.66-11.34
		c0-12.39-18.59-9.03-18.59-13.07c0-1.15,1.06-2.11,4.37-2.11c2.93,0,6.05,0.82,9.37,2.5l3.41-8.21c-3.51-1.97-8.17-2.93-12.68-2.93
		c-10.42,0-15.66,5.09-15.66,11.34c0,12.54,18.59,9.13,18.59,13.35C202.61,37.97,201.46,38.64,198.24,38.64z"/>
	<polygon points="74.62,75.27 66.6,55.62 54.4,55.62 68.62,89.25 79.76,89.25 93.98,55.62 82.84,55.62 	"/>
	<polygon points="106.23,76.27 120.45,76.27 120.45,68.11 106.23,68.11 106.23,64.17 122.42,64.17 122.42,55.62 95.09,55.62 
		95.09,89.25 123.04,89.25 123.04,80.7 106.23,80.7 	"/>
	<polygon points="138.75,55.62 127.41,55.62 127.41,89.25 153.93,89.25 153.93,80.45 138.75,80.45 	"/>
	<polygon points="168.19,76.27 182.41,76.27 182.41,68.11 168.19,68.11 168.19,64.17 184.38,64.17 184.38,55.62 157.05,55.62 
		157.05,89.25 185.01,89.25 185.01,80.7 168.19,80.7 	"/>
	<polygon points="202.92,80.45 218.29,62.59 218.29,55.62 188.66,55.62 188.66,64.41 203.55,64.41 188.18,82.28 188.18,89.25 
		219.06,89.25 219.06,80.45 	"/>
	<path d="M28.38,66.03c-2.33,0-4.14,1.44-4.14,3.71c0,2.16,1.68,3.55,4.01,3.55c1.46,0,2.7-0.52,3.39-1.54v0.42
		c0,2.93-1.51,4.43-3.89,4.43c-0.86,0-1.64-0.15-2.26-0.55l-0.64,1.31c0.75,0.47,1.81,0.69,2.92,0.69c3.28,0,5.55-2.15,5.55-6.15
		C33.31,68.14,31.54,66.03,28.38,66.03z M28.54,71.93c-1.64,0-2.67-0.89-2.67-2.26c0-1.39,1.06-2.28,2.58-2.28
		c1.83,0,2.8,1.06,2.8,2.26C31.25,70.94,30.15,71.93,28.54,71.93z"/>
	<path d="M42.1,71.75c1.07-0.5,1.66-1.38,1.66-2.53c0-1.96-1.71-3.19-4.26-3.19c-2.53,0-4.22,1.22-4.22,3.19
		c0,1.16,0.57,2.03,1.64,2.53c-1.32,0.5-2.06,1.49-2.06,2.83c0,2.13,1.79,3.45,4.64,3.45c2.87,0,4.68-1.32,4.68-3.45
		C44.18,73.24,43.44,72.27,42.1,71.75z M39.51,67.39c1.58,0,2.62,0.72,2.62,1.89c0,1.16-0.99,1.88-2.62,1.88
		c-1.61,0-2.56-0.72-2.56-1.88C36.94,68.11,37.93,67.39,39.51,67.39z M39.51,76.67c-1.86,0-2.97-0.82-2.97-2.15
		c0-1.29,1.11-2.1,2.97-2.1c1.86,0,3,0.8,3,2.1C42.51,75.85,41.37,76.67,39.51,76.67z"/>
	<path d="M50.79,70.77c-1.46,0-2.7,0.54-3.37,1.54c-0.02-0.15-0.02-0.29-0.02-0.42c0-2.93,1.53-4.43,3.91-4.43
		c0.84,0,1.64,0.15,2.25,0.55l0.64-1.31c-0.75-0.47-1.81-0.69-2.92-0.69c-3.29,0-5.55,2.15-5.55,6.15c0,3.74,1.78,5.85,4.93,5.85
		c2.33,0,4.16-1.44,4.16-3.71C54.82,72.16,53.12,70.77,50.79,70.77z M50.59,76.67c-1.81,0-2.78-1.06-2.78-2.26
		c0-1.29,1.11-2.28,2.7-2.28c1.64,0,2.68,0.89,2.68,2.26C53.19,75.79,52.12,76.67,50.59,76.67z"/>
	<path d="M17.7,66.16v1.46h2.65v8.62H8.38v-33.4c3.29,2.8,7.74,4.44,12.85,4.44c6.58,0,11.77-2.4,15.08-6.73l-7.16-6.39
		c-1.97,2.5-4.32,3.94-7.35,3.94c-4.71,0-7.88-3.27-7.88-8.41s3.17-8.41,7.88-8.41c3.03,0,5.38,1.44,7.35,3.94l7.16-6.39
		c-3.31-4.32-8.5-6.72-15.08-6.72C10.43,12.12,2.5,19.38,2.5,29.7c0,4.57,1.56,8.53,4.22,11.53V77.9h13.63h1.66h0l0-11.73H17.7z"/>
</g>
</svg>
