<?xml version="1.0" encoding="UTF-8"?><svg id="Layer_1" xmlns="http://www.w3.org/2000/svg" viewBox="0 0 1000.77 299.91"><g id="_7tsAHE.tif"><path d="m987.57,163.24c-.3,2.41-.58,4.82-.91,7.23-2.81,20.23-17.48,35.03-37.67,38.14-10.22,1.58-20.31,1.24-30.08-2.31-15.79-5.74-25.05-17.22-28.47-33.46-2.14-10.16-1.82-20.31,1.49-30.22,4.65-13.92,13.99-23.38,27.9-28.08,12.61-4.26,25.37-4.21,37.89.25,15.4,5.48,24.58,16.67,28.28,32.42.7,3,.88,6.12,1.31,9.19.07.48.18.96.27,1.44v5.41Zm-49.2-27.16c-9.5-.02-16.24,4.83-19.17,13.83-1.74,5.34-1.87,10.82-1.15,16.32,1.47,11.25,8.05,18.67,20.05,18.75,10.4.07,17.29-5.1,19.8-15.2,1.33-5.36,1.39-10.78.5-16.22-1.81-11.06-9.13-17.44-20.03-17.47Z"/><path d="m537.65,70.09c.86.21,1.71.4,2.57.62,7.24,1.82,11.8,8.46,10.92,15.91-.82,6.93-7.29,12.58-14.43,12.6-7.68.02-14.14-5.81-14.66-13.24-.55-7.81,4.96-14.58,12.69-15.6.28-.04.54-.19.8-.29.7,0,1.4,0,2.11,0Z"/><path d="m848.88,207.57v-1.86c0-18.13-.1-36.26.04-54.38.08-9.46-5.03-14.26-13.43-15.38-6.17-.82-12.18.1-17.99,2.3-.18.07-.34.18-.64.34,2.56,6.53,2.23,13.36,2.22,20.16,0,15.62,0,31.25,0,46.87v1.97h-28.09v-1.89c0-18.38.01-36.76,0-55.13,0-4.44-1.24-8.41-4.86-11.31-2.46-1.97-5.37-2.9-8.43-3.29-5.48-.7-10.88-.14-16.37,1.23v70.37h-28.41c0-.68,0-1.31,0-1.94.03-26.74.07-53.48.07-80.22,0-1.09.36-1.7,1.26-2.27,7.94-5.03,16.7-7.91,25.85-9.72,6.61-1.31,13.29-1.89,20.03-1.53,9.47.52,18.02,3.55,25.43,9.55.23.19.47.36.75.57,5.61-3.5,11.61-6.1,17.96-7.86,10.81-3,21.65-3.49,32.39.19,8.35,2.86,14.95,7.84,18.46,16.24,1.35,3.23,1.94,6.62,1.94,10.1.02,21.83.01,43.67,0,65.5,0,.44-.05.88-.07,1.41h-28.11Z"/><path d="m280.55,138.83c3.32,1.54,6.74,2.85,9.9,4.65,6.85,3.89,11.09,9.84,12.77,17.53,1.82,8.33,1.65,16.49-2.42,24.24-3.08,5.87-7.61,10.39-13.16,13.91-7.95,5.04-16.71,7.94-26.06,8.15-16.84.37-33.69.25-50.53.32-.09,0-.19-.05-.4-.1v-121.35c3.72-.53,7.42-1.09,11.14-1.57,10.54-1.36,21.11-2.43,31.76-2.13,10.87.31,21.31,2.42,30.49,8.65,8.49,5.75,13.14,13.7,13.1,24.11-.05,10.11-4.64,17.46-13.6,22.13-1.01.53-2.05,1.01-2.98,1.46Zm-41.06,16.45v28.41c4.96,0,9.81.06,14.66-.03,2.24-.04,4.51-.21,6.72-.6,9.65-1.7,14.26-8.58,11.96-17.8-1.38-5.55-5.49-8.35-10.71-8.88-7.45-.76-14.97-.77-22.63-1.1Zm-.03-23.31c5.14,0,10.1.15,15.05-.07,2.31-.1,4.66-.69,6.86-1.44,3.35-1.15,5.65-3.51,6.69-6.97,2.3-7.68-1.56-14.43-9.42-16.46-4.79-1.23-9.64-.9-14.48-.47-1.57.14-3.14.37-4.71.57v24.85Z"/><path d="m371.9,149.07c-.45-2.26-.71-4.61-1.4-6.82-1.54-4.89-5.39-6.76-10.17-7.31-4.89-.56-9.7.19-14.52.77-3.58.43-7.14.97-10.73,1.38-3.27.38-6.05-.82-7.85-3.47-1.61-2.37-2.87-5.02-4.04-7.65-.92-2.09-1.48-4.34-2.27-6.73,2.29-.78,4.53-1.57,6.78-2.32,9.82-3.23,19.86-5.19,30.23-5,7.54.14,14.99.93,22.09,3.75,10.44,4.14,16.51,11.86,18.49,22.78.6,3.28.87,6.66.88,9.99.09,15.92.03,31.85.06,47.77,0,1.17-.31,1.9-1.31,2.58-6.62,4.5-14.04,6.96-21.79,8.57-8.87,1.84-17.87,2.43-26.9,2.3-7.42-.1-14.67-1.23-21.39-4.64-9.4-4.77-13.93-12.38-13.5-22.95.51-12.36,6.83-20.66,17.84-25.73,6.85-3.15,14.11-4.78,21.54-5.66,5.81-.68,11.66-1.06,17.93-1.61Zm-.13,18.41c-6.36-.15-12.46-.19-18.46,1.21-3.23.76-6.29,1.91-8.83,4.21-3.78,3.41-3.99,12.39,3.37,14.34,1.49.39,3.03.66,4.57.79,6.05.53,11.86-.29,17.31-3.14,1.46-.76,2.33-1.69,2.08-3.51-.19-1.37-.04-2.8-.04-4.2v-9.71Z"/><path d="m503.02,207.61h-28.25v-1.75c0-18.18,0-36.36,0-54.54,0-9.09-4.8-14.41-13.97-15.42-5.38-.59-10.69-.07-16.08,1.28v70.37h-28.32c-.03-.53-.08-1.01-.08-1.5.03-26.94.07-53.88.06-80.82,0-1.1.47-1.6,1.29-2.09,7.59-4.59,15.89-7.28,24.5-9.14,8.27-1.78,16.64-2.64,25.09-2.1,10.43.67,20.17,3.42,28.01,10.78,5.05,4.74,7.73,10.65,7.74,17.63.03,21.88,0,43.77,0,65.65v1.64Z"/><path d="m153.35,123c3.33-.04,6.06,1.7,7.09,4.64,2.29,6.5,4.54,13.02,6.5,19.63,1.1,3.71-1.01,6.46-4.45,7.01-31.09,4.94-61.65,12.09-91.51,22.12-15.28,5.13-30.29,10.98-44.98,17.61-4.43,2-7.61.42-8.55-4.32-1.41-7.16-2.78-14.32-4.11-21.5-.71-3.82,1.25-7.51,4.83-9.07,13.03-5.68,26.31-10.71,39.82-15.12,16.81-5.48,33.84-10.15,51.18-13.56,12.52-2.46,25.14-4.4,37.71-6.54,2.32-.39,4.66-.65,6.47-.89Z"/><path d="m571.03,183.06c6.04,1.4,11.85,2.9,17.73,4.06,4.69.92,9.47,1.19,14.14-.17,1.65-.48,3.32-1.2,4.72-2.19,3.2-2.25,3.38-6.53.18-8.78-2.28-1.61-4.98-2.74-7.62-3.72-4.44-1.65-9.11-2.76-13.47-4.58-6.05-2.53-10.95-6.58-14.18-12.44-5.61-10.19-4.19-29.13,11.7-37.93,5.65-3.13,11.74-4.83,18.08-5.66,10.51-1.37,20.91-.69,31.13,2.07,4.53,1.23,3.99.4,3.51,5-.63,6.03-2.28,11.76-5.42,17-.33.55-.72,1.07-.93,1.38-4.2-.99-8.2-2.1-12.27-2.85-4.88-.9-9.8-.72-14.57.73-1.35.41-2.71,1.12-3.79,2.03-2.37,1.97-2.69,5.15-.5,7.28,1.75,1.71,3.88,3.23,6.11,4.22,4.56,2.03,9.36,3.51,13.96,5.47,3.26,1.38,6.46,2.98,9.47,4.82,6.6,4.03,10.04,10.05,10.25,17.78.29,10.48-2.92,19.4-11.84,25.66-4.03,2.83-8.55,4.55-13.3,5.72-8.47,2.09-17.08,2.18-25.7,1.6-5.49-.37-10.93-1.27-16.41-1.89-1.09-.12-1.62-.55-1.88-1.67-1.69-7.5-1.98-14.95.6-22.33.07-.19.14-.37.23-.55.04-.09.12-.15.05-.07Z"/><path d="m688.71,136.07c0,.79,0,1.33,0,1.87,0,12.07-.01,24.14.01,36.2,0,1.6.11,3.2.33,4.79.61,4.41,3.09,6.56,7.7,6.88,4.2.29,8.31-.11,12.3-1.44,1.09-.36,1.6-.07,2.08.9,1.8,3.61,2.46,7.5,2.79,11.44.25,2.99.2,6,.39,8.99.07,1.14-.36,1.68-1.41,1.82-4.75.67-9.48,1.57-14.25,1.93-7.32.56-14.62.23-21.76-1.74-9.29-2.57-14.38-8.83-15.78-18.18-.42-2.81-.61-5.67-.62-8.52-.06-14.32-.03-28.64-.03-42.96,0-.59,0-1.18,0-1.99h-14.09c0-3.92.86-7.44,2.18-10.85,2.82-7.3,7.24-13.58,12.58-19.23,6.57-6.95,14.03-12.69,23.06-16.15,1.39-.53,2.84-.94,4.46-1.47v25h28.05c-.22,2.32-.34,4.45-.64,6.56-.67,4.68-1.9,9.19-4.27,13.34-1.13,1.98-2.49,2.99-5.02,2.87-5.4-.25-10.83-.08-16.25-.08-.54,0-1.09,0-1.82,0Z"/><path d="m46.62,128.78c-2.84-.13-5.07-1.74-5.8-4.47-1.84-6.9-3.67-13.81-5.37-20.75-1.01-4.11,1.35-8.03,5.45-9.22,14.28-4.14,28.72-7.67,43.34-10.33,12.11-2.21,24.3-4.02,36.46-5.98,2.42-.39,4.86-.66,7.3-.94,3.44-.39,6.58,1.32,7.83,4.58,2.48,6.49,4.86,13.01,7.12,19.58,1.3,3.78-.83,6.96-4.77,7.53-30.16,4.39-59.91,10.62-89.07,19.5-.8.25-1.66.34-2.49.5Z"/><path d="m61.7,202.64c.1-3.21,2.01-5.83,5.34-6.92,7.08-2.33,14.15-4.68,21.27-6.84,21.16-6.43,42.59-11.83,64.22-16.47,3.45-.74,6.77,1.42,8.07,5.37,1.53,4.65,2.98,9.32,4.44,13.99.55,1.76,1.16,3.52,1.56,5.31.76,3.4-.78,5.84-4.13,6.64-28.76,6.91-56.98,15.61-84.86,25.45-5.07,1.79-8.87-.14-10.28-5.26-1.76-6.35-3.49-12.71-5.21-19.08-.19-.72-.29-1.46-.42-2.2Z"/><path d="m550.8,114.41v93.16h-28.38c-.03-.52-.08-1-.08-1.49,0-30.08,0-60.16,0-90.25,0-.81-.07-1.51.99-1.86,9-3,17.97-3.09,26.93.16.18.07.35.18.54.27Z"/></g></svg>